<?xml version="1.0" encoding="UTF-8"?>
<svg xmlns="http://www.w3.org/2000/svg" baseProfile="tiny" width="1440" height="1426">
  <g id="town" stroke="#000" stroke-width="1">
    <path d="M 1256.067 1116.461 1258.9739 1122.597 1258.9722 1123.2705 1258.9023 1123.4051 1258.9656 1125.9646 1258.3357 1127.5121 1259.0981 1128.6589 1254.0719 1135.5837 1253.6392 1141.779 1252.4529 1143.1904 1245.2894 1142.1624 1241.0377 1145.25 1240.828 1145.6536 1242.9113 1147.2078 1241.7057 1156.3646 1241.9832 1156.702 1242.6786 1156.8384 1242.8171 1157.1082 1247.7431 1162.7106 1247.8809 1163.2497 1251.7678 1167.031 1251.6954 1168.1758 1251.208 1168.3093 1249.7372 1172.212 1254.5293 1175.7934 1259.184 1178.7009 1258.8321 1180.3165 1261.2014 1178.8406 1264.2553 1181.9462 1263.3426 1185.3115 1262.7849 1185.7142 1260.2029 1188.8061 1260.8276 1189.4138 1260.2594 1194.1269 1259.4867 1197.0885 1259.3467 1197.4249 1258.6417 1201.1948 1254.0386 1205.4939 1253.1324 1206.1652 1249.2904 1212.15 1245.1211 1209.8497 1241.0866 1209.3009 1239.2777 1209.1616 1241.711 1210.0433 1243.8612 1212.81 1251.3032 1214.2428 1251.8577 1215.1197 1252.1339 1215.996 1252.1336 1216.1307 1252.2712 1216.7372 1252.2707 1216.9392 1251.1527 1218.8223 1248.8562 1218.884 1245.7232 1219.5497 1244.9417 1226.0134 1240.1372 1227.2138 1238.2584 1227.2091 1237.8383 1228.2183 1235.5342 1231.3107 1238.8014 1232.6659 1237.2626 1235.8275 1227.024 1239.4388 1217.3366 1245.139 1211.2794 1246.2685 1207.651 1250.0309 1193.8531 1257.3365 1187.8221 1248.3631 1182.1079 1251.3116 1179.9542 1249.9589 1177.8684 1249.2125 1174.1138 1247.9903 1167.8403 1251.88 1169.6428 1254.4441 1169.7119 1254.6464 1173.4543 1260.5158 1172.2511 1268.1233 1173.3542 1272.0325 1175.8606 1271.635 1178.0828 1273.4594 1178.3481 1278.444 1179.4339 1288.9536 1183.4686 1289.7051 1184.9079 1298.195 1186.0875 1299.5451 1188.8591 1304.2669 1190.7274 1308.4475 1187.2453 1309.2466 1180.3592 1307.6122 1170.8871 1310.0792 1166.6385 1311.2128 1166.3601 1311.2121 1164.7598 1311.0058 1155.8565 1308.9615 1152.8659 1308.1452 1139.8113 1297.0644 1125.8643 1281.7376 1122.376 1284.8261 1118.7482 1287.9816 1103.0732 1268.8102 1093.2934 1257.1984 1092.4371 1264.6719 1078.8436 1248.3343 1077.2487 1246.3766 1074.6128 1243.4056 1071.145 1239.3545 1063.1694 1229.9697 1057.7607 1223.421 1051.8668 1216.2646 1053.9638 1213.0379 1057.1635 1213.4513 1071.4924 1215.3786 1078.0266 1217.7546 1080.8057 1219.2443 1091.488 1206.68 1092.3337 1202.9108 1077.4053 1191.7554 1066.2302 1182.2267 1060.3456 1172.0396 1049.8638 1163.6576 1038.5471 1155.4074 1039.2885 1139.9862 1035.963 1135.2618 1035.2679 1135.0577 1033.3884 1135.3889 1029.3033 1128.7763 1030.23 1121.3031 1030.4475 1118.3403 1038.7861 1121.6652 1038.8557 1121.6654 1042.1869 1124.4366 1043.9955 1124.5093 1045.8977 1116.4327 1046.324 1113.4032 1046.4639 1113.1342 1049.2121 1101.2211 1049.9089 1100.819 1050.049 1100.4826 1057.0143 1097.5395 1057.44 1094.712 1053.7583 1092.8828 1053.6891 1092.7479 1053.7593 1092.546 1054.8842 1088.5082 1055.1701 1085.8824 1062.9609 1086.0397 1063.7261 1086.0419 1064.0045 1085.9754 1072.7022 1085.2596 1085.9088 1089.0017 1082.0313 1082.6597 1080.1702 1076.6601 1088.6858 1066.5143 1099.222 1055.027 1101.3117 1054.0226 1099.8964 1062.5723 1102.6691 1066.015 1100.2191 1071.4635 1099.8576 1076.3118 1100.6087 1081.2979 1100.8821 1083.0498 1101.9054 1090.1919 1102.0413 1091.3373 1104.5914 1099.8307 1103.2636 1101.9822 1101.3775 1104.7383 1102.3348 1110.6679 1102.6108 1111.4769 1104.8944 1115.7938 1105.1719 1116.064 1110.5216 1118.6383 1111.008 1118.8417 1113.3017 1119.589 1113.3711 1119.6565 1114.8968 1121.4119 1120.2633 1117.9245 1123.3997 1115.8453 1123.9539 1116.7224 1132.719 1116.9485 1134.389 1116.8184 1134.8064 1116.8195 1135.224 1116.7533 1138.4237 1116.9641 1147.1917 1116.1124 1157.0002 1116.4082 1156.6584 1114.1847 1156.5267 1111.423 1156.391 1110.1429 1156.704 1097.2123 1167.0045 1095.4887 1169.5709 1098.3243 1172.9705 1101.7682 1183.6834 1101.9312 1194.2547 1103.0364 1201.7608 1105.8173 1202.6668 1105.2134 1204.1285 1104.8805 1204.4764 1104.8814 1218.0427 1104.6467 1235.0028 1110.347 1244.6631 1114.2775 1256.067 1116.461 Z" fill="#67a9cf">
      <title>
        田中鎮 Tianzhong Township
      </title>
    </path>
    <path d="M 1123.9539 1116.7224 1123.3997 1115.8453 1120.2633 1117.9245 1114.8968 1121.4119 1113.3711 1119.6565 1113.3017 1119.589 1111.008 1118.8417 1110.5216 1118.6383 1105.1719 1116.064 1104.8944 1115.7938 1102.6108 1111.4769 1102.3348 1110.6679 1101.3775 1104.7383 1103.2636 1101.9822 1104.5914 1099.8307 1102.0413 1091.3373 1101.9054 1090.1919 1100.8821 1083.0498 1100.6087 1081.2979 1099.8576 1076.3118 1100.2191 1071.4635 1102.6691 1066.015 1099.8964 1062.5723 1101.3117 1054.0226 1099.222 1055.027 1088.6858 1066.5143 1080.1702 1076.6601 1079.4103 1074.8394 1079.3436 1073.829 1075.2729 1062.1655 1074.2373 1059.4685 1074.1689 1059.0642 1074.0307 1058.727 1073.9629 1058.1207 1069.2523 1027.3275 1077.8862 1024.1868 1079.8356 1023.5189 1082.9752 1020.1603 1080.5557 1014.9673 1076.553 1004.0449 1077.6176 996.6393 1078.1052 996.3712 1086.3922 992.6906 1095.2316 990.3584 1099.2653 990.4371 1099.7523 990.3711 1108.3097 989.3848 1108.455 987.1627 1105.709 974.3582 1103.7807 967.6176 1102.5384 964.2465 1104.424 961.4231 1105.0515 960.886 1105.6783 960.551 1106.1659 960.283 1100.2007 954.7434 1090.2075 947.3065 1098.2931 940.7289 1103.2015 926.3294 1106.0807 916.3695 1106.4278 916.5725 1107.3312 916.7771 1112.0002 938.0733 1114.5484 946.9708 1114.9632 947.8475 1115.516 949.1287 1119.6672 956.8183 1120.979 960.2569 1136.914 956.8658 1147.4907 954.6719 1149.5148 951.9834 1150.2817 951.2446 1152.094 949.7004 1155.7947 944.1875 1159.1579 934.8347 1157.3019 926.8148 1157.5107 926.7481 1158.9018 926.6171 1160.5018 926.4193 1162.241 926.1546 1164.7454 925.7572 1174.2058 924.6373 1174.4222 921.6744 1187.2944 918.8122 1189.2365 920.7031 1201.1864 924.8426 1209.4688 922.0352 1220.3104 924.5549 1224.4145 924.0265 1228.0985 924.642 1247.4785 933.2442 1253.5242 935.0103 1263.0558 933.1479 1267.9235 933.2271 1267.7842 933.2941 1267.9134 937.3355 1268.191 937.6056 1271.4546 939.5667 1275.4867 940.1153 1276.3862 942.0033 1277.6372 942.2757 1278.3296 943.5571 1279.2348 943.0878 1281.0423 943.2942 1283.8135 947.6787 1282.9088 947.9459 1289.5784 950.656 1295.0588 956.3265 1295.4692 959.2236 1294.0746 960.7694 1294.1437 960.9716 1294.976 961.9165 1294.9055 962.3204 1294.9052 962.4551 1294.831 964.4082 1290.3022 967.8997 1292.8646 972.4183 1290.8455 973.3564 1286.6708 974.1547 1283.4741 973.1367 1283.4733 973.4735 1283.6817 973.5413 1284.7215 974.9582 1286.2509 975.2313 1285.1257 980.4146 1284.9067 984.7246 1284.7613 987.351 1283.7844 988.6957 1285.6488 994.2903 1281.8986 991.9913 1281.967 992.463 1281.9657 993.0018 1282.1707 994.5513 1282.784 999.8062 1277.9055 1003.9029 1273.9954 1010.1571 1273.9948 1010.4266 1278.5839 1010.9764 1280.6686 1011.7897 1281.5029 1011.9264 1283.3691 1016.7802 1279.1155 1021.2825 1281.7496 1024.9931 1278.8215 1027.8148 1283.472 1031.8671 1284.5135 1032.6105 1284.2198 1039.0755 1284.1492 1039.4794 1286.0939 1040.6964 1286.3018 1041.0336 1287.9642 1043.9337 1287.0534 1046.6929 1285.103 1047.8332 1284.3908 1054.7687 1285.4322 1055.5794 1285.8357 1061.3726 1282.7035 1062.1733 1284.8495 1066.4889 1279.2726 1071.4595 1266.9529 1074.3931 1266.95 1075.6055 1270.4273 1075.9507 1268.9386 1087.3967 1269.1463 1087.8014 1269.6308 1088.8128 1264.5386 1094.5252 1262.7861 1099.9764 1262.0762 1105.7669 1260.8916 1106.5722 1260.8214 1106.8414 1256.067 1116.461 1244.6631 1114.2775 1235.0028 1110.347 1218.0427 1104.6467 1204.4764 1104.8814 1204.1285 1104.8805 1202.6668 1105.2134 1201.7608 1105.8173 1194.2547 1103.0364 1183.6834 1101.9312 1172.9705 1101.7682 1169.5709 1098.3243 1167.0045 1095.4887 1156.704 1097.2123 1156.391 1110.1429 1156.5267 1111.423 1156.6584 1114.1847 1157.0002 1116.4082 1147.1917 1116.1124 1138.4237 1116.9641 1135.224 1116.7533 1134.8064 1116.8195 1134.389 1116.8184 1132.719 1116.9485 1123.9539 1116.7224 Z" fill="#d1e5f0">
      <title>
        社頭鄉 Shetou Township
      </title>
    </path>
    <path d="M 1207.31 734.7916 1206.0545 736.4722 1203.8716 747.3103 1216.4351 754.3471 1216.1593 753.4708 1214.0893 747.4712 1218.3153 753.0049 1220.5268 758.0619 1224.4976 754.7044 1225.1232 754.706 1226.8594 755.3166 1228.7359 755.456 1229.697 760.2404 1233.651 763.4833 1233.0825 768.3985 1239.8165 771.9177 1241.1953 776.5011 1240.4236 779.328 1240.5596 780.5406 1240.3468 782.2239 1242.5641 785.1256 1241.4449 787.8842 1245.3276 792.0023 1245.6733 792.7441 1246.2293 792.8128 1247.7515 795.7127 1249.0715 796.0527 1250.5953 798.2791 1252.2569 801.0447 1254.5414 804.9567 1256.1986 809.5407 1251.8993 805.0849 1252.2386 808.4533 1257.7057 818.5696 1256.1694 821.3272 1267.1404 826.8769 1264.4148 832.6625 1268.0953 834.4227 1265.1689 837.0423 1264.6069 839.3982 1259.4657 837.9039 1258.6976 839.249 1260.434 839.9268 1262.5857 841.4138 1268.9115 841.8333 1271.7427 849.7877 1271.5341 849.7872 1265.4194 848.2906 1263.7427 851.5867 1268.6087 851.9354 1270.8956 855.0391 1281.9482 856.0087 1279.0899 859.1674 1277.1439 858.8259 1270.806 863.2558 1265.1734 863.5788 1269.5356 870.9981 1276.9553 879.3004 1281.1159 883.9577 1281.2544 884.2274 1281.7385 885.3062 1287.0773 891.6501 1283.1071 894.4693 1275.5423 888.5241 1274.7776 888.4549 1273.2436 890.2024 1273.4419 894.446 1281.0766 900.2567 1283.4307 904.4381 1293.908 913.9597 1291.8869 915.8407 1286.6706 916.2324 1286.0433 916.8371 1285.4859 917.3072 1285.3465 917.4416 1281.1003 919.2499 1280.9502 923.8294 1279.6907 927.0592 1279.6205 927.3285 1271.8162 933.8427 1268.3404 933.3628 1267.9235 933.2271 1263.0558 933.1479 1253.5242 935.0103 1247.4785 933.2442 1228.0985 924.642 1224.4145 924.0265 1220.3104 924.5549 1209.4688 922.0352 1201.1864 924.8426 1189.2365 920.7031 1187.2944 918.8122 1174.4222 921.6744 1174.2058 924.6373 1164.7454 925.7572 1162.241 926.1546 1160.5018 926.4193 1158.9018 926.6171 1157.5107 926.7481 1157.3019 926.8148 1159.1579 934.8347 1155.7947 944.1875 1152.094 949.7004 1150.2817 951.2446 1149.5148 951.9834 1147.4907 954.6719 1136.914 956.8658 1120.979 960.2569 1119.6672 956.8183 1115.516 949.1287 1114.9632 947.8475 1114.5484 946.9708 1112.0002 938.0733 1107.3312 916.7771 1106.4278 916.5725 1106.0807 916.3695 1103.2015 926.3294 1094.9301 925.0264 1085.5497 922.4404 1078.4568 922.4202 1068.8103 915.7246 1066.3268 908.8475 1062.3605 909.779 1060.203 910.4462 1058.119 885.9241 1062.023 882.4332 1065.0773 884.1932 1069.6906 875.8549 1073.816 867.8519 1065.7042 859.881 1066.5561 853.8218 1066.0241 845.4686 1065.5402 844.5243 1065.0549 844.0514 1064.6389 843.6461 1064.1538 843.1059 1063.3916 842.2281 1060.7569 839.7284 1059.9933 839.3221 1058.4641 839.1829 1057.2818 839.3142 1056.3776 839.4462 1055.5429 839.5785 1054.917 839.644 1052.6906 840.1763 1050.1853 840.9772 1049.2125 840.7723 1041.092 836.0338 1026.3065 828.2444 1018.8013 827.1443 1008.5407 817.6168 1006.4741 811.3468 1009.4291 799.7712 1012.0768 797.8259 1015.7832 790.5631 1016.2209 783.7618 1016.4991 783.6953 1018.649 785.3856 1019.7595 785.9951 1023.3743 786.0059 1021.5132 780.7469 1026.1129 776.8542 1035.781 775.0645 1036.6195 773.5852 1045.9434 770.5819 1054.8444 769.5304 1060.8246 768.8743 1061.5211 768.4049 1064.6502 768.0772 1064.9921 770.0314 1062.822 775.2112 1064.3995 782.5571 1064.2387 790.0328 1063.887 791.4461 1063.8114 793.5338 1063.81 794.0053 1064.0182 794.1406 1072.2945 792.8848 1074.6612 791.814 1077.8583 792.0926 1081.7547 790.8914 1081.9668 789.6797 1086.972 789.694 1087.2503 789.6274 1088.6402 789.7661 1089.5441 789.7013 1100.262 785.4211 1104.0202 783.8826 1104.3684 783.6815 1104.9249 783.5484 1112.4319 783.8388 1107.9294 778.1013 1105.229 774.322 1105.9268 773.381 1123.4527 770.4663 1124.3571 770.1994 1127.5572 769.3327 1131.9382 768.7386 1143.4823 767.019 1146.8813 769.6549 1153.0814 764.755 1155.1022 762.942 1169.8636 753.7542 1174.8019 752.6224 1185.8039 745.3774 1194.8675 734.9615 1207.31 734.7916 Z" fill="#2166ac">
      <title>
        員林市 Yuanlin City
      </title>
    </path>
    <path d="M 1124.8118 331.7358 1128.0066 331.6099 1128.7705 331.6121 1128.9785 331.7473 1129.1172 331.8151 1130.0896 331.7504 1131.7529 332.9673 1136.3212 338.4355 1143.1856 342.3607 1165.1862 347.539 1167.339 347.5447 1169.8397 347.3493 1177.5497 346.831 1180.9533 346.5706 1184.3516 348.3307 1185.8062 349.749 1186.9124 351.6378 1189.3363 354.2035 1189.5445 354.2714 1205.9324 354.9876 1206.3488 355.1234 1208.4966 357.0822 1212.3859 357.0248 1215.3734 356.561 1219.1956 355.5605 1219.7512 355.5619 1219.7509 355.6966 1219.6809 355.8985 1219.6807 355.9658 1219.5309 360.2087 1221.8673 369.9135 1221.9361 370.183 1222.6054 380.0183 1225.912 390.6684 1227.3334 405.2202 1227.8583 417.2777 1230.6909 423.2792 1232.9629 431.2326 1241.1019 454.0182 1241.3784 454.5577 1248.8755 456.597 1255.1176 460.5189 1257.6079 464.7009 1259.2643 469.0829 1259.4554 476.088 1259.3816 477.839 1260.2492 492.1873 1260.249 492.2546 1260.1071 493.4666 1259.965 494.746 1259.7431 500.201 1260.2764 509.2949 1253.7143 522.0083 1253.2868 526.3178 1256.4517 538.7858 1256.4514 538.9205 1260.4683 544.1165 1255.8106 545.1827 1246.7753 546.3727 1230.772 555.4925 1218.1286 554.7195 1217.6422 554.7183 1203.5411 553.4023 1189.422 558.9559 1188.3756 560.5696 1158.254 573.9601 1157.77 573.0832 1157.7023 572.4095 1155.9935 561.9653 1150.0982 558.0429 1139.9804 548.4513 1140.057 545.8248 1143.2591 543.6109 1139.8037 536.8662 1135.2966 533.621 1133.3669 527.9581 1128.3684 526.5972 1127.3957 526.5946 1126.6999 526.9968 1123.642 527.3251 1121.9754 527.051 1119.4149 523.4069 1116.4326 521.5801 1115.6006 520.9716 1111.8575 517.9303 1111.8567 518.1997 1104.8338 520.3353 1098.108 515.669 1095.7581 511.3518 1094.854 511.686 1085.5348 515.0944 1080.4661 514.0696 1074.7592 517.5556 1069.2627 520.3012 1067.5135 524.5393 1053.2481 532.3107 1049.2129 534.1847 1049.074 534.1843 1045.5301 534.3759 1043.7315 531.7439 1042.9684 531.3375 1042.3439 531.0663 1033.5233 530.0972 1026.6741 520.4453 1022.0311 516.525 1009.7962 518.9801 994.7215 518.5301 981.9417 517.4132 976.7288 518.1379 973.9318 523.9215 972.7448 525.8037 967.2562 525.7866 962.185 525.636 951.697 524.7274 947.1136 524.1067 940.7239 523.4803 936.6393 518.9546 933.8658 517.2619 932.0734 512.9456 931.035 511.7972 930.0636 511.39 928.0356 515.492 924.7405 524.7088 916.6847 523.6724 905.5265 515.3517 904.4844 515.3483 904.0669 515.549 897.3727 523.0033 891.3823 527.6982 890.2072 525.8758 888.1333 522.7708 892.3837 519.013 891.4285 513.7564 886.023 509.6973 884.9874 507.7407 883.2007 501.875 882.9309 499.4494 883.9887 494.7383 891.2831 494.7624 891.4209 474.1528 884.7653 470.157 879.7968 460.2396 880.4258 459.0967 881.6791 458.2253 882.6568 456.6794 882.1786 454.2531 877.8182 449.5239 870.4072 443.1006 872.156 439.4694 875.5021 435.9109 886.4059 436.4186 888.42 436.4926 899.737 438.079 901.0977 425.6905 907.5554 426.3178 913.5977 426.5395 924.6983 430.5493 917.4495 416.8532 912.1147 412.7273 918.0994 409.2444 923.0879 413.0997 927.7957 417.8295 939.2571 417.5968 941.0667 416.4576 947.1321 409.4048 947.9118 404.4905 950.7848 396.552 961.9013 395.3747 963.6379 395.3127 966.6939 395.3223 971.0691 395.4707 974.4848 391.5075 975.5266 391.5107 980.0564 386.608 988.3224 386.2968 1001.1898 380.2744 998.6482 371.1067 998.9329 368.8849 998.8078 364.3719 1001.8037 361.2828 1003.4029 360.6815 1005.076 358.5986 1005.9889 355.3011 1006.4786 354.1576 1007.3237 350.321 1009.1973 350.7982 1012.5003 338.0111 1012.5726 337.0684 1013.475 337.2058 1013.5532 334.3098 1019.7348 333.9917 1022.3356 323.6272 1025.065 316.6306 1032.4913 317.9999 1037.7614 320.5076 1042.4131 320.8581 1045.4682 321.0019 1045.7459 321.0027 1050.6754 321.354 1051.5081 321.5585 1063.8547 326.444 1068.8489 328.4117 1073.4962 330.311 1096.2585 335.7644 1111.3398 331.631 1124.8118 331.7358 Z" fill="#2166ac">
      <title>
        彰化市 Changhua City
      </title>
    </path>
    <path d="M 1025.065 316.6306 1022.3356 323.6272 1019.7348 333.9917 1013.5532 334.3098 1013.475 337.2058 1012.5726 337.0684 1012.5003 338.0111 1009.1973 350.7982 1007.3237 350.321 1006.4786 354.1576 1005.9889 355.3011 1005.076 358.5986 1003.4029 360.6815 1001.8037 361.2828 998.8078 364.3719 998.9329 368.8849 998.6482 371.1067 1001.1898 380.2744 988.3224 386.2968 980.0564 386.608 975.5266 391.5107 974.4848 391.5075 971.0691 395.4707 966.6939 395.3223 963.6379 395.3127 961.9013 395.3747 950.7848 396.552 947.9118 404.4905 947.1321 409.4048 941.0667 416.4576 939.2571 417.5968 927.7957 417.8295 923.0879 413.0997 918.0994 409.2444 912.1147 412.7273 917.4495 416.8532 924.6983 430.5493 913.5977 426.5395 907.5554 426.3178 901.0977 425.6905 899.737 438.079 888.42 436.4926 886.4059 436.4186 875.5021 435.9109 872.156 439.4694 870.4072 443.1006 866.8097 438.778 864.0333 438.1625 863.546 438.4976 863.0586 438.8327 862.5715 439.1005 858.3325 439.6251 857.0813 439.8902 848.607 439.8615 848.5396 439.2551 848.333 438.7156 847.9874 438.243 844.6629 435.4028 844.455 435.2674 842.8585 434.9252 842.2334 434.9231 841.1234 434.5152 839.8095 432.8269 838.1498 430.6659 837.6664 429.856 836.9746 429.0454 835.3893 425.4702 835.321 425.1332 837.988 417.1274 837.9271 414.6351 838.2802 412.9525 838.9799 411.4731 839.2612 410.4638 839.195 409.5206 838.9304 405.6805 839.0021 405.0073 841.4386 403.3991 842.204 402.9976 844.2328 398.7613 838.9001 394.2978 835.4366 391.5918 835.5068 391.39 835.7235 388.966 833.8562 386.6696 834.0037 384.178 834.5607 383.7758 835.9539 382.5682 834.7767 381.5539 833.4597 380.8085 832.3489 380.67 832.0017 380.6688 830.9585 381.0693 830.3341 380.8651 829.7792 380.6611 829.5037 379.9866 829.8549 378.8429 829.9265 378.2369 828.6233 373.5177 828.0071 370.9562 827.107 370.1448 826.8292 370.1439 824.6725 371.2141 824.473 368.654 824.0603 367.5075 817.6742 366.5425 817.258 366.4063 816.9807 366.2707 815.6621 365.9967 813.5767 366.5283 811.5601 367.2621 804.9758 363.4 804.9083 362.8609 804.9095 362.5242 805.1901 361.7169 805.1216 361.4473 802.3588 357.127 801.5316 355.3729 801.3954 354.6315 809.8019 353.718 808.3529 351.0188 805.9886 351.8861 806.4134 349.5976 803.165 345.1409 807.2178 338.083 805.352 335.4497 806.2834 327.3032 807.1864 327.239 811.9934 322.8778 811.0297 320.4497 811.3096 319.8445 812.3585 317.7602 812.568 317.4242 813.1285 316.0117 813.8969 314.7347 815.5074 310.9011 817.5998 308.2816 820.895 299.2677 823.7429 299.0081 826.5509 290.2619 827.5964 289.1205 828.3682 286.8331 828.9251 286.4309 829.1352 285.8928 829.5533 285.4901 829.7641 284.75 819.7421 271.4467 819.0626 267.2011 817.0756 259.5833 815.1909 242.6036 815.9382 227.4517 816.0773 227.3848 822.072 220.5355 823.1118 221.0106 827.6888 222.5082 829.8095 231.6082 829.8041 233.1573 831.4639 235.049 853.6461 245.3624 866.1274 250.1866 873.6821 254.1858 875.8313 255.1359 879.185 248.8832 883.73 239.3342 884.2286 235.564 887.4686 221.6999 889.6462 214.0962 890.0677 212.6158 890.4188 211.4046 890.4889 211.2028 891.0502 209.4535 891.2864 201.0351 885.1152 198.792 882.3356 199.591 881.0165 199.5866 876.4464 196.069 876.8082 191.6922 883.4826 188.7509 901.3288 187.328 900.7372 177.2904 912.5599 170.7957 917.7857 164.8856 919.5282 162.7359 928.5024 156.7704 933.0868 155.9096 936.3167 166.023 939.2158 171.1511 942.2503 177.3573 943.2847 179.5159 947.7744 186.6023 951.9657 200.221 951.9638 200.8272 949.9776 214.0895 948.5768 217.9242 947.3196 220.2776 945.0171 223.84 943.8323 225.2507 944.0326 227.7434 945.066 230.2387 963.446 258.1137 967.584 267.0173 968.2061 267.8949 969.381 269.6497 973.7378 275.2536 974.1534 275.5917 993.299 281.6453 999.1202 285.3676 1003.8835 294.4748 1008.2345 302.2336 1011.0682 306.6202 1025.065 316.6306 Z" fill="#2166ac">
      <title>
        和美鎮 Hemei Township
      </title>
    </path>
    <path d="M 816.0773 227.3848 815.9382 227.4517 815.1909 242.6036 817.0756 259.5833 819.0626 267.2011 819.7421 271.4467 829.7641 284.75 829.5533 285.4901 829.1352 285.8928 828.9251 286.4309 828.3682 286.8331 827.5964 289.1205 826.5509 290.2619 823.7429 299.0081 820.895 299.2677 817.5998 308.2816 815.5074 310.9011 813.8969 314.7347 813.1285 316.0117 812.568 317.4242 812.3585 317.7602 811.3096 319.8445 811.0297 320.4497 811.9934 322.8778 807.1864 327.239 806.2834 327.3032 805.352 335.4497 807.2178 338.083 803.165 345.1409 806.4134 349.5976 805.9886 351.8861 808.3529 351.0188 809.8019 353.718 801.3954 354.6315 800.631 354.7636 799.38 355.0286 797.018 355.2224 796.3937 355.0181 790.7059 353.0448 789.4592 352.0975 788.9752 351.4896 788.5607 350.8819 784.8973 346.0195 783.2335 345.2054 781.1534 344.2551 778.8651 343.304 775.7432 342.4173 770.8106 342.9385 769.7036 341.7895 769.6365 341.1157 769.917 340.3759 770.0624 338.5578 770.0658 337.6149 769.1686 336.0626 767.5053 335.1137 761.257 334.6197 758.6881 334.4758 757.9939 334.4059 757.161 334.2682 756.0519 333.7254 755.7125 331.5689 758.4191 332.0501 758.8343 332.4557 760.2907 332.9998 766.6113 332.6857 767.0999 332.0139 767.1703 331.7448 766.2073 329.1819 761.7295 319.1975 760.2138 315.8917 759.8013 314.7453 757.8735 310.1583 753.0298 305.426 752.1988 304.8168 750.6745 303.8684 750.5359 303.8005 747.9735 301.9053 744.2334 299.265 742.6393 298.4509 741.3909 298.0423 738.893 297.4943 738.6852 297.3589 738.408 297.2231 737.9231 296.8846 738.0786 292.3725 735.2542 286.233 725.2315 273.8705 697.113 273.0926 686.6084 278.3067 685.427 278.5716 681.9529 279.1647 671.6689 281.079 664.5971 278.2905 653.5446 281.4138 641.5319 281.4348 637.8515 281.4879 600.0767 281.7438 568.7597 281.9553 565.3571 282.0089 564.1766 282.0041 557.0242 282.1098 559.6779 278.4161 565.7204 260.996 561.9263 254.9187 562.0447 242.9302 567.8485 232.8507 577.0261 229.6547 584.1815 228.6057 590.0553 218.1893 593.9407 201.5011 601.6244 189.7447 598.6689 182.324 587.7835 178.9129 588.219 174.1999 594.689 170.7233 605.5247 169.1498 609.7053 165.2598 608.4884 157.0378 609.7114 146.266 612.0987 139.4053 612.2844 127.6191 613.269 124.39 619.3503 113.6372 625.3363 109.4174 634.9999 105.4139 639.253 100.5135 642.2175 105.6439 657.184 130.2859 667.1925 144.94 683.909 166.4893 687.9906 170.2092 685.2 173.8358 725.3416 206.7193 734.0124 208.7044 734.792 204.3967 737.6418 203.4641 747.6369 204.0394 765.354 200.1968 767.2049 206.7368 773.7007 215.1119 773.8267 218.6821 789.9853 223.7236 795.8262 221.1848 798.5272 223.0802 799.637 223.3535 801.7179 223.8997 806.2963 224.9933 809.9035 225.8815 816.0773 227.3848 Z" fill="#2166ac">
      <title>
        線西鄉 Xianxi Township
      </title>
    </path>
    <path d="M 738.11 1 828.7586 34.4602 849.4822 42.1422 885.9407 55.6681 897.4164 69.1768 902.0301 80.1706 906.6437 91.2318 911.2535 103.5726 914.4858 112.6758 915.3123 114.6318 915.8632 115.9806 917.9279 121.3756 918.6167 122.9943 922.6096 133.1103 925.7056 141.6069 927.9823 145.9248 931.2278 151.1889 933.0868 155.9096 928.5024 156.7704 919.5282 162.7359 917.7857 164.8856 912.5599 170.7957 900.7372 177.2904 901.3288 187.328 883.4826 188.7509 876.8082 191.6922 876.4464 196.069 881.0165 199.5866 882.3356 199.591 885.1152 198.792 891.2864 201.0351 891.0502 209.4535 890.4889 211.2028 890.4188 211.4046 890.0677 212.6158 889.6462 214.0962 887.4686 221.6999 884.2286 235.564 883.73 239.3342 879.185 248.8832 875.8313 255.1359 873.6821 254.1858 866.1274 250.1866 853.6461 245.3624 831.4639 235.049 829.8041 233.1573 829.8095 231.6082 827.6888 222.5082 823.1118 221.0106 822.072 220.5355 816.0773 227.3848 809.9035 225.8815 806.2963 224.9933 801.7179 223.8997 799.637 223.3535 798.5272 223.0802 795.8262 221.1848 789.9853 223.7236 773.8267 218.6821 773.7007 215.1119 767.2049 206.7368 765.354 200.1968 747.6369 204.0394 737.6418 203.4641 734.792 204.3967 734.0124 208.7044 725.3416 206.7193 685.2 173.8358 687.9906 170.2092 683.909 166.4893 667.1925 144.94 657.184 130.2859 642.2175 105.6439 639.253 100.5135 643.6532 93.4584 638.1989 86.0957 638.695 83.4708 641.2745 80.5172 654.752 77.2015 664.0101 70.0975 683.9865 73.2044 693.8769 63.9468 701.8786 58.5211 708.6638 44.3347 719.6734 32.3866 727.5671 18.406 728.6283 12.9543 738.11 1 Z" fill="#2166ac">
      <title>
        伸港鄉 Shengang Township
      </title>
    </path>
    <path d="M 870.4072 443.1006 877.8182 449.5239 882.1786 454.2531 882.6568 456.6794 881.6791 458.2253 880.4258 459.0967 879.7968 460.2396 884.7653 470.157 891.4209 474.1528 891.2831 494.7624 883.9887 494.7383 882.9309 499.4494 883.2007 501.875 884.9874 507.7407 886.023 509.6973 891.4285 513.7564 892.3837 519.013 888.1333 522.7708 890.2072 525.8758 891.3823 527.6982 897.3727 523.0033 904.0669 515.549 904.4844 515.3483 905.5265 515.3517 916.6847 523.6724 924.7405 524.7088 925.3608 526.2599 929.2122 538.3957 932.3915 543.5921 934.5215 551.0077 934.5208 551.2098 934.5198 551.5465 934.5698 557.6084 934.5676 558.282 934.4907 560.5717 934.5537 562.5925 934.4702 566.9702 934.4624 569.3948 934.4591 570.4051 934.458 570.7419 934.4576 570.8766 934.4496 573.3686 934.5015 578.8243 937.8998 580.8558 937.8691 590.4197 943.4796 596.0279 944.8613 598.5243 945.0662 599.6699 944.8433 604.1819 945.0464 605.8663 946.4216 610.4507 946.6279 611.1248 948.7795 611.9399 948.9178 612.1424 949.1947 612.48 949.2637 612.6149 949.4023 612.7501 949.6099 613.0202 949.8177 613.2229 949.8866 613.4251 949.9546 613.8968 949.9454 616.793 951.0435 621.107 949.0811 626.3543 948.5878 628.508 951.6354 631.6832 952.5189 637.9498 958.4307 636.4193 962.0271 641.8861 965.855 640.0796 967.1065 639.8815 967.9402 639.9514 968.4262 640.0876 969.5314 642.2464 970.844 644.7425 973.6783 649.5333 976.3762 653.5155 978.3093 657.63 977.6112 658.6381 972.0387 662.7293 962.6536 663.6429 960.7073 663.7715 960.1513 663.7698 959.386 664.0368 961.9419 668.9616 958.5749 678.7844 958.3665 678.7838 957.9501 678.5804 956.9784 678.1733 956.7705 677.9705 954.4798 677.0877 949.5544 674.2434 949.4139 674.7144 952.1829 678.1581 952.3164 679.9097 952.0264 683.6805 953.9596 687.7278 953.1915 688.8704 953.3942 690.6895 952.7527 695.7389 952.7499 696.6145 948.5052 698.2175 945.8669 697.3336 944.0529 699.4831 942.9278 703.588 936.5995 704.6455 935.4158 705.3153 936.6545 709.1583 936.6535 709.4951 935.806 713.6682 929.4103 714.0518 928.5065 714.1163 923.778 714.7746 921.0596 717.1232 921.4002 719.2796 922.3634 722.3135 918.2599 723.1085 917.1456 723.7784 913.8052 725.0473 909.7731 725.2363 906.4474 721.9925 901.2981 723.7269 895.5788 729.7025 887.7178 731.6971 883.6222 730.0671 874.5898 728.9595 877.1677 727.1496 879.6027 726.4841 880.4392 725.746 875.8648 721.8244 868.0357 714.3221 864.1641 708.1801 859.9419 702.9798 858.0749 700.1447 856.5547 697.5128 856.1404 696.7032 856.0028 696.2986 855.7269 695.6915 855.3137 694.5451 852.9786 686.3202 853.4843 680.6643 853.8316 680.7328 854.9634 674.877 850.3247 669.6751 861.8109 664.0563 857.1018 659.1237 851.952 661.1942 852.5146 659.2429 853.8533 653.8592 854.2072 651.9746 856.0262 648.411 856.0305 647.1313 848.6155 640.9771 838.5027 631.2439 815.4115 616.953 810.0801 611.4116 814.1889 608.8665 820.7994 606.2626 831.4322 605.9625 833.1699 605.8337 839.7015 605.9234 842.0183 598.994 834.4001 591.6265 833.3703 587.9859 824.0799 582.0269 820.4337 571.5073 817.469 564.8965 823.472 556.9696 821.0448 555.6142 820.7784 552.313 830.9935 551.8767 837.1801 551.0223 836.6558 541.8605 832.8338 542.0495 820.1861 542.8142 819.8006 533.7875 814.9356 534.2421 814.1435 522.3179 813.8117 517.8715 807.9747 518.1879 805.5557 514.6098 804.5935 511.6429 804.1116 510.3615 809.4031 507.0797 811.4178 507.0867 814.2673 506.7598 813.8905 495.3085 814.2091 483.6576 814.2849 481.8393 814.2218 480.0205 814.2477 472.6118 814.2578 469.7156 814.19 469.2439 813.845 468.5692 812.4616 466.8806 809.5563 463.3681 807.4123 460.6665 807.4265 456.6254 816.5268 456.5223 824.1077 453.8544 830.1585 451.72 834.7489 450.0519 839.2693 448.5183 839.5469 448.5866 842.252 449.7408 843.0207 448.3964 843.4412 447.3202 844.1402 446.0428 847.4892 441.7436 848.6061 440.131 848.607 439.8615 857.0813 439.8902 858.3325 439.6251 862.5715 439.1005 863.0586 438.8327 863.546 438.4976 864.0333 438.1625 866.8097 438.778 870.4072 443.1006 Z" fill="#2166ac">
      <title>
        秀水鄉 Xiushui Township
      </title>
    </path>
    <path d="M 1158.254 573.9601 1158.2474 576.3848 1156.2231 579.8143 1156.8372 583.9918 1163.5657 588.2531 1165.9113 594.5905 1165.467 604.7595 1164.9097 605.2968 1164.768 606.3067 1166.0702 613.0454 1166.1942 618.636 1168.3402 621.6726 1171.6722 623.0285 1172.9729 630.3734 1179.2731 639.2805 1183.2742 650.4716 1192.9724 662.351 1196.0123 669.2288 1190.1812 666.6542 1189.2785 666.3824 1179.5418 668.9836 1169.2577 668.3501 1160.3734 664.0832 1158.8369 666.9079 1155.4293 667.7069 1154.943 667.6383 1151.2631 666.3487 1147.0166 668.9639 1145.6899 671.2503 1142.2124 672.1837 1134.9224 669.4697 1126.5634 676.384 1119.1873 679.6639 1114.5237 682.2103 1106.2518 682.6586 1103.7481 683.2577 1101.3099 685.2714 1094.2876 686.1945 1088.6573 686.448 1070.5775 689.6964 1053.543 691.9369 1047.4255 692.3904 1043.4599 693.7258 1039.9842 693.9176 1038.0467 691.0157 1035.6481 679.626 1032.0474 675.1701 1030.7982 674.5602 1023.297 672.9887 1012.4532 673.6296 1007.4651 668.4284 1000.1901 661.1322 996.7885 659.9095 995.6078 659.6365 992.3438 658.8856 990.8856 658.477 986.2389 655.3645 978.3093 657.63 976.3762 653.5155 973.6783 649.5333 970.844 644.7425 969.5314 642.2464 968.4262 640.0876 967.9402 639.9514 967.1065 639.8815 965.855 640.0796 962.0271 641.8861 958.4307 636.4193 952.5189 637.9498 951.6354 631.6832 948.5878 628.508 949.0811 626.3543 951.0435 621.107 949.9454 616.793 949.9546 613.8968 949.8866 613.4251 949.8177 613.2229 949.6099 613.0202 949.4023 612.7501 949.2637 612.6149 949.1947 612.48 948.9178 612.1424 948.7795 611.9399 946.6279 611.1248 946.4216 610.4507 945.0464 605.8663 944.8433 604.1819 945.0662 599.6699 944.8613 598.5243 943.4796 596.0279 937.8691 590.4197 937.8998 580.8558 934.5015 578.8243 934.4496 573.3686 934.4576 570.8766 934.458 570.7419 934.4591 570.4051 934.4624 569.3948 934.4702 566.9702 934.5537 562.5925 934.4907 560.5717 934.5676 558.282 934.5698 557.6084 934.5198 551.5465 934.5208 551.2098 934.5215 551.0077 932.3915 543.5921 929.2122 538.3957 925.3608 526.2599 924.7405 524.7088 928.0356 515.492 930.0636 511.39 931.035 511.7972 932.0734 512.9456 933.8658 517.2619 936.6393 518.9546 940.7239 523.4803 947.1136 524.1067 951.697 524.7274 962.185 525.636 967.2562 525.7866 972.7448 525.8037 973.9318 523.9215 976.7288 518.1379 981.9417 517.4132 994.7215 518.5301 1009.7962 518.9801 1022.0311 516.525 1026.6741 520.4453 1033.5233 530.0972 1042.3439 531.0663 1042.9684 531.3375 1043.7315 531.7439 1045.5301 534.3759 1049.074 534.1843 1049.2129 534.1847 1053.2481 532.3107 1067.5135 524.5393 1069.2627 520.3012 1074.7592 517.5556 1080.4661 514.0696 1085.5348 515.0944 1094.854 511.686 1095.7581 511.3518 1098.108 515.669 1104.8338 520.3353 1111.8567 518.1997 1111.8575 517.9303 1115.6006 520.9716 1116.4326 521.5801 1119.4149 523.4069 1121.9754 527.051 1123.642 527.3251 1126.6999 526.9968 1127.3957 526.5946 1128.3684 526.5972 1133.3669 527.9581 1135.2966 533.621 1139.8037 536.8662 1143.2591 543.6109 1140.057 545.8248 1139.9804 548.4513 1150.0982 558.0429 1155.9935 561.9653 1157.7023 572.4095 1157.77 573.0832 1158.254 573.9601 Z" fill="#2166ac">
      <title>
        花壇鄉 Huatan Township
      </title>
    </path>
    <path d="M 1353.0304 598.3507 1353.2387 598.4185 1353.5854 598.7561 1354.0704 599.3633 1360.5859 606.6519 1368.2144 613.5388 1377.0998 617.7342 1382.0198 624.076 1396.6586 635.1534 1416.5037 649.3395 1417.0588 649.7448 1423.9979 654.7433 1423.788 655.4164 1416.6087 665.4368 1400.4085 668.7701 1408.6635 675.9943 1404.8971 682.2501 1402.4691 680.157 1398.2977 680.8216 1395.5204 679.536 1389.6842 678.7152 1389.1288 678.4446 1388.5037 678.2412 1387.1845 677.6321 1385.2424 675.8768 1370.5824 673.8915 1360.992 673.6682 1360.2276 673.5991 1358.9765 673.6637 1337.7803 673.2118 1334.0942 674.3484 1333.6071 674.6166 1333.3986 674.6162 1332.913 674.2109 1332.1496 673.7377 1331.3161 673.5338 1328.5363 673.46 1327.7023 673.4581 1323.9549 671.0921 1322.8432 670.9549 1321.3834 671.0862 1319.8537 671.4194 1319.2279 671.5527 1317.8366 672.0882 1317.2795 672.5584 1314.3579 673.6966 1314.2889 673.4944 1312.0694 671.6033 1307.6787 676.7792 1307.6081 677.2505 1307.468 677.7216 1307.3975 678.1255 1306.1442 679.1329 1305.6554 680.0747 1305.6537 680.8155 1305.7914 681.3547 1305.2329 682.431 1303.9146 681.485 1303.221 680.8772 1301.9724 679.8639 1300.1017 677.4348 1299.4775 676.8945 1298.7133 676.758 1298.3658 676.7572 1298.2266 676.8242 1298.3578 680.1248 1298.4247 681.2026 1298.5573 683.897 1298.5448 689.1504 1292.1077 707.1181 1292.5044 715.6054 1296.3794 722.8886 1308.1119 728.9106 1309.5003 729.6548 1311.9996 730.9403 1313.9431 732.0898 1315.0534 732.9006 1315.4003 733.1709 1317.4824 734.5227 1318.9395 735.6038 1319.4945 736.0765 1322.4767 738.9795 1326.7055 743.8386 1333.2254 749.9826 1335.3042 752.8162 1335.5097 754.1637 1335.6462 755.2416 1335.1501 759.4163 1333.821 763.0503 1333.5414 763.7231 1324.0283 789.295 1325.469 797.5826 1324.7142 823.3092 1325.0568 825.4652 1317.6095 829.0176 1317.1913 829.4881 1308.95 845.4313 1302.4658 853.1615 1297.9369 857.1919 1293.6857 861.3576 1289.0247 862.4241 1285.6322 856.4217 1272.1597 849.8561 1271.7427 849.7877 1268.9115 841.8333 1262.5857 841.4138 1260.434 839.9268 1258.6976 839.249 1259.4657 837.9039 1264.6069 839.3982 1265.1689 837.0423 1268.0953 834.4227 1264.4148 832.6625 1267.1404 826.8769 1256.1694 821.3272 1257.7057 818.5696 1252.2386 808.4533 1251.8993 805.0849 1256.1986 809.5407 1254.5414 804.9567 1252.2569 801.0447 1250.5953 798.2791 1249.0715 796.0527 1247.7515 795.7127 1246.2293 792.8128 1245.6733 792.7441 1245.3276 792.0023 1241.4449 787.8842 1242.5641 785.1256 1240.3468 782.2239 1240.5596 780.5406 1240.4236 779.328 1241.1953 776.5011 1239.8165 771.9177 1233.0825 768.3985 1233.651 763.4833 1229.697 760.2404 1228.7359 755.456 1226.8594 755.3166 1225.1232 754.706 1224.4976 754.7044 1220.5268 758.0619 1218.3153 753.0049 1214.0893 747.4712 1216.1593 753.4708 1216.4351 754.3471 1203.8716 747.3103 1206.0545 736.4722 1207.31 734.7916 1213.2268 731.5066 1207.8177 726.6434 1213.1832 721.4037 1214.5789 719.252 1211.5272 716.6848 1211.6616 718.5036 1208.6113 715.3976 1208.682 714.9263 1209.5952 711.2243 1208.6947 710.0097 1206.8927 708.0518 1206.1293 707.5784 1205.9212 707.4431 1206.4148 704.683 1208.0199 702.1951 1204.5587 696.798 1204.077 694.9109 1199.5715 690.2519 1199.717 687.7603 1191.8807 681.1394 1190.7155 674.9399 1192.1829 671.9129 1196.0123 669.2288 1192.9724 662.351 1183.2742 650.4716 1179.2731 639.2805 1172.9729 630.3734 1171.6722 623.0285 1168.3402 621.6726 1166.1942 618.636 1166.0702 613.0454 1164.768 606.3067 1164.9097 605.2968 1165.467 604.7595 1165.9113 594.5905 1163.5657 588.2531 1156.8372 583.9918 1156.2231 579.8143 1158.2474 576.3848 1158.254 573.9601 1188.3756 560.5696 1189.422 558.9559 1203.5411 553.4023 1217.6422 554.7183 1218.1286 554.7195 1230.772 555.4925 1246.7753 546.3727 1255.8106 545.1827 1260.4683 544.1165 1260.4433 554.2193 1261.0532 560.4846 1266.3202 566.0204 1267.5553 572.3545 1256.7488 587.1456 1255.3394 595.0897 1261.648 601.0322 1262.1343 601.1007 1262.7595 601.1696 1263.0373 601.2376 1264.0793 601.3749 1265.4685 601.5804 1269.2203 601.7916 1289.3143 596.7886 1292.4408 596.9982 1295.411 604.414 1305.1962 609.7579 1312.697 611.4593 1319.4307 614.3712 1323.7476 610.6768 1323.6149 607.9824 1318.1614 592.5461 1318.4432 590.8629 1324.7052 587.3078 1332.949 598.1705 1341.2708 605.4635 1352.8913 598.4177 1353.0304 598.3507 Z" fill="#d1e5f0">
      <title>
        芬園鄉 Fenyuan Township
      </title>
    </path>
    <path d="M 907.8681 776.4178 915.4959 782.2349 912.3563 785.727 908.6748 784.8395 904.0726 789.135 903.8373 797.2838 904.0395 799.2377 902.7769 802.6686 902.8354 806.0364 911.297 812.1256 917.0467 818.4753 916.8788 827.3653 918.5303 832.6241 918.2186 842.9953 916.1166 847.9726 913.1937 848.8387 911.5253 848.7659 909.8391 854.1486 909.7687 854.4178 909.4188 855.0901 909.1385 855.7628 908.3037 855.8947 907.9488 858.1162 907.1486 868.9573 910.0531 873.8161 909.6867 879.5398 910.3599 886.3445 908.4044 888.9649 905.7501 892.6606 901.978 897.9018 897.4271 907.3835 895.1875 911.754 894.2047 914.5796 894.7428 920.1042 886.7368 922.8393 882.9697 926.4638 879.4858 928.5402 874.0568 930.0039 872.6365 938.8223 864.1589 936.9081 856.6431 938.4993 856.007 941.5279 854.1121 946.6403 850.564 947.0324 852.4211 953.1004 850.2646 953.2951 850.2502 957.5383 843.7838 957.1796 841.28 957.2384 840.5834 957.5728 839.1762 962.35 839.0986 964.707 839.2944 968.4794 827.9573 968.7774 824.8271 968.9687 821.5561 969.6309 813.4947 967.9192 796.1857 965.6363 794.594 963.4081 793.622 962.9332 791.3947 963.4642 787.7162 961.3633 785.7781 958.7971 767.1707 930.8473 766.195 931.45 765.0877 929.9643 762.4582 926.3179 747.1896 918.0459 740.2589 911.6897 731.3953 901.5546 729.0457 897.5722 721.6848 876.0598 717.4093 866.4801 709.2617 851.161 706.077 847.5121 703.7328 842.2499 702.0075 838.8086 709.6044 833.7853 706.8942 814.7819 719.6036 818.3312 721.469 821.5037 727.6282 829.2045 731.4458 830.9022 733.4662 829.7646 743.353 825.8268 746.7752 821.5287 753.8111 817.6477 757.935 811.5335 761.1392 809.7938 762.1171 808.5176 762.3283 807.7775 762.6079 807.3744 762.7476 807.1729 762.4047 805.8919 762.3376 805.2182 762.9674 804.0754 763.3978 800.3726 763.1352 796.0611 763.9874 791.0801 764.0414 776.0607 765.3856 769.5323 763.867 766.5634 767.2978 759.7057 773.0123 755.685 774.9591 755.5572 780.9397 754.8376 785.7341 755.3933 789.4789 757.8986 790.4489 758.7776 790.9346 759.0487 791.2812 759.3194 791.4892 759.4548 791.6278 759.59 791.9746 759.7933 795.8528 763.9154 798.6856 768.8421 798.9613 769.5165 799.8595 771.0688 800.8949 773.1603 801.6543 774.6448 802.2086 775.1855 801.9591 767.035 803.4094 769.7342 805.6845 775.1303 817.7075 776.0477 822.7516 784.8882 823.3572 790.6826 832.3212 791.7911 847.9596 792.72 857.2724 793.4923 860.4902 787.5762 869.4608 786.7307 870.839 790.3723 883.6997 790.4151 884.545 787.0503 891.8599 782.3597 897.0875 778.1337 898.5498 777.3976 903.556 777.0773 907.8681 776.4178 Z" fill="#2166ac">
      <title>
        溪湖鎮 Xihu Township
      </title>
    </path>
    <path d="M 1196.0123 669.2288 1192.1829 671.9129 1190.7155 674.9399 1191.8807 681.1394 1199.717 687.7603 1199.5715 690.2519 1204.077 694.9109 1204.5587 696.798 1208.0199 702.1951 1206.4148 704.683 1205.9212 707.4431 1206.1293 707.5784 1206.8927 708.0518 1208.6947 710.0097 1209.5952 711.2243 1208.682 714.9263 1208.6113 715.3976 1211.6616 718.5036 1211.5272 716.6848 1214.5789 719.252 1213.1832 721.4037 1207.8177 726.6434 1213.2268 731.5066 1207.31 734.7916 1194.8675 734.9615 1185.8039 745.3774 1174.8019 752.6224 1169.8636 753.7542 1155.1022 762.942 1153.0814 764.755 1146.8813 769.6549 1143.4823 767.019 1131.9382 768.7386 1127.5572 769.3327 1124.3571 770.1994 1123.4527 770.4663 1105.9268 773.381 1105.229 774.322 1107.9294 778.1013 1112.4319 783.8388 1104.9249 783.5484 1104.3684 783.6815 1104.0202 783.8826 1100.262 785.4211 1089.5441 789.7013 1088.6402 789.7661 1087.2503 789.6274 1086.972 789.694 1081.9668 789.6797 1081.7547 790.8914 1077.8583 792.0926 1074.6612 791.814 1072.2945 792.8848 1064.0182 794.1406 1063.81 794.0053 1063.8114 793.5338 1063.887 791.4461 1064.2387 790.0328 1064.3995 782.5571 1062.822 775.2112 1064.9921 770.0314 1064.6502 768.0772 1061.5211 768.4049 1060.8246 768.8743 1054.8444 769.5304 1045.9434 770.5819 1036.6195 773.5852 1035.781 775.0645 1026.1129 776.8542 1021.5132 780.7469 1023.3743 786.0059 1019.7595 785.9951 1018.649 785.3856 1016.4991 783.6953 1016.2209 783.7618 1007.4647 782.7925 1006.0684 784.7415 998.3123 797.7168 991.2881 798.6383 982.8872 795.1101 981.1576 792.4107 976.5797 789.0963 972.792 777.6347 966.8242 774.2485 963.7567 777.0677 953.8909 775.3529 950.4147 775.4766 947.2844 776.1403 940.7452 777.6012 937.6859 777.7936 936.436 777.3855 931.0935 774.2028 921.2869 775.7204 913.4363 774.2806 912.4041 771.0444 906.9946 767.1877 903.2557 762.6629 897.288 759.4778 896.9418 759.0726 892.5163 751.986 886.428 743.3448 892.7756 736.6305 887.7178 731.6971 895.5788 729.7025 901.2981 723.7269 906.4474 721.9925 909.7731 725.2363 913.8052 725.0473 917.1456 723.7784 918.2599 723.1085 922.3634 722.3135 921.4002 719.2796 921.0596 717.1232 923.778 714.7746 928.5065 714.1163 929.4103 714.0518 935.806 713.6682 936.6535 709.4951 936.6545 709.1583 935.4158 705.3153 936.5995 704.6455 942.9278 703.588 944.0529 699.4831 945.8669 697.3336 948.5052 698.2175 952.7499 696.6145 952.7527 695.7389 953.3942 690.6895 953.1915 688.8704 953.9596 687.7278 952.0264 683.6805 952.3164 679.9097 952.1829 678.1581 949.4139 674.7144 949.5544 674.2434 954.4798 677.0877 956.7705 677.9705 956.9784 678.1733 957.9501 678.5804 958.3665 678.7838 958.5749 678.7844 961.9419 668.9616 959.386 664.0368 960.1513 663.7698 960.7073 663.7715 962.6536 663.6429 972.0387 662.7293 977.6112 658.6381 978.3093 657.63 986.2389 655.3645 990.8856 658.477 992.3438 658.8856 995.6078 659.6365 996.7885 659.9095 1000.1901 661.1322 1007.4651 668.4284 1012.4532 673.6296 1023.297 672.9887 1030.7982 674.5602 1032.0474 675.1701 1035.6481 679.626 1038.0467 691.0157 1039.9842 693.9176 1043.4599 693.7258 1047.4255 692.3904 1053.543 691.9369 1070.5775 689.6964 1088.6573 686.448 1094.2876 686.1945 1101.3099 685.2714 1103.7481 683.2577 1106.2518 682.6586 1114.5237 682.2103 1119.1873 679.6639 1126.5634 676.384 1134.9224 669.4697 1142.2124 672.1837 1145.6899 671.2503 1147.0166 668.9639 1151.2631 666.3487 1154.943 667.6383 1155.4293 667.7069 1158.8369 666.9079 1160.3734 664.0832 1169.2577 668.3501 1179.5418 668.9836 1189.2785 666.3824 1190.1812 666.6542 1196.0123 669.2288 Z" fill="#67a9cf">
      <title>
        大村鄉 Dacun Township
      </title>
    </path>
    <path d="M 853.4843 680.6643 852.9786 686.3202 855.3137 694.5451 855.7269 695.6915 856.0028 696.2986 856.1404 696.7032 856.5547 697.5128 858.0749 700.1447 859.9419 702.9798 864.1641 708.1801 868.0357 714.3221 875.8648 721.8244 880.4392 725.746 879.6027 726.4841 877.1677 727.1496 874.5898 728.9595 883.6222 730.0671 887.7178 731.6971 892.7756 736.6305 886.428 743.3448 892.5163 751.986 896.9418 759.0726 897.288 759.4778 905.6723 767.6549 907.8681 776.4178 903.556 777.0773 898.5498 777.3976 897.0875 778.1337 891.8599 782.3597 884.545 787.0503 883.6997 790.4151 870.839 790.3723 869.4608 786.7307 860.4902 787.5762 857.2724 793.4923 847.9596 792.72 832.3212 791.7911 823.3572 790.6826 822.7516 784.8882 817.7075 776.0477 805.6845 775.1303 803.4094 769.7342 801.9591 767.035 802.2086 775.1855 801.6543 774.6448 800.8949 773.1603 799.8595 771.0688 798.9613 769.5165 798.6856 768.8421 795.8528 763.9154 791.9746 759.7933 791.6278 759.59 791.4892 759.4548 791.2812 759.3194 790.9346 759.0487 790.4489 758.7776 789.4789 757.8986 785.7341 755.3933 780.9397 754.8376 774.9591 755.5572 773.0123 755.685 767.2978 759.7057 763.867 766.5634 765.3856 769.5323 764.0414 776.0607 763.9874 791.0801 763.1352 796.0611 763.3978 800.3726 762.9674 804.0754 762.3376 805.2182 762.4047 805.8919 762.7476 807.1729 762.6079 807.3744 762.3283 807.7775 762.1171 808.5176 761.1392 809.7938 757.935 811.5335 753.8111 817.6477 746.7752 821.5287 743.353 825.8268 733.4662 829.7646 731.4458 830.9022 727.6282 829.2045 721.469 821.5037 719.6036 818.3312 706.8942 814.7819 709.6044 833.7853 702.0075 838.8086 694.1375 823.8943 687.3675 812.419 678.0773 805.6488 670.0915 803.2612 658.6297 800.9276 655.0201 799.4993 654.6731 799.3633 653.7019 798.8208 652.7997 798.4132 650.4446 796.1815 648.1742 790.0437 644.5768 785.5172 633.4193 776.5836 635.1868 768.9796 628.1933 761.9477 626.8323 754.4663 622.2657 749.0603 615.625 740.8172 610.6536 732.3786 605.6233 721.313 599.1277 711.7232 597.6196 706.4637 601.5088 707.22 608.4541 708.5271 615.7465 709.9702 637.4586 721.0333 639.1211 704.6057 633.1459 704.0437 634.1428 697.9184 640.1869 698.6154 641.4813 687.4398 642.0551 682.8621 650.3227 683.6348 652.8738 670.9149 653.0151 670.3093 650.7972 668.7517 647.0599 664.6961 643.8725 662.2591 645.144 656.9431 646.5467 653.6483 650.8718 649.4217 651.4296 648.9524 669.2744 634.8091 670.4326 622.69 678.2898 621.4401 681.0743 620.1709 690.1831 618.7234 690.898 613.4052 695.2748 613.691 696.3053 616.8605 699.4166 621.048 701.4369 619.7084 703.1062 619.3105 703.8703 619.3807 705.815 619.6574 708.3106 621.2831 710.2458 624.1191 712.455 628.0338 714.5342 629.5232 720.8622 628.4016 721.5989 635.8805 725.3421 638.4536 735.0491 644.4836 743.7356 644.5826 745.6721 647.149 744.9612 651.5244 753.0708 657.4134 756.0584 657.6262 757.7997 656.5549 758.6351 656.1538 759.6783 655.9554 761.0682 655.9604 764.6069 657.5222 782.054 656.5741 795.872 659.9232 798.8599 660.0684 805.1198 658.6085 806.8567 658.7493 808.0377 658.8881 808.7324 658.9579 812.272 660.3172 815.9445 663.4282 827.9682 663.2677 833.8678 665.5106 845.185 668.7148 853.4843 680.6643 Z" fill="#2166ac">
      <title>
        埔鹽鄉 Puyan Township
      </title>
    </path>
    <path d="M 1016.2209 783.7618 1015.7832 790.5631 1012.0768 797.8259 1009.4291 799.7712 1006.4741 811.3468 1008.5407 817.6168 1018.8013 827.1443 1026.3065 828.2444 1041.092 836.0338 1049.2125 840.7723 1050.1853 840.9772 1052.6906 840.1763 1054.917 839.644 1055.5429 839.5785 1056.3776 839.4462 1057.2818 839.3142 1058.4641 839.1829 1059.9933 839.3221 1060.7569 839.7284 1063.3916 842.2281 1064.1538 843.1059 1064.6389 843.6461 1065.0549 844.0514 1065.5402 844.5243 1066.0241 845.4686 1066.5561 853.8218 1065.7042 859.881 1073.816 867.8519 1069.6906 875.8549 1065.0773 884.1932 1062.023 882.4332 1058.119 885.9241 1060.203 910.4462 1048.8664 911.154 1039.4624 916.7165 1034.1615 922.089 1033.2575 922.0863 1030.3219 927.1289 1021.0758 926.2258 1011.134 925.455 1008.1432 925.648 1006.8216 925.7787 1005.5527 931.4324 984.5976 939.0465 980.4974 938.1583 974.2641 929.9894 971.1671 919.6076 969.5827 914.8207 956.938 911.2789 950.469 911.932 949.2809 913.8141 933.49 915.6498 929.1898 912.2011 925.1523 913.5352 920.3392 918.167 925.7271 929.3647 927.1825 930.9185 928.6406 931.5967 926.9522 937.6529 918.0665 932.8423 916.255 933.9141 907.8279 937.7932 903.8649 937.5109 902.4108 935.6203 893.8695 931.8879 896.6077 923.9494 894.7428 920.1042 894.2047 914.5796 895.1875 911.754 897.4271 907.3835 901.978 897.9018 905.7501 892.6606 908.4044 888.9649 910.3599 886.3445 909.6867 879.5398 910.0531 873.8161 907.1486 868.9573 907.9488 858.1162 908.3037 855.8947 909.1385 855.7628 909.4188 855.0901 909.7687 854.4178 909.8391 854.1486 911.5253 848.7659 913.1937 848.8387 916.1166 847.9726 918.2186 842.9953 918.5303 832.6241 916.8788 827.3653 917.0467 818.4753 911.297 812.1256 902.8354 806.0364 902.7769 802.6686 904.0395 799.2377 903.8373 797.2838 904.0726 789.135 908.6748 784.8395 912.3563 785.727 915.4959 782.2349 907.8681 776.4178 905.6723 767.6549 897.288 759.4778 903.2557 762.6629 906.9946 767.1877 912.4041 771.0444 913.4363 774.2806 921.2869 775.7204 931.0935 774.2028 936.436 777.3855 937.6859 777.7936 940.7452 777.6012 947.2844 776.1403 950.4147 775.4766 953.8909 775.3529 963.7567 777.0677 966.8242 774.2485 972.792 777.6347 976.5797 789.0963 981.1576 792.4107 982.8872 795.1101 991.2881 798.6383 998.3123 797.7168 1006.0684 784.7415 1007.4647 782.7925 1016.2209 783.7618 Z" fill="#d1e5f0">
      <title>
        埔心鄉 Puxin Township
      </title>
    </path>
    <path d="M 1103.2015 926.3294 1098.2931 940.7289 1090.2075 947.3065 1100.2007 954.7434 1106.1659 960.283 1105.6783 960.551 1105.0515 960.886 1104.424 961.4231 1102.5384 964.2465 1103.7807 967.6176 1105.709 974.3582 1108.455 987.1627 1108.3097 989.3848 1099.7523 990.3711 1099.2653 990.4371 1095.2316 990.3584 1086.3922 992.6906 1078.1052 996.3712 1077.6176 996.6393 1076.553 1004.0449 1080.5557 1014.9673 1082.9752 1020.1603 1079.8356 1023.5189 1077.8862 1024.1868 1069.2523 1027.3275 1066.6799 1026.9159 1045.1732 1031.7026 1045.585 1033.5896 1046.7369 1043.9651 1043.8147 1044.2259 1039.6447 1019.563 1036.0307 1018.6094 1033.8901 1013.3496 1029.7853 1013.7416 1019.3472 1015.4615 1015.9427 1014.239 1012.4635 1014.7673 1014.9207 1030.2656 1015.2617 1032.4892 993.7591 1035.6569 986.675 1032.2002 988.0069 1028.8367 988.3067 1021.8331 988.8757 1017.7264 985.9051 1011.1842 981.455 1010.7664 976.3269 1004.6889 973.1383 1001.244 966.1288 996.3729 961.5434 994.8095 956.1891 994.4559 952.0915 992.6246 935.7457 993.1116 929.2843 991.003 920.3114 991.3109 917.3149 993.1197 913.2207 990.2777 909.8229 987.1685 909.0591 986.7619 905.0973 986.0082 903.5681 985.7338 904.6301 980.0123 904.215 979.3375 903.1724 979.132 901.8524 978.7236 899.1422 978.0412 895.9451 977.4246 894.5555 977.0159 887.471 974.1638 877.416 965.3748 875.4194 959.3065 872.012 959.2278 870.1406 957.3357 857.5721 951.7034 852.4211 953.1004 850.564 947.0324 854.1121 946.6403 856.007 941.5279 856.6431 938.4993 864.1589 936.9081 872.6365 938.8223 874.0568 930.0039 879.4858 928.5402 882.9697 926.4638 886.7368 922.8393 894.7428 920.1042 896.6077 923.9494 893.8695 931.8879 902.4108 935.6203 903.8649 937.5109 907.8279 937.7932 916.255 933.9141 918.0665 932.8423 926.9522 937.6529 928.6406 931.5967 927.1825 930.9185 925.7271 929.3647 920.3392 918.167 925.1523 913.5352 929.1898 912.2011 933.49 915.6498 949.2809 913.8141 950.469 911.932 956.938 911.2789 969.5827 914.8207 971.1671 919.6076 974.2641 929.9894 980.4974 938.1583 984.5976 939.0465 1005.5527 931.4324 1006.8216 925.7787 1008.1432 925.648 1011.134 925.455 1021.0758 926.2258 1030.3219 927.1289 1033.2575 922.0863 1034.1615 922.089 1039.4624 916.7165 1048.8664 911.154 1060.203 910.4462 1062.3605 909.779 1066.3268 908.8475 1068.8103 915.7246 1078.4568 922.4202 1085.5497 922.4404 1094.9301 925.0264 1103.2015 926.3294 Z" fill="#d1e5f0">
      <title>
        永靖鄉 Yongjing Township
      </title>
    </path>
    <path d="M 1438.5112 1372.4001 1438.3024 1372.3997 1437.9543 1372.399 1435.4485 1372.3265 1431.135 1371.24 1425.7045 1371.7002 1409.7494 1378.5366 1406.8905 1380.8205 1394.5499 1389.8865 1384.0185 1399.0909 1377.5362 1402.8484 1364.3024 1405.9848 1358.0341 1407.3179 1356.3618 1407.9877 1353.5051 1409.1263 1351.6936 1409.7957 1347.5131 1411.3354 1328.4229 1418.0944 1326.9601 1418.4278 1316.9985 1421.1662 1310.3068 1424.7876 1303.626 1423.6943 1298.615 1423.0764 1290.821 1421.7109 1286.5766 1420.7579 1285.7428 1420.0824 1279.0758 1413.3314 1274.4848 1411.7713 1272.5371 1411.1604 1263.9765 1410.2641 1262.0965 1410.3942 1249.151 1409.1501 1230.4308 1406.6115 1230.2916 1406.6111 1226.1865 1405.7252 1225.1426 1405.5879 1224.8643 1405.5199 1215.2554 1406.3037 1210.5221 1406.0895 1209.0606 1405.9511 1208.2948 1405.9491 1207.4596 1405.8796 1203.6303 1406.0718 1199.3836 1406.1282 1194.789 1406.1163 1171.537 1406.3248 1158.7975 1406.2909 1157.5442 1406.3549 1143.7658 1404.3646 1137.7813 1403.4728 1136.9465 1403.2685 1135.3472 1402.5906 1132.2182 1401.235 1129.3676 1399.9476 1127.491 1398.8648 1127.5041 1394.0829 1127.6024 1383.6439 1122.0813 1366.3196 1128.8607 1356.3704 1130.6751 1354.6916 1134.7903 1351.6047 1135.9757 1350.8671 1141.848 1341.5213 1147.5002 1336.2833 1154.2508 1336.6383 1155.0921 1334.4179 1160.9389 1334.3663 1167.5634 1329.8041 1170.4912 1328.1281 1173.9779 1325.6453 1174.5362 1325.108 1178.5898 1318.7877 1182.1525 1313.8131 1184.9437 1311.0591 1185.2924 1310.7906 1187.2453 1309.2466 1190.7274 1308.4475 1188.8591 1304.2669 1186.0875 1299.5451 1184.9079 1298.195 1183.4686 1289.7051 1179.4339 1288.9536 1178.3481 1278.444 1178.0828 1273.4594 1175.8606 1271.635 1173.3542 1272.0325 1172.2511 1268.1233 1173.4543 1260.5158 1169.7119 1254.6464 1169.6428 1254.4441 1167.8403 1251.88 1174.1138 1247.9903 1177.8684 1249.2125 1179.9542 1249.9589 1182.1079 1251.3116 1187.8221 1248.3631 1193.8531 1257.3365 1207.651 1250.0309 1211.2794 1246.2685 1217.3366 1245.139 1227.024 1239.4388 1226.9542 1239.5059 1226.8142 1239.8423 1229.4496 1243.4186 1232.7841 1245.7169 1235.5695 1244.983 1236.4872 1239.7993 1239.4828 1238.4598 1245.195 1236.1167 1243.6523 1240.8274 1243.4371 1243.3862 1245.7341 1243.1899 1248.243 1241.7144 1250.0513 1242.1229 1247.3313 1244.5408 1248.8604 1245.2855 1254.5108 1239.7767 1254.6506 1239.5076 1258.7658 1235.6787 1260.0193 1235.2777 1259.6655 1237.7015 1263.2003 1243.5023 1265.9064 1246.7417 1259.2193 1249.352 1255.8721 1252.1726 1255.802 1252.3744 1265.1302 1251.1176 1268.7489 1251.1264 1272.0881 1251.606 1274.1621 1257.2684 1269.7024 1259.6823 1274.2265 1259.4238 1274.3517 1265.2163 1267.8727 1268.0293 1254.5775 1269.2091 1250.1796 1274.6537 1252.33 1277.4877 1263.5502 1271.1843 1264.038 1270.9161 1273.3727 1267.1671 1275.8718 1269.7324 1281.7973 1265.571 1288.1328 1264.5085 1294.8036 1268.7675 1291.8079 1270.1074 1286.0299 1270.8344 1292.7697 1275.363 1295.8952 1277.9971 1293.5146 1284.053 1299.0837 1283.46 1297.473 1287.6993 1300.6708 1289.2559 1302.7529 1291.6854 1302.7525 1291.8875 1285.1501 1289.4885 1293.1452 1293.0771 1300.2427 1293.7 1298.4118 1302.7207 1303.2059 1306.2342 1303.2051 1306.571 1305.4268 1308.9335 1313.5577 1314.2058 1314.0438 1314.6784 1314.7384 1315.2861 1315.2243 1315.8261 1315.7799 1316.3662 1322.457 1318.3348 1323.5003 1318.6739 1329.8253 1322.4601 1334.1263 1328.7335 1335.0936 1331.9012 1335.6481 1332.9127 1335.7864 1333.3171 1335.8549 1333.7887 1344.2775 1333.5384 1349.7065 1333.618 1352.8418 1332.2107 1359.5321 1328.454 1368.3057 1326.7896 1375.1999 1325.1883 1380.4181 1326.0752 1382.5852 1321.7695 1388.2947 1320.7716 1396.1043 1314.1207 1399.0287 1313.5881 1403.9038 1312.1168 1406.553 1310.0345 1409.8955 1309.2334 1411.5648 1309.7757 1411.9124 1309.9785 1415.5279 1311.7372 1416.7085 1312.952 1418.9276 1316.8629 1423.0255 1320.9799 1420.5719 1329.3936 1422.2218 1339.2975 1421.8545 1348.5237 1423.6471 1356.8116 1430.8166 1356.8264 1434.5066 1356.4299 1437.0779 1358.4556 1438.8639 1370.1109 1438.9316 1371.0539 1439 1371.6602 1438.7897 1372.4007 1438.5808 1372.4002 1438.5112 1372.4001 Z" fill="#d9f0d3">
      <title>
        二水鄉 Ershui Township
      </title>
    </path>
    <path d="M 599.1277 711.7232 605.6233 721.313 610.6536 732.3786 615.625 740.8172 622.2657 749.0603 626.8323 754.4663 628.1933 761.9477 635.1868 768.9796 633.4193 776.5836 644.5768 785.5172 648.1742 790.0437 650.4446 796.1815 652.7997 798.4132 653.7019 798.8208 654.6731 799.3633 655.0201 799.4993 658.6297 800.9276 670.0915 803.2612 678.0773 805.6488 687.3675 812.419 694.1375 823.8943 702.0075 838.8086 703.7328 842.2499 706.077 847.5121 709.2617 851.161 717.4093 866.4801 721.6848 876.0598 729.0457 897.5722 731.3953 901.5546 740.2589 911.6897 747.1896 918.0459 762.4582 926.3179 765.0877 929.9643 766.195 931.45 744.5863 945.5161 742.8647 940.8626 742.2447 939.2439 728.5536 936.904 726.6807 935.6175 701.4397 934.9854 701.4395 935.0528 701.4342 936.4671 701.1946 944.7506 701.0281 952.0913 700.322 973.574 703.7928 975.3381 703.9301 975.81 705.6487 981.2046 706.1964 983.5639 706.1891 985.5171 705.42 986.5919 700.8961 1006.1071 694.5515 1010.1919 694.674 1014.6376 694.7017 1025.8182 694.7629 1028.041 694.8912 1030.9376 694.9491 1034.036 688.1279 1035.2902 688.0368 1041.0147 686.2439 1055.3539 693.5433 1056.5263 695.6835 1060.8448 697.2741 1063.3427 704.0832 1065.456 701.1328 1073.1905 703.7674 1075.5576 704.2393 1079.6004 705.4146 1081.558 701.776 1087.2694 698.2267 1087.6603 702.1077 1091.5811 704.4944 1104.5215 707.3361 1107.3608 706.2553 1117.3922 706.1835 1117.9981 706.1125 1118.402 703.2494 1121.2875 698.5269 1119.0473 693.2934 1123.2709 689.1199 1123.0533 679.0481 1118.8396 668.4764 1118.0587 658.2812 1109.803 651.3477 1103.7149 647.4349 1108.1451 646.117 1107.1297 638.2462 1109.5914 628.0161 1092.6465 627.4622 1091.9708 624.0761 1086.1654 623.8708 1085.289 623.3154 1085.0174 599.0419 1083.8445 597.3999 1076.9008 596.5324 1067.6028 596.1886 1066.5912 595.565 1065.9825 594.1749 1065.7076 590.4753 1068.9258 583.2672 1079.7408 580.338 1081.6149 570.1109 1081.9107 564.1806 1086.1974 563.4132 1086.7331 565.0468 1095.6302 567.264 1097.8617 568.0781 1102.9837 564.4886 1113.2741 560.3156 1112.9879 559.4577 1118.7093 560.012 1119.2504 562.932 1119.7336 568.9775 1121.5091 569.8797 1122.0515 567.1024 1137.9354 558.8921 1138.1043 557.496 1139.2437 557.5588 1158.1024 526.0396 1158.3779 525.274 1158.4421 524.2292 1158.7072 522.6148 1162.1355 509.1957 1159.9247 508.5636 1161.3365 507.0896 1164.4285 503.5474 1162.932 501.601 1162.5198 499.585 1162.1073 491.8714 1159.8524 490.3981 1162.7423 477.7473 1159.8603 469.9534 1160.164 468.7663 1161.1693 466.2126 1172.6756 464.5358 1174.2849 464.1653 1179.6041 460.7827 1189.6251 454.5952 1188.3864 453.531 1193.1638 451.23 1194.2989 449.5751 1190.7895 445.2759 1187.3361 436.6681 1182.6518 433.0444 1183.9158 432.8334 1184.4537 428.7808 1188.3425 426.2803 1187.3214 423.0051 1188.4522 419.1401 1181.2287 419.4891 1180.9608 421.0331 1177.9367 420.4794 1177.2608 414.437 1174.7424 408.742 1172.3601 402.7429 1175.8361 398.5302 1168.6783 404.526 1150.1155 403.2754 1149.7059 400.4267 1148.8178 395.355 1147.179 392.8689 1142.9922 377.0294 1137.7358 383.5472 1111.4301 389.2019 1091.3169 392.2741 1088.7711 393.188 1086.6199 394.664 1083.1914 398.4591 1074.4524 402.7466 1064.4358 403.3789 1063.0242 402.158 1055.9468 402.4106 1045.9798 417.5511 1051.2996 415.1381 1046.3724 414.9516 1041.3201 413.791 1036.331 413.7972 1034.9166 413.7306 1034.2428 415.4087 1032.2296 426.3914 1033.8939 427.8515 1034.0349 440.7847 1035.0338 439.419 1029.1683 439.219 1027.1469 438.688 1021.2849 436.4888 1015.1464 444.4344 1011.3416 439.3202 1003.7761 438.2072 987.7414 442.9307 989.1088 447.806 987.5133 449.8559 979.844 451.7569 974.4639 446.4845 971.4104 449.0901 963.8782 454.1559 966.4593 459.6037 961.0271 461.0647 960.8986 471.0115 960.4695 479.5754 958.1484 482.4235 958.9013 483.6753 958.9066 483.9541 958.7731 484.5817 958.3716 485.2087 958.1048 486.1874 956.8966 487.3839 953.534 501.5852 950.0912 506.47 929.4344 504.5497 923.028 504.5877 913.9355 502.4682 905.3056 502.9926 879.7138 502.2489 874.6593 514.6104 878.2804 518.6203 883.8199 533.1914 857.5452 539.6428 861.1413 549.5696 865.0209 549.7128 864.0112 553.4187 858.9075 554.6689 842.1418 564.9611 841.5773 565.3782 841.5789 565.1034 840.7696 562.5441 837.5263 559.776 834.3496 560.2954 826.2694 558.7057 823.973 565.9216 810.3969 566.8458 805.3492 568.2688 797.2726 564.5465 789.4447 564.4097 788.9053 564.4113 788.5012 565.8987 781.7046 567.5924 775.4476 568.3001 772.3522 567.838 766.2886 565.7226 756.514 570.5633 745.555 583.3925 735.7729 577.7224 728.4088 579.3365 724.5761 585.308 708.7721 585.7983 707.8311 587.4823 703.864 591.8561 705.0938 597.6024 710.7742 598.3653 711.1814 599.1277 711.7232 Z" fill="#2166ac">
      <title>
        二林鎮 Erlin Township
      </title>
    </path>
    <path d="M 791.3947 963.4642 793.3142 971.3511 793.4448 973.7762 792.8794 976.3336 789.6429 986.8965 788.3689 993.1557 798.2771 1003.8321 814.6856 1025.5092 820.3091 1028.5594 824.5442 1030.7967 833.5002 1035.6767 838.1508 1038.5214 838.4136 1043.0348 840.566 1044.1871 852.663 1045.9793 855.234 1046.7962 857.5973 1047.2756 859.3363 1047.2814 861.1421 1048.0957 868.9789 1055.0592 869.2535 1056.1377 868.385 1066.2376 866.1394 1072.0897 867.7291 1095.9374 874.2377 1105.1189 876.549 1121.3583 886.6765 1130.3496 891.4596 1135.6187 891.2389 1139.255 879.1886 1143.5257 870.3366 1148.3456 864.2139 1148.3924 863.5179 1148.4575 862.6815 1148.9261 851.3329 1151.2452 843.6102 1151.2191 830.8196 1147.9426 826.0939 1146.3773 825.1874 1146.9803 825.1774 1149.8764 823.8879 1160.6482 824.1558 1163.68 825.5465 1184.1596 829.4307 1187.7425 831.4376 1190.9149 831.1526 1192.8671 820.8347 1198.6239 815.0414 1203.7899 813.9225 1205.4025 808.2277 1202.2172 808.8429 1185.3815 811.7784 1181.62 812.07 1177.782 810.5393 1177.7767 800.1627 1180.4346 792.0165 1181.9552 792.598 1194.6866 791.754 1197.243 791.9464 1201.8909 792.2756 1207.2129 792.8798 1213.4786 792.5984 1214.3532 792.1788 1214.9579 789.3166 1217.5746 780.505 1229.9361 778.3289 1235.2492 777.7582 1239.2209 771.5567 1261.0207 773.4962 1263.5869 773.6306 1264.9344 773.2795 1265.8087 770.6323 1266.5402 770.3439 1269.3679 767.4087 1272.7923 767.7396 1277.5755 757.1187 1289.3913 754.8409 1284.1297 751.5281 1276.4397 745.379 1264.0249 745.0321 1263.7543 742.3334 1259.5014 741.5031 1258.1513 740.535 1256.464 737.6359 1249.9204 737.3674 1247.2254 737.3706 1246.3499 737.3723 1245.8784 729.0275 1244.2316 708.0361 1218.7629 696.9501 1205.9923 696.151 1196.358 693.7459 1188.2669 705.2349 1186.0871 704.5461 1184.1987 704.1361 1182.1766 703.8621 1181.0306 703.7267 1180.0198 703.177 1178.1319 703.0434 1176.6497 702.9135 1174.1572 698.6966 1166.8002 697.2049 1156.3552 689.1177 1142.1811 689.7636 1136.9301 693.4713 1131.4885 689.1199 1123.0533 693.2934 1123.2709 698.5269 1119.0473 703.2494 1121.2875 706.1125 1118.402 706.1835 1117.9981 706.2553 1117.3922 707.3361 1107.3608 704.4944 1104.5215 702.1077 1091.5811 698.2267 1087.6603 701.776 1087.2694 705.4146 1081.558 704.2393 1079.6004 703.7674 1075.5576 701.1328 1073.1905 704.0832 1065.456 697.2741 1063.3427 695.6835 1060.8448 693.5433 1056.5263 686.2439 1055.3539 688.0368 1041.0147 688.1279 1035.2902 694.9491 1034.036 694.8912 1030.9376 694.7629 1028.041 694.7017 1025.8182 694.674 1014.6376 694.5515 1010.1919 700.8961 1006.1071 705.42 986.5919 706.1891 985.5171 706.1964 983.5639 705.6487 981.2046 703.9301 975.81 703.7928 975.3381 700.322 973.574 701.0281 952.0913 701.1946 944.7506 701.4342 936.4671 701.4395 935.0528 701.4397 934.9854 726.6807 935.6175 728.5536 936.904 742.2447 939.2439 742.8647 940.8626 744.5863 945.5161 766.195 931.45 767.1707 930.8473 785.7781 958.7971 787.7162 961.3633 791.3947 963.4642 Z" fill="#67a9cf">
      <title>
        埤頭鄉 Pitou Township
      </title>
    </path>
    <path d="M 587.4823 703.864 585.7983 707.8311 585.308 708.7721 579.3365 724.5761 577.7224 728.4088 583.3925 735.7729 570.5633 745.555 565.7226 756.514 567.838 766.2886 568.3001 772.3522 567.5924 775.4476 565.8987 781.7046 564.4113 788.5012 564.4097 788.9053 564.5465 789.4447 568.2688 797.2726 566.8458 805.3492 565.9216 810.3969 558.7057 823.973 560.2954 826.2694 559.776 834.3496 562.5441 837.5263 565.1034 840.7696 565.3782 841.5789 564.9611 841.5773 554.6689 842.1418 553.4187 858.9075 549.7128 864.0112 549.5696 865.0209 539.6428 861.1413 533.1914 857.5452 518.6203 883.8199 514.6104 878.2804 502.2489 874.6593 502.9926 879.7138 502.4682 905.3056 504.5877 913.9355 504.5497 923.028 506.47 929.4344 501.5852 950.0912 487.3839 953.534 486.1874 956.8966 485.2087 958.1048 484.5817 958.3716 483.9541 958.7731 483.6753 958.9066 482.4235 958.9013 479.5754 958.1484 471.0115 960.4695 461.0647 960.8986 459.6037 961.0271 454.1559 966.4593 449.0901 963.8782 446.4845 971.4104 451.7569 974.4639 449.8559 979.844 447.806 987.5133 442.9307 989.1088 438.2072 987.7414 439.3202 1003.7761 444.4344 1011.3416 436.4888 1015.1464 438.688 1021.2849 439.219 1027.1469 439.419 1029.1683 440.7847 1035.0338 427.8515 1034.0349 426.3914 1033.8939 415.4087 1032.2296 413.7306 1034.2428 413.7972 1034.9166 413.791 1036.331 414.9516 1041.3201 415.1381 1046.3724 417.5511 1051.2996 402.4106 1045.9798 402.158 1055.9468 403.3789 1063.0242 402.7466 1064.4358 398.4591 1074.4524 394.664 1083.1914 393.188 1086.6199 392.2741 1088.7711 389.2019 1091.3169 383.5472 1111.4301 370.6923 1108.0052 369.843 1111.2343 356.5704 1107.8745 350.7265 1107.9155 350.3115 1107.3748 343.9904 1105.2583 335.765 1108.858 330.4163 1107.0825 326.1567 1110.5653 323.7246 1109.948 317.3545 1103.3857 314.1286 1093.8742 316.4574 1086.6782 312.6954 1087.8732 317.3511 1073.8853 323.3386 1072.7678 305.5592 1066.557 307.4086 1057.7424 297.4767 1054.4635 295.3088 1056.9455 286.3499 1053.8729 283.0862 1067.5302 280.2791 1072.7706 277.6434 1071.1418 271.3241 1068.8222 267.4061 1058.8356 247.7562 1051.3339 246.5657 1053.0121 239.0646 1050.619 223.0367 1042.2579 205.6271 1032.071 183.8559 1017.8882 164.8659 1004.1896 143.0434 986.9062 126.9087 972.9507 128.1839 968.3098 136.5648 961.2798 141.048 954.8363 147.3123 939.8479 153.4721 931.7962 157.4439 930.1994 168.447 927.0209 173.1067 926.9091 183.4934 921.774 185.8093 917.4747 192.3484 888.5449 189.1227 879.908 188.8229 870.1403 192.5667 858.1698 199.9912 847.0254 206.6177 842.6122 219.3593 838.8347 224.332 831.3151 232.9972 822.1293 245.8403 811.4815 259.444 801.5778 273.6865 788.7805 275.8053 781.7184 275.6576 754.0356 277.1062 741.6494 277.9432 741.0472 284.0069 737.5732 286.8795 732.7372 301.2772 700.8788 305.0569 695.1712 319.6515 680.3535 333.3947 669.1011 343.2365 659.7838 356.2699 651.5584 362.307 638.1823 366.7972 597.9252 367.9309 593.0808 375.9103 580.1847 379.2443 564.9777 380.6894 537.0999 424.1801 553.5239 452.3476 563.1426 466.4332 567.6483 473.4416 569.8334 480.4504 571.9511 490.765 597.4541 494.4894 604.0704 496.3593 605.56 496.7757 605.6965 497.3319 605.6314 498.0957 605.7694 500.1071 606.6534 503.9128 610.5084 509.2892 620.9706 511.0084 625.2883 515.1534 631.1653 515.8441 632.1785 515.6253 634.6696 516.1024 636.8942 515.6689 640.8663 516.9108 643.0267 521.7675 644.9327 522.1094 646.2812 521.8802 651.2644 524.3638 655.6526 524.4727 662.9272 529.8044 667.6639 530.2597 675.2093 535.5352 676.7801 541.9139 680.5106 545.4426 684.3642 546.4137 684.8396 549.3305 685.3903 552.3824 686.8845 560.7805 689.7474 566.0683 688.3543 575.2318 691.018 580.1969 700.7367 587.4823 703.864 Z" fill="#d1e5f0">
      <title>
        芳苑鄉 Fangyuan Township
      </title>
    </path>
    <path d="M 383.5472 1111.4301 377.0294 1137.7358 392.8689 1142.9922 395.355 1147.179 400.4267 1148.8178 403.2754 1149.7059 404.526 1150.1155 398.5302 1168.6783 402.7429 1175.8361 408.742 1172.3601 414.437 1174.7424 420.4794 1177.2608 421.0331 1177.9367 419.4891 1180.9608 419.1401 1181.2287 423.0051 1188.4522 426.2803 1187.3214 428.7808 1188.3425 432.8334 1184.4537 433.0444 1183.9158 436.6681 1182.6518 445.2759 1187.3361 449.5751 1190.7895 451.23 1194.2989 453.7072 1200.7753 453.1413 1202.9282 452.8566 1204.4087 451.5599 1214.7079 465.0921 1223.3867 488.9607 1223.2856 488.9963 1231.3679 478.2612 1235.7679 467.114 1238.8189 469.5897 1245.7666 480.7994 1277.4019 475.9281 1277.314 465.697 1277.4727 445.2561 1288.9698 434.4423 1295.0522 434.3028 1295.119 433.9542 1295.2522 422.6722 1296.887 410.069 1298.2464 407.3544 1298.3019 404.3614 1298.3561 397.4014 1298.3929 389.7457 1298.3591 389.5369 1298.3582 380.6975 1298.4537 367.9606 1298.5316 355.9206 1298.4102 351.6065 1298.1888 323.9591 1301.8349 298.2601 1305.4884 286.6394 1304.963 282.1165 1304.7398 276.9672 1304.5137 274.3923 1304.4343 272.5825 1304.4932 253.7466 1299.0837 247.0049 1297.0985 240.1934 1295.1803 227.3368 1291.2125 223.5828 1290.3189 212.1844 1287.0985 208.6399 1286.0711 176.9482 1277.0263 167.3579 1274.2177 159.9911 1272.1608 158.1147 1271.6127 155.057 1270.722 142.0616 1266.953 121.145 1260.7865 119.4079 1260.239 108.0131 1256.6118 89.9061 1245.5413 70.1536 1229.8816 68.6296 1228.5267 67.1057 1227.1718 64.0586 1224.3273 61.0114 1221.4828 56.3723 1217.0135 54.9188 1215.5242 48.828 1209.2288 44.2615 1204.221 39.834 1199.2812 38.1742 1197.3193 36.5834 1195.4924 35.0621 1193.666 32.0892 1190.0134 29.0472 1186.293 22.965 1178.5156 21.4449 1176.487 18.3353 1172.4295 12.2567 1164.0457 9.2182 1159.719 6.1798 1155.3924 4.5917 1153.094 1 1148.1582 13.248 1134.4831 19.2297 1121.5829 18.4244 1115.9884 21.4517 1109.2017 33.4663 1099.9027 43.1237 1088.9747 47.7399 1084.2167 57.3043 1077.6658 64.3422 1075.3449 84.5241 1073.6975 94.2317 1066.2036 100.231 1062.8665 109.665 1054.3606 117.2522 1039.5814 116.5846 1034.0551 114.4478 1030.2052 111.6118 1027.0926 111.4404 1019.7503 113.0293 1008.1736 120.8042 997.3691 127.6174 984.1349 126.6268 973.6902 126.9087 972.9507 143.0434 986.9062 164.8659 1004.1896 183.8559 1017.8882 205.6271 1032.071 223.0367 1042.2579 239.0646 1050.619 246.5657 1053.0121 247.7562 1051.3339 267.4061 1058.8356 271.3241 1068.8222 277.6434 1071.1418 280.2791 1072.7706 283.0862 1067.5302 286.3499 1053.8729 295.3088 1056.9455 297.4767 1054.4635 307.4086 1057.7424 305.5592 1066.557 323.3386 1072.7678 317.3511 1073.8853 312.6954 1087.8732 316.4574 1086.6782 314.1286 1093.8742 317.3545 1103.3857 323.7246 1109.948 326.1567 1110.5653 330.4163 1107.0825 335.765 1108.858 343.9904 1105.2583 350.3115 1107.3748 350.7265 1107.9155 356.5704 1107.8745 369.843 1111.2343 370.6923 1108.0052 383.5472 1111.4301 Z" fill="#d1e5f0">
      <title>
        大城鄉 Dacheng Township
      </title>
    </path>
    <path d="M 689.1199 1123.0533 693.4713 1131.4885 689.7636 1136.9301 689.1177 1142.1811 697.2049 1156.3552 698.6966 1166.8002 702.9135 1174.1572 703.0434 1176.6497 703.177 1178.1319 703.7267 1180.0198 703.8621 1181.0306 704.1361 1182.1766 704.5461 1184.1987 705.2349 1186.0871 693.7459 1188.2669 696.151 1196.358 696.9501 1205.9923 708.0361 1218.7629 729.0275 1244.2316 737.3723 1245.8784 737.3706 1246.3499 737.3674 1247.2254 737.6359 1249.9204 740.535 1256.464 728.0284 1270.0234 729.3314 1294.342 729.4568 1298.1141 729.4819 1310.3048 729.398 1314.2108 729.4561 1317.3766 729.4514 1318.6562 728.1299 1318.382 727.5734 1318.3126 723.7483 1317.4904 721.7311 1317.1462 720.2705 1316.8715 719.366 1316.8008 719.0883 1316.5977 710.6237 1309.3599 708.8179 1308.343 704.6544 1304.96 694.4418 1300.0054 689.3788 1295.2719 688.1311 1293.9202 683.6291 1288.1111 681.2753 1284.802 680.8595 1284.329 680.5821 1284.0586 673.7755 1280.3959 660.6504 1272.9375 640.3317 1272.1861 628.5561 1275.8449 613.4228 1283.8007 609.5244 1284.0549 608.0629 1284.0491 605.418 1284.1061 604.3042 1284.1691 588.0835 1285.3846 569.0913 1283.4902 567.0042 1283.2798 560.6034 1282.7825 553.368 1282.1471 551.4895 1282.0048 549.6803 1281.9301 544.8804 1281.3718 538.132 1280.8055 532.4271 1280.3106 526.7226 1279.7484 513.2263 1278.4804 505.5045 1277.7075 480.7994 1277.4019 469.5897 1245.7666 467.114 1238.8189 478.2612 1235.7679 488.9963 1231.3679 488.9607 1223.2856 465.0921 1223.3867 451.5599 1214.7079 452.8566 1204.4087 453.1413 1202.9282 453.7072 1200.7753 451.23 1194.2989 453.531 1193.1638 454.5952 1188.3864 460.7827 1189.6251 464.1653 1179.6041 464.5358 1174.2849 466.2126 1172.6756 468.7663 1161.1693 469.9534 1160.164 477.7473 1159.8603 490.3981 1162.7423 491.8714 1159.8524 499.585 1162.1073 501.601 1162.5198 503.5474 1162.932 507.0896 1164.4285 508.5636 1161.3365 509.1957 1159.9247 522.6148 1162.1355 524.2292 1158.7072 525.274 1158.4421 526.0396 1158.3779 557.5588 1158.1024 557.496 1139.2437 558.8921 1138.1043 567.1024 1137.9354 569.8797 1122.0515 568.9775 1121.5091 562.932 1119.7336 560.012 1119.2504 559.4577 1118.7093 560.3156 1112.9879 564.4886 1113.2741 568.0781 1102.9837 567.264 1097.8617 565.0468 1095.6302 563.4132 1086.7331 564.1806 1086.1974 570.1109 1081.9107 580.338 1081.6149 583.2672 1079.7408 590.4753 1068.9258 594.1749 1065.7076 595.565 1065.9825 596.1886 1066.5912 596.5324 1067.6028 597.3999 1076.9008 599.0419 1083.8445 623.3154 1085.0174 623.8708 1085.289 624.0761 1086.1654 627.4622 1091.9708 628.0161 1092.6465 638.2462 1109.5914 646.117 1107.1297 647.4349 1108.1451 651.3477 1103.7149 658.2812 1109.803 668.4764 1118.0587 679.0481 1118.8396 689.1199 1123.0533 Z" fill="#d9f0d3">
      <title>
        竹塘鄉 Zhutang Township
      </title>
    </path>
    <path d="M 1063.1694 1229.9697 1071.145 1239.3545 1074.6128 1243.4056 1077.2487 1246.3766 1078.8436 1248.3343 1092.4371 1264.6719 1093.2934 1257.1984 1103.0732 1268.8102 1118.7482 1287.9816 1122.376 1284.8261 1125.8643 1281.7376 1139.8113 1297.0644 1152.8659 1308.1452 1155.8565 1308.9615 1164.7598 1311.0058 1166.3601 1311.2121 1166.6385 1311.2128 1170.8871 1310.0792 1180.3592 1307.6122 1187.2453 1309.2466 1185.2924 1310.7906 1184.9437 1311.0591 1182.1525 1313.8131 1178.5898 1318.7877 1174.5362 1325.108 1173.9779 1325.6453 1170.4912 1328.1281 1167.5634 1329.8041 1160.9389 1334.3663 1155.0921 1334.4179 1154.2508 1336.6383 1147.5002 1336.2833 1141.848 1341.5213 1135.9757 1350.8671 1134.7903 1351.6047 1130.6751 1354.6916 1128.8607 1356.3704 1122.0813 1366.3196 1127.6024 1383.6439 1127.5041 1394.0829 1127.491 1398.8648 1110.1063 1392.0816 1095.3589 1388.336 1055.0711 1382.2264 1048.4709 1377.8293 1032.1254 1373.4034 1026.9087 1372.0409 1026.1432 1371.9712 1025.5169 1371.902 1010.4844 1370.8467 1002.8249 1371.6318 993.9127 1372.3455 983.1259 1371.4369 981.5947 1371.3649 980.5508 1371.2943 974.841 1371.8828 960.2749 1377.495 957.2779 1378.6979 955.4676 1378.8269 954.5627 1378.8241 954.4931 1378.8239 954.2842 1378.8232 952.4748 1378.6828 949.4132 1378.2691 946.3514 1377.9227 934.1746 1376.335 922.8284 1376.2313 921.3666 1376.2266 909.3956 1375.5818 906.8901 1375.439 905.707 1375.3678 902.2271 1375.1544 891.2361 1372.8959 871.6264 1366.7695 867.2472 1364.9364 866.6216 1364.6649 859.5984 1362.4862 856.1897 1361.8686 839.1477 1358.3087 817.8647 1353.3865 815.7081 1353.0423 791.2361 1344.6056 772.0553 1336.0516 764.619 1332.8596 761.6307 1331.5692 759.3377 1330.4834 752.667 1327.3613 752.1805 1327.1575 747.9421 1325.1217 742.8003 1322.6785 738.0753 1320.5061 737.7969 1320.5051 737.0308 1320.637 735.9875 1320.4312 733.0686 1319.2082 731.3294 1318.9998 729.4514 1318.6562 729.4561 1317.3766 729.398 1314.2108 729.4819 1310.3048 729.4568 1298.1141 729.3314 1294.342 728.0284 1270.0234 740.535 1256.464 741.5031 1258.1513 742.3334 1259.5014 745.0321 1263.7543 745.379 1264.0249 751.5281 1276.4397 754.8409 1284.1297 757.1187 1289.3913 767.7396 1277.5755 767.4087 1272.7923 770.3439 1269.3679 770.6323 1266.5402 773.2795 1265.8087 773.6306 1264.9344 773.4962 1263.5869 771.5567 1261.0207 777.7582 1239.2209 778.3289 1235.2492 780.505 1229.9361 789.3166 1217.5746 792.1788 1214.9579 792.5984 1214.3532 792.8798 1213.4786 792.2756 1207.2129 791.9464 1201.8909 791.754 1197.243 792.598 1194.6866 792.0165 1181.9552 800.1627 1180.4346 810.5393 1177.7767 812.07 1177.782 811.7784 1181.62 808.8429 1185.3815 808.2277 1202.2172 813.9225 1205.4025 815.0414 1203.7899 820.8347 1198.6239 831.1526 1192.8671 831.4376 1190.9149 829.4307 1187.7425 825.5465 1184.1596 824.1558 1163.68 823.8879 1160.6482 825.1774 1149.8764 825.1874 1146.9803 826.0939 1146.3773 830.8196 1147.9426 843.6102 1151.2191 851.3329 1151.2452 862.6815 1148.9261 863.5179 1148.4575 864.2139 1148.3924 870.3366 1148.3456 879.1886 1143.5257 891.2389 1139.255 891.4596 1135.6187 894.8651 1136.7075 897.6476 1136.8513 908.3597 1137.4924 912.2483 1139.795 911.8991 1140.198 904.7746 1148.7958 903.1537 1155.1216 906.1305 1159.7111 924.9892 1158.6271 931.9929 1165.9908 938.9152 1177.1258 939.2613 1177.6658 940.9948 1179.5571 936.2939 1191.8001 947.4613 1202.9484 957.9226 1217.5292 962.5728 1221.3828 964.6526 1223.8813 964.8592 1224.5554 964.9275 1224.9597 968.4601 1230.2241 977.977 1235.5743 978.0497 1234.5643 976.3251 1229.7097 975.1527 1226.2712 968.5259 1209.0761 965.0794 1198.6259 969.3938 1198.5046 988.1074 1199.8421 998.9499 1203.9163 1003.6566 1212.1474 1016.1613 1218.9876 1019.5673 1220.2101 1024.2945 1221.7733 1024.92 1222.0446 1029.6446 1224.4833 1032.4992 1223.953 1033.8911 1223.8897 1041.1195 1226.8072 1042.4395 1227.5519 1043.7597 1228.2293 1046.6002 1232.4808 1048.1964 1233.9672 1048.8213 1234.4405 1054.1003 1237.7561 1055.0771 1236.8834 1063.1694 1229.9697 Z" fill="#d1e5f0">
      <title>
        溪州鄉 Xizhou Township
      </title>
    </path>
    <path d="M 801.3954 354.6315 801.5316 355.3729 802.3588 357.127 805.1216 361.4473 805.1901 361.7169 804.9095 362.5242 804.9083 362.8609 804.9758 363.4 811.5601 367.2621 813.5767 366.5283 815.6621 365.9967 816.9807 366.2707 817.258 366.4063 817.6742 366.5425 824.0603 367.5075 824.473 368.654 824.6725 371.2141 826.8292 370.1439 827.107 370.1448 828.0071 370.9562 828.6233 373.5177 829.9265 378.2369 829.8549 378.8429 829.5037 379.9866 829.7792 380.6611 830.3341 380.8651 830.9585 381.0693 832.0017 380.6688 832.3489 380.67 833.4597 380.8085 834.7767 381.5539 835.9539 382.5682 834.5607 383.7758 834.0037 384.178 833.8562 386.6696 835.7235 388.966 835.5068 391.39 835.4366 391.5918 838.9001 394.2978 844.2328 398.7613 842.204 402.9976 841.4386 403.3991 839.0021 405.0073 838.9304 405.6805 839.195 409.5206 839.2612 410.4638 838.9799 411.4731 838.2802 412.9525 837.9271 414.6351 837.988 417.1274 835.321 425.1332 835.3893 425.4702 836.9746 429.0454 837.6664 429.856 838.1498 430.6659 839.8095 432.8269 841.1234 434.5152 842.2334 434.9231 842.8585 434.9252 844.455 435.2674 844.6629 435.4028 847.9874 438.243 848.333 438.7156 848.5396 439.2551 848.607 439.8615 848.6061 440.131 847.4892 441.7436 844.1402 446.0428 843.4412 447.3202 843.0207 448.3964 842.252 449.7408 839.5469 448.5866 839.2693 448.5183 834.7489 450.0519 830.1585 451.72 824.1077 453.8544 816.5268 456.5223 807.4265 456.6254 807.4123 460.6665 809.5563 463.3681 812.4616 466.8806 813.845 468.5692 814.19 469.2439 814.2578 469.7156 814.2477 472.6118 814.2218 480.0205 814.2849 481.8393 814.2091 483.6576 813.8905 495.3085 814.2673 506.7598 811.4178 507.0867 809.4031 507.0797 804.1116 510.3615 804.5935 511.6429 805.5557 514.6098 807.9747 518.1879 809.7033 520.5513 807.7103 534.1496 807.8408 536.5748 806.7833 540.9491 804.5524 543.0966 801.9168 541.8076 801.2922 541.6034 794.2109 540.0294 792.0591 539.483 786.4362 538.1161 784.6307 537.8403 783.4513 537.3647 783.1061 536.7573 781.6492 536.1459 780.9566 535.5373 780.6107 535.1319 776.5186 533.1641 775.9637 532.8928 775.4089 532.6214 775.2012 532.4186 774.9932 532.2831 773.7434 532.0766 772.564 531.6009 771.1803 529.9795 770.6295 528.5631 770.2853 527.6863 767.3749 525.588 762.5067 526.9176 759.1805 524.5483 756.6818 523.8657 756.1957 523.7966 756.0568 523.7961 754.2495 524.059 749.0379 524.3096 743.2037 523.817 741.2592 523.6078 740.4949 523.605 734.8663 523.9213 733.1291 523.9823 721.255 522.3222 720.9776 522.1865 717.2964 521.9035 713.8957 520.948 713.4798 520.677 712.0931 519.931 710.5649 519.858 709.04 518.9094 703.2045 518.8203 689.7304 517.7596 688.5478 518.1593 688.2686 518.495 687.3568 520.7816 684.9962 520.3685 682.4985 519.4835 683.6941 533.969 688.9595 537.8953 684.6265 544.6143 695.3758 549.9082 697.3745 554.2262 699.9351 556.9299 700.136 558.9513 700.1349 559.2207 693.8815 559.2646 686.7382 555.7355 685.9098 554.3179 684.6755 550.0027 679.8961 546.1455 668.3882 539.4339 667.8332 539.2298 664.9236 536.996 664.8552 536.7264 664.4399 536.3207 664.2327 535.9831 663.818 535.4427 663.3332 535.0367 656.0789 524.4345 655.941 524.1646 654.7682 522.0048 654.2166 520.925 653.6657 519.6432 652.5635 517.2143 652.0129 515.8651 649.0469 510.3307 648.5617 510.0594 646.9633 510.188 645.5699 511.1929 644.5944 511.93 643.3411 512.6661 642.9242 512.6645 636.8806 512.5064 636.2548 512.6386 627.9593 519.8132 624.6946 519.6657 619.2366 511.8988 619.3104 510.8214 619.6657 508.8022 618.6954 508.1922 616.9578 508.3875 610.7118 506.7464 609.1874 505.7301 593.7978 497.3848 591.3639 497.9813 590.8076 498.1137 586.3496 501.0595 585.9317 501.3273 584.0513 502.4648 583.8424 502.5986 582.1029 503.2652 578.7637 504.3968 578.2763 504.6643 578.276 504.7316 577.2326 505.0642 577.0242 505.0634 576.3289 505.1953 575.5644 505.2596 574.6616 505.1886 572.6461 505.3825 569.2433 505.0321 565.6314 504.8828 555.7672 504.6408 545.9723 504.4662 526.2421 504.4525 501.577 505.0234 457.2414 507.7992 422.7671 511.3545 382.5855 517.1043 378.8889 504.8295 377.2246 504.1485 373.7771 498.3407 381.6388 495.8164 391.6039 473.3646 395.5895 467.5225 406.8859 457.8735 421.3507 454.2325 425.525 452.7689 434.853 448.2295 440.9255 441.5204 447.7993 426.1935 454.7545 424.0681 470.9415 423.3964 473.2386 422.2612 481.3761 419.7362 485.3383 419.0121 490.9061 416.4088 495.923 412.6581 512.3537 403.432 514.389 398.389 514.2707 393.4717 514.7749 389.1632 518.8473 378.6056 519.223 371.8044 505.1912 372.4195 499.387 381.8247 499.4015 378.3897 506.5252 368.99 515.0511 356.3631 528.8845 336.4837 527.571 335.0638 535.6697 324.6574 537.1983 324.4616 549.5682 305.3838 552.0088 302.9017 553.3779 290.7836 557.0242 282.1098 564.1766 282.0041 565.3571 282.0089 568.7597 281.9553 600.0767 281.7438 637.8515 281.4879 641.5319 281.4348 653.5446 281.4138 664.5971 278.2905 671.6689 281.079 681.9529 279.1647 685.427 278.5716 686.6084 278.3067 697.113 273.0926 725.2315 273.8705 735.2542 286.233 738.0786 292.3725 737.9231 296.8846 738.408 297.2231 738.6852 297.3589 738.893 297.4943 741.3909 298.0423 742.6393 298.4509 744.2334 299.265 747.9735 301.9053 750.5359 303.8005 750.6745 303.8684 752.1988 304.8168 753.0298 305.426 757.8735 310.1583 759.8013 314.7453 760.2138 315.8917 761.7295 319.1975 766.2073 329.1819 767.1703 331.7448 767.0999 332.0139 766.6113 332.6857 760.2907 332.9998 758.8343 332.4557 758.4191 332.0501 755.7125 331.5689 756.0519 333.7254 757.161 334.2682 757.9939 334.4059 758.6881 334.4758 761.257 334.6197 767.5053 335.1137 769.1686 336.0626 770.0658 337.6149 770.0624 338.5578 769.917 340.3759 769.6365 341.1157 769.7036 341.7895 770.8106 342.9385 775.7432 342.4173 778.8651 343.304 781.1534 344.2551 783.2335 345.2054 784.8973 346.0195 788.5607 350.8819 788.9752 351.4896 789.4592 352.0975 790.7059 353.0448 796.3937 355.0181 797.018 355.2224 799.38 355.0286 800.631 354.7636 801.3954 354.6315 Z" fill="#2166ac">
      <title>
        鹿港鎮 Lukang Township
      </title>
    </path>
    <path d="M 807.9747 518.1879 813.8117 517.8715 814.1435 522.3179 814.9356 534.2421 819.8006 533.7875 820.1861 542.8142 832.8338 542.0495 836.6558 541.8605 837.1801 551.0223 830.9935 551.8767 820.7784 552.313 821.0448 555.6142 823.472 556.9696 817.469 564.8965 820.4337 571.5073 824.0799 582.0269 833.3703 587.9859 834.4001 591.6265 842.0183 598.994 839.7015 605.9234 833.1699 605.8337 831.4322 605.9625 820.7994 606.2626 814.1889 608.8665 810.0801 611.4116 815.4115 616.953 838.5027 631.2439 848.6155 640.9771 856.0305 647.1313 856.0262 648.411 854.2072 651.9746 853.8533 653.8592 852.5146 659.2429 851.952 661.1942 857.1018 659.1237 861.8109 664.0563 850.3247 669.6751 854.9634 674.877 853.8316 680.7328 853.4843 680.6643 845.185 668.7148 833.8678 665.5106 827.9682 663.2677 815.9445 663.4282 812.272 660.3172 808.7324 658.9579 808.0377 658.8881 806.8567 658.7493 805.1198 658.6085 798.8599 660.0684 795.872 659.9232 782.054 656.5741 764.6069 657.5222 761.0682 655.9604 759.6783 655.9554 758.6351 656.1538 757.7997 656.5549 756.0584 657.6262 753.0708 657.4134 744.9612 651.5244 745.6721 647.149 743.7356 644.5826 735.0491 644.4836 725.3421 638.4536 721.5989 635.8805 720.8622 628.4016 714.5342 629.5232 712.455 628.0338 710.2458 624.1191 708.3106 621.2831 705.815 619.6574 703.8703 619.3807 703.1062 619.3105 701.4369 619.7084 699.4166 621.048 696.3053 616.8605 695.2748 613.691 690.898 613.4052 690.1831 618.7234 681.0743 620.1709 678.2898 621.4401 670.4326 622.69 669.2744 634.8091 651.4296 648.9524 650.8718 649.4217 646.5467 653.6483 645.144 656.9431 643.8725 662.2591 647.0599 664.6961 650.7972 668.7517 653.0151 670.3093 652.8738 670.9149 650.3227 683.6348 642.0551 682.8621 641.4813 687.4398 640.1869 698.6154 634.1428 697.9184 633.1459 704.0437 639.1211 704.6057 637.4586 721.0333 615.7465 709.9702 608.4541 708.5271 601.5088 707.22 597.6196 706.4637 599.1277 711.7232 598.3653 711.1814 597.6024 710.7742 591.8561 705.0938 587.4823 703.864 580.1969 700.7367 575.2318 691.018 566.0683 688.3543 560.7805 689.7474 552.3824 686.8845 549.3305 685.3903 546.4137 684.8396 545.4426 684.3642 541.9139 680.5106 535.5352 676.7801 530.2597 675.2093 529.8044 667.6639 524.4727 662.9272 524.3638 655.6526 521.8802 651.2644 522.1094 646.2812 521.7675 644.9327 516.9108 643.0267 515.6689 640.8663 516.1024 636.8942 515.6253 634.6696 515.8441 632.1785 515.1534 631.1653 511.0084 625.2883 509.2892 620.9706 503.9128 610.5084 500.1071 606.6534 498.0957 605.7694 497.3319 605.6314 496.7757 605.6965 496.3593 605.56 494.4894 604.0704 490.765 597.4541 480.4504 571.9511 473.4416 569.8334 466.4332 567.6483 452.3476 563.1426 424.1801 553.5239 380.6894 537.0999 382.5855 517.1043 422.7671 511.3545 457.2414 507.7992 501.577 505.0234 526.2421 504.4525 545.9723 504.4662 555.7672 504.6408 565.6314 504.8828 569.2433 505.0321 572.6461 505.3825 575.5644 505.2596 576.3289 505.1953 577.0242 505.0634 578.276 504.7316 578.2763 504.6643 578.7637 504.3968 582.1029 503.2652 583.8424 502.5986 584.0513 502.4648 585.9317 501.3273 586.3496 501.0595 590.8076 498.1137 591.3639 497.9813 593.7978 497.3848 609.1874 505.7301 610.7118 506.7464 616.9578 508.3875 618.6954 508.1922 619.6657 508.8022 619.3104 510.8214 619.2366 511.8988 624.6946 519.6657 627.9593 519.8132 636.2548 512.6386 636.8806 512.5064 642.9242 512.6645 643.3411 512.6661 644.5944 511.93 645.5699 511.1929 646.9633 510.188 648.5617 510.0594 649.0469 510.3307 652.0129 515.8651 652.5635 517.2143 653.6657 519.6432 654.2166 520.925 654.7682 522.0048 655.941 524.1646 656.0789 524.4345 663.3332 535.0367 663.818 535.4427 664.2327 535.9831 664.4399 536.3207 664.8552 536.7264 664.9236 536.996 667.8332 539.2298 668.3882 539.4339 679.8961 546.1455 684.6755 550.0027 685.9098 554.3179 686.7382 555.7355 693.8815 559.2646 700.1349 559.2207 700.136 558.9513 699.9351 556.9299 697.3745 554.2262 695.3758 549.9082 684.6265 544.6143 688.9595 537.8953 683.6941 533.969 682.4985 519.4835 684.9962 520.3685 687.3568 520.7816 688.2686 518.495 688.5478 518.1593 689.7304 517.7596 703.2045 518.8203 709.04 518.9094 710.5649 519.858 712.0931 519.931 713.4798 520.677 713.8957 520.948 717.2964 521.9035 720.9776 522.1865 721.255 522.3222 733.1291 523.9823 734.8663 523.9213 740.4949 523.605 741.2592 523.6078 743.2037 523.817 749.0379 524.3096 754.2495 524.059 756.0568 523.7961 756.1957 523.7966 756.6818 523.8657 759.1805 524.5483 762.5067 526.9176 767.3749 525.588 770.2853 527.6863 770.6295 528.5631 771.1803 529.9795 772.564 531.6009 773.7434 532.0766 774.9932 532.2831 775.2012 532.4186 775.4089 532.6214 775.9637 532.8928 776.5186 533.1641 780.6107 535.1319 780.9566 535.5373 781.6492 536.1459 783.1061 536.7573 783.4513 537.3647 784.6307 537.8403 786.4362 538.1161 792.0591 539.483 794.2109 540.0294 801.2922 541.6034 801.9168 541.8076 804.5524 543.0966 806.7833 540.9491 807.8408 536.5748 807.7103 534.1496 809.7033 520.5513 807.9747 518.1879 Z" fill="#2166ac">
      <title>
        福興鄉 Fuxing Township
      </title>
    </path>
    <path d="M 1039.2885 1139.9862 1038.5471 1155.4074 1049.8638 1163.6576 1060.3456 1172.0396 1066.2302 1182.2267 1077.4053 1191.7554 1092.3337 1202.9108 1091.488 1206.68 1080.8057 1219.2443 1078.0266 1217.7546 1071.4924 1215.3786 1057.1635 1213.4513 1053.9638 1213.0379 1051.8668 1216.2646 1057.7607 1223.421 1063.1694 1229.9697 1055.0771 1236.8834 1054.1003 1237.7561 1048.8213 1234.4405 1048.1964 1233.9672 1046.6002 1232.4808 1043.7597 1228.2293 1042.4395 1227.5519 1041.1195 1226.8072 1033.8911 1223.8897 1032.4992 1223.953 1029.6446 1224.4833 1024.92 1222.0446 1024.2945 1221.7733 1019.5673 1220.2101 1016.1613 1218.9876 1003.6566 1212.1474 998.9499 1203.9163 988.1074 1199.8421 969.3938 1198.5046 965.0794 1198.6259 968.5259 1209.0761 975.1527 1226.2712 976.3251 1229.7097 978.0497 1234.5643 977.977 1235.5743 968.4601 1230.2241 964.9275 1224.9597 964.8592 1224.5554 964.6526 1223.8813 962.5728 1221.3828 957.9226 1217.5292 947.4613 1202.9484 936.2939 1191.8001 940.9948 1179.5571 939.2613 1177.6658 938.9152 1177.1258 931.9929 1165.9908 924.9892 1158.6271 906.1305 1159.7111 903.1537 1155.1216 904.7746 1148.7958 911.8991 1140.198 912.2483 1139.795 908.3597 1137.4924 897.6476 1136.8513 894.8651 1136.7075 891.4596 1135.6187 886.6765 1130.3496 876.549 1121.3583 874.2377 1105.1189 867.7291 1095.9374 866.1394 1072.0897 868.385 1066.2376 869.2535 1056.1377 868.9789 1055.0592 874.3931 1058.5122 881.073 1057.8608 891.3596 1060.3868 895.7401 1060.94 898.1721 1061.7562 899.1444 1062.2308 899.5611 1062.4342 900.8114 1062.9771 904.5624 1064.6058 916.2987 1070.6382 917.9643 1071.8559 925.8053 1077.9428 928.6573 1077.9519 931.6423 1079.9146 933.0869 1084.9706 933.2136 1088.8774 934.8056 1091.3745 940.5003 1094.4234 948.2129 1097.344 950.7236 1095.3314 951.5603 1094.7278 951.8392 1094.5267 956.429 1095.0126 966.6682 1090.8688 970.0058 1091.3507 971.5352 1091.6922 971.7437 1091.7602 978.429 1089.4909 983.9977 1088.3631 984.7632 1088.2981 985.0412 1088.3663 991.0908 1089.1931 994.289 1089.8091 994.7061 1089.8777 1000.3331 1092.4542 1003.3201 1093.8776 1003.5977 1094.0805 1010.6053 1100.2307 1010.6741 1100.5003 1011.2243 1102.5899 1011.3624 1102.927 1012.5359 1105.9614 1013.7094 1108.9957 1013.9146 1110.1413 1014.9464 1114.0508 1015.6762 1125.8395 1016.9238 1127.3923 1017.3371 1128.7406 1017.5442 1129.28 1019.1893 1137.5018 1039.2885 1139.9862 Z" fill="#67a9cf">
      <title>
        北斗鎮 Beidou Township
      </title>
    </path>
    <path d="M 1069.2523 1027.3275 1073.9629 1058.1207 1074.0307 1058.727 1074.1689 1059.0642 1074.2373 1059.4685 1075.2729 1062.1655 1079.3436 1073.829 1079.4103 1074.8394 1080.1702 1076.6601 1082.0313 1082.6597 1085.9088 1089.0017 1072.7022 1085.2596 1064.0045 1085.9754 1063.7261 1086.0419 1062.9609 1086.0397 1055.1701 1085.8824 1054.8842 1088.5082 1053.7593 1092.546 1053.6891 1092.7479 1053.7583 1092.8828 1057.44 1094.712 1057.0143 1097.5395 1050.049 1100.4826 1049.9089 1100.819 1049.2121 1101.2211 1046.4639 1113.1342 1046.324 1113.4032 1045.8977 1116.4327 1043.9955 1124.5093 1042.1869 1124.4366 1038.8557 1121.6654 1038.7861 1121.6652 1030.4475 1118.3403 1030.23 1121.3031 1029.3033 1128.7763 1033.3884 1135.3889 1035.2679 1135.0577 1035.963 1135.2618 1039.2885 1139.9862 1019.1893 1137.5018 1017.5442 1129.28 1017.3371 1128.7406 1016.9238 1127.3923 1015.6762 1125.8395 1014.9464 1114.0508 1013.9146 1110.1413 1013.7094 1108.9957 1012.5359 1105.9614 1011.3624 1102.927 1011.2243 1102.5899 1010.6741 1100.5003 1010.6053 1100.2307 1003.5977 1094.0805 1003.3201 1093.8776 1000.3331 1092.4542 994.7061 1089.8777 994.289 1089.8091 991.0908 1089.1931 985.0412 1088.3663 984.7632 1088.2981 983.9977 1088.3631 978.429 1089.4909 971.7437 1091.7602 971.5352 1091.6922 970.0058 1091.3507 966.6682 1090.8688 956.429 1095.0126 951.8392 1094.5267 951.5603 1094.7278 950.7236 1095.3314 948.2129 1097.344 940.5003 1094.4234 934.8056 1091.3745 933.2136 1088.8774 933.0869 1084.9706 931.6423 1079.9146 928.6573 1077.9519 925.8053 1077.9428 917.9643 1071.8559 916.2987 1070.6382 904.5624 1064.6058 900.8114 1062.9771 899.5611 1062.4342 899.1444 1062.2308 898.1721 1061.7562 895.7401 1060.94 891.3596 1060.3868 881.073 1057.8608 874.3931 1058.5122 868.9789 1055.0592 861.1421 1048.0957 859.3363 1047.2814 857.5973 1047.2756 855.234 1046.7962 852.663 1045.9793 840.566 1044.1871 838.4136 1043.0348 838.1508 1038.5214 833.5002 1035.6767 824.5442 1030.7967 820.3091 1028.5594 814.6856 1025.5092 798.2771 1003.8321 788.3689 993.1557 789.6429 986.8965 792.8794 976.3336 793.4448 973.7762 793.3142 971.3511 791.3947 963.4642 793.622 962.9332 794.594 963.4081 796.1857 965.6363 813.4947 967.9192 821.5561 969.6309 824.8271 968.9687 827.9573 968.7774 839.2944 968.4794 839.0986 964.707 839.1762 962.35 840.5834 957.5728 841.28 957.2384 843.7838 957.1796 850.2502 957.5383 850.2646 953.2951 852.4211 953.1004 857.5721 951.7034 870.1406 957.3357 872.012 959.2278 875.4194 959.3065 877.416 965.3748 887.471 974.1638 894.5555 977.0159 895.9451 977.4246 899.1422 978.0412 901.8524 978.7236 903.1724 979.132 904.215 979.3375 904.6301 980.0123 903.5681 985.7338 905.0973 986.0082 909.0591 986.7619 909.8229 987.1685 913.2207 990.2777 917.3149 993.1197 920.3114 991.3109 929.2843 991.003 935.7457 993.1116 952.0915 992.6246 956.1891 994.4559 961.5434 994.8095 966.1288 996.3729 973.1383 1001.244 976.3269 1004.6889 981.455 1010.7664 985.9051 1011.1842 988.8757 1017.7264 988.3067 1021.8331 988.0069 1028.8367 986.675 1032.2002 993.7591 1035.6569 1015.2617 1032.4892 1014.9207 1030.2656 1012.4635 1014.7673 1015.9427 1014.239 1019.3472 1015.4615 1029.7853 1013.7416 1033.8901 1013.3496 1036.0307 1018.6094 1039.6447 1019.563 1043.8147 1044.2259 1046.7369 1043.9651 1045.585 1033.5896 1045.1732 1031.7026 1066.6799 1026.9159 1069.2523 1027.3275 Z" fill="#67a9cf">
      <title>
        田尾鄉 Tianwei Township
      </title>
    </path>
  </g>
</svg>
