<?xml version="1.0" encoding="UTF-8"?>
<svg xmlns="http://www.w3.org/2000/svg" baseProfile="tiny" width="1440" height="1025">
<g id="village" stroke="#000" stroke-width="1">
<path d="M 894.2159 445.0695 887.7298 456.194 888.7728 465.0122 763.0023 482.186 757.9676 463.2423 774.9019 459.9339 817.3607 454.6441 829.5 440.1701 892.1049 434.4327 894.2159 445.0695 Z" fill="#67a9cf" data-villcode="10020010061"/>
<path d="M 891.4736 385.4322 918.8588 388.641 935.7389 400.3674 977.1314 392.2181 985.1583 401.0609 1029.743 401.736 1048.7331 424.8756 1039.7866 448.6954 961.3642 445.827 895.0226 444.8131 892.1049 434.4327 891.4736 385.4322 Z" fill="#67a9cf" data-villcode="10020010037"/>
<path d="M 872.4696 743.1284 875.1699 739.2493 902.0263 741.6788 915.4549 742.7637 935.3504 738.4273 946.3658 738.2072 950.1296 737.4428 950.9301 739.0011 923.1787 761.7164 901.3371 784.4524 900.4151 817.1144 859.8366 820.0799 846.8992 831.6995 842.3282 832.72 823.9826 779.2484 823.7168 778.4697 845.8373 753.1432 869.7896 741.304 870.5909 742.6031 872.4696 743.1284 Z" fill="#67a9cf" data-villcode="10020010055"/>
<path d="M 871.6766 739.496 870.7445 699.5683 856.0667 672.2944 831.8801 674.7996 814.2277 653.218 813.7278 642.8462 846.2452 639.3343 854.2688 649.2147 890.1346 686.1569 899.454 709.5227 902.0263 741.6788 875.1699 739.2493 871.6766 739.496 Z" fill="#d9f0d3" data-villcode="10020010050"/>
<path d="M 806.731 571.7865 821.7793 570.2855 825.6482 614.8904 846.2452 639.3343 813.7278 642.8462 813.4722 639.2158 813.2204 634.5484 811.4708 598.2471 809.3349 594.6099 807.4957 583.1962 806.731 571.7865 Z" fill="#7fbf7b" data-villcode="10020010046"/>
<path d="M 801.6253 572.2864 806.731 571.7865 807.4957 583.1962 809.3349 594.6099 811.4708 598.2471 813.2204 634.5484 812.9508 634.8067 779.8971 638.0567 773.6794 574.7771 801.6253 572.2864 Z" fill="#7fbf7b" data-villcode="10020010047"/>
<path d="M 610.7916 674.2452 617.0047 737.2661 565.9445 741.7408 517.8637 739.7441 487.8697 714.7419 514.8582 681.92 530.365 701.6819 561.0473 686.5022 558.4611 659.7897 593.6657 656.2928 608.7149 654.7937 610.7916 674.2452 Z" fill="#d9f0d3" data-villcode="10020020048"/>
<path d="M 871.6766 739.496 872.4696 743.1284 870.5909 742.6031 869.7896 741.304 845.8373 753.1432 832.525 719.652 814.5016 726.3273 814.2277 653.218 831.8801 674.7996 856.0667 672.2944 870.7445 699.5683 871.6766 739.496 Z" fill="#d9f0d3" data-villcode="10020010051"/>
<path d="M 935.2987 676.9851 947.0493 696.7297 973.3433 706.1558 981.838 735.2217 952.0056 738.7457 950.9301 739.0011 950.1296 737.4428 946.3658 738.2072 935.3504 738.4273 915.4549 742.7637 902.0263 741.6788 899.454 709.5227 890.1346 686.1569 854.2688 649.2147 916.0763 643.2143 935.2987 676.9851 Z" fill="#d1e5f0" data-villcode="10020010049"/>
<path d="M 813.4722 639.2158 813.7278 642.8462 814.2277 653.218 814.5016 726.3273 832.525 719.652 845.8373 753.1432 823.7168 778.4697 819.1972 765.2316 784.2902 686.0338 779.8971 638.0567 812.9508 634.8067 813.4722 639.2158 Z" fill="#d9f0d3" data-villcode="10020010052"/>
<path d="M 657.8929 650.0515 643.6497 651.554 641.3203 627.6944 655.5624 626.4511 657.8929 650.0515 Z" fill="#67a9cf" data-villcode="10020020054"/>
<path d="M 688.2608 646.7939 657.8929 650.0515 655.5624 626.4511 669.5369 624.9475 694.2592 622.7059 688.2608 646.7939 Z" fill="#67a9cf" data-villcode="10020020052"/>
<path d="M 462.9659 693.6475 428.9626 733.9598 421.4068 742.7452 421.1391 742.4849 393.9929 745.7503 393.1869 745.7472 310.1417 753.9788 284.1923 725.8779 274.0914 698.3577 272.4826 697.5736 275.9347 639.2559 292.8686 636.7301 390.7397 613.7795 407.2671 647.0275 462.9659 693.6475 Z" fill="#67a9cf" data-villcode="10020020021"/>
<path d="M 641.3203 627.6944 643.6497 651.554 640.331 677.2073 610.7916 674.2452 608.7149 654.7937 605.6101 622.8944 640.0271 614.2086 641.3203 627.6944 Z" fill="#d1e5f0" data-villcode="10020020055"/>
<path d="M 669.5369 624.9475 655.5624 626.4511 641.3203 627.6944 640.0271 614.2086 637.7075 587.7564 665.6538 585.2679 669.5369 624.9475 Z" fill="#67a9cf" data-villcode="10020020045"/>
<path d="M 694.2592 622.7059 669.5369 624.9475 665.6538 585.2679 703.5428 581.7787 717.5168 580.2747 720.1073 606.4685 694.2592 622.7059 Z" fill="#d9f0d3" data-villcode="10020020062"/>
<path d="M 561.9861 579.4356 583.9626 592.9994 585.7423 619.9681 557.4994 629.7131 540.4987 650.1296 515.858 630.5924 561.9861 579.4356 Z" fill="#7fbf7b" data-villcode="10020020022"/>
<path d="M 916.0763 643.2143 854.2688 649.2147 846.2452 639.3343 825.6482 614.8904 821.7793 570.2855 866.1174 566.0383 868.2663 566.046 872.8301 566.8402 916.0763 643.2143 Z" fill="#67a9cf" data-villcode="10020010045"/>
<path d="M 637.7075 587.7564 583.9626 592.9994 561.9861 579.4356 572.5137 565.7351 635.1251 559.7478 637.7075 587.7564 Z" fill="#67a9cf" data-villcode="10020020056"/>
<path d="M 703.5428 581.7787 665.6538 585.2679 637.7075 587.7564 635.1251 559.7478 662.8023 557.2584 701.228 553.7712 703.5428 581.7787 Z" fill="#7fbf7b" data-villcode="10020020057"/>
<path d="M 866.1174 566.0383 821.7793 570.2855 806.731 571.7865 801.6253 572.2864 807.9065 543.7918 868.9045 537.7901 866.1174 566.0383 Z" fill="#7fbf7b" data-villcode="10020010058"/>
<path d="M 948.7351 675.7366 935.2987 676.9851 916.0763 643.2143 872.8301 566.8402 868.2663 566.046 886.8703 546.6691 926.1204 537.7355 913.3833 569.3186 929.4776 575.8572 957.2372 626.2501 948.7351 675.7366 Z" fill="#67a9cf" data-villcode="10020010044"/>
<path d="M 421.9292 606.3818 407.92 546.9595 433.731 540.837 462.4994 533.9477 490.1323 543.1272 531.9415 568.4335 519.2596 583.4218 421.9292 606.3818 Z" fill="#d1e5f0" data-villcode="10020020018"/>
<path d="M 1331.5545 754.826 1331.285 755.0843 1296.7859 788.6717 1268.6288 853.6486 1217.552 862.55 1182.6842 845.0619 1140.0959 807.0659 1106.8562 785.4338 1096.1894 762.3238 1050.8809 735.2045 981.838 735.2217 973.3433 706.1558 947.0493 696.7297 935.2987 676.9851 948.7351 675.7366 966.9651 686.4303 983.3884 676.1184 993.7854 698.9689 1019.5405 708.9108 1042.1235 704.0641 1085.6327 707.3265 1109.9314 672.1527 1108.6807 645.1865 1125.6666 627.0976 1133.2919 596.7917 1156.488 569.1317 1181.4951 561.6989 1204.8449 567.7411 1217.5853 533.5635 1267.5606 529.8434 1265.0183 567.1668 1305.3276 562.3761 1307.0945 596.6028 1291.4246 623.5124 1284.8774 653.5633 1290.1561 681.8391 1282.5393 710.3309 1315.4458 751.6614 1331.5545 754.826 Z" fill="#d9f0d3" data-villcode="10020010042"/>
<path d="M 662.8023 557.2584 635.1251 559.7478 572.5137 565.7351 590.0534 544.5426 617.3118 510.1645 657.8854 506.6864 662.8023 557.2584 Z" fill="#d1e5f0" data-villcode="10020020031"/>
<path d="M 1113.941 521.2835 1127.5799 538.9595 1162.0138 524.0412 1194.2605 520.2625 1217.5853 533.5635 1204.8449 567.7411 1181.4951 561.6989 1156.488 569.1317 1133.2919 596.7917 1125.6666 627.0976 1108.6807 645.1865 1109.9314 672.1527 1085.6327 707.3265 1042.1235 704.0641 1019.5405 708.9108 993.7854 698.9689 983.3884 676.1184 966.9651 686.4303 948.7351 675.7366 957.2372 626.2501 929.4776 575.8572 913.3833 569.3186 926.1204 537.7355 941.4433 534.4198 970.4118 546.4479 995.0511 567.534 1056.7699 586.1569 1075.2519 523.7421 1093.5728 507.7321 1113.941 521.2835 Z" fill="#67a9cf" data-villcode="10020010065"/>
<path d="M 469.2572 522.8259 512.4254 543.7306 572.5137 565.7351 561.9861 579.4356 515.858 630.5924 462.9659 693.6475 407.2671 647.0275 390.7397 613.7795 421.9292 606.3818 519.2596 583.4218 531.9415 568.4335 490.1323 543.1272 462.4994 533.9477 433.731 540.837 429.0338 504.7831 469.2572 522.8259 Z" fill="#d9f0d3" data-villcode="10020020017"/>
<path d="M 807.9065 543.7918 801.6253 572.2864 773.6794 574.7771 769.8195 528.0981 767.2002 509.6818 802.6736 505.1445 807.9065 543.7918 Z" fill="#d9f0d3" data-villcode="10020010057"/>
<path d="M 701.228 553.7712 662.8023 557.2584 657.8854 506.6864 696.3109 502.94 701.228 553.7712 Z" fill="#7fbf7b" data-villcode="10020020059"/>
<path d="M 275.0283 527.7747 275.0623 587.6617 292.8686 636.7301 275.9347 639.2559 272.4826 697.5736 226.2644 700.5017 206.6147 710.2751 146.9629 713.4068 145.8863 713.921 145.3479 714.1781 94.8068 723.0481 63.6421 723.4402 58.8054 723.6797 58.563 717.1975 61.1672 671.0616 88.6285 656.1365 104.8829 622.2405 120.2321 612.9694 110.9831 574.8223 114.6821 523.2463 93.0403 494.382 127.7062 490.6333 156.6445 508.6379 177.3305 507.943 204.4047 522.0506 220.9777 542.5973 235.8037 529.4344 275.0283 527.7747 Z" fill="#d1e5f0" data-villcode="10020020020"/>
<path d="M 868.9045 537.7901 807.9065 543.7918 802.6736 505.1445 801.6301 496.5855 891.3869 485.2431 868.9045 537.7901 Z" fill="#d9f0d3" data-villcode="10020010059"/>
<path d="M 429.0338 504.7831 433.731 540.837 407.92 546.9595 421.9292 606.3818 390.7397 613.7795 292.8686 636.7301 275.0623 587.6617 275.0283 527.7747 325.077 505.6758 366.7075 506.8752 382.1552 471.4179 429.0338 504.7831 Z" fill="#67a9cf" data-villcode="10020020019"/>
<path d="M 580.8991 478.3994 552.5562 515.3652 590.0534 544.5426 572.5137 565.7351 512.4254 543.7306 469.2572 522.8259 501.9527 471.8784 564.5598 466.153 580.8991 478.3994 Z" fill="#d1e5f0" data-villcode="10020020016"/>
<path d="M 891.3869 485.2431 801.6301 496.5855 802.6736 505.1445 767.2002 509.6818 763.0023 482.186 888.7728 465.0122 891.3869 485.2431 Z" fill="#d1e5f0" data-villcode="10020010060"/>
<path d="M 696.3109 502.94 657.8854 506.6864 617.3118 510.1645 658.3235 460.8007 693.4638 473.6343 696.3109 502.94 Z" fill="#7fbf7b" data-villcode="10020020061"/>
<path d="M 961.3642 445.827 977.5114 513.5483 975.307 529.3547 941.4433 534.4198 926.1204 537.7355 886.8703 546.6691 868.2663 566.046 866.1174 566.0383 868.9045 537.7901 891.3869 485.2431 888.7728 465.0122 887.7298 456.194 894.2159 445.0695 895.0226 444.8131 961.3642 445.827 Z" fill="#67a9cf" data-villcode="10020010038"/>
<path d="M 628.292 446.6893 658.3235 460.8007 617.3118 510.1645 590.0534 544.5426 552.5562 515.3652 580.8991 478.3994 611.6706 438.0719 628.292 446.6893 Z" fill="#7fbf7b" data-villcode="10020020064"/>
<path d="M 1120.1937 499.5281 1112.203 479.7976 1127.0101 469.9972 1131.7244 426.7187 1198.019 441.4635 1229.8499 480.9774 1156.4683 496.0233 1120.1937 499.5281 Z" fill="#67a9cf" data-villcode="10020010066"/>
<path d="M 696.3109 502.94 693.4638 473.6343 658.3235 460.8007 680.9788 435.7375 699.8654 412.7341 699.5949 413.2516 710.7714 441.8104 712.0935 447.5188 717.6468 471.3903 723.9871 500.4496 696.3109 502.94 Z" fill="#d9f0d3" data-villcode="10020020060"/>
<path d="M 1124.2063 425.9151 1131.7244 426.7187 1127.0101 469.9972 1112.203 479.7976 1120.1937 499.5281 1113.941 521.2835 1093.5728 507.7321 1075.2519 523.7421 1056.7699 586.1569 995.0511 567.534 970.4118 546.4479 941.4433 534.4198 975.307 529.3547 977.5114 513.5483 961.3642 445.827 1039.7866 448.6954 1048.7331 424.8756 1029.743 401.736 1074.848 407.3376 1124.2063 425.9151 Z" fill="#d1e5f0" data-villcode="10020010043"/>
<path d="M 499.3619 446.7213 501.9527 471.8784 469.2572 522.8259 429.0338 504.7831 382.1552 471.4179 401.0751 440.8996 439.6553 396.4573 446.1302 388.964 451.7964 382.2452 458.7362 393.6789 463.6252 449.955 499.3619 446.7213 Z" fill="#d9f0d3" data-villcode="10020020065"/>
<path d="M 653.3936 413.8581 628.292 446.6893 611.6706 438.0719 580.8458 420.8456 623.157 382.8945 645.7273 380.6455 640.8158 401.3672 653.3936 413.8581 Z" fill="#7fbf7b" data-villcode="10020020005"/>
<path d="M 554.3093 406.2275 580.8458 420.8456 611.6706 438.0719 580.8991 478.3994 564.5598 466.153 501.9527 471.8784 499.3619 446.7213 510.1657 430.9481 508.7414 381.4259 554.3093 406.2275 Z" fill="#7fbf7b" data-villcode="10020020009"/>
<path d="M 508.7414 381.4259 510.1657 430.9481 499.3619 446.7213 463.6252 449.955 458.7362 393.6789 451.7964 382.2452 488.489 339.0908 493.4131 386.2932 508.7414 381.4259 Z" fill="#67a9cf" data-villcode="10020020068"/>
<path d="M 1343.5556 374.029 1339.206 389.8288 1358.4116 430.3354 1363.9568 459.3896 1350.1582 489.6761 1376.2166 488.7253 1375.047 517.7573 1398.1222 525.6107 1438.0061 568.7766 1438.4686 591.8512 1438.7331 593.1483 1439 593.6677 1429.5325 613.8582 1413.9699 608.3631 1405.5706 630.3717 1387.5513 636.7938 1371.5992 668.1103 1347.9482 671.4023 1326.3982 689.219 1335.3549 742.9132 1332.0943 754.05 1331.5545 754.826 1315.4458 751.6614 1282.5393 710.3309 1290.1561 681.8391 1284.8774 653.5633 1291.4246 623.5124 1307.0945 596.6028 1305.3276 562.3761 1265.0183 567.1668 1267.5606 529.8434 1217.5853 533.5635 1194.2605 520.2625 1162.0138 524.0412 1127.5799 538.9595 1113.941 521.2835 1120.1937 499.5281 1156.4683 496.0233 1229.8499 480.9774 1198.019 441.4635 1131.7244 426.7187 1124.2063 425.9151 1136.9226 398.9969 1145.3923 357.0275 1125.8982 324.0357 1153.3147 317.9079 1181.9579 346.0049 1226.7776 356.268 1251.2173 356.869 1280.1806 370.1882 1303.8448 361.7121 1329.6258 362.835 1343.5556 374.029 Z" fill="#d1e5f0" data-villcode="10020010041"/>
<path d="M 623.157 382.8945 580.8458 420.8456 554.3093 406.2275 556.5768 374.6075 498.7423 326.6859 507.9114 316.8693 580.7247 309.6267 585.1345 351.3826 596.8265 385.1291 623.157 382.8945 Z" fill="#7fbf7b" data-villcode="10020020069"/>
<path d="M 645.7273 380.6455 623.157 382.8945 596.8265 385.1291 585.1345 351.3826 580.7247 309.6267 635.8046 304.1296 645.7273 380.6455 Z" fill="#1b7837" data-villcode="10020020010"/>
<path d="M 682.5375 377.1527 674.1453 395.0099 662.5613 404.2999 653.3936 413.8581 640.8158 401.3672 645.7273 380.6455 635.8046 304.1296 654.3442 302.1247 682.5375 377.1527 Z" fill="#7fbf7b" data-villcode="10020020002"/>
<path d="M 788.6538 296.9157 815.1373 326.3072 805.1314 345.1962 810.4386 363.1037 763.6846 368.3776 753.2167 292.6382 788.6538 296.9157 Z" fill="#67a9cf" data-villcode="10020010003"/>
<path d="M 1133.5284 291.915 1153.3147 317.9079 1125.8982 324.0357 1145.3923 357.0275 1136.9226 398.9969 1124.2063 425.9151 1074.848 407.3376 1029.743 401.736 985.1583 401.0609 977.1314 392.2181 935.7389 400.3674 918.8588 388.641 975.874 367.8441 961.1537 353.0148 974.8834 343.9896 1031.8297 342.3751 1095.7948 330.413 1127.3441 293.9677 1130.575 291.6456 1132.455 291.652 1133.2608 291.6548 1133.5284 291.915 Z" fill="#67a9cf" data-villcode="10020010034"/>
<path d="M 926.8512 255.4149 926.5652 260.3396 926.82 264.2293 931.0906 271.7628 954.3989 288.1783 942.3362 357.6146 961.1537 353.0148 975.874 367.8441 918.8588 388.641 891.4736 385.4322 880.5557 358.9495 855.1718 322.0447 870.2031 324.6913 877.6537 268.9792 873.9669 248.4852 874.516 245.1169 875.0569 244.0819 880.4764 230.6203 895.1866 247.7835 923.8988 254.8859 926.8512 255.4149 Z" fill="#67a9cf" data-villcode="10020010035"/>
<path d="M 807.4103 234.7638 791.4644 262.4456 788.6538 296.9157 753.2167 292.6382 731.6648 237.0795 807.4103 234.7638 Z" fill="#67a9cf" data-villcode="10020010068"/>
<path d="M 880.4764 230.6203 875.0569 244.0819 874.516 245.1169 873.9669 248.4852 877.6537 268.9792 870.2031 324.6913 855.1718 322.0447 840.9649 314.2159 815.1373 326.3072 788.6538 296.9157 791.4644 262.4456 807.4103 234.7638 831.1431 207.3692 868.2966 181.8374 869.0958 183.655 878.6094 226.9841 880.4764 230.6203 Z" fill="#67a9cf" data-villcode="10020010005"/>
<path d="M 753.2167 292.6382 763.6846 368.3776 730.6349 371.886 726.6071 371.6119 731.543 343.8903 711.7471 248.9317 711.4861 246.8567 707.7813 231.8065 695.635 175.245 698.8663 172.9236 731.6648 237.0795 753.2167 292.6382 Z" fill="#67a9cf" data-villcode="10020010004"/>
<path d="M 1126.6898 171.3401 1145.0423 223.5125 1143.8574 255.9147 1132.2068 285.6884 1133.5284 291.915 1133.2608 291.6548 1132.455 291.652 1130.575 291.6456 1127.3441 293.9677 1095.7948 330.413 1031.8297 342.3751 974.8834 343.9896 961.1537 353.0148 942.3362 357.6146 954.3989 288.1783 931.0906 271.7628 926.82 264.2293 926.5652 260.3396 926.8512 255.4149 927.1198 255.4158 959.9128 247.7548 970.4217 237.9405 979.1806 191.0471 999.9233 172.9727 1011.277 151.754 1026.0466 152.0651 1066.5122 177.0945 1104.6244 183.9672 1126.6898 171.3401 Z" fill="#67a9cf" data-villcode="10020010036"/>
<path d="M 580.7247 309.6267 507.9114 316.8693 471.9769 302.2141 433.9068 214.1818 455.2539 180.0427 454.2262 167.854 448.8858 159.7967 437.6719 142.643 437.9435 141.8663 442.8319 127.6262 468.1112 118.3902 516.9607 125.5765 535.5454 111.129 560.1797 130.4068 609.5264 220.5526 634.8736 265.4978 654.3442 302.1247 635.8046 304.1296 580.7247 309.6267 Z" fill="#7fbf7b" data-villcode="10020020070"/>
<path d="M 867.4965 180.279 868.2966 181.8374 831.1431 207.3692 807.4103 234.7638 731.6648 237.0795 698.8663 172.9236 685.0712 126.7259 648.519 62.0366 667.3398 55.8846 721.8742 50.3827 770.2724 33.709 778.598 33.4801 786.116 33.7668 788.2643 33.7746 818.3142 41.1429 818.2356 62.9197 805.5271 86.9839 822.8489 124.1197 850.4221 148.5889 867.2316 179.2411 867.4965 180.279 Z" fill="#67a9cf" data-villcode="10020010002"/>
<path d="M 763.6846 368.3776 774.9019 459.9339 757.9676 463.2423 717.6468 471.3903 712.0935 447.5188 710.7714 441.8104 699.5949 413.2516 699.8654 412.7341 726.067 372.3877 730.6349 371.886 763.6846 368.3776 Z" fill="#d9f0d3" data-villcode="10020010064"/>
<path d="M 855.1718 322.0447 880.5557 358.9495 891.4736 385.4322 892.1049 434.4327 829.5 440.1701 817.3607 454.6441 812.1476 410.5527 823.9714 409.0401 813.3117 385.6689 806.4079 363.6076 810.4386 363.1037 805.1314 345.1962 815.1373 326.3072 840.9649 314.2159 855.1718 322.0447 Z" fill="#67a9cf" data-villcode="10020010039"/>
<path d="M 507.9114 316.8693 498.7423 326.6859 556.5768 374.6075 554.3093 406.2275 508.7414 381.4259 493.4131 386.2932 488.489 339.0908 451.7964 382.2452 446.1302 388.964 445.8616 388.9629 438.6206 386.0833 435.1319 385.2921 435.4153 381.4045 452.4503 351.6561 479.4035 326.8713 471.9769 302.2141 507.9114 316.8693 Z" fill="#d1e5f0" data-villcode="10020020011"/>
<path d="M 352.5219 424.3783 186.4788 368.7619 188.0647 307.5849 193.0092 279.8648 231.7708 257.9827 273.9659 250.6314 288.3502 212.3189 344.3864 375.0889 352.5219 424.3783 Z" fill="#d9f0d3" data-villcode="10020020013"/>
<path d="M 471.9769 302.2141 479.4035 326.8713 452.4503 351.6561 435.4153 381.4045 435.1319 385.2921 438.6206 386.0833 445.8616 388.9629 439.6553 396.4573 401.0751 440.8996 352.5219 424.3783 344.3864 375.0889 288.3502 212.3189 289.7072 208.6947 329.8764 169.4461 382.0155 159.5384 421.4991 158.1357 436.5908 144.4536 437.6719 142.643 448.8858 159.7967 454.2262 167.854 455.2539 180.0427 433.9068 214.1818 471.9769 302.2141 Z" fill="#7fbf7b" data-villcode="10020020012"/>
<path d="M 186.4788 368.7619 352.5219 424.3783 401.0751 440.8996 382.1552 471.4179 366.7075 506.8752 325.077 505.6758 275.0283 527.7747 235.8037 529.4344 220.9777 542.5973 204.4047 522.0506 177.3305 507.943 156.6445 508.6379 127.7062 490.6333 93.0403 494.382 62.718 486.7407 50.4535 464.1359 58.2365 399.3549 57.9711 398.576 79.5505 375.8496 126.4913 391.5945 118.0783 346.1916 186.4788 368.7619 Z" fill="#7fbf7b" data-villcode="10020020015"/>
<path d="M 779.8971 638.0567 784.2902 686.0338 819.1972 765.2316 769.5242 757.5328 752.111 743.9881 749.4859 727.1273 748.416 725.8272 732.2142 674.9549 723.7325 643.5545 779.8971 638.0567 Z" fill="#d1e5f0" data-villcode="10020010067"/>
<path d="M 717.6468 471.3903 757.9676 463.2423 763.0023 482.186 767.2002 509.6818 769.8195 528.0981 726.8262 532.0885 723.9871 500.4496 717.6468 471.3903 Z" fill="#7fbf7b" data-villcode="10020010062"/>
<path d="M 717.5168 580.2747 703.5428 581.7787 701.228 553.7712 696.3109 502.94 723.9871 500.4496 726.8262 532.0885 727.859 543.4993 728.6374 551.0204 729.9321 564.2469 730.1828 569.1736 730.4381 572.804 731.2213 579.0289 717.5168 580.2747 Z" fill="#7fbf7b" data-villcode="10020020058"/>
<path d="M 726.8262 532.0885 769.8195 528.0981 773.6794 574.7771 750.0314 577.2832 740.3582 578.0254 731.2213 579.0289 730.4381 572.804 730.1828 569.1736 729.9321 564.2469 728.6374 551.0204 727.859 543.4993 726.8262 532.0885 Z" fill="#d9f0d3" data-villcode="10020010056"/>
<path d="M 688.2608 646.7939 694.2592 622.7059 720.1073 606.4685 717.5168 580.2747 731.2213 579.0289 740.3582 578.0254 750.0314 577.2832 749.5995 622.1318 721.6517 624.8809 723.7325 643.5545 688.2608 646.7939 Z" fill="#d9f0d3" data-villcode="10020020051"/>
<path d="M 773.6794 574.7771 779.8971 638.0567 723.7325 643.5545 721.6517 624.8809 749.5995 622.1318 750.0314 577.2832 773.6794 574.7771 Z" fill="#d9f0d3" data-villcode="10020010048"/>
<path d="M 726.6071 371.6119 726.067 372.3877 682.5375 377.1527 654.3442 302.1247 634.8736 265.4978 636.2242 263.4288 672.7664 186.308 695.635 175.245 707.7813 231.8065 711.4861 246.8567 711.7471 248.9317 731.543 343.8903 726.6071 371.6119 Z" fill="#d9f0d3" data-villcode="10020020001"/>
<path d="M 695.635 175.245 672.7664 186.308 636.2242 263.4288 634.8736 265.4978 609.5264 220.5526 560.1797 130.4068 535.5454 111.129 534.817 90.6453 521.2241 63.3723 532.8124 52.5278 550.9469 14.7457 578.7714 42.3314 576.0316 56.8392 599.0398 79.9991 616.2121 83.9523 635.3605 61.9875 618.4008 1 618.9369 1.2613 619.2054 1.2623 664.0022 14.3919 672.3669 3.5344 706.7408 3.1432 707.5426 4.1832 723.0689 17.4622 770.2724 33.709 721.8742 50.3827 667.3398 55.8846 648.519 62.0366 685.0712 126.7259 698.8663 172.9236 695.635 175.245 Z" fill="#d1e5f0" data-villcode="10020010001"/>
<path d="M 601.4301 1023.9371 601.1614 1023.9361 591.5649 1003.4195 558.1238 964.6655 558.3935 964.4073 558.6641 963.8898 586.1015 955.4379 548.9535 902.4112 540.7114 879.3068 520.0015 885.1911 518.1277 883.3692 514.382 879.207 501.7987 867.4929 585.1206 786.4039 608.9613 805.1593 649.5054 811.5326 661.7824 833.6145 691.6399 823.8736 703.4087 838.1758 712.5166 845.4683 744.4016 869.1772 745.7374 871.256 741.9203 886.5377 741.6365 890.6847 735.6625 908.0324 729.5303 968.6741 722.5237 974.3518 692.1616 974.4991 625.9089 1016.5105 601.6979 1024.1973 601.4301 1023.9371 Z" fill="#7fbf7b" data-villcode="10020020049"/>
<path d="M 744.4016 869.1772 712.5166 845.4683 703.4087 838.1758 691.6399 823.8736 692.8849 777.4726 693.486 760.1052 693.8422 736.2556 694.6472 736.5178 699.4762 738.3504 704.0394 739.4042 705.9199 739.4111 731.4678 732.2462 742.4983 727.8795 748.416 725.8272 749.4859 727.1273 752.111 743.9881 769.5242 757.5328 819.1972 765.2316 823.7168 778.4697 823.9826 779.2484 805.6198 805.366 756.1116 825.9255 744.4016 869.1772 Z" fill="#67a9cf" data-villcode="10020010053"/>
<path d="M 691.6399 823.8736 661.7824 833.6145 649.5054 811.5326 649.3949 768.7561 595.6357 776.3327 595.3671 776.3317 576.288 777.5562 565.9445 741.7408 617.0047 737.2661 693.3268 730.2909 694.6472 736.5178 693.8422 736.2556 693.486 760.1052 692.8849 777.4726 691.6399 823.8736 Z" fill="#67a9cf" data-villcode="10020020053"/>
<path d="M 231.7708 257.9827 193.0092 279.8648 188.0647 307.5849 186.4788 368.7619 118.0783 346.1916 126.4913 391.5945 79.5505 375.8496 57.9711 398.576 57.7098 396.7602 62.1027 373.1862 64.0143 365.4165 66.7326 357.3907 7.6765 349.1129 1 273.9025 11.0545 245.1668 11.5937 244.6505 12.4026 243.8761 28.8274 233.5733 70.2108 227.7792 121.6735 253.3942 142.7837 213.0359 176.45 189.0606 198.7395 189.4089 236.2155 152.485 224.9703 211.809 231.7708 257.9827 Z" fill="#d9f0d3" data-villcode="10020020014"/>
<path d="M 748.416 725.8272 742.4983 727.8795 731.4678 732.2462 705.9199 739.4111 704.0394 739.4042 699.4762 738.3504 694.6472 736.5178 693.3268 730.2909 617.0047 737.2661 610.7916 674.2452 640.331 677.2073 643.6497 651.554 657.8929 650.0515 688.2608 646.7939 723.7325 643.5545 732.2142 674.9549 748.416 725.8272 Z" fill="#d9f0d3" data-villcode="10020020050"/>
<path d="M 649.5054 811.5326 608.9613 805.1593 585.1206 786.4039 595.3671 776.3317 595.6357 776.3327 649.3949 768.7561 649.5054 811.5326 Z" fill="#d9f0d3" data-villcode="10020020066"/>
<path d="M 487.8697 714.7419 517.8637 739.7441 565.9445 741.7408 576.288 777.5562 595.3671 776.3317 585.1206 786.4039 501.7987 867.4929 489.2186 855.001 480.204 752.5631 479.4286 744.5234 440.1912 748.2618 421.9411 743.525 421.4068 742.7452 428.9626 733.9598 462.9659 693.6475 487.8697 714.7419 Z" fill="#d1e5f0" data-villcode="10020020067"/>
<path d="M 593.6657 656.2928 558.4611 659.7897 561.0473 686.5022 530.365 701.6819 514.8582 681.92 487.8697 714.7419 462.9659 693.6475 515.858 630.5924 540.4987 650.1296 557.4994 629.7131 585.7423 619.9681 593.6657 656.2928 Z" fill="#67a9cf" data-villcode="10020020047"/>
<path d="M 640.0271 614.2086 605.6101 622.8944 608.7149 654.7937 593.6657 656.2928 585.7423 619.9681 583.9626 592.9994 637.7075 587.7564 640.0271 614.2086 Z" fill="#d9f0d3" data-villcode="10020020046"/>
<path d="M 662.5613 404.2999 662.8309 404.0417 680.9788 435.7375 658.3235 460.8007 628.292 446.6893 653.3936 413.8581 662.5613 404.2999 Z" fill="#7fbf7b" data-villcode="10020020063"/>
<path d="M 699.8654 412.7341 680.9788 435.7375 662.8309 404.0417 674.1453 395.0099 682.5375 377.1527 726.067 372.3877 699.8654 412.7341 Z" fill="#7fbf7b" data-villcode="10020020003"/>
<path d="M 817.3607 454.6441 774.9019 459.9339 763.6846 368.3776 806.4079 363.6076 813.3117 385.6689 823.9714 409.0401 812.1476 410.5527 817.3607 454.6441 Z" fill="#d1e5f0" data-villcode="10020010063"/>
<path d="M 823.9826 779.2484 842.3282 832.72 841.79 832.9773 814.5852 852.3226 791.8984 885.1648 761.0132 955.827 722.5237 974.3518 729.5303 968.6741 735.6625 908.0324 741.6365 890.6847 741.9203 886.5377 745.7374 871.256 744.4016 869.1772 756.1116 825.9255 805.6198 805.366 823.9826 779.2484 Z" fill="#67a9cf" data-villcode="10020010054"/>
</g>
</svg>
