<?xml version="1.0" encoding="UTF-8"?>
<svg xmlns="http://www.w3.org/2000/svg" baseProfile="tiny" width="1440" height="784">
  <g id="town" stroke="#000" stroke-width="1">
    <path d="M 466.0781 222.6594 464.8 225.6537 464.4909 235.5771 466.4321 239.2883 473.2184 240.2049 492.2015 232.0604 495.5009 231.9625 499.0931 235.4208 499.4757 235.6815 500.2242 240.4246 494.871 245.6989 491.6871 245.6492 486.8781 249.0739 483.8626 254.8388 476.5115 251.1799 470.6002 252.0075 468.254 253.4792 468.0615 253.6636 466.6253 257.7683 467.5789 268.5115 476.0147 269.694 475.6264 270.8404 475.3534 271.9503 474.7259 275.3176 474.8011 275.6883 473.6893 284.9418 475.4413 288.1707 479.7726 289.2622 482.864 293.3853 482.3356 300.7526 483.6567 306.2016 481.4642 307.5259 479.1424 312.3677 475.2197 314.4997 474.8477 321.0899 474.8824 322.0158 474.6906 321.978 467.246 321.9846 464.7065 323.6406 458.1418 324.2802 458.2752 329.1689 450.9453 329.2126 450.897 322.3244 448.7272 318.0937 440.8793 322.8009 440.5814 320.6148 436.6229 322.0423 432.794 320.0264 430.7122 322.2765 427.0638 322.9646 420.2809 320.7507 419.8427 324.5261 409.2343 328.4428 408.8499 328.5892 408.7346 328.6257 410.2879 333.2985 413.3472 335.8299 413.3086 335.8668 413.2698 335.9777 401.0466 340.4426 398.9611 343.4701 405.8958 346.1666 402.283 356.2236 407.411 359.6899 406.8483 365.5756 405.2457 372.2714 409.3465 373.6964 408.4521 376.3959 404.707 381.453 400.7623 379.4361 389.1201 382.1623 386.2334 383.9641 383.4406 381.878 379.7577 381.4172 376.1395 383.697 371.4642 382.0096 368.4908 377.4043 365.9632 376.1338 361.6322 374.7441 358.9548 372.6581 355.2281 373.4559 350.4009 371.4711 348.4913 369.3886 344.3134 368.1473 337.8647 368.2657 336.3751 366.6664 329.1162 367.7066 326.9967 369.5483 318.5513 369.842 313.7088 371.1894 313.6321 371.189 313.5551 371.2257 310.8306 371.1017 301.0335 373.1289 300.5046 371.3488 298.8369 366.897 298.8512 363.8974 296.7907 361.3693 298.6459 358.6379 298.5598 352.5271 300.428 347.0553 295.7038 339.7743 300.6086 325.2071 300.6088 325.1701 302.1655 320.5855 302.2042 320.5116 302.36 320.0309 304.6178 313.2648 295.7617 311.556 297.1528 301.4898 296.8121 292.4523 296.8512 292.3043 296.9663 292.3049 320.0325 291.0443 327.4866 297.0785 339.3695 282.9873 339.3697 282.9503 339.3704 282.8022 339.3325 282.6909 339.2947 282.5796 339.4517 281.8027 339.6062 281.5812 340.855 276.995 340.8554 276.9209 339.0722 272.5428 349.5076 264.2216 348.1038 260.7711 341.3977 259.0738 339.9518 256.4748 337.5758 255.9083 337.5596 251.094 348.642 252.108 351.525 250.8621 352.1881 248.458 352.2271 248.3101 352.8483 246.6835 357.8897 243.1884 358.4731 241.4135 358.4358 241.1911 358.6661 241.1551 362.8501 240.5816 368.3113 237.4955 373.3786 236.7036 374.8695 237.8583 385.6725 241.2394 391.1573 241.4488 391.2724 241.4494 394.5765 240.3159 398.3247 242.8876 402.2008 242.5343 404.8864 233.6212 409.9544 232.6063 411.5465 228.1323 411.6619 228.0587 411.7002 228.0589 415.6923 227.4466 417.6031 229.1213 423.9826 226.3712 429.3261 232.6895 430.5049 235.1387 430.698 243.9162 431.6458 246.5866 435.8188 248.604 439.0503 246.4698 444.8138 244.2721 447.2759 242.6159 448.558 238.7329 448.7342 233.2528 451.6072 224.9696 459.0926 223.6675 461.5946 221.567 461.6713 221.5673 466.0781 222.6594 Z" fill="#1b7837">
      <title>
        太保市 Taibao City
      </title>
    </path>
    <path d="M 647.6972 340.581 647.8123 340.5813 648.0042 340.582 652.1091 341.0401 668.8808 340.7993 671.2966 341.3997 675.0118 343.7078 683.4834 346.8088 687.8967 346.8599 693.9676 344.5833 694.1214 344.5097 694.2367 344.436 695.7371 343.2928 704.1796 343.4674 711.056 341.2669 717.3503 341.1382 728.7902 339.9881 744.6316 342.8129 752.3377 345.5019 755.4794 347.3256 757.9396 345.9626 763.8868 346.4612 769.5309 345.5517 774.2032 349.0459 782.6318 354.3282 785.1985 356.0018 790.4911 357.3867 794.3316 356.4716 800.1899 361.561 803.0266 362.8278 805.871 361.2802 809.7046 362.9199 814.1466 366.7461 817.3169 372.5685 816.5372 377.1213 818.7815 384.8298 823.0723 387.9518 823.2641 387.9894 828.931 393.4109 829.3861 395.5228 829.3858 395.6339 829.3857 395.671 831.3731 399.046 830.2525 401.8945 832.0115 404.5283 832.1939 408.2319 828.9205 412.2598 832.3623 417.3421 832.4001 417.5644 834.0826 420.1609 830.9869 429.6329 831.5158 432.9671 831.4002 433.1149 828.5938 434.5889 829.8512 438.2583 829.6834 443.7755 835.0887 446.9372 832.7287 453.893 831.7539 459.7043 823.2682 474.4576 823.2061 483.53 824.6972 486.0151 824.6495 489.5699 823.0651 493.417 817.9516 495.7364 816.9102 497.4741 816.8332 497.548 809.5307 499.8614 807.6349 505.1147 805.4029 506.8491 804.5882 509.9205 800.4008 510.4276 796.8332 508.9736 795.4474 510.1548 790.3043 509.0667 787.4597 510.0586 785.6622 507.3874 783.3583 507.2698 779.3485 512.9614 771.6845 520.6051 768.5679 522.633 768.4525 522.7067 761.3813 524.2787 756.5287 528.9676 755.6355 532.3719 752.5863 537.5473 750.3139 539.7255 741.8116 544.5145 735.9682 546.2745 736.0322 550.6074 730.1161 550.9229 726.5078 550.1714 721.12 553.5989 716.0119 553.4351 712.9674 556.7215 712.6215 556.7945 711.8914 556.9033 710.51 556.4547 709.2436 556.0804 707.0997 553.7408 706.1398 553.6267 705.5641 553.4768 704.0284 553.2499 703.4915 552.989 702.4551 552.7635 701.9574 552.2435 701.92 551.9101 701.6527 551.3909 700.9232 551.3145 699.9625 551.4596 699.1161 551.9014 698.4999 552.4179 698.19 553.2686 697.6133 553.4519 697.2297 553.2656 696.5812 551.8563 695.9723 550.0399 695.4353 549.779 695.0148 549.1481 694.4011 548.887 693.8242 549.1073 690.6444 546.5051 687.8791 546.4593 686.574 546.1959 685.3862 545.2663 683.8504 545.1133 681.9746 543.1446 681.6287 543.2175 680.858 543.9927 679.9392 543.064 679.2485 542.8396 677.0978 542.7956 676.1387 542.4222 675.8316 542.3842 674.8323 542.6031 672.4884 542.8918 671.1021 543.9982 670.6027 544.0336 669.5643 544.4375 669.1033 544.4731 668.8729 544.4723 668.4506 544.3969 668.2977 544.1742 668.1835 543.8405 667.9926 543.5066 667.7244 543.2836 667.1496 542.8743 666.5755 542.2429 665.9228 542.1667 665.3468 542.1278 665.0405 541.8306 664.6194 541.4218 663.9295 540.9752 664.469 540.4215 664.6614 540.311 664.5499 539.1627 664.0136 538.7166 663.0548 538.3061 662.9026 537.8612 663.1045 534.8253 663.2601 534.2333 663.3003 533.678 663.2646 532.8632 662.6121 532.7129 662.113 532.6742 661.6146 532.3763 661.4639 531.4871 661.4302 530.0428 661.4702 529.5615 661.587 529.0805 661.8957 528.6371 662.0116 528.4153 662.2432 528.0828 662.401 526.7872 662.289 525.824 662.4441 525.3431 662.599 524.9733 662.7916 524.7888 663.2155 524.3458 663.3714 523.6428 663.3345 523.1983 664.2598 522.0904 664.8374 521.6479 666.3701 522.7268 667.3279 523.4336 669.8158 526.0709 670.5077 525.888 670.8539 525.704 671.7012 524.9661 672.5088 524.6355 672.9316 524.5257 674.5867 523.4202 675.3964 522.423 676.1676 521.4626 676.6311 520.6495 676.2965 517.2045 676.2216 516.6117 676.3422 514.9087 676.4207 514.3905 676.6539 513.5395 676.5403 513.0207 676.426 512.7241 676.1975 512.1309 675.6611 511.7588 674.969 512.0158 674.5107 511.1996 674.6281 510.5334 674.6295 510.0891 674.0931 509.717 674.2094 509.3841 674.4018 509.2366 674.5949 508.904 674.5192 508.5704 673.943 508.6056 673.5589 508.6414 673.4459 507.9374 673.4858 507.4932 672.8735 506.8246 673.4147 505.7154 673.1853 505.3814 673.3026 504.7523 672.8432 504.3064 672.075 504.3409 671.9975 504.5629 671.0383 504.3005 670.6155 504.4102 670.1184 503.7421 669.5039 503.7771 668.5475 502.626 667.4754 501.6597 667.5144 501.4746 667.8223 501.2535 667.8995 501.1426 667.9004 500.8464 666.9435 499.8804 666.4059 499.8787 665.5231 499.7276 665.102 499.3189 664.5645 499.2801 663.9504 499.204 663.759 499.0183 663.6456 498.4624 663.4922 498.3878 663.263 498.0168 663.2256 497.7204 664.2244 497.6126 664.3014 497.5388 664.1876 497.094 663.8437 496.5745 663.3456 496.2396 661.8093 496.3086 661.3481 496.4181 661.0808 495.9729 661.2735 495.7513 660.8907 495.3797 660.1613 495.3033 658.9619 498.0396 658.4616 498.3713 657.8083 498.5172 657.1941 498.4411 657.0406 498.4036 656.7339 498.2544 656.3123 497.9938 655.9287 497.8814 654.8916 497.9521 654.0865 497.542 653.5891 496.9849 652.9754 496.7607 652.1307 496.7208 650.7112 496.3088 650.214 495.7146 649.7929 495.3058 649.0653 494.7109 648.6439 494.4132 647.8757 494.4477 645.6073 495.2548 644.6141 493.6961 644.3462 493.436 643.1593 492.3581 642.5086 491.7264 641.7053 490.7979 641.4765 490.3157 640.7489 489.7207 640.2086 490.5336 639.8228 491.0507 639.0143 491.6775 638.8594 492.0843 638.2832 492.1194 637.4089 489.4872 637.372 489.0427 635.7607 488.5929 635.2995 488.7024 634.2968 489.958 633.8725 490.5121 633.639 491.437 633.3288 492.3247 632.5968 493.0258 630.4026 494.6107 629.441 495.0518 628.135 495.1584 627.9049 495.0835 627.7914 494.5647 627.3756 492.6376 626.9152 492.525 626.6859 492.1909 626.3141 488.5976 626.6241 487.7839 626.7797 487.192 627.0901 486.2673 627.2078 485.527 627.0245 482.9712 627.2182 482.4905 627.299 481.3058 627.3781 480.6395 627.4561 480.2694 627.8063 478.9375 628.1539 478.3462 628.386 477.8285 628.5804 477.1256 628.7739 476.6819 629.3131 476.2023 629.7365 475.9075 630.6994 475.0591 631.3149 474.728 635.9288 472.8921 636.6979 472.5615 636.9288 472.4141 637.3523 472.0823 637.7386 471.38 637.9698 471.1586 638.4711 470.5308 638.7411 470.1614 639.1254 470.0516 639.6233 470.4236 640.7738 470.8718 642.1583 470.2099 642.5429 470.0261 643.3511 469.4733 643.5053 469.2887 643.8527 468.7344 645.4295 467.9991 646.8509 467.7817 647.4641 468.117 648.039 468.4522 648.461 468.5647 648.5762 468.5651 648.6532 468.4913 648.807 468.4178 649.3842 468.0494 650.0376 467.8664 650.6152 467.3499 651.2709 466.4634 651.9264 465.6508 652.5441 464.616 654.1682 461.1775 654.0541 460.8439 653.5173 460.6199 651.9081 459.5776 651.4105 459.0946 650.9504 458.9079 650.9267 454.464 649.3577 452.9035 648.4397 451.8635 647.9808 451.3065 647.597 451.2682 647.2515 451.267 647.4058 451.0453 651.1361 449.2063 652.2997 445.6551 652.8172 440.1021 651.5673 434.9506 653.8383 433.1806 651.1203 430.8386 646.4699 432.3413 643.3737 428.2944 638.8855 427.2424 633.9503 422.1522 629.7253 422.7673 626.9111 426.2016 623.56 418.2653 624.3776 414.9353 621.1676 410.6655 621.2128 408.666 618.4982 405.5089 618.6139 405.3611 620.4316 401.4421 620.0571 398.7005 625.7002 398.6089 627.4698 397.504 627.4816 394.0601 630.2484 393.1438 630.4019 393.1814 637.1304 389.9085 643.8495 389.3758 644.0034 389.2653 645.405 383.3819 644.2702 378.3788 638.8751 373.3613 638.7987 373.25 635.4663 371.2019 635.4283 371.0907 635.053 368.5712 631.2994 366.2995 622.2888 363.6762 616.7719 360.8056 609.9034 360.3372 608.3655 361.1094 608.2116 361.22 604.9019 363.7635 604.8634 363.8004 604.7094 363.948 601.8122 369.2333 595.3469 374.0614 592.9039 381.0517 589.7424 385.0027 589.6271 385.0394 589.627 385.0764 583.0147 387.904 577.2192 387.7348 572.394 384.6435 570.1692 384.228 570.0541 384.2276 564.6071 383.2447 564.4328 378.4669 560.8775 374.5654 556.7926 378.994 552.5729 378.3117 552.535 378.2004 550.3347 371.2302 552.4305 365.0167 552.3925 364.9055 552.4308 364.9427 555.8891 363.8446 565.3529 357.8436 569.6899 357.8226 575.1879 355.1764 579.5996 345.0828 582.8402 340.3915 586.7263 337.6282 587.4561 337.4457 589.3041 335.7859 595.1005 335.3623 595.2321 330.6968 598.3521 327.4491 602.3162 324.2044 602.4698 324.1679 606.7311 323.6645 616.5934 323.662 623.0654 327.5358 624.5891 330.8369 629.3372 333.9269 635.4206 339.3544 640.4012 341.8525 647.6972 340.581 Z" fill="#1b7837">
      <title>
        中埔鄉 Zhongpu Township
      </title>
    </path>
    <path d="M 953.9728 346.898 954.0487 347.3055 954.542 350.0099 957.4175 351.386 962.1664 356.3211 963.1563 360.1744 965.9148 362.5871 968.3232 367.2951 967.1682 369.0702 960.2973 369.3523 954.3037 372.2282 951.7525 380.8141 946.6753 385.8026 942.5888 394.1259 940.6638 396.8251 935.6289 399.7396 933.3709 414.288 930.2468 421.0208 927.8621 423.0523 922.1475 420.5585 916.5842 419.1389 916.469 419.1756 916.6474 425.2121 919.9789 428.9968 921.3543 432.0365 921.6118 437.1103 918.7635 440.3627 913.1653 437.2024 908.3672 436.7841 908.3288 436.784 908.2137 436.7467 905.9886 436.001 908.3913 443.0795 908.6061 449.9307 906.4444 455.0361 901.4092 457.3945 898.865 461.7583 898.7386 466.6461 900.6937 467.9837 900.2576 473.9818 898.4713 482.6429 899.1957 484.8665 902.3398 486.9105 904.9385 492.3971 905.9953 500.4723 901.4229 501.5726 897.7642 506.119 896.9831 511.7829 893.5933 516.1817 893.7812 517.9596 889.2386 522.5778 886.3865 526.8296 886.3762 531.1992 889.5844 538.9092 892.3414 542.4707 886.4246 543.2714 884.8794 547.0078 881.6881 548.4074 875.661 547.0968 871.0129 547.3077 865.9374 549.5542 860.6719 550.9113 857.8037 545.8309 852.0833 544.7797 848.2028 545.2513 840.718 543.3067 838.8882 537.8584 835.6238 537.7759 834.0919 536.0315 824.0253 537.4865 823.8716 537.5231 817.0154 530.395 813.7179 528.3125 810.8861 524.4537 809.7546 516.6741 805.771 512.7751 804.5882 509.9205 805.4029 506.8491 807.6349 505.1147 809.5307 499.8614 816.8332 497.548 816.9102 497.4741 817.9516 495.7364 823.0651 493.417 824.6495 489.5699 824.6972 486.0151 823.2061 483.53 823.2682 474.4576 831.7539 459.7043 832.7287 453.893 835.0887 446.9372 829.6834 443.7755 829.8512 438.2583 828.5938 434.5889 831.4002 433.1149 831.5158 432.9671 830.9869 429.6329 834.0826 420.1609 832.4001 417.5644 832.3623 417.3421 828.9205 412.2598 832.1939 408.2319 832.0115 404.5283 830.2525 401.8945 831.3731 399.046 829.3857 395.671 829.3858 395.6339 829.3861 395.5228 828.931 393.4109 823.2641 387.9894 823.0723 387.9518 818.7815 384.8298 816.5372 377.1213 817.3169 372.5685 814.1466 366.7461 809.7046 362.9199 805.871 361.2802 803.0266 362.8278 800.1899 361.561 794.3316 356.4716 790.4911 357.3867 785.1985 356.0018 782.6318 354.3282 774.2032 349.0459 769.5309 345.5517 763.8868 346.4612 757.9396 345.9626 755.4794 347.3256 752.3377 345.5019 744.6316 342.8129 728.7902 339.9881 717.3503 341.1382 711.056 341.2669 704.1796 343.4674 695.7371 343.2928 694.2367 344.436 694.1214 344.5097 693.9676 344.5833 687.8967 346.8599 683.4834 346.8088 675.0118 343.7078 671.2966 341.3997 668.8808 340.7993 652.1091 341.0401 648.0042 340.582 647.8123 340.5813 647.6972 340.581 651.7193 331.2995 656.6472 326.5017 656.7628 326.354 657.2286 324.7632 655.9492 317.0933 659.0274 314.5483 662.4058 314.0781 664.6845 309.6048 667.2584 308.6874 668.4582 305.5436 670.6812 306.3286 672.0336 303.4445 671.9954 303.3703 671.9577 303.185 671.8916 299.889 666.1944 293.723 662.8983 292.6012 663.0654 288.4542 659.3431 288.59 661.3142 284.2638 660.5221 280.1136 657.7787 274.3275 658.4 272.0706 661.3397 276.4872 662.9131 276.3813 666.2348 281.3545 669.982 285.3292 677.2436 282.2421 682.6356 287.8514 686.9337 287.6059 696.212 289.8203 700.4004 287.8708 707.7912 292.5229 712.3622 290.9077 712.1026 287.9814 712.0648 287.7961 712.2002 281.2049 714.9458 274.1773 715.6485 270.2541 717.3693 272.111 724.2681 274.4651 723.4853 279.5731 727.2756 282.2509 729.6947 281.6287 734.3268 285.1237 733.9335 288.3443 730.7854 288.9643 732.1174 292.5975 729.8099 294.368 731.746 301.2988 734.1985 302.3801 738.4802 307.7256 745.5828 306.4506 747.9542 309.0868 760.0202 316.4544 762.683 311.2406 762.7216 311.1296 764.5767 306.543 768.029 306.9233 772.9706 309.8999 775.6941 310.241 776.2999 313.1311 778.9053 314.5457 778.6644 318.3593 783.2994 321.2979 785.3366 320.0815 787.9776 322.57 788.0925 322.6444 788.169 322.7187 793.0763 324.3987 797.3018 322.855 798.5615 325.3025 808.697 323.5896 812.3557 318.6743 815.8135 317.1282 824.4052 318.6322 829.2886 314.8308 833.9368 312.8432 838.2683 314.6689 840.2179 317.5995 840.4093 317.7481 840.4476 317.7852 843.4425 317.0893 845.412 312.2061 845.1898 309.0208 847.1554 305.6189 848.4494 294.5868 852.2887 293.7077 855.0592 290.53 856.7962 286.3497 860.9881 282.4348 859.0396 279.0971 861.2002 274.2143 861.3541 274.0665 861.3925 274.0296 863.3224 269.3313 875.2957 268.0646 876.6979 259.3285 878.6981 257.1484 882.8374 258.8619 886.2795 263.3509 892.4567 263.1804 896.4835 263.8564 896.56 263.9307 899.4725 265.3447 900.4243 268.5316 900.4623 268.6799 894.3152 272.3316 891.8104 277.0288 892.9578 278.5498 893.4429 284.4019 892.6667 288.1773 894.1135 292.9949 896.755 295.5933 897.512 300.0759 899.4606 303.6725 897.6485 307.3714 902.5083 313.2337 907.068 316.1698 909.8292 316.9167 906.4778 322.5378 907.043 327.131 908.5701 330.5785 910.985 331.806 913.3926 336.2923 919.7134 341.3799 923.6633 342.7219 928.1534 342.7318 932.0247 344.9623 937.5135 344.6039 950.4413 347.2238 953.8577 346.8978 953.9728 346.898 Z" fill="#7fbf7b">
      <title>
        番路鄉 Fanlu Township
      </title>
    </path>
    <path d="M 552.3925 364.9055 552.4305 365.0167 550.3347 371.2302 552.535 378.2004 552.5729 378.3117 556.7926 378.994 560.8775 374.5654 564.4328 378.4669 564.6071 383.2447 570.0541 384.2276 570.1692 384.228 572.394 384.6435 577.2192 387.7348 583.0147 387.904 589.627 385.0764 589.6271 385.0394 589.7424 385.0027 592.9039 381.0517 595.3469 374.0614 601.8122 369.2333 604.7094 363.948 604.8634 363.8004 604.9019 363.7635 608.2116 361.22 608.3655 361.1094 609.9034 360.3372 616.7719 360.8056 622.2888 363.6762 631.2994 366.2995 635.053 368.5712 635.4283 371.0907 635.4663 371.2019 638.7987 373.25 638.8751 373.3613 644.2702 378.3788 645.405 383.3819 644.0034 389.2653 643.8495 389.3758 637.1304 389.9085 630.4019 393.1814 630.2484 393.1438 627.4816 394.0601 627.4698 397.504 625.7002 398.6089 620.0571 398.7005 620.4316 401.4421 618.6139 405.3611 618.4982 405.5089 621.2128 408.666 621.1676 410.6655 624.3776 414.9353 623.56 418.2653 626.9111 426.2016 629.7253 422.7673 633.9503 422.1522 638.8855 427.2424 643.3737 428.2944 646.4699 432.3413 651.1203 430.8386 653.8383 433.1806 651.5673 434.9506 652.8172 440.1021 652.2997 445.6551 651.1361 449.2063 647.4058 451.0453 647.2515 451.267 647.1363 451.2666 646.8678 451.1917 646.6378 451.0798 646.6004 450.7834 646.6394 450.5984 646.5252 450.3017 646.4494 450.0052 646.4886 449.7462 646.7195 449.5988 646.9891 449.3405 646.7981 449.0436 646.3762 448.9311 645.9915 449.152 645.8373 449.3366 645.6071 449.2988 645.4542 449.0761 645.3787 448.7055 645.3412 448.4462 645.1119 448.1121 644.6128 448.1105 644.2282 448.2943 643.7296 448.1445 643.4232 447.9213 642.6558 447.7706 641.8503 447.5457 641.2366 447.3584 640.3166 446.948 639.741 446.8349 638.8196 446.8318 638.164 447.6813 638.2002 448.348 638.2376 448.6444 637.8518 449.1985 636.6521 452.0089 637.0728 452.4917 636.9955 452.6396 636.6502 452.5643 635.6913 452.2648 635.4616 452.0789 635.0793 451.5962 634.8873 451.5955 634.2724 451.7786 633.8103 452.1843 633.3863 452.6643 633.1171 452.7745 632.5814 452.2542 632.238 451.6235 632.0469 451.3636 630.7795 451.4704 630.4329 451.7654 630.3911 452.7651 630.6208 452.9881 630.6958 453.5068 630.8481 453.8777 631.0768 454.3598 630.4226 454.802 629.7311 454.9107 629.5011 454.7988 629.4246 454.7245 628.7733 454.3149 628.3126 454.3133 627.9661 454.5714 627.6956 455.0889 627.541 455.3846 627.385 456.0877 627.0747 457.0124 626.1887 457.8611 625.4962 458.266 624.9579 458.4863 624.6507 458.4853 623.9596 458.4829 622.4226 458.8479 621.5356 459.9558 619.6887 461.0974 619.0411 459.6139 618.6619 458.2424 618.6244 457.983 617.7073 456.6837 617.1335 456.0892 617.0574 455.8668 616.8275 455.7549 616.7123 455.7545 615.79 455.9735 614.0255 455.4859 613.7566 455.522 613.1841 454.5572 613.1851 454.2609 613.3017 453.854 613.5332 453.5215 613.8056 452.4856 613.8835 452.1526 614.2703 451.3392 614.5408 450.8217 614.6961 450.3409 614.5834 449.5998 613.9338 448.7088 613.359 448.4105 612.9764 448.0019 612.7475 447.5937 611.7923 446.2572 611.6396 445.9975 611.4147 444.4414 611.2637 443.7002 610.0406 442.1036 609.7725 441.9175 608.736 441.8768 607.7757 442.0215 607.354 441.8349 605.9767 440.4599 604.4424 440.0471 604.175 439.6759 603.7528 439.6373 603.4074 439.5991 602.9865 439.1902 602.7573 438.8562 602.2241 437.6322 602.1095 437.4837 601.4949 437.5556 600.5383 436.6634 600.0785 436.4026 599.9633 436.4022 599.6164 436.8083 599.2698 437.1033 598.6158 437.4713 597.6563 437.3938 597.3877 437.3558 596.4668 437.2044 595.5843 437.0531 594.8953 436.4582 594.3206 436.1228 593.5541 435.7498 592.2889 435.2638 591.2927 434.7048 590.7565 434.3326 590.4121 434.0351 589.9917 433.4781 589.8028 432.6257 589.4585 432.2912 589.0366 432.1785 588.5408 431.251 588.5814 430.6216 588.7374 429.9556 588.7382 429.7334 588.5078 429.7326 588.0092 429.6197 587.7015 429.7667 587.5475 429.8772 586.8182 429.8376 586.3574 429.8729 585.5516 429.7589 585.4368 429.6474 585.2454 429.4986 584.5945 429.0148 584.0198 428.6795 583.5975 428.678 582.1792 428.0803 578.9995 426.2172 578.3089 426.1036 576.5076 425.2453 576.5067 425.5045 576.8511 425.802 577.2341 426.0626 577.1164 426.7658 576.5793 426.6528 575.2377 426.0924 574.6628 425.8311 571.3746 422.1529 570.2261 421.2599 569.7276 421.11 569.2288 421.0341 568.5762 421.0317 567.7707 420.8435 567.2719 420.7676 566.4665 420.5425 560.7177 417.929 558.8414 416.6259 558.6511 416.1808 558.1167 415.3641 557.8482 415.2891 557.3493 415.2502 556.1239 414.4309 555.6268 413.9106 555.4732 413.91 553.9754 414.0896 552.6363 412.8625 552.443 413.2321 552.2492 413.7498 551.7866 414.2666 551.0202 413.8934 550.4072 413.5578 549.9468 413.482 549.7548 413.5183 548.4472 414.1429 548.1386 414.5491 547.9436 415.3631 547.6361 415.473 547.4827 415.4354 546.8711 414.7295 546.6416 414.5064 546.1801 414.7269 545.7937 415.392 545.4086 415.7238 544.9094 415.759 544.142 415.645 543.6431 415.6061 543.3738 415.7532 543.637 417.2354 543.5594 417.4573 543.0591 417.7887 542.1379 417.7482 541.7548 417.5246 541.4099 417.3751 541.2179 417.3744 539.2145 419.2924 539.0567 420.4028 538.978 420.9209 538.8555 422.8461 538.6608 423.586 537.7731 424.8417 536.9637 425.6904 536.4245 426.1327 535.9631 426.3161 535.3873 426.3139 535.2724 426.2394 534.6601 425.7186 534.2781 425.2357 533.7809 424.7154 533.3582 424.8249 532.7008 426.0814 531.9318 426.4118 531.0887 426.0012 530.0919 425.6641 529.1327 425.5123 528.3643 425.6574 527.2499 425.9494 526.6353 426.0211 526.0986 425.8339 525.0609 426.1261 524.2541 426.2711 523.7171 426.158 523.219 425.8968 522.9517 425.5255 522.2242 425.0413 521.4923 425.668 521.0291 426.3327 520.4497 427.2563 520.2941 427.7741 520.2553 427.8851 520.098 428.8473 519.9435 429.1059 519.6349 429.475 519.3229 430.7329 519.1287 431.3246 519.0135 431.3242 518.6279 431.7671 517.8244 431.0604 517.6717 430.8376 517.2521 430.1323 517.1001 429.7244 516.7221 428.2046 516.2273 427.0917 516.0749 426.7949 515.8841 426.4979 515.6953 425.6825 515.5831 424.9044 515.5886 423.4972 515.475 423.0894 514.9799 422.0506 511.7309 418.4088 510.7732 417.8866 509.6236 417.3636 508.9327 417.3239 507.5487 417.8369 506.8945 418.2417 505.0111 418.8268 504.6265 419.0104 503.4737 419.3021 503.0896 419.3376 502.3989 419.2608 501.7494 418.4806 501.4849 417.4056 501.1818 416.3675 500.7252 415.3289 499.9234 414.2147 499.273 413.6567 498.3918 413.2088 498.276 413.3935 495.921 416.754 494.8811 417.6016 493.3034 418.5582 490.5342 419.8432 488.266 420.6488 482.9988 422.5903 480.1921 423.6529 476.7705 424.8611 473.6188 425.7741 472.5041 426.1029 470.2369 426.6491 468.2383 427.1964 467.2007 427.4514 466.3936 427.6703 466.1244 427.7802 462.3188 428.9867 461.9343 429.1332 454.0951 430.9154 453.6724 431.0247 451.9043 431.5358 450.0612 431.6022 448.1031 431.6311 447.5655 431.6659 445.9911 431.7333 444.2247 431.837 442.2661 431.977 441.268 431.9728 440.27 431.9315 437.5445 431.846 436.2394 431.8035 434.2037 432.017 432.2068 432.1567 429.3268 432.2926 425.8326 432.4259 423.7208 432.4909 421.033 432.5905 419.9962 432.6231 418.8827 432.6554 416.6556 432.7569 410.7765 433.9536 408.816 434.5376 411.005 425.4372 411.0053 425.3632 411.0442 425.2522 411.4415 422.1433 404.0611 415.4455 398.5216 418.0876 398.6887 414.9777 400.623 411.5422 403.2355 411.0722 406.721 403.9772 410.951 402.255 412.726 400.1149 409.3324 394.8046 409.2891 387.0277 410.5126 379.2193 414.0219 375.3831 413.9843 375.1978 409.3465 373.6964 405.2457 372.2714 406.8483 365.5756 407.411 359.6899 402.283 356.2236 405.8958 346.1666 398.9611 343.4701 401.0466 340.4426 413.2698 335.9777 413.3086 335.8668 413.3472 335.8299 410.2879 333.2985 408.7346 328.6257 408.8499 328.5892 409.2343 328.4428 419.8427 324.5261 420.2809 320.7507 427.0638 322.9646 430.7122 322.2765 432.794 320.0264 436.6229 322.0423 440.5814 320.6148 440.8793 322.8009 448.7272 318.0937 450.897 322.3244 450.9453 329.2126 458.2752 329.1689 458.1418 324.2802 464.7065 323.6406 467.246 321.9846 474.6906 321.978 474.8824 322.0158 475.5732 321.9816 480.0249 321.9256 487.2444 320.6586 487.3213 320.6218 487.475 320.5484 495.9959 320.101 498.8027 318.705 505.4047 318.2867 505.6345 318.3987 507.0773 322.3298 510.784 326.3438 522.6464 325.168 522.7616 325.1684 526.6392 324.702 526.6774 324.7392 526.7538 324.8506 529.3607 325.5272 534.9654 324.9932 535.0762 326.1416 536.3639 340.7741 538.1609 342.5585 539.9583 344.2318 540.4934 344.8263 540.761 345.0866 543.7193 344.2461 544.8966 347.5463 550.2029 355.1209 546.2837 356.3281 546.245 356.4021 546.2065 356.439 550.9834 361.9747 552.3541 364.9053 552.3925 364.9055 Z" fill="#1b7837">
      <title>
        水上鄉 Shuishang Township
      </title>
    </path>
    <path d="M 59.5157 449.4384 57.9738 450.5034 58.0835 451.4669 58.9615 452.3607 60.4196 452.5173 60.336 453.7018 58.9435 455.5084 56.9832 455.8674 55.7383 452.0088 52.3979 438.6578 45.918 430.5471 42.3674 420.4906 40.7506 414.6301 41.9507 412.8965 44.1841 418.3534 44.8243 420.505 45.0512 421.0988 45.0866 421.6175 45.4973 423.6196 45.9874 425.1778 46.5553 426.5513 47.3862 428.9263 55.9683 438.6785 59.5157 449.4384 Z M 113.0824 232.5079 121.0685 231.219 125.7814 232.2078 131.0932 228.904 134.6686 227.4423 140.5799 226.7339 145.2537 227.8703 144.7448 229.7562 145.7 230.465 144.9364 236.9046 151.2155 239.1605 156.8739 242.7462 158.4853 242.7178 163.1777 247.6313 168.6536 249.5121 171.8964 252.9364 171.4952 256.2672 167.3956 255.2455 163.7489 255.6334 160.3865 260.2815 161.3083 267.2857 163.0569 270.3317 165.0128 270.4903 166.6099 265.9438 171.9164 263.676 176.8676 263.2949 175.8913 266.5486 179.5428 272.5672 175.7709 274.8433 170.6633 275.742 168.4353 276.2486 169.2703 277.9566 171.0288 279.188 175.4265 281.9518 176.9558 282.9968 179.1721 284.712 182.3431 287.321 183.3356 288.2891 184.0987 289.1078 184.4037 289.4798 184.6704 289.8515 184.8988 290.186 185.2412 290.7433 185.3552 290.9661 185.5069 291.3002 185.6587 291.6342 186.0722 293.2659 187.4773 310.7897 186.2758 313.0794 187.7431 318.679 179.9084 319.8969 179.6489 325.4874 177.1127 326.1406 174.8726 328.8692 168.2874 333.204 166.9948 330.9011 161.2275 332.9441 160.5297 334.2736 160.3283 336.0501 160.0186 336.5668 157.2549 336.6631 156.0629 337.1011 154.4094 337.7218 154.2555 337.795 153.14 338.2704 152.5632 338.4895 152.1016 338.6722 151.4479 338.9279 151.0247 339.1108 150.217 339.4397 150.1017 339.4761 149.9092 339.5862 149.371 339.7684 147.6784 340.4999 135.9096 345.1762 134.8975 347.8 135.5851 348.3962 137.0782 349.071 137.9213 349.2977 138.495 349.6712 144.6839 354.9634 153.0314 358.5637 154.3515 362.9036 150.836 367.1804 153.5817 370.4911 155.2448 375.3142 155.0743 378.4981 153.0364 386.338 154.2056 390.2327 154.3937 390.9373 154.4311 391.1227 154.4673 391.5303 154.0772 392.7132 149.4939 395.577 148.6357 398.1276 143.7992 398.1015 142.9344 401.8741 137.0349 399.62 131.5655 395.961 130.2381 400.0643 126.868 405.6377 123.8119 402.9176 121.7537 393.2038 118.684 393.0017 117.9701 397.1824 116.5842 397.9154 115.5857 397.9839 110.6738 397.6974 106.861 399.9722 104.7393 401.849 104.6621 401.9227 104.5852 401.9593 104.3163 401.9948 104.1241 402.0308 103.5849 402.361 100.531 406.1953 100.4146 406.4169 100.3754 406.5648 100.3364 406.6757 100.2196 406.9713 100.1806 407.0822 100.1413 407.2301 100.1017 407.452 100.0217 408.0441 100.0204 408.2663 99.9814 408.3772 99.9808 408.4883 99.9412 408.7102 99.9009 409.0433 99.8617 409.1912 97.2875 416.4722 96.825 416.8029 95.6736 416.7594 94.6887 414.3838 92.8447 414.6326 90.5157 419.2115 92.2702 421.2582 92.6512 421.7788 89.1459 423.8699 83.9063 427.1732 79.9826 428.5581 75.3071 427.0873 73.4781 424.6697 63.4769 428.0935 62.8854 437.5704 59.463 438.5135 58.4012 436.2114 56.6704 430.054 55.3968 424.5288 55.2405 411.6406 54.5514 411.3033 53.9869 409.3373 53.5667 408.9646 53.4578 407.89 55.1909 406.9001 58.6737 402.032 55.7723 399.2378 55.7276 393.6456 59.772 391.2248 63.1269 388.5407 66.1759 385.6327 66.9066 385.3777 66.6827 384.2654 66.4593 383.042 62.8115 383.2803 59.9913 386.4489 57.4482 388.1377 55.4109 388.6444 54.1847 388.2669 53.9581 387.6361 54.6639 385.0479 54.9735 384.6053 53.1336 384.1502 49.6056 383.5743 48.9571 382.8669 49.4679 374.1672 52.073 368.3682 50.7793 366.398 51.9453 363.8865 53.7909 363.3047 54.4519 361.8272 55.1071 361.3496 56.4294 358.3205 64.7435 347.4068 58.501 345.1118 61.3167 335.944 58.8793 332.671 56.3698 335.2858 50.2945 337.3245 39.6378 341.8544 37.6637 338.1396 31.8907 340.9572 33.6275 345.8557 31.8535 347.3266 28.2116 340.0838 30.1572 335.5032 38.7598 327.8509 47.6787 325.1255 48.8952 320.4664 51.8048 315.0025 50.3914 313.8833 50.3181 313.2903 48.2563 311.5008 47.2704 309.4582 46.9461 305.8271 47.8768 304.129 47.9947 303.6483 48.5385 302.5034 48.8088 302.2087 49.0009 302.1728 49.2301 302.3593 49.3842 302.2491 49.4234 302.1012 49.5008 301.9906 49.5396 301.9167 49.5021 301.7684 48.931 300.9874 48.6629 300.9117 48.4721 300.7255 48.3964 300.5398 48.3983 300.2066 48.3244 299.7247 49.9239 301.8078 51.5803 300.7065 53.3536 299.2725 55.4373 297.2477 55.5539 296.9892 55.4814 296.2481 55.9082 295.4359 56.5257 294.8099 55.8747 294.5839 56.2703 292.5124 56.0461 291.4741 55.6253 291.2495 55.5119 290.9526 55.8966 290.7697 56.3575 290.6983 56.8194 290.4417 59.3352 286.6418 63.9563 283.7059 65.2816 280.0843 67.1236 280.0208 68.4966 274.7329 68.6562 273.6599 66.2385 267.0542 71.5008 265.9734 78.0974 266.3814 87.4505 267.8417 90.396 269.3767 90.9954 265.1213 78.7288 263.2742 75.6957 263.6643 72.2115 262.4223 70.8075 259.7108 39.2943 268.9717 29.1464 272.245 18.5167 272.5895 15.2219 271.7922 11.8216 269.3647 6.7173 263.1867 5.0571 258.5106 4.8199 253.2505 4.3915 222.1771 5.3356 218.2572 8.89 213.9827 13.196 212.3049 18.6402 212.7447 44.6544 218.0085 44.8563 216.2691 50.4961 216.0798 50.5211 211.7471 55.4893 214.9237 61.5017 216.625 71.4498 221.015 82.496 221.2262 85.963 218.6165 95.871 223.4127 99.3867 225.8025 101.7942 227.4455 102.7497 228.0804 103.8578 228.8643 110.5123 232.4936 113.0824 232.5079 Z" fill="#7fbf7b">
      <title>
        東石鄉 Dongshi Township
      </title>
    </path>
    <path d="M 296.8512 292.3043 296.8121 292.4523 297.1528 301.4898 295.7617 311.556 304.6178 313.2648 302.36 320.0309 302.2042 320.5116 302.1655 320.5855 300.6088 325.1701 300.6086 325.2071 295.7038 339.7743 300.428 347.0553 298.5598 352.5271 294.7008 356.9525 292.1395 354.8293 288.2238 355.0326 285.4544 348.3164 284.0937 351.939 280.7967 351.1823 283.0546 344.5645 275.4938 344.6388 272.409 347.6233 267.4583 347.599 265.0599 343.6247 261.7362 348.3485 257.0572 347.6958 257.0187 347.7326 262.0935 353.757 261.7596 367.0499 261.7587 367.2351 261.4686 379.4172 274.4445 378.9626 282.0576 376.2222 282.5827 386.7419 283.4468 390.6345 278.7976 391.5747 281.5495 394.0322 278.885 397.3151 275.4274 397.8908 274.1759 402.6618 270.9097 403.3495 268.5703 402.8936 269.0196 397.341 265.9205 395.2519 262.131 400.8992 255.7511 402.46 255.6358 402.4965 257.0477 404.2069 256.7134 409.7231 258.1925 413.3966 257.7002 419.8377 252.3089 423.2179 249.665 422.2049 244.637 429.6973 241.1409 430.1982 243.7584 436.5438 243.746 439.0249 243.7451 439.2101 241.4027 447.0121 231.8929 444.6311 226.6864 441.6422 222.3515 440.9536 219.9803 439.1269 219.9039 439.0524 215.8903 435.5879 215.2589 431.4 207.8027 425.5106 203.2868 422.7469 203.2488 422.6726 203.1728 422.5241 200.039 419.7675 203.5972 414.6384 206.5572 406.3585 203.6098 404.7139 205.972 400.6896 204.8372 397.4249 206.011 393.0982 204.673 392.0173 204.289 392.0523 202.3576 394.4124 198.5855 396.3926 198.4117 400.3171 194.3841 399.7406 190.2665 401.7189 188.0192 398.3372 187.9808 398.337 184.0021 395.7609 181.7188 399.304 178.3201 395.9161 178.2057 395.7674 173.8051 393.1518 174.0964 388.8576 172.9924 387.1112 173.589 383.1519 175.8143 383.3489 175.0339 378.4565 176.2938 372.4269 179.6875 369.3711 179.6113 369.2596 176.7801 367.5412 177.8311 364.7323 177.0946 358.8032 173.1669 361.2635 165.8947 357.4476 162.7368 352.2462 158.6 350.7057 156.509 346.9912 154.7439 339.7604 153.14 338.2704 157.2549 336.6631 160.0186 336.5668 160.2114 336.3827 160.2504 336.2718 161.2275 332.9441 166.9948 330.9011 168.2874 333.204 174.8726 328.8692 177.1127 326.1406 179.6489 325.4874 179.9069 320.1931 180.1389 319.8611 187.7431 318.679 186.2758 313.0794 187.4773 310.7897 187.4892 308.4937 187.6431 308.4204 187.7189 308.606 187.7952 308.6805 191.1592 311.1422 195.5311 311.6465 201.5695 308.9745 201.7999 308.9387 207.7524 308.0067 208.0598 307.9342 208.2892 300.6029 209.1822 298.5707 214.0703 295.6333 217.1786 295.5752 217.2553 295.5756 223.1874 298.6055 227.2292 303.6625 227.3052 303.8111 231.3931 307.3499 233.4717 306.0643 233.6263 305.8429 234.9694 298.1839 238.0644 293.1261 242.3197 293.8882 248.0835 292.2135 249.3218 290.1089 248.0764 285.918 249.1271 282.9606 249.1272 282.9236 248.4168 279.1797 255.5456 272.9568 260.6205 270.8341 260.7358 270.7976 267.1919 268.6445 267.3459 268.5342 273.4898 267.4534 283.0393 268.2036 286.2936 269.6266 285.5048 274.0667 286.2227 276.3662 297.9204 285.3474 297.0059 292.0458 296.9674 292.0827 296.9287 292.1566 296.8512 292.3043 Z" fill="#1b7837">
      <title>
        朴子市 Puzi City
      </title>
    </path>
    <path d="M 667.1776 4.948 669.9201 10.1046 668.6806 14.1 668.5263 14.3958 667.8971 19.282 670.1013 25.0293 673.0832 27.3722 674.4868 31.8577 678.1964 34.425 682.6641 39.661 686.5539 45.895 686.592 45.9692 686.6302 46.0064 690.4093 50.9438 696.3005 54.7028 704.8236 62.7287 707.2986 68.1062 712.0073 70.1947 713.8747 73.7556 711.1461 75.932 713.432 80.5682 713.6615 80.717 713.6998 80.7542 714.2285 83.3481 704.1999 90.6123 699.6687 92.9311 699.63 93.042 699.5764 97.8931 702.1673 103.0488 706.0773 103.2832 708.2187 105.1045 708.6586 111.6236 710.5968 117.1845 713.0011 120.8211 716.5626 122.2394 717.934 125.1691 714.8909 129.7147 710.4043 129.8119 709.5174 131.4386 710.4615 136.1076 709.8735 140.2534 708.9434 143.4353 705.3515 139.3505 698.5595 140.8845 693.3683 145.4601 690.07 145.5977 688.0642 149.2946 689.2079 151.4091 684.5098 157.5784 674.3436 158.7676 675.6238 154.2168 677.7449 150.5204 673.6121 147.8036 669.8967 146.4954 669.8066 150.6057 668.0406 151.2294 664.8662 148.6638 662.1421 149.0992 655.7841 146.7821 656.1756 144.3763 659.9446 141.0188 660.7236 137.3552 659.7021 133.1672 657.2041 134.8624 654.6377 134.0391 649.4983 134.3922 647.1789 128.5333 642.8904 126.7413 638.2467 127.9476 636.5481 131.3117 633.7997 127.6732 630.6925 128.0699 628.768 130.2111 628.6143 130.2847 625.3635 127.8293 615.7907 113.0201 615.7525 112.9829 615.7144 112.9087 613.959 110.5325 611.1899 112.9669 606.8564 113.2108 604.4485 111.0544 605.5328 108.0216 605.0907 102.9095 596.283 99.9526 596.2448 99.9155 592.7469 102.4211 589.0885 106.9259 585.5606 107.0613 582.9263 103.9781 581.5993 99.8626 580.1133 97.302 580.0756 97.1167 577.4532 90.8115 570.0673 87.1552 567.8955 83.518 569.0595 79.745 562.8563 77.7593 556.4886 78.8095 549.421 82.4492 543.9354 83.3542 543.7819 83.3907 543.7436 83.3906 537.6482 83.3303 531.9795 81.9754 530.0725 79.4128 530.9324 75.1203 535.8634 68.8067 530.4968 68.749 530.4978 68.4898 533.0464 63.6483 533.0853 63.5003 533.2011 63.2786 533.1422 58.6493 531.7681 57.0886 527.669 56.4433 515.5138 57.3959 515.3603 57.4323 512.1263 61.0119 510.9244 64.4882 507.9395 63.1803 502.0733 63.4534 496.7936 60.8401 498.962 55.3679 494.9087 52.8705 495.0245 52.6488 498.3494 45.5147 503.9214 41.9817 507.5792 37.8114 510.2821 32.7485 509.6204 25.5616 512.9857 27.5005 514.8368 24.5822 520.3338 20.4189 522.0479 23.166 522.3348 28.2776 523.6641 31.4306 527.2984 33.2222 528.2553 33.5592 531.5973 31.6464 538.724 32.3033 539.3405 31.4539 540.314 27.421 544.0416 24.8429 547.5219 26.8558 549.2607 23.1221 546.4669 22.0376 547.5902 18.894 551.0811 18.0554 556.3663 19.1122 558.7229 14.0845 561.6474 10.9477 565.8969 12.1855 569.4616 12.0876 570.2277 12.2015 572.68 12.3587 575.3319 10.3316 578.6606 11.8622 577.3095 14.5236 573.3525 17.1014 580.8989 18.1659 586.004 16.0736 589.8098 12.8655 595.3288 12.8483 601.5431 11.3151 602.9612 11.2831 603.2295 11.2841 612.5859 9.8728 616.5618 12.7383 618.5573 12.0046 620.6452 6.7162 627.31 7.8133 628.1134 8.2234 629.5675 8.895 629.7969 9.0439 630.4087 9.4534 632.8188 10.7578 636.7714 9.253 635.1023 4.2108 638.3325 1 645.0221 6.0592 651.4305 3.6366 656.1478 2.6154 659.4419 3.1449 663.0858 2.2311 667.1776 4.948 Z" fill="#1b7837">
      <title>
        大林鎮 Dalin Township
      </title>
    </path>
    <path d="M 581.5993 99.8626 582.9263 103.9781 585.5606 107.0613 589.0885 106.9259 592.7469 102.4211 596.2448 99.9155 596.283 99.9526 605.0907 102.9095 605.5328 108.0216 604.4485 111.0544 606.8564 113.2108 611.1899 112.9669 613.959 110.5325 615.7144 112.9087 615.7525 112.9829 615.7907 113.0201 625.3635 127.8293 628.6143 130.2847 628.768 130.2111 630.6925 128.0699 633.7997 127.6732 636.5481 131.3117 638.2467 127.9476 642.8904 126.7413 647.1789 128.5333 649.4983 134.3922 654.6377 134.0391 657.2041 134.8624 659.7021 133.1672 660.7236 137.3552 659.9446 141.0188 656.1756 144.3763 655.7841 146.7821 662.1421 149.0992 664.8662 148.6638 668.0406 151.2294 669.8066 150.6057 669.8967 146.4954 673.6121 147.8036 677.7449 150.5204 675.6238 154.2168 674.3436 158.7676 684.5098 157.5784 689.3361 159.3344 687.9885 161.0336 687.5148 165.2908 683.629 169.1667 681.6217 173.2338 681.5063 173.3445 681.3527 173.4181 679.2717 176.522 679.1568 176.4846 676.8309 172.2925 673.6854 172.5044 674.2733 168.618 671.9051 165.6847 668.3775 165.488 666.4922 167.3704 666.4065 170.1476 662.9264 178.8387 662.3359 183.4658 653.8063 188.0665 651.0297 192.6122 650.6745 195.6106 652.4146 202.8747 649.5339 204.0871 649.4188 204.0868 648.4433 209.0828 649.6161 213.938 648.3749 218.0444 645.3762 220.0711 639.5194 227.865 637.5231 228.3397 637.2162 228.3386 639.4306 231.4569 635.4706 234.0727 635.3505 235.5535 630.8112 239.2782 631.0325 241.8713 630.8788 241.9448 627.4222 243.1179 624.2703 244.9216 618.8263 243.9399 613.046 240.3646 610.9363 240.3202 609.3145 243.3511 606.3516 245.9329 605.1004 252.6313 603.5993 254.0332 598.915 255.1276 598.4549 255.0519 594.3536 254.0373 592.2523 251.5857 591.9856 251.0663 590.6267 244.877 590.5125 244.6174 590.3983 244.3948 590.3604 244.2465 587.9593 239.8681 584.0207 236.3728 581.5464 231.0682 583.3617 227.6308 583.3729 224.5202 579.0805 223.4677 577.6997 223.4256 576.5105 223.4583 569.7678 221.1376 567.5499 219.2407 567.4354 219.0922 562.5253 219.1481 561.3305 220.699 554.9316 218.8235 554.8932 218.8234 554.8167 218.786 557.2392 227.4977 554.504 230.6352 552.0511 230.0705 548.7645 226.7623 549.1559 224.6899 545.1814 220.7495 542.591 226.1464 540.9357 227.6955 542.8773 231.5912 542.9814 234.5172 540.3267 236.5809 533.3489 235.5544 529.7379 236.8737 529.0396 238.9078 529.0008 239.0187 528.8464 239.2774 526.6906 241.2318 521.0507 241.4321 513.603 242.8474 507.8651 248.4538 507.6712 248.9715 505.6165 254.4441 499.5893 255.4942 498.6179 248.8986 500.2242 240.4246 499.4757 235.6815 499.0931 235.4208 495.5009 231.9625 492.2015 232.0604 473.2184 240.2049 466.4321 239.2883 464.4909 235.5771 464.8 225.6537 466.0781 222.6594 470.7097 225.0854 474.7755 225.1391 481.2907 226.6098 483.5989 224.9526 484.4966 221.1049 487.1518 219.0047 485.5514 216.332 485.341 201.8515 485.2818 197.4814 475.6545 197.5165 475.6316 193.702 459.8291 193.8224 458.4866 193.8538 458.3717 193.8163 458.279 188.3722 458.2792 188.3351 458.2411 188.2609 443.6268 188.6444 443.2438 188.5316 441.6145 183.7846 441.6148 183.7106 441.6444 176.6375 442.3777 175.5296 445.1987 161.2469 450.3665 163.4904 452.3264 162.4987 449.5441 158.3765 449.2769 148.858 449.3539 148.7843 452.611 149.3533 461.3922 149.4638 461.753 145.651 457.9173 145.8943 464.3057 130.9595 468.252 131.7534 474.6605 130.5205 480.5934 133.1369 484.4511 136.8928 492.0024 137.5898 494.521 140.6735 499.8497 141.0281 499.8882 140.9912 499.9268 140.9173 500.2516 136.3636 492.2983 130.7029 491.1836 121.7736 491.3753 121.7743 497.5471 122.1323 505.0687 120.5327 511.8663 117.745 513.7545 115.3082 513.9088 115.0866 516.6512 109.9128 527.056 106.1758 527.3632 106.0659 531.2771 105.2293 534.4568 105.908 551.3678 105.1575 553.6664 105.6476 557.2285 96.2917 563.5121 97.389 563.788 95.3533 572.1708 99.0134 577.4577 100.1067 578.7506 103.037 581.5993 99.8626 Z" fill="#1b7837">
      <title>
        民雄鄉 Minxiong Township
      </title>
    </path>
    <path d="M 509.6204 25.5616 510.2821 32.7485 507.5792 37.8114 503.9214 41.9817 498.3494 45.5147 495.0245 52.6488 494.9087 52.8705 498.962 55.3679 496.7936 60.8401 502.0733 63.4534 507.9395 63.1803 510.9244 64.4882 512.1263 61.0119 515.3603 57.4323 515.5138 57.3959 527.669 56.4433 531.7681 57.0886 533.1422 58.6493 533.2011 63.2786 533.0853 63.5003 533.0464 63.6483 530.4978 68.4898 530.4968 68.749 535.8634 68.8067 530.9324 75.1203 530.0725 79.4128 531.9795 81.9754 537.6482 83.3303 543.7436 83.3906 543.7819 83.3907 543.9354 83.3542 549.421 82.4492 556.4886 78.8095 562.8563 77.7593 569.0595 79.745 567.8955 83.518 570.0673 87.1552 577.4532 90.8115 580.0756 97.1167 580.1133 97.302 581.5993 99.8626 578.7506 103.037 577.4577 100.1067 572.1708 99.0134 563.788 95.3533 563.5121 97.389 557.2285 96.2917 553.6664 105.6476 551.3678 105.1575 534.4568 105.908 531.2771 105.2293 527.3632 106.0659 527.056 106.1758 516.6512 109.9128 513.9088 115.0866 513.7545 115.3082 511.8663 117.745 505.0687 120.5327 497.5471 122.1323 491.3753 121.7743 491.1836 121.7736 492.2983 130.7029 500.2516 136.3636 499.9268 140.9173 499.8882 140.9912 499.8497 141.0281 494.521 140.6735 492.0024 137.5898 484.4511 136.8928 480.5934 133.1369 474.6605 130.5205 468.252 131.7534 464.3057 130.9595 468.3319 121.5698 464.2728 120.294 459.2166 119.051 454.6875 120.1802 446.9893 118.1113 445.4505 119.3269 441.6706 115.4967 443.5229 112.6529 439.8154 109.8969 440.8663 106.161 444.2343 107.5825 446.7388 104.6303 445.8636 103.0343 437.8126 102.9263 433.7167 101.3906 431.7766 97.7902 431.7768 97.7531 431.8546 97.4942 433.401 94.4641 435.5085 94.7323 436.2531 90.884 436.2538 90.7359 436.1882 88.1063 438.881 85.9327 440.6051 77.0521 439.8381 77.123 438.6865 77.4884 430.6426 75.8989 429.8296 77.7841 418.8748 75.5893 418.6835 75.5144 417.9238 73.8817 420.1257 69.9657 426.3245 63.6596 428.041 56.6678 428.0438 56.0012 428.046 55.4827 428.0506 54.4088 428.1676 53.9279 428.2853 53.2988 428.4791 52.7812 428.6729 52.3006 430.8565 52.6061 436.5823 49.2234 446.3215 48.5238 451.7271 48.3242 451.8813 48.1027 451.9969 47.955 453.0438 45.0708 457.5372 42.9787 456.5923 39.7529 458.9144 34.3557 463.1571 27.9295 466.3801 27.091 467.531 26.8365 473.0559 25.4519 474.2194 22.0867 476.6331 22.3187 476.7867 22.2453 490.5671 17.0423 487.6165 7.3648 488.5801 5.9985 494.3764 3.6887 497.1189 7.9214 497.1138 9.2175 497.3385 20.1802 502.4356 20.2745 507.9071 22.6292 509.6204 25.5616 Z" fill="#1b7837">
      <title>
        溪口鄉 Xikou Township
      </title>
    </path>
    <path d="M 464.3057 130.9595 457.9173 145.8943 461.753 145.651 461.3922 149.4638 452.611 149.3533 449.3539 148.7843 449.2769 148.858 449.5441 158.3765 452.3264 162.4987 450.3665 163.4904 445.1987 161.2469 442.3777 175.5296 441.6444 176.6375 441.6148 183.7106 441.6145 183.7846 443.2438 188.5316 443.6268 188.6444 458.2411 188.2609 458.2792 188.3351 458.279 188.3722 458.3717 193.8163 458.4866 193.8538 459.8291 193.8224 475.6316 193.702 475.6545 197.5165 485.2818 197.4814 485.341 201.8515 485.5514 216.332 487.1518 219.0047 484.4966 221.1049 483.5989 224.9526 481.2907 226.6098 474.7755 225.1391 470.7097 225.0854 466.0781 222.6594 461.6713 221.5673 461.5946 221.567 459.0926 223.6675 451.6072 224.9696 448.7342 233.2528 448.558 238.7329 447.2759 242.6159 444.8138 244.2721 439.0503 246.4698 435.8188 248.604 431.6458 246.5866 430.698 243.9162 430.5049 235.1387 429.3261 232.6895 423.9826 226.3712 417.6031 229.1213 415.6923 227.4466 411.7002 228.0589 411.6619 228.0587 411.5465 228.1323 409.9544 232.6063 404.8864 233.6212 402.2008 242.5343 398.3247 242.8876 394.5765 240.3159 391.2724 241.4494 391.1573 241.4488 385.6725 241.2394 374.8695 237.8583 373.3786 236.7036 368.3113 237.4955 362.8501 240.5816 358.6661 241.1551 358.4358 241.1911 358.0902 241.2636 356.9769 241.4437 351.8387 240.9388 347.6283 238.8827 342.325 232.5628 337.9614 230.5058 332.7863 229.7411 328.7306 227.5003 324.0874 227.8488 324.049 227.8487 323.8187 227.8846 323.2857 227.0304 323.5578 218.0327 324.4488 216.1482 328.245 216.4252 329.4652 193.2115 329.8487 193.2133 332.6864 193.3376 332.7633 193.3009 332.9172 193.1905 334.8162 188.9406 341.4182 187.8232 336.3322 184.5778 331.9655 183.3724 329.2515 181.4341 320.2845 179.8366 327.6767 173.6869 327.8692 173.5396 329.6809 171.5483 332.473 164.8955 326.4256 162.349 333.0978 145.9376 332.383 142.9716 327.0776 145.8724 322.3942 146.9614 324.3676 134.9721 328.3198 134.3981 332.6684 131.0484 332.6694 130.8262 331.2355 125.8201 330.8927 125.337 328.5284 122.5485 327.5004 120.9883 326.8909 120.1337 326.7004 119.8736 326.1669 119.1675 325.5299 115.9797 327.613 113.286 330.221 113.113 330.6814 113.0411 331.1419 112.9692 334.9767 112.8389 349.5627 117.6836 357.1231 116.1628 362.8892 112.8931 363.8898 112.0829 368.7377 108.3275 371.3593 105.1174 371.8839 99.2686 372.1327 86.5304 372.1745 85.7529 372.3839 81.7913 375.1161 79.5075 380.4378 81.0867 388.8696 81.6057 400.8376 80.0289 408.856 78.6197 409.4317 78.474 415.0763 76.3506 417.9238 73.8817 418.6835 75.5144 418.8748 75.5893 429.8296 77.7841 430.6426 75.8989 438.6865 77.4884 439.8381 77.123 440.6051 77.0521 438.881 85.9327 436.1882 88.1063 436.2538 90.7359 436.2531 90.884 435.5085 94.7323 433.401 94.4641 431.8546 97.4942 431.7768 97.7531 431.7766 97.7902 433.7167 101.3906 437.8126 102.9263 445.8636 103.0343 446.7388 104.6303 444.2343 107.5825 440.8663 106.161 439.8154 109.8969 443.5229 112.6529 441.6706 115.4967 445.4505 119.3269 446.9893 118.1113 454.6875 120.1802 459.2166 119.051 464.2728 120.294 468.3319 121.5698 464.3057 130.9595 Z" fill="#1b7837">
      <title>
        新港鄉 Xingang Township
      </title>
    </path>
    <path d="M 324.3676 134.9721 322.3942 146.9614 327.0776 145.8724 332.383 142.9716 333.0978 145.9376 326.4256 162.349 332.473 164.8955 329.6809 171.5483 327.8692 173.5396 327.6767 173.6869 320.2845 179.8366 329.2515 181.4341 331.9655 183.3724 336.3322 184.5778 341.4182 187.8232 334.8162 188.9406 332.9172 193.1905 332.7633 193.3009 332.6864 193.3376 329.8487 193.2133 329.4652 193.2115 328.245 216.4252 324.4488 216.1482 323.5578 218.0327 323.2857 227.0304 323.8187 227.8846 324.049 227.8487 324.0874 227.8488 328.7306 227.5003 332.7863 229.7411 337.9614 230.5058 342.325 232.5628 347.6283 238.8827 351.8387 240.9388 356.9769 241.4437 358.0902 241.2636 358.4358 241.1911 358.4731 241.4135 357.8897 243.1884 352.8483 246.6835 352.2271 248.3101 352.1881 248.458 351.525 250.8621 348.642 252.108 337.5596 251.094 337.5758 255.9083 339.9518 256.4748 341.3977 259.0738 348.1038 260.7711 349.5076 264.2216 339.0722 272.5428 340.8554 276.9209 340.855 276.995 339.6062 281.5812 339.4517 281.8027 339.2947 282.5796 339.3325 282.6909 339.3704 282.8022 339.3697 282.9503 339.3695 282.9873 327.4866 297.0785 320.0325 291.0443 296.9663 292.3049 296.8512 292.3043 296.9287 292.1566 296.9674 292.0827 297.0059 292.0458 297.9204 285.3474 286.2227 276.3662 285.5048 274.0667 286.2936 269.6266 283.0393 268.2036 273.4898 267.4534 267.3459 268.5342 267.1919 268.6445 260.7358 270.7976 260.6205 270.8341 255.5456 272.9568 248.4168 279.1797 249.1272 282.9236 249.1271 282.9606 248.0764 285.918 249.3218 290.1089 248.0835 292.2135 242.3197 293.8882 238.0644 293.1261 234.9694 298.1839 233.6263 305.8429 233.4717 306.0643 231.3931 307.3499 227.3052 303.8111 227.2292 303.6625 223.1874 298.6055 217.2553 295.5756 217.1786 295.5752 214.0703 295.6333 209.1822 298.5707 208.2892 300.6029 208.0598 307.9342 207.7524 308.0067 201.7999 308.9387 201.5695 308.9745 195.5311 311.6465 191.1592 311.1422 187.7952 308.6805 187.7189 308.606 187.6431 308.4204 187.5669 308.3089 186.0722 293.2659 185.6587 291.6342 185.3552 290.9661 185.279 290.8546 184.8988 290.186 184.6704 289.8515 184.4037 289.4798 182.3431 287.321 179.1721 284.712 175.3881 281.9516 171.0288 279.188 169.2703 277.9566 167.7422 276.7264 168.0123 276.4315 168.4353 276.2486 169.3573 276.0313 170.6633 275.742 174.3885 275.0582 175.7709 274.8433 179.5428 272.5672 175.8913 266.5486 178.5914 263.7855 178.5151 263.711 176.8676 263.2949 171.9164 263.676 166.6099 265.9438 165.0128 270.4903 163.0569 270.3317 161.3083 267.2857 160.3865 260.2815 163.7489 255.6334 167.3956 255.2455 171.4952 256.2672 171.8964 252.9364 168.6536 249.5121 163.1777 247.6313 161.9161 246.8098 161.9165 246.7357 158.4853 242.7178 156.8739 242.7462 151.2155 239.1605 144.9364 236.9046 145.9311 230.2811 146.2394 230.0235 147.9258 230.2919 150.695 228.9366 163.5523 234.894 164.5095 235.2324 167.0344 236.542 169.9791 238.2612 182.4211 243.1414 191.5198 241.819 193.2476 241.5317 203.2333 239.2877 208.9975 237.3548 213.3056 235.0809 219.6623 229.7438 222.8668 225.6866 223.618 221.2835 223.357 219.8009 223.2816 219.5413 223.0584 218.1699 219.9318 199.4153 219.8953 199.0448 218.6332 190.8171 216.5954 184.2888 216.1429 182.7681 214.9866 176.3925 216.3514 171.9926 216.5061 171.7342 219.2806 169.1561 227.0027 166.4551 235.4457 165.2759 239.316 165.8879 240.8777 168.0067 241.4115 168.6389 244.8695 175.026 249.4178 185.8623 249.646 186.2338 251.7787 189.2811 257.1638 193.9 261.1063 195.512 266.2508 194.5005 267.408 193.173 267.5634 192.7664 269.1584 188.1822 271.6646 177.6031 271.7833 176.863 273.4184 171.8716 275.0771 169.917 280.5394 166.4996 284.6824 166.2605 291.678 162.9614 298.6817 157.9217 298.8752 157.5523 297.752 151.8438 297.4486 151.1387 295.9434 145.1322 296.2067 138.2083 298.8677 135.0362 303.0202 132.686 310.5771 132.0554 317.204 133.4941 318.7363 133.7976 320.192 134.1007 320.7283 134.2143 321.0347 134.2898 322.8352 134.6686 324.3676 134.9721 Z" fill="#1b7837">
      <title>
        六腳鄉 Liujiao Township
      </title>
    </path>
    <path d="M 241.4027 447.0121 250.3698 450.4639 253.1325 450.8109 255.4965 454.1555 260.9603 459.6263 260.9597 459.7374 259.7344 466.8785 260.7404 473.1419 259.1748 479.2074 259.3124 482.4669 261.212 486.6238 267.3597 485.8764 269.0073 494.5129 276.728 494.1063 278.5246 495.8185 277.4352 498.7387 277.5506 498.7022 277.6658 498.7028 281.8449 500.0933 282.6649 505.2817 286.507 504.893 286.3911 505.0405 285.9651 505.7791 285.1902 507.2196 285.0734 507.5523 285.0334 507.8854 284.9943 508.0333 285.0677 508.7373 284.9461 510.0699 284.8671 510.5139 284.8643 511.1064 284.8236 511.5876 284.8607 511.847 284.9358 512.2177 285.2332 514.2558 285.4213 515.0714 285.7624 516.0359 285.9128 516.7032 286.102 517.2966 286.2151 517.7416 286.4042 518.335 286.5945 518.7062 286.9375 519.2634 287.2049 519.5609 288.1972 520.8618 288.6154 521.7526 289.0285 523.7173 289.2541 524.7182 289.5102 527.3857 289.5069 528.0893 289.3888 528.6812 289.1166 529.3835 289.0005 529.5681 286.268 530.74 284.844 531.3626 284.1898 531.6187 282.4976 532.0919 281.573 532.6799 276.612 534.026 275.4974 534.1687 274.0773 533.9766 273.1954 533.676 273.1187 533.6386 272.4671 533.3762 271.8929 532.9661 271.2068 531.8888 271.1329 531.2959 271.2153 530.1483 270.6056 529.1455 270.2623 528.6624 270.036 527.8096 267.0167 524.7581 265.8285 524.2709 262.6853 523.0334 258.921 523.1259 258.0759 523.1587 257.3453 523.3403 256.5758 523.6327 255.8827 523.9996 254.6492 524.9193 253.1819 526.5044 252.1753 528.1288 251.7882 528.7564 251.1285 530.1233 250.7408 530.862 250.159 532.0071 249.0747 533.8162 248.4542 535.0352 247.951 535.8103 246.7538 537.1375 245.357 539.982 245.5107 539.9827 249.0098 539.1855 250.4325 538.8593 252.0432 539.3487 257.0346 539.7068 256.7193 541.3346 256.7111 543.001 256.512 544.4443 256.3502 546.1099 256.2302 547.0721 256.1915 547.146 255.692 547.1805 255.461 547.2905 254.4958 548.2856 252.5271 550.2755 250.9445 551.86 250.3269 552.4865 249.2461 553.555 242.6447 560.2248 241.1395 561.6614 238.7834 564.2789 237.8589 564.7927 236.1269 565.4876 234.588 565.9612 232.3952 566.6167 231.4336 566.8711 229.8176 567.4184 227.7012 568.1483 225.1619 568.9501 221.9604 571.5631 221.575 571.8203 221.4208 571.9306 220.9585 572.1875 220.535 572.3705 218.4208 572.656 217.3457 572.5764 215.8481 572.4577 215.0034 572.3793 212.7382 572.1455 212.2773 572.1431 211.3943 572.0275 210.6283 571.5792 209.6315 571.2037 208.2097 571.3075 206.9782 571.7455 206.4387 572.076 203.4983 576.1714 203.1106 576.873 202.217 578.831 201.7876 580.162 200.8914 582.6384 199.0654 586.6284 198.5257 586.9959 197.2891 588.3967 196.359 589.9842 194.9676 591.6064 194.7354 591.9385 194.3857 592.7143 193.9191 593.7858 193.3362 595.0789 192.5971 596.8525 192.1314 597.7759 191.083 599.9183 190.1507 601.9131 189.9569 602.2454 189.4901 603.3539 189.3337 603.8715 189.1778 604.3151 189.0983 604.8331 188.8595 606.4242 188.7024 607.09 188.5831 607.867 188.5001 609.0516 188.4202 609.6437 187.9909 610.9375 187.5247 611.935 187.3689 612.3415 186.8649 613.2276 185.5064 615.8868 185.0801 616.5881 184.4598 617.6588 183.7625 618.7661 182.6003 620.6116 181.36 622.6788 180.7403 623.6384 180.159 624.5982 179.7327 625.2995 178.5331 626.9226 177.1389 629.026 176.6367 629.5418 176.3284 629.7254 174.8267 630.347 174.4415 630.5301 172.9007 631.2626 171.8993 631.7387 170.8589 632.2887 169.1622 633.4647 167.6963 634.5678 166.6544 635.414 165.6907 636.0014 165.2287 636.1841 164.767 636.2927 163.8433 636.5841 162.1098 637.4266 162.0328 637.4632 161.3882 635.8304 161.2741 635.6076 161.1204 635.6067 160.6585 635.7524 158.7319 636.779 157.0368 637.6216 154.5744 638.238 153.6913 638.1221 152.0399 637.9651 149.9674 637.5096 149.0086 637.1712 147.0548 636.0867 146.2519 635.3417 144.8335 634.7416 144.5249 634.9621 143.451 634.586 140.1967 632.4205 138.4362 631.1148 136.3322 629.4 133.5787 627.0149 131.513 625.3372 131.0541 624.9274 128.2234 622.6159 125.3534 620.4894 125.2381 620.4888 124.9311 620.413 123.4728 620.1088 122.3216 619.8432 121.4007 619.616 120.8974 620.3168 120.7417 620.6863 119.6959 622.2358 117.4906 625.0381 116.907 626.368 116.7114 626.9965 116.5535 627.7733 116.6613 629.144 116.9636 630.0715 117.498 630.704 118.1104 631.1517 119.373 632.1215 122.008 635.0985 122.6175 636.0647 122.9199 636.9922 122.951 638.3255 122.7167 639.0278 122.4451 639.5077 122.0967 639.9872 121.7887 640.0966 120.7889 640.2392 119.5205 640.3063 115.1425 639.8748 113.5293 639.7548 109.462 638.7324 108.7708 638.6545 108.54 638.6903 107.8873 638.6126 106.9668 638.3112 106.4301 638.086 104.3223 637.0744 103.366 636.2914 101.7225 634.7269 100.1167 633.2737 99.6197 632.8266 98.6704 630.7845 97.3076 627.1108 96.7031 625.2558 96.6273 625.0702 96.1024 622.7343 96.1083 621.6604 95.4192 621.2121 95.2284 620.9889 95.0763 620.6918 94.8495 620.0239 94.6599 619.5785 93.8625 617.8705 92.9115 616.1617 92.1134 614.6019 91.7709 614.0075 91.2376 613.1898 90.8177 612.706 89.4046 611.1797 86.768 608.6097 83.7837 606.4079 81.4865 604.9877 79.7243 604.089 77.5393 603.2248 77.0023 603.0737 78.1654 601.1916 83.7253 603.1118 89.535 601.5892 91.777 599.1207 92.1504 594.1606 94.518 589.8041 101.9899 586.3649 106.1995 582.3149 107.7124 579.657 108.1148 576.3264 108.1561 575.8082 107.9393 573.3258 104.4056 566.3071 107.3767 556.9176 107.3389 556.8062 107.3013 556.6579 105.3404 550.0553 100.9845 545.9204 100.6781 545.7706 100.4568 544.1029 110.6189 533.124 112.1296 530.7994 117.8383 519.314 123.7054 506.8665 125.4027 505.4686 134.2534 502.1471 135.9515 500.601 139.6714 494.4369 143.9056 492.5713 141.5035 489.3735 146.4912 483.031 150.8831 480.3513 154.1807 474.0366 155.9513 473.2314 156.0667 473.195 162.6407 471.7119 171.0322 475.0524 174.8196 477.7388 174.9342 477.8505 175.1652 477.7406 178.3029 472.4986 184.9591 469.9414 187.9483 471.068 194.718 461.364 187.5651 456.1421 188.9838 449.1134 188.5696 447.5559 191.7005 443.4987 193.4898 439.0272 193.5287 438.9163 197.2674 436.0843 203.691 433.7475 200.9014 431.2149 194.7658 429.8498 194.8823 429.5912 198.3581 425.6098 203.133 422.7831 203.2488 422.6726 203.2868 422.7469 207.8027 425.5106 215.2589 431.4 215.8903 435.5879 219.9039 439.0524 219.9803 439.1269 222.3515 440.9536 226.6864 441.6422 231.8929 444.6311 241.4027 447.0121 Z" fill="#7fbf7b">
      <title>
        義竹鄉 Yizhu Township
      </title>
    </path>
    <path d="M 298.5598 352.5271 298.6459 358.6379 296.7907 361.3693 298.8512 363.8974 298.8369 366.897 300.5046 371.3488 301.0335 373.1289 310.8306 371.1017 313.5551 371.2257 313.6321 371.189 313.7088 371.1894 318.5513 369.842 326.9967 369.5483 329.1162 367.7066 336.3751 366.6664 337.8647 368.2657 344.3134 368.1473 348.4913 369.3886 350.4009 371.4711 355.2281 373.4559 358.9548 372.6581 361.6322 374.7441 365.9632 376.1338 368.4908 377.4043 371.4642 382.0096 376.1395 383.697 379.7577 381.4172 383.4406 381.878 386.2334 383.9641 389.1201 382.1623 400.7623 379.4361 404.707 381.453 408.4521 376.3959 409.3465 373.6964 413.9843 375.1978 414.0219 375.3831 410.5126 379.2193 409.2891 387.0277 409.3324 394.8046 412.726 400.1149 410.951 402.255 406.721 403.9772 403.2355 411.0722 400.623 411.5422 398.6887 414.9777 398.5216 418.0876 404.0611 415.4455 411.4415 422.1433 411.0442 425.2522 411.0053 425.3632 411.005 425.4372 408.816 434.5376 407.9319 434.793 406.1256 435.2295 404.6272 435.4822 401.8249 435.396 401.2113 435.2452 400.0596 435.2401 398.2937 435.1954 397.679 435.3038 397.1025 435.4494 394.7186 436.2536 391.4497 437.5353 390.7185 437.9395 390.3721 438.1231 389.9872 438.3436 389.6791 438.5644 389.4863 438.7487 388.8296 439.6716 388.4826 440.0034 386.9432 440.8483 386.708 441.9582 386.6265 443.0318 386.584 443.9574 386.2738 444.6596 385.0397 445.9133 383.2654 447.757 382.4937 448.6423 379.9453 451.8898 378.7096 453.4766 378.4009 453.8456 376.7799 455.727 376.3553 456.2435 375.698 457.2775 374.5771 458.9389 374.3838 459.2343 373.6502 460.1568 371.3335 463.0719 370.4477 463.6605 370.1014 463.8441 368.68 463.9858 367.0668 464.1267 364.7225 464.5975 363.7232 464.8152 363.223 465.0351 362.4912 465.5503 362.3785 464.9943 362.3429 464.3646 362.2696 463.5866 362.2322 463.3642 361.7329 463.399 361.4252 463.5087 360.0014 464.2058 359.5781 464.4261 358.6934 464.7554 358.4622 464.9395 357.7315 465.1954 357.0394 465.4145 356.0002 465.9652 355.3847 466.2216 354.9233 466.3677 354.1527 466.9567 353.8438 467.3256 352.9195 467.9509 351.6904 468.0193 351.3065 468.0176 350.692 468.0518 349.086 466.5632 348.514 465.7088 347.3294 464.4443 346.336 463.3659 346.1838 463.0689 346.1849 462.8097 346.9945 462.1098 346.3087 460.9216 345.3091 461.2133 344.5841 460.2101 343.0543 458.907 341.2882 458.8618 339.791 458.8178 339.2154 458.7411 338.3318 458.8481 338.2544 458.9959 338.2153 459.1439 338.1361 459.6619 337.9433 459.8462 336.9041 460.3969 335.9421 460.8368 335.0956 461.2402 333.0925 462.6382 332.5917 463.0061 332.2444 463.3749 332.1668 463.5596 331.856 464.3359 331.8538 464.8173 332.0355 467.04 332.0726 467.3365 332.1094 467.6699 332.1459 468.0774 332.1451 468.2626 331.6838 468.3715 330.7222 468.7374 330.7582 469.256 330.9802 471.0716 330.9758 472.0344 331.0051 473.9972 330.9604 475.3672 330.9947 476.2561 331.1372 478.6638 331.1733 479.1454 331.2858 479.7385 331.3966 480.7018 331.6954 482.5178 331.6935 482.9251 331.0016 483.07 328.8494 483.4673 326.7742 483.828 326.1984 483.7883 323.2828 483.1821 322.0938 482.8803 321.1349 482.6536 320.6743 482.6144 320.0595 482.6856 319.6759 482.6097 319.2947 482.0154 318.9492 481.9768 318.4117 481.9742 317.9125 481.9719 317.374 482.1545 314.2231 482.6211 313.2626 482.7276 312.6095 482.7986 311.8405 483.0172 310.7265 483.086 306.58 482.9552 303.1241 482.9388 301.9721 482.9333 300.7818 482.9276 300.2409 483.6286 299.4667 484.921 299.081 485.2895 298.6956 485.5839 298.0772 486.4327 297.6904 487.0233 297.5739 487.282 297.6109 487.5784 296.4915 488.7951 296.3751 489.0538 296.2969 489.3497 295.9876 489.7926 295.2536 490.7149 293.3623 492.7425 292.6672 493.5539 291.5877 494.4375 288.9611 497.6466 288.5357 498.2741 288.1872 498.8649 287.8365 499.9371 287.4434 501.8238 287.2077 502.9337 286.8187 503.9687 286.507 504.893 282.6649 505.2817 281.8449 500.0933 277.6658 498.7028 277.5506 498.7022 277.4352 498.7387 278.5246 495.8185 276.728 494.1063 269.0073 494.5129 267.3597 485.8764 261.212 486.6238 259.3124 482.4669 259.1748 479.2074 260.7404 473.1419 259.7344 466.8785 260.9597 459.7374 260.9603 459.6263 255.4965 454.1555 253.1325 450.8109 250.3698 450.4639 241.4027 447.0121 243.7451 439.2101 243.746 439.0249 243.7584 436.5438 241.1409 430.1982 244.637 429.6973 249.665 422.2049 252.3089 423.2179 257.7002 419.8377 258.1925 413.3966 256.7134 409.7231 257.0477 404.2069 255.6358 402.4965 255.7511 402.46 262.131 400.8992 265.9205 395.2519 269.0196 397.341 268.5703 402.8936 270.9097 403.3495 274.1759 402.6618 275.4274 397.8908 278.885 397.3151 281.5495 394.0322 278.7976 391.5747 283.4468 390.6345 282.5827 386.7419 282.0576 376.2222 274.4445 378.9626 261.4686 379.4172 261.7587 367.2351 261.7596 367.0499 262.0935 353.757 257.0187 347.7326 257.0572 347.6958 261.7362 348.3485 265.0599 343.6247 267.4583 347.599 272.409 347.6233 275.4938 344.6388 283.0546 344.5645 280.7967 351.1823 284.0937 351.939 285.4544 348.3164 288.2238 355.0326 292.1395 354.8293 294.7008 356.9525 298.5598 352.5271 Z" fill="#7fbf7b">
      <title>
        鹿草鄉 Lucao Township
      </title>
    </path>
    <path d="M 1025.9786 256.9039 1024.402 258.9378 1024.3251 259.0117 1024.0177 259.2704 1020.1398 260.9668 1016.8713 265.0713 1013.8247 273.5829 1011.977 276.8753 1008.4687 285.9045 1009.0751 289.905 1008.6396 297.0883 1004.981 304.1915 1003.0203 306.2245 999.2579 307.2172 991.7369 307.2767 989.1193 311.5302 983.4764 312.63 980.9759 315.7728 980.3835 324.2518 978.0345 328.3576 977.8422 328.5794 973.3787 334.5325 957.7886 339.0183 954.6713 343.2334 954.05 346.713 953.9728 346.898 953.8577 346.8978 950.4413 347.2238 937.5135 344.6039 932.0247 344.9623 928.1534 342.7318 923.6633 342.7219 919.7134 341.3799 913.3926 336.2923 910.985 331.806 908.5701 330.5785 907.043 327.131 906.4778 322.5378 909.8292 316.9167 907.068 316.1698 902.5083 313.2337 897.6485 307.3714 899.4606 303.6725 897.512 300.0759 896.755 295.5933 894.1135 292.9949 892.6667 288.1773 893.4429 284.4019 892.9578 278.5498 891.8104 277.0288 894.3152 272.3316 900.4623 268.6799 900.4243 268.5316 899.4725 265.3447 896.56 263.9307 896.4835 263.8564 892.4567 263.1804 886.2795 263.3509 882.8374 258.8619 878.6981 257.1484 876.6979 259.3285 875.2957 268.0646 863.3224 269.3313 861.3925 274.0296 861.3541 274.0665 861.2002 274.2143 859.0396 279.0971 860.9881 282.4348 856.7962 286.3497 855.0592 290.53 852.2887 293.7077 848.4494 294.5868 847.1554 305.6189 845.1898 309.0208 845.412 312.2061 843.4425 317.0893 840.4476 317.7852 840.4093 317.7481 840.2179 317.5995 838.2683 314.6689 833.9368 312.8432 829.2886 314.8308 824.4052 318.6322 815.8135 317.1282 812.3557 318.6743 808.697 323.5896 798.5615 325.3025 797.3018 322.855 793.0763 324.3987 788.169 322.7187 788.0925 322.6444 787.9776 322.57 785.3366 320.0815 783.2994 321.2979 778.6644 318.3593 778.9053 314.5457 776.2999 313.1311 775.6941 310.241 772.9706 309.8999 768.029 306.9233 764.5767 306.543 762.7216 311.1296 762.683 311.2406 760.0202 316.4544 747.9542 309.0868 745.5828 306.4506 738.4802 307.7256 734.1985 302.3801 731.746 301.2988 729.8099 294.368 732.1174 292.5975 730.7854 288.9643 733.9335 288.3443 734.3268 285.1237 729.6947 281.6287 727.2756 282.2509 723.4853 279.5731 724.2681 274.4651 717.3693 272.111 715.6485 270.2541 714.9458 274.1773 712.2002 281.2049 712.0648 287.7961 712.1026 287.9814 712.3622 290.9077 707.7912 292.5229 700.4004 287.8708 696.212 289.8203 686.9337 287.6059 682.6356 287.8514 677.2436 282.2421 669.982 285.3292 666.2348 281.3545 662.9131 276.3813 661.3397 276.4872 658.4 272.0706 656.4102 270.4717 652.7276 270.3113 649.3473 271.522 645.2101 269.6195 641.7191 269.5336 635.3169 268.0676 631.2254 264.0541 628.3991 260.3412 628.2103 259.4518 629.8745 255.1988 630.0437 250.5704 627.4222 243.1179 630.8788 241.9448 631.0325 241.8713 630.8112 239.2782 635.3505 235.5535 635.4706 234.0727 639.4306 231.4569 637.2162 228.3386 637.5231 228.3397 639.5194 227.865 645.3762 220.0711 648.3749 218.0444 649.6161 213.938 648.4433 209.0828 649.4188 204.0868 649.5339 204.0871 652.4146 202.8747 650.6745 195.6106 651.0297 192.6122 653.8063 188.0665 662.3359 183.4658 662.9264 178.8387 666.4065 170.1476 666.4922 167.3704 668.3775 165.488 671.9051 165.6847 674.2733 168.618 673.6854 172.5044 676.8309 172.2925 679.1568 176.4846 679.2717 176.522 681.3527 173.4181 681.5063 173.3445 681.6982 173.3081 691.0633 170.968 692.5301 167.9731 695.3687 167.7599 698.4429 165.8069 700.8567 166.5181 702.3611 163.7084 708.536 163.5055 712.911 162.4822 716.9364 162.902 719.4327 161.7246 724.2467 167.6645 726.3226 166.0044 729.1535 168.346 734.4891 166.6957 738.7447 167.1158 742.028 172.1249 748.1685 170.6248 752.5232 176.5628 756.7862 174.5014 757.2143 172.3548 762.5474 171.5556 764.6518 173.2652 768.6423 172.536 770.7437 175.3194 770.7436 175.3565 770.6283 175.4672 774.1133 177.2177 774.0683 179.5506 777.75 179.598 784.779 175.8035 791.796 176.2675 798.093 173.5815 806.2922 176.5294 806.3689 176.5296 806.4456 176.5298 811.0628 170.9134 814.2475 170.3295 818.9719 167.6017 819.9018 163.975 820.1703 163.9757 827.1185 161.3278 831.8715 162.229 835.3269 160.6826 838.6007 155.1733 846.1473 158.3404 853.3032 164.4318 853.4562 164.5803 855.485 166.1037 856.2415 170.2903 859.8773 173.299 862.777 179.3794 872.8906 184.0703 876.2945 188.004 883.7248 192.2806 886.0916 196.9893 891.3462 197.0018 898.2948 194.2407 907.7851 186.8933 911.314 186.7162 915.232 184.0588 921.4622 176.4072 921.2254 179.4063 922.7077 185.4458 921.7404 189.258 923.3832 192.1501 926.1409 193.8227 928.6253 197.7536 928.5332 204.7895 931.4367 210.0544 936.6485 212.2507 939.7488 215.294 944.116 217.9327 949.1661 224.1278 953.6134 225.2482 956.217 227.5867 960.3959 228.6693 965.2177 234.3081 970.3874 238.7255 973.608 239.6208 980.0951 237.5601 985.2838 232.5341 990.6127 234.1739 994.6809 233.1079 997.3224 235.9275 1000.8909 235.4529 1009.5212 235.9136 1013.2822 234.9949 1013.9665 238.366 1013.2306 242.1789 1013.5653 247.8824 1016.8248 248.5921 1020.0399 252.6345 1022.8385 253.7135 1025.9786 256.9039 Z" fill="#1b7837">
      <title>
        竹崎鄉 Zhuqi Township
      </title>
    </path>
    <path d="M 1060.4593 123.4639 1067.4613 132.5484 1070.1361 138.2927 1071.6203 145.2571 1075.3755 147.0037 1078.2795 153.526 1075.1319 155.4096 1072.1397 156.0713 1073.0538 159.9612 1071.0534 163.8092 1067.6782 164.1 1059.9645 167.346 1053.7448 171.4831 1052.0118 175.7389 1053.9611 179.7046 1053.8413 182.5188 1050.4549 189.2158 1049.7184 193.7695 1046.915 195.8014 1046.7228 196.0603 1044.953 199.242 1042.9837 206.9042 1040.7384 218.7504 1038.3537 222.4494 1038.0317 231.0773 1034.269 233.0333 1029.1522 241.3193 1028.2569 248.6129 1028.5557 253.1314 1029.8912 257.1702 1025.9786 256.9039 1022.8385 253.7135 1020.0399 252.6345 1016.8248 248.5921 1013.5653 247.8824 1013.2306 242.1789 1013.9665 238.366 1013.2822 234.9949 1009.5212 235.9136 1000.8909 235.4529 997.3224 235.9275 994.6809 233.1079 990.6127 234.1739 985.2838 232.5341 980.0951 237.5601 973.608 239.6208 970.3874 238.7255 965.2177 234.3081 960.3959 228.6693 956.217 227.5867 953.6134 225.2482 949.1661 224.1278 944.116 217.9327 939.7488 215.294 936.6485 212.2507 931.4367 210.0544 928.5332 204.7895 928.6253 197.7536 926.1409 193.8227 923.3832 192.1501 921.7404 189.258 922.7077 185.4458 921.2254 179.4063 921.4622 176.4072 915.232 184.0588 911.314 186.7162 907.7851 186.8933 898.2948 194.2407 891.3462 197.0018 886.0916 196.9893 883.7248 192.2806 876.2945 188.004 872.8906 184.0703 862.777 179.3794 859.8773 173.299 856.2415 170.2903 855.485 166.1037 853.4562 164.5803 853.3032 164.4318 846.1473 158.3404 838.6007 155.1733 835.3269 160.6826 831.8715 162.229 827.1185 161.3278 820.1703 163.9757 819.9018 163.975 818.9719 167.6017 814.2475 170.3295 811.0628 170.9134 806.4456 176.5298 806.3689 176.5296 806.2922 176.5294 798.093 173.5815 791.796 176.2675 784.779 175.8035 777.75 179.598 774.0683 179.5506 774.1133 177.2177 770.6283 175.4672 770.7436 175.3565 770.7437 175.3194 768.6423 172.536 764.6518 173.2652 762.5474 171.5556 757.2143 172.3548 756.7862 174.5014 752.5232 176.5628 748.1685 170.6248 742.028 172.1249 738.7447 167.1158 734.4891 166.6957 729.1535 168.346 726.3226 166.0044 724.2467 167.6645 719.4327 161.7246 716.9364 162.902 712.911 162.4822 708.536 163.5055 702.3611 163.7084 700.8567 166.5181 698.4429 165.8069 695.3687 167.7599 692.5301 167.9731 691.0633 170.968 681.6982 173.3081 681.5063 173.3445 681.6217 173.2338 683.629 169.1667 687.5148 165.2908 687.9885 161.0336 689.3361 159.3344 684.5098 157.5784 689.2079 151.4091 688.0642 149.2946 690.07 145.5977 693.3683 145.4601 698.5595 140.8845 705.3515 139.3505 708.9434 143.4353 709.8735 140.2534 710.4615 136.1076 709.5174 131.4386 710.4043 129.8119 714.8909 129.7147 717.934 125.1691 716.5626 122.2394 713.0011 120.8211 710.5968 117.1845 708.6586 111.6236 708.2187 105.1045 706.0773 103.2832 702.1673 103.0488 699.5764 97.8931 699.63 93.042 699.6687 92.9311 704.1999 90.6123 714.2285 83.3481 713.6998 80.7542 713.6615 80.717 713.432 80.5682 711.1461 75.932 713.8747 73.7556 718.4665 76.5102 718.5047 76.5473 720.9155 77.999 731.3035 78.3639 740.0405 79.5752 746.0603 79.2598 753.4918 81.2074 755.619 87.9535 760.2545 89.115 760.3311 89.1523 764.1695 87.534 765.9717 87.4281 766.1251 87.4285 769.0765 87.6222 771.9426 90.8522 778.0014 90.388 783.7025 94.4036 783.7787 94.589 787.9463 98.6371 791.0509 98.9791 795.9138 101.2515 802.589 99.7515 809.8872 94.6608 809.9255 94.6609 814.1017 95.6721 814.1399 95.7092 818.7802 95.2402 823.3772 96.6226 827.2813 99.114 831.9963 99.3856 838.8639 97.5148 844.4923 100.4548 849.7531 97.1723 854.1663 95.48 859.8349 97.7161 861.8711 96.0177 862.0633 95.833 863.2961 93.392 866.9452 90.5865 867.4144 86.8474 873.1284 86.1578 873.1667 86.1579 880.104 86.9154 895.7951 82.1756 902.6585 81.6731 904.9615 80.4564 908.909 80.9839 909.1771 81.0956 911.6282 82.1752 910.89 86.4692 908.3496 90.8703 908.5335 94.3147 911.9443 94.878 911.5101 100.3948 906.589 106.3087 904.1348 106.4882 902.0208 108.7793 902.1672 111.7792 902.1671 111.8533 902.1285 111.9643 903.1585 114.1886 906.5374 112.0856 906.5759 112.0486 906.7296 111.9009 909.451 112.2774 911.975 115.1347 912.3138 117.9129 914.5723 119.5474 922.8917 119.9735 926.9204 118.7234 931.4203 112.4008 939.2858 109.8628 944.9607 109.6898 948.6825 108.4017 952.1614 113.2232 953.4162 118.1882 955.7092 121.7852 958.046 122.7899 965.9859 121.3992 969.3634 119.7767 974.0877 115.7128 979.611 114.687 985.8653 112.3664 985.9037 112.3665 986.1722 112.2929 996.7925 112.4248 1006.028 114.9606 1014.3882 114.0505 1014.875 120.3839 1017.478 122.6847 1020.2022 121.7269 1026.4885 122.7753 1027.2506 125.4059 1032.1211 124.9332 1032.2747 124.8224 1040.2187 120.837 1046.847 123.737 1055.8215 122.4562 1056.2433 122.457 1060.4593 123.4639 Z" fill="#7fbf7b">
      <title>
        梅山鄉 Meishan Township
      </title>
    </path>
    <path d="M 915.3579 641.2847 910.3337 637.1259 907.4296 630.0465 901.2772 632.143 898.4184 638.876 901.1364 643.2889 898.5536 646.949 900.0072 649.7667 901.7936 658.3619 898.0516 664.6854 900.1927 669.4303 895.7649 673.1231 896.9072 677.7175 893.6369 679.3392 891.9772 682.4088 895.925 686.9728 896.5293 691.6031 898.3211 697.9024 898.2664 704.9751 902.0606 709.6867 902.0983 710.0201 906.9643 716.7337 907.3093 717.1419 910.4854 723.4072 908.4376 728.1054 909.7417 729.3304 910.3433 735.2936 913.6336 742.2258 910.9166 753.8841 910.8321 757.2907 912.2108 759.5897 912.5944 759.9609 916.2386 763.487 916.6603 764.0434 917.6195 764.8972 916.4263 765.5241 914.5803 765.8532 913.1214 764.9982 909.8951 763.6948 908.7048 763.0256 908.4747 762.8028 908.1716 760.8396 907.903 760.6168 907.0578 760.3556 906.4049 760.0949 906.2126 760.1315 905.1728 760.9438 903.479 761.9397 903.209 762.3464 902.6313 762.8265 899.2098 762.8556 898.5186 762.5207 897.8667 761.8156 896.3689 761.1826 894.1426 759.6962 893.2599 759.0647 892.0309 758.5804 890.8008 758.5405 890.0332 758.0202 889.1493 757.9071 887.4195 757.8659 885.8455 756.9365 885.1548 756.4164 884.502 756.1186 883.9252 756.1913 883.5776 756.857 883.077 757.2261 882.3472 756.9652 881.8095 756.7787 881.3094 756.9256 880.4265 756.3681 879.2368 755.5506 878.1978 755.9924 877.5438 756.176 876.2365 756.321 875.1993 756.0222 874.3542 755.7239 872.699 756.6457 870.8906 757.3449 869.8891 758.1571 867.7702 760.0405 866.4622 760.4446 864.9234 760.8852 859.9607 762.3541 858.8458 762.3884 857.4995 762.7183 856.4968 764.0119 855.3386 766.0086 854.7219 766.6366 853.8003 766.227 853.1464 766.3734 851.5697 766.5546 850.4558 766.1815 848.4193 765.7691 847.6494 766.1745 846.1081 767.6147 844.9925 767.9081 843.3775 768.0522 842.8388 768.2359 842.647 768.0873 842.2257 767.4567 841.1146 765.9357 840.5018 765.0454 840.1951 764.7113 837.5091 762.7418 832.7825 761.989 830.9759 761.9103 829.1716 760.9428 824.6032 758.5239 823.2209 757.8907 821.2645 756.2933 820.6527 755.0326 820.351 752.81 819.8166 751.3644 819.8569 750.661 820.1296 749.2545 820.2078 748.7733 820.0985 746.4402 819.6037 744.5873 819.2985 743.6978 818.8415 742.0672 816.8129 738.7291 814.4355 736.538 813.5137 736.2393 813.2062 736.2385 812.9365 736.46 812.9729 737.2377 812.8141 739.1629 812.6575 740.2363 812.5403 740.9396 812.2682 742.0868 810.9938 744.3052 810.4548 744.637 809.9535 745.2282 809.6832 745.6718 809.2187 746.8926 809.1392 747.8922 809.1335 750.0029 808.9771 751.0023 808.7441 751.8904 807.6256 753.2945 807.1239 754.0338 805.8858 756.9929 805.6144 757.8809 804.9549 760.1009 804.5301 760.8403 803.2514 764.614 803.0188 765.3169 802.441 765.7597 801.5941 766.1647 801.0168 766.4224 800.3622 766.7909 800.0925 767.0124 799.707 767.4186 797.856 769.5243 797.2395 770.0411 796.6616 770.5209 795.3492 772.4799 795.079 772.8494 793.9236 773.6239 793.539 773.6969 792.6934 773.6205 791.5766 774.321 791.1137 774.8752 790.8033 775.9112 790.6838 777.4661 790.2959 778.7241 789.6771 780.0555 789.5224 780.3883 789.328 781.2024 789.018 782.0903 788.6319 782.6817 788.3638 782.3107 788.058 781.6433 787.6753 781.0127 786.5244 780.1208 785.5647 779.5997 784.8742 779.0423 784.2223 778.411 783.6087 777.8908 783.2252 777.5195 782.5727 777.1473 781.7268 777.182 780.766 777.0682 776.9614 776.5391 775.7327 775.9802 774.6965 775.3107 773.7378 774.4563 773.2005 774.1215 772.4707 773.8973 770.6648 773.5218 768.3616 772.2933 767.134 771.364 766.4427 771.1399 765.4417 771.6554 764.3635 772.2448 763.6702 772.7242 762.4742 774.202 759.7345 777.749 759.5036 777.8224 757.3503 777.9643 756.8502 778.0739 754.5802 778.6598 754.0416 778.7694 753.7353 778.3611 752.5062 777.9502 751.6221 777.9106 749.5847 777.8306 748.7395 777.6059 748.4333 777.1607 748.1659 776.5674 747.9748 776.1595 747.6315 775.2327 747.3245 775.0467 746.4787 775.0442 745.7506 774.2274 745.2535 773.3372 744.3724 772.2607 742.7591 771.7746 742.3752 771.5883 740.7614 771.2873 739.8798 770.3959 739.3833 769.2835 739.2692 768.8759 739.0016 768.3566 738.7342 767.7634 738.583 766.9112 738.4681 766.7627 737.7415 765.4645 736.9743 764.9068 733.5583 763.0451 732.5226 762.3013 731.563 761.78 728.1472 759.9182 727.2247 759.8784 725.8823 758.8375 725.4224 758.3547 724.3844 758.3886 723.231 758.4221 721.4259 757.8612 720.5424 757.6363 718.8143 757.0386 717.8164 756.5171 716.9724 755.9591 716.2813 755.6607 715.9355 755.6226 715.3196 755.8799 714.5889 755.9888 714.0125 755.9129 713.3586 756.022 712.0914 755.5738 711.5538 755.3869 709.7866 755.0112 708.9449 753.7125 708.4142 751.2669 706.8403 750.5584 704.2286 749.8097 701.7651 750.8759 701.3401 751.5411 700.8763 752.3543 698.7267 751.3478 697.8837 750.4934 696.7726 749.3049 696.3531 748.2297 695.3185 747.1526 694.8207 746.5585 694.3632 745.3351 694.1345 744.7049 693.2146 743.8502 692.6017 743.1818 691.8727 742.7351 691.1453 741.807 690.4161 741.4344 690.3017 741.1378 690.0735 740.3594 689.9209 739.9887 688.8837 739.7632 687.3937 736.8701 687.9712 736.5757 688.2024 736.3912 690.0516 735.101 690.4369 734.806 691.9763 734.2184 692.3228 734.0344 694.2477 733.0776 695.6342 732.1933 696.058 731.8984 696.6748 731.3078 698.2945 729.6095 699.9131 728.2445 701.1081 727.1373 702.4962 725.7345 706.7437 719.4155 706.9768 718.6015 707.1319 718.1577 707.2885 717.2324 708.1035 714.6798 708.7607 713.4598 708.727 711.9044 708.8466 710.4976 709.3101 709.7585 710.047 707.5759 709.5874 707.0561 708.8577 706.8687 707.4763 706.1608 706.4862 703.1583 704.9892 702.5241 704.8747 702.2645 704.839 701.3757 704.9574 700.3762 704.8063 699.5241 704.0033 698.1884 703.8897 697.6326 703.8552 696.3735 703.7811 695.4845 703.6675 694.9287 702.9035 693.4081 702.5979 692.8146 701.9464 692.2201 701.4861 691.9224 700.2988 690.6226 699.6922 687.9545 699.7328 687.2511 697.9707 685.394 696.8981 684.2797 695.7475 683.5355 694.7891 682.7918 694.1001 681.9009 693.4485 681.3434 692.9913 680.0829 692.5711 679.2669 692.3029 679.0069 691.5355 678.6341 690.1568 677.1115 689.8511 676.5551 692.0891 673.6738 692.5521 673.0827 692.9377 672.6396 693.0934 672.0106 693.0565 671.529 692.8279 670.8988 692.7521 670.5653 692.5618 669.9722 692.2173 669.5267 692.0649 669.1189 692.0665 668.6005 692.3382 667.7496 692.0345 666.5637 691.5397 665.0439 690.8566 662.3014 690.8581 661.82 691.552 661.1187 692.9014 659.7158 693.7881 658.7928 694.1366 657.9422 694.2158 657.1648 694.0636 656.6829 693.6821 655.83 694.3044 653.425 694.1524 652.869 694.0383 652.4984 693.8091 652.0533 693.4661 651.1634 692.8559 649.6803 692.7429 648.9763 692.6312 647.828 692.5932 647.6798 692.5171 647.4574 692.3658 646.6792 692.8299 645.7179 693.1011 645.0152 694.4897 643.3162 694.9132 643.0583 695.8384 642.0984 696.5353 640.3972 699.5374 638.7773 699.6159 638.2591 699.5794 637.6294 699.5822 636.7407 699.6235 635.8151 699.741 635.0748 699.8985 633.8533 700.0164 633.0019 699.8672 631.5573 699.715 631.0754 699.3754 629.0747 699.1849 628.5556 698.4997 626.5168 698.08 625.5527 697.3927 624.1804 696.9732 623.1792 697.0137 622.5128 696.0216 620.3248 695.9093 619.3617 696.1809 618.5108 696.2216 617.8074 695.7646 616.5099 695.4631 614.6203 695.4654 613.8797 695.166 611.3236 695.206 610.8424 695.0606 608.1757 694.8321 607.5454 694.7944 607.3231 694.2221 606.0252 694.0324 605.284 693.8064 603.8391 693.8471 603.0986 694.1194 602.0256 694.6974 601.4719 694.7769 600.6205 695.2393 600.1776 696.5483 599.293 698.1638 598.6685 700.0875 597.7488 701.818 597.1987 702.7434 596.0907 703.0908 595.5734 703.631 594.7974 703.8622 594.5759 704.8635 593.7644 705.4803 593.0997 706.635 592.3627 707.0187 592.512 707.7096 592.7364 708.4035 591.9238 708.6735 591.5914 709.1754 590.7783 709.1782 589.8525 709.1422 589.0747 709.3355 588.668 709.6853 587.373 709.7283 585.8549 709.8457 585.1516 710.4234 584.672 711.4245 583.9345 711.6937 583.8242 713.2703 583.3107 714.0796 582.4615 714.465 582.0553 715.12 581.4278 715.814 580.5782 715.8142 580.5412 716.1227 580.1348 716.4697 579.7285 716.9329 578.9893 717.3204 577.8796 718.6347 575.1803 719.558 574.7388 720.4815 574.2232 723.1736 573.1575 723.4453 572.2325 720.8832 568.4105 720.7327 567.3732 720.3499 566.9277 719.6223 566.1848 719.2401 565.5541 718.7845 563.7753 718.5941 563.2192 718.0969 562.5141 717.4841 561.9197 716.8325 561.4733 716.2583 560.8421 715.7613 560.0629 714.9568 559.3568 713.9223 558.5019 713.1956 557.4628 712.9674 556.7215 716.0119 553.4351 721.12 553.5989 726.5078 550.1714 730.1161 550.9229 736.0322 550.6074 735.9682 546.2745 741.8116 544.5145 750.3139 539.7255 752.5863 537.5473 755.6355 532.3719 756.5287 528.9676 761.3813 524.2787 768.4525 522.7067 768.5679 522.633 771.6845 520.6051 779.3485 512.9614 783.3583 507.2698 785.6622 507.3874 787.4597 510.0586 790.3043 509.0667 795.4474 510.1548 796.8332 508.9736 800.4008 510.4276 804.5882 509.9205 805.771 512.7751 809.7546 516.6741 810.8861 524.4537 813.7179 528.3125 817.0154 530.395 823.8716 537.5231 824.0253 537.4865 834.0919 536.0315 835.6238 537.7759 838.8882 537.8584 840.718 543.3067 848.2028 545.2513 852.0833 544.7797 857.8037 545.8309 860.6719 550.9113 865.9374 549.5542 871.0129 547.3077 875.661 547.0968 881.6881 548.4074 884.8794 547.0078 886.4246 543.2714 892.3414 542.4707 889.5844 538.9092 886.3762 531.1992 886.3865 526.8296 889.2386 522.5778 893.7812 517.9596 893.5933 516.1817 896.9831 511.7829 897.7642 506.119 901.4229 501.5726 905.9953 500.4723 905.9061 505.9156 909.5044 511.0341 911.107 515.6296 915.7875 517.788 918.785 516.9431 923.8882 519.0282 926.4511 523.7368 927.6663 529.9977 927.9731 530.2206 930.8878 532.1526 932.1476 535.6733 932.0619 539.7835 933.5191 540.8606 934.2774 545.4171 930.6168 550.8156 927.2344 551.845 923.1458 559.6124 922.2142 564.054 922.1755 564.1651 922.1754 564.2021 921.5886 569.0148 922.5357 575.0159 924.8754 576.6134 926.6326 581.098 926.1551 588.6512 926.4357 600.872 922.6959 606.8997 921.2722 607.8964 919.4932 613.1878 918.5165 620.4436 919.2743 625.2593 917.3782 631.291 917.449 633.9944 915.3579 641.2847 Z" fill="#d9f0d3">
      <title>
        大埔鄉 Dapu Township
      </title>
    </path>
    <path d="M 1193.3049 67.1015 1199.8573 69.6269 1201.5413 72.1099 1199.1994 75.3292 1199.0074 75.6252 1198.8153 75.9953 1199.885 79.4035 1204.936 88.1115 1210.2218 92.7091 1213.096 93.8231 1211.9029 98.1916 1208.9111 99.4476 1206.1079 103.6662 1206.6808 105.7407 1206.5653 106.1479 1204.416 108.1823 1203.1045 115.5133 1207.1227 122.8129 1205.7022 124.4778 1206.3505 127.7744 1203.6974 134.6965 1204.9973 138.2159 1203.0385 141.2134 1202.9617 141.2874 1200.9279 142.5813 1196.7423 147.9463 1193.5566 150.498 1196.773 154.8343 1194.6217 158.2388 1191.8215 158.9763 1191.4762 159.1241 1189.2897 159.64 1188.9028 162.6392 1184.6767 169.263 1183.5949 176.1867 1184.2725 187.223 1188.296 190.3754 1190.9383 194.0075 1194.1911 200.5287 1198.9398 207.2738 1200.5852 210.8307 1204.4166 214.9083 1202.2267 218.1277 1203.335 221.9061 1203.5209 227.4241 1209.1527 234.0958 1208.4969 237.6131 1210.4854 243.6143 1210.6739 246.7252 1208.7476 254.4998 1208.5933 255.2773 1210.0846 259.9819 1213.0345 263.9844 1212.7561 273.4642 1214.2501 275.6877 1215.7751 285.2063 1220.5662 290.1364 1223.5917 295.8053 1225.313 301.2506 1231.0647 305.3297 1236.1275 307.7787 1240.3897 304.672 1249.1386 304.3837 1252.8208 306.0904 1260.113 304.2452 1265.6389 303.7313 1268.8996 304.8079 1278.2631 303.6674 1283.5568 305.8563 1286.3556 308.932 1294.5262 312.8262 1300.3963 314.1634 1307.687 314.5016 1309.568 313.2807 1309.8387 310.0962 1313.4109 304.3216 1313.6425 302.1369 1316.9053 300.1762 1322.0855 299.809 1322.6996 299.6613 1331.3329 299.8514 1337.7027 299.3735 1339.8894 300.1893 1343.919 298.8582 1354.3556 299.3447 1359.9579 298.9028 1364.9835 301.1639 1365.2521 301.2751 1370.4712 299.6108 1375.9961 300.9461 1380.83 303.3178 1385.8945 304.6897 1393.2222 308.8396 1395.9853 308.0627 1399.8235 304.3977 1405.5024 304.7325 1411.7173 310.4739 1417.8561 314.3264 1421.885 315.5122 1428.2935 314.7357 1432.8986 312.4774 1439 311.1081 1436.3902 315.1071 1426.6042 319.8087 1416.5498 322.362 1409.4887 322.9529 1407.1099 321.4711 1403.2724 321.6923 1399.5873 326.024 1400.6222 330.7273 1393.9054 334.1693 1388.9547 334.6862 1381.3956 331.7582 1379.0162 332.1647 1376.4457 330.3121 1367.7726 330.9013 1366.8894 332.234 1362.2846 331.5285 1357.5638 332.8225 1354.7998 334.821 1350.2683 341.3364 1348.1957 341.7797 1344.5894 339.5561 1341.135 340.332 1341.556 342.7392 1338.5613 345.1447 1335.0303 345.5872 1332.2236 354.8065 1328.3082 356.1374 1324.6221 358.9126 1324.6207 361.3197 1321.3164 367.3908 1318.4334 374.6842 1315.209 375.1266 1312.8308 372.7181 1309.68 378.1597 1304.42 380.3411 1298.3179 379.189 1298.6618 381.4111 1295.5889 384.6307 1292.134 385.0726 1288.9826 390.4398 1282.725 391.5832 1279.4208 395.6541 1275.9671 394.3553 1271.6286 395.5369 1269.5572 393.7577 1267.365 398.9033 1262.7985 397.196 1254.0802 402.5581 1253.5028 404.4092 1253.7324 405.2611 1254.0685 416.0745 1250.993 421.108 1245.8839 424.6584 1244.4947 432.6559 1242.1495 436.2457 1239.5372 438.0578 1237.8835 441.0928 1235.0404 443.1639 1237.2635 447.1653 1235.8401 450.1635 1231.7676 453.048 1230.5728 457.8239 1227.6534 459.1171 1228.9938 462.6734 1222.2724 464.7775 1219.5014 471.1811 1220.1897 474.0702 1219.5292 481.772 1218.0654 486.3623 1213.8006 488.6909 1212.4526 492.5407 1209.2276 491.8708 1205.4999 494.5701 1202.6978 493.4191 1196.3237 493.0048 1191.4425 496.8135 1186.0284 496.363 1183.7603 498.5081 1179.0807 493.8368 1177.0453 493.9825 1174.8541 495.9425 1174.8153 496.3128 1174.815 496.4979 1177.2294 500.6853 1172.6933 504.6052 1170.6155 507.9354 1170.7277 510.4166 1170.6882 511.3423 1167.6535 512.0052 1164.8085 514.5939 1162.7281 519.8497 1157.2763 518.5097 1154.8544 520.3582 1155.5012 525.2471 1149.3535 527.3499 1149.7295 533.6086 1147.878 539.7533 1144.3815 540.7485 1140.3787 547.0384 1132.4292 546.176 1129.9732 544.5433 1126.1698 545.1675 1122.94 547.644 1115.1098 543.8928 1108.9969 547.9573 1101.7437 543.7991 1097.3277 543.1259 1096.3638 545.5315 1098.0096 549.4222 1095.5833 553.7511 1098.1149 556.0508 1098.3065 556.3844 1097.9178 559.4574 1094.4916 564.4513 1088.3033 567.071 1087.1859 569.2911 1088.9857 572.9599 1087.9827 575.6987 1084.2147 577.9146 1083.5574 580.6539 1079.7482 584.5731 1070.1815 585.4095 1067.2598 586.7378 1066.4057 592.254 1064.0966 594.7313 1059.9463 595.502 1053.063 599.4898 1049.4036 605.2603 1049.4034 605.3714 1049.3258 605.8527 1050.5085 610.7057 1050.1943 614.7785 1042.3216 612.8394 1033.1064 609.6756 1025.6122 611.0324 1018.5468 608.9828 1016.9289 611.3498 1009.3126 616.3348 1005.1921 621.4373 1002.5257 629.616 1001.6683 636.0577 1003.727 644.6527 1000.0292 649.4226 999.6019 651.8658 996.8697 653.9713 986.5335 653.729 980.3498 652.3096 975.6281 649.9302 966.679 647.9495 963.647 646.2028 956.8075 646.1516 956.7745 643.4854 951.9368 641.6978 948.6667 643.6164 946.0235 639.7967 943.5257 639.9024 941.6511 636.0472 938.3818 637.6325 933.6955 636.9558 932.9664 636.5469 932.3947 634.3978 928.5518 634.6486 925.8286 632.4578 923.0916 636.5251 922.6671 637.3759 921.1245 639.9275 915.3579 641.2847 917.449 633.9944 917.3782 631.291 919.2743 625.2593 918.5165 620.4436 919.4932 613.1878 921.2722 607.8964 922.6959 606.8997 926.4357 600.872 926.1551 588.6512 926.6326 581.098 924.8754 576.6134 922.5357 575.0159 921.5886 569.0148 922.1754 564.2021 922.1755 564.1651 922.2142 564.054 923.1458 559.6124 927.2344 551.845 930.6168 550.8156 934.2774 545.4171 933.5191 540.8606 932.0619 539.7835 932.1476 535.6733 930.8878 532.1526 927.9731 530.2206 927.6663 529.9977 926.4511 523.7368 923.8882 519.0282 918.785 516.9431 915.7875 517.788 911.107 515.6296 909.5044 511.0341 905.9061 505.9156 905.9953 500.4723 904.9385 492.3971 902.3398 486.9105 899.1957 484.8665 898.4713 482.6429 900.2576 473.9818 900.6937 467.9837 898.7386 466.6461 898.865 461.7583 901.4092 457.3945 906.4444 455.0361 908.6061 449.9307 908.3913 443.0795 905.9886 436.001 908.2137 436.7467 908.3288 436.784 908.3672 436.7841 913.1653 437.2024 918.7635 440.3627 921.6118 437.1103 921.3543 432.0365 919.9789 428.9968 916.6474 425.2121 916.469 419.1756 916.5842 419.1389 922.1475 420.5585 927.8621 423.0523 930.2468 421.0208 933.3709 414.288 935.6289 399.7396 940.6638 396.8251 942.5888 394.1259 946.6753 385.8026 951.7525 380.8141 954.3037 372.2282 960.2973 369.3523 967.1682 369.0702 968.3232 367.2951 965.9148 362.5871 963.1563 360.1744 962.1664 356.3211 957.4175 351.386 954.542 350.0099 954.0487 347.3055 953.9728 346.898 954.05 346.713 954.6713 343.2334 957.7886 339.0183 973.3787 334.5325 977.8422 328.5794 978.0345 328.3576 980.3835 324.2518 980.9759 315.7728 983.4764 312.63 989.1193 311.5302 991.7369 307.2767 999.2579 307.2172 1003.0203 306.2245 1004.981 304.1915 1008.6396 297.0883 1009.0751 289.905 1008.4687 285.9045 1011.977 276.8753 1013.8247 273.5829 1016.8713 265.0713 1020.1398 260.9668 1024.0177 259.2704 1024.3251 259.0117 1024.402 258.9378 1025.9786 256.9039 1029.8912 257.1702 1028.5557 253.1314 1028.2569 248.6129 1029.1522 241.3193 1034.269 233.0333 1038.0317 231.0773 1038.3537 222.4494 1040.7384 218.7504 1042.9837 206.9042 1044.953 199.242 1046.7228 196.0603 1046.915 195.8014 1049.7184 193.7695 1050.4549 189.2158 1053.8413 182.5188 1053.9611 179.7046 1052.0118 175.7389 1053.7448 171.4831 1059.9645 167.346 1067.6782 164.1 1071.0534 163.8092 1073.0538 159.9612 1072.1397 156.0713 1075.1319 155.4096 1078.2795 153.526 1075.3755 147.0037 1071.6203 145.2571 1070.1361 138.2927 1067.4613 132.5484 1060.4593 123.4639 1060.3897 119.2051 1058.5187 114.573 1053.77 111.232 1053.6994 107.6028 1056.1639 101.2744 1056.6311 97.0165 1053.9955 91.198 1054.6515 88.681 1050.408 81.6376 1050.2551 81.3781 1050.2973 79.1563 1054.3703 73.6084 1047.5141 70.1897 1046.3328 66.0771 1040.7438 61.6235 1044.4739 54.8531 1048.273 52.3785 1051.576 48.6068 1060.0817 50.9542 1066.5244 49.1503 1070.1716 45.6383 1078.0296 45.5398 1080.249 47.9135 1082.5895 46.4359 1085.0488 42.5884 1089.2673 41.1507 1093.4817 42.4163 1098.0766 45.5711 1106.9312 45.5103 1112.0618 49.4432 1112.5975 50.1106 1117.1549 52.8946 1118.7964 57.7112 1120.4828 57.8247 1121.3644 57.863 1126.231 59.0919 1129.9841 61.6523 1130.9394 63.8386 1134.8085 65.8066 1141.9364 67.4456 1148.2629 66.4541 1154.1273 67.0542 1161.0189 73.914 1166.3863 73.5503 1171.598 75.1121 1172.5948 75.0762 1175.7384 74.9689 1178.4645 71.3801 1186.4383 71.2783 1188.9714 68.6149 1193.3049 67.1015 Z" fill="#d1e5f0">
      <title>
        阿里山鄉 Alishan Township
      </title>
    </path>
    <path d="M 203.2488 422.6726 203.133 422.7831 198.3581 425.6098 194.8823 429.5912 194.7658 429.8498 200.9014 431.2149 203.691 433.7475 197.2674 436.0843 193.5287 438.9163 193.4898 439.0272 191.7005 443.4987 188.5696 447.5559 188.9838 449.1134 187.5651 456.1421 194.718 461.364 187.9483 471.068 184.9591 469.9414 178.3029 472.4986 175.1652 477.7406 174.9342 477.8505 174.8196 477.7388 171.0322 475.0524 162.6407 471.7119 156.0667 473.195 155.9513 473.2314 154.1807 474.0366 150.8831 480.3513 146.4912 483.031 141.5035 489.3735 143.9056 492.5713 139.6714 494.4369 135.9515 500.601 134.2534 502.1471 125.4027 505.4686 123.7054 506.8665 117.8383 519.314 112.1296 530.7994 110.6189 533.124 100.4568 544.1029 100.6781 545.7706 100.9845 545.9204 105.3404 550.0553 107.3013 556.6579 107.3389 556.8062 107.3767 556.9176 104.4056 566.3071 107.9393 573.3258 108.1561 575.8082 108.1148 576.3264 107.7124 579.657 106.1995 582.3149 101.9899 586.3649 94.518 589.8041 92.1504 594.1606 91.777 599.1207 89.535 601.5892 83.7253 603.1118 78.1654 601.1916 77.0023 603.0737 76.4273 602.8482 74.6252 602.2084 74.3949 602.1701 73.5132 601.8317 73.0904 601.8664 71.3222 602.0414 65.2117 602.3768 64.6009 601.7067 64.4109 601.3353 64.3005 600.483 63.961 599.3701 63.0489 597.6243 62.2451 597.1013 61.401 596.9112 60.6713 596.87 60.2869 596.9048 60.1333 596.904 59.0956 596.972 58.7497 597.0071 58.4807 597.0055 57.9811 597.0397 57.6358 596.9636 57.2905 596.8876 56.1365 597.1401 55.6751 597.2115 53.6863 595.6447 52.962 594.6777 52.8484 594.3808 52.8127 593.8992 52.6998 593.4912 52.6251 593.1204 52.6275 592.7131 52.5192 591.4904 52.4076 590.8602 52.4088 590.638 52.4498 590.1939 52.4912 589.6757 52.5317 589.3056 52.5721 588.9725 52.6918 588.1956 52.9284 587.123 53.0067 586.8642 53.0496 586.0868 53.1283 585.754 53.1294 585.5688 53.0167 585.1238 52.9418 584.7901 52.7126 584.5665 52.3687 584.2313 52.0631 583.9332 51.6811 583.5607 51.4137 583.2999 51.2229 583.0766 50.7645 582.6296 50.4971 582.3688 49.3886 581.3996 48.7767 580.9146 48.4327 580.6164 47.7829 580.0571 47.4002 579.7957 46.75 579.3105 46.4817 579.1978 46.0607 578.9361 45.8308 578.8237 45.5248 578.5997 41.0475 575.6111 39.5943 574.4917 38.7146 573.8199 37.8734 573.1485 36.9554 572.4765 36.3816 572.0658 35.8846 571.6555 34.9663 571.0206 34.1642 570.2382 33.744 569.8284 33.1702 569.4177 32.6723 569.1556 31.8292 568.8173 30.8329 568.4041 30.2578 568.2156 29.6831 567.953 28.3037 567.3524 27.4606 567.0141 26.5795 566.6016 26.2347 566.4514 25.6598 566.2258 25.238 566.1122 24.1294 565.1799 22.1796 563.613 21.0327 562.6804 16.9032 559.4342 15.0687 557.8679 10.4809 554.2115 8.7226 552.7568 6.5436 551.0032 5.0524 549.8463 2.5295 547.7945 1 546.6373 1.0004 546.5632 2.7611 541.1301 2.7142 536.0934 2.7151 535.9453 3.6531 533.2105 3.6918 533.1737 4.7 531.5503 4.892 531.5515 5.0461 531.4783 5.713 529.1122 7.7698 525.5324 8.9873 520.9847 9.1438 520.5042 9.3773 519.9872 9.5719 519.5439 11.632 515.3716 11.9807 514.8552 12.5629 513.8218 12.5633 513.7477 12.679 513.6743 13.5348 511.8278 13.8455 511.2371 14.2326 510.721 14.4645 510.4631 14.9297 509.7253 15.2775 509.357 15.3162 509.3202 15.7028 508.8781 15.8963 508.62 18.3084 503.3387 20.8231 493.6512 23.2987 490.5921 23.9318 487.4111 24.6095 483.1564 25.1282 479.8265 25.1707 479.1232 25.0785 468.6424 24.7602 463.9745 34.8956 464.2193 38.2422 463.165 52.8735 462.8057 56.5041 459.0865 57.4342 457.5735 59.3849 458.8809 59.8847 458.7727 59.9242 458.5877 59.9638 458.3658 61.2281 458.8545 65.7659 464.3613 66.3034 464.3644 67.0305 471.5529 67.1731 473.4793 67.4801 473.5181 67.5185 473.5184 68.4788 473.4498 68.5619 472.3393 68.7157 472.3032 68.7923 472.3406 68.9065 472.5264 69.0166 473.4158 69.1702 473.4167 69.7457 473.4941 69.4413 473.0109 69.4033 472.9366 68.7223 471.1552 68.5278 471.5985 68.4201 470.2647 68.7808 467.6004 68.3505 469.0052 68.6663 467.4887 69.1281 467.3062 69.9432 465.7555 69.54 462.3832 74.6012 456.8573 79.7561 448.2951 76.2369 445.9791 76.1559 439.9423 74.3898 433.1553 73.5085 426.0771 73.7 426.1523 75.3071 427.0873 79.9826 428.5581 83.9063 427.1732 89.1459 423.8699 92.6505 421.8899 92.6512 421.7788 92.6514 421.7418 92.6132 421.7045 92.537 421.593 92.2702 421.2582 91.8888 420.8117 91.8124 420.7372 91.5074 420.3651 91.3928 420.2534 91.3167 420.1418 91.1641 419.9558 91.0496 419.8441 90.7825 419.5463 90.5918 419.323 90.5157 419.2115 90.5163 419.1004 90.5555 418.9525 90.6719 418.731 90.7107 418.6571 90.8273 418.3986 90.905 418.2509 91.0212 418.0664 91.1762 417.808 91.2152 417.6971 91.254 417.6233 91.3704 417.4017 91.448 417.2541 91.5256 417.1064 91.603 416.9957 91.642 416.8848 91.7974 416.5524 91.8748 416.4417 91.9136 416.3679 91.9914 416.1832 92.1854 415.8139 92.3018 415.5924 92.418 415.4079 92.4568 415.3341 92.5342 415.2234 92.6118 415.0757 92.8056 414.7435 92.8447 414.6326 92.9602 414.5592 93.1148 414.3749 93.192 414.3013 93.3846 414.1913 93.4615 414.1547 93.6921 414.1189 93.8456 414.1198 93.9224 414.1202 94.1525 414.1586 94.3824 414.2339 94.574 414.3091 94.6887 414.3838 94.9178 414.6072 94.9942 414.6817 95.0703 414.7933 95.1849 414.905 95.2604 415.1276 95.3747 415.2764 95.4123 415.4247 95.4501 415.5361 95.5621 416.0922 95.5615 416.2033 95.5611 416.2773 95.6742 416.6483 95.6736 416.7594 95.7116 416.8337 96.0181 416.9465 96.1332 416.9471 96.6329 416.8388 96.748 416.8395 96.825 416.8029 96.902 416.7663 97.2875 416.4722 97.3658 416.2134 97.4056 415.9544 97.6008 415.363 97.6793 415.0671 97.7185 414.9192 98.304 413.182 98.459 412.9236 98.5364 412.813 98.5754 412.7021 98.6924 412.3695 98.809 412.1109 98.8484 411.9259 98.8878 411.741 98.9268 411.6301 98.966 411.4822 99.4721 410.2259 99.6279 409.8195 99.7059 409.5977 99.7837 409.413 99.8617 409.1912 99.9009 409.0433 99.9808 408.4883 99.9814 408.3772 100.0204 408.2663 100.021 408.1552 100.0217 408.0441 100.0613 407.8221 100.0619 407.711 100.1009 407.6002 100.1017 407.452 100.1413 407.2301 100.1806 407.0822 100.2196 406.9713 100.2972 406.8236 100.3364 406.6757 100.3754 406.5648 100.4146 406.4169 100.4918 406.3433 100.531 406.1953 100.6086 406.0476 100.6862 405.9 100.7636 405.7893 101.1513 405.0878 101.3059 404.9035 101.3835 404.7558 101.4609 404.6452 101.4997 404.5713 101.6159 404.3868 101.7319 404.2393 102.5815 403.3183 102.6587 403.2446 102.7744 403.1342 102.9288 402.9869 103.0448 402.8394 103.1222 402.7288 103.3149 402.5817 103.3919 402.5451 103.4691 402.4715 103.5849 402.361 103.7004 402.2876 103.7774 402.251 103.9316 402.1408 104.1241 402.0308 104.2393 402.0314 104.4314 401.9954 104.6621 401.9227 104.7393 401.849 106.861 399.9722 110.6738 397.6974 112.479 397.5223 116.5842 397.9154 117.9701 397.1824 118.9797 395.0771 118.684 393.0017 121.7537 393.2038 123.8119 402.9176 126.868 405.6377 130.2381 400.0643 131.5655 395.961 137.0349 399.62 142.9344 401.8741 143.4439 399.9141 143.7992 398.1015 148.6357 398.1276 149.4939 395.577 154.0772 392.7132 154.4677 391.4562 154.4311 391.1227 153.0364 386.338 155.0743 378.4981 155.2448 375.3142 153.5817 370.4911 150.836 367.1804 154.3515 362.9036 153.0314 358.5637 144.6839 354.9634 141.5494 352.6134 138.495 349.6712 137.9213 349.2977 137.7296 349.2597 137.0782 349.071 136.427 348.8452 135.5851 348.3962 134.8975 347.8 132.9489 346.1969 132.9875 346.1601 133.0261 346.1233 135.9096 345.1762 141.4863 342.9846 147.6784 340.4999 149.371 339.7684 150.1017 339.4761 151.0247 339.1108 151.4479 338.9279 152.1016 338.6722 152.5632 338.4895 153.14 338.2704 154.7439 339.7604 156.509 346.9912 158.6 350.7057 162.7368 352.2462 165.8947 357.4476 173.1669 361.2635 177.0946 358.8032 177.8311 364.7323 176.7801 367.5412 179.6113 369.2596 179.6875 369.3711 176.2938 372.4269 175.0339 378.4565 175.8143 383.3489 173.589 383.1519 172.9924 387.1112 174.0964 388.8576 173.8051 393.1518 178.2057 395.7674 178.3201 395.9161 181.7188 399.304 184.0021 395.7609 187.9808 398.337 188.0192 398.3372 190.2665 401.7189 194.3841 399.7406 198.4117 400.3171 198.5855 396.3926 202.3576 394.4124 204.289 392.0523 204.673 392.0173 206.011 393.0982 204.8372 397.4249 205.972 400.6896 203.6098 404.7139 206.5572 406.3585 203.5972 414.6384 200.039 419.7675 203.1728 422.5241 203.2488 422.6726 Z" fill="#7fbf7b">
      <title>
        布袋鎮 Budai Township
      </title>
    </path>
  </g>
</svg>
