<?xml version="1.0" encoding="UTF-8"?>
<svg xmlns="http://www.w3.org/2000/svg" baseProfile="tiny" width="1440" height="1730">
  <g id="town" stroke="#000" stroke-width="1">
    <path d="M 234.7505 633.2641 232.9404 638.1987 233.2864 641.4343 229.673 647.2597 231.8598 653.4355 230.5374 655.7744 231.9783 661.2253 234.1738 662.3783 234.1653 667.4011 234.4268 668.6785 235.251 675.1074 224.4348 677.6855 223.4277 675.4703 218.9051 673.0362 212.9607 679.3255 209.8697 687.4502 205.2993 687.1015 204.6794 689.6543 198.695 693.4319 192.941 691.2931 189.0684 693.8825 189.3316 694.1809 198.2951 695.7723 202.0238 699.8654 204.8207 708.8093 199.8888 713.738 200.9284 722.168 200.7074 722.8486 196.4833 725.1395 192.8156 735.5189 190.6986 739.2608 182.1178 743.7994 180.9682 747.3302 180.968 747.4579 187.6881 750.6629 198.7217 751.1513 205.2677 753.5894 209.8333 757.3008 214.6229 758.6288 215.0885 768.8454 215.1323 768.9732 214.5079 773.9948 220.874 779.1138 215.194 783.8713 212.2126 779.0987 204.5266 774.573 200.7202 764.3078 195.4543 758.9349 185.2465 763.3429 179.4028 761.4591 175.8809 764.0064 173.1157 761.6174 168.0959 765.7367 168.0516 765.9069 163.6069 768.1117 163.5629 768.1116 155.9937 771.8 151.4633 772.7701 145.9615 775.7813 133.9064 779.8857 125.2047 778.08 124.6775 777.9087 107.7973 776.5109 102.0868 774.1575 91.7944 776.1356 77.9119 771.3374 75.2744 771.1612 75.0545 771.1607 72.2002 769.6644 71.7184 768.8545 65.4366 766.5842 64.423 767.646 58.5808 765.4191 55.4228 762.2619 48.1709 761.351 43.2898 761.8077 40.9194 760.2697 35.7705 762.3857 28.5635 761.1338 26.3658 760.9157 26.3677 760.1495 34.1537 758.2954 37.6784 755.154 36.3221 752.4265 38.3016 751.9205 38.0466 748.2592 37.3884 747.7468 37.8385 743.3636 39.0712 742.6429 39.6468 740.8991 38.5962 739.0663 38.4648 738.8531 37.2358 738.084 37.2803 737.8287 37.466 733.7428 36.8077 733.273 33.8686 730.712 35.7192 728.9287 34.0544 726.5835 36.7427 723.7381 35.5633 720.6705 35.036 720.5841 33.7185 720.0701 30.8181 719.7226 30.8186 719.5523 33.2897 715.5996 36.3729 713.0105 35.9853 709.6894 35.8558 708.7101 35.8566 708.3696 35.8134 708.0715 38.1835 709.5245 37.0052 705.9886 37.6226 705.1388 37.7145 703.4789 37.8529 700.755 38.564 697.4792 37.5975 697.3066 36.9403 696.4111 36.8085 696.3682 36.8091 696.1554 38.8294 696.7987 41.4678 696.2942 42.7439 695.7014 41.1244 692.8456 43.9866 690.6389 44.0335 689.4046 44.0337 689.3195 44.0783 689.0642 43.5523 688.467 43.5086 688.3392 44.39 687.3623 44.1306 685.5313 40.667 681.9475 36.4518 680.2348 37.0236 680.0659 35.2722 677.2949 34.1298 677.1645 33.5577 677.4611 33.1202 676.6512 32.3295 676.4791 31.761 675.2858 29.2128 674.9391 27.1501 673.6997 26.9747 673.529 26.8931 670.9748 26.9811 670.9325 27.2446 671.0183 29.4413 671.3216 34.3736 667.2046 34.418 667.0344 35.214 664.9932 35.3089 662.0989 37.9924 660.956 38.0805 660.8711 38.4328 660.574 38.8293 660.1918 42.126 659.9443 43.4033 658.7555 36.7817 652.7379 35.2939 650.0952 30.4687 646.4228 30.3434 643.7409 31.3129 642.6365 31.7961 642.6802 36.5771 646.4376 39.0863 644.6558 35.7122 640.6465 35.4062 639.9647 35.3187 639.7942 32.6892 636.8508 27.9999 631.6038 25.243 626.9148 28.8029 626.7106 32.8084 623.9109 34.0383 624.1267 35.8447 622.1305 28.8594 621.5177 27.4142 619.5561 24.3388 619.3358 25.3985 617.2526 29.263 618.1985 29.3948 618.1988 29.6584 618.242 38.173 622.3915 40.3171 626.185 43.2628 625.5109 45.9496 622.8782 48.8118 620.331 52.9099 615.4455 58.1184 605.3694 58.3827 605.0721 63.0894 602.827 66.5457 609.2624 74.4824 616.4742 76.8076 618.097 84.8292 626.8836 89.3114 626.8936 91.3292 628.473 91.9432 629.0277 93.3781 635.9266 97.6757 639.9798 100.6205 639.7734 100.9286 639.5612 109.1415 641.7498 109.4488 641.9207 109.756 642.0916 110.8535 642.6047 110.9853 642.6476 113.5035 636.3957 116.5444 632.2307 117.0722 632.019 125.2977 628.1627 128.6847 626.5096 128.7293 626.1692 129.7538 619.531 134.8534 618.3496 137.5846 614.9925 140.0608 607.3781 145.2393 610.5385 148.2729 609.6507 148.4037 610.1618 153.5913 608.81 154.0742 609.0237 157.2874 606.2207 161.5083 604.8243 163.6259 600.4441 165.472 600.1072 165.5159 600.1072 165.6478 600.0649 168.242 599.0909 170.5171 604.1607 170.816 608.6307 176.2134 612.4294 182.0131 612.6106 182.057 612.6533 184.3406 613.3386 184.5163 613.3815 184.8675 613.5524 185.087 613.6805 187.5854 616.9628 188.1488 621.2204 192.4113 621.1006 192.8068 621.1013 196.2768 621.8313 196.6722 621.8746 200.8424 624.2233 203.5231 624.1005 203.6109 624.1432 203.7867 624.1435 207.2099 626.5334 212.2166 628.0747 212.4363 628.1176 214.5471 627.2274 216.7959 622.8045 217.1916 622.6775 220.3163 619.9162 227.5541 627.2075 232.47 630.5786 232.6888 631.0897 234.7505 633.2641 Z" fill="#2166ac">
      <title>
        南投市 Nantou City
      </title>
    </path>
    <path d="M 644.7909 412.352 647.6434 419.9294 657.3474 420.0163 661.3862 425.9763 666.4793 429.7654 671.0023 428.7018 674.9541 429.8516 682.2865 440.3662 686.9849 445.1339 686.9405 452.1148 699.2365 459.5644 700.8175 459.7773 705.3847 459.5644 709.4249 455.6057 718.6912 458.6702 719.4819 462.5862 722.7761 468.3325 730.0668 473.1419 734.7665 477.7386 738.1928 482.4205 747.6354 481.8232 752.2473 483.8231 760.5477 481.8209 766.8739 489.4815 767.7976 495.4831 762.9238 502.7204 761.607 506.7219 761.4754 507.7861 761.7396 510.7657 766.529 518.2138 772.5923 524.725 779.0055 524.5956 785.1994 525.4878 785.7704 525.3599 792.7104 524.4213 794.3349 522.0796 802.5043 519.608 806.0613 517.0528 812.2562 520.8814 819.4626 526.9229 822.45 527.9858 832.1133 526.5342 837.9564 528.3618 845.1161 527.7198 850.4324 529.7602 853.5944 528.5241 854.2076 525.161 857.1933 522.9034 857.5005 522.435 859.3434 518.7307 865.8861 515.1088 870.1072 522.3426 868.308 525.3233 868.2674 530.7718 869.8069 534.2613 875.387 536.2585 877.8488 539.2367 883.9135 543.1914 887.0366 549.3615 887.4342 552.7665 891.0424 561.4051 886.4765 566.0904 884.591 571.6252 879.1907 577.1197 878.8393 577.3328 878.6197 577.4606 876.6874 578.7388 876.1195 584.0173 876.0318 584.2728 871.4197 586.1059 867.864 591.4288 860.7893 589.9431 861.4079 595.9871 865.8048 601.4331 857.1133 616.3787 851.2719 621.66 850.4384 624.2144 852.3307 629.449 851.4539 633.323 848.1155 635.8787 846.3157 639.4978 845.5717 645.4999 842.6281 647.0338 837.8372 645.2909 831.0695 645.0813 827.3771 642.7844 819.9942 642.447 815.7764 644.7048 814.675 637.7244 812.3878 632.5748 809.4391 620.6149 806.2738 616.4872 803.1538 615.9775 793.9662 603.8919 792.2511 599.125 789.7022 597.4232 788.8222 593.6351 784.6041 592.9979 777.3988 594.4897 774.4557 597.3849 770.6335 598.9182 768.4814 602.5369 765.2727 597.4297 760.0877 595.8558 758.1556 601.3472 760.0902 607.7743 765.8471 611.5189 763.3868 613.3498 758.5534 613.6913 757.8076 619.6932 758.9069 623.4388 763.214 626.9709 763.8302 631.8659 763.6984 632.0787 763.6549 633.8665 763.6988 633.9942 765.4134 637.5268 771.4783 639.7388 780.7942 638.7574 782.4646 640.2893 782.5525 640.417 783.3003 642.9707 779.1278 651.2723 774.8218 654.3381 768.9766 653.318 765.7247 654.1275 760.9795 659.0236 754.7846 668.1339 748.9402 673.2002 748.8083 673.2854 751.6216 676.2645 754.6103 676.5194 757.5998 681.0308 762.7426 683.4135 765.3352 681.1995 771.0048 680.6022 776.365 673.8329 780.9354 672.3419 785.1533 667.9138 787.3071 668.9348 786.9136 675.9583 779.8383 678.1737 772.3686 686.2206 771.052 694.1807 771.0568 713.8461 768.3753 713.2083 764.2866 709.5485 761.78 704.1432 761.6467 697.3327 759.4471 688.0538 751.6675 687.4168 750.744 684.5224 746.7885 685.7149 738.8773 686.4397 734.7023 690.0157 734.351 693.2933 731.8459 695.1664 728.5931 692.9533 726.132 695.9757 722.22 693.9328 719.671 698.0619 726.792 704.4037 727.0118 704.6591 733.2982 712.6183 730.3093 714.0658 726.7047 712.1932 718.661 716.5355 721.0349 720.6642 727.7606 722.5366 729.6949 724.6647 728.8161 728.3255 730.1353 733.7738 734.1803 740.2859 734.4001 740.5839 737.6978 745.9042 737.786 748.2453 732.466 742.0313 730.0481 740.6269 729.8282 740.4992 724.2889 736.0728 722.2664 730.8374 727.7171 728.1127 724.8594 723.2605 720.4636 722.3243 715.1885 717.6424 713.474 714.1095 707.6718 711.6408 706.4849 708.874 702.8366 706.618 698.661 701.2121 691.2328 699.8924 691.4089 692.1454 687.2337 688.0163 687.1898 687.0798 687.2337 686.9521 687.3658 684.1854 687.3658 684.0151 685.9597 678.7794 690.2668 678.652 690.3108 678.6094 690.3987 678.6094 689.6076 677.3324 688.2893 674.6081 676.6864 674.82 672.9063 678.31 665.8308 674.4357 664.9523 671.2005 658.7116 670.3057 655.7228 671.5822 652.3828 670.9005 652.3388 670.8154 652.2949 670.7728 644.3406 668.1747 637.088 672.5148 634.4511 672.131 632.6045 674.9825 626.055 678.0455 622.4933 683.8334 622.4054 683.9611 620.8663 686.4294 613.9652 688.5981 607.8129 685.6165 605.3955 685.7859 600.9573 683.3155 599.1566 679.7818 592.0368 679.1406 586.8931 682.5863 583.5951 686.3732 577.7478 690.0739 570.9798 688.6235 567.9504 681.854 559.7768 679.296 559.6011 679.1682 554.6387 671.7165 547.8276 669.7548 546.51 668.2642 546.3782 668.1364 546.0706 668.0086 545.9827 667.9659 542.2007 672.1352 540.4832 678.0083 537.4945 678.1342 534.6359 681.0696 534.4578 684.8153 528.0855 683.7897 519.3822 685.1036 517.9353 679.8245 517.8521 672.8011 519.3926 669.4394 518.7821 662.2028 517.0294 654.5397 517.2103 646.9205 521.173 635.4304 518.8904 631.7682 518.4113 625.3829 522.8958 621.6827 525.097 615.2992 528.2174 614.2796 529.7585 609.2578 528.003 605.9791 531.2588 599.128 534.5998 596.2355 534.6438 596.1504 538.5115 594.2373 541.1495 591.1741 547.5206 590.8372 555.4304 588.543 558.3322 584.8413 563.6041 585.525 565.1404 588.4629 568.7001 586.6769 574.3677 587.0201 574.3677 586.9775 573.1826 584.5081 573.1388 584.2527 570.7684 579.8673 570.6381 576.6748 570.9458 576.3344 571.0857 559.6485 569.1548 555.3058 568.9794 554.6673 568.7601 553.8584 565.6882 547.3017 567.0512 544.9187 567.1417 539.5979 573.8678 528.9596 573.0786 525.8945 575.6272 523.895 577.694 519.0434 578.0457 518.4051 577.3868 518.4048 576.7717 518.5748 572.2907 519.9348 570.7539 518.6997 570.4905 518.4016 567.5043 516.9529 562.8069 511.9703 562.8991 503.4571 559.9131 501.9231 555.5204 502.8147 545.9917 498.2549 543.444 498.5939 539.9757 496.0805 537.1276 484.671 537.1717 484.5008 543.2364 477.9492 550.0883 476.9314 551.7584 474.8892 551.7586 474.5486 554.2203 470.2508 556.2409 469.6134 558.1317 465.0598 563.0519 462.1252 563.9318 459.1035 562.9261 450.462 566.7478 448.2504 566.7917 448.1653 564.951 440.843 567.0168 437.1407 569.4748 439.3554 572.1978 438.4202 575.3618 433.4414 579.709 433.6563 586.5584 435.5747 587.7022 430.5949 594.2481 422.8931 611.7683 422.5589 614.4021 425.284 615.5425 429.0302 620.593 426.6055 621.911 424.2648 627.5739 430.098 631.1745 430.482 631.3062 430.4395 636.5325 426.9504 636.9294 420.0547 638.7303 417.5437 639.2585 412.0102 644.7909 412.352 Z" fill="#1b7837">
      <title>
        埔里鎮 Puli Township
      </title>
    </path>
    <path d="M 431.3542 588.2787 424.8511 588.8256 420.1913 591.2472 420.0595 591.2896 410.4377 590.8965 405.0319 592.338 401.2995 590.3333 396.6859 590.5411 393.3042 589.2178 388.0308 590.1057 384.6527 585.7601 379.1146 587.6266 378.9827 587.669 373.3527 592.8129 372.4684 597.4941 369.3449 600.768 368.7696 604.13 360.9867 608.7176 360.7668 608.8876 352.5913 611.0483 349.9139 608.7463 347.8024 610.574 347.7585 610.5739 342.132 612.2267 337.5982 618.2652 333.6885 617.4512 330.0018 614.2113 329.782 614.2961 326.0068 611.6519 325.963 611.5241 321.5228 613.1356 319.9768 618.965 314.7052 617.9786 314.7494 617.8084 314.7059 617.5104 314.7501 617.3402 314.7509 616.7869 309.7974 608.4795 309.5779 608.3089 304.3541 604.8536 305.0192 600.6831 298.433 597.5662 298.1309 593.8199 291.6276 594.236 288.0174 599.0832 284.9382 601.4197 284.7624 601.462 283.8839 601.2904 283.7521 601.2476 281.907 601.0746 279.1317 605.7526 275.6614 605.1939 270.0748 609.2291 266.4708 609.8193 266.8564 616.0772 262.9418 618.4547 263.5942 622.7123 263.4624 622.7121 263.3745 622.712 254.0201 619.462 250.9874 619.9253 248.5206 623.6671 249.9203 627.5854 245.2623 627.6204 245.5623 632.218 242.4371 635.3627 234.7505 633.2641 232.6888 631.0897 232.47 630.5786 227.5541 627.2075 220.3163 619.9162 217.1916 622.6775 216.7959 622.8045 214.5471 627.2274 212.4363 628.1176 212.2166 628.0747 207.2099 626.5334 203.7867 624.1435 203.6109 624.1432 203.5231 624.1005 200.8424 624.2233 196.6722 621.8746 196.2768 621.8313 192.8068 621.1013 192.4113 621.1006 188.1488 621.2204 187.5854 616.9628 185.087 613.6805 184.8675 613.5524 184.5163 613.3815 184.3406 613.3386 182.057 612.6533 182.0131 612.6106 176.2134 612.4294 170.816 608.6307 170.5171 604.1607 168.242 599.0909 165.6478 600.0649 165.5159 600.1072 165.472 600.1072 163.6259 600.4441 161.5083 604.8243 157.2874 606.2207 154.0742 609.0237 153.5913 608.81 148.4037 610.1618 148.2729 609.6507 145.2393 610.5385 140.0608 607.3781 137.5846 614.9925 134.8534 618.3496 129.7538 619.531 128.7293 626.1692 128.6847 626.5096 125.2977 628.1627 117.0722 632.019 116.5444 632.2307 113.5035 636.3957 110.9853 642.6476 110.8535 642.6047 109.756 642.0916 109.4488 641.9207 109.1415 641.7498 100.9286 639.5612 100.6205 639.7734 97.6757 639.9798 93.3781 635.9266 91.9432 629.0277 91.3292 628.473 89.3114 626.8936 84.8292 626.8836 76.8076 618.097 74.4824 616.4742 66.5457 609.2624 63.0894 602.827 62.8728 601.4644 63.3498 585.2051 62.4393 579.9674 68.4516 563.8059 68.6283 563.3807 69.4683 561.084 69.7819 558.4456 69.6956 557.7644 69.5657 556.9127 68.2519 555.1219 64.1313 551.2389 61.4587 548.168 59.574 546.3333 59.2232 546.0345 58.3023 545.3513 56.9864 544.4969 56.7672 544.3261 56.0655 543.8137 54.8372 543.0872 53.2576 542.2747 52.3802 541.8044 44.9652 537.9985 42.5162 533.3955 42.2655 528.0316 46.3338 516.676 46.3417 513.3558 46.2579 511.6529 46.2156 510.9718 46.1327 508.8858 46.2206 508.8435 46.4403 508.844 46.9232 508.9302 47.3177 509.2717 48.5 510.8069 49.2891 511.4473 49.7275 511.8314 50.5606 512.4293 50.9136 511.7491 50.8266 511.4083 50.8277 510.9401 51.1366 510.3449 51.9287 509.7082 51.9732 509.453 52.0618 509.1552 52.1064 508.8573 54.8813 505.5862 56.284 506.7813 56.3277 506.9091 58.1741 506.1898 58.5262 505.8927 59.4055 505.5542 59.801 505.47 60.7678 505.2594 61.6904 505.1764 62.3929 505.2631 64.7613 506.7584 65.2884 506.7596 67.0452 506.8062 67.572 506.9351 68.0545 507.2342 68.3614 507.4903 68.4931 507.4906 68.801 507.3211 71.1306 506.6027 84.5266 506.8884 85.3173 506.8476 85.8004 506.8912 91.8615 507.0323 101.1267 508.287 102.3541 509.3964 103.1878 509.7813 103.5829 509.9099 103.9339 510.0809 107.6224 510.5996 109.3776 511.4122 112.014 510.9921 113.5485 512.315 115.9288 508.3613 110.7117 503.7956 120.9502 501.689 125.4875 495.3561 125.6201 494.9307 145.5839 505.1024 151.3772 507.4125 157.3901 509.723 174.5583 512.9062 179.0371 513.7235 184.047 512.3708 185.9371 511.6507 205.1451 504.407 208.5269 504.5407 212.3483 504.505 229.6078 505.812 232.3288 507.1362 252.9072 520.4511 256.4548 526.8843 259.2213 527.4421 259.485 527.3574 261.8603 525.318 261.9043 525.2755 262.9183 522.936 267.4929 518.9846 271.4883 520.0975 280.6364 512.5774 284.1081 511.4334 290.213 511.8256 299.6655 505.8377 305.6391 505.8038 305.4674 503.0367 305.4235 502.9941 306.7002 500.9953 307.2805 494.526 311.4577 491.2118 316.6062 484.2381 323.2847 482.2893 329.8652 487.8319 336.2286 491.6288 340.3123 492.3152 349.0547 490.709 358.2775 491.1889 360.7354 492.5115 363.189 497.4096 368.2345 501.9278 371.171 507.167 371.3468 507.1247 377.3199 507.5574 380.5685 509.0085 382.676 509.7345 379.5 521.2663 392.1478 523.7497 401.5422 529.0383 406.2776 537.131 406.672 537.9827 412.8678 536.2441 414.9737 538.8002 415.149 539.1409 417.7855 538.4201 423.8448 541.2356 427.741 554.733 432.3938 558.6537 432.613 559.0795 432.918 561.719 430.4091 566.569 428.2879 578.9963 430.4358 583.9786 430.5235 584.1064 431.3542 588.2787 Z" fill="#7fbf7b">
      <title>
        草屯鎮 Caotun Township
      </title>
    </path>
    <path d="M 292.0739 915.5233 288.8906 926.3727 282.3199 937.0468 276.993 939.6351 277.559 943.5094 282.9233 945.3053 283.2289 946.9233 285.0244 952.3318 283.9641 955.3098 280.396 958.2839 279.4654 962.7093 274.2684 966.2768 273.7401 966.4888 273.652 966.5738 271.0491 971.1668 266.7771 973.8844 262.8629 972.8566 255.2917 975.1431 255.2036 975.228 252.6446 979.6081 248.1989 980.7502 248.1548 980.8352 246.0362 984.918 235.9163 984.9438 229.0498 986.4645 228.9953 992.6364 226.5691 996.2503 221.3792 995.007 210.9909 997.3299 208.0458 995.622 206.017 998.3 205.6558 1003.4498 203.9368 1005.0642 193.59 1008.4932 193.3631 1012.2385 199.5103 1019.6135 207.6434 1023.9697 213.0015 1029.9383 214.4001 1035.4317 216.5962 1037.8618 220.2489 1037.8256 223.3348 1034.6811 223.5551 1034.5538 224.0396 1034.2992 224.6117 1034.3002 225.3537 1037.8344 230.7997 1044.3136 231.1516 1044.4418 236.8299 1043.6852 237.4866 1045.772 237.8373 1046.5814 244.0388 1048.8476 244.4343 1049.1888 246.4448 1057.7051 246.0407 1062.5994 245.7756 1063.2374 245.7313 1063.3651 245.6421 1064.0885 244.7583 1066.3005 244.8018 1066.5985 240.2224 1067.8679 239.7775 1070.719 235.685 1070.329 234.9739 1074.4567 231.1468 1073.2158 225.377 1075.5896 222.864 1078.0541 222.6434 1078.3942 222.4182 1081.3308 228.8466 1079.9797 228.0924 1083.5114 227.8716 1083.8941 226.6352 1086.233 232.9263 1088.074 235.9564 1092.2079 236.1258 1096.2093 232.369 1105.3119 232.9407 1105.6534 237.6855 1111.1522 235.3922 1113.7023 235.776 1121.1092 232.7284 1127.1057 231.087 1134.5518 231.1305 1134.8924 234.0318 1137.366 238.1573 1144.9921 235.7266 1150.564 235.5497 1151.0319 233.8232 1156.7327 228.1355 1161.5754 230.4148 1167.5384 233.0985 1168.7347 235.5565 1173.2507 237.934 1173.2973 240.6135 1177.09 241.0527 1177.7718 243.2446 1183.5642 247.862 1187.1046 253.5383 1189.4123 261.8928 1196.7042 262.8603 1197.4719 272.0981 1203.3177 277.6871 1205.4546 279.9267 1209.5016 289.1292 1210.0262 289.1291 1210.1113 289.1671 1214.155 292.5083 1217.9057 292.8125 1220.6302 300.3831 1223.1952 300.471 1223.323 301.8329 1225.5383 300.5482 1230.857 302.1721 1234.6902 302.3915 1235.2438 302.1183 1241.4578 305.1431 1251.252 317.1178 1254.5038 323.4512 1260.8546 328.9579 1259.8405 332.5244 1260.5263 337.3277 1258.4895 345.3385 1262.3307 351.1465 1266.8074 352.9071 1267.7034 362.458 1273.1209 370.1223 1272.662 371.0421 1277.0047 371.4377 1277.7287 378.35 1280.0779 380.768 1283.9966 388.3382 1289.1556 389.5687 1291.6683 389.6053 1298.3083 390.9675 1301.2468 390.211 1308.0988 391.3062 1313.5483 393.9468 1315.722 394.9541 1321.0862 393.895 1322.745 394.8572 1329.0882 400.7527 1336.1603 403.7478 1336.6743 408.3691 1340.8931 408.369 1340.9782 408.6281 1346.0011 411.8389 1351.0696 405.3136 1355.617 403.591 1359.7439 397.95 1361.185 396.3141 1366.376 397.8526 1369.6126 393.4022 1369.9482 389.3858 1376.2006 384.405 1377.9401 381.4934 1381.0014 372.3285 1381.1183 369.1952 1385.2433 365.5819 1385.3667 364.4363 1385.4078 358.446 1383.6128 352.2768 1384.0308 344.3558 1376.1463 337.6154 1375.4566 330.3438 1376.5962 322.1511 1374.7123 317.7041 1372.4503 316.6061 1369.9375 312.2923 1366.9945 306.6988 1365.582 305.6855 1365.538 303.7471 1365.4076 301.8604 1359.8715 296.6222 1356.6716 296.0065 1355.9046 290.1094 1351.3841 279.9322 1351.454 274.6509 1347.828 269.807 1346.3733 264.9582 1348.0257 262.1316 1352.448 259.4415 1354.1463 256.8905 1351.4181 247.8586 1351.5312 243.6666 1355.5679 236.2615 1357.6413 226.4852 1354.9432 227.3338 1348.1769 226.2913 1339.4495 223.3437 1337.0608 222.4636 1336.506 218.7649 1335.3929 215.4236 1331.4712 215.071 1331.5557 211.1972 1329.8889 205.75 1321.1961 205.6622 1321.0257 201.6659 1314.1231 201.4455 1314.1653 195.716 1315.7724 195.3192 1315.9419 194.9664 1316.1541 194.4815 1316.366 191.7911 1318.1488 191.6144 1318.4039 191.526 1318.574 191.5259 1318.6165 193.578 1328.708 193.526 1333.0921 186.0735 1337.0368 179.3753 1338.0459 175.7131 1341.0611 169.3262 1340.4956 159.5562 1335.1988 149.2052 1334.3271 138.4465 1338.9877 137.145 1350.8179 132.2909 1354.6814 131.8944 1354.6806 122.1587 1354.1923 117.1325 1355.9695 105.1889 1357.817 96.0772 1354.0091 89.5977 1355.3995 84.6339 1348.7486 74.5994 1344.0866 71.7806 1343.7398 70.3284 1343.0554 70.3726 1342.9704 73.3511 1331.0591 72.6601 1324.8857 74.7498 1316.335 70.5704 1313.8994 65.8567 1314.0163 61.1489 1311.5368 58.0653 1311.5723 55.629 1317.398 53.9548 1317.5218 49.4492 1322.7892 45.4796 1324.8656 38.9353 1335.1932 35.5834 1336.8027 33.6945 1334.4997 33.6066 1334.4144 30.3543 1331.2142 28.1368 1319.078 25.861 1312.9006 28.3363 1309.4163 28.4341 1305.3729 26.5908 1302.5592 31.8085 1294.2717 31.8535 1293.8887 38.7886 1285.6478 38.0976 1279.8574 40.3115 1274.9252 38.4696 1271.6007 38.2148 1267.5991 44.4588 1253.227 44.4589 1253.1844 46.6723 1248.3799 46.7607 1248.2098 47.5545 1247.786 47.7308 1247.7013 49.2895 1240.3413 56.8361 1233.4634 56.7958 1231.8458 56.7959 1231.8033 59.1028 1224.4449 61.5282 1223.0033 61.9333 1219.1734 60.0872 1217.6794 60.3187 1212.7424 64.0356 1204.919 64.5293 1200.8339 61.5408 1198.3158 61.9062 1192.6129 59.4866 1191.6709 59.1043 1185.5833 61.27 1182.0128 58.3879 1171.6629 58.3005 1171.3647 55.1458 1164.7599 58.7222 1160.3414 59.4771 1157.5764 54.0286 1152.9242 51.1241 1152.4067 48.9437 1143.5055 46.9239 1141.2448 49.4445 1136.4409 47.9545 1133.543 47.9106 1133.5003 49.907 1126.9074 49.3888 1122.6071 51.7358 1116.6961 47.8828 1107.8335 48.9162 1098.8973 48.9604 1098.8123 52.5692 1099.0761 55.3113 1093.4639 57.3966 1086.3178 59.9019 1087.8559 68.0439 1088.2577 69.9387 1087.3256 76.7972 1090.8314 79.5724 1089.8586 79.5727 1089.731 76.9545 1079.5946 77.3034 1061.4201 77.3921 1061.1223 77.5251 1060.6544 79.97 1049.8057 75.249 1035.5784 75.0303 1034.982 64.1836 1005.7575 63.9645 1005.3739 53.5273 990.1965 52.1255 987.5542 49.5451 980.9079 53.7673 981.5989 57.9965 979.3102 64.2923 977.5795 65.2167 977.3688 77.2818 973.0971 79.9238 972.124 81.0687 971.7009 82.8741 970.9813 83.931 970.558 87.8926 969.7155 96.2563 967.7333 100.3531 965.3585 107.009 959.5414 114.8083 953.8117 116.6151 952.3683 126.6987 948.0477 130.1308 947.7568 132.857 948.4434 134.4406 948.4892 134.6606 948.4897 134.7926 948.49 135.5843 948.5767 140.5145 947.1395 145.2719 944.0844 151.6116 941.6708 156.3688 938.6155 157.2056 938.1063 157.602 937.8943 163.6394 932.4577 172.591 921.195 174.8406 918.0069 177.0018 914.9463 177.6192 914.0962 177.8397 913.7986 178.9861 912.3535 185.9557 901.8955 203.2201 889.7533 210.482 887.1698 210.4821 887.1272 216.2056 883.9449 221.6682 878.9317 231.2023 884.8646 231.4661 884.9502 231.554 884.9503 244.033 892.4202 251.6398 893.965 252.8267 894.3926 258.8058 896.1474 267.157 899.9489 273.9687 903.9181 276.5584 907.4976 280.7355 908.5681 283.8991 910.8714 284.0308 911.0845 284.2064 911.2975 288.8641 914.6246 292.0739 915.5233 Z" fill="#7fbf7b">
      <title>
        竹山鎮 Zhushan Township
      </title>
    </path>
    <path d="M 445.4488 833.7693 445.6629 840.0267 443.8124 843.7707 447.898 848.4141 450.7073 854.163 449.2516 859.0142 451.6685 861.1021 455.407 860.8926 455.5363 863.8723 454.3455 867.5745 451.5723 870.1684 449.5491 870.2517 445.8569 867.9498 444.405 868.4592 444.361 868.4592 443.9212 868.5014 443.2175 868.5433 438.9498 870.1993 435.5204 869.0042 430.9891 870.2767 426.3207 876.6995 424.0264 883.9333 421.2533 886.0588 421.291 892.1882 420.1833 900.1043 420.0952 900.2745 419.5632 904.3176 419.5632 904.3602 416.3057 906.7831 405.5286 907.1123 395.5855 908.9317 395.4095 909.0167 385.2867 913.9854 377.717 917.2542 377.6289 917.2967 377.4089 917.4241 364.8708 918.4733 364.8708 918.5158 364.6069 918.5155 360.8677 918.6386 349.5204 917.1772 349.3885 917.177 332.94 914.7719 330.1262 913.6615 329.9943 913.6187 327.2242 912.8063 326.6965 912.7204 319.9652 913.5625 319.4812 913.6044 312.5742 914.2759 312.4862 914.3183 308.3907 917.5475 297.9644 918.2135 292.0739 915.5233 288.8641 914.6246 284.2064 911.2975 284.0308 911.0845 283.8991 910.8714 280.7355 908.5681 276.5584 907.4976 273.9687 903.9181 267.157 899.9489 258.8058 896.1474 252.8267 894.3926 251.6398 893.965 244.033 892.4202 231.554 884.9503 231.4661 884.9502 231.2023 884.8646 221.6682 878.9317 226.1196 873.5761 230.4001 865.198 227.8508 864.2572 221.0069 854.4979 220.6993 854.3697 220.4791 854.5395 220.3032 854.5392 219.8633 854.581 217.5852 849.5543 217.6839 843.4251 229.2965 841.8276 234.4915 838.3886 234.1879 835.9193 237.6221 833.4562 237.842 833.4566 238.7306 828.0097 238.7751 827.7118 239.7889 826.2663 240.5836 824.3521 247.4439 824.1506 252.2319 827.3083 255.9269 826.5481 258.517 829.2765 262.3456 827.5374 262.6539 827.2399 262.6979 827.1974 267.4931 825.9706 270.348 828.1459 273.9992 827.2576 278.9507 838.8005 282.4239 839.4017 286.0654 845.0684 290.8594 844.6925 294.9876 848.5295 295.0316 848.5296 296.9248 847.0851 300.4801 851.8151 304.7022 851.6934 308.216 854.7632 310.7224 855.0647 312.1362 850.4696 320.8473 847.9278 317.5101 844.3051 322.5255 842.8222 322.9215 842.6525 328.5498 843.2135 332.466 841.5161 332.5543 841.2183 336.5149 839.1378 338.9299 841.9929 344.4674 844.7243 347.8978 844.601 353.401 839.7981 359.2468 842.2316 359.4666 842.317 375.5168 843.358 379.6085 841.7453 385.9378 844.6471 389.8114 841.5016 389.8555 841.374 392.5413 838.4825 397.3358 837.4663 400.3294 834.49 411.4508 838.6733 415.5449 834.5061 422.4083 831.2782 424.6942 832.0892 424.7381 832.1318 425.9253 832.2607 426.2772 832.2185 433.6214 831.8001 437.3125 834.7407 442.5043 831.8937 445.4488 833.7693 Z" fill="#2166ac">
      <title>
        集集鎮 Jiji Township
      </title>
    </path>
    <path d="M 220.874 779.1138 219.196 783.3249 219.5849 787.1991 224.679 790.7834 228.7548 798.5374 227.9115 803.133 230.984 806.3307 232.1184 811.5682 232.3375 811.9942 234.7924 816.4252 234.7482 816.5954 233.4647 821.4883 238.9572 824.0089 239.7889 826.2663 238.7751 827.7118 238.7306 828.0097 237.842 833.4566 237.6221 833.4562 234.1879 835.9193 234.4915 838.3886 229.2965 841.8276 217.6839 843.4251 217.5852 849.5543 219.8633 854.581 220.3032 854.5392 220.4791 854.5395 220.6993 854.3697 221.0069 854.4979 227.8508 864.2572 230.4001 865.198 226.1196 873.5761 221.6682 878.9317 216.2056 883.9449 210.4821 887.1272 210.482 887.1698 203.2201 889.7533 185.9557 901.8955 178.9861 912.3535 177.8397 913.7986 177.6192 914.0962 177.0018 914.9463 174.8406 918.0069 172.591 921.195 163.6394 932.4577 157.602 937.8943 157.2056 938.1063 156.3688 938.6155 151.6116 941.6708 145.2719 944.0844 140.5145 947.1395 135.5843 948.5767 134.7926 948.49 134.8366 948.4901 134.9686 948.4903 135.1015 948.0224 135.0583 947.6392 135.0155 947.0432 133.8868 939.6771 132.2617 938.3968 129.9296 938.6474 125.3984 938.638 124.2656 933.4001 124.4976 927.5691 123.4549 921.3098 125.0056 915.9924 122.4157 913.3905 121.0133 910.9187 120.2671 910.151 117.9821 909.0395 117.7624 908.9113 116.7075 908.5686 114.595 909.0749 112.9207 910.3909 109.8396 911.3208 107.9914 911.6574 103.0557 915.8608 99.4473 916.4914 98.0777 919.2126 94.7798 918.6521 90.4227 919.6641 84.8777 920.716 80.6495 923.0902 78.6679 923.9797 75.2369 923.9294 69.9138 924.0876 69.8705 923.7895 69.7831 923.5339 69.4326 922.8947 68.8213 920.8927 66.1031 916.9279 62.1056 914.535 61.4463 914.3207 57.2263 913.0765 56.8752 912.7352 56.5681 912.3939 56.1291 912.0098 55.8219 911.7111 50.6832 908.379 49.2791 906.8859 49.2796 906.6731 46.2497 904.4526 47.4068 898.7515 42.9212 898.3578 37.8683 896.0898 48.993 897.606 48.9933 897.4783 47.6774 895.9428 45.6564 894.959 46.6744 892.2798 43.1547 892.6546 44.6592 888.8272 42.6839 887.1625 38.4243 884.3004 42.076 883.8409 43.9693 882.9941 39.7534 880.3024 35.7493 880.9739 32.0044 883.604 30.425 881.9827 24.5255 884.352 24.2172 884.5215 17.126 888.5053 15.7669 886.7142 18.5464 883.2732 26.949 882.5276 31.0437 880.7498 30.9646 877.0889 28.1054 877.2523 30.9239 875.7267 29.6131 872.148 27.5028 871.845 25.2157 871.8394 19.3203 872.6337 19.3646 872.5061 21.4801 870.7236 25.7063 869.0738 23.996 867.0265 21.762 863.3604 21.9857 861.8286 21.1934 862.082 18.5926 864.5019 18.5042 864.6719 14.9332 868.1535 13.9668 867.6829 15.6858 866.1548 14.543 865.8965 12.9574 866.8291 11.5057 866.9532 11.6417 865.336 12.6166 862.3588 9.0066 863.8396 7.1133 864.6862 6.5334 867.9623 4.773 868.4261 2.6656 866.9736 1 864.7134 1.0885 864.5008 1.1326 864.4584 7.6034 862.1761 8.5759 860.1779 6.5111 859.3214 7.9673 857.367 8.2327 856.7292 9.4202 856.7322 12.4566 855.9736 12.9505 851.8885 14.9306 851.4677 16.382 851.4287 17.0885 850.2387 17.0889 850.111 17.0018 849.7276 17.0021 849.6425 16.8275 849.0887 16.4771 848.5345 11.7737 847.629 10.4148 845.8804 8.8769 845.3232 10.0201 845.4112 12.5699 845.7581 15.205 847.2118 17.6331 843.4295 18.2058 843.0052 21.115 840.2882 21.5606 837.9056 21.6491 837.693 22.1374 835.8213 22.4965 832.8425 22.1016 832.4585 23.7335 830.5044 24.0859 830.2499 24.6628 828.123 22.7327 826.1603 21.2353 827.0931 21.4577 826.072 18.516 824.2345 15.4874 821.971 16.4169 819.5045 16.7249 819.4201 16.7707 818.6966 14.3141 816.3069 14.227 815.9661 11.1138 812.4254 11.0263 812.2549 10.5868 812.1687 10.4114 811.9554 11.1734 806.1684 9.8567 805.1861 9.9893 804.931 12.6763 802.9797 17.2037 803.6294 17.9534 802.7373 18.2269 798.822 21.4035 794.4455 20.9216 793.7207 21.3197 792.7426 21.2797 791.125 21.3239 791.04 21.3249 790.6144 19.4878 786.7364 22.4925 780.6568 22.5369 780.4866 23.2856 779.9777 23.7342 776.3181 24.8418 772.873 28.0601 769.2627 27.7539 768.6235 27.6226 768.3678 28.5635 761.1338 35.7705 762.3857 40.9194 760.2697 43.2898 761.8077 48.1709 761.351 55.4228 762.2619 58.5808 765.4191 64.423 767.646 65.4366 766.5842 71.7184 768.8545 72.2002 769.6644 75.0545 771.1607 75.2744 771.1612 77.9119 771.3374 91.7944 776.1356 102.0868 774.1575 107.7973 776.5109 124.6775 777.9087 125.2047 778.08 133.9064 779.8857 145.9615 775.7813 151.4633 772.7701 155.9937 771.8 163.5629 768.1116 163.6069 768.1117 168.0516 765.9069 168.0959 765.7367 173.1157 761.6174 175.8809 764.0064 179.4028 761.4591 185.2465 763.3429 195.4543 758.9349 200.7202 764.3078 204.5266 774.573 212.2126 779.0987 215.194 783.8713 220.874 779.1138 Z" fill="#d1e5f0">
      <title>
        名間鄉 Mingjian Township
      </title>
    </path>
    <path d="M 385.2867 913.9854 386.9937 921.5214 387.0815 921.6918 390.33 927.6546 396.3123 927.9592 396.5271 932.6417 393.0067 933.6168 387.6769 939.655 383.1742 953.1005 385.635 955.6998 385.6788 955.8701 388.4908 959.0232 388.487 962.4284 391.8286 964.2624 389.4464 969.9635 392.8087 992.7396 392.8081 993.293 394.8253 999.4246 393.8476 1008.1494 393.7591 1008.5749 398.11 1013.4747 406.8647 1015.3996 407.1286 1015.485 409.2821 1018.0838 411.7397 1024.386 414.1579 1026.4742 421.0221 1027.1197 425.8158 1030.1041 425.8598 1030.1042 427.2226 1031.4676 426.7727 1041.3848 429.4559 1042.6644 429.8482 1046.5808 429.8481 1046.6659 430.8125 1050.4977 427.6823 1056.1132 424.2917 1057.9401 421.9551 1061.8963 421.8585 1070.324 421.8141 1070.7497 422.4731 1071.9847 421.4511 1081.5608 421.8859 1086.7967 418.7575 1090.071 417.5173 1097.6463 420.3708 1105.1406 419.3087 1110.673 421.1933 1118.8473 425.722 1124.1725 427.4322 1130.8994 430.2466 1133.9669 436.7158 1136.1865 442.9176 1142.0237 440.1879 1142.3191 439.8795 1142.4891 436.6637 1144.6568 429.2677 1144.6071 424.1557 1149.7949 425.2523 1153.8396 417.9815 1160.1744 418.7258 1164.2188 421.6268 1169.0742 412.2421 1175.4492 411.6689 1176.2573 412.2787 1182.5575 406.0682 1184.6367 391.6963 1200.7104 387.7732 1204.4091 384.1557 1210.2363 381.4236 1211.9783 380.9831 1212.1055 379.879 1214.8709 379.4819 1215.5941 378.5868 1227.8942 379.4195 1231.3854 378.5277 1240.9188 378.7779 1253.0074 379.8305 1256.7543 378.3694 1263.3927 376.1221 1264.3265 374.3548 1269.0916 370.1664 1272.6621 370.1223 1272.662 362.458 1273.1209 352.9071 1267.7034 351.1465 1266.8074 345.3385 1262.3307 337.3277 1258.4895 332.5244 1260.5263 328.9579 1259.8405 323.4512 1260.8546 317.1178 1254.5038 305.1431 1251.252 302.1183 1241.4578 302.3915 1235.2438 302.1721 1234.6902 300.5482 1230.857 301.8329 1225.5383 300.471 1223.323 300.3831 1223.1952 292.8125 1220.6302 292.5083 1217.9057 289.1671 1214.155 289.1291 1210.1113 289.1292 1210.0262 279.9267 1209.5016 277.6871 1205.4546 272.0981 1203.3177 262.8603 1197.4719 261.8928 1196.7042 253.5383 1189.4123 247.862 1187.1046 243.2446 1183.5642 241.0527 1177.7718 240.6135 1177.09 237.934 1173.2973 235.5565 1173.2507 233.0985 1168.7347 230.4148 1167.5384 228.1355 1161.5754 233.8232 1156.7327 235.5497 1151.0319 235.7266 1150.564 238.1573 1144.9921 234.0318 1137.366 231.1305 1134.8924 231.087 1134.5518 232.7284 1127.1057 235.776 1121.1092 235.3922 1113.7023 237.6855 1111.1522 232.9407 1105.6534 232.369 1105.3119 236.1258 1096.2093 235.9564 1092.2079 232.9263 1088.074 226.6352 1086.233 227.8716 1083.8941 228.0924 1083.5114 228.8466 1079.9797 222.4182 1081.3308 222.6434 1078.3942 222.864 1078.0541 225.377 1075.5896 231.1468 1073.2158 234.9739 1074.4567 235.685 1070.329 239.7775 1070.719 240.2224 1067.8679 244.8018 1066.5985 244.7583 1066.3005 245.6421 1064.0885 245.7313 1063.3651 245.7756 1063.2374 246.0407 1062.5994 246.4448 1057.7051 244.4343 1049.1888 244.0388 1048.8476 237.8373 1046.5814 237.4866 1045.772 236.8299 1043.6852 231.1516 1044.4418 230.7997 1044.3136 225.3537 1037.8344 224.6117 1034.3002 224.0396 1034.2992 223.5551 1034.5538 223.3348 1034.6811 220.2489 1037.8256 216.5962 1037.8618 214.4001 1035.4317 213.0015 1029.9383 207.6434 1023.9697 199.5103 1019.6135 193.3631 1012.2385 193.59 1008.4932 203.9368 1005.0642 205.6558 1003.4498 206.017 998.3 208.0458 995.622 210.9909 997.3299 221.3792 995.007 226.5691 996.2503 228.9953 992.6364 229.0498 986.4645 235.9163 984.9438 246.0362 984.918 248.1548 980.8352 248.1989 980.7502 252.6446 979.6081 255.2036 975.228 255.2917 975.1431 262.8629 972.8566 266.7771 973.8844 271.0491 971.1668 273.652 966.5738 273.7401 966.4888 274.2684 966.2768 279.4654 962.7093 280.396 958.2839 283.9641 955.3098 285.0244 952.3318 283.2289 946.9233 282.9233 945.3053 277.559 943.5094 276.993 939.6351 282.3199 937.0468 288.8906 926.3727 292.0739 915.5233 297.9644 918.2135 308.3907 917.5475 312.4862 914.3183 312.5742 914.2759 319.4812 913.6044 319.9652 913.5625 326.6965 912.7204 327.2242 912.8063 329.9943 913.6187 330.1262 913.6615 332.94 914.7719 349.3885 917.177 349.5204 917.1772 360.8677 918.6386 364.6069 918.5155 364.8708 918.5158 364.8708 918.4733 377.4089 917.4241 377.6289 917.2967 377.717 917.2542 385.2867 913.9854 Z" fill="#2166ac">
      <title>
        鹿谷鄉 Lugu Township
      </title>
    </path>
    <path d="M 431.3542 588.2787 435.2576 595.391 432.5713 601.6457 433.887 604.1583 433.8376 609.777 435.5029 614.2906 434.6653 617.0992 429.2139 619.9032 425.0395 619.8565 421.4314 624.6628 417.3451 624.3181 416.3257 632.7451 420.8028 637.8151 420.8024 638.1556 420.2288 640.411 420.9662 649.8614 418.589 653.9027 419.4204 657.394 419.4202 657.5643 427.3277 660.637 436.8635 661.5828 439.3224 663.7986 444.8586 665.1659 446.3457 672.8717 447.531 674.4052 446.4704 680.6188 447.3415 689.1754 446.4141 693.9419 448.6099 695.9019 450.3189 701.6499 446.8871 705.1797 448.9517 706.5863 454.7012 716.2114 454.3904 719.6589 451.3987 722.5081 451.3107 722.6783 450.0314 727.6148 454.9981 728.2152 458.8643 730.73 461.446 744.3108 464.6988 744.6541 464.0334 751.5917 467.0644 754.3611 470.7088 759.8126 467.1869 765.3857 466.612 769.3013 468.1894 775.6023 464.1891 774.9604 458.513 779.9782 454.9505 781.2946 457.2776 784.9148 457.2714 791.853 455.4223 794.5755 455.9015 799.5561 458.3176 802.1548 459.4129 806.5826 458.1783 810.4124 458.1343 810.54 456.5008 817.8173 457.1099 825.2242 454.864 828.7552 448.9713 828.9627 445.4488 833.7693 442.5043 831.8937 437.3125 834.7407 433.6214 831.8001 426.2772 832.2185 425.9253 832.2607 424.7381 832.1318 424.6942 832.0892 422.4083 831.2782 415.5449 834.5061 411.4508 838.6733 400.3294 834.49 397.3358 837.4663 392.5413 838.4825 389.8555 841.374 389.8114 841.5016 385.9378 844.6471 379.6085 841.7453 375.5168 843.358 359.4666 842.317 359.2468 842.2316 353.401 839.7981 347.8978 844.601 344.4674 844.7243 338.9299 841.9929 336.5149 839.1378 332.5543 841.2183 332.466 841.5161 328.5498 843.2135 322.9215 842.6525 322.5255 842.8222 317.5101 844.3051 320.8473 847.9278 312.1362 850.4696 310.7224 855.0647 308.216 854.7632 304.7022 851.6934 300.4801 851.8151 296.9248 847.0851 295.0316 848.5296 294.9876 848.5295 290.8594 844.6925 286.0654 845.0684 282.4239 839.4017 278.9507 838.8005 273.9992 827.2576 270.348 828.1459 267.4931 825.9706 262.6979 827.1974 262.6539 827.2399 262.3456 827.5374 258.517 829.2765 255.9269 826.5481 252.2319 827.3083 247.4439 824.1506 240.5836 824.3521 239.7889 826.2663 238.9572 824.0089 233.4647 821.4883 234.7482 816.5954 234.7924 816.4252 232.3375 811.9942 232.1184 811.5682 230.984 806.3307 227.9115 803.133 228.7548 798.5374 224.679 790.7834 219.5849 787.1991 219.196 783.3249 220.874 779.1138 214.5079 773.9948 215.1323 768.9732 215.0885 768.8454 214.6229 758.6288 209.8333 757.3008 205.2677 753.5894 198.7217 751.1513 187.6881 750.6629 180.968 747.4579 180.9682 747.3302 182.1178 743.7994 190.6986 739.2608 192.8156 735.5189 196.4833 725.1395 200.7074 722.8486 200.9284 722.168 199.8888 713.738 204.8207 708.8093 202.0238 699.8654 198.2951 695.7723 189.3316 694.1809 189.0684 693.8825 192.941 691.2931 198.695 693.4319 204.6794 689.6543 205.2993 687.1015 209.8697 687.4502 212.9607 679.3255 218.9051 673.0362 223.4277 675.4703 224.4348 677.6855 235.251 675.1074 234.4268 668.6785 234.1653 667.4011 234.1738 662.3783 231.9783 661.2253 230.5374 655.7744 231.8598 653.4355 229.673 647.2597 233.2864 641.4343 232.9404 638.1987 234.7505 633.2641 242.4371 635.3627 245.5623 632.218 245.2623 627.6204 249.9203 627.5854 248.5206 623.6671 250.9874 619.9253 254.0201 619.462 263.3745 622.712 263.4624 622.7121 263.5942 622.7123 262.9418 618.4547 266.8564 616.0772 266.4708 609.8193 270.0748 609.2291 275.6614 605.1939 279.1317 605.7526 281.907 601.0746 283.7521 601.2476 283.8839 601.2904 284.7624 601.462 284.9382 601.4197 288.0174 599.0832 291.6276 594.236 298.1309 593.8199 298.433 597.5662 305.0192 600.6831 304.3541 604.8536 309.5779 608.3089 309.7974 608.4795 314.7509 616.7869 314.7501 617.3402 314.7059 617.5104 314.7494 617.8084 314.7052 617.9786 319.9768 618.965 321.5228 613.1356 325.963 611.5241 326.0068 611.6519 329.782 614.2961 330.0018 614.2113 333.6885 617.4512 337.5982 618.2652 342.132 612.2267 347.7585 610.5739 347.8024 610.574 349.9139 608.7463 352.5913 611.0483 360.7668 608.8876 360.9867 608.7176 368.7696 604.13 369.3449 600.768 372.4684 597.4941 373.3527 592.8129 378.9827 587.669 379.1146 587.6266 384.6527 585.7601 388.0308 590.1057 393.3042 589.2178 396.6859 590.5411 401.2995 590.3333 405.0319 592.338 410.4377 590.8965 420.0595 591.2896 420.1913 591.2472 424.8511 588.8256 431.3542 588.2787 Z" fill="#d1e5f0">
      <title>
        中寮鄉 Zhongliao Township
      </title>
    </path>
    <path d="M 737.786 748.2453 732.292 759.3556 732.5123 764.0378 736.6016 769.6985 729.1715 769.7844 716.7295 773.4459 717.3891 775.3188 717.6969 776.0424 717.7409 777.3194 717.741 777.8727 719.6318 783.1082 721.4351 792.7279 728.7783 797.5798 732.0765 802.6874 733.616 807.4546 737.7501 813.9241 741.1369 821.2449 745.0953 826.3522 741.8862 833.9293 740.9633 838.7819 741.7125 850.317 741.5377 858.1491 740.5274 867.9393 736.1734 868.7486 725.5301 868.8773 722.0555 867.4303 718.8011 869.6014 708.8614 871.0915 703.1878 868.9633 702.4841 868.5802 691.4013 862.4505 691.1374 862.8336 684.1001 870.197 677.5919 859.5551 673.0626 853.9785 668.6209 853.0841 661.8491 847.7625 661.4983 840.5689 655.2539 839.5889 654.4614 844.4837 657.1426 853.0824 654.9434 854.5293 652.9195 859.2962 648.7861 855.9753 642.497 856.6125 639.7255 860.1023 636.7352 858.9097 634.7977 868.6567 632.2461 871.5931 626.176 873.8049 628.2858 878.7005 624.5883 889.128 624.0605 889.0852 623.8846 889.1703 615.4392 890.615 607.61 890.3996 603.0347 893.0796 598.0642 893.6736 592.0827 892.5646 591.8628 892.6071 586.0116 895.6694 585.9676 895.6693 586.3617 899.8835 584.6873 906.6932 584.6432 906.8635 579.9788 910.9477 580.2403 916.311 574.1253 917.7129 572.7605 920.0959 572.5844 920.5215 568.843 925.3296 565.6761 924.6044 565.4561 924.6894 563.1684 925.1139 556.8794 922.1737 556.5276 922.0458 555.3398 922.1729 555.2958 922.2154 553.2707 925.1088 546.6699 929.4042 541.6546 930.0398 541.5666 930.0398 535.0996 930.7595 526.9631 927.9026 526.6113 927.6896 525.688 926.9228 525.4682 926.6673 525.2924 926.4543 523.0946 923.9416 517.8597 924.1509 513.3737 922.7007 505.1043 921.8436 499.4346 915.1567 497.3266 910.6433 496.0553 904.7683 495.9237 904.3425 499.05 899.9181 501.558 898.6855 501.646 898.643 501.734 898.6431 504.1113 895.8355 508.8717 881.4517 512.1281 879.0278 512.6138 876.2614 512.7899 876.1338 516.0462 873.7098 522.7327 871.6711 525.8591 865.799 523.4451 858.1783 518.038 854.8121 517.8181 854.8119 513.9495 852.5533 511.0029 852.5513 507.9266 849.5696 507.7507 849.5694 507.5747 849.5693 505.6401 849.0146 501.2906 843.1374 503.1839 839.989 499.764 825.9824 503.7262 819.7282 502.9373 816.1095 502.8055 815.8966 503.6007 810.8319 508.8828 803.0461 504.3998 800.191 506.7334 795.6807 511.7944 789.2143 514.5216 787.4284 514.4357 784.4488 509.0277 784.5302 506.9646 779.7614 509.8676 777.9756 509.7379 774.8683 507.5882 768.3542 503.8083 766.8191 503.1529 761.2 501.0454 757.325 499.6917 744.9374 497.3637 742.3817 498.9932 738.3817 497.2807 735.7414 496.8013 730.0798 491.9276 722.6697 495.5334 720.8846 501.7757 720.4636 514.7454 717.0674 512.0233 712.511 513.8722 708.5111 511.8539 703.1464 513.3505 699.9976 518.716 695.3615 519.3822 685.1036 528.0855 683.7897 534.4578 684.8153 534.6359 681.0696 537.4945 678.1342 540.4832 678.0083 542.2007 672.1352 545.9827 667.9659 546.0706 668.0086 546.3782 668.1364 546.51 668.2642 547.8276 669.7548 554.6387 671.7165 559.6011 679.1682 559.7768 679.296 567.9504 681.854 570.9798 688.6235 577.7478 690.0739 583.5951 686.3732 586.8931 682.5863 592.0368 679.1406 599.1566 679.7818 600.9573 683.3155 605.3955 685.7859 607.8129 685.6165 613.9652 688.5981 620.8663 686.4294 622.4054 683.9611 622.4933 683.8334 626.055 678.0455 632.6045 674.9825 634.4511 672.131 637.088 672.5148 644.3406 668.1747 652.2949 670.7728 652.3388 670.8154 652.3828 670.9005 655.7228 671.5822 658.7116 670.3057 664.9523 671.2005 665.8308 674.4357 672.9063 678.31 676.6864 674.82 688.2893 674.6081 689.6076 677.3324 690.3987 678.6094 690.3108 678.6094 690.2668 678.652 685.9597 678.7794 687.3658 684.0151 687.3658 684.1854 687.2337 686.9521 687.1898 687.0798 687.2337 688.0163 691.4089 692.1454 691.2328 699.8924 698.661 701.2121 702.8366 706.618 706.4849 708.874 707.6718 711.6408 713.474 714.1095 715.1885 717.6424 720.4636 722.3243 724.8594 723.2605 727.7171 728.1127 722.2664 730.8374 724.2889 736.0728 729.8282 740.4992 730.0481 740.6269 732.466 742.0313 737.786 748.2453 Z" fill="#7fbf7b">
      <title>
        魚池鄉 Yuchi Township
      </title>
    </path>
    <path d="M 671.0223 260.6062 668.5635 270.4814 667.992 278.1008 663.427 283.1231 657.5441 294.6577 656.8848 300.319 649.5979 305.6811 649.3784 306.1067 646.3042 314.4491 645.8203 319.5145 643.4492 323.6855 645.8191 325.4312 644.6769 329.8154 648.3199 331.2208 651.0835 340.7563 647.3499 352.1208 644.6282 351.95 632.6835 368.463 634.7012 375.5722 638.2995 382.5965 640.4944 383.874 647.5632 382.7688 652.7872 385.409 657.5278 391.8799 647.6492 391.4098 645.3658 393.1546 646.1105 401.1573 644.5294 402.9873 644.7909 412.352 639.2585 412.0102 638.7303 417.5437 636.9294 420.0547 636.5325 426.9504 631.3062 430.4395 631.1745 430.482 627.5739 430.098 621.911 424.2648 620.593 426.6055 615.5425 429.0302 614.4021 425.284 611.7683 422.5589 594.2481 422.8931 587.7022 430.5949 586.5584 435.5747 579.709 433.6563 575.3618 433.4414 572.1978 438.4202 569.4748 439.3554 567.0168 437.1407 564.951 440.843 566.7917 448.1653 566.7478 448.2504 562.9261 450.462 563.9318 459.1035 563.0519 462.1252 558.1317 465.0598 556.2409 469.6134 554.2203 470.2508 551.7586 474.5486 551.7584 474.8892 550.0883 476.9314 543.2364 477.9492 537.1717 484.5008 537.1276 484.671 539.9757 496.0805 543.444 498.5939 545.9917 498.2549 555.5204 502.8147 559.9131 501.9231 562.8991 503.4571 562.8069 511.9703 567.5043 516.9529 570.4905 518.4016 570.7539 518.6997 572.2907 519.9348 576.7717 518.5748 577.3868 518.4048 578.0457 518.4051 577.694 519.0434 575.6272 523.895 573.0786 525.8945 573.8678 528.9596 567.1417 539.5979 567.0512 544.9187 565.6882 547.3017 568.7601 553.8584 568.9794 554.6673 569.1548 555.3058 571.0857 559.6485 570.9458 576.3344 570.6381 576.6748 570.7684 579.8673 573.1388 584.2527 573.1826 584.5081 574.3677 586.9775 574.3677 587.0201 568.7001 586.6769 565.1404 588.4629 563.6041 585.525 558.3322 584.8413 555.4304 588.543 547.5206 590.8372 541.1495 591.1741 538.5115 594.2373 534.6438 596.1504 534.5998 596.2355 531.2588 599.128 528.003 605.9791 529.7585 609.2578 528.2174 614.2796 525.097 615.2992 522.8958 621.6827 518.4113 625.3829 518.8904 631.7682 521.173 635.4304 517.2103 646.9205 517.0294 654.5397 518.7821 662.2028 519.3926 669.4394 517.8521 672.8011 517.9353 679.8245 519.3822 685.1036 518.716 695.3615 513.3505 699.9976 511.8539 703.1464 513.8722 708.5111 512.0233 712.511 514.7454 717.0674 501.7757 720.4636 495.5334 720.8846 491.9276 722.6697 489.2017 723.3486 486.0741 731.6891 485.2784 737.3497 482.5505 740.3272 480.876 745.306 473.1803 748.3219 467.0644 754.3611 464.0334 751.5917 464.6988 744.6541 461.446 744.3108 458.8643 730.73 454.9981 728.2152 450.0314 727.6148 451.3107 722.6783 451.3987 722.5081 454.3904 719.6589 454.7012 716.2114 448.9517 706.5863 446.8871 705.1797 450.3189 701.6499 448.6099 695.9019 446.4141 693.9419 447.3415 689.1754 446.4704 680.6188 447.531 674.4052 446.3457 672.8717 444.8586 665.1659 439.3224 663.7986 436.8635 661.5828 427.3277 660.637 419.4202 657.5643 419.4204 657.394 418.589 653.9027 420.9662 649.8614 420.2288 640.411 420.8024 638.1556 420.8028 637.8151 416.3257 632.7451 417.3451 624.3181 421.4314 624.6628 425.0395 619.8565 429.2139 619.9032 434.6653 617.0992 435.5029 614.2906 433.8376 609.777 433.887 604.1583 432.5713 601.6457 435.2576 595.391 431.3542 588.2787 430.5235 584.1064 430.4358 583.9786 428.2879 578.9963 430.4091 566.569 432.918 561.719 432.613 559.0795 432.3938 558.6537 427.741 554.733 423.8448 541.2356 417.7855 538.4201 415.149 539.1409 414.9737 538.8002 412.8678 536.2441 406.672 537.9827 406.2776 537.131 401.5422 529.0383 392.1478 523.7497 379.5 521.2663 382.676 509.7345 380.5685 509.0085 377.3199 507.5574 371.3468 507.1247 371.171 507.167 368.2345 501.9278 363.189 497.4096 360.7354 492.5115 358.2775 491.1889 349.0547 490.709 340.3123 492.3152 336.2286 491.6288 329.8652 487.8319 323.2847 482.2893 323.7269 480.1616 327.86 476.7193 332.5631 473.8737 333.9725 470.8534 333.5394 466.2982 336.7066 462.4714 337.0141 462.3867 343.343 458.6066 347.429 457.2072 347.1308 450.013 352.0554 445.1667 353.7288 441.5081 356.6738 439.2558 358.566 436.1083 357.6049 432.1058 361.2116 427.3854 366.1853 417.6863 370.2303 413.3069 369.8446 405.4742 373.0574 399.1356 375.7829 396.372 377.7213 390.8832 377.1536 388.286 381.5052 383.9918 386.0266 384.5504 386.1144 384.5505 387.9185 381.0621 393.3669 377.1947 393.586 377.5781 393.761 378.0465 393.8487 378.1317 401.1354 379.2891 403.5967 376.7377 409.9211 374.5311 420.8984 372.8398 420.5531 367.1355 420.5093 366.9652 419.0664 361.3449 419.3415 349.9799 420.1346 347.1288 418.5178 339.9759 419.4474 332.4426 419.4124 323.8441 422.091 322.8252 426.8382 316.2747 427.1045 313.2953 422.8967 307.502 430.2803 297.6764 431.2493 294.2295 431.0835 284.3538 433.1931 281.3762 434.6467 275.9291 437.4574 273.9312 439.2592 271.4215 446.0647 267.98 446.9021 264.1071 451.4262 259.8121 459.3241 261.2238 462.6167 259.7369 469.0237 259.8701 473.5385 266.1738 474.0184 269.5795 474.1061 269.7073 475.5936 275.1997 481.3842 278.2692 491.8286 279.1287 499.8187 275.6442 505.655 276.5424 515.6072 291.32 518.5469 292.5138 517.9742 295.7059 522.9675 311.2035 519.7179 313.5851 516.6834 322.139 516.593 326.0125 513.9998 330.9485 515.3993 338.4838 517.3711 343.7208 517.5029 343.6783 520.8 336.4867 524.0479 337.0422 526.0262 332.4889 529.8925 327.0428 531.6515 321.9359 539.8173 319.3443 542.7607 314.9191 541.6226 309.7253 542.2387 307.0014 547.9935 298.1933 547.1212 288.4876 541.8998 286.1009 540.103 281.8431 541.8164 278.8219 544.9331 277.5467 551.8236 277.0823 552.5696 277.2105 564.9 280.8351 568.8935 281.2627 572.7534 285.8618 573.1907 289.3099 578.017 292.5047 586.3116 293.7002 587.1448 295.4032 587.8028 296.042 598.2046 296.3015 604.5267 291.0682 612.428 287.1547 621.6888 286.1786 627.7472 279.6676 635.5166 274.136 646.4465 263.4968 654.0394 259.0287 656.1468 253.4954 658.9115 253.2405 659.0431 253.3256 665.5372 257.8387 671.0223 260.6062 Z" fill="#7fbf7b">
      <title>
        國姓鄉 Guoxing Township
      </title>
    </path>
    <path d="M 624.5883 889.128 622.9591 895.5123 625.289 899.9397 623.484 905.3876 623.7011 915.1777 626.5576 925.0111 623.7855 927.7345 624.0482 932.2039 626.115 934.7584 624.1778 940.419 624.4378 954.2102 626.8569 956.1689 631.5203 956.5958 630.5491 969.1523 630.0647 970.5568 626.2353 976.8128 625.663 977.664 623.8581 981.3241 615.6757 977.1076 609.8683 976.0842 608.3724 975.9985 599.6613 974.8887 592.1841 968.9267 586.9933 966.9666 581.6695 967.3899 577.0921 971.389 575.9029 974.1126 576.5608 978.6674 573.5674 982.0287 560.4112 983.1715 552.7124 981.1668 537.7086 981.7116 533.3522 982.5177 533.2642 982.5177 526.7945 985.5358 521.162 986.426 520.81 986.5109 514.4301 986.5066 514.2101 986.4639 507.6542 986.4594 507.5661 986.6296 506.3273 996.2059 506.4151 996.5039 506.9865 997.3982 507.1184 997.5259 511.2927 1005.9567 514.811 1008.7685 516.5221 1016.0908 518.9387 1021.6684 525.0972 1025.1202 525.273 1025.3757 526.5035 1028.0155 526.6353 1028.271 526.9417 1030.9528 523.3295 1036.5265 519.1808 1054.7842 519.7072 1057.2958 519.7072 1057.381 518.2072 1062.8283 518.7317 1068.2344 525.2407 1075.7726 525.0164 1082.4552 527.0379 1087.394 526.9492 1088.458 530.0698 1095.7386 534.6465 1097.444 537.8984 1106.5123 529.9692 1115.8717 527.1512 1117.0192 522.042 1121.4852 521.7335 1122.0809 518.9586 1124.5052 513.5011 1122.7564 512.0944 1119.861 507.4727 1119.2194 501.6615 1119.9814 501.1332 1120.0236 498.8446 1119.426 498.3166 1119.1702 497.5715 1114.7429 495.1074 1113.4216 490.6604 1114.7803 486.3919 1112.9893 479.7843 1118.8154 476.0415 1120.0893 467.6735 1124.9348 464.545 1128.465 451.4692 1129.9432 451.3809 1130.2411 451.8574 1138.7545 451.7251 1139.0949 442.9176 1142.0237 436.7158 1136.1865 430.2466 1133.9669 427.4322 1130.8994 425.722 1124.1725 421.1933 1118.8473 419.3087 1110.673 420.3708 1105.1406 417.5173 1097.6463 418.7575 1090.071 421.8859 1086.7967 421.4511 1081.5608 422.4731 1071.9847 421.8141 1070.7497 421.8585 1070.324 421.9551 1061.8963 424.2917 1057.9401 427.6823 1056.1132 430.8125 1050.4977 429.8481 1046.6659 429.8482 1046.5808 429.4559 1042.6644 426.7727 1041.3848 427.2226 1031.4676 425.8598 1030.1042 425.8158 1030.1041 421.0221 1027.1197 414.1579 1026.4742 411.7397 1024.386 409.2821 1018.0838 407.1286 1015.485 406.8647 1015.3996 398.11 1013.4747 393.7591 1008.5749 393.8476 1008.1494 394.8253 999.4246 392.8081 993.293 392.8087 992.7396 389.4464 969.9635 391.8286 964.2624 388.487 962.4284 388.4908 959.0232 385.6788 955.8701 385.635 955.6998 383.1742 953.1005 387.6769 939.655 393.0067 933.6168 396.5271 932.6417 396.3123 927.9592 390.33 927.6546 387.0815 921.6918 386.9937 921.5214 385.2867 913.9854 395.4095 909.0167 395.5855 908.9317 405.5286 907.1123 416.3057 906.7831 419.5632 904.3602 419.5632 904.3176 420.0952 900.2745 420.1833 900.1043 421.291 892.1882 421.2533 886.0588 424.0264 883.9333 426.3207 876.6995 430.9891 870.2767 435.5204 869.0042 438.9498 870.1993 443.2175 868.5433 443.9212 868.5014 444.361 868.4592 444.405 868.4592 445.8569 867.9498 449.5491 870.2517 451.5723 870.1684 454.3455 867.5745 455.5363 863.8723 455.407 860.8926 451.6685 861.1021 449.2516 859.0142 450.7073 854.163 447.898 848.4141 443.8124 843.7707 445.6629 840.0267 445.4488 833.7693 448.9713 828.9627 454.864 828.7552 457.1099 825.2242 456.5008 817.8173 458.1343 810.54 458.1783 810.4124 459.4129 806.5826 458.3176 802.1548 455.9015 799.5561 455.4223 794.5755 457.2714 791.853 457.2776 784.9148 454.9505 781.2946 458.513 779.9782 464.1891 774.9604 468.1894 775.6023 466.612 769.3013 467.1869 765.3857 470.7088 759.8126 467.0644 754.3611 473.1803 748.3219 480.876 745.306 482.5505 740.3272 485.2784 737.3497 486.0741 731.6891 489.2017 723.3486 491.9276 722.6697 496.8013 730.0798 497.2807 735.7414 498.9932 738.3817 497.3637 742.3817 499.6917 744.9374 501.0454 757.325 503.1529 761.2 503.8083 766.8191 507.5882 768.3542 509.7379 774.8683 509.8676 777.9756 506.9646 779.7614 509.0277 784.5302 514.4357 784.4488 514.5216 787.4284 511.7944 789.2143 506.7334 795.6807 504.3998 800.191 508.8828 803.0461 503.6007 810.8319 502.8055 815.8966 502.9373 816.1095 503.7262 819.7282 499.764 825.9824 503.1839 839.989 501.2906 843.1374 505.6401 849.0146 507.5747 849.5693 507.7507 849.5694 507.9266 849.5696 511.0029 852.5513 513.9495 852.5533 517.8181 854.8119 518.038 854.8121 523.4451 858.1783 525.8591 865.799 522.7327 871.6711 516.0462 873.7098 512.7899 876.1338 512.6138 876.2614 512.1281 879.0278 508.8717 881.4517 504.1113 895.8355 501.734 898.6431 501.646 898.643 501.558 898.6855 499.05 899.9181 495.9237 904.3425 496.0553 904.7683 497.3266 910.6433 499.4346 915.1567 505.1043 921.8436 513.3737 922.7007 517.8597 924.1509 523.0946 923.9416 525.2924 926.4543 525.4682 926.6673 525.688 926.9228 526.6113 927.6896 526.9631 927.9026 535.0996 930.7595 541.5666 930.0398 541.6546 930.0398 546.6699 929.4042 553.2707 925.1088 555.2958 922.2154 555.3398 922.1729 556.5276 922.0458 556.8794 922.1737 563.1684 925.1139 565.4561 924.6894 565.6761 924.6044 568.843 925.3296 572.5844 920.5215 572.7605 920.0959 574.1253 917.7129 580.2403 916.311 579.9788 910.9477 584.6432 906.8635 584.6873 906.6932 586.3617 899.8835 585.9676 895.6693 586.0116 895.6694 591.8628 892.6071 592.0827 892.5646 598.0642 893.6736 603.0347 893.0796 607.61 890.3996 615.4392 890.615 623.8846 889.1703 624.0605 889.0852 624.5883 889.128 Z" fill="#67a9cf">
      <title>
        水里鄉 Shuili Township
      </title>
    </path>
    <path d="M 1216.0413 912.8457 1215.3168 925.489 1210.5729 929.3711 1207.4061 929.6322 1204.9921 932.6587 1201.6936 933.1329 1202.3219 940.1125 1199.51 942.118 1197.6417 955.2741 1199.7175 959.8249 1199.3757 965.5292 1200.7037 970.0813 1207.5723 972.9209 1207.5346 976.4113 1203.2786 982.974 1199.2366 986.3013 1194.0495 989.0347 1185.7363 990.6666 1183.807 994.5434 1173.1253 1000.7761 1170.7099 1003.5895 1165.7362 1002.7039 1161.3392 1004.6266 1158.1408 1013.1023 1160.75 1021.0577 1164.6291 1025.095 1160.4137 1030.678 1163.4976 1032.7586 1169.2654 1034.4942 1173.5905 1041.8933 1182.0865 1043.2835 1184.333 1044.514 1189.9358 1052.3363 1197.2889 1054.3239 1205.2968 1053.2455 1207.0168 1055.243 1207.4134 1055.5402 1211.5967 1056.8096 1212.6632 1062.4262 1206.8127 1064.0969 1204.3591 1070.2732 1204.5961 1079.6797 1203.9101 1089.8965 1206.2513 1094.5319 1205.9977 1100.3637 1213.0892 1102.9474 1214.019 1105.9252 1218.9617 1112.7691 1225.2124 1112.7575 1225.2565 1112.8 1225.3453 1113.1829 1222.1048 1122.3404 1225.0214 1128.3792 1224.2853 1134.9355 1225.0015 1141.2764 1228.2211 1144.4201 1228.8436 1147.6964 1228.1527 1154.8912 1227.8904 1155.9133 1225.2221 1165.1548 1228.8375 1167.9147 1225.2863 1176.0087 1225.2298 1192.9496 1221.4055 1196.447 1218.6863 1202.326 1215.3012 1205.3117 1212.23 1211.4892 1212.1047 1215.2351 1215.9894 1220.4635 1218.7768 1227.5666 1218.7997 1240.038 1217.6674 1246.9781 1210.8107 1254.482 1210.2924 1260.144 1208.3611 1263.7655 1209.4248 1267.4667 1207.5015 1275.6 1202.5791 1281.6104 1197.577 1292.4732 1195.8187 1294.5194 1195.3133 1307.7153 1196.9085 1313.0756 1196.7898 1320.7374 1194.9518 1327.6786 1189.2409 1336.9676 1187.3991 1341.8657 1182.2527 1346.6417 1179.5481 1362.4803 1177.2194 1366.2724 1174.6382 1377.2158 1174.5063 1377.3437 1174.0224 1377.8127 1173.2302 1378.3674 1167.9471 1380.93 1164.2473 1381.7449 1160.5106 1386.9864 1148.5236 1385.7288 1141.0687 1380.3774 1135.8208 1377.3635 1130.4971 1382.4368 1126.3661 1389.5939 1116.1038 1392.5887 1113.4224 1397.0193 1108.6667 1399.2395 1109.0273 1404.8575 1107.2276 1409.6698 1106.9679 1412.9902 1106.4411 1414.353 1106.3971 1414.3956 1105.5607 1415.0353 1104.3271 1415.2073 1103.4898 1415.1659 1102.9167 1414.9965 1099.917 1412.7874 1092.1161 1411.9471 1088.2311 1406.7171 1082.9857 1405.575 1070.6918 1405.8042 1066.1566 1408.5768 1060.9973 1405.7742 1059.8964 1406.3289 1057.2082 1406.1621 1056.7237 1406.333 1056.504 1406.8014 1056.3282 1407.2273 1055.3622 1409.91 1054.792 1412.0815 1053.9623 1418.1267 1053.8496 1433.7903 1056.8083 1438.5963 1066.4207 1442.4574 1070.4313 1442.6224 1070.4367 1446.7511 1065.8636 1454.8016 1064.1571 1464.4233 1060.6298 1463.4063 1052.4766 1463.7996 1050.0149 1469.1231 1046.2706 1470.7877 1042.7066 1475.8572 1046.6349 1480.4493 1048.8018 1486.1927 1049.2877 1487.0434 1052.118 1494.5737 1047.0208 1507.7322 1046.413 1515.3518 1044.0365 1518.6747 1047.3472 1522.2886 1051.6769 1529.9873 1050.7124 1534.3725 1044.2307 1533.4015 1039.209 1536.8552 1036.3474 1540.2212 1027.3181 1547.5101 1023.2259 1554.5378 1021.8641 1558.9234 1018.4261 1559.8211 1015.3392 1559.2287 1013.1292 1554.1661 1007.5276 1552.0014 1003.7393 1555.1127 991.9589 1546.6123 985.1684 1545.5551 982.3495 1548.3246 970.8451 1550.9747 965.1569 1550.0862 959.1619 1551.1559 953.911 1546.1807 947.1208 1545.2502 943.7724 1547.8921 938.3988 1554.0683 936.3755 1559.8587 928.5289 1561.5676 918.0345 1560.1712 910.0076 1556.5593 902.8195 1554.3938 899.0719 1554.3113 890.0323 1552.1467 890.5225 1560.0632 888.8511 1566.0658 885.2411 1574.5808 885.1114 1578.4968 879.1619 1583.3954 878.9445 1588.2477 877.404 1592.7604 870.2632 1597.1488 867.8836 1599.704 861.7108 1600.9419 859.1116 1605.2848 861.5847 1611.8807 861.6731 1612.2212 861.6731 1612.2637 860.2212 1618.2234 853.872 1620.2699 851.1422 1628.4435 843.7797 1633.0867 840.0778 1638.3664 832.0107 1646.0741 831.9673 1647.6064 838.8492 1651.3488 842.6881 1655.3053 852.967 1660.1522 855.8818 1667.3013 861.1754 1668.7029 864.7935 1671.127 871.3664 1672.8257 869.7368 1676.785 865.2828 1678.3624 860.0385 1686.5801 860.2614 1690.8363 858.6752 1694.0294 858.4109 1694.7531 857.265 1696.4988 856.8239 1696.5842 847.9133 1696.1633 841.8281 1700.4227 835.5209 1701.958 829.2146 1705.749 821.2752 1707.9231 821.0563 1711.8816 817.1314 1714.82 811.7059 1716.0991 807.517 1721.3359 798.3854 1721.935 796.8864 1724.5318 791.7701 1728.1939 785.7266 1729.3449 785.3737 1729.345 785.0646 1728.3662 784.9763 1728.0257 783.1223 1723.9827 776.1502 1716.9192 776.2356 1705.6825 780.6455 1700.8717 783.5566 1699.8919 786.5106 1694.7835 784.7445 1689.1231 778.3911 1682.9532 775.8315 1677.7612 771.9487 1672.4418 769.3019 1670.7824 762.8181 1670.6136 754.7469 1672.2752 748.6597 1669.765 743.455 1668.8719 722.9449 1661.9363 717.0346 1657.2547 705.7879 1657.7231 702.9211 1657.638 697.5403 1657.638 694.85 1654.3605 689.8222 1651.9342 686.8671 1654.0622 679.3694 1653.934 671.7832 1656.6572 664.7703 1658.2312 659.4773 1660.8267 652.1115 1661.7193 647.4807 1660.3564 640.4249 1655.9283 633.2816 1649.3293 626.7544 1648.9445 622.3428 1653.157 619.1671 1654.0499 610.7447 1649.2801 604.9236 1647.7033 599.3676 1644.9772 593.0174 1643.4425 587.0186 1645.3554 586.71 1645.2276 580.9336 1642.6288 574.4944 1643.1366 562.4988 1642.5775 557.8673 1644.1074 555.3539 1643.1697 548.0326 1643.719 538.1096 1643.5005 537.4039 1643.6704 531.4497 1644.0924 527.6996 1646.3459 527.4334 1648.857 523.3275 1655.4942 523.0165 1659.1545 520.8544 1660.5577 512.4747 1660.169 505.7276 1658.632 496.3366 1654.1561 493.1196 1650.6209 487.0352 1648.1051 476.2729 1649.416 472.5251 1648.1786 466.1738 1648.7691 457.7923 1650.8901 453.56 1648.9284 443.5041 1649.2598 438.6053 1652.8305 432.7862 1650.0157 426.1753 1645.3273 424.1969 1639.0685 420.7194 1632.5528 415.2126 1626.8863 413.4598 1615.9457 411.7427 1613.3901 412.0626 1602.4942 408.672 1597.8938 406.958 1592.4864 407.1353 1591.5928 409.3494 1582.6568 409.1327 1579.0812 406.8471 1572.1835 407.601 1568.1408 401.1278 1560.4724 400.9142 1554.1302 399.6403 1549.7873 402.1573 1546.087 397.7537 1541.4003 395.8624 1537.3121 390.4044 1529.5594 386.6656 1522.064 383.6286 1517.8893 379.0041 1514.2661 378.2253 1501.5812 379.4687 1493.6232 384.3261 1486.0099 384.7708 1482.5627 387.2839 1481.9697 387.6808 1481.7999 390.8993 1480.9522 393.372 1477.0391 389.6751 1472.055 393.3367 1469.1222 398.1476 1462.9557 400.4851 1461.4685 400.5734 1461.3835 402.8248 1457.9383 401.3307 1453.8931 404.3802 1445.9369 403.635 1442.1479 405.2677 1440.2343 400.6493 1431.8442 402.1567 1423.4182 404.627 1421.0798 404.7597 1420.6118 404.1013 1418.2275 407.3233 1413.3786 410.762 1411.9351 412.1333 1406.914 408.8297 1405.6336 402.7544 1400.3492 396.9488 1390.3403 395.7193 1386.423 395.9401 1385.9977 396.1608 1385.6574 398.8526 1381.9573 396.917 1379.1033 389.3858 1376.2006 393.4022 1369.9482 397.8526 1369.6126 396.3141 1366.376 397.95 1361.185 403.591 1359.7439 405.3136 1355.617 411.8389 1351.0696 408.6281 1346.0011 408.369 1340.9782 408.3691 1340.8931 403.7478 1336.6743 400.7527 1336.1603 394.8572 1329.0882 393.895 1322.745 394.9541 1321.0862 393.9468 1315.722 391.3062 1313.5483 390.211 1308.0988 390.9675 1301.2468 389.6053 1298.3083 389.5687 1291.6683 388.3382 1289.1556 380.768 1283.9966 378.35 1280.0779 371.4377 1277.7287 371.0421 1277.0047 370.1223 1272.662 370.1664 1272.6621 374.3548 1269.0916 376.1221 1264.3265 378.3694 1263.3927 379.8305 1256.7543 378.7779 1253.0074 378.5277 1240.9188 379.4195 1231.3854 378.5868 1227.8942 379.4819 1215.5941 379.879 1214.8709 380.9831 1212.1055 381.4236 1211.9783 384.1557 1210.2363 387.7732 1204.4091 391.6963 1200.7104 406.0682 1184.6367 412.2787 1182.5575 411.6689 1176.2573 412.2421 1175.4492 421.6268 1169.0742 418.7258 1164.2188 417.9815 1160.1744 425.2523 1153.8396 424.1557 1149.7949 429.2677 1144.6071 436.6637 1144.6568 439.8795 1142.4891 440.1879 1142.3191 442.9176 1142.0237 451.7251 1139.0949 451.8574 1138.7545 451.3809 1130.2411 451.4692 1129.9432 464.545 1128.465 467.6735 1124.9348 476.0415 1120.0893 479.7843 1118.8154 486.3919 1112.9893 490.6604 1114.7803 495.1074 1113.4216 497.5715 1114.7429 498.3166 1119.1702 498.8446 1119.426 501.1332 1120.0236 501.6615 1119.9814 507.4727 1119.2194 512.0944 1119.861 513.5011 1122.7564 518.9586 1124.5052 521.7335 1122.0809 522.042 1121.4852 527.1512 1117.0192 529.9692 1115.8717 537.8984 1106.5123 534.6465 1097.444 530.0698 1095.7386 526.9492 1088.458 527.0379 1087.394 525.0164 1082.4552 525.2407 1075.7726 518.7317 1068.2344 518.2072 1062.8283 519.7072 1057.381 519.7072 1057.2958 519.1808 1054.7842 523.3295 1036.5265 526.9417 1030.9528 526.6353 1028.271 526.5035 1028.0155 525.273 1025.3757 525.0972 1025.1202 518.9387 1021.6684 516.5221 1016.0908 514.811 1008.7685 511.2927 1005.9567 507.1184 997.5259 506.9865 997.3982 506.4151 996.5039 506.3273 996.2059 507.5661 986.6296 507.6542 986.4594 514.2101 986.4639 514.4301 986.5066 520.81 986.5109 521.162 986.426 526.7945 985.5358 533.2642 982.5177 533.3522 982.5177 537.7086 981.7116 552.7124 981.1668 560.4112 983.1715 573.5674 982.0287 576.5608 978.6674 575.9029 974.1126 577.0921 971.389 581.6695 967.3899 586.9933 966.9666 592.1841 968.9267 599.6613 974.8887 608.3724 975.9985 609.8683 976.0842 615.6757 977.1076 623.8581 981.3241 625.663 977.664 626.2353 976.8128 630.0647 970.5568 630.5491 969.1523 631.5203 956.5958 626.8569 956.1689 624.4378 954.2102 624.1778 940.419 626.115 934.7584 624.0482 932.2039 623.7855 927.7345 626.5576 925.0111 623.7011 915.1777 623.484 905.3876 625.289 899.9397 622.9591 895.5123 624.5883 889.128 628.2858 878.7005 626.176 873.8049 632.2461 871.5931 634.7977 868.6567 636.7352 858.9097 639.7255 860.1023 642.497 856.6125 648.7861 855.9753 652.9195 859.2962 654.9434 854.5293 657.1426 853.0824 654.4614 844.4837 655.2539 839.5889 661.4983 840.5689 661.8491 847.7625 668.6209 853.0841 673.0626 853.9785 677.5919 859.5551 684.1001 870.197 691.1374 862.8336 691.4013 862.4505 702.4841 868.5802 703.1878 868.9633 708.8614 871.0915 718.8011 869.6014 722.0555 867.4303 725.5301 868.8773 736.1734 868.7486 740.5274 867.9393 746.9051 871.0031 754.4276 880.4513 759.0476 889.4743 763.7555 897.1777 776.9077 899.4305 781.1767 907.9424 792.1735 908.1094 800.972 911.4266 805.2829 911.5953 809.6825 913.8922 813.5973 913.5076 822.3963 916.9092 828.5549 917.4173 828.6429 917.5024 832.7361 922.2679 836.4751 922.2236 840.9632 924.605 847.4747 926.6875 863.7072 927.0617 871.0117 930.6329 872.3756 930.8449 878.1822 930.6285 888.2131 932.2395 892.5211 927.6396 899.6913 927.4218 911.0811 922.476 922.8695 921.5731 929.5097 918.8437 939.5406 920.5805 943.059 919.7262 946.8825 915.6792 961.393 909.7071 967.2866 908.9354 975.5086 905.1817 975.7217 898.2434 972.8059 885.0509 975.9677 879.8549 982.0806 879.2103 987.7048 873.7989 990.1225 872.562 996.5432 871.9594 1004.9841 868.758 1014.791 867.981 1024.503 861.2873 1031.5747 853.5747 1037.1125 850.7162 1044.8055 848.1104 1050.1193 842.1447 1050.7722 836.6955 1050.727 835.7165 1051.8226 832.693 1052.2616 832.0965 1052.1261 829.2448 1057.9191 820.1285 1057.4289 815.0212 1057.5163 814.5529 1060.9896 814.2079 1065.6553 817.7348 1070.537 818.2818 1086.1967 822.2194 1101.4253 831.8604 1107.4586 837.8535 1120.6571 841.6224 1131.7821 840.967 1142.5152 842.7381 1146.8333 848.0094 1150.573 849.025 1153.3937 852.8088 1156.9158 855.1442 1165.8463 856.8747 1169.589 859.5501 1176.4636 867.6685 1182.1827 868.6378 1187.4685 873.2683 1186.5616 882.9322 1184.2832 887.9589 1188.6959 896.1664 1188.9738 904.2108 1191.5349 909.8675 1198.7087 912.0257 1202.0945 911.3386 1208.2571 913.7112 1216.0413 912.8457 Z" fill="#67a9cf">
      <title>
        信義鄉 Xinyi Township
      </title>
    </path>
    <path d="M 1425.8432 47.7676 1426.4214 50.8309 1432.241 62.6495 1435.3334 71.1548 1438.1511 75.2764 1436.3293 82.8157 1437.967 88.4302 1439 97.4944 1438.1264 98.8163 1429.5286 98.243 1421.7297 101.2856 1417.2961 99.8072 1411.8581 99.9915 1405.7237 102.2632 1405.1539 102.3923 1398.2314 105.2618 1392.2252 106.2984 1389.1191 109.4561 1386.8966 115.2508 1381.8991 116.3272 1375.8199 123.4934 1373.4209 128.9904 1363.4756 133.8669 1356.8219 139.5867 1352.9645 140.7451 1338.6223 141.502 1338.5785 141.5447 1331.7894 145.9446 1325.7386 147.1076 1318.7173 145.9314 1314.9463 146.5782 1314.9525 149.3877 1317.8609 155.2555 1319.079 170.3216 1318.3989 180.071 1319.3364 187.3054 1318.1568 189.5215 1312.3214 189.4066 1306.7453 187.4607 1303.5441 188.1488 1304.9198 195.3396 1309.2225 196.735 1312.0828 200.5598 1311.2345 213.7574 1308.4456 222.5324 1308.3583 222.7454 1305.7087 235.0531 1312.4278 237.5073 1334.0281 242.3116 1335.6581 245.1174 1339.1283 246.6418 1345.1108 252.8854 1349.1186 259.0483 1357.8624 263.6251 1364.9832 268.3757 1373.341 276.4008 1380.7571 276.0848 1391.732 277.3774 1398.016 280.5968 1397.1979 286.8562 1393.7476 293.633 1394.1111 298.5699 1392.5498 306.0656 1386.0258 312.4667 1379.7706 321.2083 1379.916 326.7842 1383.7554 335.1179 1388.0255 340.0452 1386.8077 344.6029 1378.4021 353.903 1370.5562 358.9023 1365.8696 363.3405 1358.5061 368.3383 1354.3108 376.4784 1351.2874 378.9969 1351.1122 379.1676 1347.0386 383.2209 1344.5492 388.8455 1340.4323 393.2819 1333.7484 388.7425 1329.5878 393.3492 1323.9741 396.0861 1321.7857 399.1557 1316.0384 401.1691 1312.4949 407.0511 1309.6453 409.058 1308.5177 415.4455 1312.3916 419.9491 1314.3863 428.4155 1314.6316 440.0782 1307.8947 451.7987 1307.114 456.2699 1303.8714 459.5546 1300.8586 467.6062 1297.5292 471.4869 1297.2224 471.7855 1296.8722 472.297 1296.3217 481.8331 1291.6405 490.3989 1291.4253 492.4852 1287.4817 496.8778 1284.6406 503.4816 1282.8563 511.3601 1280.0565 516.8144 1275.105 522.6563 1272.1325 529.6858 1266.9195 536.7199 1264.6016 541.79 1264.6112 546.5574 1265.9783 549.1512 1267.6797 564.8547 1270.4572 569.6165 1270.5895 569.8716 1273.636 577.1868 1277.2837 577.7327 1290.4633 577.3646 1294.0818 584.7635 1295.1962 592.2954 1299.2488 597.0967 1299.6893 597.6491 1296.4491 602.8492 1294.4854 609.2383 1294.3637 613.9634 1295.6486 618.9409 1293.4716 628.3527 1287.8175 635.2603 1292.7066 640.5708 1291.1776 644.8732 1292.2401 648.5316 1288.3898 656.5848 1291.9146 660.8339 1291.6163 665.2615 1293.8255 670.7904 1291.0266 677.3089 1293.3209 681.5181 1293.4539 682.0286 1293.7637 683.0495 1297.16 688.661 1294.4543 697.7759 1296.7093 703.9858 1295.0448 706.7135 1294.9689 712.375 1296.4283 716.5008 1294.0224 721.9969 1285.3234 724.2287 1279.9582 723.0905 1270.6502 728.5155 1266.9219 732.5669 1270.1856 737.7958 1270.1911 740.4775 1276.6103 740.9326 1275.1255 745.7456 1276.2308 748.7655 1276.4076 749.2333 1275.7197 756.7689 1279.4665 761.5711 1279.3866 765.4448 1281.3309 770.1656 1280.8104 773.5719 1275.7553 774.0506 1271.5869 778.1454 1270.7151 781.8505 1273.2338 787.9748 1274.7896 796.2294 1268.2842 797.2216 1261.029 797.1086 1259.0186 803.2421 1251.3744 806.6199 1251.2603 815.644 1249.6432 820.67 1246.8297 821.1011 1246.3906 821.3999 1245.255 825.4033 1245.9242 830.2971 1243.393 840.2624 1234.7428 847.1321 1232.6918 855.5214 1225.4949 863.8778 1224.543 872.2225 1221.4828 882.1885 1222.2837 887.1246 1219.4443 897.6861 1220.8598 901.9826 1223.8555 904.4458 1216.0413 912.8457 1208.2571 913.7112 1202.0945 911.3386 1198.7087 912.0257 1191.5349 909.8675 1188.9738 904.2108 1188.6959 896.1664 1184.2832 887.9589 1186.5616 882.9322 1187.4685 873.2683 1182.1827 868.6378 1176.4636 867.6685 1169.589 859.5501 1165.8463 856.8747 1156.9158 855.1442 1153.3937 852.8088 1150.573 849.025 1146.8333 848.0094 1142.5152 842.7381 1131.7821 840.967 1120.6571 841.6224 1107.4586 837.8535 1101.4253 831.8604 1086.1967 822.2194 1070.537 818.2818 1065.6553 817.7348 1060.9896 814.2079 1057.5163 814.5529 1057.4289 815.0212 1057.9191 820.1285 1052.1261 829.2448 1052.2616 832.0965 1051.8226 832.693 1050.727 835.7165 1050.7722 836.6955 1050.1193 842.1447 1044.8055 848.1104 1037.1125 850.7162 1031.5747 853.5747 1024.503 861.2873 1014.791 867.981 1004.9841 868.758 996.5432 871.9594 990.1225 872.562 987.7048 873.7989 982.0806 879.2103 975.9677 879.8549 972.8059 885.0509 975.7217 898.2434 975.5086 905.1817 967.2866 908.9354 961.393 909.7071 946.8825 915.6792 943.059 919.7262 939.5406 920.5805 929.5097 918.8437 922.8695 921.5731 911.0811 922.476 899.6913 927.4218 892.5211 927.6396 888.2131 932.2395 878.1822 930.6285 872.3756 930.8449 871.0117 930.6329 863.7072 927.0617 847.4747 926.6875 840.9632 924.605 836.4751 922.2236 832.7361 922.2679 828.6429 917.5024 828.5549 917.4173 822.3963 916.9092 813.5973 913.5076 809.6825 913.8922 805.2829 911.5953 800.972 911.4266 792.1735 908.1094 781.1767 907.9424 776.9077 899.4305 763.7555 897.1777 759.0476 889.4743 754.4276 880.4513 746.9051 871.0031 740.5274 867.9393 741.5377 858.1491 741.7125 850.317 740.9633 838.7819 741.8862 833.9293 745.0953 826.3522 741.1369 821.2449 737.7501 813.9241 733.616 807.4546 732.0765 802.6874 728.7783 797.5798 721.4351 792.7279 719.6318 783.1082 717.741 777.8727 717.7409 777.3194 717.6969 776.0424 717.3891 775.3188 716.7295 773.4459 729.1715 769.7844 736.6016 769.6985 732.5123 764.0378 732.292 759.3556 737.786 748.2453 737.6978 745.9042 734.4001 740.5839 734.1803 740.2859 730.1353 733.7738 728.8161 728.3255 729.6949 724.6647 727.7606 722.5366 721.0349 720.6642 718.661 716.5355 726.7047 712.1932 730.3093 714.0658 733.2982 712.6183 727.0118 704.6591 726.792 704.4037 719.671 698.0619 722.22 693.9328 726.132 695.9757 728.5931 692.9533 731.8459 695.1664 734.351 693.2933 734.7023 690.0157 738.8773 686.4397 746.7885 685.7149 750.744 684.5224 751.6675 687.4168 759.4471 688.0538 761.6467 697.3327 761.78 704.1432 764.2866 709.5485 768.3753 713.2083 771.0568 713.8461 771.052 694.1807 772.3686 686.2206 779.8383 678.1737 786.9136 675.9583 787.3071 668.9348 785.1533 667.9138 780.9354 672.3419 776.365 673.8329 771.0048 680.6022 765.3352 681.1995 762.7426 683.4135 757.5998 681.0308 754.6103 676.5194 751.6216 676.2645 748.8083 673.2854 748.9402 673.2002 754.7846 668.1339 760.9795 659.0236 765.7247 654.1275 768.9766 653.318 774.8218 654.3381 779.1278 651.2723 783.3003 642.9707 782.5525 640.417 782.4646 640.2893 780.7942 638.7574 771.4783 639.7388 765.4134 637.5268 763.6988 633.9942 763.6549 633.8665 763.6984 632.0787 763.8302 631.8659 763.214 626.9709 758.9069 623.4388 757.8076 619.6932 758.5534 613.6913 763.3868 613.3498 765.8471 611.5189 760.0902 607.7743 758.1556 601.3472 760.0877 595.8558 765.2727 597.4297 768.4814 602.5369 770.6335 598.9182 774.4557 597.3849 777.3988 594.4897 784.6041 592.9979 788.8222 593.6351 789.7022 597.4232 792.2511 599.125 793.9662 603.8919 803.1538 615.9775 806.2738 616.4872 809.4391 620.6149 812.3878 632.5748 814.675 637.7244 815.7764 644.7048 819.9942 642.447 827.3771 642.7844 831.0695 645.0813 837.8372 645.2909 842.6281 647.0338 845.5717 645.4999 846.3157 639.4978 848.1155 635.8787 851.4539 633.323 852.3307 629.449 850.4384 624.2144 851.2719 621.66 857.1133 616.3787 865.8048 601.4331 861.4079 595.9871 860.7893 589.9431 867.864 591.4288 871.4197 586.1059 876.0318 584.2728 876.1195 584.0173 876.6874 578.7388 878.6197 577.4606 878.8393 577.3328 879.1907 577.1197 884.591 571.6252 886.4765 566.0904 891.0424 561.4051 887.4342 552.7665 887.0366 549.3615 883.9135 543.1914 877.8488 539.2367 875.387 536.2585 869.8069 534.2613 868.2674 530.7718 868.308 525.3233 870.1072 522.3426 865.8861 515.1088 859.3434 518.7307 857.5005 522.435 857.1933 522.9034 854.2076 525.161 853.5944 528.5241 850.4324 529.7602 845.1161 527.7198 837.9564 528.3618 832.1133 526.5342 822.45 527.9858 819.4626 526.9229 812.2562 520.8814 806.0613 517.0528 802.5043 519.608 794.3349 522.0796 792.7104 524.4213 785.7704 525.3599 785.1994 525.4878 779.0055 524.5956 772.5923 524.725 766.529 518.2138 761.7396 510.7657 761.4754 507.7861 761.607 506.7219 762.9238 502.7204 767.7976 495.4831 766.8739 489.4815 760.5477 481.8209 752.2473 483.8231 747.6354 481.8232 738.1928 482.4205 734.7665 477.7386 730.0668 473.1419 722.7761 468.3325 719.4819 462.5862 718.6912 458.6702 709.4249 455.6057 705.3847 459.5644 700.8175 459.7773 699.2365 459.5644 686.9405 452.1148 686.9849 445.1339 682.2865 440.3662 674.9541 429.8516 671.0023 428.7018 666.4793 429.7654 661.3862 425.9763 657.3474 420.0163 647.6434 419.9294 644.7909 412.352 644.5294 402.9873 646.1105 401.1573 645.3658 393.1546 647.6492 391.4098 657.5278 391.8799 652.7872 385.409 647.5632 382.7688 640.4944 383.874 638.2995 382.5965 634.7012 375.5722 632.6835 368.463 644.6282 351.95 647.3499 352.1208 651.0835 340.7563 648.3199 331.2208 644.6769 329.8154 645.8191 325.4312 643.4492 323.6855 645.8203 319.5145 646.3042 314.4491 649.3784 306.1067 649.5979 305.6811 656.8848 300.319 657.5441 294.6577 663.427 283.1231 667.992 278.1008 668.5635 270.4814 671.0223 260.6062 676.9021 267.673 679.1401 269.2481 684.5819 269.8019 690.5504 268.9084 698.2304 268.9512 705.0766 271.8884 706.5687 276.0599 708.9825 276.1025 714.1171 273.2929 723.772 271.0789 726.1417 269.1632 730.3987 270.4824 730.5303 270.525 733.7342 272.1848 739.1316 267.7572 739.4815 258.3499 747.2485 255.4968 752.3827 254.8149 754.6203 252.1753 755.7596 243.3638 761.8584 239.9572 764.0068 232.0393 768.5247 224.4614 769.7959 219.2254 768.9616 216.4587 771.0227 211.9036 774.0933 209.1785 775.7594 204.5809 785.4085 192.7872 793.9618 186.6549 800.7189 188.5681 805.106 188.2686 810.2382 185.9255 813.4427 190.4363 813.927 194.778 816.3861 200.0978 815.5112 206.3555 820.4262 208.567 824.6801 203.9254 825.1166 198.7746 828.973 188.7271 838.9753 187.2325 841.431 184.9753 848.8891 184.5884 854.1995 188.0335 856.3086 193.864 858.0643 195.3103 867.4922 186.8341 870.1664 183.5548 871.0408 178.4888 875.0762 177.2945 880.8676 178.0145 884.8123 172.4356 886.9177 171.8809 892.3099 166.301 896.7385 163.148 901.1252 162.9321 913.1377 153.0051 913.9258 151.0464 921.0754 150.2322 925.4586 145.8443 928.9195 140.3078 933.7408 135.7066 933.1668 131.2375 938.8635 124.7199 939.6928 119.9091 943.4612 115.7343 952.5358 110.5757 952.8426 110.3626 957.0947 107.7621 957.4017 107.7193 957.928 107.7188 964.5911 103.9667 964.7226 103.8814 972.7487 103.7035 976.8733 105.5724 985.4689 104.6699 994.7258 107.1718 1003.8471 105.7148 1006.8311 107.1162 1013.759 105.4059 1019.6817 106.889 1031.5589 99.5111 1033.7907 95.3369 1034.7023 87.5034 1036.8467 83.7124 1040.8327 79.7488 1044.7248 70.89 1052.0042 70.6256 1061.1216 67.3363 1065.2003 67.5864 1070.1536 66.0049 1075.6229 56.8456 1076.4498 52.2472 1080.961 48.2824 1082.973 44.5762 1094.3454 55.33 1097.2897 59.7102 1102.516 65.1514 1104.1877 68.7672 1108.4909 72.5068 1111.7799 72.4169 1117.2109 67.8541 1123.6997 66.8653 1130.1833 62.5561 1130.0918 60.1299 1134.0301 54.7603 1139.6782 49.2603 1149.199 52.4802 1152.3555 52.0069 1152.4432 51.9642 1161.6965 52.4173 1170.8959 46.9533 1175.8042 45.2422 1178.9133 42.8106 1182.3243 37.4838 1183.0249 36.9292 1186.3575 37.0085 1188.4662 39.2184 1199.1737 43.8818 1206.0124 42.8479 1205.5839 48.3398 1210.9389 51.1395 1212.4747 51.6901 1216.3802 53.1727 1220.3768 56.443 1225.8063 52.1761 1232.5123 50.5032 1233.8614 45.2223 1238.2767 38.2753 1241.4159 29.1172 1246.2598 17.4017 1253.735 6.2768 1257.1497 3.7159 1263.5464 1.5747 1264.2914 1.4029 1264.4667 1.36 1265.1241 1.231 1273.9799 1 1275.8798 8.0197 1274.9202 10.4481 1280.012 13.2044 1280.8541 17.5019 1283.9284 19.9219 1289.3668 20.634 1290.6856 22.2488 1295.9038 22.4505 1298.1571 30.3633 1304.0825 33.1174 1307.939 32.1299 1313.8674 36.1608 1320.8345 34.017 1324.123 33.9671 1328.2495 36.0436 1330.1324 34.9326 1333.1874 28.6682 1338.4033 27.8475 1339.661 21.8426 1339.88 21.757 1346.2348 20.5078 1348.8352 26.2484 1353.1763 26.3659 1358.9138 23.6707 1363.3422 23.6176 1369.1736 23.5185 1373.7806 24.8269 1379.625 30.006 1384.8422 29.7378 1389.4412 27.7257 1400.7637 31.6562 1418.1958 41.0618 1425.8432 47.7676 Z" fill="#67a9cf">
      <title>
        仁愛鄉 Ren&apos;ai Township
      </title>
    </path>
  </g>
</svg>
