<?xml version="1.0" encoding="UTF-8"?>
<svg xmlns="http://www.w3.org/2000/svg" baseProfile="tiny" width="1440" height="700">
  <g id="town" stroke="#000" stroke-width="1">
    <path d="M 131.4036 353.0979 131.7875 354.7349 134.7648 356.128 136.5845 354.5291 138.8175 355.5739 139.5217 358.5016 140.137 358.6607 140.3559 361.3038 144.7125 367.5455 141.33 371.5306 141.0015 372.9767 142.5266 372.3835 150.9473 374.4216 152.8843 377.0383 155.3488 376.6365 157.7688 380.3556 159.1741 387.5006 159.2389 387.5323 163.8038 389.37 167.5651 388.9088 172.2419 385.6189 176.3891 386.1968 179.5275 388.2189 183.7046 389.7405 185.9362 391.5083 190.5348 392.9994 197.2716 394.9681 205.1074 398.1034 202.6649 402.3437 200.7157 403.9114 198.5466 402.8989 191.7757 401.465 191.1879 403.0363 190.6346 403.8527 190.5045 404.0411 190.309 404.3866 192.2191 405.2726 198.3375 408.3091 199.0108 411.0478 192.5482 415.3086 189.5631 416.2757 184.5548 422.0502 181.2831 421.0974 173.1171 419.9107 165.6 418.5367 166.2532 428.1332 161.6196 427.3335 161.1661 427.2064 156.3764 424.3299 150.119 424.5004 146.2009 422.9475 145.3564 423.5113 140.4178 427.1458 137.8595 426.2259 135.587 427.2572 126.7087 425.7519 124.0776 427.4111 119.1891 425.2255 118.9974 424.3127 117.6362 424.1826 115.7566 423.9566 112.0298 423.5361 112.2975 420.863 107.4063 419.5894 104.2305 419.2334 100.7984 417.9013 91.6895 417.7464 86.6003 417.6042 81.8681 417.3686 79.7151 411.6047 77.5602 406.4386 75.4054 401.3038 70.0456 394.9945 53.0173 388.6771 43.3382 385.0891 1 369.4613 2.9566 366.1967 6.4704 362.4974 11.5355 359.9362 13.097 358.3374 7.1415 356.2397 7.8611 354.4177 14.2353 357.209 18.737 358.0745 23.3147 346.7344 23.8693 345.6982 29.6488 342.5728 34.6182 330.1642 36.4391 328.3774 39.0539 321.969 45.396 305.8213 45.4929 305.9161 46.4611 307.0204 47.4936 308.2509 48.5912 309.4186 49.6887 310.6177 50.7863 311.7855 52.9169 314.0577 54.0149 315.131 55.1128 316.2358 56.1784 317.309 58.3423 319.3611 69.1658 328.6776 70.0385 329.3411 75.6634 333.3549 83.5345 334.3244 83.6316 334.3562 82.1547 340.0453 103.9991 349.2383 106.148 346.0678 113.1738 348.1031 125.3817 351.1921 131.4036 353.0979 Z" fill="#d1e5f0">
      <title>
        龍井區 Longjing District
      </title>
    </path>
    <path d="M 326.0243 331.1319 324.4624 334.2115 320.994 334.7391 321.0817 339.2692 319.3545 343.827 315.2983 346.398 313.9563 352.6239 316.1577 353.6666 321.9565 354.7169 319.8986 362.3569 315.6408 368.1048 311.1687 367.9065 309.2392 375.8927 306.1879 378.0252 301.4857 379.179 302.3354 375.9721 301.8939 370.4031 293.9537 370.2597 291.6895 368.2728 287.0548 368.3253 286.408 367.6947 286.4425 366.7825 282.9112 366.1768 279.8579 369.1269 277.195 371.3857 273.5231 375.4668 269.6379 373.696 268.3023 376.5556 264.7415 374.6912 262.6965 376.0076 261.6852 378.7105 259.8719 377.9827 259.716 375.4342 256.2186 374.2304 254.0815 373.3759 238.7656 367.6444 233.4196 367.0333 227.4293 364.8789 224.6098 364.8403 212.5291 361.789 209.5838 360.3341 209.1684 358.131 203.0406 359.0899 204.0188 356.859 204.8002 355.5398 205.4859 353.6227 207.7377 347.746 207.7423 346.0158 207.6457 345.7954 208.9214 341.3317 212.3408 334.9862 213.1301 330.6156 213.0981 330.4582 213.3972 327.6277 215.6163 321.6879 216.95 319.6781 220.4457 321.1342 224.2349 321.8675 227.4057 323.6688 233.1689 325.4136 240.5693 320.4617 241.5755 319.7407 241.0661 316.1532 243.5084 311.2832 242.4763 309.3617 243.2077 301.9394 246.4291 296.3478 255.3893 288.8826 256.46 288.1931 259.3753 288.3889 262.0831 294.0263 263.1401 299.0936 269.1187 305.5252 265.1509 311.776 272.1452 313.617 272.1777 313.5856 274.5148 311.798 276.8878 308.4689 282.2105 304.5174 284.7454 301.1571 288.2097 302.2346 292.5789 304.3206 298.1457 307.0069 299.3124 306.8836 308.1811 310.9925 308.7668 309.8298 308.7992 309.8299 317.1177 313.8113 316.2067 315.5396 318.4038 318.4698 318.3388 318.5641 316.3587 320.2586 316.0272 323.7498 316.1798 328.1542 316.9554 329.1311 317.7971 329.5103 317.8619 329.5105 317.9915 329.5107 318.0564 329.448 318.1538 329.3853 322.836 321.7193 325.4939 321.3159 327.5397 319.1495 327.5071 319.2438 324.7082 325.1521 326.0243 331.1319 Z" fill="#67a9cf">
      <title>
        大雅區 Daya District
      </title>
    </path>
    <path d="M 256.46 288.1931 255.3893 288.8826 246.4291 296.3478 243.2077 301.9394 242.4763 309.3617 243.5084 311.2832 241.0661 316.1532 241.5755 319.7407 240.5693 320.4617 233.1689 325.4136 227.4057 323.6688 224.2349 321.8675 220.4457 321.1342 216.95 319.6781 215.6163 321.6879 213.3972 327.6277 213.0981 330.4582 213.1301 330.6156 212.3408 334.9862 208.9214 341.3317 207.6457 345.7954 207.7423 346.0158 207.7377 347.746 205.4859 353.6227 204.8002 355.5398 204.0188 356.859 203.0406 359.0899 202.1268 361.4468 201.03 371.5419 197.8982 379.0835 197.2151 379.9624 197.15 380.0881 194.0574 384.9872 193.8623 385.2383 190.5348 392.9994 185.9362 391.5083 183.7046 389.7405 179.5275 388.2189 176.3891 386.1968 172.2419 385.6189 167.5651 388.9088 163.8038 389.37 159.2389 387.5323 159.1741 387.5006 157.7688 380.3556 155.3488 376.6365 152.8843 377.0383 150.9473 374.4216 142.5266 372.3835 141.0015 372.9767 141.33 371.5306 144.7125 367.5455 140.3559 361.3038 140.137 358.6607 139.5217 358.5016 138.8175 355.5739 136.5845 354.5291 134.7648 356.128 131.7875 354.7349 131.4036 353.0979 134.58 342.2544 134.3059 336.4652 133.4973 335.9595 134.1489 334.8289 134.186 333.2561 134.2836 333.1306 134.544 332.7539 143.749 321.1733 144.0092 320.8594 147.5555 315.9939 147.7184 315.6798 148.9235 313.5756 147.9255 311.4021 143.6833 310.6346 143.9161 308.6219 144.1502 306.1689 146.3449 298.1535 146.5086 297.5877 146.7049 296.9277 152.6292 298.518 154.695 290.0932 158.1623 289.8201 164.1284 288.107 164.3228 288.1076 168.5657 288.4972 169.1278 284.5351 171.9544 281.7118 172.1166 281.6179 172.8608 281.9346 172.9893 282.3124 173.0213 282.4698 173.4712 283.7294 173.7297 283.9818 182.3629 278.3749 183.9261 275.4221 186.4579 273.636 190.1126 275.7537 193.4154 276.329 204.4277 277.0822 208.4485 275.6772 213.4629 278.27 213.0821 275.249 217.8736 276.394 222.9552 278.1059 228.7747 282.6822 237.8998 286.8892 248.5558 287.9222 256.46 288.1931 Z" fill="#67a9cf">
      <title>
        沙鹿區 Shalu District
      </title>
    </path>
    <path d="M 154.695 290.0932 152.6292 298.518 146.7049 296.9277 146.5086 297.5877 146.3449 298.1535 144.1502 306.1689 143.9161 308.6219 143.6833 310.6346 147.9255 311.4021 148.9235 313.5756 147.7184 315.6798 147.5555 315.9939 144.0092 320.8594 143.749 321.1733 134.544 332.7539 134.2836 333.1306 134.186 333.2561 134.1489 334.8289 133.4973 335.9595 134.3059 336.4652 134.58 342.2544 131.4036 353.0979 125.3817 351.1921 113.1738 348.1031 106.148 346.0678 103.9991 349.2383 82.1547 340.0453 83.6316 334.3562 83.5345 334.3244 75.6634 333.3549 70.0385 329.3411 69.1658 328.6776 58.3423 319.3611 56.1784 317.309 55.1128 316.2358 54.0149 315.131 52.9169 314.0577 50.7863 311.7855 49.6887 310.6177 48.5912 309.4186 47.4936 308.2509 46.4611 307.0204 45.4929 305.9161 45.396 305.8213 48.8611 296.962 50.2973 293.8525 48.1623 292.9015 44.0868 290.9999 48.0026 292.2403 48.0675 292.2091 54.1789 276.7839 61.4884 280.269 63.8717 274.8347 62.7732 273.9816 62.8383 273.8875 64.197 274.4268 75.9447 248.7329 77.9741 242.3535 82.3731 244.161 87.5448 247.4495 91.937 251.4275 95.4863 255.6857 100.1717 259.2555 101.012 259.8558 106.1529 262.8606 109.1569 265.5755 113.5534 268.4519 111.4959 273.7305 123.2083 278.4225 121.706 282.3502 123.9084 282.5142 124.588 282.768 127.7914 284.0046 135.8845 285.9795 151.1311 290.1457 154.695 290.0932 Z" fill="#67a9cf">
      <title>
        梧棲區 Wuqi District
      </title>
    </path>
    <path d="M 422.8082 254.8031 428.7662 256.1653 434.0778 256.5825 440.3646 254.7989 442.7187 261.7233 442.7834 261.7863 442.9775 261.9439 443.9107 266.0348 445.8537 266.4781 443.9683 270.848 450.7595 278.7225 453.9318 280.3629 452.7627 282.3746 452.237 287.3756 451 291.369 452.8133 292.0637 452.5485 295.8698 449.9871 297.1873 450.0806 299.7355 452.1526 300.7452 453.1858 303.1689 455.81 303.2986 459.0463 305.8513 459.9455 311.4835 461.0436 313.9703 457.1228 314.122 450.9641 315.7804 450.9253 320.153 448.8149 323.044 452.3404 327.3904 455.2563 327.6777 457.3257 330.7321 457.2608 330.7949 458.0348 333.407 455.3311 343.1551 457.3676 346.7128 456.5546 348.662 453.1495 350.3244 454.3453 352.5596 457.2269 354.3569 451.5543 355.261 448.0215 355.476 443.7451 354.4945 440.5076 352.3505 438.6256 353.952 435.0305 352.5309 431.984 352.6835 430.4626 351.5487 428.1671 348.1476 419.8094 346.1525 416.6647 346.9024 414.3046 343.564 407.4033 342.8605 406.0059 345.2175 400.065 351.3418 392.3842 351.5173 391.3184 349.4392 388.1134 347.609 384.5497 347.0364 384.8806 343.2306 382.9084 340.679 383.0123 336.9671 381.4276 335.2656 375.4998 334.028 373.4239 335.0937 373.3266 335.1565 373.2002 333.4261 369.961 332.7595 370.777 329.6152 369.0362 324.7989 364.0142 324.5693 363.8846 324.569 361.8387 326.8931 360.4364 331.5776 358.1583 336.6695 355.1395 339.3376 354.8395 343.6154 351.1135 343.2621 348.5575 341.2438 347.365 337.9384 348.7053 332.0269 350.6517 330.8982 351.6323 326.5904 350.4033 325.3926 351.156 321.6191 349.9925 320.1068 346.8494 320.1321 349.1314 313.1529 349.424 312.6187 351.6034 308.2817 351.8391 303.7522 353.2027 302.3078 354.4678 301.4923 355.1193 299.7005 358.8862 295.2406 362.2271 293.1708 365.7244 294.0896 371.46 293.4397 372.141 293.0949 372.6275 292.8127 373.114 292.5304 373.2114 292.4362 372.1497 288.4706 369.6599 285.8864 368.73 280.757 367.6321 278.8675 364.9456 277.6356 364.2702 275.0862 364.7639 270.9976 366.5513 267.9495 371.0618 263.8054 371.4438 250.0274 385.7897 251.878 401.0125 252.5022 412.8986 253.4344 413.4816 253.4983 422.8082 254.8031 Z" fill="#1b7837">
      <title>
        豐原區 Fengyuan District
      </title>
    </path>
    <path d="M 465.4268 191.9189 472.1591 194.1617 473.4206 195.1701 479.8967 195.4618 485.0758 197.01 486.4362 196.7287 492.0684 198.6233 505.5712 199.269 508.3869 200.5621 511.7503 204.3411 514.1773 205.8853 514.7598 206.232 515.4716 206.7991 516.0217 207.1772 516.5717 207.6497 517.0892 208.2165 517.2184 208.5313 517.8978 209.1297 518.5772 209.7282 519.2566 210.3267 519.7095 210.7047 520.3244 211.1143 520.7774 211.398 521.2306 211.5872 521.619 211.7449 522.1369 212.0286 522.3309 212.2491 522.6869 212.5011 522.7516 212.5641 522.9781 212.7531 523.1398 212.942 523.2367 213.1624 523.56 213.6346 524.4975 215.1771 524.7559 215.7751 524.9817 216.5932 525.2077 217.2226 525.5632 217.8836 526.8887 219.9928 529.6698 223.8337 531.1573 225.88 532.4835 227.5173 533.0982 228.0842 533.4216 228.5564 533.5833 228.8082 538.2435 232.2735 544.3591 237.8792 544.5532 238.1625 546.0418 239.4853 552.6797 241.3792 557.5057 241.5096 566.2824 242.4614 567.9666 242.5258 569.0354 242.5582 570.0719 242.5906 580.2106 241.6869 592.523 236.0657 597.0585 234.5906 605.7725 232.5521 615.4565 232.5901 620.1199 233.3796 629.8685 233.8574 641.7539 235.9716 646.3203 236.8862 649.3649 236.6361 650.4988 236.2277 650.4334 237.3601 646.5459 239.1513 640.4547 242.8917 640.2579 247.3901 637.2443 249.7164 635.69 248.992 628.6246 256.0031 624.8662 257.5738 625.3176 261.0344 620.3932 262.101 619.6799 263.1072 618.9001 266.8187 615.6271 268.6726 611.7022 276.3458 611.54 276.6917 610.8244 281.0325 613.6724 285.2183 611.4974 291.7601 611.6269 291.8545 613.1137 297.109 612.3345 299.5308 611.3266 304.7206 615.8935 306.9572 614.7234 312.6188 612.2927 313.4666 613.2946 317.2422 613.3887 321.9924 614.5846 326.5232 617.6615 328.5699 619.2475 331.4021 624.5597 334.8029 623.3563 341.9431 626.304 343.8953 630.4196 343.8977 635.1179 344.8126 638.3575 346.7333 637.8048 349.9417 638.7097 354.5665 638.1243 358.3412 635.4976 361.3597 635.6581 364.0966 638.2502 365.262 638.6689 370.0752 638.7984 370.2641 637.9868 372.7802 635.1677 371.7406 631.2768 374.5067 630.303 377.0227 622.331 375.162 620.6443 377.2057 616.9491 377.8325 614.1925 380.2215 615.3551 386.5767 612.4667 392.0485 609.6087 400.1941 606.4604 406.0116 601.822 410.0349 599.648 412.9589 597.3143 412.4853 594.7845 414.1193 594.3607 417.2333 591.927 420.3143 592.3464 423.0514 595.3255 427.5836 596.2951 431.4221 595.7089 434.9764 596.4196 438.3429 592.0741 439.7552 586.9819 442.3937 585.4239 444.5631 581.5959 447.2024 568.1099 445.3035 562.892 442.971 559.1992 439.5072 551.8172 429.0878 550.6202 426.5071 550.1676 425.1854 549.6827 423.8323 548.3883 421.4402 548.7501 416.1557 548.0392 413.8585 543.9302 405.9586 543.5143 400.453 542.3821 398.1869 543.1634 394.8532 543.8219 384.7559 542.1133 375.6629 541.4098 366.3506 541.091 361.1912 538.7659 353.1671 537.2841 344.5461 535.7004 340.5808 535.5389 340.0773 534.2815 334.036 531.9641 319.3113 532.3572 315.348 532.4572 312.7371 530.8111 306.8212 529.4587 299.0811 529.0718 297.2561 528.5229 295.5568 527.4577 292.0009 525.6175 286.0848 524.9074 283.7561 524.6171 282.6233 524.1 281.4274 523.5826 280.5774 518.4073 273.5565 516.5028 267.6088 516.4061 267.2626 516.1481 266.1928 516.0836 265.941 512.9505 258.2302 510.7824 256.3088 505.6336 255.0444 498.7344 254.8473 489.083 253.86 484.162 251.8719 482.2513 251.5863 481.9599 251.523 476.9086 250.2265 474.4789 250.5064 468.4546 250.2151 464.8275 249.7068 460.2607 249.4487 453.6467 253.749 447.2654 253.8341 441.0452 254.5169 440.8507 254.6424 440.3646 254.7989 434.0778 256.5825 428.7662 256.1653 422.8082 254.8031 423.429 251.501 422.823 245.6488 424.6397 243.8901 429.0117 244.2745 432.3197 241.6057 435.3969 241.4846 437.4736 239.0026 439.1887 240.0433 445.2149 238.8569 448.491 235.5901 450.5773 226.5018 450.4804 226.3444 447.4692 225.7737 445.4007 222.9079 444.0169 217.1176 446.5798 214.1329 446.3643 206.614 446.2353 206.2993 444.749 204.0635 444.8819 201.7987 441.3267 197.2634 438.188 195.6543 438.1257 194.0813 439.2041 187.6969 443.1262 185.0603 446.3661 183.8068 448.0493 184.1868 448.276 184.1557 448.4056 184.1244 449.7335 183.9376 450.1542 184.0955 450.6394 184.4108 451.1891 184.9464 452.0624 185.6083 452.3859 185.7975 452.8388 186.1128 453.0006 186.2074 453.6474 186.7116 454.9412 187.7202 456.3968 188.7604 457.3674 189.3595 459.3413 190.306 459.6649 190.4952 460.5385 190.9369 460.9592 191.1262 462.0921 191.4424 462.9985 191.6324 463.9698 191.7911 464.4879 191.7603 465.2002 191.8557 465.4268 191.9189 Z" fill="#d1e5f0">
      <title>
        東勢區 Dongshi District
      </title>
    </path>
    <path d="M 388.4853 138.9791 391.5588 140.0856 392.3999 140.4016 393.4351 140.8124 393.6293 140.8442 393.7264 140.8758 393.7911 140.8759 395.1173 141.5074 396.1524 142.0125 396.3789 142.1073 397.2196 142.6435 397.5429 142.8957 398.6737 144.2189 399.0936 144.7859 400.0954 145.8572 400.5478 146.2984 400.5801 146.3614 401.0325 146.834 401.9052 147.6849 402.1638 147.9055 402.5193 148.2522 403.0364 148.7564 403.0688 148.7564 403.2629 148.8826 403.8448 149.324 404.1358 149.5447 406.6579 151.405 407.4661 152.0984 408.8563 153.2962 409.5674 153.9894 410.1168 154.5566 410.343 154.7772 410.6017 154.9978 410.9897 155.313 411.022 155.3445 411.5717 155.7544 413.285 157.2987 414.1576 158.2439 414.2546 158.3699 414.9005 159.3461 415.3204 159.9131 415.7728 160.4486 416.0314 160.7007 416.4841 161.0475 416.9045 161.3313 416.9692 161.3943 417.325 161.6151 417.9069 162.1194 418.8121 162.9702 419.4261 163.6947 419.523 163.8207 420.5574 164.8605 420.816 165.0811 421.592 165.743 422.6914 166.6571 423.0793 167.0037 423.4673 167.3504 424.2761 167.7921 425.2789 168.3285 426.0552 168.8016 426.7993 169.2117 427.3491 169.5586 428.0284 170.0001 428.5459 170.347 428.7076 170.473 428.7398 170.536 428.7721 170.599 429.0629 170.9769 429.3214 171.3548 429.5475 171.7012 430.1291 172.4571 430.226 172.5831 430.8401 173.2762 431.2283 173.497 431.4871 173.6547 432.0045 174.0959 437.7277 179.1695 439.3786 179.4866 444.5533 183.4895 446.3661 183.8068 443.1262 185.0603 439.2041 187.6969 438.1257 194.0813 438.188 195.6543 441.3267 197.2634 444.8819 201.7987 444.749 204.0635 446.2353 206.2993 446.3643 206.614 446.5798 214.1329 444.0169 217.1176 445.4007 222.9079 447.4692 225.7737 450.4804 226.3444 450.5773 226.5018 448.491 235.5901 445.2149 238.8569 439.1887 240.0433 437.4736 239.0026 435.3969 241.4846 432.3197 241.6057 429.0117 244.2745 424.6397 243.8901 422.823 245.6488 423.429 251.501 422.8082 254.8031 413.4816 253.4983 412.8986 253.4344 401.0125 252.5022 385.7897 251.878 371.4438 250.0274 366.6189 249.2949 365.3237 249.0723 355.9637 248.6141 344.0441 248.4964 340.3518 248.3947 328.7561 248.2768 313.1548 243.1794 304.1566 240.3287 293.4426 237.2537 290.8221 235.958 280.15 228.9815 275.6565 225.3849 277.5453 220.9222 278.6914 215.514 282.3251 212.7226 280.9711 210.0455 282.256 200.5795 286.9834 200.8105 294.9839 199.9791 295.6966 199.8233 301.8519 198.7044 308.7173 198.562 314.1272 197.6613 314.3865 197.5361 314.5161 197.5049 315.3265 197.1291 315.683 196.9726 321.6121 195.538 328.0621 192.6887 337.5884 189.6881 338.107 189.4375 344.1722 184.5421 349.876 182.0681 354.3137 181.2274 355.7551 172.6735 356.7268 172.4866 356.7592 172.4867 361.2583 173.2817 362.3589 173.4411 366.633 173.3548 374.5629 174.9424 374.5311 174.5963 374.4991 174.4075 374.3765 170.6952 376.2594 167.9932 374.8721 165.3167 376.1099 161.2923 380.1897 161.0795 381.2939 159.2569 377.8005 157.4889 379.62 153.9689 379.7571 149.7852 378.0136 147.2339 378.7628 144.7186 379.6847 136.258 379.9436 136.3213 388.4853 138.9791 Z" fill="#7fbf7b">
      <title>
        后里區 Houli District
      </title>
    </path>
    <path d="M 275.6565 225.3849 280.15 228.9815 290.8221 235.958 293.4426 237.2537 304.1566 240.3287 313.1548 243.1794 328.7561 248.2768 340.3518 248.3947 344.0441 248.4964 355.9637 248.6141 365.3237 249.0723 366.6189 249.2949 371.4438 250.0274 371.0618 263.8054 366.5513 267.9495 364.7639 270.9976 364.2702 275.0862 364.9456 277.6356 367.6321 278.8675 368.73 280.757 369.6599 285.8864 372.1497 288.4706 373.2114 292.4362 373.114 292.5304 372.6275 292.8127 372.141 293.0949 371.46 293.4397 365.7244 294.0896 362.2271 293.1708 358.8862 295.2406 355.1193 299.7005 354.4678 301.4923 353.2027 302.3078 351.8391 303.7522 351.6034 308.2817 349.424 312.6187 349.1314 313.1529 346.8494 320.1321 349.9925 320.1068 351.156 321.6191 350.4033 325.3926 351.6323 326.5904 350.6517 330.8982 348.7053 332.0269 342.709 332.7701 342.6071 335.1292 338.4577 335.9074 339.2475 329.9319 340.8748 326.3804 337.4421 325.3984 332.0576 328.0928 331.6291 331.6153 326.0243 331.1319 324.7082 325.1521 327.5071 319.2438 327.5397 319.1495 325.4939 321.3159 322.836 321.7193 318.1538 329.3853 318.0564 329.448 317.9915 329.5107 317.8619 329.5105 317.7971 329.5103 316.9554 329.1311 316.1798 328.1542 316.0272 323.7498 316.3587 320.2586 318.3388 318.5641 318.4038 318.4698 316.2067 315.5396 317.1177 313.8113 308.7992 309.8299 308.7668 309.8298 308.1811 310.9925 299.3124 306.8836 298.1457 307.0069 292.5789 304.3206 288.2097 302.2346 284.7454 301.1571 282.2105 304.5174 276.8878 308.4689 274.5148 311.798 272.1777 313.5856 272.1452 313.617 265.1509 311.776 269.1187 305.5252 263.1401 299.0936 262.0831 294.0263 259.3753 288.3889 256.46 288.1931 252.7765 284.2205 255.4998 283.4091 260.294 283.578 263.8591 282.9887 267.2007 280.9833 268.2093 279.1611 268.634 277.6521 268.6993 277.4321 270.3683 270.3264 270.6949 269.1947 275.1471 263.1022 276.2203 261.3116 276.4482 260.8088 276.2218 260.6509 272.9533 259.3221 263.8886 257.1302 265.6129 254.0199 260.9291 248.6294 261.4878 245.2647 263.3433 241.3997 268.0335 230.4319 271.2494 226.4128 275.4304 225.1327 275.6565 225.3849 Z" fill="#1b7837">
      <title>
        神岡區 Shengang District
      </title>
    </path>
    <path d="M 532.3572 315.348 531.9641 319.3113 534.2815 334.036 535.5389 340.0773 535.7004 340.5808 537.2841 344.5461 538.7659 353.1671 541.091 361.1912 541.4098 366.3506 542.1133 375.6629 543.8219 384.7559 543.1634 394.8532 542.3821 398.1869 543.5143 400.453 543.9302 405.9586 548.0392 413.8585 548.7501 416.1557 548.3883 421.4402 549.6827 423.8323 550.1676 425.1854 550.6202 426.5071 551.8172 429.0878 559.1992 439.5072 562.892 442.971 568.1099 445.3035 581.5959 447.2024 585.4239 444.5631 586.9819 442.3937 592.0741 439.7552 596.4196 438.3429 610.6866 435.9308 614.5456 434.4234 626.0225 434.3992 633.1869 435.1583 633.5423 437.3291 633.344 444.0295 634.348 445.9175 634.7009 452.6182 630.8106 451.7981 625.2354 449.0894 620.0804 448.8031 618.3935 450.1862 619.1047 453.5841 617.9666 458.5851 617.5085 465.0336 619.2255 467.4884 619.0603 472.2699 619.8672 478.3103 623.7263 477.8722 626.7759 475.5148 632.6774 475.8013 636.0487 477.8794 635.2678 482.6605 632.993 491.0584 634.1915 493.6072 633.0858 499.0172 634.7368 504.2716 635.0903 510.1543 638.8842 511.3518 636.3207 513.8041 631.2285 514.1473 628.9252 515.0896 627.6589 517.3224 628.9869 520.4689 632.8455 522.2328 633.4902 529.4054 629.2373 535.9147 628.782 537.9277 629.6231 541.766 627.4478 545.0363 621.4132 546.9516 620.1132 550.7256 617.256 554.7504 615.794 558.1154 613.3937 557.7049 610.9571 563.0196 610.8598 563.0509 609.4026 559.1807 608.3683 553.612 610.2847 549.9643 610.3516 547.1017 612.594 540.7802 614.9956 539.0202 611.3055 527.5672 611.7287 525.2082 609.5562 524.3259 602.2013 513.405 597.8882 512.7413 591.9835 515.3164 584.2648 514.6812 579.9855 512.4127 578.8862 508.3538 578.8214 508.2594 578.4668 505.7425 575.1303 501.084 570.3954 500.9855 567.9621 502.0844 562.1254 501.0411 558.7821 504.2152 558.1632 507.0773 553.1338 509.6206 551.8023 511.4753 548.8549 507.4144 547.0075 506.1858 543.9943 503.1943 542.9306 496.7444 544.4879 496.0539 546.9245 491.7152 547.3483 489.4821 545.278 484.321 546.7075 481.6486 545.9685 474.8215 542.7279 472.7735 540.9143 470.5068 538.7421 470.127 536.7625 471.6664 536.4707 471.6976 536.1788 471.6658 531.0217 472.9502 528.8232 466.8765 525.7771 465.2059 520.1959 468.7545 517.309 469.6006 514.36 468.1187 512.194 462.4853 507.882 462.0084 506.392 460.7798 500.8814 459.4206 502.7648 457.1579 503.3535 452.9432 504.8459 452.19 506.217 444.3587 504.0179 439.7003 503.7624 436.4914 500.2977 432.9639 501.1441 430.1337 499.9157 427.2381 499.8511 427.0808 500.307 425.3511 496.9398 421.8552 497.7852 419.8115 497.2082 414.5259 496.9814 414.4312 496.8194 414.3681 493.6492 409.0793 493.6834 407.6323 497.4196 400.9364 497.517 400.7478 496.5843 394.8955 499.0567 387.6003 496.6617 384.7661 496.9246 381.8723 494.0437 378.8803 491.6819 375.4799 488.4111 373.3995 484.6203 372.4509 484.2639 372.3246 480.3764 370.9983 476.879 368.7917 472.0549 365.199 466.1266 363.3034 455.9535 360.9297 455.9861 360.804 454.2092 356.9635 451.5543 355.261 457.2269 354.3569 454.3453 352.5596 453.1495 350.3244 456.5546 348.662 457.3676 346.7128 455.3311 343.1551 458.0348 333.407 457.2608 330.7949 457.3257 330.7321 455.2563 327.6777 452.3404 327.3904 448.8149 323.044 450.9253 320.153 450.9641 315.7804 457.1228 314.122 461.0436 313.9703 465.512 316.0527 468.4046 309.6707 468.3468 304.6374 471.0071 302.03 472.2044 303.1012 470.7739 306.7484 475.1783 308.2014 475.1784 308.107 474.6297 306.5334 477.354 304.5237 477.5605 295.527 477.6576 295.5586 481.8658 298.301 486.4598 303.4346 487.9784 306.6452 488.4641 306.8975 490.9574 308.0646 491.7348 308.2544 494.5849 309.1073 494.7469 309.1389 496.8204 309.2044 497.3062 309.3938 497.7597 309.5202 498.5694 309.7099 499.8004 309.9002 499.8977 309.8688 500.0319 306.094 502.0109 303.9573 500.1365 300.0857 499.3665 293.919 499.1402 293.5097 494.9979 289.824 493.2526 286.5502 491.0514 285.1319 488.9827 281.4486 487.7589 275.879 483.8117 272.0675 483.8766 271.9732 487.8294 271.475 491.2272 274.2476 497.3461 277.2752 501.5516 282.0619 506.9567 286.3152 506.989 286.4411 507.3748 288.9268 509.8343 291.1317 512.7757 296.9549 515.2022 299.9147 517.599 300.5151 522.8033 311.2481 523.0621 311.6574 526.5567 315.908 529.5712 314.8102 532.3572 315.348 Z" fill="#7fbf7b">
      <title>
        新社區 Xinshe District
      </title>
    </path>
    <path d="M 532.3572 315.348 529.5712 314.8102 526.5567 315.908 523.0621 311.6574 522.8033 311.2481 517.599 300.5151 515.2022 299.9147 512.7757 296.9549 509.8343 291.1317 507.3748 288.9268 506.989 286.4411 506.9567 286.3152 501.5516 282.0619 497.3461 277.2752 491.2272 274.2476 487.8294 271.475 483.8766 271.9732 483.8117 272.0675 487.7589 275.879 488.9827 281.4486 491.0514 285.1319 493.2526 286.5502 494.9979 289.824 499.1402 293.5097 499.3665 293.919 500.1365 300.0857 502.0109 303.9573 500.0319 306.094 499.8977 309.8688 499.8004 309.9002 498.5694 309.7099 497.7597 309.5202 497.3062 309.3938 496.8204 309.2044 494.7469 309.1389 494.5849 309.1073 491.7348 308.2544 490.9574 308.0646 488.4641 306.8975 487.9784 306.6452 486.4598 303.4346 481.8658 298.301 477.6576 295.5586 477.5605 295.527 477.354 304.5237 474.6297 306.5334 475.1784 308.107 475.1783 308.2014 470.7739 306.7484 472.2044 303.1012 471.0071 302.03 468.3468 304.6374 468.4046 309.6707 465.512 316.0527 461.0436 313.9703 459.9455 311.4835 459.0463 305.8513 455.81 303.2986 453.1858 303.1689 452.1526 300.7452 450.0806 299.7355 449.9871 297.1873 452.5485 295.8698 452.8133 292.0637 451 291.369 452.237 287.3756 452.7627 282.3746 453.9318 280.3629 450.7595 278.7225 443.9683 270.848 445.8537 266.4781 443.9107 266.0348 442.9775 261.9439 442.7834 261.7863 442.7187 261.7233 440.3646 254.7989 440.8507 254.6424 441.0452 254.5169 447.2654 253.8341 453.6467 253.749 460.2607 249.4487 464.8275 249.7068 468.4546 250.2151 474.4789 250.5064 476.9086 250.2265 481.9599 251.523 482.2513 251.5863 484.162 251.8719 489.083 253.86 498.7344 254.8473 505.6336 255.0444 510.7824 256.3088 512.9505 258.2302 516.0836 265.941 516.1481 266.1928 516.4061 267.2626 516.5028 267.6088 518.4073 273.5565 523.5826 280.5774 524.1 281.4274 524.6171 282.6233 524.9074 283.7561 525.6175 286.0848 527.4577 292.0009 528.5229 295.5568 529.0718 297.2561 529.4587 299.0811 530.8111 306.8212 532.4572 312.7371 532.3572 315.348 Z" fill="#d1e5f0">
      <title>
        石岡區 Shigang District
      </title>
    </path>
    <path d="M 363.8606 133.02 376.9339 135.7811 376.9986 135.8127 378.2932 136.0038 379.0376 136.068 379.3612 136.163 379.6847 136.258 378.7628 144.7186 378.0136 147.2339 379.7571 149.7852 379.62 153.9689 377.8005 157.4889 381.2939 159.2569 380.1897 161.0795 376.1099 161.2923 374.8721 165.3167 376.2594 167.9932 374.3765 170.6952 374.4991 174.4075 374.5311 174.5963 374.5629 174.9424 366.633 173.3548 362.3589 173.4411 361.2583 173.2817 356.7592 172.4867 356.7268 172.4866 355.7551 172.6735 354.3137 181.2274 349.876 182.0681 344.1722 184.5421 338.107 189.4375 337.5884 189.6881 328.0621 192.6887 321.6121 195.538 315.683 196.9726 315.3265 197.1291 314.5161 197.5049 314.3865 197.5361 314.1272 197.6613 308.7173 198.562 301.8519 198.7044 295.6966 199.8233 294.9839 199.9791 286.9834 200.8105 282.256 200.5795 280.9711 210.0455 282.3251 212.7226 278.6914 215.514 277.5453 220.9222 275.6565 225.3849 275.4304 225.1327 272.556 221.6971 255.9383 209.8293 247.3379 204.2403 241.7775 200.4201 238.9295 199.7209 232.4862 199.3901 228.113 199.9453 222.804 199.271 221.8008 199.0168 225.1977 187.7949 225.8299 181.2217 225.8954 180.9387 227.7147 178.6155 229.1509 174.152 232.3963 171.2346 238.7199 167.3182 244.9738 165.3519 249.4726 165.9921 249.6378 164.6713 253.5532 165.5931 254.9795 164.9045 255.1418 164.7161 258.8285 153.1798 261.489 150.7953 262.5552 151.7101 267.6708 151.5964 274.778 144.3462 274.6265 139.9102 276.4785 137.0518 280.5285 135.614 283.0617 132.065 286.7606 128.3613 288.8376 126.101 292.9161 126.2045 327.4441 131.9413 330.0019 131.7578 330.7583 126.034 341.9532 128.7935 353.3776 130.2001 358.5228 131.1538 363.8606 133.02 Z" fill="#67a9cf">
      <title>
        外埔區 Waipu District
      </title>
    </path>
    <path d="M 184.5548 422.0502 183.7055 424.3443 184.8645 427.2416 185.5754 428.0929 184.6578 431.6452 184.1376 432.1785 183.7145 432.7751 183.5196 432.9003 183.0318 433.4338 181.1757 436.3542 178.2724 442.7007 175.7198 451.0928 171.2781 451.0174 170.8604 461.0828 170.892 461.366 170.9233 461.7436 171.307 463.6636 171.4033 464.0099 173.2787 465.8397 173.6027 465.935 178.2617 469.5972 180.9838 470.2339 185.9252 477.3885 188.1574 479.2821 187.7573 483.2761 187.6262 483.7791 187.4902 486.0437 190.0452 488.5358 191.1033 492.9428 189.964 494.5126 187.7169 497.9039 183.8454 502.3288 183.2837 506.0393 186.2624 507.872 188.8806 511.0879 186.3998 516.8379 185.4874 518.3768 182.0442 520.2548 181.2246 523.3668 181.6123 523.9341 175.3201 523.8852 168.2762 525.8157 157.6449 523.2687 155.4743 522.3816 153.1417 521.4625 147.3752 519.1807 146.9862 519.0852 144.6839 518.9211 144.5542 518.9208 143.1273 518.8536 140.9547 518.6899 138.4932 517.5186 135.0247 516.8791 128.4874 512.2037 127.1639 510.1549 125.1317 506.5311 122.907 502.2775 120.1881 500.539 111.246 497.7116 111.0519 497.5537 109.017 494.9363 108.4683 494.1167 108.1777 493.7068 106.2451 489.5483 97.6605 476.5291 97.1779 475.3636 97.0843 474.1994 97.6377 473.5405 98.7131 471.8767 99.3003 470.7775 99.9545 468.9865 100.8822 462.7922 100.8831 462.5091 98.9255 456.1483 96.8286 452.8386 96.3454 451.8304 94.9281 448.9317 93.5741 446.5366 92.0655 441.813 91.1973 439.6082 89.6814 437.1496 88.6181 435.1328 87.1721 431.1645 85.3072 426.4397 84.9854 425.6837 84.0211 423.1639 83.7638 422.5339 83.3778 421.6204 81.8681 417.3686 86.6003 417.6042 91.6895 417.7464 100.7984 417.9013 104.2305 419.2334 107.4063 419.5894 112.2975 420.863 112.0298 423.5361 115.7566 423.9566 117.6362 424.1826 118.9974 424.3127 119.1891 425.2255 124.0776 427.4111 126.7087 425.7519 135.587 427.2572 137.8595 426.2259 140.4178 427.1458 145.3564 423.5113 146.2009 422.9475 150.119 424.5004 156.3764 424.3299 161.1661 427.2064 161.6196 427.3335 166.2532 428.1332 165.6 418.5367 173.1171 419.9107 181.2831 421.0974 184.5548 422.0502 Z" fill="#67a9cf">
      <title>
        大肚區 Dadu District
      </title>
    </path>
    <path d="M 1417.1195 92.7758 1418.3497 92.8662 1422.7134 100.8423 1424.6403 105.9951 1425.3891 107.2825 1430.3071 106.6998 1433.119 105.495 1433.5195 109.0485 1434.1724 110.6821 1437.0077 116.3037 1438.5111 120.5141 1439 121.4876 1434.1546 124.4925 1432.4547 129.1227 1423.9477 131.1329 1421.0258 138.3466 1418.5435 141.4692 1415.3958 149.0295 1418.4965 156.5694 1413.5647 163.1604 1410.9871 176.8847 1412.2643 181.2533 1413.8242 182.9785 1414.5528 187.9151 1413.1679 190.1846 1409.3516 191.6126 1405.254 196.1873 1401.8388 201.5462 1397.7228 210.6194 1396.9474 211.1881 1393.4187 211.5768 1388.2618 209.1393 1380.6933 212.1514 1371.9443 210.5425 1371.0409 211.6148 1371.3777 215.8292 1370.7751 219.9521 1368.2474 230.0265 1364.6616 233.0573 1360.2411 238.5758 1359.3104 241.4099 1354.8754 242.2096 1351.1759 239.8611 1349.2767 243.799 1343.4645 249.9504 1338.7434 252.6695 1336.0971 256.0432 1338.5741 261.2581 1339.6412 271.7307 1340.5906 275.1254 1343.6831 280.2127 1343.0846 286.0027 1343.8707 288.9261 1342.9473 294.4339 1341.0043 294.7227 1333.2709 298.111 1325.5542 296.0882 1320.9283 298.5864 1316.3953 299.5742 1312.8203 307.2285 1307.6499 312.1502 1304.5408 312.6934 1301.1994 311.1925 1295.986 312.339 1296.8119 318.2195 1295.894 326.2752 1295.6364 326.8736 1290.8857 331.5735 1288.1449 336.6455 1288.0804 336.7716 1282.235 344.3368 1276.5835 339.3811 1263.7009 332.4303 1255.3333 329.5256 1251.9346 331.0125 1248.079 331.2107 1243.7599 327.3833 1240.3552 326.4164 1236.0458 326.4896 1232.7731 326.5288 1228.533 328.5207 1225.3249 328.4338 1223.4031 324.1914 1218.7069 325.1146 1218.545 325.1779 1217.6156 329.6156 1213.7609 330.2221 1211.5032 334.8516 1210.1117 335.6726 1207.0622 334.138 1204.6319 334.1749 1199.4831 335.7593 1195.1019 332.7804 1192.2519 333.5101 1187.8729 331.4748 1186.2077 325.6271 1182.3514 325.4781 1181.3768 324.2847 1177.3577 323.7584 1175.0858 321.9701 1174.4634 318.7941 1170.7006 316.7571 1171.4096 314.9625 1170.0056 309.7749 1163.461 309.9455 1162.9752 310.0409 1162.8457 310.0726 1162.2951 310.1996 1157.5678 311.782 1155.0444 313.6745 1149.52 321.896 1145.9403 330.5539 1143.6204 337.3219 1140.3574 342.4558 1139.3604 346.3585 1134.4046 347.5948 1130.3921 350.7481 1127.4385 348.3313 1124.5523 347.2356 1123.4173 346.8288 1119.4599 344.7597 1119.7766 340.7011 1114.7227 341.4652 1106.8096 338.0188 1105.2513 336.3857 1102.7884 336.3271 1102.2707 336.737 1099.7499 340.6735 1097.4522 342.4706 1093.8249 343.7351 1087.0264 347.773 1080.188 347.4382 1080.1233 347.4698 1077.7906 347.8196 1070.7546 345.44 1066.5805 349.5046 1063.6701 353.4728 1063.7377 355.2658 1058.9462 358.4504 1054.1509 359.1811 1050.1372 362.5531 1047.7066 362.6195 1044.5265 359.8559 1043.2911 357.1837 1039.4288 353.1626 1037.2529 349.9256 1028.8485 341.9784 1027.3616 344.7173 1024.0277 347.6474 1023.4166 351.0456 1019.3748 357.8145 1015.7142 358.9832 1012.7 358.7984 1005.9621 361.2293 1000.5825 361.4247 997.7061 367.9715 994.7604 370.9006 993.1757 373.7023 992.502 379.4913 990.8527 382.5761 982.0753 388.0285 977.6983 386.9325 972.5784 388.1964 970.3732 387.1607 963.6325 388.2375 956.7914 386.3886 950.4392 387.0555 947.391 385.6744 941.4596 385.8059 941.3624 385.8689 936.4383 388.6417 936.0493 388.6421 935.8224 388.6738 932.6801 390.5955 932.4534 390.753 925.7471 394.5653 922.9621 397.6506 922.3493 401.2059 918.1393 406.0224 918.5635 409.3251 915.0005 412.7255 912.4428 416.8171 909.2036 420.0598 903.9199 420.6616 903.3375 422.109 894.4601 429.4452 891.2183 429.6048 887.9455 431.9349 883.9606 436.0585 882.4046 436.4685 879.4894 440.5913 875.2095 440.0593 872.2272 440.9419 871.5811 444.6857 869.6048 447.1092 862.6374 453.3732 861.3399 452.3044 859.7812 447.9955 855.8568 445.4496 850.3451 445.7355 848.5303 447.4036 841.1385 448.5081 838.2885 455.9334 837.966 459.7399 834.8223 463.1701 831.19 461.5358 831.8366 456.9113 830.0193 452.9798 829.6613 449.7713 827.2932 446.4377 823.5004 448.1693 820.2582 448.3907 815.2647 446.9768 808.9436 451.5086 801.8128 460.2244 800.5815 463.6221 798.3123 465.6359 796.7891 469.0023 797.4057 471.0469 796.4662 474.9164 793.1275 480.5166 791.5397 486.368 787.0326 488.8855 786.1907 495.3974 784.5371 497.3481 780.7428 497.852 775.0028 499.9605 774.7443 506.9126 770.7555 510.1847 768.3878 508.9581 768.2905 508.9266 765.1445 507.9517 763.3933 509.3674 756.2582 511.0036 752.4636 513.0799 750.6798 513.0485 749.5771 509.9657 744.5176 507.795 738.842 507.7634 734.4312 508.4237 730.4096 508.0145 728.7557 506.8504 724.4104 501.628 720.3568 499.5827 715.5576 496.2475 715.4603 496.1846 713.4172 496.373 711.8598 500.4622 706.2485 503.7641 698.1711 511.6267 692.4294 515.7146 687.9522 520.5264 681.1083 521.2477 675.2691 524.1398 670.597 528.0074 662.9099 527.8155 662.4236 527.3435 661.8079 526.0849 655.678 525.2014 652.1113 522.8404 651.7882 520.2922 648.9356 516.8935 645.9843 516.5774 636.872 513.8988 636.3207 513.8041 638.8842 511.3518 635.0903 510.1543 634.7368 504.2716 633.0858 499.0172 634.1915 493.6072 632.993 491.0584 635.2678 482.6605 636.0487 477.8794 632.6774 475.8013 626.7759 475.5148 623.7263 477.8722 619.8672 478.3103 619.0603 472.2699 619.2255 467.4884 617.5085 465.0336 617.9666 458.5851 619.1047 453.5841 618.3935 450.1862 620.0804 448.8031 625.2354 449.0894 630.8106 451.7981 634.7009 452.6182 634.348 445.9175 633.344 444.0295 633.5423 437.3291 633.1869 435.1583 626.0225 434.3992 614.5456 434.4234 610.6866 435.9308 596.4196 438.3429 595.7089 434.9764 596.2951 431.4221 595.3255 427.5836 592.3464 423.0514 591.927 420.3143 594.3607 417.2333 594.7845 414.1193 597.3143 412.4853 599.648 412.9589 601.822 410.0349 606.4604 406.0116 609.6087 400.1941 612.4667 392.0485 615.3551 386.5767 614.1925 380.2215 616.9491 377.8325 620.6443 377.2057 622.331 375.162 630.303 377.0227 631.2768 374.5067 635.1677 371.7406 637.9868 372.7802 638.7984 370.2641 638.6689 370.0752 638.2502 365.262 635.6581 364.0966 635.4976 361.3597 638.1243 358.3412 638.7097 354.5665 637.8048 349.9417 638.3575 346.7333 635.1179 344.8126 630.4196 343.8977 626.304 343.8953 623.3563 341.9431 624.5597 334.8029 619.2475 331.4021 617.6615 328.5699 614.5846 326.5232 613.3887 321.9924 613.2946 317.2422 612.2927 313.4666 614.7234 312.6188 615.8935 306.9572 611.3266 304.7206 612.3345 299.5308 613.1137 297.109 611.6269 291.8545 611.4974 291.7601 613.6724 285.2183 610.8244 281.0325 611.54 276.6917 611.7022 276.3458 615.6271 268.6726 618.9001 266.8187 619.6799 263.1072 620.3932 262.101 625.3176 261.0344 624.8662 257.5738 628.6246 256.0031 635.69 248.992 637.2443 249.7164 640.2579 247.3901 640.4547 242.8917 646.5459 239.1513 650.4334 237.3601 650.4988 236.2277 654.8398 234.122 656.2002 234.0597 658.9856 234.0295 666.2438 226.1366 670.7467 223.433 673.9542 220.1625 674.2135 219.5335 674.5382 217.1428 671.7554 210.913 671.0445 206.949 671.0145 200.5945 671.8583 195.9705 670.4371 186.4066 666.136 173.0352 666.6236 168.2852 670.4451 166.0217 680.062 163.6658 683.5592 162.0312 689.4853 158.2894 693.5327 156.9379 696.608 158.606 699.7801 161.5324 703.3737 162.9174 706.9353 161.88 709.2339 162.95 717.5871 163.0144 720.1772 163.7383 724.0626 162.6692 728.9185 169.3075 732.5124 169.7796 737.6928 171.7619 746.5321 171.7936 753.5582 169.8432 757.4759 170.252 760.4546 168.0183 763.1097 170.3146 765.4089 174.404 773.504 177.6748 782.5054 177.2331 787.1349 173.1112 789.7899 172.8591 794.0968 175.4377 794.7122 176.3499 794.9713 176.7273 798.3077 182.2632 803.166 186.7919 804.3 189.3712 807.3773 192.8936 811.2986 202.8961 811.9796 206.0732 815.3812 210.0044 824.3208 213.9335 828.856 217.172 832.2259 221.4175 834.3007 226.4185 837.411 228.9967 841.5248 230.2847 841.8811 230.316 842.788 230.4099 845.7678 230.6916 848.8126 231.1935 851.7279 231.947 854.4802 230.6559 857.6542 230.78 861.7001 226.122 862.3756 217.8482 865.773 212.4984 866.8065 207.7161 869.6556 206.5505 870.8202 204.4736 875.2885 203.3698 881.2447 199.8427 886.588 200.0594 889.9219 197.8236 893.1896 193.7318 892.4741 189.3596 900.3745 188.4416 904.2588 186.6455 906.8526 190.9533 911.5527 196.8008 916.5705 195.0351 919.2259 195.1587 922.6892 193.2683 923.9815 189.8697 928.3182 187.192 934.1131 185.7398 936.3117 182.2459 939.7739 179.6002 943.3318 175.6331 952.3046 179.3364 957.612 176.6256 961.9827 176.1178 961.8155 171.1161 962.6855 167.1829 965.6895 160.5421 967.3383 158.3068 971.4502 158.4282 974.4239 153.9893 976.7137 146.1851 979.3001 143.0363 983.4412 140.7037 985.3485 138.3421 985.6368 135.7622 989.936 130.4407 994.5031 132.6059 1001.9492 133.0687 1006.4798 131.8361 1007.1594 131.7094 1007.7421 131.7087 1012.4995 130.7274 1012.8553 130.4752 1015.3784 129.0563 1016.6079 128.6143 1018.0324 128.6753 1024.1824 128.2896 1025.3482 128.5712 1026.8053 128.8838 1030.2347 127.432 1030.4228 123.0276 1035.4023 119.1198 1037.825 115.593 1036.2676 113.0157 1036.6182 109.2087 1038.6233 107.979 1039.9158 106.4671 1044.1165 101.585 1048.678 100.0684 1051.0357 96.6988 1061.0354 95.7086 1062.3244 92.0574 1065.006 89.0647 1067.4906 84.2792 1068.3291 82.4533 1070.6544 79.3667 1071.0312 72.0992 1076.1094 70.4867 1079.8312 70.5436 1080.3811 70.4169 1085.4614 70.0311 1090.4186 73.4518 1090.1698 79.4608 1091.3443 84.9955 1094.3651 91.345 1094.5007 94.8996 1098.0359 99.0775 1101.3649 96.3663 1112.1052 93.4218 1120.3889 92.3688 1121.5199 91.3915 1120.7338 86.3281 1125.5755 79.3669 1125.1064 70.8111 1129.952 66.1777 1130.2069 64.1009 1132.9842 61.0442 1136.5407 59.4331 1137.9287 57.6059 1136.98 52.2912 1137.6217 49.4587 1135.6708 44.5864 1137.9279 40.461 1137.5023 37.8822 1138.3703 34.9864 1140.887 31.3638 1145.9301 29.1205 1147.1561 27.3249 1157.6713 27.2097 1159.9921 22.8952 1159.9912 6.6311 1161.4517 8.8932 1161.55 9.5222 1161.4904 12.0075 1161.2988 13.2348 1160.499 17.6406 1160.3377 17.8926 1160.5659 18.7101 1160.9235 19.5273 1161.3133 20.2815 1161.6375 20.6269 1163.5483 21.5353 1164.325 21.6281 1164.9398 21.6583 1165.2955 21.5632 1166.2009 21.3411 1168.0775 21.3373 1169.3073 21.5235 1169.9875 21.8681 1172.0587 22.1155 1172.6413 22.2401 1176.9786 23.0804 1177.2694 22.8911 1177.3015 22.7966 1177.5597 22.4815 1177.5917 22.3241 1177.6875 21.6948 1177.7195 21.5374 1177.7515 21.38 1177.7836 21.2541 1177.783 20.971 1177.7828 20.8766 1177.7826 20.7823 1177.8467 20.5304 1177.9104 20.027 1177.9102 19.9326 1178.0392 19.7436 1181.8254 20.1131 1182.6667 20.1427 1184.4142 20.3278 1185.935 20.4189 1186.485 20.3862 1187.1967 20.3532 1187.779 20.3205 1188.232 20.3196 1188.7818 20.224 1192.953 19.1139 1193.6969 18.9864 1195.0552 18.7318 1196.2191 18.3832 1197.5456 18.3803 1199.2284 18.5338 1199.7783 18.4697 1201.4272 17.9627 1205.1478 17.9544 1205.5359 17.8906 1206.3437 17.4169 1206.7319 17.3846 1207.185 17.4465 1208.8356 17.7259 1209.2236 17.5992 1209.6112 17.3467 1209.6758 17.2836 1209.7079 17.1891 1209.8046 17.0316 1210.0303 16.6851 1210.3526 16.1495 1210.6754 15.8028 1210.8369 15.6766 1211.3536 15.2979 1211.6122 15.2029 1214.5869 14.4097 1215.8808 14.3123 1217.0457 14.3726 1218.5662 14.3376 1221.8016 14.3616 1222.5457 14.3599 1223.3869 14.3894 1226.0406 14.6663 1226.7531 14.9792 1227.2386 15.0724 1227.5295 14.9774 1227.6264 14.8828 1227.6587 14.8827 1228.046 14.4728 1228.1751 14.3467 1228.2719 14.2521 1228.3688 14.1575 1228.498 14.0628 1228.6271 13.9367 1228.8209 13.8104 1229.144 13.6523 1230.0817 13.3984 1230.2431 13.2722 1230.34 13.1776 1230.4691 13.0515 1230.5012 12.957 1230.5657 12.8625 1230.5979 12.7995 1230.7266 12.5161 1230.7909 12.3586 1230.8554 12.2641 1230.9841 11.9492 1231.2099 11.6655 1231.5326 11.3502 1232.3724 10.7819 1233.3404 9.6786 1235.862 8.9176 1238.0929 8.346 1240.2556 6.3274 1241.2559 5.2554 1242.8047 3.6158 1243.0947 3.1117 1243.5783 2.4499 1244.03 1.9455 1244.4494 1.4726 1244.7394 1 1248.9466 1.6503 1252.1559 4.2535 1256.2137 9.7487 1259.7481 12.8857 1260.2104 16.5652 1259.2121 18.3923 1260.7454 23.359 1259.8875 29.527 1258.8593 32.3923 1259.4216 37.2041 1258.5597 41.8307 1258.9258 45.825 1257.4201 51.8374 1255.4553 55.46 1256.8921 60.5842 1256.9026 64.7367 1259.8261 69.0707 1263.8703 68.683 1266.0733 69.5897 1268.5141 74.9 1272.8272 78.2865 1274.9729 81.9931 1280.6581 77.8887 1283.1809 77.2844 1291.9197 77.5444 1295.2878 78.4162 1299.2648 77.0528 1305.1343 81.2838 1309.0221 82.7832 1313.1018 83.4325 1316.4488 88.2049 1317.8094 88.6416 1320.1207 93.3854 1316.4144 98.9639 1320.8173 110.7485 1321.4991 111.4387 1325.721 116.3344 1331.2229 116.0041 1336.1174 118.318 1340.87 116.3538 1341.6776 115.7852 1346.0095 113.8851 1346.7817 112.3099 1347.2626 110.7355 1348.2544 106.8318 1349.932 104.9708 1354.0751 104.99 1356.7506 101.3328 1360.2784 101.2593 1364.6711 98.2261 1366.5483 98.2204 1369.7935 100.9789 1375.2325 101.4027 1382.2776 97.9205 1387.6826 97.8407 1392.1521 98.7704 1397.5137 95.2615 1400.9765 95.1246 1406.2117 92.6225 1412.8456 92.3179 1417.1195 92.7758 Z" fill="#67a9cf">
      <title>
        和平區 Heping District
      </title>
    </path>
    <path d="M 363.8606 133.02 358.5228 131.1538 353.3776 130.2001 341.9532 128.7935 330.7583 126.034 330.0019 131.7578 327.4441 131.9413 292.9161 126.2045 288.8376 126.101 286.7606 128.3613 283.0617 132.065 280.5285 135.614 276.4785 137.0518 274.6265 139.9102 274.778 144.3462 267.6708 151.5964 262.5552 151.7101 261.489 150.7953 258.8285 153.1798 255.1418 164.7161 254.9795 164.9045 253.5532 165.5931 249.6378 164.6713 249.4726 165.9921 244.9738 165.3519 238.7199 167.3182 232.3963 171.2346 229.1509 174.152 227.7147 178.6155 225.8954 180.9387 225.8299 181.2217 225.1977 187.7949 221.8008 199.0168 211.1113 200.1843 207.8102 199.452 201.883 199.8767 199.9752 198.8334 193.6121 192.902 189.9679 187.5127 189.419 186.9135 190.0354 186.5062 192.3072 184.6564 196.827 177.7163 200.2007 175.429 201.3117 171.6884 204.0413 168.078 204.6625 165.8461 204.3068 165.6878 202.53 164.2045 199.8261 158.4089 205.3065 155.1205 208.0605 154.3728 210.7338 159.5705 212.9763 156.3676 211.7907 151.7401 214.7752 149.4829 219.3734 149.1174 219.8592 149.0558 224.2002 147.9974 224.2004 147.903 224.2329 147.8716 220.8064 145.8809 220.7418 145.8178 218.2236 143.1373 218.4579 140.2438 215.2297 136.7749 214.5579 133.7217 214.7202 133.5648 216.2707 134.8587 217.6403 131.0558 220.4214 132.164 220.9768 130.215 217.2903 128.7584 220.985 127.1007 224.2908 125.5992 224.3558 125.505 226.3125 119.9104 228.3426 110.9499 227.0831 109.8456 227.1801 109.8773 229.5204 106.0768 231.1062 106.1752 238.9447 104.0243 239.5665 101.3205 240.1866 99.2772 246.9152 100.7724 248.3387 101.0591 260.6958 103.9832 264.1958 102.2299 262.166 98.3556 257.8163 90.2289 256.9787 88.6225 255.7504 87.9589 245.7952 82.681 239.4956 78.1668 233.2231 75.7916 229.4094 73.8001 222.6298 67.4595 205.0554 56.2141 207.521 53.8927 208.7614 49.8693 212.9898 41.7327 220.1247 35.554 223.926 29.5866 224.0335 25.5602 225.2982 24.4939 226.6602 23.2705 230.4858 20.2917 230.5525 19.5054 231.1769 15.7319 233.5775 13.2213 237.1088 11.3427 238.8673 6.817 240.0395 3.8314 240.8508 2.8582 247.2517 4.6987 250.5473 6.437 251.737 9.397 254.1893 12.0455 256.4443 15.9833 256.6059 16.0466 258.5448 17.0265 258.9325 17.2477 266.4903 22.6451 267.2863 28.0264 271.547 32.3148 271.3023 39.9902 271.75 42.2248 274.5297 43.5211 275.6535 47.2358 277.7878 47.8384 279.4945 51.3972 281.9532 51.6545 284.0849 53.3581 292.8487 55.8632 295.6581 58.4805 301.8595 63.7792 301.9241 63.8423 302.1501 64.0945 306.4089 69.9236 306.6615 72.7868 308.7598 75.2137 310.2722 79.2122 313.4417 80.1627 320.032 85.7763 322.4893 86.914 320.7962 91.6921 326.3551 95.4787 331.1062 98.7287 333.4977 100.4953 336.8203 106.0073 338.6313 106.7659 341.2376 114.4785 341.4626 115.2339 343.7857 118.9821 350.8688 121.9846 353.4856 124.6322 358.2723 126.812 364.131 127.0434 363.8606 133.02 Z" fill="#7fbf7b">
      <title>
        大甲區 Dajia District
      </title>
    </path>
    <path d="M 189.419 186.9135 185.7372 183.4744 184.9409 178.7534 180.0341 173.4548 179.8077 173.3598 170.7416 173.3972 155.2032 172.2201 148.3759 170.6901 139.1178 169.9706 121.7997 168.6283 126.2059 167.698 128.4061 168.2081 130.5739 168.6865 134.6063 162.9418 137.2756 158.1996 145.1722 148.4395 150.0056 145.2135 150.0776 142.7914 150.0781 142.6027 150.123 138.3873 153.6045 132.4204 153.256 129.8712 154.654 127.8305 156.313 125.0984 164.23 118.7037 163.3585 117.8519 166.2189 113.739 167.372 106.7585 170.1692 102.0476 173.0901 99.2875 179.0355 91.4081 185.4696 82.2086 189.9143 78.32 191.9962 74.4878 194.5078 67.3535 196.7466 65.1889 200.5146 60.0399 205.0554 56.2141 222.6298 67.4595 229.4094 73.8001 233.2231 75.7916 239.4956 78.1668 245.7952 82.681 255.7504 87.9589 256.9787 88.6225 257.8163 90.2289 262.166 98.3556 264.1958 102.2299 260.6958 103.9832 248.3387 101.0591 246.9152 100.7724 240.1866 99.2772 239.5665 101.3205 238.9447 104.0243 231.1062 106.1752 229.5204 106.0768 227.1801 109.8773 227.0831 109.8456 228.3426 110.9499 226.3125 119.9104 224.3558 125.505 224.2908 125.5992 220.985 127.1007 217.2903 128.7584 220.9768 130.215 220.4214 132.164 217.6403 131.0558 216.2707 134.8587 214.7202 133.5648 214.5579 133.7217 215.2297 136.7749 218.4579 140.2438 218.2236 143.1373 220.7418 145.8178 220.8064 145.8809 224.2329 147.8716 224.2004 147.903 224.2002 147.9974 219.8592 149.0558 219.3734 149.1174 214.7752 149.4829 211.7907 151.7401 212.9763 156.3676 210.7338 159.5705 208.0605 154.3728 205.3065 155.1205 199.8261 158.4089 202.53 164.2045 204.3068 165.6878 204.6625 165.8461 204.0413 168.078 201.3117 171.6884 200.2007 175.429 196.827 177.7163 192.3072 184.6564 190.0354 186.5062 189.419 186.9135 Z" fill="#d9f0d3">
      <title>
        大安區 Da&apos;an District
      </title>
    </path>
    <path d="M 77.9741 242.3535 79.514 237.0421 79.4816 237.042 79.2547 237.1041 79.6125 236.6334 79.8745 235.7535 79.6158 235.6268 79.5517 235.4378 75.9286 234.1047 75.9294 233.853 76.0912 233.9164 79.4554 235.1858 79.5203 235.1231 84.552 231.6477 86.2764 229.2624 88.5543 225.9667 90.4207 219.7125 90.6568 216.8505 91.672 213.3933 95.159 206.641 95.7815 204.4094 98.6498 198.6617 101.9625 195.6522 107.5059 193.7507 111.0434 191.2766 112.1898 187.1276 114.3393 183.202 120.0967 174.8204 121.7997 168.6283 139.1178 169.9706 148.3759 170.6901 155.2032 172.2201 170.7416 173.3972 179.8077 173.3598 180.0341 173.4548 184.9409 178.7534 185.7372 183.4744 189.419 186.9135 189.9679 187.5127 193.6121 192.902 199.9752 198.8334 201.883 199.8767 207.8102 199.452 211.1113 200.1843 221.8008 199.0168 222.804 199.271 228.113 199.9453 232.4862 199.3901 238.9295 199.7209 241.7775 200.4201 247.3379 204.2403 255.9383 209.8293 272.556 221.6971 275.4304 225.1327 271.2494 226.4128 268.0335 230.4319 263.3433 241.3997 261.4878 245.2647 260.9291 248.6294 265.6129 254.0199 263.8886 257.1302 272.9533 259.3221 276.2218 260.6509 276.4482 260.8088 276.2203 261.3116 275.1471 263.1022 270.6949 269.1947 270.3683 270.3264 268.6993 277.4321 268.634 277.6521 268.2093 279.1611 267.2007 280.9833 263.8591 282.9887 260.294 283.578 255.4998 283.4091 252.7765 284.2205 256.46 288.1931 248.5558 287.9222 237.8998 286.8892 228.7747 282.6822 222.9552 278.1059 217.8736 276.394 213.0821 275.249 213.4629 278.27 208.4485 275.6772 204.4277 277.0822 193.4154 276.329 190.1126 275.7537 186.4579 273.636 183.9261 275.4221 182.3629 278.3749 173.7297 283.9818 173.4712 283.7294 173.0213 282.4698 172.9893 282.3124 172.8608 281.9346 172.1166 281.6179 171.9544 281.7118 169.1278 284.5351 168.5657 288.4972 164.3228 288.1076 164.1284 288.107 158.1623 289.8201 154.695 290.0932 151.1311 290.1457 135.8845 285.9795 127.7914 284.0046 124.588 282.768 123.9084 282.5142 121.706 282.3502 123.2083 278.4225 111.4959 273.7305 113.5534 268.4519 109.1569 265.5755 106.1529 262.8606 101.012 259.8558 100.1717 259.2555 95.4863 255.6857 91.937 251.4275 87.5448 247.4495 82.3731 244.161 77.9741 242.3535 Z" fill="#7fbf7b">
      <title>
        清水區 Qingshui District
      </title>
    </path>
    <path d="M 283.8373 556.4987 291.6157 559.6934 288.5593 562.7694 293.1243 566.8691 297.241 568.4196 300.8115 567.5466 303.4034 569.1251 312.4538 569.5536 315.2048 572.6422 318.5104 574.3165 322.0004 580.9298 326.1117 585.3109 331.0091 586.1389 338.249 583.7942 339.808 582.948 342.083 581.0021 342.3758 580.5938 343.1568 579.3999 343.2218 579.3371 346.1823 575.222 350.9877 573.2496 353.2619 571.6182 359.074 569.0184 365.4342 568.181 365.6612 568.2129 367.9956 569.0037 368.8385 569.2883 373.9971 569.1406 380.0288 570.5356 382.852 570.1003 386.0279 572.0563 386.1251 572.1194 391.411 573.387 393.7521 570.3711 394.0475 568.3898 398.978 568.8072 402.9002 570.7013 405.009 570.6734 408.6386 573.0388 414.9318 573.4581 417.3017 572.4553 419.4709 575.1956 424.9204 575.802 427.8711 576.8132 430.6252 579.0825 433.9026 578.71 441.2915 584.1634 445.0487 588.3843 445.1111 590.0516 448.2225 592.3212 450.1647 595.4068 455.4849 596.1066 457.4289 598.0597 464.6284 600.6493 470.6891 605.6908 470.8487 607.6099 474.7074 609.5969 475.1563 613.5926 479.7958 614.1021 481.3837 615.7085 480.6982 618.8219 482.4458 622.4103 486.2726 624.2712 485.9098 628.8006 488.0184 629.3695 492.1019 633.6528 489.9255 635.3173 488.6889 638.0211 485.0495 641.6026 485.2698 646.9192 482.2502 647.9534 477.5731 650.7469 477.3458 650.8095 475.0052 653.6376 475.3253 657.0039 474.2837 659.236 470.808 661.339 467.7536 663.8828 467.4269 665.4553 462.4913 666.8955 458.6865 672.0491 455.5994 674.4984 455.1706 679.2793 454.2271 680.7564 454.2596 680.7879 454.3865 682.8328 449.9719 682.8579 442.9863 687.2831 438.4747 686.9932 435.909 687.8386 429.1485 693.3961 426.1958 692.5736 422.8151 695.4938 422.0657 697.2228 422.0332 697.2542 420.2778 698.7613 420.0829 698.8239 418.0385 698.4117 415.4168 693.6574 400.209 683.8175 398.1981 682.8389 385.4431 681.873 382.619 681.8994 380.1198 681.8006 365.9248 687.1538 364.528 687.6859 360.8255 688.6856 357.5157 688.0816 344.8281 685.7292 340.3844 684.0217 336.1031 682.3145 321.3496 674.7974 318.1086 672.4628 317.8494 672.2735 308.5805 665.6478 301.7434 660.474 299.4455 657.512 295.2955 655.5525 291.7325 652.336 288.6894 648.9318 288.4629 648.6481 288.3009 648.4905 288.2037 648.4588 283.8659 643.5417 279.76 636.7061 279.6315 636.1395 279.4092 634.0314 282.0123 631.0174 284.3741 634.1685 287.2652 632.9167 291.0903 634.7813 291.131 631.1009 292.6572 630.6639 292.0543 624.5598 295.7243 623.2152 295.7007 619.2201 294.4736 616.512 294.474 616.3233 295.7156 612.5197 295.1092 607.957 297.2226 606.0113 297.6491 603.9046 293.6324 600.8443 294.3202 597.9832 288.4859 595.2963 284.664 592.3307 284.6076 588.5871 283.3189 584.5891 280.8603 581.5007 281.3241 577.2864 280.8488 572.3465 283.874 568.8301 282.0655 565.2398 277.601 559.8818 277.0979 552.9915 277.9124 551.4519 281.5723 553.9454 283.8373 556.4987 Z" fill="#7fbf7b">
      <title>
        霧峰區 Wufeng District
      </title>
    </path>
    <path d="M 358.622 500.1883 355.4965 506.4738 353.5587 518.9902 354.9483 521.6039 355.0455 521.6355 363.1885 520.5815 369.4766 522.7952 372.2632 524.3418 368.3323 527.669 365.8936 530.9046 365.8931 531.1563 369.7803 533.9318 371.6294 533.7779 376.8782 537.0276 382.2257 539.5539 387.9937 542.8357 393.6616 547.8159 394.6021 547.9748 396.1255 548.6695 400.216 546.7576 404.82 548.0866 406.7036 546.8315 408.5862 546.1425 411.3716 548.7266 412.3085 551.0246 412.2604 560.5247 406.027 563.3455 404.4077 561.7385 398.978 568.8072 394.0475 568.3898 393.7521 570.3711 391.411 573.387 386.1251 572.1194 386.0279 572.0563 382.852 570.1003 380.0288 570.5356 373.9971 569.1406 368.8385 569.2883 367.9956 569.0037 365.6612 568.2129 365.4342 568.181 359.074 569.0184 353.2619 571.6182 350.9877 573.2496 346.1823 575.222 343.2218 579.3371 343.1568 579.3999 342.3758 580.5938 342.083 581.0021 339.808 582.948 338.249 583.7942 331.0091 586.1389 326.1117 585.3109 322.0004 580.9298 318.5104 574.3165 315.2048 572.6422 312.4538 569.5536 303.4034 569.1251 300.8115 567.5466 297.241 568.4196 293.1243 566.8691 288.5593 562.7694 291.6157 559.6934 283.8373 556.4987 285.7246 553.9549 286.3478 550.9049 289.6263 549.9685 296.5126 545.8 297.2618 544.386 298.8564 542.0617 292.1801 539.4359 291.3754 536.6659 293.1028 532.9892 290.7692 532.1975 296.6148 529.0018 297.1098 525.1965 297.1757 524.7248 299.3908 520.3885 303.6093 519.454 303.8687 519.5175 307.9542 520.0296 311.4212 521.6729 311.5187 521.5787 310.7488 517.6134 311.7602 514.8158 317.7353 511.3681 322.7288 511.8819 322.7613 511.8505 328.7978 509.9126 331.4347 505.105 332.3153 502.6845 337.6064 500.3359 338.514 500.5579 340.1664 501.3477 344.642 501.3251 347.5304 500.2927 350.6111 500.393 350.8057 500.3934 352.979 500.1774 355.8981 499.9943 358.622 500.1883 Z" fill="#7fbf7b">
      <title>
        大里區 Dali District
      </title>
    </path>
    <path d="M 331.4347 505.105 328.7978 509.9126 322.7613 511.8505 322.7288 511.8819 317.7353 511.3681 311.7602 514.8158 310.7488 517.6134 311.5187 521.5787 311.4212 521.6729 307.9542 520.0296 303.8687 519.5175 303.6093 519.454 299.3908 520.3885 297.1757 524.7248 297.1098 525.1965 296.6148 529.0018 290.7692 532.1975 290.2829 532.1021 291.4943 527.0715 280.7893 527.6765 281.3477 524.5949 280.2865 520.6288 272.2043 523.2212 272.075 523.0636 273.5752 519.5438 273.9713 516.5563 276.0174 515.3656 275.6737 509.7653 270.9734 508.7163 286.116 495.9163 286.7985 495.2887 286.9938 494.9431 287.3534 493.7171 287.3541 493.3711 287.3234 492.6475 287.3691 486.765 287.4086 483.6507 290.9384 485.8292 293.2398 486.3062 296.8668 488.5478 297.3206 488.6431 297.6701 491.8841 299.2887 493.2088 306.9759 492.5964 307.2032 492.4711 313.4358 489.6218 315.773 488.5572 316.0002 488.4633 318.0776 487.5239 321.064 486.146 324.2775 484.6742 327.2313 483.3276 329.1999 487.956 329.3612 488.3652 329.6195 488.9006 330.9085 492.8983 330.2216 495.7281 329.0098 501.4824 331.4347 505.105 Z" fill="#67a9cf">
      <title>
        南區 South District
      </title>
    </path>
    <path d="M 270.9734 508.7163 275.6737 509.7653 276.0174 515.3656 273.9713 516.5563 273.5752 519.5438 272.075 523.0636 272.2043 523.2212 280.2865 520.6288 281.3477 524.5949 280.7893 527.6765 291.4943 527.0715 290.2829 532.1021 290.7692 532.1975 293.1028 532.9892 291.3754 536.6659 292.1801 539.4359 298.8564 542.0617 297.2618 544.386 296.5126 545.8 289.6263 549.9685 286.3478 550.9049 285.7246 553.9549 283.8373 556.4987 281.5723 553.9454 277.9124 551.4519 277.0979 552.9915 277.601 559.8818 282.0655 565.2398 283.874 568.8301 280.8488 572.3465 281.3241 577.2864 280.8603 581.5007 283.3189 584.5891 284.6076 588.5871 284.664 592.3307 288.4859 595.2963 294.3202 597.9832 293.6324 600.8443 297.6491 603.9046 297.2226 606.0113 295.1092 607.957 295.7156 612.5197 294.474 616.3233 294.4736 616.512 295.7007 619.2201 295.7243 623.2152 292.0543 624.5598 292.6572 630.6639 291.131 631.1009 291.0903 634.7813 287.2652 632.9167 284.3741 634.1685 282.0123 631.0174 279.4092 634.0314 279.6315 636.1395 279.76 636.7061 283.8659 643.5417 288.2037 648.4588 288.1387 648.4901 282.7112 651.7809 278.8245 648.3746 274.9742 643.3011 272.0494 644.9616 271.9178 645.7477 274.4649 652.9574 274.5269 654.2158 272.5106 655.9413 269.3656 654.5813 265.8623 653.7866 261.292 651.2907 259.9048 647.8271 258.4445 647.7292 249.0595 650.0659 247.3072 649.9672 246.6583 649.8713 246.1716 649.8072 246.0419 649.7754 245.7499 649.7432 245.5228 649.7112 242.5763 646.9357 243.2345 643.2253 248.2818 636.3171 247.7049 633.3587 245.2449 630.7731 244.9601 627.8469 244.9717 623.1283 243.0956 620.7015 243.0958 620.6385 241.6176 614.8152 241.8173 612.8025 244.8821 606.8645 244.633 602.6172 244.7367 600.0694 244.803 599.4718 244.8693 598.9058 244.8694 598.8743 244.4642 592.1728 244.4987 591.355 244.4094 588.0832 243.6358 586.0366 242.4726 584.0833 239.5572 582.2516 236.0557 581.2991 235.9265 581.0471 232.1251 570.4049 231.064 566.6902 229.741 563.8872 229.4958 558.2556 228.8319 551.4591 227.2876 546.4848 226.975 541.8912 226.9429 541.7653 225.8516 537.2326 225.9216 535.251 225.9217 535.2195 225.9543 535.1252 225.9545 535.0623 225.695 535.0616 223.9098 535.5289 222.5145 535.7456 220.6979 535.7723 219.6948 534.8575 219.5003 534.7941 211.8462 534.4596 211.749 534.4279 210.6169 533.2295 210.1002 532.3473 209.4208 531.6849 207.8336 530.8628 206.2439 530.9845 202.6429 531.2266 201.475 531.3178 200.4695 531.3151 190.1939 528.8966 186.9878 527.0633 184.8542 524.5093 184.0773 523.9409 183.6231 523.9711 183.5584 523.9395 183.4612 523.8763 183.1044 523.8753 181.6123 523.9341 181.2246 523.3668 182.0442 520.2548 185.4874 518.3768 186.3998 516.8379 188.8806 511.0879 186.2624 507.872 183.2837 506.0393 183.8454 502.3288 187.7169 497.9039 189.964 494.5126 191.1033 492.9428 190.0452 488.5358 187.4902 486.0437 187.6262 483.7791 187.7573 483.2761 188.1574 479.2821 194.3538 478.2923 198.3023 481.1341 202.8609 486.2425 204.4419 489.2352 207.8716 492.1699 213.2495 494.2288 220.924 498.6528 226.8551 500.115 228.3168 499.2065 235.2839 501.3947 235.2387 506.4278 235.3973 507.8752 235.7799 510.4872 236.6503 512.5656 236.8282 519.2036 240.4628 518.4262 245.5514 519.8544 249.7012 520.5566 250.7652 523.1387 251.2803 524.7129 253.2927 524.1201 259.0145 518.5973 261.317 518.7286 266.0337 512.9201 270.9734 508.7163 Z" fill="#7fbf7b">
      <title>
        烏日區 Wuri District
      </title>
    </path>
    <path d="M 332.088 471.1634 332.0877 471.3207 332.086 472.1386 332.1142 474.2463 332.1345 480.1604 331.8727 481.2924 327.2313 483.3276 326.876 482.6348 325.3872 481.2476 324.9018 480.7747 324.2545 480.1443 322.4745 478.4733 321.9244 477.9374 321.4065 477.4644 320.5651 476.6762 319.7236 475.9195 319.0439 475.2889 317.6201 473.9018 317.2318 473.5234 316.0991 472.4515 316.0344 472.3884 314.7076 471.1273 315.8451 469.9343 316.7557 468.6779 317.5675 468.1134 320.1024 465.4448 320.3946 465.2567 320.4918 465.2884 321.4986 464.5355 321.6619 463.9381 321.7918 463.844 322.7331 463.4056 324.8366 465.3603 325.4843 465.7706 325.5816 465.7708 326.391 466.3702 326.4556 466.4961 326.5851 466.5908 326.3223 468.226 326.127 468.5717 326.1913 468.8235 326.2559 468.9494 326.806 469.5168 327.9063 470.5572 328.2623 470.8725 329.0065 471.6605 331.9259 471.1631 332.088 471.1634 Z" fill="#d9f0d3">
      <title>
        中區 Central District
      </title>
    </path>
    <path d="M 352.3147 458.3059 352.8979 458.5272 352.3416 461.1372 352.309 461.2315 353.4333 466.6758 353.5622 467.085 356.9361 466.2422 361.8394 462.5395 366.4146 460.7864 367.9379 461.1353 368.8119 461.9234 370.3263 467.0853 370.0627 469.3497 368.4025 472.807 367.7075 480.2926 365.9827 483.5296 365.4619 484.5982 364.8428 486.1699 364.0915 489.0311 362.2353 493.0857 358.622 500.1883 355.8981 499.9943 352.979 500.1774 350.8057 500.3934 350.6111 500.393 347.5304 500.2927 344.642 501.3251 340.1664 501.3477 338.514 500.5579 337.6064 500.3359 332.3153 502.6845 331.4347 505.105 329.0098 501.4824 330.2216 495.7281 330.9085 492.8983 329.6195 488.9006 329.3612 488.3652 329.1999 487.956 327.2313 483.3276 331.8727 481.2924 332.1345 480.1604 332.1142 474.2463 332.086 472.1386 332.0877 471.3207 332.088 471.1634 332.1209 470.9747 332.2515 470.5031 332.4801 469.7486 334.6915 466.5759 335.1457 466.451 335.2431 466.4197 336.2488 466.1386 339.0059 465.7037 339.1051 464.7287 340.676 457.5281 340.7088 457.3394 342.0725 456.3669 348.6192 457.8898 349.0082 457.9535 349.9804 458.207 352.2499 458.3058 352.3147 458.3059 Z" fill="#7fbf7b">
      <title>
        東區 East District
      </title>
    </path>
    <path d="M 299.7635 439.7631 299.0764 442.5928 299.6902 443.6008 299.7222 443.7582 302.6025 446.1553 300.4901 448.4156 303.0122 451.5669 300.7394 452.9775 303.2971 454.6818 305.8911 454.656 306.507 454.7203 310.0423 454.1931 313.8622 457.0324 314.1865 457.0331 314.2188 457.0647 317.0022 459.4928 316.7708 461.5371 316.7383 461.5684 316.5108 461.8511 316.4458 461.9139 315.1747 464.9626 311.8601 468.3215 314.4164 470.8436 314.7076 471.1273 316.0344 472.3884 316.0991 472.4515 317.2318 473.5234 317.6201 473.9018 319.0439 475.2889 319.7236 475.9195 320.5651 476.6762 321.4065 477.4644 321.9244 477.9374 322.4745 478.4733 324.2545 480.1443 324.9018 480.7747 325.3872 481.2476 326.876 482.6348 327.2313 483.3276 324.2775 484.6742 321.064 486.146 318.0776 487.5239 316.0002 488.4633 315.773 488.5572 313.4358 489.6218 307.2032 492.4711 306.9759 492.5964 299.2887 493.2088 297.6701 491.8841 297.3206 488.6431 296.8668 488.5478 293.2398 486.3062 290.9384 485.8292 287.4086 483.6507 287.3854 479.5926 287.3613 475.9435 287.0059 475.345 287.8189 474.3087 287.6704 468.3314 282.1905 468.2875 282.1862 470.1435 280.1757 470.1704 280.0566 465.5773 282.2293 465.5193 282.3664 462.2795 284.7334 462.2848 284.7406 459.1391 284.7865 453.2251 285.9257 451.3088 286.8972 451.8457 289.9806 450.4371 291.7377 447.6413 293.5604 444.4995 295.285 441.7351 298.4683 439.0367 299.7635 439.7631 Z" fill="#2166ac">
      <title>
        西區 West District
      </title>
    </path>
    <path d="M 551.8023 511.4753 549.7251 512.9518 548.6509 516.9773 547.0919 519.1778 547.2144 526.4761 546.4983 529.0234 541.0417 536.2847 544.1513 540.566 543.9545 542.7679 540.4463 547.6088 538.4667 548.3617 538.4926 554.7162 537.8056 560.2834 539.0005 565.5695 538.4143 567.6766 538.211 576.0755 539.2774 580.2289 539.3097 580.3548 539.5649 584.5704 531.4525 585.8202 526.7787 587.451 524.9597 589.3365 519.5748 588.4812 519.51 588.4182 519.3806 588.072 519.2187 587.7887 515.1922 590.6468 513.859 593.2248 513.7941 593.2247 510.4527 592.8119 507.2368 595.9853 507.6563 597.9047 506.2238 601.961 504.2097 604.0034 501.8353 608.6877 502.1204 614.4762 499.1311 617.7127 495.4554 624.8804 492.79 628.3689 493.5003 631.3267 492.1019 633.6528 488.0184 629.3695 485.9098 628.8006 486.2726 624.2712 482.4458 622.4103 480.6982 618.8219 481.3837 615.7085 479.7958 614.1021 475.1563 613.5926 474.7074 609.5969 470.8487 607.6099 470.6891 605.6908 464.6284 600.6493 457.4289 598.0597 455.4849 596.1066 450.1647 595.4068 448.2225 592.3212 445.1111 590.0516 445.0487 588.3843 441.2915 584.1634 433.9026 578.71 430.6252 579.0825 427.8711 576.8132 424.9204 575.802 419.4709 575.1956 417.3017 572.4553 414.9318 573.4581 408.6386 573.0388 405.009 570.6734 402.9002 570.7013 398.978 568.8072 404.4077 561.7385 406.027 563.3455 412.2604 560.5247 412.3085 551.0246 411.3716 548.7266 408.5862 546.1425 406.7036 546.8315 404.82 548.0866 400.216 546.7576 396.1255 548.6695 394.6021 547.9748 393.6616 547.8159 387.9937 542.8357 382.2257 539.5539 376.8782 537.0276 371.6294 533.7779 369.7803 533.9318 365.8931 531.1563 365.8936 530.9046 368.3323 527.669 372.2632 524.3418 369.4766 522.7952 363.1885 520.5815 355.0455 521.6355 354.9483 521.6039 353.5587 518.9902 355.4965 506.4738 358.622 500.1883 362.2353 493.0857 364.0915 489.0311 364.8428 486.1699 365.4619 484.5982 365.9827 483.5296 367.7075 480.2926 368.4025 472.807 370.0627 469.3497 370.3263 467.0853 368.8119 461.9234 367.9379 461.1353 366.4146 460.7864 361.8394 462.5395 356.9361 466.2422 353.5622 467.085 353.4333 466.6758 352.309 461.2315 352.3416 461.1372 352.8979 458.5272 352.3147 458.3059 353.7816 454.3136 358.2674 448.4082 358.3696 445.8288 359.0501 446.0189 357.3713 442.3036 358.8343 440.2302 359.3207 440.1682 359.7099 440.1061 362.336 440.111 366.1877 443.5472 372.1853 443.7785 379.0238 445.2066 380.2875 445.5863 386.9305 447.6115 390.4928 449.9771 393.0554 449.3209 398.0483 449.4239 408.7878 444.9436 411.8352 445.1059 412.7753 445.2018 413.5209 445.2345 416.5996 446.1203 424.3231 441.7601 429.4405 445.0398 431.8351 448.0634 434.9149 448.2569 435.2067 448.2574 439.1303 447.9488 441.5013 445.247 444.2877 446.5094 448.3732 446.2953 450.3533 444.7567 453.1419 444.5091 456.7122 441.8089 457.0719 439.7017 459.7068 433.5398 462.7572 431.4678 467.2945 432.5437 470.7609 434.4359 474.0686 433.8112 474.5871 433.9692 478.09 432.8728 482.4338 433.2246 488.7199 435.9066 493.3573 434.9372 495.8896 432.1406 501.1441 430.1337 500.2977 432.9639 503.7624 436.4914 504.0179 439.7003 506.217 444.3587 504.8459 452.19 503.3535 452.9432 502.7648 457.1579 500.8814 459.4206 506.392 460.7798 507.882 462.0084 512.194 462.4853 514.36 468.1187 517.309 469.6006 520.1959 468.7545 525.7771 465.2059 528.8232 466.8765 531.0217 472.9502 536.1788 471.6658 536.4707 471.6976 536.7625 471.6664 538.7421 470.127 540.9143 470.5068 542.7279 472.7735 545.9685 474.8215 546.7075 481.6486 545.278 484.321 547.3483 489.4821 546.9245 491.7152 544.4879 496.0539 542.9306 496.7444 543.9943 503.1943 547.0075 506.1858 548.8549 507.4144 551.8023 511.4753 Z" fill="#67a9cf">
      <title>
        太平區 Taiping District
      </title>
    </path>
    <path d="M 285.9257 451.3088 284.7865 453.2251 284.7406 459.1391 284.7334 462.2848 282.3664 462.2795 282.2293 465.5193 280.0566 465.5773 280.1757 470.1704 282.1862 470.1435 282.1905 468.2875 287.6704 468.3314 287.8189 474.3087 287.0059 475.345 287.3613 475.9435 287.3854 479.5926 287.4086 483.6507 287.3691 486.765 287.3234 492.6475 287.3541 493.3711 287.3534 493.7171 286.9938 494.9431 286.7985 495.2887 286.116 495.9163 270.9734 508.7163 266.0337 512.9201 261.317 518.7286 259.0145 518.5973 253.2927 524.1201 251.2803 524.7129 250.7652 523.1387 249.7012 520.5566 245.5514 519.8544 240.4628 518.4262 236.8282 519.2036 236.6503 512.5656 235.7799 510.4872 235.3973 507.8752 235.2387 506.4278 235.2839 501.3947 228.3168 499.2065 226.8551 500.115 220.924 498.6528 213.2495 494.2288 207.8716 492.1699 204.4419 489.2352 202.8609 486.2425 198.3023 481.1341 194.3538 478.2923 188.1574 479.2821 185.9252 477.3885 180.9838 470.2339 178.2617 469.5972 173.6027 465.935 173.2787 465.8397 171.4033 464.0099 171.307 463.6636 170.9233 461.7436 170.892 461.366 170.8604 461.0828 171.2781 451.0174 175.7198 451.0928 178.2724 442.7007 181.1757 436.3542 183.0318 433.4338 183.5196 432.9003 183.7145 432.7751 184.1376 432.1785 184.6578 431.6452 185.5754 428.0929 187.4887 427.878 191.3747 429.4615 190.0346 433.4216 200.8152 439.1446 206.195 439.9454 208.7654 436.5233 212.593 435.7783 217.3879 437.0492 226.5758 444.7171 235.263 445.4626 237.2066 446.1595 238.8811 450.7251 239.9815 451.5143 240.3381 451.5466 240.4365 451.075 242.6437 450.1053 243.8992 453.7575 247.6295 453.1061 248.2463 452.793 250.6821 451.1317 252.5045 448.3993 252.6993 448.2739 253.5118 447.4894 254.1292 446.9247 256.9554 444.6665 257.1825 444.6356 258.8033 444.7339 257.8807 450.8659 260.6728 449.3312 261.182 453.2961 266.9866 452.9952 271.3313 453.0054 271.9797 453.0069 275.7117 451.6 280.0565 451.5785 281.749 448.7512 285.9257 451.3088 Z" fill="#2166ac">
      <title>
        南屯區 Nantun District
      </title>
    </path>
    <path d="M 358.3696 445.8288 358.2674 448.4082 353.7816 454.3136 352.3147 458.3059 352.2499 458.3058 349.9804 458.207 349.0082 457.9535 348.6192 457.8898 342.0725 456.3669 340.7088 457.3394 340.676 457.5281 339.1051 464.7287 339.0059 465.7037 336.2488 466.1386 335.2431 466.4197 335.1457 466.451 334.6915 466.5759 332.4801 469.7486 332.2515 470.5031 332.1209 470.9747 332.088 471.1634 331.9259 471.1631 329.0065 471.6605 328.2623 470.8725 327.9063 470.5572 326.806 469.5168 326.2559 468.9494 326.1913 468.8235 326.127 468.5717 326.3223 468.226 326.5851 466.5908 326.4556 466.4961 326.391 466.3702 325.5816 465.7708 325.4843 465.7706 324.8366 465.3603 322.7331 463.4056 321.7918 463.844 321.6619 463.9381 321.4986 464.5355 320.4918 465.2884 320.3946 465.2567 320.1024 465.4448 317.5675 468.1134 316.7557 468.6779 315.8451 469.9343 314.7076 471.1273 314.4164 470.8436 311.8601 468.3215 315.1747 464.9626 316.4458 461.9139 316.5108 461.8511 316.7383 461.5684 316.7708 461.5371 317.0022 459.4928 314.2188 457.0647 314.1865 457.0331 313.8622 457.0324 310.0423 454.1931 306.507 454.7203 305.8911 454.656 303.2971 454.6818 300.7394 452.9775 303.0122 451.5669 300.4901 448.4156 302.6025 446.1553 299.7222 443.7582 299.6902 443.6008 299.0764 442.5928 299.7635 439.7631 302.9209 434.0761 302.9859 433.9819 303.0509 433.9191 304.0637 430.3666 304.1948 429.7063 304.3253 429.3291 305.1472 424.1088 308.4554 423.4239 308.6824 423.3929 311.4065 422.9898 315.0053 422.8087 316.6904 423.1269 323.2686 424.4619 322.7722 429.2739 321.8927 431.2539 328.0849 431.2982 331.1319 431.5247 331.0984 432.0594 331.2568 433.8213 336.0549 433.894 335.9837 437.0082 335.9442 440.4999 336.1374 441.1609 336.2995 441.1927 337.531 441.4468 339.1514 441.7647 341.6138 442.5875 344.2721 442.7186 348.939 443.64 351.7911 444.1804 355.5179 445.0684 358.3696 445.8288 Z" fill="#2166ac">
      <title>
        北區 North District
      </title>
    </path>
    <path d="M 301.4857 379.179 297.7198 381.9075 297.0343 384.1081 294.4874 392.4702 292.7589 397.1536 291.3627 398.2201 291.5809 402.0899 291.4833 402.247 291.8882 409.5776 291.9511 410.4271 292.0135 411.4968 292.1089 412.3464 292.2923 417.2542 299.4245 417.1442 299.1831 409.0275 301.5821 408.9698 301.6343 414.6953 303.9016 415.581 307.3371 415.9345 308.6946 417.7935 307.4909 419.7413 305.4733 423.2602 305.4081 423.4173 305.1472 424.1088 304.3253 429.3291 304.1948 429.7063 304.0637 430.3666 303.0509 433.9191 302.9859 433.9819 302.9209 434.0761 299.7635 439.7631 298.4683 439.0367 295.285 441.7351 293.5604 444.4995 291.7377 447.6413 289.9806 450.4371 286.8972 451.8457 285.9257 451.3088 281.749 448.7512 280.0565 451.5785 275.7117 451.6 271.9797 453.0069 271.3313 453.0054 266.9866 452.9952 261.182 453.2961 260.6728 449.3312 257.8807 450.8659 258.8033 444.7339 257.1825 444.6356 256.9554 444.6665 254.1292 446.9247 253.5118 447.4894 252.6993 448.2739 252.5045 448.3993 250.6821 451.1317 248.2463 452.793 247.6295 453.1061 243.8992 453.7575 242.6437 450.1053 240.4365 451.075 240.3381 451.5466 239.9815 451.5143 238.8811 450.7251 237.2066 446.1595 235.263 445.4626 226.5758 444.7171 217.3879 437.0492 212.593 435.7783 208.7654 436.5233 206.195 439.9454 200.8152 439.1446 190.0346 433.4216 191.3747 429.4615 187.4887 427.878 185.5754 428.0929 184.8645 427.2416 183.7055 424.3443 184.5548 422.0502 189.5631 416.2757 192.5482 415.3086 199.0108 411.0478 198.3375 408.3091 192.2191 405.2726 190.309 404.3866 190.5045 404.0411 190.6346 403.8527 191.1879 403.0363 191.7757 401.465 198.5466 402.8989 200.7157 403.9114 202.6649 402.3437 205.1074 398.1034 197.2716 394.9681 190.5348 392.9994 193.8623 385.2383 194.0574 384.9872 197.15 380.0881 197.2151 379.9624 197.8982 379.0835 201.03 371.5419 202.1268 361.4468 203.0406 359.0899 209.1684 358.131 209.5838 360.3341 212.5291 361.789 224.6098 364.8403 227.4293 364.8789 233.4196 367.0333 238.7656 367.6444 254.0815 373.3759 256.2186 374.2304 259.716 375.4342 259.8719 377.9827 261.6852 378.7105 262.6965 376.0076 264.7415 374.6912 268.3023 376.5556 269.6379 373.696 273.5231 375.4668 277.195 371.3857 279.8579 369.1269 282.9112 366.1768 286.4425 366.7825 286.408 367.6947 287.0548 368.3253 291.6895 368.2728 293.9537 370.2597 301.8939 370.4031 302.3354 375.9721 301.4857 379.179 Z" fill="#2166ac">
      <title>
        西屯區 Xitun District
      </title>
    </path>
    <path d="M 451.5543 355.261 454.2092 356.9635 455.9861 360.804 455.9535 360.9297 466.1266 363.3034 472.0549 365.199 476.879 368.7917 480.3764 370.9983 484.2639 372.3246 484.6203 372.4509 488.4111 373.3995 491.6819 375.4799 494.0437 378.8803 496.9246 381.8723 496.6617 384.7661 499.0567 387.6003 496.5843 394.8955 497.517 400.7478 497.4196 400.9364 493.6834 407.6323 493.6492 409.0793 496.8194 414.3681 496.9814 414.4312 497.2082 414.5259 497.7852 419.8115 496.9398 421.8552 500.307 425.3511 499.8511 427.0808 499.9157 427.2381 501.1441 430.1337 495.8896 432.1406 493.3573 434.9372 488.7199 435.9066 482.4338 433.2246 478.09 432.8728 474.5871 433.9692 474.0686 433.8112 470.7609 434.4359 467.2945 432.5437 462.7572 431.4678 459.7068 433.5398 457.0719 439.7017 456.7122 441.8089 453.1419 444.5091 450.3533 444.7567 448.3732 446.2953 444.2877 446.5094 441.5013 445.247 439.1303 447.9488 435.2067 448.2574 434.9149 448.2569 431.8351 448.0634 429.4405 445.0398 424.3231 441.7601 416.5996 446.1203 413.5209 445.2345 412.7753 445.2018 411.8352 445.1059 408.7878 444.9436 398.0483 449.4239 393.0554 449.3209 390.4928 449.9771 386.9305 447.6115 380.2875 445.5863 379.0238 445.2066 372.1853 443.7785 366.1877 443.5472 362.336 440.111 359.7099 440.1061 359.3207 440.1682 358.8343 440.2302 357.3713 442.3036 359.0501 446.0189 358.3696 445.8288 355.5179 445.0684 351.7911 444.1804 348.939 443.64 344.2721 442.7186 341.6138 442.5875 339.1514 441.7647 337.531 441.4468 336.2995 441.1927 336.1374 441.1609 335.9442 440.4999 335.9837 437.0082 336.0549 433.894 331.2568 433.8213 331.0984 432.0594 331.1319 431.5247 328.0849 431.2982 321.8927 431.2539 322.7722 429.2739 323.2686 424.4619 316.6904 423.1269 315.0053 422.8087 311.4065 422.9898 308.6824 423.3929 308.4554 423.4239 305.1472 424.1088 305.4081 423.4173 305.4733 423.2602 307.4909 419.7413 308.6946 417.7935 307.3371 415.9345 303.9016 415.581 301.6343 414.6953 301.5821 408.9698 299.1831 409.0275 299.4245 417.1442 292.2923 417.2542 292.1089 412.3464 292.0135 411.4968 291.9511 410.4271 291.8882 409.5776 291.4833 402.247 291.5809 402.0899 291.3627 398.2201 292.7589 397.1536 294.4874 392.4702 297.0343 384.1081 297.7198 381.9075 301.4857 379.179 306.1879 378.0252 309.2392 375.8927 314.6529 375.3695 316.205 377.0715 326.5462 376.1493 332.5474 373.645 339.8755 372.024 339.0914 375.1053 341.9759 375.174 348.4222 376.9483 348.9307 382.0455 347.9566 382.893 344.2263 384.3641 345.4771 391.0357 345.4445 391.1615 344.0471 392.9518 347.6747 394.3431 348.3554 394.3444 349.7153 395.1021 350.0393 395.1656 352.0186 394.1314 351.9491 396.5535 351.8835 396.8994 349.7057 400.0095 349.7377 400.1983 350.58 400.4516 356.3789 402.2245 356.8002 402.2567 357.7126 399.8047 359.8212 398.9279 359.2798 393.9251 360.9452 387.4794 360.0723 386.2824 363.2879 382.7652 364.7035 388.3359 368.0013 392.7776 367.9685 392.9663 370.5199 397.9728 368.6345 400.832 370.8671 402.9753 373.82 401.3134 374.0865 397.4131 377.815 396.9795 378.6603 395.5969 381.7398 395.5081 382.9035 397.3033 386.566 397.4671 388.1272 394.4813 394.8034 395.1536 396.0399 392.4189 399.5454 389.6252 402.7194 391.0776 406.093 389.5104 407.2634 387.4362 406.6231 382.7164 408.8664 378.6306 412.3673 378.3533 415.0278 376.6904 418.7543 377.1997 419.6968 375.5969 425.4352 374.5365 425.6405 367.7734 422.3394 364.8425 424.324 360.0956 428.1876 355.6661 430.4626 351.5487 431.984 352.6835 435.0305 352.5309 438.6256 353.952 440.5076 352.3505 443.7451 354.4945 448.0215 355.476 451.5543 355.261 Z" fill="#2166ac">
      <title>
        北屯區 Beitun District
      </title>
    </path>
    <path d="M 430.4626 351.5487 428.1876 355.6661 424.324 360.0956 422.3394 364.8425 425.6405 367.7734 425.4352 374.5365 419.6968 375.5969 418.7543 377.1997 415.0278 376.6904 412.3673 378.3533 408.8664 378.6306 406.6231 382.7164 407.2634 387.4362 406.093 389.5104 402.7194 391.0776 399.5454 389.6252 396.0399 392.4189 394.8034 395.1536 388.1272 394.4813 386.566 397.4671 382.9035 397.3033 381.7398 395.5081 378.6603 395.5969 377.815 396.9795 374.0865 397.4131 373.82 401.3134 370.8671 402.9753 368.6345 400.832 370.5199 397.9728 367.9685 392.9663 368.0013 392.7776 364.7035 388.3359 363.2879 382.7652 360.0723 386.2824 360.9452 387.4794 359.2798 393.9251 359.8212 398.9279 357.7126 399.8047 356.8002 402.2567 356.3789 402.2245 350.58 400.4516 349.7377 400.1983 349.7057 400.0095 351.8835 396.8994 351.9491 396.5535 352.0186 394.1314 350.0393 395.1656 349.7153 395.1021 348.3554 394.3444 347.6747 394.3431 344.0471 392.9518 345.4445 391.1615 345.4771 391.0357 344.2263 384.3641 347.9566 382.893 348.9307 382.0455 348.4222 376.9483 341.9759 375.174 339.0914 375.1053 339.8755 372.024 332.5474 373.645 326.5462 376.1493 316.205 377.0715 314.6529 375.3695 309.2392 375.8927 311.1687 367.9065 315.6408 368.1048 319.8986 362.3569 321.9565 354.7169 316.1577 353.6666 313.9563 352.6239 315.2983 346.398 319.3545 343.827 321.0817 339.2692 320.994 334.7391 324.4624 334.2115 326.0243 331.1319 331.6291 331.6153 332.0576 328.0928 337.4421 325.3984 340.8748 326.3804 339.2475 329.9319 338.4577 335.9074 342.6071 335.1292 342.709 332.7701 348.7053 332.0269 347.365 337.9384 348.5575 341.2438 351.1135 343.2621 354.8395 343.6154 355.1395 339.3376 358.1583 336.6695 360.4364 331.5776 361.8387 326.8931 363.8846 324.569 364.0142 324.5693 369.0362 324.7989 370.777 329.6152 369.961 332.7595 373.2002 333.4261 373.3266 335.1565 373.4239 335.0937 375.4998 334.028 381.4276 335.2656 383.0123 336.9671 382.9084 340.679 384.8806 343.2306 384.5497 347.0364 388.1134 347.609 391.3184 349.4392 392.3842 351.5173 400.065 351.3418 406.0059 345.2175 407.4033 342.8605 414.3046 343.564 416.6647 346.9024 419.8094 346.1525 428.1671 348.1476 430.4626 351.5487 Z" fill="#7fbf7b">
      <title>
        潭子區 Tanzi District
      </title>
    </path>
  </g>
</svg>
