<?xml version="1.0" encoding="UTF-8"?>
<svg xmlns="http://www.w3.org/2000/svg" baseProfile="tiny" width="1440" height="1295">
  <g id="town" stroke="#000" stroke-width="1">
    <path d="M 747.2345 245.7689 742.581 246.3398 732.9528 239.0554 722.7555 233.4433 719.0952 240.62 726.5994 254.3493 722.4999 256.7453 715.5022 255.6796 699.0809 270.3368 694.9138 264.8987 686.1616 267.5195 683.3173 274.8473 684.5397 287.1695 682.1771 289.6713 658.0469 290.2503 639.909 288.3431 629.2722 289.2784 612.789 294.2255 609.8497 299.6308 613.965 315.8591 612.1481 321.7132 602.7696 337.3352 592.036 336.7908 589.2571 340.5709 588.5795 353.9682 582.1955 373.7916 572.0091 376.1561 563.1677 375.2752 563.2304 383.4045 553.3544 384.9323 552.6731 388.3283 542.7331 392.4174 537.4144 392.5879 525.8884 386.5197 529.7267 365.2558 532.2595 359.7014 521.1128 359.8424 520.5414 341.1675 510.8782 341.2663 520.2925 329.5885 514.7725 329.3143 509.6783 315.543 519.9808 310.1266 526.2809 317.9425 530.6775 317.9153 535.1186 308.9217 558.8701 291.9934 558.9426 287.609 552.7613 276.3949 565.9237 271.0897 573.4324 272.1611 574.321 257.5332 570.3678 250.6165 578.3184 244.7433 566.0169 241.4315 559.521 242.4341 564.5254 232.8517 564.5153 224.427 573.9587 226.7889 576.9431 233.2081 583.2279 233.5343 588.1146 237.6472 593.4162 229.8394 602.8307 227.6184 611.6642 218.5463 604.4003 209.2001 614.9837 208.2161 619.6546 203.9028 621.3234 196.767 612.0427 192.5351 614.3288 184.5648 618.4433 178.9679 628.149 190.5916 633.156 190.8123 639.1485 176.8979 638.7794 168.373 645.3196 168.4528 644.8803 175.0526 639.6257 184.1916 640.5673 190.5022 645.7459 197.8179 651.6719 198.2397 659.3101 193.0528 664.7782 193.0288 666.2847 198.8492 686.927 199.6333 686.8851 208.9446 692.4521 209.7088 695.3036 200.6073 706.2858 213.269 707.9368 209.7292 717.3385 210.116 716.8275 221.6915 745.1096 217.0864 744.1115 223.3389 749.0281 232.8196 747.2345 245.7689 Z" id="67000010">
      <title>
        新營區 Xinying District
      </title>
    </path>
    <path d="M 618.4433 178.9679 614.3288 184.5648 612.0427 192.5351 621.3234 196.767 619.6546 203.9028 614.9837 208.2161 604.4003 209.2001 611.6642 218.5463 602.8307 227.6184 593.4162 229.8394 588.1146 237.6472 583.2279 233.5343 576.9431 233.2081 573.9587 226.7889 564.5153 224.427 564.5254 232.8517 559.521 242.4341 566.0169 241.4315 578.3184 244.7433 570.3678 250.6165 574.321 257.5332 573.4324 272.1611 565.9237 271.0897 552.7613 276.3949 558.9426 287.609 558.8701 291.9934 535.1186 308.9217 530.6775 317.9153 526.2809 317.9425 519.9808 310.1266 509.6783 315.543 514.7725 329.3143 520.2925 329.5885 510.8782 341.2663 520.5414 341.1675 521.1128 359.8424 532.2595 359.7014 529.7267 365.2558 525.8884 386.5197 537.4144 392.5879 542.7331 392.4174 542.8252 394.487 523.3875 406.1152 520.4879 403.0953 497.1029 416.3769 483.0259 419.1621 474.9632 405.8677 470.9287 404.8614 464.0029 409.2101 461.6329 402.7438 465.1782 399.4614 458.8744 392.3341 450.4159 386.624 449.2388 377.0108 453.6164 370.9741 445.7497 369.5532 436.5778 363.5434 433.9232 372.4958 421.3812 375.3357 424.8472 367.7179 416.6145 367.8709 416.9903 374.1298 406.1619 372.0023 400.1312 381.0348 396.1722 375.594 388.8614 375.4064 386.7036 367.8568 380.188 362.5004 385.3303 347.6007 395.4992 348.5921 398.7447 344.0279 408.3643 342.5526 414.7831 337.2664 421.4347 336.2674 427.0753 323.3896 425.8597 311.5591 427.4067 299.3491 446.4258 289.0547 458.6362 270.6438 462.5128 262.3379 463.9361 253.97 470.9145 238.7828 476.6751 231.7183 482.5728 217.8062 486.4847 212.3577 505.2385 212.7495 511.3941 208.199 529.5162 201.9844 551.7041 179.3829 553.7976 169.2935 545.0142 168.166 538.2618 169.6596 548.672 151.729 555.1831 147.2779 561.3154 147.1111 571.0948 153.4654 573.5653 160.3256 579.8435 161.7358 596.4797 155.5594 598.6844 153.9935 601.2924 142.8224 607.8569 137.6808 618.5288 139.1112 621.0591 176.9111 618.4433 178.9679 Z" id="67000020">
      <title>
        鹽水區 Yanshui District
      </title>
    </path>
    <path d="M 1072.9441 51.6328 1077.8337 55.8862 1077.8652 61.7983 1082.1461 64.8178 1079.1636 70.7692 1051.7419 82.8454 1048.3615 85.4449 1045.089 101.2976 1047.2053 109.9265 1054.4213 106.2562 1057.0431 101.437 1064.2931 102.7918 1070.7567 110.1544 1086.1718 114.3935 1094.3558 111.4645 1095.1604 115.4085 1107.0317 125.5469 1112.0612 134.4805 1112.0308 143.9396 1102.9637 151.1523 1096.3404 145.2679 1091.8076 156.4365 1094.248 160.1888 1095.1326 170.981 1101.1475 175.5332 1110.9672 172.8555 1119.1399 173.8672 1125.259 177.9267 1130.6743 178.338 1137.7625 183.0408 1152.5665 187.9645 1160.3729 191.93 1167.8587 200.5746 1174.3127 212.566 1167.9127 216.4877 1160.7759 227.3044 1156.2198 229.7536 1155.328 237.2393 1145.5396 245.7811 1136.1722 250.3334 1137.8281 276.5482 1142.2901 288.189 1142.5055 301.0974 1138.5115 303.2525 1133.267 312.9413 1122.8375 313.2038 1124.7515 306.0663 1118.681 302.0563 1109.8893 301.7817 1103.3817 306.5886 1092.3492 303.695 1100.0833 299.0401 1100.8181 293.1306 1089.4372 287.4769 1077.8359 286.798 1073.6565 283.1383 1061.9465 284.4291 1051.1681 297.3986 1041.5051 297.8581 1031.8833 286.3458 1024.4744 285.4824 1020.5774 288.9667 1010.668 286.8625 1006.1893 281.2796 993.9763 280.2506 991.6346 277.5325 980.2071 285.5215 969.3708 285.3834 961.2169 278.6039 964.7707 271.2764 961.2123 265.8932 949.1815 257.2269 947.6345 247.1215 938.697 245.2652 927.1507 230.4416 916.0241 226.507 909.2494 220.569 901.5932 218.0268 898.418 219.7388 892.104 213.7529 889.6486 201.1803 882.5674 195.4869 874.1354 195.5028 871.488 192.9797 872.1316 185.2474 868.2229 178.6301 861.9209 182.8419 862.7478 193.3883 865.8912 199.7069 860.3609 202.493 856.4421 198.4374 851.2418 182.6019 841.2296 181.7238 841.8108 189.6581 839.5799 197.9751 833.0979 195.978 833.5598 182.8749 836.5801 181.5571 842.8654 168.8718 834.4794 170.3157 827.7439 167.9725 829.4968 151.5739 824.1222 141.4028 814.3118 141.4608 810.709 135.4352 820.8451 130.6491 822.3461 125.9257 829.4238 119.3038 843.0316 114.9253 867.3599 112.5599 871.2771 103.8553 867.6947 92.5096 867.5862 81.1778 854.2305 74.0298 856.68 61.8707 852.3562 57.3207 846.6184 61.4852 840.562 55.9427 828.0474 55.8915 818.8825 48.6606 818.2926 43.0417 823.3695 38.136 826.5693 30.0694 826.3972 22.1859 846.1354 16.5023 864.4467 9.8265 871.6133 5.7166 874.9005 1 881.6614 9.1066 888.9241 6.4747 896.9694 12.7631 899.9923 23.5152 906.6071 16.742 924.1194 18.4351 929.2111 9.0937 934.7448 4.385 943.234 1.4118 951.0461 1.9337 957.8191 7.2798 970.4692 11.7112 976.3717 17.7927 982.1413 18.3064 994.8351 25.0034 1004.2058 32.7226 1012.887 33.2954 1023.4386 39.4417 1036.2745 64.7112 1046.1008 59.2765 1052.7158 51.7614 1058.8426 52.6198 1061.7263 45.7322 1071.7796 48.5251 1072.9441 51.6328 Z" id="67000030">
      <title>
        白河區 Baihe District
      </title>
    </path>
    <path d="M 833.5598 182.8749 825.3828 183.0877 821.3805 187.1111 821.5222 202.4336 807.491 197.0053 807.1091 202.8665 815.6025 212.8537 812.9256 217.5722 798.8818 215.0502 790.398 215.113 790.2172 221.6647 793.4069 228.8711 791.3091 241.6716 783.7182 235.826 783.3926 228.1883 772.9302 224.6951 768.1537 218.2207 762.2065 222.6291 762.9531 227.3127 758.2526 238.9193 747.2345 245.7689 749.0281 232.8196 744.1115 223.3389 745.1096 217.0864 716.8275 221.6915 717.3385 210.116 707.9368 209.7292 706.2858 213.269 695.3036 200.6073 692.4521 209.7088 686.8851 208.9446 686.927 199.6333 666.2847 198.8492 664.7782 193.0288 659.3101 193.0528 651.6719 198.2397 645.7459 197.8179 640.5673 190.5022 639.6257 184.1916 644.8803 175.0526 645.3196 168.4528 638.7794 168.373 639.1485 176.8979 633.156 190.8123 628.149 190.5916 618.4433 178.9679 621.0591 176.9111 618.5288 139.1112 607.8569 137.6808 601.2924 142.8224 598.6844 153.9935 596.4797 155.5594 595.8129 145.4072 592.8712 140.8604 591.256 126.0724 595.2433 114.9573 611.9991 93.7542 625.2297 93.9649 636.6288 92.5407 646.5795 94.9521 653.1242 93.7509 651.832 74.8755 654.3192 67.2506 661.6955 62.8015 668.2386 61.7971 678.3999 73.9634 693.7531 67.727 695.7366 69.6574 705.8615 67.3382 725.7381 42.8424 726.6287 37.7718 732.6241 33.3642 741.7295 30.251 750.1556 30.6327 766.1582 27.0069 813.0532 25.3823 826.3972 22.1859 826.5693 30.0694 823.3695 38.136 818.2926 43.0417 818.8825 48.6606 828.0474 55.8915 840.562 55.9427 846.6184 61.4852 852.3562 57.3207 856.68 61.8707 854.2305 74.0298 867.5862 81.1778 867.6947 92.5096 871.2771 103.8553 867.3599 112.5599 843.0316 114.9253 829.4238 119.3038 822.3461 125.9257 820.8451 130.6491 810.709 135.4352 814.3118 141.4608 824.1222 141.4028 829.4968 151.5739 827.7439 167.9725 834.4794 170.3157 842.8654 168.8718 836.5801 181.5571 833.5598 182.8749 Z" id="67000050">
      <title>
        後壁區 Houbi District
      </title>
    </path>
    <path d="M 603.229 521.0019 598.394 526.5951 599.9059 531.3811 597.4747 547.8243 606.0797 556.4377 604.3064 563.6221 602.7189 585.587 579.6283 588.875 567.6907 592.2654 559.1767 596.5098 557.0994 592.3119 549.2869 599.5647 546.1794 607.2348 542.6206 623.4255 544.13 628.6552 541.5695 639.4809 535.5239 640.978 537.1083 662.1701 540.6544 669.5283 533.9526 679.4466 522.4537 686.4832 514.8181 688.4646 496.8658 696.3051 492.0517 696.921 491.1093 680.8556 481.8014 679.5761 472.6763 672.5825 462.2387 662.1332 451.9183 648.9745 437.0545 633.8701 430.5059 623.8837 423.3714 608.6225 433.8223 606.1656 431.9799 586.745 433.6237 565.9634 427.6105 561.4483 414.1339 555.8584 415.2857 541.2326 391.1285 533.8107 396.3895 525.7596 395.0472 518.5102 390.6632 515.6782 384.7728 517.1241 383.6988 507.6098 379.7928 501.5779 381.0356 498.7766 398.796 496.6562 397.9041 491.2814 408.5071 488.4319 414.3789 490.3849 419.8662 487.6554 427.2353 477.2502 435.0435 470.7886 435.75 462.8605 441.0682 453.2324 445.9014 448.282 453.357 450.4397 459.1509 457.4659 474.3887 468.039 480.45 482.9488 493.9619 491.295 503.8242 493.1682 506.397 510.4737 513.229 514.9424 522.6281 517.5516 528.9446 522.9041 547.5366 518.1688 552.1021 515.531 560.4601 521.9275 602.3203 518.4358 603.229 521.0019 Z" id="67000070">
      <title>
        麻豆區 Madou District
      </title>
    </path>
    <path d="M 625.4078 372.3236 626.6345 383.365 619.9426 392.8911 624.5337 406.1654 612.9309 415.9636 606.3963 424.4555 600.3932 428.6637 598.2961 439.4922 592.9111 453.4086 604.129 460.5076 610.9425 468.9646 604.4133 476.077 604.0836 480.9035 596.4854 486.8775 600.7152 490.1494 598.6781 499.0568 609.4539 513.494 610.0887 519.9016 603.229 521.0019 602.3203 518.4358 560.4601 521.9275 552.1021 515.531 547.5366 518.1688 528.9446 522.9041 522.6281 517.5516 513.229 514.9424 506.397 510.4737 503.8242 493.1682 493.9619 491.295 480.45 482.9488 474.3887 468.039 459.1509 457.4659 453.357 450.4397 445.9014 448.282 444.3852 444.8253 448.5198 436.5211 456.5016 435.7748 462.5566 431.8159 471.8093 422.5527 464.0029 409.2101 470.9287 404.8614 474.9632 405.8677 483.0259 419.1621 497.1029 416.3769 520.4879 403.0953 523.3875 406.1152 542.8252 394.487 542.7331 392.4174 552.6731 388.3283 553.3544 384.9323 563.2304 383.4045 563.1677 375.2752 572.0091 376.1561 582.1955 373.7916 589.7943 377.9176 600.2792 377.2783 602.0375 373.0991 613.5881 374.1396 617.2505 367.309 621.2929 366.6385 625.4078 372.3236 Z" id="67000080">
      <title>
        下營區 Xiaying District
      </title>
    </path>
    <path d="M 909.4244 415.91 920.7979 423.8854 929.4625 431.6038 932.3549 437.6252 946.1174 436.1004 949.5292 440.0544 954.9054 438.3008 953.3695 452.6807 960.1484 459.0118 963.3436 452.3235 969.2357 449.3892 972.598 452.9979 979.714 451.0039 992.829 459.0816 1002.8001 459.61 1010.0411 465.7446 1028.189 468.2224 1030.2745 471.5304 1016.2617 485.9162 1015.2163 492.3663 1001.9343 516.6563 998.6478 520.2409 998.4126 528.9108 994.5657 531.8037 991.51 542.3848 986.6846 547.0476 970.7784 531.8653 961.7851 529.1227 953.9427 533.429 937.3916 527.1598 922.7139 526.2174 917.1424 525.0631 910.5735 530.6542 901.3882 524.7561 893.8556 514.8245 883.076 511.3337 882.0361 515.665 862.8723 511.0074 848.6037 510.3097 840.871 512.4954 829.5321 520.9721 811.9198 537.2557 802.3457 526.7716 795.8367 517.4331 790.1631 516.3747 786.6939 501.9252 788.6284 491.8832 768.6412 489.0393 768.1161 492.2394 760.072 495.4564 753.5998 489.9107 739.7598 484.9732 737.471 493.831 731.8562 491.146 723.9777 491.5055 727.5679 477.5298 720.1116 474.9843 720.0801 470.501 703.5482 473.1862 703.2764 465.2532 697.7215 460.7943 692.5501 462.1011 689.0455 456.666 677.7359 458.1912 671.7651 455.3065 655.6449 457.4985 648.0534 462.3406 633.9839 463.3587 624.1455 467.3522 619.9068 466.002 610.9425 468.9646 604.129 460.5076 592.9111 453.4086 598.2961 439.4922 600.3932 428.6637 606.3963 424.4555 612.9309 415.9636 624.5337 406.1654 619.9426 392.8911 626.6345 383.365 625.4078 372.3236 638.9212 369.0863 649.2354 372.1397 648.6478 377.6055 661.0574 380.9638 669.5418 370.4599 680.6849 371.2005 685.6692 377.0859 694.6196 376.5352 698.2235 382.4634 701.8522 371.3455 707.3783 370.4342 714.8796 385.3954 723.9034 391.4951 733.635 387.7445 743.6116 398.2818 745.104 407.9445 743.7429 415.2792 746.3737 421.8431 758.7437 423.1283 768.7766 432.8768 767.7707 440.9521 776.2213 438.0323 776.5982 433.5507 781.6274 429.3844 793.7089 426.3317 799.5294 428.5731 811.2067 436.7507 815.5099 434.9457 826.1239 440.655 833.9041 438.9625 842.6796 444.1219 844.7059 448.9581 850.3185 452.2324 857.836 452.3611 859.551 445.4708 873.8768 443.902 893.7002 435.7032 896.8825 432.6612 906.8167 429.251 909.4244 415.91 Z" id="67000090">
      <title>
        六甲區 Liujia District
      </title>
    </path>
    <path d="M 922.7139 526.2174 912.8616 534.3086 912.4891 538.1006 905.8702 543.2973 899.1034 560.3169 895.3529 564.4406 888.3322 580.7201 882.9146 579.2701 876.5048 582.9891 873.3022 590.8096 859.9123 586.9629 854.3562 594.6261 848.6845 592.7312 844.4509 602.2715 850.7283 606.2873 841.0881 611.5198 834.4618 617.8973 824.9594 614.2128 803.0554 615.2061 791.5482 613.877 777.2053 617.659 771.6522 624.0398 766.8858 625.8423 767.2712 631.5094 756.5912 640.085 751.3305 637.7468 746.4807 646.9876 738.5911 649.0717 730.2543 648.0498 721.9442 640.919 694.797 623.7521 671.9085 604.5825 645.6559 594.3619 641.5875 588.973 622.4201 584.8925 602.7189 585.587 604.3064 563.6221 606.0797 556.4377 597.4747 547.8243 599.9059 531.3811 598.394 526.5951 603.229 521.0019 610.0887 519.9016 609.4539 513.494 598.6781 499.0568 600.7152 490.1494 596.4854 486.8775 604.0836 480.9035 604.4133 476.077 610.9425 468.9646 619.9068 466.002 624.1455 467.3522 633.9839 463.3587 648.0534 462.3406 655.6449 457.4985 671.7651 455.3065 677.7359 458.1912 689.0455 456.666 692.5501 462.1011 697.7215 460.7943 703.2764 465.2532 703.5482 473.1862 720.0801 470.501 720.1116 474.9843 727.5679 477.5298 723.9777 491.5055 731.8562 491.146 737.471 493.831 739.7598 484.9732 753.5998 489.9107 760.072 495.4564 768.1161 492.2394 768.6412 489.0393 788.6284 491.8832 786.6939 501.9252 790.1631 516.3747 795.8367 517.4331 802.3457 526.7716 811.9198 537.2557 829.5321 520.9721 840.871 512.4954 848.6037 510.3097 862.8723 511.0074 882.0361 515.665 883.076 511.3337 893.8556 514.8245 901.3882 524.7561 910.5735 530.6542 917.1424 525.0631 922.7139 526.2174 Z" id="67000100">
      <title>
        官田區 Guantian District
      </title>
    </path>
    <path d="M 986.6846 547.0476 984.0547 552.9006 978.5447 562.9308 974.7494 565.5773 971.9023 574.7795 967.3807 580.1328 962.7329 591.9887 954.6611 602.6494 951.7964 616.433 942.4182 620.3392 942.4963 626.8918 937.038 636.1331 930.98 641.4309 934.1919 658.3902 927.6201 677.825 924.6888 681.6073 935.3444 692.5351 936.4376 701.3577 934.2534 710.6605 937.3986 718.2591 934.8169 724.3089 923.6692 735.1543 924.0663 738.4565 911.1094 753.7284 905.1651 755.3806 898.8922 762.6475 895.2039 763.3229 893.7384 758.3415 897.856 752.495 894.2477 745.6824 880.2689 746.8101 874.0498 740.1841 866.1329 735.8175 859.2212 736.184 853.338 748.2796 853.1692 752.1216 834.557 759.7317 823.4479 759.9326 818.3471 768.0403 802.1107 770.1406 783.8685 774.3994 779.9837 773.0035 754.8841 752.5498 738.3124 737.5014 723.8686 716.057 719.355 706.4796 715.2745 691.5834 715.1164 680.9415 727.191 669.9594 731.2086 652.1923 730.2543 648.0498 738.5911 649.0717 746.4807 646.9876 751.3305 637.7468 756.5912 640.085 767.2712 631.5094 766.8858 625.8423 771.6522 624.0398 777.2053 617.659 791.5482 613.877 803.0554 615.2061 824.9594 614.2128 834.4618 617.8973 841.0881 611.5198 850.7283 606.2873 844.4509 602.2715 848.6845 592.7312 854.3562 594.6261 859.9123 586.9629 873.3022 590.8096 876.5048 582.9891 882.9146 579.2701 888.3322 580.7201 895.3529 564.4406 899.1034 560.3169 905.8702 543.2973 912.4891 538.1006 912.8616 534.3086 922.7139 526.2174 937.3916 527.1598 953.9427 533.429 961.7851 529.1227 970.7784 531.8653 986.6846 547.0476 Z" id="67000110">
      <title>
        大內區 Danei District
      </title>
    </path>
    <path d="M 379.7928 501.5779 383.6988 507.6098 384.7728 517.1241 390.6632 515.6782 395.0472 518.5102 396.3895 525.7596 391.1285 533.8107 415.2857 541.2326 414.1339 555.8584 427.6105 561.4483 433.6237 565.9634 431.9799 586.745 433.8223 606.1656 423.3714 608.6225 430.5059 623.8837 422.6164 625.6645 418.3946 620.8632 406.0913 615.5256 400.7536 618.5513 384.6102 623.2425 380.7081 625.6845 387.7138 645.5769 369.9202 652.3275 375.2954 661.4219 360.4031 670.8482 352.4669 671.5433 351.8093 679.4714 348.7276 681.4742 337.7218 681.9055 338.9575 717.6793 331.4783 718.8198 322.8988 715.323 324.1 729.4197 310.986 731.2669 307.9271 729.0819 309.3203 717.9557 298.9622 712.2311 286.9639 716.0051 287.4812 706.0071 280.4784 704.3903 280.4765 686.7531 294.4572 685.2077 291.6297 669.3771 295.9833 650.6317 301.8599 643.029 303.6173 630.8211 291.618 626.2692 290.4103 613.6502 283.527 609.3737 272.2337 606.7958 273.8239 597.1488 279.1683 584.1242 277.4694 577.02 280.1983 573.9813 290.2679 575.6158 284.5541 563.759 286.6883 557.3174 296.2159 555.2044 315.8024 565.6619 325.9935 563.8474 330.783 558.1594 332.7609 542.8487 339.1031 533.8193 342.9282 517.3857 348.3775 503.1781 346.0841 492.3759 363.6937 499.1246 363.1403 506.8071 368.5054 507.8713 374.3761 500.6122 379.7928 501.5779 Z" id="67000120">
      <title>
        佳里區 Jiali District
      </title>
    </path>
    <path d="M 427.4067 299.3491 425.8597 311.5591 427.0753 323.3896 421.4347 336.2674 414.7831 337.2664 408.3643 342.5526 398.7447 344.0279 395.4992 348.5921 385.3303 347.6007 380.188 362.5004 386.7036 367.8568 388.8614 375.4064 396.1722 375.594 400.1312 381.0348 406.1619 372.0023 416.9903 374.1298 416.6145 367.8709 424.8472 367.7179 421.3812 375.3357 433.9232 372.4958 436.5778 363.5434 445.7497 369.5532 453.6164 370.9741 449.2388 377.0108 450.4159 386.624 458.8744 392.3341 465.1782 399.4614 461.6329 402.7438 464.0029 409.2101 471.8093 422.5527 462.5566 431.8159 456.5016 435.7748 448.5198 436.5211 444.3852 444.8253 445.9014 448.282 441.0682 453.2324 435.75 462.8605 435.0435 470.7886 427.2353 477.2502 419.8662 487.6554 414.3789 490.3849 408.5071 488.4319 397.9041 491.2814 398.796 496.6562 381.0356 498.7766 379.7928 501.5779 374.3761 500.6122 368.5054 507.8713 363.1403 506.8071 363.6937 499.1246 346.0841 492.3759 343.6208 484.5781 341.053 467.9609 336.997 461.5335 330.8791 458.0505 326.7598 444.676 314.4453 433.6692 304.0767 431.3931 291.6733 436.2488 274.3126 440.4348 264.5708 444.7629 251.4809 453.1602 256.7323 438.3124 258.634 427.8297 264.2083 427.813 268.5302 423.2563 267.9128 415.0251 261.0431 409.1716 261.3477 400.6995 247.8384 393.5751 248.5458 386.2385 259.502 375.0206 269.9565 370.8938 279.9501 375.78 285.1786 364.528 290.2775 358.0049 284.5552 339.3982 285.6222 322.6535 274.6442 311.4063 271.8797 294.3438 278.0128 294.5272 282.4595 303.5688 288.9639 310.4052 300.1853 305.8386 306.0107 315.2819 315.627 323.4165 324.1081 333.515 327.4075 328.6069 333.8186 324.8987 345.0202 323.8776 353.4694 321.3628 360.3596 323.421 361.3639 317.416 356.0141 314.1347 357.7779 309.4641 364.8345 309.109 362.8776 302.3979 370.8483 303.1316 374.1576 296.2032 368.1576 290.3566 368.1476 282.8187 373.3497 275.6051 378.6083 276.7671 402.6856 295.5213 417.4841 300.3799 427.4067 299.3491 Z" id="67000130">
      <title>
        學甲區 Xuejia District
      </title>
    </path>
    <path d="M 430.5059 623.8837 437.0545 633.8701 451.9183 648.9745 462.2387 662.1332 472.6763 672.5825 481.8014 679.5761 491.1093 680.8556 492.0517 696.921 481.43 702.2856 472.6169 704.2107 464.6079 708.9971 447.1825 723.3407 435.6613 734.0198 421.6395 743.1087 415.329 745.8338 404.5898 753.5108 403.2434 756.4102 403.5151 772.7185 399.7133 775.2598 392.3764 787.8813 367.7137 813.7587 354.5835 827.3821 342.5616 825.4924 342.6413 820.32 334.1338 812.5378 338.8785 806.3077 340.7362 794.3465 341.9202 774.5484 336.3507 772.6452 332.9133 764.7435 346.8966 744.6227 341.3055 728.1368 331.4783 718.8198 338.9575 717.6793 337.7218 681.9055 348.7276 681.4742 351.8093 679.4714 352.4669 671.5433 360.4031 670.8482 375.2954 661.4219 369.9202 652.3275 387.7138 645.5769 380.7081 625.6845 384.6102 623.2425 400.7536 618.5513 406.0913 615.5256 418.3946 620.8632 422.6164 625.6645 430.5059 623.8837 Z" id="67000140">
      <title>
        西港區 Xigang District
      </title>
    </path>
    <path d="M 758.0785 844.196 764.565 848.0665 759.6082 857.7996 761.3277 862.8812 770.4875 876.5174 774.5418 874.4162 779.1728 881.3329 783.9324 882.0427 785.1282 890.0286 792.4961 891.5868 792.2956 902.9168 799.4433 908.2672 800.0949 924.1823 803.8396 935.2331 797.265 939.7872 792.8406 956.9619 797.1897 970.5277 806.06 968.397 807.7819 973.232 816.3906 972.4301 820.2479 968.6034 827.2522 971.8835 826.5434 982.5216 821.8486 990.7788 835.4925 999.1601 835.7872 1002.3141 821.5047 999.8419 816.1739 1000.6082 812.6546 1009.4119 799.2962 1006.4007 778.935 1012.0297 771.9996 1016.6803 762.7079 1009.054 755.0157 1010.893 744.9867 1020.1113 742.1669 1020.5917 739.9168 1031.617 734.9154 1039.0341 721.1434 1048.5801 715.2637 1045.7461 716.0661 1037.9659 703.6281 1035.2997 699.966 1029.2239 698.3104 1021.2849 699.9712 1016.4152 689.8104 997.2059 680.3312 997.705 668.2074 993.9057 659.446 994.2596 653.6835 988.5184 645.8836 991.4874 632.0499 992.0634 629.4766 994.6623 621.7442 994.0348 614.4045 986.1178 606.8974 981.205 587.8342 971.9998 585.8647 966.0786 585.7665 954.4024 595.3811 946.7142 598.4957 937.9108 583.8023 925.8688 582.9694 917.9332 585.7602 912.6261 593.9336 906.2118 594.0533 902.5668 574.3789 883.0122 574.0311 880.7936 580.8277 883.7824 586.4732 881.1494 595.5864 881.5874 600.1173 887.2746 606.7797 886.1733 614.7607 887.8369 610.5634 876.4861 616.3175 872.4737 628.0432 872.6768 628.7591 883.9618 634.4246 888.0281 641.6761 881.3127 659.0001 877.9444 674.1972 869.1956 680.5267 873.7075 691.6511 870.9497 697.7794 863.1442 709.9598 853.0008 704.9177 846.8203 715.31 835.5849 706.7932 827.8618 704.6204 821.2999 717.3991 814.4596 720.9632 819.0077 735.5799 825.1315 741.5679 825.6996 742.3004 833.9792 746.3139 841.3371 749.8423 830.4156 755.2047 833.641 753.0837 838.7553 758.0785 844.196 Z" id="67000180">
      <title>
        新化區 Xinhua District
      </title>
    </path>
    <path d="M 700.1402 757.6296 705.4133 769.132 707.3248 776.8258 721.6237 796.6445 725.5445 813.3625 717.3991 814.4596 704.6204 821.2999 706.7932 827.8618 715.31 835.5849 704.9177 846.8203 709.9598 853.0008 697.7794 863.1442 691.6511 870.9497 680.5267 873.7075 674.1972 869.1956 659.0001 877.9444 641.6761 881.3127 634.4246 888.0281 628.7591 883.9618 628.0432 872.6768 616.3175 872.4737 610.5634 876.4861 614.7607 887.8369 606.7797 886.1733 600.1173 887.2746 595.5864 881.5874 586.4732 881.1494 580.8277 883.7824 574.0311 880.7936 570.537 872.5986 557.4238 873.4212 543.1681 866.9956 534.6612 868.3328 532.6938 872.7075 526.3968 872.3804 522.1708 867.482 516.2299 867.6492 514.2452 854.8796 504.4697 853.9433 503.4264 857.7807 490.1251 855.3481 492.9573 852.2096 492.1668 826.1937 494.0758 823.2968 505.6807 826.8044 503.7115 811.0789 507.2705 805.8256 504.5442 787.9285 508.2772 778.5378 507.1734 774.0491 498.5896 770.7539 498.6144 765.8275 514.3506 761.7198 514.9899 756.698 524.221 753.2959 526.3366 760.2529 531.0569 758.0596 537.5982 760.3092 545.3019 755.1746 552.5825 752.7966 557.7721 759.3252 565.0428 748.3748 574.6312 745.0223 583.4161 749.1046 587.3778 755.6268 598.0698 746.2193 601.6108 755.1533 610.4974 748.5942 615.8328 757.0438 621.8106 759.4861 629.7157 754.7939 635.3501 754.0321 646.3866 747.3342 678.7509 755.8088 682.1706 758.0413 700.1402 757.6296 Z" id="67000200">
      <title>
        新市區 Xinshi District
      </title>
    </path>
    <path d="M 524.221 753.2959 514.9899 756.698 514.3506 761.7198 498.6144 765.8275 498.5896 770.7539 507.1734 774.0491 508.2772 778.5378 504.5442 787.9285 507.2705 805.8256 503.7115 811.0789 505.6807 826.8044 494.0758 823.2968 492.1668 826.1937 492.9573 852.2096 490.1251 855.3481 482.808 854.3252 474.3468 846.6948 464.0657 844.5723 452.2104 839.9288 449.8419 832.5759 443.2652 836.9752 434.5661 835.9439 428.5653 837.8827 427.8049 846.2045 417.1337 850.1381 408.5499 846.6435 401.1489 851.8258 395.6224 841.5488 413.3178 826.1255 395.2513 824.7473 379.3662 817.616 367.7137 813.7587 392.3764 787.8813 399.7133 775.2598 403.5151 772.7185 403.2434 756.4102 404.5898 753.5108 415.329 745.8338 421.6395 743.1087 435.6613 734.0198 447.1825 723.3407 464.6079 708.9971 472.6169 704.2107 481.43 702.2856 492.0517 696.921 496.8658 696.3051 514.8181 688.4646 522.4537 686.4832 525.6316 695.8596 532.8018 694.8609 538.9249 698.6356 538.2315 704.347 540.6476 712.6356 544.7513 710.7839 548.3907 720.1623 554.9567 717.1896 550.6877 731.9481 546.2274 733.404 544.3005 740.1438 535.9611 749.709 524.221 753.2959 Z" id="67000210">
      <title>
        安定區 Anding District
      </title>
    </path>
    <path d="M 1143.9753 735.3748 1138.3027 748.954 1128.9051 758.5802 1127.2988 764.7824 1122.414 771.6639 1117.7621 785.7879 1111.9141 789.5132 1108.3114 795.5118 1099.5037 796.1237 1091.8061 801.7639 1081.244 806.5077 1076.1369 802.6481 1057.5385 806.8224 1050.5851 803.9907 1047.0248 797.0323 1038.7211 799.9597 1030.6764 816.928 1035.9415 819.4095 1038.3813 824.6399 1034.2578 832.705 1034.1251 841.5721 1015.7519 839.0941 1005.6473 844.1327 1000.8121 835.8391 995.6409 835.7714 993.3241 824.8757 995.433 822.1245 988.1468 812.1469 981.8432 813.8977 978.7892 823.1976 973.3445 828.055 964.2429 824.721 955.2518 833.2106 948.2311 834.8595 953.2199 842.8096 951.174 856.2019 947.642 855.8932 944.2355 863.2208 934.0896 865.1041 931.4417 861.1037 924.3866 858.0719 917.571 859.4747 913.6527 866.5538 909.8378 859.79 906.2469 848.002 887.0944 848.5682 887.3686 843.8399 883.6711 833.3813 878.475 826.5624 873.1478 814.0283 867.6461 806.9124 876.2324 797.5861 878.0571 789.1198 881.3855 788.9358 885.5303 776.1925 895.2838 769.1857 895.2039 763.3229 898.8922 762.6475 905.1651 755.3806 911.1094 753.7284 924.0663 738.4565 923.6692 735.1543 934.8169 724.3089 937.3986 718.2591 934.2534 710.6605 936.4376 701.3577 935.3444 692.5351 924.6888 681.6073 927.6201 677.825 934.1919 658.3902 930.98 641.4309 937.038 636.1331 942.4963 626.8918 942.4182 620.3392 951.7964 616.433 954.6611 602.6494 962.7329 591.9887 967.3807 580.1328 971.9023 574.7795 974.7494 565.5773 978.5447 562.9308 984.0547 552.9006 993.3898 560.4719 994.2869 567.1752 989.4425 577.1093 1001.1546 592.7683 1006.5099 597.6154 1015.2556 613.3618 1020.0721 611.4081 1024.9411 623.8892 1022.653 634.5225 1028.0091 639.4184 1023.8853 648.1239 1025.2403 655.8632 1015.0491 672.7746 1019.5349 677.9139 1026.0928 675.8184 1036.5837 675.9534 1040.1875 669.6599 1048.8218 673.9756 1052.1219 681.8199 1047.639 690.8201 1053.0866 699.3614 1048.5161 703.9275 1055.7911 717.0566 1060.4451 718.1562 1071.1493 716.1231 1080.1357 722.8038 1084.5641 730.3559 1092.3929 731.1699 1096.0627 720.1467 1101.2547 713.1681 1109.3739 719.1061 1120.8869 720.1777 1131.6559 730.0648 1143.9753 735.3748 Z" id="67000230">
      <title>
        玉井區 Yujing District
      </title>
    </path>
    <path d="M 1127.1178 431.2088 1128.3319 435.4495 1135.3175 442.024 1141.427 450.8617 1148.7467 448.8154 1154.3152 450.7541 1156.1411 455.7355 1164.3216 456.549 1176.9431 460.1838 1193.3324 469.6427 1196.1773 476.2035 1202.1542 478.6844 1207.9643 485.7957 1215.0183 487.3435 1222.592 485.9861 1231.5166 477.1932 1245.5108 484.3764 1253.8442 485.6807 1261.0373 492.5486 1258.439 507.4194 1260.5128 515.948 1264.9993 521.4289 1255.3172 526.5749 1251.2535 534.6923 1251.7444 542.1819 1249.52 551.0926 1238.7902 564.561 1236.2618 572.2391 1237.5275 576.9722 1229.1395 594.1417 1221.3896 602.593 1216.2453 612.234 1211.2788 631.1372 1201.6694 645.0509 1195.2097 649.1208 1187.391 662.793 1181.6483 666.5199 1183.004 675.2931 1190.4618 680.0941 1190.9575 685.564 1196.81 696.8629 1193.2537 705.3259 1194.4758 724.9368 1193.0296 729.3663 1184.1139 732.5418 1175.2741 727.3917 1171.5845 728.8092 1166.2347 737.6112 1158.6651 735.6174 1157.1987 729.7012 1151.4172 728.895 1143.9753 735.3748 1131.6559 730.0648 1120.8869 720.1777 1109.3739 719.1061 1101.2547 713.1681 1096.0627 720.1467 1092.3929 731.1699 1084.5641 730.3559 1080.1357 722.8038 1071.1493 716.1231 1060.4451 718.1562 1055.7911 717.0566 1048.5161 703.9275 1053.0866 699.3614 1047.639 690.8201 1052.1219 681.8199 1048.8218 673.9756 1040.1875 669.6599 1036.5837 675.9534 1026.0928 675.8184 1019.5349 677.9139 1015.0491 672.7746 1025.2403 655.8632 1023.8853 648.1239 1028.0091 639.4184 1022.653 634.5225 1024.9411 623.8892 1020.0721 611.4081 1015.2556 613.3618 1006.5099 597.6154 1001.1546 592.7683 989.4425 577.1093 994.2869 567.1752 993.3898 560.4719 984.0547 552.9006 986.6846 547.0476 991.51 542.3848 994.5657 531.8037 998.4126 528.9108 998.6478 520.2409 1001.9343 516.6563 1015.2163 492.3663 1016.2617 485.9162 1030.2745 471.5304 1040.4282 478.6598 1051.7378 476.8265 1061.6209 473.3129 1066.9783 477.1737 1081.7969 465.8429 1089.8109 454.9818 1102.5636 449.358 1122.6129 432.6724 1127.1178 431.2088 Z" id="67000240">
      <title>
        楠西區 Nanxi District
      </title>
    </path>
    <path d="M 1432.643 468.888 1436.8811 472.0012 1439 485.3075 1433.4619 491.6995 1428.0027 508.4866 1421.3027 508.1266 1415.8202 512.2031 1409.7138 520.6626 1408.985 526.2278 1404.522 531.6859 1399.3699 547.4879 1394.2934 552.5995 1399.8859 567.6877 1402.6926 570.7486 1395.8728 577.3834 1392.6688 591.0714 1378.4934 592.3185 1381.285 601.784 1372.0082 608.3631 1367.6569 609.2393 1363.3383 617.7515 1358.7771 620.6962 1348.0838 620.3248 1344.6336 629.1345 1340.5879 630.4545 1335.7567 638.9158 1337.628 647.7389 1327.8828 656.5817 1322.6086 657.849 1319.0595 664.9339 1312.7596 666.9867 1305.0423 682.7311 1301.9151 684.792 1297.2723 698.82 1288.3916 708.797 1283.7088 718.2432 1284.7614 726.621 1282.9841 740.558 1271.4761 756.1435 1257.7501 777.4864 1254.6032 786.2467 1250.6537 788.9945 1252.4245 796.6354 1241.2204 812.2206 1231.258 822.8334 1219.3024 831.9622 1216.5655 840.0828 1205.2123 853.0061 1187.5237 860.836 1185.0548 864.5727 1177.8296 866.2752 1168.3385 872.2074 1167.3509 877.0815 1150.687 884.0257 1133.8409 899.9346 1134.6407 906.2429 1126.5348 910.7988 1113.5299 925.9305 1102.2836 935.3036 1089.0675 951.7638 1075.7157 962.3113 1047.8525 977.1444 1041.119 984.0182 1038.4783 992.3347 1035.0785 1012.9645 1012.9375 1015.8431 1005.9799 1013.0598 990.3025 1013.3981 985.3025 1007.6163 980.7348 995.5794 973.7733 994.0763 970.882 1000.3715 965.1112 995.424 958.2496 994.6599 959.9982 978.6063 956.4011 967.6565 945.3394 967.0243 941.3555 963.9058 937.7214 949.3101 942.7613 943.7621 940.6568 931.0934 937.0249 929.8975 939.1064 920.9885 937.5346 916.6966 940.6837 909.91 931.4132 910.1215 928.6839 900.4062 929.1489 885.5301 926.4274 873.795 934.0896 865.1041 944.2355 863.2208 947.642 855.8932 951.174 856.2019 953.2199 842.8096 948.2311 834.8595 955.2518 833.2106 964.2429 824.721 973.3445 828.055 978.7892 823.1976 981.8432 813.8977 988.1468 812.1469 995.433 822.1245 993.3241 824.8757 995.6409 835.7714 1000.8121 835.8391 1005.6473 844.1327 1015.7519 839.0941 1034.1251 841.5721 1034.2578 832.705 1038.3813 824.6399 1035.9415 819.4095 1030.6764 816.928 1038.7211 799.9597 1047.0248 797.0323 1050.5851 803.9907 1057.5385 806.8224 1076.1369 802.6481 1081.244 806.5077 1091.8061 801.7639 1099.5037 796.1237 1108.3114 795.5118 1111.9141 789.5132 1117.7621 785.7879 1122.414 771.6639 1127.2988 764.7824 1128.9051 758.5802 1138.3027 748.954 1143.9753 735.3748 1151.4172 728.895 1157.1987 729.7012 1158.6651 735.6174 1166.2347 737.6112 1171.5845 728.8092 1175.2741 727.3917 1184.1139 732.5418 1193.0296 729.3663 1194.4758 724.9368 1193.2537 705.3259 1196.81 696.8629 1190.9575 685.564 1190.4618 680.0941 1183.004 675.2931 1181.6483 666.5199 1187.391 662.793 1195.2097 649.1208 1201.6694 645.0509 1211.2788 631.1372 1216.2453 612.234 1221.3896 602.593 1229.1395 594.1417 1237.5275 576.9722 1236.2618 572.2391 1238.7902 564.561 1249.52 551.0926 1251.7444 542.1819 1251.2535 534.6923 1255.3172 526.5749 1264.9993 521.4289 1260.5128 515.948 1258.439 507.4194 1261.0373 492.5486 1264.3391 482.1627 1269.6146 479.4676 1280.1777 469.4463 1288.4261 444.9345 1292.4831 438.5409 1298.5295 434.0738 1302.9007 444.3326 1304.4519 457.4413 1317.372 464.9141 1326.0637 466.0204 1333.1544 473.3298 1340.5788 470.0479 1348.9638 471.2021 1352.6591 465.9892 1366.3233 462.4265 1375.0827 456.6838 1400.2349 461.1283 1408.1507 466.1718 1417.723 462.499 1428.5996 470.1598 1432.643 468.888 Z" id="67000250">
      <title>
        南化區 Nanhua District
      </title>
    </path>
    <path d="M 934.0896 865.1041 926.4274 873.795 929.1489 885.5301 928.6839 900.4062 931.4132 910.1215 940.6837 909.91 937.5346 916.6966 939.1064 920.9885 937.0249 929.8975 940.6568 931.0934 942.7613 943.7621 937.7214 949.3101 941.3555 963.9058 945.3394 967.0243 956.4011 967.6565 959.9982 978.6063 958.2496 994.6599 965.1112 995.424 970.882 1000.3715 973.7733 994.0763 980.7348 995.5794 985.3025 1007.6163 990.3025 1013.3981 988.3365 1018.8593 992.7146 1026.7079 987.366 1032.5018 991.8848 1044.095 988.4944 1046.6445 978.5657 1043.6036 974.2763 1053.9334 977.1424 1069.1662 972.4521 1076.8835 965.2243 1077.7439 955.4061 1072.2888 949.597 1077.5385 948.5423 1085.7123 939.6557 1105.6308 937.1106 1114.8828 932.6274 1121.6151 927.3507 1121.1518 918.6407 1106.9802 910.0008 1101.5775 900.0184 1098.9282 892.8386 1100.4768 877.3245 1097.2141 877.0382 1091.7447 863.8368 1086.914 866.7335 1066.7767 866.3411 1062.2922 870.4478 1047.1352 859.6707 1038.6191 858.3178 1030.8793 847.2633 1027.9284 847.388 1022.3129 839.2053 1005.875 835.7872 1002.3141 835.4925 999.1601 821.8486 990.7788 826.5434 982.5216 827.2522 971.8835 820.2479 968.6034 816.3906 972.4301 807.7819 973.232 806.06 968.397 797.1897 970.5277 792.8406 956.9619 797.265 939.7872 803.8396 935.2331 800.0949 924.1823 799.4433 908.2672 792.2956 902.9168 792.4961 891.5868 785.1282 890.0286 783.9324 882.0427 779.1728 881.3329 774.5418 874.4162 770.4875 876.5174 761.3277 862.8812 759.6082 857.7996 764.565 848.0665 758.0785 844.196 760.8035 841.5474 772.0684 841.497 782.3793 836.9099 785.9079 825.6433 796.6564 826.5259 801.8506 820.9314 815.2607 834.5841 826.6113 825.9109 844.1703 826.6227 849.4015 824.4269 860.8065 814.6197 867.6461 806.9124 873.1478 814.0283 878.475 826.5624 883.6711 833.3813 887.3686 843.8399 887.0944 848.5682 906.2469 848.002 909.8378 859.79 913.6527 866.5538 917.571 859.4747 924.3866 858.0719 931.4417 861.1037 934.0896 865.1041 Z" id="67000260">
      <title>
        左鎮區 Zuozhen District
      </title>
    </path>
    <path d="M 433.7706 1116.6002 441.2543 1116.2455 443.7308 1113.0071 456.0179 1115.2883 457.5338 1119.4837 481.3317 1115.5672 480.647 1109.1101 482.3539 1095.8176 481.5976 1083.2514 484.131 1068.6329 493.7447 1072.4262 494.0375 1075.3343 504.1118 1079.3266 507.2025 1076.0416 508.1003 1050.0839 504.6021 1042.6766 511.1743 1039.8033 548.8865 1028.4145 551.2094 1035.3722 563.095 1035.4798 561.3739 1052.4183 559.2144 1085.858 555.9963 1126.1893 554.2458 1159.6801 560.9364 1164.5407 566.1613 1165.1574 563.2011 1173.2222 555.9348 1170.7727 548.1923 1171.4243 546.4496 1182.0074 550.0748 1184.8825 546.8667 1201.6656 541.7664 1206.9609 539.4963 1220.4971 535.0056 1226.8298 538.8072 1235.6668 548.1317 1247.3883 553.2633 1256.9707 551.0167 1265.6793 553.7409 1274.8556 531.655 1262.0364 526.5772 1262.5037 524.2377 1269.0933 528.8197 1275.6682 523.101 1281.3049 516.7995 1280.3373 502.952 1270.9074 492.1491 1257.6992 469.6678 1252.7559 466.0879 1240.9634 466.8165 1228.7498 463.862 1225.089 457.1473 1224.9555 445.492 1238.5406 440.1918 1242.4046 428.5119 1240.7665 411.6561 1229.0506 404.4761 1229.6525 397.2139 1226.4113 384.9075 1217.428 376.2145 1213.4396 380.1905 1208.0422 380.7113 1196.9114 389.9588 1192.9713 399.6399 1174.8452 392.0657 1172.6859 391.3673 1169.0859 398.8727 1155.1847 430.2896 1155.254 432.7091 1153.1977 432.7449 1116.7426 433.7706 1116.6002 Z" id="67000270">
      <title>
        仁德區 Rende District
      </title>
    </path>
    <path d="M 614.4045 986.1178 613.1057 1000.9895 615.064 1009.4722 623.0568 1020.2988 624.7965 1031.8347 620.5989 1042.1112 618.1202 1057.322 615.2667 1064.9445 618.5726 1070.2313 632.5622 1069.903 646.0911 1080.7055 648.7807 1086.4326 647.0975 1095.982 659.7895 1099.5383 655.0143 1112.9653 649.6673 1116.8324 658.6081 1122.8346 668.3404 1135.2444 675.9197 1147.9396 681.7326 1154.6166 684.1118 1161.2779 682.8347 1171.8638 684.1366 1178.7665 678.9629 1189.5811 675.2575 1192.9142 675.617 1204.2464 670.7977 1215.8998 671.7241 1237.974 679.4938 1243.0341 684.748 1248.9202 682.0069 1254.3268 673.6473 1255.0278 674.9399 1264.0488 672.3574 1268.323 666.3401 1261.1031 660.3996 1271.0271 653.6487 1267.3506 642.2742 1265.7708 630.5326 1266.0117 590.4372 1255.8704 574.8566 1254.9085 572.0539 1262.0874 575.9967 1273.8804 569.0561 1277.8863 560.9034 1278.0436 553.7409 1274.8556 551.0167 1265.6793 553.2633 1256.9707 548.1317 1247.3883 538.8072 1235.6668 535.0056 1226.8298 539.4963 1220.4971 541.7664 1206.9609 546.8667 1201.6656 550.0748 1184.8825 546.4496 1182.0074 548.1923 1171.4243 555.9348 1170.7727 563.2011 1173.2222 566.1613 1165.1574 560.9364 1164.5407 554.2458 1159.6801 555.9963 1126.1893 559.2144 1085.858 561.3739 1052.4183 563.095 1035.4798 566.9384 992.6387 582.4533 994.0442 585.1575 985.5346 591.3915 988.816 604.6601 988.584 606.8974 981.205 614.4045 986.1178 Z" id="67000280">
      <title>
        歸仁區 Guiren District
      </title>
    </path>
    <path d="M 744.9867 1020.1113 745.0026 1028.3877 754.292 1036.6057 752.2707 1042.0652 754.6036 1047.6914 765.5019 1051.1866 767.5846 1055.4814 766.2488 1068.5306 774.1573 1064.2784 776.5357 1059.1158 788.8778 1060.5472 790.7626 1063.2154 783.0024 1068.8481 783.7766 1079.8371 781.6972 1087.0208 785.3209 1102.8497 783.5509 1109.5421 786.4461 1115.7615 782.2851 1118.2072 773.85 1113.2944 767.9853 1106.5203 760.0395 1107.2253 754.5792 1101.8321 742.2868 1112.4199 744.8222 1118.7366 741.0001 1125.7155 732.0014 1132.8194 738.5904 1173.8846 735.4422 1178.945 737.836 1194.4734 749.2072 1208.415 743.4944 1213.8092 742.7241 1226.1709 748.8581 1230.2863 750.563 1239.2595 759.2702 1253.2877 764.7525 1254.0501 773.285 1248.7167 777.3667 1253.414 783.4095 1242.6509 786.7996 1241.0395 790.0097 1245.7822 780.5444 1253.6245 774.3859 1255.1749 774.0029 1260.9863 769.7895 1263.2345 759.1222 1264.0756 763.561 1269.218 762.0574 1273.2019 749.3542 1282.5565 741.461 1294.0006 735.6288 1290.9702 726.4404 1293.4425 696.3422 1293.7032 693.0245 1290.2892 684.5469 1271.137 680.0055 1266.2887 670.5709 1278.0197 665.137 1277.8471 660.3996 1271.0271 666.3401 1261.1031 672.3574 1268.323 674.9399 1264.0488 673.6473 1255.0278 682.0069 1254.3268 684.748 1248.9202 679.4938 1243.0341 671.7241 1237.974 670.7977 1215.8998 675.617 1204.2464 675.2575 1192.9142 678.9629 1189.5811 684.1366 1178.7665 682.8347 1171.8638 684.1118 1161.2779 681.7326 1154.6166 675.9197 1147.9396 668.3404 1135.2444 658.6081 1122.8346 649.6673 1116.8324 655.0143 1112.9653 659.7895 1099.5383 647.0975 1095.982 648.7807 1086.4326 646.0911 1080.7055 632.5622 1069.903 618.5726 1070.2313 615.2667 1064.9445 618.1202 1057.322 620.5989 1042.1112 624.7965 1031.8347 623.0568 1020.2988 615.064 1009.4722 613.1057 1000.9895 614.4045 986.1178 621.7442 994.0348 629.4766 994.6623 632.0499 992.0634 645.8836 991.4874 653.6835 988.5184 659.446 994.2596 668.2074 993.9057 680.3312 997.705 689.8104 997.2059 699.9712 1016.4152 698.3104 1021.2849 699.966 1029.2239 703.6281 1035.2997 716.0661 1037.9659 715.2637 1045.7461 721.1434 1048.5801 734.9154 1039.0341 739.9168 1031.617 742.1669 1020.5917 744.9867 1020.1113 Z" id="67000290">
      <title>
        關廟區 Guanmiao District
      </title>
    </path>
    <path d="M 835.7872 1002.3141 839.2053 1005.875 847.388 1022.3129 847.2633 1027.9284 858.3178 1030.8793 859.6707 1038.6191 870.4478 1047.1352 866.3411 1062.2922 866.7335 1066.7767 863.8368 1086.914 877.0382 1091.7447 877.3245 1097.2141 892.8386 1100.4768 900.0184 1098.9282 910.0008 1101.5775 918.6407 1106.9802 927.3507 1121.1518 932.6274 1121.6151 927.3184 1129.8713 926.412 1139.3264 921.8135 1149.3587 916.6683 1168.404 910.966 1171.9292 908.605 1186.4035 903.8699 1191.5579 901.7841 1200.9591 892.6981 1217.8705 888.4541 1228.4948 873.7714 1234.0533 871.2969 1237.6397 864.5643 1228.8443 864.3264 1224.1141 852.4979 1220.8156 851.239 1215.0468 842.2298 1211.8577 833.665 1212.9561 825.601 1216.9629 820.5545 1222.6567 809.6604 1216.6018 806.2541 1222.2529 800.1515 1222.868 797.7034 1232.3163 793.4485 1232.3478 786.7996 1241.0395 783.4095 1242.6509 777.3667 1253.414 773.285 1248.7167 764.7525 1254.0501 759.2702 1253.2877 750.563 1239.2595 748.8581 1230.2863 742.7241 1226.1709 743.4944 1213.8092 749.2072 1208.415 737.836 1194.4734 735.4422 1178.945 738.5904 1173.8846 732.0014 1132.8194 741.0001 1125.7155 744.8222 1118.7366 742.2868 1112.4199 754.5792 1101.8321 760.0395 1107.2253 767.9853 1106.5203 773.85 1113.2944 782.2851 1118.2072 786.4461 1115.7615 783.5509 1109.5421 785.3209 1102.8497 781.6972 1087.0208 783.7766 1079.8371 783.0024 1068.8481 790.7626 1063.2154 788.8778 1060.5472 776.5357 1059.1158 774.1573 1064.2784 766.2488 1068.5306 767.5846 1055.4814 765.5019 1051.1866 754.6036 1047.6914 752.2707 1042.0652 754.292 1036.6057 745.0026 1028.3877 744.9867 1020.1113 755.0157 1010.893 762.7079 1009.054 771.9996 1016.6803 778.935 1012.0297 799.2962 1006.4007 812.6546 1009.4119 816.1739 1000.6082 821.5047 999.8419 835.7872 1002.3141 Z" id="67000300">
      <title>
        龍崎區 Longqi District
      </title>
    </path>
    <path d="M 574.0311 880.7936 574.3789 883.0122 594.0533 902.5668 593.9336 906.2118 585.7602 912.6261 582.9694 917.9332 583.8023 925.8688 598.4957 937.9108 595.3811 946.7142 585.7665 954.4024 585.8647 966.0786 587.8342 971.9998 606.8974 981.205 604.6601 988.584 591.3915 988.816 585.1575 985.5346 582.4533 994.0442 566.9384 992.6387 563.095 1035.4798 551.2094 1035.3722 548.8865 1028.4145 511.1743 1039.8033 504.6021 1042.6766 499.2953 1038.3636 486.6001 1036.2297 486.717 1023.2245 470.9891 1023.1928 470.3503 1017.8689 460.7843 1015.1097 464.6354 1003.3556 462.2265 993.5887 455.5416 988.5781 445.7941 971.58 439.5299 974.4537 427.7624 971.7804 417.3101 962.5615 429.8311 958.1943 439.8156 949.0346 454.3851 914.7243 463.8542 905.8075 476.0827 897.9885 482.1808 897.2317 490.3041 890.9183 499.0317 876.3804 503.4264 857.7807 504.4697 853.9433 514.2452 854.8796 516.2299 867.6492 522.1708 867.482 526.3968 872.3804 532.6938 872.7075 534.6612 868.3328 543.1681 866.9956 557.4238 873.4212 570.537 872.5986 574.0311 880.7936 Z" id="67000310">
      <title>
        永康區 Yongkang District
      </title>
    </path>
    <path d="M 470.9891 1023.1928 453.749 1018.3738 425.3838 1015.2191 423.4344 1025.505 404.7508 1022.4985 387.0616 1015.6044 378.4041 1005.9999 367.7787 1000.4241 354.7372 1005.8699 336.1022 1003.6479 334.226 1000.1396 343.6242 995.8568 356.8921 986.4223 371.0431 974.5781 381.0594 969.4108 402.3007 962.8259 417.3101 962.5615 427.7624 971.7804 439.5299 974.4537 445.7941 971.58 455.5416 988.5781 462.2265 993.5887 464.6354 1003.3556 460.7843 1015.1097 470.3503 1017.8689 470.9891 1023.1928 Z" id="67000340">
      <title>
        北區 North District
      </title>
    </path>
    <path d="M 314.2818 253.5971 327.2742 260.9623 333.2205 267.0557 338.7838 277.7286 344.3721 293.1806 350.6285 298.8319 362.8776 302.3979 364.8345 309.109 357.7779 309.4641 356.0141 314.1347 361.3639 317.416 360.3596 323.421 353.4694 321.3628 345.0202 323.8776 333.8186 324.8987 327.4075 328.6069 324.1081 333.515 315.627 323.4165 306.0107 315.2819 300.1853 305.8386 288.9639 310.4052 282.4595 303.5688 278.0128 294.5272 271.8797 294.3438 274.6442 311.4063 285.6222 322.6535 284.5552 339.3982 290.2775 358.0049 285.1786 364.528 279.9501 375.78 269.9565 370.8938 259.502 375.0206 248.5458 386.2385 247.8384 393.5751 261.3477 400.6995 261.0431 409.1716 267.9128 415.0251 268.5302 423.2563 264.2083 427.813 258.634 427.8297 256.7323 438.3124 251.4809 453.1602 246.5541 456.0873 234.7242 458.7764 222.756 458.8531 207.0644 457.232 188.5938 458.5 183.3575 461.7691 171.2334 462.2371 160.6023 461.0881 155.3096 456.7693 144.0359 452.0192 141.5012 448.3577 144.6818 438.4255 145.2424 430.3984 139.9755 430.3165 132.0975 422.434 142.6116 409.0987 146.3397 401.5347 152.9854 376.7451 156.7502 354.6966 159.6364 325.7451 159.9101 305.9905 159.001 287.4111 162.9846 279.6021 175.7087 271.7972 178.5532 266.2966 184.539 265.397 190.7009 260.7047 196.1721 251.8204 200.235 239.0847 202.6837 222.7426 196.9999 198.9612 203.8615 188.1145 213.168 178.5139 245.4143 204.4235 255.305 208.4723 275.4082 222.9758 282.2716 229.2725 282.2984 242.4271 285.908 245.7982 295.7182 246.3473 298.5956 252.67 309.6399 251.9449 314.2818 253.5971 Z" id="67000170">
      <title>
        北門區 Beimen District
      </title>
    </path>
    <path d="M 334.1338 812.5378 342.6413 820.32 342.5616 825.4924 354.5835 827.3821 367.7137 813.7587 379.3662 817.616 395.2513 824.7473 413.3178 826.1255 395.6224 841.5488 401.1489 851.8258 408.5499 846.6435 417.1337 850.1381 427.8049 846.2045 428.5653 837.8827 434.5661 835.9439 443.2652 836.9752 449.8419 832.5759 452.2104 839.9288 464.0657 844.5723 474.3468 846.6948 482.808 854.3252 490.1251 855.3481 503.4264 857.7807 499.0317 876.3804 490.3041 890.9183 482.1808 897.2317 476.0827 897.9885 463.8542 905.8075 454.3851 914.7243 439.8156 949.0346 429.8311 958.1943 417.3101 962.5615 402.3007 962.8259 381.0594 969.4108 371.0431 974.5781 356.8921 986.4223 343.6242 995.8568 334.226 1000.1396 319.9488 1006.6117 311.1873 1006.8578 302.8497 1004.5935 295.3168 1004.994 262.2422 1019.5828 256.9871 1024.725 246.3091 1019.6376 192.5881 973.0585 153.9721 946.5651 120.2349 927.241 104.5079 919.5554 93.7733 916.2361 88.022 910.4848 82.2977 908.6256 85.7166 902.4399 98.9182 887.7931 101.7227 881.5048 111.9426 868.5138 141.7568 841.4557 147.2213 835.3806 149.4637 828.6943 163.9968 813.0678 170.4776 808.1316 194.379 800.8867 228.3313 799.4146 280.3327 792.9692 288.2681 792.9656 299.9614 798.4025 311.3947 795.4623 314.2864 809.3716 330.2763 815.7184 334.1338 812.5378 Z" id="67000350">
      <title>
        安南區 Annan District
      </title>
    </path>
    <path d="M 432.3437 1105.2126 432.4925 1106.1494 433.7706 1116.6002 432.7449 1116.7426 432.7091 1153.1977 430.2896 1155.254 398.8727 1155.1847 391.3673 1169.0859 392.0657 1172.6859 399.6399 1174.8452 389.9588 1192.9713 380.7113 1196.9114 380.1905 1208.0422 376.2145 1213.4396 366.2572 1215.799 354.169 1223.5161 341.3939 1234.8745 334.9616 1229.9616 332.6181 1217.9774 337.0235 1199.8236 337.7757 1184.1618 334.6797 1159.9066 330.7247 1142.8391 322.8826 1124.4688 313.9261 1113.1368 310.1774 1105.3319 302.7291 1108.541 293.0198 1103.7071 347.5487 1065.1446 357.1092 1059.5814 364.4734 1052.6756 371.1137 1046.9482 389.6957 1050.0053 389.7706 1064.785 422.6102 1065.5033 426.1048 1073.3056 432.3437 1105.2126 Z" id="67000330">
      <title>
        南區 South District
      </title>
    </path>
    <path d="M 432.3437 1105.2126 426.1048 1073.3056 422.6102 1065.5033 420.6391 1060.3201 422.4906 1029.6382 423.4344 1025.505 425.3838 1015.2191 453.749 1018.3738 470.9891 1023.1928 486.717 1023.2245 486.6001 1036.2297 499.2953 1038.3636 504.6021 1042.6766 508.1003 1050.0839 507.2025 1076.0416 504.1118 1079.3266 494.0375 1075.3343 493.7447 1072.4262 484.131 1068.6329 481.5976 1083.2514 482.3539 1095.8176 480.647 1109.1101 481.3317 1115.5672 457.5338 1119.4837 456.0179 1115.2883 443.7308 1113.0071 441.2543 1116.2455 433.7706 1116.6002 432.4925 1106.1494 432.3437 1105.2126 Z" id="67000320">
      <title>
        東區 East District
      </title>
    </path>
    <path d="M 364.4734 1052.6756 357.1092 1059.5814 347.5487 1065.1446 293.0198 1103.7071 293.0464 1098.9778 303.1426 1089.5766 298.9513 1078.5668 288.3214 1064.5149 280.9833 1057.4279 275.2438 1048.5765 259.0303 1034.7377 260.7069 1028.2445 256.9871 1024.725 262.2422 1019.5828 295.3168 1004.994 302.8497 1004.5935 311.5776 1010.3578 339.032 1020.5128 365.1027 1021.5932 364.0259 1031.2431 365.4185 1038.9853 364.4734 1052.6756 Z" id="67000360">
      <title>
        安平區 Anping District
      </title>
    </path>
    <path d="M 423.4344 1025.505 422.4906 1029.6382 420.6391 1060.3201 422.6102 1065.5033 389.7706 1064.785 389.6957 1050.0053 371.1137 1046.9482 364.4734 1052.6756 365.4185 1038.9853 364.0259 1031.2431 365.1027 1021.5932 339.032 1020.5128 311.5776 1010.3578 302.8497 1004.5935 311.1873 1006.8578 319.9488 1006.6117 334.226 1000.1396 336.1022 1003.6479 354.7372 1005.8699 367.7787 1000.4241 378.4041 1005.9999 387.0616 1015.6044 404.7508 1022.4985 423.4344 1025.505 Z" id="67000370">
      <title>
        中西區 West Central District
      </title>
    </path>
    <path d="M 730.2543 648.0498 731.2086 652.1923 727.191 669.9594 715.1164 680.9415 707.9705 688.2502 704.1111 704.589 701.5313 709.2576 696.2818 727.3143 698.8625 734.026 698.981 753.5355 700.1402 757.6296 682.1706 758.0413 678.7509 755.8088 646.3866 747.3342 635.3501 754.0321 629.7157 754.7939 621.8106 759.4861 615.8328 757.0438 610.4974 748.5942 601.6108 755.1533 598.0698 746.2193 587.3778 755.6268 583.4161 749.1046 574.6312 745.0223 565.0428 748.3748 557.7721 759.3252 552.5825 752.7966 545.3019 755.1746 537.5982 760.3092 531.0569 758.0596 526.3366 760.2529 524.221 753.2959 535.9611 749.709 544.3005 740.1438 546.2274 733.404 550.6877 731.9481 554.9567 717.1896 548.3907 720.1623 544.7513 710.7839 540.6476 712.6356 538.2315 704.347 538.9249 698.6356 532.8018 694.8609 525.6316 695.8596 522.4537 686.4832 533.9526 679.4466 540.6544 669.5283 537.1083 662.1701 535.5239 640.978 541.5695 639.4809 544.13 628.6552 542.6206 623.4255 546.1794 607.2348 549.2869 599.5647 557.0994 592.3119 559.1767 596.5098 567.6907 592.2654 579.6283 588.875 602.7189 585.587 622.4201 584.8925 641.5875 588.973 645.6559 594.3619 671.9085 604.5825 694.797 623.7521 721.9442 640.919 730.2543 648.0498 Z" id="67000190">
      <title>
        善化區 Shanhua District
      </title>
    </path>
    <path d="M 895.2039 763.3229 895.2838 769.1857 885.5303 776.1925 881.3855 788.9358 878.0571 789.1198 876.2324 797.5861 867.6461 806.9124 860.8065 814.6197 849.4015 824.4269 844.1703 826.6227 826.6113 825.9109 815.2607 834.5841 801.8506 820.9314 796.6564 826.5259 785.9079 825.6433 782.3793 836.9099 772.0684 841.497 760.8035 841.5474 758.0785 844.196 753.0837 838.7553 755.2047 833.641 749.8423 830.4156 746.3139 841.3371 742.3004 833.9792 741.5679 825.6996 735.5799 825.1315 720.9632 819.0077 717.3991 814.4596 725.5445 813.3625 721.6237 796.6445 707.3248 776.8258 705.4133 769.132 700.1402 757.6296 698.981 753.5355 698.8625 734.026 696.2818 727.3143 701.5313 709.2576 704.1111 704.589 707.9705 688.2502 715.1164 680.9415 715.2745 691.5834 719.355 706.4796 723.8686 716.057 738.3124 737.5014 754.8841 752.5498 779.9837 773.0035 783.8685 774.3994 802.1107 770.1406 818.3471 768.0403 823.4479 759.9326 834.557 759.7317 853.1692 752.1216 853.338 748.2796 859.2212 736.184 866.1329 735.8175 874.0498 740.1841 880.2689 746.8101 894.2477 745.6824 897.856 752.495 893.7384 758.3415 895.2039 763.3229 Z" id="67000220">
      <title>
        山上區 Shanshang District
      </title>
    </path>
    <path d="M 699.0809 270.3368 702.7491 284.5421 707.7891 289.1957 719.2678 294.3706 723.259 293.4522 733.4946 278.9637 736.8746 277.5006 739.982 268.1535 746.9777 269.7606 760.0847 276.6654 757.6973 285.0797 769.1421 286.3606 778.7114 283.8889 782.5041 293.6598 790.5099 298.374 795.1668 297.1619 805.6087 306.2214 817.0178 303.9533 822.3295 305.1083 828.5905 311.6865 838.0315 315.7649 840.1098 320.1581 842.1012 333.468 836.9622 340.0488 831.3902 339.8783 832.1536 353.3803 834.0786 357.7729 842.5975 362.6356 841.0968 367.1128 844.5534 372.1519 857.3978 369.4448 864.6998 371.888 875.6475 370.4043 884.3835 372.2616 883.3438 376.6421 886.2782 384.684 892.766 386.2367 896.067 392.1122 900.8231 391.9336 907.9132 396.4935 910.8995 404.5353 909.4244 415.91 906.8167 429.251 896.8825 432.6612 893.7002 435.7032 873.8768 443.902 859.551 445.4708 857.836 452.3611 850.3185 452.2324 844.7059 448.9581 842.6796 444.1219 833.9041 438.9625 826.1239 440.655 815.5099 434.9457 811.2067 436.7507 799.5294 428.5731 793.7089 426.3317 781.6274 429.3844 776.5982 433.5507 776.2213 438.0323 767.7707 440.9521 768.7766 432.8768 758.7437 423.1283 746.3737 421.8431 743.7429 415.2792 745.104 407.9445 743.6116 398.2818 733.635 387.7445 723.9034 391.4951 714.8796 385.3954 707.3783 370.4342 701.8522 371.3455 698.2235 382.4634 694.6196 376.5352 685.6692 377.0859 680.6849 371.2005 669.5418 370.4599 661.0574 380.9638 648.6478 377.6055 649.2354 372.1397 638.9212 369.0863 625.4078 372.3236 621.2929 366.6385 617.2505 367.309 613.5881 374.1396 602.0375 373.0991 600.2792 377.2783 589.7943 377.9176 582.1955 373.7916 588.5795 353.9682 589.2571 340.5709 592.036 336.7908 602.7696 337.3352 612.1481 321.7132 613.965 315.8591 609.8497 299.6308 612.789 294.2255 629.2722 289.2784 639.909 288.3431 658.0469 290.2503 682.1771 289.6713 684.5397 287.1695 683.3173 274.8473 686.1616 267.5195 694.9138 264.8987 699.0809 270.3368 Z" id="67000040">
      <title>
        柳營區 Liuying District
      </title>
    </path>
    <path d="M 1133.267 312.9413 1135.5435 320.5848 1134.8566 327.7261 1130.9586 331.7536 1133.7253 346.148 1129.6188 351.3571 1142.7655 365.5872 1148.0002 375.8015 1149.7587 385.9065 1156.4876 392.6275 1152.0929 408.3789 1146.4419 416.7857 1137.8765 424.9862 1127.1178 431.2088 1122.6129 432.6724 1102.5636 449.358 1089.8109 454.9818 1081.7969 465.8429 1066.9783 477.1737 1061.6209 473.3129 1051.7378 476.8265 1040.4282 478.6598 1030.2745 471.5304 1028.189 468.2224 1010.0411 465.7446 1002.8001 459.61 992.829 459.0816 979.714 451.0039 972.598 452.9979 969.2357 449.3892 963.3436 452.3235 960.1484 459.0118 953.3695 452.6807 954.9054 438.3008 949.5292 440.0544 946.1174 436.1004 932.3549 437.6252 929.4625 431.6038 920.7979 423.8854 909.4244 415.91 910.8995 404.5353 907.9132 396.4935 900.8231 391.9336 896.067 392.1122 892.766 386.2367 886.2782 384.684 883.3438 376.6421 884.3835 372.2616 875.6475 370.4043 864.6998 371.888 857.3978 369.4448 844.5534 372.1519 841.0968 367.1128 842.5975 362.6356 834.0786 357.7729 832.1536 353.3803 831.3902 339.8783 836.9622 340.0488 842.1012 333.468 840.1098 320.1581 838.0315 315.7649 828.5905 311.6865 822.3295 305.1083 817.0178 303.9533 805.6087 306.2214 795.1668 297.1619 790.5099 298.374 782.5041 293.6598 778.7114 283.8889 769.1421 286.3606 757.6973 285.0797 760.0847 276.6654 746.9777 269.7606 739.982 268.1535 736.8746 277.5006 733.4946 278.9637 723.259 293.4522 719.2678 294.3706 707.7891 289.1957 702.7491 284.5421 699.0809 270.3368 715.5022 255.6796 722.4999 256.7453 726.5994 254.3493 719.0952 240.62 722.7555 233.4433 732.9528 239.0554 742.581 246.3398 747.2345 245.7689 758.2526 238.9193 762.9531 227.3127 762.2065 222.6291 768.1537 218.2207 772.9302 224.6951 783.3926 228.1883 783.7182 235.826 791.3091 241.6716 793.4069 228.8711 790.2172 221.6647 790.398 215.113 798.8818 215.0502 812.9256 217.5722 815.6025 212.8537 807.1091 202.8665 807.491 197.0053 821.5222 202.4336 821.3805 187.1111 825.3828 183.0877 833.5598 182.8749 833.0979 195.978 839.5799 197.9751 841.8108 189.6581 841.2296 181.7238 851.2418 182.6019 856.4421 198.4374 860.3609 202.493 865.8912 199.7069 862.7478 193.3883 861.9209 182.8419 868.2229 178.6301 872.1316 185.2474 871.488 192.9797 874.1354 195.5028 882.5674 195.4869 889.6486 201.1803 892.104 213.7529 898.418 219.7388 901.5932 218.0268 909.2494 220.569 916.0241 226.507 927.1507 230.4416 938.697 245.2652 947.6345 247.1215 949.1815 257.2269 961.2123 265.8932 964.7707 271.2764 961.2169 278.6039 969.3708 285.3834 980.2071 285.5215 991.6346 277.5325 993.9763 280.2506 1006.1893 281.2796 1010.668 286.8625 1020.5774 288.9667 1024.4744 285.4824 1031.8833 286.3458 1041.5051 297.8581 1051.1681 297.3986 1061.9465 284.4291 1073.6565 283.1383 1077.8359 286.798 1089.4372 287.4769 1100.8181 293.1306 1100.0833 299.0401 1092.3492 303.695 1103.3817 306.5886 1109.8893 301.7817 1118.681 302.0563 1124.7515 306.0663 1122.8375 313.2038 1133.267 312.9413 Z" id="67000060">
      <title>
        東山區 Dongshan District
      </title>
    </path>
    <path d="M 286.6883 557.3174 284.5541 563.759 290.2679 575.6158 280.1983 573.9813 277.4694 577.02 279.1683 584.1242 273.8239 597.1488 272.2337 606.7958 283.527 609.3737 290.4103 613.6502 291.618 626.2692 303.6173 630.8211 301.8599 643.029 295.9833 650.6317 291.6297 669.3771 294.4572 685.2077 280.4765 686.7531 280.4784 704.3903 287.4812 706.0071 286.9639 716.0051 298.9622 712.2311 309.3203 717.9557 307.9271 729.0819 310.986 731.2669 324.1 729.4197 322.8988 715.323 331.4783 718.8198 341.3055 728.1368 346.8966 744.6227 332.9133 764.7435 336.3507 772.6452 341.9202 774.5484 340.7362 794.3465 338.8785 806.3077 334.1338 812.5378 330.2763 815.7184 314.2864 809.3716 311.3947 795.4623 299.9614 798.4025 288.2681 792.9656 280.3327 792.9692 228.3313 799.4146 194.379 800.8867 170.4776 808.1316 163.9968 813.0678 149.4637 828.6943 147.2213 835.3806 141.7568 841.4557 111.9426 868.5138 101.7227 881.5048 98.9182 887.7931 85.7166 902.4399 82.2977 908.6256 71.5293 910.7738 53.1334 888.1904 39.9175 864.7528 27.361 850.5316 14.6103 850.6451 4.7665 852.5508 1 849.0773 3.9412 837.7656 3.4207 831.2097 12.5821 800.2326 15.7183 782.4189 20.6512 763.7794 29.277 743.9324 36.466 732.451 40.7251 722.8225 49.2772 714.1579 59.5131 706.2429 61.5962 692.5602 67.556 680.8732 74.883 630.9639 79.187 613.8467 86.1061 595.7607 100.0138 564.5154 105.852 563.567 132.071 551.2176 136.6576 554.1036 153.444 553.0744 165.0085 561.0775 172.5758 561.8135 176.9511 565.88 183.3666 562.4704 188.9276 565.066 192.6398 560.2603 200.2709 558.8776 204.64 564.0276 209.6603 562.9246 217.2495 568.6357 224.8647 569.962 232.1836 560.7433 232.2108 547.343 230.4642 539.8441 235.597 536.9185 240.7421 540.6439 254.8919 535.357 260.8793 534.9979 262.8135 545.5522 268.5794 557.0648 276.4299 553.0213 286.207 551.9938 286.6883 557.3174 Z" id="67000150">
      <title>
        七股區 Qigu District
      </title>
    </path>
    <path d="M 251.4809 453.1602 264.5708 444.7629 274.3126 440.4348 291.6733 436.2488 304.0767 431.3931 314.4453 433.6692 326.7598 444.676 330.8791 458.0505 336.997 461.5335 341.053 467.9609 343.6208 484.5781 346.0841 492.3759 348.3775 503.1781 342.9282 517.3857 339.1031 533.8193 332.7609 542.8487 330.783 558.1594 325.9935 563.8474 315.8024 565.6619 296.2159 555.2044 286.6883 557.3174 286.207 551.9938 276.4299 553.0213 268.5794 557.0648 262.8135 545.5522 260.8793 534.9979 254.8919 535.357 240.7421 540.6439 235.597 536.9185 230.4642 539.8441 232.2108 547.343 232.1836 560.7433 224.8647 569.962 217.2495 568.6357 209.6603 562.9246 204.64 564.0276 200.2709 558.8776 192.6398 560.2603 188.9276 565.066 183.3666 562.4704 176.9511 565.88 172.5758 561.8135 165.0085 561.0775 153.444 553.0744 136.6576 554.1036 132.071 551.2176 105.852 563.567 100.0138 564.5154 104.8678 549.1256 118.5885 522.7064 124.499 501.6572 128.4729 471.0872 128.7922 460.7924 126.2379 452.0562 125.2554 437.2699 126.2648 431.1671 132.0975 422.434 139.9755 430.3165 145.2424 430.3984 144.6818 438.4255 141.5012 448.3577 144.0359 452.0192 155.3096 456.7693 160.6023 461.0881 171.2334 462.2371 183.3575 461.7691 188.5938 458.5 207.0644 457.232 222.756 458.8531 234.7242 458.7764 246.5541 456.0873 251.4809 453.1602 Z" id="67000160">
      <title>
        將軍區 Jiangjun District
      </title>
    </path>
  </g>
</svg>
