<?xml version="1.0" encoding="UTF-8"?>
<svg xmlns="http://www.w3.org/2000/svg" baseProfile="tiny" width="1440" height="1699">
  <g id="town" stroke="#000" stroke-width="1" fill="#7fbf7b">
    <path d="M 868.099 19.2131 868.6188 20.7891 868.6194 21.0414 869.3657 37.1892 866.8689 45.9003 874.0381 48.7863 877.791 53.2569 888.1822 54.1168 892.2777 67.1028 892.7941 67.1647 903.0516 65.8797 911.1714 61.1927 919.5817 70.068 920.0576 80.1604 922.0655 83.2468 922.195 83.4357 931.2353 85.6855 945.9505 86.2182 968.5656 97.3292 988.5762 98.9828 988.8349 99.2345 996.8491 103.6933 1002.8735 112.3206 1012.245 117.4065 1012.5034 117.4689 1021.2286 122.1147 1021.6168 122.4922 1027.437 126.8299 1035.63 125.4206 1048.8643 126.6474 1054.7489 130.7953 1055.9855 134.577 1046.6322 136.5575 1050.3946 143.4868 1042.7865 146.4719 1042.0964 153.8545 1035.7578 148.9506 1032.9393 156.9697 1039.1466 160.9908 1054.5 157.7959 1061.2626 152.4157 1062.8913 157.8996 1057.2448 170.1531 1064.0366 175.3077 1066.8077 173.6601 1074.8912 179.0003 1074.3252 184.364 1054.9563 183.0283 1042.5007 184.0076 1037.0183 185.6622 1036.5029 186.0421 1032.4445 189.1438 1031.5422 189.6508 1020.1895 192.8345 1019.2214 192.9001 997.8113 201.0926 988.658 206.2885 979.9146 220.4411 976.1067 220.829 961.2817 230.0756 949.5944 229.1577 939.398 230.6961 937.8618 236.1249 926.0589 240.8841 913.7198 237.4433 913.138 237.1292 908.5525 236.3828 904.094 234.6898 903.9647 234.627 903.4481 234.5651 898.024 234.0728 903.5874 238.9176 910.5363 256.2496 914.6844 262.99 914.8138 263.1159 920.783 275.4033 923.78 286.6252 906.0298 289.1267 900.2945 293.9342 895.0141 300.0653 888.6929 302.9184 885.2808 307.342 881.2783 307.7294 878.8732 300.7325 874.9368 301.7506 872.2147 297.2777 871.1006 290.0255 857.1642 294.6612 851.9353 295.1772 854.6705 305.6432 849.321 310.1337 843.5731 309.6414 844.4271 316.2634 834.3663 322.0255 834.1731 322.2782 834.1739 322.6567 834.2391 322.9089 836.2019 334.7014 839.2431 337.5337 839.4381 338.101 842.5657 350.8372 850.8654 366.0857 860.1515 388.9649 856.7319 390.4863 846.2355 404.5136 842.7731 416.0653 844.4011 422.1179 842.6683 427.1683 842.2835 428.4308 842.155 428.7465 838.9789 423.6435 833.9351 420.9416 825.7436 426.2579 825.679 426.258 822.4452 424.2461 814.6295 424.0731 801.1477 432.4909 792.9028 412.2578 792.3053 404.3735 788.4801 397.2528 784.5101 382.4361 781.9184 378.3408 773.5072 370.6612 765.7967 357.9965 761.7071 347.3433 756.8541 342.4322 756.7894 342.3692 754.0013 336.634 743.2525 321.5775 740.2144 319.9431 739.8266 319.7546 736.3849 309.6677 736.1259 309.2896 729.587 300.2809 729.4577 300.2181 721.8951 296.0054 721.8302 295.8163 723.3746 293.0378 728.534 289.811 727.4126 277.3225 728.7659 275.9952 728.9593 275.8056 736.6281 268.2843 736.7571 268.221 736.8213 268.0316 736.8856 267.9053 734.2832 257.5645 743.8881 249.8502 752.7876 244.7865 757.5687 246.6067 765.7593 242.3011 765.5005 242.0493 762.0084 239.0911 767.744 233.9702 761.1373 223.0696 761.0078 222.8806 759.3176 216.954 768.4102 212.0788 775.5084 210.677 775.5082 210.5509 769.8114 202.6135 771.6744 198.1309 778.6408 195.5307 785.3625 199.5547 792.518 194.7459 792.8402 194.493 807.7896 181.7827 807.0064 177.6838 806.9414 177.4947 812.8037 171.9312 816.4013 163.9121 816.401 163.786 832.0091 158.0757 832.5242 157.5069 838.5054 147.59 837.6469 138.697 837.5821 138.571 833.121 135.1108 832.4749 134.7968 822.4002 131.9792 816.4494 125.8725 812.9399 114.4616 812.4871 113.9579 811.84 113.1391 807.1113 104.9479 795.4762 96.1399 794.3739 93.6188 793.4004 90.9713 793.2701 90.4038 792.7485 87.8184 792.6185 87.3771 791.7732 84.2877 791.7725 83.9722 787.6913 76.4104 787.5618 76.2214 784.3235 70.5503 784.1934 70.0459 784.128 69.6045 784.0633 69.5415 781.1172 48.8559 780.9864 48.0361 779.474 34.1606 768.5427 21.0607 767.4316 13.9975 771.4845 7.9966 780.9086 9.9335 793.9336 5.87 800.1175 1 805.4163 4.8373 811.8068 6.212 826.7251 12.6154 833.3087 13.6739 847.6387 16.3559 852.6095 17.4806 857.7108 19.2359 868.099 19.2131 Z">
      <title>
        蘆竹區 Luzhu District
      </title>
    </path>
    <path d="M 1147.0111 184.9171 1152.8285 187.5497 1156.5221 192.2703 1164.3286 190.8596 1170.5422 196.3296 1169.7883 203.208 1171.6184 210.6465 1163.3444 207.012 1163.0979 210.9239 1167.6381 217.976 1161.8444 223.4183 1161.7155 223.4817 1159.5239 224.6237 1179.5233 220.2118 1183.9775 220.1355 1194.0632 224.9627 1196.9127 227.856 1202.3345 227.5242 1205.1303 233.8872 1200.0979 234.9118 1190.6049 233.9941 1188.4824 236.5869 1202.7593 239.5719 1198.7022 242.8646 1205.1113 248.5227 1205.6267 248.1427 1213.1763 246.858 1200.0871 252.2599 1188.4046 253.3045 1180.9874 255.7238 1180.6008 255.9773 1185.8365 257.9804 1188.2437 263.9662 1200.9765 268.4068 1207.9077 275.7035 1207.9266 281.7595 1207.54 282.013 1207.218 282.2663 1206.9601 282.3933 1206.1209 282.4589 1205.6042 282.3974 1203.2753 280.9535 1203.0812 280.828 1200.3694 280.8362 1199.5103 295.285 1208.115 300.7472 1208.4386 300.9986 1207.939 306.4253 1208.0039 306.5513 1215.8314 311.1325 1217.9115 315.542 1229.6278 324.59 1234.6625 323.9436 1234.7271 323.9433 1239.5219 329.0382 1236.9538 333.7145 1230.4929 332.6621 1230.2994 332.7258 1230.1061 332.8526 1229.9773 332.9791 1226.3683 335.2613 1217.2661 336.1725 1217.0723 336.1731 1216.8142 336.237 1209.3377 340.8019 1197.7743 339.4491 1188.6195 344.3341 1184.3486 341.445 1181.9389 355.9615 1186.4064 359.7332 1186.6649 359.7955 1203.3539 368.6401 1204.2692 372.2331 1204.5929 372.4845 1205.1223 376.5834 1210.6953 382.6225 1210.6454 387.3539 1214.3409 391.8847 1214.2775 392.2634 1212.4097 393.9093 1212.2154 393.7206 1201.1133 395.8361 1195.763 399.1957 1194.6822 404.7504 1188.6944 410.8875 1188.3725 411.2039 1177.0055 411.3639 1175.9613 407.8343 1170.3895 402.1102 1158.7726 404.983 1158.6441 405.2357 1157.7637 413.1869 1159.7121 416.777 1157.9383 428.3896 1163.5088 433.6093 1163.4451 433.9249 1161.6422 435.8227 1160.7385 436.0146 1160.5449 436.0782 1159.9003 436.5217 1155.1968 440.4466 1155.0038 440.6995 1147.3212 442.0466 1146.9985 442.1106 1137.2047 450.4028 1125.5243 454.2842 1121.8585 459.846 1115.8637 464.2157 1115.4761 464.2168 1109.5878 460.7006 1100.5293 455.4268 1083.3627 461.0255 1072.8339 461.1803 1072.4458 460.9921 1067.7043 451.5423 1056.1521 455.2953 1053.3817 457.9522 1045.941 453.4299 1039.8518 447.0113 1039.7874 447.0746 1036.4424 452.2562 1036.2492 452.446 1029.0138 452.1495 1022.9419 452.1652 1016.5609 457.4176 1007.9084 458.7014 1005.7709 456.4358 1005.5125 456.4365 1002.8665 457.3894 1002.8019 457.3896 995.4759 446.9993 990.5752 450.292 980.1361 434.7363 977.8631 429.8845 980.4363 425.7777 980.6935 425.3354 980.6919 424.7046 980.2375 423.8225 981.5146 418.0157 981.772 417.6365 982.6087 416.4989 983.1248 416.2453 983.9632 415.7386 982.532 411.7048 985.5518 405.515 992.9111 404.1088 995.4879 401.5159 996.7749 399.6832 996.9034 399.4305 997.0962 399.0516 1000.1278 397.5299 1002.5655 391.1523 1002.8878 390.8991 1007.8258 377.5128 1007.0822 364.7717 1007.0816 364.5194 1010.0342 357.6357 1002.0045 349.2029 1001.9396 349.0769 1003.2045 338.7911 991.5796 338.3157 989.5046 334.9775 989.4397 334.8515 987.9376 328.2945 993.2859 323.8652 990.9542 321.0954 992.4208 313.9002 987.8212 308.0449 987.3689 307.9199 972.9684 307.4509 972.6451 307.2625 970.1903 306.8269 969.803 306.8909 964.3769 306.0211 963.1385 301.419 962.944 301.104 952.3372 294.0643 943.937 291.4981 937.5516 294.3521 927.2215 294.6919 923.78 286.6252 920.783 275.4033 914.8138 263.1159 914.6844 262.99 910.5363 256.2496 903.5874 238.9176 898.024 234.0728 903.4481 234.5651 903.9647 234.627 904.094 234.6898 908.5525 236.3828 913.138 237.1292 913.7198 237.4433 926.0589 240.8841 937.8618 236.1249 939.398 230.6961 949.5944 229.1577 961.2817 230.0756 976.1067 220.829 979.9146 220.4411 988.658 206.2885 997.8113 201.0926 1019.2214 192.9001 1020.1895 192.8345 1031.5422 189.6508 1032.4445 189.1438 1036.5029 186.0421 1037.0183 185.6622 1042.5007 184.0076 1054.9563 183.0283 1074.3252 184.364 1083.8182 185.7891 1099.6329 185.6824 1100.0202 185.6813 1112.6048 184.6998 1113.4438 184.6344 1113.6374 184.6339 1113.7665 184.6335 1113.8954 184.57 1130.6077 182.3778 1138.8054 182.2912 1139.2576 182.4161 1146.8816 184.7913 1147.0111 184.9171 Z">
      <title>
        龜山區 Guishan District
      </title>
    </path>
    <path d="M 771.3655 751.9419 774.6575 749.5383 774.7868 749.538 775.8331 755.5289 774.0949 759.0649 776.2949 760.133 773.6147 777.4862 770.7243 786.8913 770.0519 806.2591 763.3675 826.2065 762.415 834.9769 762.8684 835.3545 767.5317 839.3827 771.9197 835.0214 777.9278 832.5494 781.0983 833.6786 788.0637 825.0854 788.2571 824.8327 799.043 819.2596 803.914 829.7846 804.1734 830.1626 806.5086 833.7536 806.2565 836.9083 806.1925 837.2238 809.4956 839.8665 814.9864 837.4581 818.6915 846.7236 818.8866 847.2279 821.1625 853.2791 821.2925 853.5943 825.0028 865.1939 824.1086 870.3686 823.8508 870.7476 820.1734 874.7295 813.1502 886.6667 807.9897 892.7333 800.5886 909.907 791.7502 920.2705 787.8216 928.2899 787.5642 928.9213 783.9141 946.7811 776.9448 954.5541 771.3249 958.0347 756.4259 979.1333 754.0662 996.2964 753.035 998.1909 752.4559 999.7691 750.1988 1003.306 747.7446 1005.2663 746.5165 1005.7102 744.9643 1005.8393 744.5764 1005.9662 741.4111 1008.1801 740.1192 1009.1287 736.497 1009.1986 734.751 1009.4542 734.299 1009.8966 733.4592 1010.4659 731.9712 1010.3425 729.8365 1010.3465 728.9956 1010.3481 728.3496 1010.7908 728.0267 1011.0438 725.6344 1011.6159 725.0522 1011.617 724.7289 1011.6807 723.3058 1011.6833 722.5944 1011.7477 721.8831 1011.8752 720.3311 1012.1303 719.8787 1012.3204 719.3614 1012.4475 718.7153 1012.8272 717.4232 1013.7127 716.9709 1013.9659 715.8715 1014.1571 715.4189 1014.221 715.2248 1014.2214 713.996 1014.3498 713.22 1014.4774 712.7026 1014.5414 711.7328 1014.7955 710.9572 1015.1123 709.5358 1016.0611 708.2437 1016.9466 707.9853 1017.1363 707.4037 1017.4528 707.2745 1017.5161 706.8868 1017.7691 706.5637 1017.9589 705.7238 1018.5282 705.4654 1018.7179 705.0132 1019.0341 703.9794 1019.6668 703.5918 1019.9829 703.3334 1020.1726 702.7523 1020.7414 702.2998 1020.9315 700.8134 1021.6911 699.3914 1022.3245 698.4217 1022.6416 697.9047 1022.958 697.6463 1023.1477 696.8064 1023.7169 696.2896 1024.0963 695.2549 1024.2874 693.6384 1024.6688 692.9279 1025.2378 691.8932 1025.4288 691.8929 1025.2396 691.6978 1024.6722 691.6319 1023.9784 691.5662 1023.4107 691.2406 1022.2127 691.1103 1021.7083 690.7844 1020.3211 690.1961 1016.9156 689.8714 1016.2223 689.8705 1015.7176 689.6735 1014.0778 689.1558 1013.9525 688.1199 1013.4497 687.2128 1012.5681 686.6938 1011.7489 686.564 1011.4968 686.3033 1010.4249 686.3016 1009.4786 686.3002 1008.6586 686.3625 1007.3337 686.296 1006.3245 686.5508 1004.1162 686.6788 1003.3589 686.7421 1002.5388 687.0638 1001.5919 687.2557 1000.393 686.5431 999.7634 686.1544 999.4487 684.6642 998.0635 683.8212 996.8664 683.7559 996.488 683.7538 995.3525 683.7535 995.1633 683.8812 994.2168 684.0741 993.5856 684.2674 993.1437 684.4608 992.7649 685.7513 990.9963 686.074 990.6172 686.5256 989.9856 686.5233 988.6609 686.457 987.7778 684.4494 986.3935 682.5086 986.2076 680.826 985.7059 679.4664 984.9513 677.5912 985.2699 675.4578 985.9044 674.8756 985.8423 673.5175 985.9708 672.7415 986.0983 672.2245 986.3515 670.7388 987.4896 670.0281 987.9324 669.6406 988.2485 668.4133 989.1968 667.0572 990.5238 665.2465 990.7162 664.3413 990.97 663.8886 990.9708 662.919 991.3509 660.8522 993.1207 660.1407 993.1219 659.5588 993.2491 658.2658 993.6298 657.4253 993.8835 656.9089 994.5152 656.8461 995.5877 656.4594 996.4084 656.2655 996.5349 655.038 997.3571 654.3919 997.7997 654.069 998.1157 653.7485 999.8194 653.7499 1000.6395 653.6209 1000.8921 653.2978 1001.0818 653.0395 1001.3346 652.781 1001.4612 652.07 1001.7778 651.6173 1001.8416 650.7767 1001.9692 649.0298 1001.7198 647.2167 1000.5873 646.5692 1000.2098 646.4399 1000.2101 645.9234 1000.7786 644.7596 1001.096 643.7244 1000.9715 643.2717 1001.0353 643.2064 1000.6569 643.0106 999.5849 642.879 998.2603 642.8136 997.8189 642.554 997.3146 642.2946 996.9366 641.8409 996.3695 641.7112 996.1805 640.7389 994.9204 640.2851 994.3534 638.8604 993.3464 637.953 992.2124 638.2095 990.8873 639.4347 988.6143 639.7576 988.2983 640.7266 987.5398 640.985 987.3501 641.3079 987.0341 641.8246 986.5917 642.1476 986.3389 643.1171 985.9588 643.3758 985.8953 644.0869 985.7048 644.863 985.6405 645.5099 985.7025 646.6081 984.8806 646.6721 984.4389 646.6066 983.9975 646.4761 983.3038 645.7632 982.4849 645.1805 982.1073 645.051 982.0444 644.0149 981.2892 640.9084 980.2218 639.8725 979.5927 639.159 978.3953 638.8349 977.9542 638.6386 976.6298 638.7675 976.3773 638.9605 975.7461 638.3744 973.3499 638.1147 972.7195 637.4681 972.8467 636.8216 973.037 636.4982 973.0376 636.1731 972.0288 636.3661 971.3976 637.2705 970.7022 637.5938 970.6386 638.628 970.2585 638.8863 970.0057 639.2091 969.6267 638.82 968.9965 638.3021 968.745 637.8491 968.6196 637.0726 968.3685 634.7426 967.426 634.0309 967.301 633.5782 967.3018 632.0266 967.7458 631.639 967.9988 631.3806 968.1885 631.1229 968.8197 630.6076 970.1453 630.2205 970.7136 629.2517 971.5353 629.1226 971.7247 628.7995 971.9145 628.0892 972.6096 627.8315 973.2408 628.1557 973.7449 628.6095 974.375 629.0003 976.0146 628.354 976.331 628.0304 976.2054 627.8361 976.0795 627.3838 976.3326 626.9317 976.7118 626.6086 976.9016 625.6373 976.2723 624.536 975.2016 624.0177 974.6347 623.5642 974.1939 622.9163 973.501 622.2684 972.8081 621.6201 971.926 620.9078 971.3594 620.5836 970.9183 620.3892 970.6663 620.1298 970.2251 619.8028 968.0177 619.0904 967.4511 618.1194 966.948 617.7957 966.7592 616.8894 966.256 616.6952 966.1301 616.1774 965.8786 615.9831 965.7528 614.4941 964.8719 613.1993 964.0539 611.128 963.0478 610.8689 962.859 609.8333 962.3559 608.8625 961.9789 608.1506 961.6646 605.8848 960.3434 605.6904 960.1544 604.2011 959.0213 604.0067 958.7692 603.2298 958.3288 602.7766 958.0141 602.3233 957.6363 601.8055 957.3848 601.2226 956.881 600.4456 956.3145 600.2512 956.1255 599.733 955.6217 598.891 954.8029 598.5024 954.488 597.5313 953.8587 597.1429 953.67 596.1718 953.0407 595.2656 952.5374 594.683 952.2229 594.6182 952.1599 593.7765 951.5934 591.8343 950.3347 591.5754 950.2089 590.4752 949.7059 590.0219 949.3912 589.5041 949.0766 588.4037 948.5105 587.7565 948.1961 586.5915 947.6931 585.556 947.19 585.1677 947.0645 584.2615 946.5611 581.6078 945.2404 580.3781 944.6744 579.3428 944.2975 577.0133 943.5439 576.6251 943.4183 576.0427 943.23 575.5252 943.1046 574.8781 942.9163 573.9722 942.6022 570.4778 941.2826 569.8306 940.9681 569.507 940.7793 568.9244 940.4647 568.1477 940.0243 567.8241 939.8986 566.8534 939.4584 565.365 938.8929 563.8119 938.2643 562.5825 937.8245 560.965 937.3852 559.7357 937.0716 559.0241 936.9464 558.3126 936.8844 557.9893 936.8848 557.2778 936.8228 556.631 936.8237 555.9843 936.8246 554.6261 936.7635 553.9147 936.7645 553.9127 935.4397 554.106 934.9348 554.7501 933.1045 555.6531 931.463 555.7822 931.2736 556.8804 930.3889 557.2673 929.6313 557.7836 928.9367 558.3645 928.1157 558.8162 927.4212 559.6555 926.4737 560.2361 925.4636 560.3005 925.2742 560.8157 923.8226 561.203 923.3174 561.2669 922.7495 561.1373 922.6236 559.9081 922.3099 559.1967 922.3109 557.5152 922.2502 556.6744 922.1884 556.092 921.9369 555.5092 921.433 555.1203 920.8028 554.7959 920.1093 554.4705 918.7219 553.9527 918.4073 553.5644 918.2186 552.1404 917.3374 551.0407 917.1497 550.7173 917.0871 550.329 916.8984 549.9406 916.6466 549.4228 916.3319 548.517 916.0178 548.2582 915.9551 547.7408 915.9558 547.0945 916.2091 544.5706 915.014 543.9882 914.6994 542.888 914.1332 541.7885 914.0717 541.4653 914.1983 541.0135 914.8297 540.6915 915.7764 540.3693 916.5969 539.8522 916.7869 539.205 916.4093 539.0755 916.2833 538.6213 915.2115 534.8016 912.2519 534.4774 911.6215 534.3479 911.4955 534.0239 911.0544 533.8942 910.8022 533.0522 909.8572 531.6296 909.9853 531.1133 910.743 530.3369 910.4286 529.9485 910.1768 529.625 910.0511 528.719 909.6107 528.3307 909.422 528.0072 909.2963 526.3246 908.4154 526.0657 908.2896 524.9659 907.9126 523.4133 907.5362 522.1844 907.4117 521.4082 907.2865 520.9551 906.9717 520.3724 906.4678 519.984 906.153 518.7546 905.6499 518.4959 905.6503 517.7846 905.7143 516.2979 906.1579 516.1039 906.2212 515.0045 906.1596 514.5517 906.0971 514.1634 905.8453 513.7098 905.2151 513.4507 904.9 513.2562 904.5217 512.9963 903.5758 513.0605 903.2603 513.0597 902.6295 511.4414 901.4331 510.859 901.1815 510.6003 901.1188 509.8237 900.7413 509.5648 900.5524 508.6581 899.5442 508.5284 899.229 508.1398 898.7879 506.9747 897.9694 506.5213 897.4653 506.1327 897.0242 505.6151 896.7726 505.0326 896.4579 504.4501 896.0802 503.8676 895.6393 503.5436 895.1351 503.4136 894.6306 503.1521 892.5492 502.9571 891.7925 502.6332 891.3513 502.5685 891.2883 502.2447 890.9733 502.0506 890.8474 501.1451 890.7224 498.8806 889.8421 498.8152 889.2745 498.747 886.562 498.6819 886.2467 497.9688 884.8598 497.2571 884.6083 496.5459 884.6723 495.1881 884.8002 494.6063 884.9271 494.4124 885.0536 491.8266 885.6877 491.1154 885.7517 488.5281 885.1872 487.4282 884.747 486.3284 884.3699 485.617 884.3077 485.2935 884.1188 485.2933 883.9927 485.2285 883.9297 485.4864 883.2985 486.6492 882.3508 486.9723 882.2242 487.5538 881.845 487.8769 881.6554 488.9109 881.2125 489.1049 881.1491 490.3328 880.5798 490.9791 880.3267 491.8191 879.884 494.1436 877.2316 494.5304 876.348 495.1752 874.8962 495.3689 874.7067 495.627 874.2648 495.5612 873.3817 495.3644 871.2372 495.6866 870.4167 495.751 870.2273 496.0737 869.7223 496.3319 869.3434 498.7223 867.7633 500.7901 866.6882 501.3717 866.4351 501.6297 865.9301 501.7575 864.7945 501.7571 864.4791 501.8206 863.5958 501.8849 863.3434 502.4014 862.7119 502.6596 862.3962 502.7882 861.8282 502.3985 860.504 502.9792 859.557 505.1769 859.0495 505.6935 858.4811 505.6273 857.3457 505.5622 857.0303 505.4968 856.4627 505.4963 856.0842 503.683 853.9417 504.005 852.995 504.392 852.2375 504.5209 851.922 504.9723 851.0382 505.2291 849.6501 505.0344 849.0826 504.5814 848.8308 504.0624 847.5067 504.8373 846.7487 505.2898 846.622 506.0006 846.3056 506.6469 846.1156 507.0346 845.9258 508.2629 845.7349 508.6507 845.6083 508.5851 844.9144 508.3908 844.7254 508.1954 843.6533 508.3893 843.59 509.4228 842.8316 509.8751 842.5787 510.6508 842.4515 511.0385 842.2617 511.2964 841.6936 511.2961 841.4413 512.0714 841.0618 512.6535 841.1872 513.4944 841.4384 514.012 841.6901 514.7232 841.626 514.7228 841.3737 514.3347 841.2481 513.1703 840.808 512.8465 840.4299 512.3277 839.2951 512.0039 838.9171 511.8094 838.5388 511.8092 838.3496 511.8731 837.8448 513.1016 837.8432 513.5553 838.5996 513.8793 839.1669 514.5262 839.4184 514.7844 839.1026 515.5589 838.0923 516.2696 837.6498 517.1097 837.3332 517.4974 837.1435 517.8847 836.7014 517.9482 835.8181 517.7542 835.8184 517.4955 835.7556 516.6543 835.2521 516.2007 834.5588 516.3943 834.2431 516.8457 833.3593 516.3926 833.0445 515.8749 832.6667 514.9686 831.8478 515.1617 831.2168 515.4846 830.964 516.1939 829.5121 515.9346 829.0078 515.3522 828.6932 515.0928 828.0627 514.9632 827.8736 514.7042 827.6216 513.8629 827.055 513.7971 826.1719 514.2487 825.4143 514.7009 825.1614 515.9939 825.0966 516.317 824.97 516.3814 824.7807 516.3163 824.4653 515.538 822.637 515.7957 821.9427 515.4072 821.5016 515.1482 821.2496 515.1477 820.8711 515.4054 820.1769 514.7588 820.1778 514.4982 818.7272 514.1738 817.8445 514.1079 816.9614 514.3012 816.4565 514.1068 816.1413 514.1062 815.6997 514.2342 814.6902 514.2985 814.4378 514.2982 814.2486 513.8445 813.4291 513.6495 812.6723 513.6489 812.1677 513.3874 810.0232 512.9973 808.4466 512.8677 808.1945 512.7379 807.8161 512.7376 807.6269 512.413 806.618 511.8937 805.1047 511.8935 804.9785 511.3095 803.3391 511.115 802.9609 510.7905 802.0151 510.6605 801.5106 510.5309 801.3215 510.1418 800.4388 509.8825 799.8714 509.5584 799.241 508.7805 797.665 508.0028 796.2782 507.6142 795.774 507.3552 795.4589 507.1612 795.4592 506.2565 795.7127 506.0626 795.776 505.998 795.7761 505.6098 795.5874 505.7385 795.1456 505.8674 794.83 505.9962 794.4514 506.0603 794.0728 505.9303 793.5052 505.8652 793.1899 505.6704 792.5593 505.4107 791.7396 505.087 791.3615 504.4397 790.7946 504.1809 790.6057 503.4036 789.4712 503.2734 788.8405 503.5966 788.777 504.6958 788.9018 505.2131 788.9642 508.0576 788.8974 508.445 788.5814 508.5094 788.3921 508.7672 787.7609 508.7665 787.2563 508.8303 786.6254 508.8296 786.1207 514.3328 792.0433 529.7819 790.3823 536.5719 791.6978 543.1073 795.726 552.4162 795.2083 552.6102 795.208 559.012 796.2082 559.5826 788.5112 559.4531 788.3852 557.1131 779.7462 556.6415 766.6887 559.3542 764.9815 565.4777 752.9869 564.116 750.1501 568.566 743.2045 568.6951 743.0782 585.1092 739.8366 593.5824 743.1673 599.4567 737.9855 603.6449 729.4628 608.1012 727.0587 608.1013 727.1218 612.5682 731.3414 612.6978 731.5304 615.8724 736.0043 613.0979 739.1629 614.013 745.4697 614.1423 745.4695 615.6951 746.3503 629.3933 742.6696 630.2333 742.479 640.5087 740.8853 640.7026 740.8849 650.1229 730.6499 650.2519 730.4605 652.7729 730.5194 652.8379 730.7085 663.0595 735.6118 663.1889 735.6747 665.2577 735.8604 678.3729 731.9268 685.6696 727.6875 688.9932 742.6955 691.2584 744.2055 690.6697 740.3585 694.3416 733.3498 703.5214 733.8381 712.365 727.2615 714.3716 728.7718 715.2792 730.2211 715.4089 730.4101 715.9996 735.2034 720.5418 744.4683 729.929 751.8948 730.0585 752.0207 731.0928 752.0188 731.2218 751.8924 733.0308 751.3213 742.5894 746.8875 749.2967 738.8632 751.1148 743.0863 757.3917 746.4177 757.521 746.4174 762.7559 745.8396 764.0063 757.066 760.393 760.4795 761.1175 767.2911 757.4719 787.2324 757.4723 787.4217 753.5403 793.359 753.5404 793.4221 757.8094 794.4863 764.1945 786.7778 770.86 757.7465 771.3655 751.9419 Z">
      <title>
        龍潭區 Longtan District
      </title>
    </path>
    <path d="M 1352.2524 1050.9179 1352.5144 1051.8633 1352.519 1053.188 1352.4563 1053.756 1352.2641 1054.3244 1352.0711 1054.6404 1347.8178 1059.3861 1349.7838 1066.6971 1343.6586 1072.7738 1339.0264 1080.3594 1338.445 1080.6137 1329.5279 1083.8607 1324.0433 1088.2317 1316.9718 1101.6919 1307.4198 1108.7886 1298.3682 1110.7737 1297.7222 1111.0913 1282.8188 1124.1346 1281.9809 1125.1467 1274.7795 1139.1111 1275.1176 1143.589 1281.9261 1147.9199 1281.7567 1155.4905 1282.2138 1156.7506 1289.4386 1169.5333 1291.6107 1180.6289 1290.2729 1187.0677 1294.3745 1194.4983 1294.9788 1201.1201 1299.6509 1204.8899 1302.8541 1214.5312 1302.03 1219.7067 1304.181 1224.3048 1309.457 1234.3808 1306.4456 1243.5377 1312.3491 1247.6188 1318.0672 1254.2868 1325.775 1255.9015 1327.4892 1265.169 1335.7147 1285.7067 1336.0412 1286.5257 1337.9355 1291.566 1348.0595 1299.102 1349.4607 1311.2723 1353.0535 1320.6596 1358.6255 1322.0285 1370.8812 1327.9165 1382.6065 1330.1471 1391.4922 1334.8476 1401.1753 1345.2225 1409.3501 1350.1143 1411.6096 1348.34 1422.1048 1350.3215 1423.8156 1357.9485 1419.0644 1368.9418 1422.1691 1386.0263 1425.9418 1390.8072 1427.4779 1403.7338 1436.7153 1415.4973 1439 1420.5358 1438.8057 1420.5365 1437.9647 1420.7287 1431.0358 1420.6274 1417.0574 1422.885 1409.3007 1426.6974 1401.5253 1425.2738 1384.5568 1424.3866 1379.8249 1422.952 1373.6333 1430.0386 1366.9973 1439.7131 1363.7974 1450.6374 1351.3233 1457.6188 1346.0548 1469.8116 1346.6729 1480.092 1350.714 1487.6484 1356.6255 1492.8643 1348.2639 1509.7357 1341.0906 1514.3648 1338.255 1518.5378 1339.9718 1528.1837 1338.4455 1536.4527 1325.5148 1543.4348 1311.7424 1570.1012 1309.1101 1577.1751 1310.4287 1584.1099 1310.5595 1584.4879 1308.3879 1593.7682 1305.6701 1594.6602 1301.7565 1606.1541 1297.1001 1608.5663 1289.1532 1634.8975 1279.6614 1644.7058 1266.8509 1650.1716 1261.5416 1651.2608 1255.6336 1647.4314 1255.1799 1647.3697 1252.8507 1648.3863 1245.6424 1643.1099 1245.0809 1649.9246 1240.8825 1654.038 1239.9113 1654.2303 1234.4765 1656.6442 1231.8993 1661.2572 1219.5722 1676.7502 1217.6413 1680.9195 1217.0579 1680.8582 1214.9201 1680.9909 1213.6896 1681.1839 1212.4607 1681.8815 1212.1373 1682.0717 1211.4267 1682.7678 1210.2635 1683.7806 1209.8113 1684.2236 1209.1647 1684.6671 1208.3889 1685.2372 1207.2234 1685.4931 1206.6406 1685.621 1205.9283 1685.7493 1203.8576 1686.6387 1202.7584 1687.399 1202.241 1687.716 1200.3006 1688.8573 1199.2004 1689.3022 1198.8764 1689.3031 1196.545 1689.6886 1195.3177 1690.9539 1194.4172 1693.1645 1193.7076 1694.176 1192.6725 1694.7468 1191.7665 1695.128 1190.6662 1695.5098 1188.8534 1696.0198 1187.7534 1696.5277 1186.1348 1696.9741 1183.8038 1697.5488 1183.0263 1697.5511 1181.3412 1697.4299 1179.7215 1697.4978 1176.8702 1697.4431 1175.6395 1697.5729 1174.0844 1697.5774 1172.9176 1697.4547 1171.8803 1697.2685 1170.9071 1696.8298 1170.0615 1695.7599 1169.5419 1695.3198 1168.1776 1694.1252 1167.2032 1693.308 1165.9698 1692.5546 1164.4121 1691.676 1162.7883 1690.356 1162.269 1690.0421 1160.5157 1688.7225 1159.8014 1688.2199 1158.6982 1687.6553 1157.1409 1686.9029 1155.129 1685.7732 1153.6366 1685.0836 1153.0528 1684.833 1152.2093 1684.4569 1150.4577 1683.705 1149.4843 1683.2031 1148.1214 1682.45 1145.3964 1681.1962 1143.9689 1680.5064 1142.8657 1679.9418 1142.6062 1679.8164 1141.8922 1679.3768 1140.854 1678.8751 1139.9458 1678.4992 1138.6485 1677.9983 1136.4431 1677.1845 1134.8217 1676.6214 1132.7466 1676.0595 1132.0978 1675.7459 1130.7999 1675.0557 1130.1511 1674.7421 1129.9562 1674.5534 1129.1103 1673.2942 1128.652 1671.6553 1128.3898 1670.5837 1128.3867 1669.5113 1128.3204 1669.0068 1128.3188 1668.4391 1128.3148 1667.0513 1128.2477 1666.2314 1128.1816 1665.79 1127.4003 1664.4675 1126.0366 1663.3989 1124.6742 1662.7719 1124.0259 1662.6476 1122.1454 1662.0851 1120.7835 1661.6474 1120.0701 1661.3971 1118.1879 1660.2669 1116.1125 1659.5157 1115.5288 1659.3281 1114.9452 1659.1404 1114.3614 1658.8897 1113.5819 1658.198 1113.1925 1657.9468 1112.4123 1657.0027 1111.1768 1655.4291 1110.9814 1655.0511 1110.6542 1653.9166 1110.3917 1652.7187 1109.8068 1652.0895 1109.2223 1651.5865 1108.4425 1650.7686 1107.4683 1649.9512 1106.9488 1649.5111 1105.5845 1648.1901 1104.6748 1647.2464 1103.3103 1645.8624 1102.5922 1643.9088 1102.7842 1643.0882 1103.1698 1641.9516 1103.8145 1640.8144 1104.0718 1640.1828 1104.7806 1638.7931 1105.3601 1637.5298 1105.6155 1636.2044 1105.549 1635.5737 1104.8937 1632.9261 1103.2 1629.6505 1101.7062 1628.3299 1101.3165 1627.9525 1100.4719 1627.1347 1099.562 1626.0648 1098.1339 1625.0594 1097.6795 1624.7453 1097.0299 1624.1162 1096.8348 1623.8644 1096.6357 1622.1618 1096.6973 1621.0261 1096.6287 1619.6385 1096.7568 1619.1335 1096.9489 1618.3129 1096.6839 1616.2319 1096.034 1615.4767 1094.0209 1613.779 1092.917 1612.8358 1092.1377 1612.144 1091.6177 1611.5146 1091.7439 1610.3157 1091.6754 1608.9911 1091.6747 1608.7388 1090.8275 1606.9117 1090.5004 1605.7771 1090.042 1604.0121 1089.7817 1603.5712 1089.5192 1602.3733 1089.5796 1600.7961 1089.7073 1600.1019 1090.4811 1598.8381 1091.1911 1597.8899 1092.2902 1597.1299 1093.325 1596.4963 1093.6476 1596.0538 1094.6803 1594.6631 1095.3258 1593.8413 1096.1007 1592.956 1097.3901 1590.7446 1097.5832 1590.3025 1097.8414 1589.9864 1101.4036 1589.7242 1101.7921 1589.66 1102.2404 1587.8294 1102.4965 1586.7563 1102.5556 1584.7375 1102.488 1583.7284 1102.4193 1582.3407 1102.6731 1580.4476 1103.1874 1579.0583 1103.573 1577.9848 1103.7656 1577.3535 1104.9903 1575.2053 1105.5701 1574.0682 1106.2138 1572.6155 1106.8569 1570.9736 1106.8548 1570.2166 1106.9813 1569.1438 1106.9801 1568.7023 1107.3016 1567.8813 1107.6239 1567.3127 1108.2032 1565.9863 1108.3962 1565.5442 1108.5247 1565.1654 1108.65 1563.651 1108.5172 1562.5159 1108.5158 1562.0113 1108.4491 1561.3175 1108.4455 1560.0559 1108.5081 1559.2987 1109.2144 1557.0889 1109.7952 1556.3303 1110.3118 1555.7611 1110.764 1555.3182 1111.3455 1554.812 1110.6325 1554.6247 1109.7906 1554.6901 1109.5963 1554.6907 1109.0781 1554.6921 1108.7539 1554.5668 1108.0408 1554.3796 1106.2243 1553.3753 1105.0574 1553 1103.8905 1552.6879 1101.1018 1551.4339 1099.9337 1550.6801 1099.0253 1550.1149 1098.3762 1549.612 1097.4674 1548.9206 1095.2632 1548.2328 1093.7096 1548.5525 1092.3497 1548.6823 1087.3633 1549.0745 1085.341 1543.9072 1085.2733 1542.835 1085.3337 1541.2578 1085.3324 1540.8162 1085.3269 1538.7976 1085.4555 1538.4818 1084.8632 1535.0769 1084.47 1533.4379 1083.9478 1531.9884 1083.2303 1530.1609 1082.3185 1528.334 1081.7319 1527.0109 1081.0149 1525.3727 1077.3818 1523.1746 1074.6586 1522.1096 1073.9451 1521.733 1072.5164 1520.349 1071.8662 1519.4045 1071.3458 1518.5859 1070.9553 1517.893 1070.6936 1516.9475 1070.6266 1516.1276 1070.4275 1514.3618 1070.295 1513.2897 1070.3569 1512.2172 1070.4209 1511.9647 1070.5487 1511.3335 1070.676 1510.5131 1070.9313 1509.1246 1071.5075 1506.6628 1071.6988 1505.5899 1072.0824 1503.7595 1072.2104 1503.1914 1072.4652 1501.6136 1071.4816 1497.2005 1071.5388 1494.4247 1071.0823 1493.2904 1070.2271 1488.4354 1070.2905 1487.9305 1070.4803 1486.2899 1070.5396 1484.2711 1073.639 1480.9193 1072.1412 1477.8954 1072.0733 1476.7601 1072.3918 1474.8037 1073.2299 1473.4136 1073.8089 1472.0242 1074.3206 1469.6888 1074.7076 1469.12 1074.4444 1467.6067 1073.4682 1465.843 1073.9042 1459.5336 1073.5774 1458.4621 1073.6256 1452.406 1074.4622 1450.5113 1074.1999 1449.3134 1073.0329 1448.8119 1072.5135 1448.3086 1072.9005 1447.7398 1072.833 1446.7307 1074.2527 1444.9606 1074.4439 1443.8245 1074.3109 1442.5632 1073.4643 1440.7992 1071.4619 1442.634 1070.8808 1443.2664 1070.0424 1444.5303 1069.0745 1445.7946 1067.5867 1446.3663 1065.9657 1445.6136 1065.0573 1444.9222 1063.432 1442.5924 1062.1978 1441.1448 1061.549 1440.705 1060.0591 1440.5197 1059.2824 1440.6479 1053.2043 1443.9444 1051.394 1445.0215 1049.8399 1445.0256 1048.8017 1444.2714 1048.2801 1442.948 1048.0182 1441.8763 1047.2938 1437.3363 1046.9034 1436.6434 1043.7944 1436.3361 1042.3077 1437.3493 1041.3386 1438.172 1040.2414 1439.5626 1039.0149 1441.0168 1035.7241 1445.4411 1034.8835 1445.8849 1033.9121 1445.8874 1033.1337 1445.3848 1032.4848 1444.8818 1033.7012 1439.5797 1033.947 1434.5955 1034.1979 1431.5038 1033.5285 1423.2417 1033.0075 1422.1076 1032.5511 1420.9102 1032.3538 1419.7752 1032.7343 1416.7463 1032.7292 1414.7907 1032.3953 1410.9435 1031.8656 1406.5291 1031.7977 1405.3307 1031.3411 1404.0702 1029.78 1401.3617 1029.2609 1400.9215 1027.1836 1398.9082 1026.0132 1397.0187 1024.6472 1394.6251 1023.2156 1391.9162 1022.3701 1390.4675 1020.8758 1388.5158 1018.1473 1384.9901 1016.7183 1383.2275 1009.9606 1373.9085 1009.0511 1372.7122 1008.4019 1372.0199 1007.3629 1370.824 1003.9855 1366.6691 1001.9739 1364.9078 999.5082 1362.7692 995.2264 1359.3104 993.6053 1358.3051 989.5846 1355.6657 983.3646 1353.7886 980.9684 1353.4792 980.3856 1353.4175 975.1351 1350.844 974.0267 1347.6926 973.1829 1346.8115 971.5615 1345.68 970.6544 1345.3668 969.4242 1345.3067 969.1003 1345.2444 966.5111 1345.3769 965.0219 1345.3174 960.8147 1345.7061 959.0034 1346.2783 958.0328 1346.4699 951.2445 1350.3342 950.2096 1350.7152 948.1405 1351.7925 946.0719 1353.0591 944.8438 1353.8821 943.2283 1355.1476 940.447 1356.2266 938.7683 1358.1231 938.4452 1358.3762 935.1464 1359.6456 932.1717 1361.1035 931.2664 1361.5472 929.5182 1361.4882 928.3522 1361.2386 927.3161 1361.1149 925.5662 1360.362 923.6225 1359.7357 920.964 1358.0386 919.4061 1356.2759 918.432 1355.0165 917.5866 1353.4414 917.5188 1352.1168 918.2881 1348.8978 918.9326 1347.6978 919.7054 1345.9297 921.703 1342.0139 923.5724 1338.6031 923.9584 1337.5929 924.8592 1335.2567 925.5669 1333.3626 925.9495 1330.9015 925.358 1327.181 925.4215 1326.6761 926.1936 1324.6557 927.8022 1320.5516 927.9239 1317.271 928.3036 1313.6113 929.5912 1310.6434 930.4941 1309.2534 934.1743 1305.2075 936.107 1301.3549 936.3642 1300.5973 937.1364 1298.703 937.5202 1296.8096 937.7737 1294.538 937.9605 1291.4465 938.6024 1289.2371 939.4383 1286.9011 939.824 1285.7647 939.8864 1284.8183 940.3942 1280.6536 940.9 1275.6689 940.7043 1275.0385 939.6656 1273.7793 939.146 1273.0235 938.4956 1271.7634 938.1059 1271.1966 937.6504 1270.1883 937.3892 1269.2427 936.8665 1267.2253 936.2159 1265.839 935.108 1262.6875 934.71 1258.6511 934.6439 1258.0835 934.1233 1256.9493 931.6621 1256.2611 930.0422 1255.5079 929.069 1254.564 927.512 1253.0536 926.1494 1251.6059 924.593 1250.3479 922.3871 1248.1451 921.5426 1246.8224 920.7632 1245.6887 917.0038 1243.3633 916.6148 1243.1119 914.7349 1241.8546 913.8854 1238.387 913.6232 1236.9998 915.0915 1228.354 916.9564 1223.24 918.6351 1221.5329 919.0225 1221.1535 919.4053 1218.8185 919.5913 1215.3485 919.7835 1214.528 920.232 1212.6345 921.1934 1208.658 922.1588 1206.3848 922.61 1205.6268 924.5454 1203.0359 926.0938 1201.0136 927.9014 1199.18 929.9025 1197.0305 931.3878 1195.7022 933.7126 1193.615 934.2915 1192.1628 934.6744 1189.8909 934.7377 1189.323 934.668 1187.2414 934.2761 1185.7283 933.4916 1182.4499 933.2946 1181.2518 934.6463 1178.2206 935.0964 1177.021 935.4818 1175.8215 935.7392 1175.19 937.2885 1173.6093 937.6757 1173.1668 938.1917 1172.4717 938.5123 1171.2723 939.09 1169.3154 940.2503 1167.4202 940.8932 1165.7154 938.1064 1163.9557 937.2643 1163.5792 934.802 1162.1972 933.6996 1161.2535 931.9489 1159.7436 930.0009 1156.9726 929.6113 1156.4057 928.0517 1153.6337 927.2058 1151.6801 925.9047 1148.7814 924.9295 1146.8281 923.955 1145.1902 923.6943 1144.4338 923.0375 1140.3349 922.5188 1139.8946 922.0003 1139.5173 921.5466 1139.2029 921.0284 1138.9518 919.9923 1138.6388 919.4098 1138.577 916.6947 1139.6557 915.2728 1140.3529 914.1735 1140.6709 912.685 1140.5482 910.0296 1139.5449 906.0807 1138.7339 905.1739 1138.3575 903.8143 1138.0452 902.8436 1137.9843 902.4551 1137.859 901.2243 1137.2941 900.5111 1136.6649 899.7964 1135.4048 898.8216 1133.5776 898.5612 1132.8843 898.1677 1130.6142 898.0338 1128.659 897.2516 1126.2005 896.992 1125.8226 895.1778 1124.7543 893.2354 1124.1909 892.5882 1124.1293 890.5172 1123.9447 889.2873 1123.6951 881.7776 1121.9456 878.7954 1119.3658 875.3622 1117.6071 874.0027 1117.2947 872.7084 1117.1714 870.3144 1117.1767 867.9203 1117.1189 865.9139 1116.8709 860.5423 1116.3149 858.9248 1116.3184 856.4004 1115.8823 854.6529 1115.6337 850.8957 1113.6232 848.2337 1109.4023 846.353 1107.3877 844.0842 1105.437 841.2332 1103.5506 839.8737 1103.175 837.1566 1103.3069 835.8555 1100.0293 835.9173 1098.7045 835.9123 1096.3704 835.781 1095.4875 835.5853 1094.731 835.3898 1094.1005 834.9349 1093.1553 831.6953 1091.0173 826.9015 1088.1255 825.9935 1087.1181 824.1178 1087.3743 820.4305 1087.5712 818.0942 1084.1696 817.7692 1083.4764 817.3147 1082.7203 816.3439 1082.5331 814.1456 1083.2315 813.1753 1083.2966 812.4635 1083.235 809.4853 1082.2318 808.7087 1082.1072 805.2136 1081.4204 803.5953 1080.9822 803.2716 1080.8566 802.425 1078.2089 802.6177 1077.5146 802.4215 1076.5056 801.9657 1075.1187 800.8637 1074.0486 800.2804 1073.5451 798.6574 1070.8358 798.5897 1069.385 800.1347 1065.66 803.2354 1063.4458 803.9446 1062.2458 804.9743 1059.6573 805.166 1058.5214 805.4234 1057.827 806.3241 1055.428 806.3877 1054.9232 806.3209 1053.914 805.8637 1051.8332 805.7972 1050.9502 805.5348 1049.1844 804.6234 1046.4737 804.4288 1046.2217 804.2339 1045.7806 804.0391 1045.4655 803.3257 1044.5838 802.7423 1044.0173 802.224 1043.6398 801.6416 1043.5779 800.4784 1044.148 799.5097 1044.9701 799.1866 1045.16 797.8947 1046.0457 797.1189 1046.2996 795.6958 1046.3656 795.5016 1046.3029 794.9837 1046.1147 794.4009 1045.8635 794.1419 1045.7379 793.4941 1045.2976 792.8467 1045.0466 792.3289 1044.9215 791.2932 1044.6081 790.7106 1044.4201 789.9339 1044.2324 789.2867 1044.1075 788.704 1043.8563 788.5745 1043.7935 787.6029 1043.1646 787.2793 1043.1022 786.8266 1043.1662 785.2102 1043.611 783.2699 1043.8041 782.2982 1043.1752 780.2922 1042.8637 779.1909 1042.1089 778.2842 1041.606 777.5721 1041.3551 776.8592 1040.6626 776.7276 1039.5904 776.6623 1039.2752 776.3372 1038.4557 775.43 1037.7005 773.4235 1037.1367 772.7757 1036.6964 772.1278 1036.193 770.5096 1035.6915 769.9917 1035.5033 769.3444 1035.3153 768.3732 1034.8756 765.7784 1031.2218 765.5826 1030.339 765.1918 1029.0151 765.123 1026.9335 764.7311 1025.0417 764.5362 1024.6005 764.34 1023.5285 765.5651 1021.5075 766.6629 1020.5591 767.3074 1019.3592 767.2394 1017.7192 767.3669 1016.7727 767.3004 1015.8266 767.0404 1015.1963 763.8553 1007.3802 762.0424 1006.5005 761.329 1005.5557 760.7433 1003.7905 760.8069 1003.2226 760.804 1001.7717 760.2854 1001.2049 759.5731 1000.7647 756.2027 997.3017 755.6194 996.735 754.3248 996.2328 754.7772 996.0427 755.0358 995.9792 756.5225 995.4716 756.6518 995.4083 773.205 992.6005 780.5736 989.9996 785.5587 992.2607 792.503 1003.6017 803.3781 1007.4909 811.2052 1007.6011 817.6009 1003.7398 819.9832 998.5621 816.2577 980.2757 827.6333 976.467 845.225 975.862 859.3784 970.6587 869.8634 973.7899 878.2681 972.1943 883.9727 977.796 898.4191 987.6044 904.4466 992.7635 919.7885 997.901 927.7391 995.6114 932.1282 991.69 938.3439 994.2617 952.4732 1005.8353 965.0386 1012.4917 968.8451 1008.5082 981.5602 997.4374 981.2642 982.6766 974.7558 966.6065 974.4316 966.2918 974.6802 962.2539 979.3272 958.3944 978.8626 953.6643 987.0806 955.2841 997.6176 953.2391 996.8242 946.4911 1011.488 939.7672 1006.8774 932.5243 1008.5381 924.5085 1005.6075 916.6306 1008.9518 909.4937 1013.3052 892.5762 1013.2802 882.9876 1021.3588 881.2637 1021.7549 884.3537 1033.8516 885.9626 1040.5014 881.9709 1052.1307 878.1553 1067.0157 882.5945 1076.1377 884.1469 1084.7125 898.1281 1091.191 902.337 1103.0902 902.4303 1112.1561 906.7578 1120.6336 908.8157 1128.016 912.3275 1128.1571 916.3645 1136.6277 915.9618 1142.7006 913.8627 1149.4756 908.6703 1158.3918 905.9319 1161.8741 902.6414 1163.2704 893.8056 1170.3075 889.9369 1171.469 889.1134 1175.0267 889.4814 1188.0718 883.7651 1197.7733 884.3038 1200.5733 890.6037 1209.6897 890.1345 1214.2002 884.9479 1227.8004 891.4669 1228.384 891.9698 1231.6239 894.0415 1231.8833 894.2931 1236.1703 900.2727 1251.5288 910.3181 1246.5181 920.8057 1246.3911 921.5631 1252.8908 931.6991 1253.2974 937.5016 1257.2594 942.725 1262.4298 941.6362 1274.3957 941.9767 1278.7563 950.3528 1279.6905 959.1184 1285.0722 963.2015 1286.5094 967.5497 1293.1322 975.2875 1299.7444 979.7449 1311.7886 983.8059 1314.2244 996.4777 1313.4775 1005.1857 1316.2072 1009.0248 1316.5635 1018.8016 1313.8131 1028.0839 1317.2073 1037.0936 1326.7369 1043.055 1329.9862 1047.3969 1339.5821 1053.6732 1351.8631 1050.6038 1352.1875 1050.855 1352.2524 1050.9179 Z">
      <title>
        復興區 Fuxing District
      </title>
    </path>
    <path d="M 962.7494 585.7382 969.5632 597.329 977.2629 601.3474 984.2597 608.3954 980.9254 618.6232 1001.5293 614.5973 1002.1752 614.4695 1013.1567 612.9276 1024.41 616.4313 1024.8627 616.5563 1031.9724 617.0425 1032.037 617.0424 1021.9163 626.4681 1016.0424 629.0696 1002.7927 628.3464 996.2039 629.4354 988.2656 633.4927 978.9838 643.0413 975.9584 647.7801 968.0935 655.6218 968.3525 655.8104 984.094 670.3438 985.2062 675.6401 992.7135 679.5956 992.7145 679.9741 991.5687 686.8531 984.219 694.126 983.6383 694.506 981.12 695.4585 978.5566 704.1703 982.2603 711.8574 997.7945 720.1455 1005.8584 714.0061 1009.6551 707.4988 1010.6251 707.6856 1011.0139 708.0631 1013.4178 712.7882 1013.5563 716.3205 1010.5492 728.1879 1015.3476 733.9162 1028.1959 728.2056 1034.6686 731.4691 1038.9971 730.5746 1036.4433 742.5041 1036.2501 742.7569 1036.9071 746.7295 1046.6181 752.1291 1049.2459 767.7038 1049.2469 768.0823 1053.9187 774.4414 1063.5519 774.7311 1066.5363 778.5712 1066.9259 779.201 1069.5804 780.6447 1070.033 780.6435 1074.5886 791.6077 1071.18 798.0515 1070.9222 798.3676 1063.6255 801.6044 1060.1457 805.7773 1050.1946 807.7593 1047.6834 811.551 1048.3313 812.0539 1051.9663 817.4064 1054.3844 826.9256 1060.029 834.102 1072.5845 838.4842 1074.4106 844.1567 1081.5495 853.663 1075.8615 854.4354 1069.2389 868.0162 1057.8626 869.6238 1052.7401 864.4015 1038.9813 869.6737 1024.5646 870.8467 1021.3588 881.2637 1013.2802 882.9876 1013.3052 892.5762 1008.9518 909.4937 1005.6075 916.6306 1008.5381 924.5085 1006.8774 932.5243 1011.488 939.7672 996.8242 946.4911 997.6176 953.2391 987.0806 955.2841 978.8626 953.6643 979.3272 958.3944 974.6802 962.2539 974.4316 966.2918 974.7558 966.6065 981.2642 982.6766 981.5602 997.4374 968.8451 1008.5082 965.0386 1012.4917 952.4732 1005.8353 938.3439 994.2617 932.1282 991.69 927.7391 995.6114 919.7885 997.901 904.4466 992.7635 898.4191 987.6044 883.9727 977.796 878.2681 972.1943 869.8634 973.7899 859.3784 970.6587 845.225 975.862 827.6333 976.467 816.2577 980.2757 819.9832 998.5621 817.6009 1003.7398 811.2052 1007.6011 803.3781 1007.4909 792.503 1003.6017 785.5587 992.2607 780.5736 989.9996 773.205 992.6005 756.6518 995.4083 756.5225 995.4716 755.0358 995.9792 754.7772 996.0427 754.3248 996.2328 754.0662 996.2964 756.4259 979.1333 771.3249 958.0347 776.9448 954.5541 783.9141 946.7811 787.5642 928.9213 787.8216 928.2899 791.7502 920.2705 800.5886 909.907 807.9897 892.7333 813.1502 886.6667 820.1734 874.7295 823.8508 870.7476 824.1086 870.3686 825.0028 865.1939 821.2925 853.5943 821.1625 853.2791 818.8866 847.2279 818.6915 846.7236 814.9864 837.4581 809.4956 839.8665 806.1925 837.2238 806.2565 836.9083 806.5086 833.7536 804.1734 830.1626 803.914 829.7846 799.043 819.2596 788.2571 824.8327 788.0637 825.0854 781.0983 833.6786 777.9278 832.5494 771.9197 835.0214 767.5317 839.3827 762.8684 835.3545 762.415 834.9769 763.3675 826.2065 770.0519 806.2591 770.7243 786.8913 773.6147 777.4862 776.2949 760.133 774.0949 759.0649 775.8331 755.5289 774.7868 749.538 774.6575 749.5383 771.3655 751.9419 772.0997 731.186 775.4382 719.8876 780.2737 713.7589 780.6922 697.041 780.6268 696.6626 783.0601 685.429 782.995 685.1768 782.2728 679.6269 784.7814 673.7551 793.3582 664.4647 792.3734 657.0228 795.5365 655.2501 810.9108 651.8753 811.2975 651.3699 818.5181 643.0279 825.2946 638.7241 827.4115 631.402 827.7991 631.3381 833.9222 623.8814 834.1153 623.5025 840.8173 614.9089 841.0749 614.5298 841.204 614.4665 846.0596 618.5565 846.0736 624.9279 846.1383 624.9908 848.9921 629.716 849.3162 630.1569 854.0646 644.088 862.7817 640.7887 870.0906 643.5484 883.8412 637.1464 884.3575 636.8298 887.3264 635.183 888.1657 634.8026 888.3593 634.676 896.4267 630.1158 900.6928 630.4846 904.8989 632.8721 907.6106 631.7935 909.1534 628.3203 914.6499 629.8217 915.4888 629.315 916.3279 628.8715 929.4834 617.3596 930.0635 616.7274 937.9283 608.8865 938.057 608.6969 954.8837 592.8226 962.7494 585.7382 Z">
      <title>
        大溪區 Daxi District
      </title>
    </path>
    <path d="M 796.868 611.5937 799.581 611.0835 798.5305 603.0741 802.724 599.8483 804.4007 598.2047 808.3342 594.2855 811.4886 588.6646 819.3074 558.3683 820.2728 556.5999 820.337 556.4106 821.4057 542.4669 818.6014 530.1714 818.5365 530.0454 816.0725 525.8239 814.2441 516.6806 817.9702 506.7687 817.3178 503.8052 817.3172 503.4898 817.3169 503.3636 817.3158 502.8589 817.3144 502.165 816.9836 498.5069 816.9187 498.3808 815.6748 490.6241 815.0921 489.9945 813.8391 477.885 812.0917 476.3746 812.285 476.1219 818.4113 471.1887 819.3791 470.6189 827.6971 463.5993 828.1483 463.1567 829.9536 461.5758 830.0182 461.5757 830.4053 461.3856 833.4387 460.1806 835.8251 458.4723 836.728 457.8396 839.8237 455.562 840.3395 455.1193 841.3712 454.297 841.9517 453.9173 847.618 445.7042 851.809 442.2887 851.9379 442.1622 853.6128 440.1399 853.8062 439.9503 853.8706 439.887 853.9995 439.7606 865.5464 432.9855 866.3852 432.6051 866.9014 432.3516 867.0308 432.4775 867.4201 433.2337 868.8492 436.8263 868.8508 437.5202 868.0161 439.73 867.8872 439.8564 867.8228 439.9827 867.5655 440.4249 867.1793 441.0566 867.0503 441.1199 866.7925 441.3728 866.2766 441.7525 864.9882 443.2693 865.0533 443.5215 866.5546 450.4574 863.7862 454.5639 865.3519 461.4366 865.2233 461.6892 864.1961 464.5302 864.1968 464.8457 864.0052 465.7923 863.941 465.9817 862.5264 468.8867 862.4625 469.2022 864.2828 474.3711 870.0497 482.1808 870.1794 482.4328 871.2206 485.774 880.4556 484.5549 881.4986 488.653 881.5641 489.0313 883.8541 501.706 887.2191 504.1587 887.8021 504.8513 891.4941 509.0065 891.5597 509.448 891.6254 509.8894 891.6903 510.0154 891.8212 510.7721 891.9523 511.5919 892.1466 511.7807 893.9555 511.7766 894.4077 511.7756 894.8602 511.9007 897.8981 512.5247 898.0919 512.5242 899.32 512.7738 901.1951 513.4634 901.3891 513.5261 902.941 514.1533 903.0702 514.1531 903.3281 513.9001 903.7142 513.2684 903.7787 513.2052 903.7095 511.2497 903.7082 510.682 903.6298 504.8154 903.6292 504.5631 902.5189 499.3927 901.2201 496.4939 900.7667 495.9902 900.7018 495.8642 900.5723 495.7383 900.4428 495.6125 900.1836 495.2976 900.1189 495.2347 899.795 494.8569 899.6654 494.668 899.4064 494.4162 899.2767 494.2273 899.212 494.1644 901.3875 485.2015 901.9019 484.191 902.3498 482.3606 902.2824 481.1621 902.2821 481.036 902.4751 480.657 902.9905 480.0881 902.9256 479.9621 902.7298 479.0793 903.8823 474.7239 904.5799 469.171 906.9609 465.3174 913.5519 466.1854 913.8751 466.3108 916.1961 464.4129 916.2603 464.2235 918.6356 458.0358 921.9312 458.5328 927.2965 460.1604 925.5617 464.0126 925.3045 464.5178 923.9659 472.0279 924.0956 472.2169 924.1605 472.3429 924.4193 472.5315 932.6979 476.6756 932.9555 476.3596 933.6637 475.3486 934.308 474.6531 934.8892 474.5887 936.892 474.7101 937.5383 474.8347 939.7374 475.965 939.8 475.1448 940.1215 474.5131 940.5074 473.8183 940.6358 473.5026 941.0863 472.8076 941.1506 472.6813 942.2458 471.4801 942.3102 471.4168 942.7604 470.5957 946.7636 469.8291 947.3454 470.017 947.7985 470.3944 947.415 472.0355 947.2867 472.4143 946.8455 476.8943 947.0404 477.3354 950.4688 479.2197 950.8577 479.7865 955.9606 479.5849 959.6485 481.9101 959.8414 481.5311 965.6529 480.5707 965.8467 480.5702 966.8877 483.5326 967.0813 483.4691 969.2772 483.2744 969.6667 484.0305 969.8605 484.03 970.5657 481.8834 971.2667 478.0336 971.7192 478.1587 972.0426 478.3471 973.8547 479.6674 975.6691 481.8709 975.7349 482.3754 975.031 485.0266 976.3892 485.6541 976.064 484.7717 976.3856 484.2032 977.6759 483.5692 978.5153 483.3779 979.2903 483.3128 979.9353 482.9327 980.6461 482.9941 981.6805 483.3069 982.1336 483.6843 983.3628 484.3752 984.2683 484.8145 984.2646 483.3636 986.1989 481.9078 988.2677 482.5335 988.6551 482.4695 990.9782 481.5174 991.2361 481.3275 998.0078 476.9577 998.396 477.209 1000.2955 487.2976 1000.2316 487.5501 1000.1028 487.7397 999.974 487.8662 999.9741 487.9293 1002.9016 495.8073 999.0338 499.0344 999.7589 504.647 999.8893 505.0883 1000.8079 510.5742 1000.8732 510.8264 1001.0168 516.3774 1000.8239 516.7564 1000.6317 517.3877 998.1498 531.9663 998.0868 532.5973 998.0871 532.7235 997.9437 552.2798 998.6575 553.4766 998.9814 553.7912 1008.3082 562.5361 1008.3093 562.9777 1004.8294 566.5193 987.3931 570.1589 986.7476 570.4129 962.7494 585.7382 954.8837 592.8226 938.057 608.6969 937.9283 608.8865 930.0635 616.7274 929.4834 617.3596 916.3279 628.8715 915.4888 629.315 914.6499 629.8217 909.1534 628.3203 907.6106 631.7935 904.8989 632.8721 900.6928 630.4846 896.4267 630.1158 888.3593 634.676 888.1657 634.8026 887.3264 635.183 884.3575 636.8298 883.8412 637.1464 870.0906 643.5484 862.7817 640.7887 854.0646 644.088 849.3162 630.1569 848.9921 629.716 846.1383 624.9908 846.0736 624.9279 846.0596 618.5565 841.204 614.4665 841.0749 614.5298 840.8173 614.9089 834.1153 623.5025 833.9222 623.8814 827.7991 631.3381 827.4115 631.402 825.2946 638.7241 818.5181 643.0279 811.2975 651.3699 810.9108 651.8753 795.5365 655.2501 792.3734 657.0228 793.3582 664.4647 784.7814 673.7551 782.2728 679.6269 781.7519 677.7354 786.5696 663.2166 789.7263 658.2898 788.676 650.3434 785.8916 647.6995 778.5071 639.261 787.4732 631.0423 787.6667 630.8527 791.2074 624.2218 796.868 611.5937 Z">
      <title>
        八德區 Bade District
      </title>
    </path>
    <path d="M 765.7967 357.9965 773.5072 370.6612 781.9184 378.3408 784.5101 382.4361 788.4801 397.2528 792.3053 404.3735 792.9028 412.2578 801.1477 432.4909 802.7796 440.6884 807.262 452.8544 807.9179 457.5843 808.0483 458.1518 809.1565 462.9439 808.7051 463.3233 810.9757 467.9237 811.2352 468.4279 812.2732 470.5706 812.4692 471.5795 812.7946 472.7143 813.3129 473.4703 813.3779 473.6594 812.285 476.1219 812.0917 476.3746 813.8391 477.885 815.0921 489.9945 815.6748 490.6241 816.9187 498.3808 816.9836 498.5069 817.3144 502.165 817.3158 502.8589 817.3169 503.3636 817.3172 503.4898 817.3178 503.8052 817.9702 506.7687 814.2441 516.6806 816.0725 525.8239 818.5365 530.0454 818.6014 530.1714 821.4057 542.4669 820.337 556.4106 820.2728 556.5999 819.3074 558.3683 811.4886 588.6646 808.3342 594.2855 804.4007 598.2047 802.724 599.8483 798.5305 603.0741 799.581 611.0835 796.868 611.5937 796.9316 611.0889 796.6079 610.7741 792.3466 612.5491 782.7289 617.8673 775.821 621.1613 762.9694 625.2869 757.4822 628.1994 757.4176 628.1995 755.6079 628.0768 744.6806 625.0066 743.3123 619.2055 734.589 619.5373 732.1201 612.6027 724.9477 612.8684 724.8831 612.8685 720.0919 607.8937 714.5362 608.787 714.3422 608.7243 710.6379 597.376 710.573 597.25 703.195 590.9549 700.9721 576.7651 700.9073 576.7022 700.9072 576.6391 698.5061 570.9659 698.3766 570.7769 698.2469 570.5248 695.6574 567.8168 695.5928 567.8169 693.3246 564.099 693.3245 564.0359 696.6078 557.4694 695.4336 551.2893 695.3041 551.1634 694.7877 551.4166 694.6585 551.4169 694.14 550.5346 693.8808 550.0935 693.6863 549.7153 691.2886 545.8084 691.1591 545.6194 691.085 540.3836 690.6966 539.9427 686.9526 541.8418 681.4554 538.7603 675.386 540.9156 668.2038 534.8719 667.2276 530.7732 659.0205 529.6516 649.0654 526.3879 639.8279 527.097 639.7631 526.971 639.6335 526.7819 639.4391 526.4037 638.5341 526.0898 638.0172 526.0907 628.3932 527.5572 628.0702 527.5577 613.9208 527.2648 604.4769 520.088 604.4761 519.5833 600.0774 516.0575 603.2174 499.9033 603.3916 487.4756 599.8964 483.1913 599.5094 483.5704 589.5741 491.9756 583.3754 493.9405 577.4897 489.3442 573.419 488.7825 573.2898 488.7827 568.0569 488.6011 564.795 510.622 565.639 513.3964 562.6786 521.1599 538.4566 524.79 530.1238 525.8108 520.4175 514.6582 513.8237 511.5759 508.5904 511.3305 496.3752 507.4982 489.0689 502.7763 492.2274 497.4102 492.6143 496.8419 503.0632 484.338 510.1587 476.5695 516.4214 474.1009 520.4044 458.0724 524.1402 450.3081 524.3338 450.1186 531.8092 437.681 532.0665 436.9236 537.5475 430.2923 537.6765 430.166 534.5659 422.9157 537.9843 419.5045 536.1018 412.8202 535.9076 412.5051 532.7941 403.1099 532.3324 396.2344 527.7941 383.8132 527.7798 373.5937 520.3997 360.6085 520.3349 360.4824 519.623 359.3479 519.5582 359.2218 516.8288 346.6718 517.404 342.3183 517.4035 341.9398 518.1027 333.8011 518.0378 333.6119 519.1884 325.031 515.6857 313.4914 519.8759 308.4391 530.5869 302.8732 551.4496 307.3862 555.5807 306.3709 556.1614 306.1178 559.7765 305.5448 563.34 313.6775 566.702 316.5744 566.7669 316.7636 572.1323 320.6669 573.87 316.8793 573.9343 316.69 578.9486 302.0472 579.078 302.1731 585.8043 309.3546 587.2332 314.7145 586.4713 323.1058 592.0358 330.352 592.0516 340.4453 593.5396 342.2094 600.951 332.7986 610.6406 334.8653 610.7695 334.7389 610.8727 318.5894 614.2144 308.6169 617.4416 307.7917 623.6558 317.1813 626.6828 312.3821 632.2302 308.9036 636.7551 311.8611 651.7452 317.3878 651.7453 317.4508 646.2033 324.0838 651.3831 332.213 648.2928 337.7064 654.4311 339.7779 651.7332 348.1726 652.0002 353.2819 656.5232 354.7252 656.7172 354.8511 653.4391 363.8775 657.6456 368.9802 656.3102 381.0945 660.6481 387.3325 661.1029 388.9088 666.8377 381.329 667.6702 377.2903 666.6002 356.2853 656.2515 346.9033 662.4512 347.0821 666.7049 342.2805 664.6306 337.7421 672.1715 329.5283 675.7935 332.8655 682.4395 329.889 690.2012 337.0039 694.3257 332.3915 697.3658 335.1617 701.3543 326.8907 701.1772 335.975 695.379 343.4292 694.2238 347.4055 696.6286 355.8545 695.0888 361.4086 697.2459 375.6616 705.7821 381.8285 713.3938 376.9573 710.9273 370.2749 713.7655 368.5034 722.743 368.8655 739.069 362.1482 754.5605 358.2706 765.7967 357.9965 Z">
      <title>
        中壢區 Zhongli District
      </title>
    </path>
    <path d="M 923.78 286.6252 927.2215 294.6919 937.5516 294.3521 943.937 291.4981 952.3372 294.0643 962.944 301.104 963.1385 301.419 964.3769 306.0211 969.803 306.8909 970.1903 306.8269 972.6451 307.2625 972.9684 307.4509 987.3689 307.9199 987.8212 308.0449 992.4208 313.9002 990.9542 321.0954 993.2859 323.8652 987.9376 328.2945 989.4397 334.8515 989.5046 334.9775 991.5796 338.3157 1003.2045 338.7911 1001.9396 349.0769 1002.0045 349.2029 1010.0342 357.6357 1007.0816 364.5194 1007.0822 364.7717 1007.8258 377.5128 1002.8878 390.8991 1002.5655 391.1523 1000.1278 397.5299 997.0962 399.0516 996.9034 399.4305 996.7749 399.6832 995.4879 401.5159 992.9111 404.1088 985.5518 405.515 982.532 411.7048 983.9632 415.7386 983.1248 416.2453 982.6087 416.4989 981.772 417.6365 981.5146 418.0157 980.2375 423.8225 980.6919 424.7046 980.6935 425.3354 980.4363 425.7777 977.8631 429.8845 980.1361 434.7363 990.5752 450.292 995.4759 446.9993 1002.8019 457.3896 995.2562 462.0138 999.3368 466.2932 995.99 471.0329 985.2178 477.179 986.134 481.7818 986.1989 481.9078 984.2646 483.3636 984.2683 484.8145 983.3628 484.3752 982.1336 483.6843 981.6805 483.3069 980.6461 482.9941 979.9353 482.9327 979.2903 483.3128 978.5153 483.3779 977.6759 483.5692 976.3856 484.2032 976.064 484.7717 976.3892 485.6541 975.031 485.0266 975.7349 482.3754 975.6691 481.8709 973.8547 479.6674 972.0426 478.3471 971.7192 478.1587 971.2667 478.0336 970.5657 481.8834 969.8605 484.03 969.6667 484.0305 969.2772 483.2744 967.0813 483.4691 966.8877 483.5326 965.8467 480.5702 965.6529 480.5707 959.8414 481.5311 959.6485 481.9101 955.9606 479.5849 950.8577 479.7865 950.4688 479.2197 947.0404 477.3354 946.8455 476.8943 947.2867 472.4143 947.415 472.0355 947.7985 470.3944 947.3454 470.017 946.7636 469.8291 942.7604 470.5957 942.3102 471.4168 942.2458 471.4801 941.1506 472.6813 941.0863 472.8076 940.6358 473.5026 940.5074 473.8183 940.1215 474.5131 939.8 475.1448 939.7374 475.965 937.5383 474.8347 936.892 474.7101 934.8892 474.5887 934.308 474.6531 933.6637 475.3486 932.9555 476.3596 932.6979 476.6756 924.4193 472.5315 924.1605 472.3429 924.0956 472.2169 923.9659 472.0279 925.3045 464.5178 925.5617 464.0126 927.2965 460.1604 921.9312 458.5328 918.6356 458.0358 916.2603 464.2235 916.1961 464.4129 913.8751 466.3108 913.5519 466.1854 906.9609 465.3174 904.5799 469.171 903.8823 474.7239 902.7298 479.0793 902.9256 479.9621 902.9905 480.0881 902.4751 480.657 902.2821 481.036 902.2824 481.1621 902.3498 482.3606 901.9019 484.191 901.3875 485.2015 899.212 494.1644 899.2767 494.2273 899.4064 494.4162 899.6654 494.668 899.795 494.8569 900.1189 495.2347 900.1836 495.2976 900.4428 495.6125 900.5723 495.7383 900.7018 495.8642 900.7667 495.9902 901.2201 496.4939 902.5189 499.3927 903.6292 504.5631 903.6298 504.8154 903.7082 510.682 903.7095 511.2497 903.7787 513.2052 903.7142 513.2684 903.3281 513.9001 903.0702 514.1531 902.941 514.1533 901.3891 513.5261 901.1951 513.4634 899.32 512.7738 898.0919 512.5242 897.8981 512.5247 894.8602 511.9007 894.4077 511.7756 893.9555 511.7766 892.1466 511.7807 891.9523 511.5919 891.8212 510.7721 891.6903 510.0154 891.6254 509.8894 891.5597 509.448 891.4941 509.0065 887.8021 504.8513 887.2191 504.1587 883.8541 501.706 881.5641 489.0313 881.4986 488.653 880.4556 484.5549 871.2206 485.774 870.1794 482.4328 870.0497 482.1808 864.2828 474.3711 862.4625 469.2022 862.5264 468.8867 863.941 465.9817 864.0052 465.7923 864.1968 464.8457 864.1961 464.5302 865.2233 461.6892 865.3519 461.4366 863.7862 454.5639 866.5546 450.4574 865.0533 443.5215 864.9882 443.2693 866.2766 441.7525 866.7925 441.3728 867.0503 441.1199 867.1793 441.0566 867.5655 440.4249 867.8228 439.9827 867.8872 439.8564 868.0161 439.73 868.8508 437.5202 868.8492 436.8263 867.4201 433.2337 867.0308 432.4775 866.9014 432.3516 866.3852 432.6051 865.5464 432.9855 853.9995 439.7606 853.8706 439.887 853.8062 439.9503 853.6128 440.1399 851.9379 442.1622 851.809 442.2887 847.618 445.7042 841.9517 453.9173 841.3712 454.297 840.3395 455.1193 839.8237 455.562 836.728 457.8396 835.8251 458.4723 833.4387 460.1806 830.4053 461.3856 830.0182 461.5757 829.9536 461.5758 828.1483 463.1567 827.6971 463.5993 819.3791 470.6189 818.4113 471.1887 812.285 476.1219 813.3779 473.6594 813.3129 473.4703 812.7946 472.7143 812.4692 471.5795 812.2732 470.5706 811.2352 468.4279 810.9757 467.9237 808.7051 463.3233 809.1565 462.9439 808.0483 458.1518 807.9179 457.5843 807.262 452.8544 802.7796 440.6884 801.1477 432.4909 814.6295 424.0731 822.4452 424.2461 825.679 426.258 825.7436 426.2579 833.9351 420.9416 838.9789 423.6435 842.155 428.7465 842.2835 428.4308 842.6683 427.1683 844.4011 422.1179 842.7731 416.0653 846.2355 404.5136 856.7319 390.4863 860.1515 388.9649 850.8654 366.0857 842.5657 350.8372 839.4381 338.101 839.2431 337.5337 836.2019 334.7014 834.2391 322.9089 834.1739 322.6567 834.1731 322.2782 834.3663 322.0255 844.4271 316.2634 843.5731 309.6414 849.321 310.1337 854.6705 305.6432 851.9353 295.1772 857.1642 294.6612 871.1006 290.0255 872.2147 297.2777 874.9368 301.7506 878.8732 300.7325 881.2783 307.7294 885.2808 307.342 888.6929 302.9184 895.0141 300.0653 900.2945 293.9342 906.0298 289.1267 923.78 286.6252 Z">
      <title>
        桃園區 Taoyuan District
      </title>
    </path>
    <path d="M 767.4316 13.9975 768.5427 21.0607 779.474 34.1606 780.9864 48.0361 781.1172 48.8559 784.0633 69.5415 784.128 69.6045 784.1934 70.0459 784.3235 70.5503 787.5618 76.2214 787.6913 76.4104 791.7725 83.9722 791.7732 84.2877 792.6185 87.3771 792.7485 87.8184 793.2701 90.4038 793.4004 90.9713 794.3739 93.6188 795.4762 96.1399 807.1113 104.9479 811.84 113.1391 812.4871 113.9579 812.9399 114.4616 816.4494 125.8725 822.4002 131.9792 832.4749 134.7968 833.121 135.1108 837.5821 138.571 837.6469 138.697 838.5054 147.59 832.5242 157.5069 832.0091 158.0757 816.401 163.786 816.4013 163.9121 812.8037 171.9312 806.9414 177.4947 807.0064 177.6838 807.7896 181.7827 792.8402 194.493 792.518 194.7459 785.3625 199.5547 778.6408 195.5307 771.6744 198.1309 769.8114 202.6135 775.5082 210.5509 775.5084 210.677 768.4102 212.0788 759.3176 216.954 761.0078 222.8806 761.1373 223.0696 767.744 233.9702 762.0084 239.0911 765.5005 242.0493 765.7593 242.3011 757.5687 246.6067 752.7876 244.7865 743.8881 249.8502 734.2832 257.5645 736.8856 267.9053 736.8213 268.0316 736.7571 268.221 736.6281 268.2843 728.9593 275.8056 728.7659 275.9952 727.4126 277.3225 728.534 289.811 723.3746 293.0378 721.8302 295.8163 721.8951 296.0054 729.4577 300.2181 729.587 300.2809 736.1259 309.2896 736.3849 309.6677 739.8266 319.7546 740.2144 319.9431 743.2525 321.5775 754.0013 336.634 756.7894 342.3692 756.8541 342.4322 761.7071 347.3433 765.7967 357.9965 754.5605 358.2706 739.069 362.1482 722.743 368.8655 713.7655 368.5034 710.9273 370.2749 713.3938 376.9573 705.7821 381.8285 697.2459 375.6616 695.0888 361.4086 696.6286 355.8545 694.2238 347.4055 695.379 343.4292 701.1772 335.975 701.3543 326.8907 697.3658 335.1617 694.3257 332.3915 690.2012 337.0039 682.4395 329.889 675.7935 332.8655 672.1715 329.5283 664.6306 337.7421 666.7049 342.2805 662.4512 347.0821 656.2515 346.9033 666.6002 356.2853 667.6702 377.2903 666.8377 381.329 661.1029 388.9088 660.6481 387.3325 656.3102 381.0945 657.6456 368.9802 653.4391 363.8775 656.7172 354.8511 656.5232 354.7252 652.0002 353.2819 651.7332 348.1726 654.4311 339.7779 648.2928 337.7064 651.3831 332.213 646.2033 324.0838 651.7453 317.4508 651.7452 317.3878 636.7551 311.8611 632.2302 308.9036 626.6828 312.3821 623.6558 317.1813 617.4416 307.7917 614.2144 308.6169 610.8727 318.5894 610.7695 334.7389 610.6406 334.8653 600.951 332.7986 593.5396 342.2094 592.0516 340.4453 592.0358 330.352 586.4713 323.1058 587.2332 314.7145 585.8043 309.3546 579.078 302.1731 578.9486 302.0472 573.9343 316.69 573.87 316.8793 572.1323 320.6669 566.7669 316.7636 566.702 316.5744 563.34 313.6775 559.7765 305.5448 556.1614 306.1178 555.5807 306.3709 551.4496 307.3862 530.5869 302.8732 519.8759 308.4391 519.6747 302.9511 508.6256 297.2883 508.8188 296.9095 516.295 286.8063 516.3594 286.68 528.9864 266.5393 534.9713 252.7158 534.9067 252.6528 520.2403 244.7873 515.7772 238.6111 518.3464 228.9559 510.6584 224.8657 508.2642 220.7053 508.0701 220.3901 506.7111 217.9317 506.5818 217.7426 504.3828 214.7174 504.1241 214.3393 501.5993 208.9804 503.7853 202.3538 502.2321 199.454 501.9733 199.0127 499.5786 194.2846 499.5136 193.9062 499.7572 182.9293 505.8817 177.1176 504.3238 170.6221 497.9902 164.6373 490.3605 154.6168 494.7424 149.0598 499.4529 148.1075 500.5392 139.8422 498.9738 127.5429 514.8427 121.466 526.4524 116.0252 536.3804 108.2523 542.2515 106.9194 548.1173 101.9906 555.5304 96.0502 583.0767 89.1337 586.5545 84.5864 591.2012 84.7055 608.1507 70.3594 620.3444 68.5738 621.7551 63.0833 626.6557 60.8044 631.6904 61.6164 639.8125 56.4303 646.1981 54.7795 651.9343 50.7326 661.0285 48.194 662.8933 44.4689 676.241 39.0839 686.0476 38.2467 700.4903 32.1019 708.1667 30.9526 712.8066 27.79 732.9978 25.1031 742.1626 26.2845 740.9054 10.2005 742.2465 3.0694 747.4141 6.0876 748.9138 14.0964 753.6942 16.9891 767.4316 13.9975 Z">
      <title>
        大園區 Dayuan District
      </title>
    </path>
    <path d="M 530.1238 525.8108 538.4566 524.79 562.6786 521.1599 563.6704 536.4878 567.3113 551.7487 567.4411 552.19 570.9378 557.2947 571.0672 557.4207 576.2415 561.0088 577.0289 568.9561 583.2414 575.1921 584.8067 584.7154 588.5067 595.6232 591.3568 600.0978 596.7475 617.5637 595.47 627.1543 592.5703 632.5208 592.5111 635.9905 596.3351 643.113 595.5674 648.1609 597.7156 658.0617 596.961 671.4365 596.9615 671.7519 597.0987 676.8614 595.0443 685.6962 591.822 691.694 591.7073 701.1567 589.1293 705.8918 589.2676 711.7584 586.8914 721.7922 582.3128 728.8013 585.1092 739.8366 568.6951 743.0782 568.566 743.2045 564.116 750.1501 565.4777 752.9869 559.3542 764.9815 556.6415 766.6887 557.1131 779.7462 559.4531 788.3852 559.5826 788.5112 559.012 796.2082 552.6102 795.208 552.4162 795.2083 543.1073 795.726 536.5719 791.6978 529.7819 790.3823 514.3328 792.0433 508.8296 786.1207 508.7631 784.733 508.6979 784.2915 508.5029 783.5347 508.2437 783.0304 508.1139 782.6521 507.9841 782.2737 507.9193 782.2107 507.8544 781.9585 507.8537 781.4538 507.9174 780.7598 507.1394 779.1207 506.8804 778.8056 506.4919 778.3645 506.2978 778.2386 505.6502 777.3563 505.456 777.1673 505.2611 776.4737 505.0664 775.9062 504.6777 775.2758 504.2892 774.7717 503.9653 774.3305 503.7052 773.1954 503.5749 772.4385 503.1857 771.4297 503.0562 771.2406 502.6679 770.9257 502.3437 770.2322 502.0844 769.6648 501.5666 769.1608 500.4674 769.0361 499.757 769.5416 499.3052 770.11 499.1116 770.3626 498.9179 770.5521 498.4657 770.805 498.2718 770.8052 497.7546 770.8059 497.3019 770.6803 497.0431 770.5545 496.5256 770.3028 496.0728 770.051 495.6849 770.0515 495.4264 770.115 494.8449 770.368 493.8109 770.6217 493.617 770.6219 492.712 770.6862 492.4534 770.6865 492.0656 770.7501 491.2896 770.5618 490.8363 769.9315 490.3188 769.6799 489.7366 769.3652 489.154 768.7982 488.7657 768.4832 488.119 768.2948 487.925 768.232 487.6664 768.2323 487.4078 768.2326 487.2786 768.2328 486.8262 768.3595 485.7923 768.6762 485.3401 768.9922 484.8879 769.182 484.5002 769.3718 484.1123 769.3723 483.9831 769.3724 483.7889 769.1834 483.4646 768.3637 483.2699 767.7331 483.0757 767.5441 482.5584 767.4817 481.4595 767.4831 481.0715 767.4205 480.4252 767.5474 480.1021 767.674 479.5852 767.8639 478.81 768.3064 478.2287 768.6857 477.5825 768.9388 476.225 768.9405 475.7078 768.9411 474.5443 769.0687 473.9625 769.0694 473.8332 769.0696 473.0572 768.8813 472.7986 768.8185 472.0877 769.0086 471.8939 769.135 471.7004 769.4507 471.7005 769.5768 471.7656 769.8922 471.7658 770.0814 471.6368 770.3339 470.8615 770.7134 470.2798 770.7771 470.0859 770.7774 469.8273 770.7777 469.6979 770.7148 469.5685 770.6518 468.9858 769.8956 468.2737 769.1394 468.0796 768.9504 467.7559 768.6354 467.6266 768.5725 467.1091 768.3207 466.9148 768.0686 466.5268 767.943 465.8796 767.376 465.6209 767.2501 465.2328 767.0613 463.8741 766.1167 462.9687 765.8024 462.4513 765.6769 461.8694 765.5514 461.4814 765.4888 461.3521 765.4889 460.9001 765.868 460.7711 766.1204 459.9963 766.8784 459.673 766.8788 458.7672 766.1859 457.9908 765.6822 456.2439 764.4857 455.8558 764.2969 454.4977 763.7938 453.9804 763.7313 453.4634 763.8581 452.6239 764.6161 452.2365 764.995 450.6856 765.5015 449.5227 766.0706 449.006 766.5128 448.8123 766.7023 447.9083 767.5865 447.7146 767.776 446.811 768.9756 446.682 769.2281 446.231 770.5533 446.1666 770.7427 446.2967 771.3733 446.1684 772.2567 446.0394 772.5091 445.5875 773.0143 445.0061 773.3935 444.6187 773.8355 444.2958 774.0882 443.7795 774.8458 443.7155 775.3506 443.651 775.5399 443.587 776.0446 443.6525 776.8015 443.6537 777.8109 442.6835 777.3704 442.1662 777.2448 441.5841 777.0563 441.0667 776.8676 440.8728 776.8678 439.8379 776.4274 439.5144 776.2385 438.9317 775.4822 438.7371 774.8516 438.5425 774.3472 438.4129 774.0319 437.9595 773.2754 437.6359 772.9604 437.1184 772.7086 436.601 772.5199 435.9542 772.2683 435.1784 772.2061 434.0795 772.2705 433.4977 772.2711 432.7863 772.0196 431.9454 771.5789 431.4926 771.3902 429.6179 771.4554 428.4545 771.6459 428.1314 771.7725 427.2271 772.4043 427.0332 772.4676 425.8692 772.0904 425.351 771.2078 424.4452 770.578 423.6688 770.0111 422.8271 768.8134 420.9521 768.6262 420.629 768.7527 420.0478 769.258 419.7892 769.2583 419.2075 769.322 417.9148 769.5758 417.7208 769.5129 416.9449 769.3876 414.9416 770.0206 414.3603 770.4628 414.1665 770.5892 413.7143 770.9682 411.6463 771.5381 410.0303 771.7291 409.6424 771.6664 408.478 771.0368 407.5079 770.6594 406.732 770.534 405.7625 770.6612 404.9222 770.7252 404.5989 770.6624 403.4344 769.9067 402.8523 769.655 402.2057 769.5295 400.4601 769.4051 399.2962 769.0909 398.8433 768.776 398.3904 768.398 397.9376 768.1461 397.5495 767.9572 396.8382 767.7687 395.739 767.5175 394.3811 767.2035 393.9284 767.0147 393.2816 766.7631 392.441 766.5116 392.053 766.3858 391.2769 766.0712 390.6302 765.8195 390.3716 765.8198 389.4669 766.1361 388.8852 766.2629 387.6565 765.8856 387.2683 765.5075 386.88 765.1294 386.4918 764.7513 385.9744 764.5626 384.8746 763.8067 383.3874 763.4297 382.741 763.4934 382.0948 763.6833 380.9957 763.5583 380.4786 763.6219 380.1553 763.5591 379.7024 763.181 379.6376 763.0549 378.6022 761.9836 378.4728 761.8575 377.6316 761.1014 376.2727 759.7149 375.6905 759.3369 375.0436 758.8329 374.9142 758.7069 374.2026 758.266 373.6205 757.8881 373.0383 757.5101 372.8442 757.3841 371.8737 756.5019 371.4207 756.0608 370.3212 755.4941 369.0924 754.9276 367.7339 753.9195 367.4104 753.6044 366.7635 753.1635 366.5048 752.9745 365.9873 752.6596 365.1467 752.4711 364.9529 752.5975 364.4359 752.7241 363.9834 752.7246 363.5954 752.5988 363.4654 751.8419 363.9171 751.0214 364.4983 750.4531 365.3382 749.9476 367.0176 748.5582 367.4698 748.3054 367.9218 747.7372 367.9214 747.3587 367.4684 746.9176 367.2097 746.7286 367.2095 746.5393 367.3384 746.1607 367.6614 745.9081 368.1781 745.466 368.6302 745.087 369.0178 744.8343 369.3407 744.4555 369.6635 744.0767 370.1152 743.2562 370.3731 742.6251 370.6311 742.0571 370.8889 741.2999 371.0175 740.6058 371.792 739.3434 372.2435 738.3967 372.8232 736.3144 372.8874 735.8728 372.7578 735.4944 372.6282 735.2422 372.3682 733.7285 372.3033 733.4762 371.9136 731.6472 371.9115 729.5023 371.9758 729.1869 371.9101 728.1145 371.8451 727.7992 371.457 727.5472 371.2631 727.4843 371.0042 727.1691 370.6155 726.3494 370.6154 726.2233 370.4854 725.4664 370.3557 725.0249 370.0321 724.6468 369.9026 724.4576 369.7082 723.8901 369.5782 723.1963 369.4486 722.881 369.3834 722.3133 369.5122 721.8716 369.5767 721.6823 369.9642 721.3665 370.1573 720.5462 369.7041 719.7897 369.5099 719.4745 369.1215 718.9071 368.8626 718.5288 368.28 717.6462 367.8915 717.0158 367.8266 716.7635 367.438 716.0069 367.179 715.5025 367.1144 715.5025 366.7912 715.5028 365.3697 716.0089 362.2036 717.2735 361.9452 717.4 360.4592 718.0953 359.8778 718.4112 359.4255 718.6009 358.0687 719.233 357.0995 719.6124 356.4534 719.8654 354.7087 720.4348 353.287 720.8146 352.5761 721.0045 351.5421 721.1947 350.9605 721.3845 350.379 721.5743 349.6683 721.8903 349.3452 722.0168 347.6006 722.7123 347.4068 722.8386 346.1791 723.2813 345.339 723.5344 344.822 723.6611 343.8526 723.8512 342.4955 724.1678 341.8491 724.2315 341.4614 724.2949 340.7505 724.4217 340.3627 724.5483 339.9103 724.6117 338.7471 724.8651 338.1008 724.9919 337.5191 725.0555 337.3252 725.1187 336.8729 725.2453 335.968 725.3723 333.9002 726.0049 333.4478 726.1315 333.1247 726.2579 332.1554 726.5111 331.0568 726.8275 328.4071 727.3975 327.6961 727.5243 325.5635 728.0939 324.4002 728.3472 323.8186 728.4739 322.9785 728.6639 322.3968 728.7274 321.7505 728.8542 320.5225 729.0444 319.747 729.2343 319.1006 729.2349 318.5835 729.2353 318.1956 729.2357 317.42 729.2994 316.5797 729.3632 315.8687 729.3638 315.4161 729.1749 315.2867 729.1119 315.0278 728.7336 314.7042 728.2292 314.0569 727.1574 313.8628 726.9052 312.3742 724.6985 311.0157 723.3749 309.9808 722.6188 309.2695 722.3039 308.235 721.8632 306.877 721.1704 305.2604 720.4778 304.8725 720.3519 302.6741 719.5336 302.2862 719.4078 302.0273 718.9664 301.7034 718.0835 300.2797 716.066 299.5036 715.5619 299.1156 715.3099 298.2753 715.2475 297.952 715.1846 297.3055 714.9328 296.3355 714.4289 295.6886 713.7355 295.4298 713.4834 295.1711 713.2943 294.2011 712.6643 293.813 712.4122 293.0371 712.0344 292.8431 711.9714 291.7439 711.4045 290.4512 711.5317 289.4171 711.5956 288.5769 711.7224 287.8017 712.2907 286.2513 713.3643 285.8635 713.4908 285.2173 713.6174 284.0535 713.2398 283.4715 712.9249 282.8897 712.7991 281.5322 712.674 281.2736 712.6111 277.8479 712.6136 277.46 712.6139 274.228 712.3009 274.0339 712.1118 272.6107 710.5358 271.0593 710.2845 270.1543 710.2221 268.8614 710.0338 267.7623 709.593 266.4044 708.9001 265.1115 708.7117 264.9823 708.7118 264.336 708.9015 263.2375 709.2177 261.7512 709.7865 260.8463 709.7241 259.8766 709.5355 258.0024 709.9784 257.7439 710.0416 257.2247 707.014 257.2243 706.3832 256.9644 704.4909 254.894 701.5274 252.9542 700.4563 252.3074 699.8259 250.6264 699.0701 249.8505 698.7552 248.5575 698.2514 248.105 698.2517 247.6529 698.6935 247.0066 698.7571 245.7784 698.5055 244.8085 698.0015 243.7742 697.7499 243.3217 697.624 242.352 697.4354 240.0895 696.9953 239.5724 696.8694 238.0855 696.4919 237.3743 696.1139 236.2106 695.6099 235.6287 695.358 235.1114 695.106 234.6588 694.7909 234.2709 694.6019 232.0731 694.2878 231.6209 694.6666 230.4583 695.8659 226.9038 696.4989 226.7744 696.3729 225.4161 694.6705 225.222 694.3552 224.9633 694.103 224.5753 693.7878 224.1227 693.5988 223.3469 693.2839 222.1185 692.78 221.8599 692.654 220.5667 691.7085 218.7559 690.0063 218.7558 689.8171 218.9494 689.3123 219.3369 688.8705 220.0475 688.2392 220.3058 687.8606 221.4687 687.0398 222.8254 686.0927 222.9546 686.0296 223.1483 685.7771 223.1479 685.0832 223.2118 683.8846 223.2762 683.443 223.1462 682.3706 222.4343 680.8571 221.9813 679.9111 221.7224 679.2173 221.3987 678.3975 220.881 677.3253 220.5571 676.127 220.4924 676.0008 220.298 675.1809 220.2977 674.6131 220.2972 673.8561 220.5548 672.4051 221.0018 663.5101 221.7117 661.8695 221.9052 661.3016 222.3569 660.1028 222.615 659.4718 223.0667 658.3991 223.4542 657.8942 224.1644 656.8214 224.7457 656.1902 225.0682 655.1806 225.3259 653.8557 225.3903 653.4772 225.713 652.8462 226.2939 651.6472 226.552 650.9532 226.8101 650.3222 226.8742 649.439 227.0029 648.6819 227.1315 647.5463 227.2603 646.9154 227.3893 646.4737 227.7119 645.6535 228.1635 644.4546 228.1634 644.2023 227.1938 643.8875 226.9353 643.8245 226.1596 643.5096 226.0303 643.4466 226.0945 642.8788 226.2883 642.7525 226.6112 642.3107 226.8694 641.8059 227.1923 641.4272 227.3859 641.0486 227.6437 639.976 227.6432 639.0929 227.6426 638.1466 227.7063 636.6957 227.835 635.9386 227.9641 635.6231 228.0932 635.4338 228.2222 634.9921 228.2866 634.7397 228.1558 632.1534 228.0261 631.5226 227.6378 630.5766 227.4438 630.4506 227.3144 630.1353 226.9264 629.757 226.4089 629.0003 225.6329 628.1176 224.9862 627.4241 224.4685 626.2258 224.2096 625.5321 223.9507 624.9645 223.562 623.3877 223.4323 622.6938 223.4322 622.3784 223.3669 621.306 222.7845 620.1078 222.2667 618.7834 222.0724 618.0265 222.0075 617.5219 221.4898 616.3236 221.2305 614.999 221.1006 613.9897 220.5831 613.17 220.26 613.1071 219.355 612.666 219.0965 612.54 218.9019 611.3416 218.9664 611.1523 219.2246 610.7736 219.7409 609.5747 219.87 609.3854 220.128 608.6913 220.5798 607.6817 220.837 605.6629 220.7723 605.5999 220.5784 605.4738 219.9967 605.2849 219.4149 604.9699 218.9622 604.3393 218.9619 603.7716 218.9618 603.5823 219.801 602.2571 219.93 601.9416 220.0589 601.3107 220.1234 601.1214 220.3166 600.1119 220.5748 599.6071 220.7682 598.85 221.0909 598.219 221.4136 597.651 221.4781 597.3986 220.9594 594.6233 220.8299 594.1187 220.8942 593.5509 220.8932 592.0369 229.0956 585.7236 236.9779 584.3939 246.2836 585.7756 256.4276 584.7594 258.1626 571.1323 257.4467 563.8782 264.8109 561.5389 274.1072 551.1235 274.2364 551.0603 283.9961 555.532 287.9372 555.2766 288.1956 555.2764 293.4257 551.0458 299.6299 552.9965 300.0825 553.3746 302.7983 555.9589 300.2096 550.725 299.1681 541.2003 300.7154 537.2248 301.1027 536.7829 304.2649 532.4276 311.1115 530.2772 322.3582 536.0084 323.9741 536.8271 324.4911 537.0159 328.3679 537.2649 328.6905 536.7599 329.9164 534.9925 339.9972 537.1284 346.0109 542.5482 352.4821 553.3926 362.8951 564.2962 374.1351 561.6989 376.4652 565.7339 376.5299 565.797 381.1126 561.1243 382.8498 553.931 387.0471 551.5927 387.1759 551.2141 393.9598 551.0179 394.1543 551.5855 397.3858 552.5284 397.7087 552.3388 403.3258 548.6741 403.52 548.9893 405.6556 552.1412 413.4731 551.8174 414.4965 542.4169 420.1141 539.3828 425.0274 542.0269 444.9988 548.1234 455.7904 549.5617 469.2415 559.2604 478.2894 561.0788 484.803 551.482 485.0609 551.1032 489.575 544.4106 495.5126 539.4195 495.8351 539.0406 498.158 536.7666 499.1906 535.8821 502.2888 533.6071 503.1283 533.3537 508.6151 529.7508 530.1238 525.8108 Z">
      <title>
        楊梅區 Yangmei District
      </title>
    </path>
    <path d="M 489.0689 502.7763 496.3752 507.4982 508.5904 511.3305 513.8237 511.5759 520.4175 514.6582 530.1238 525.8108 508.6151 529.7508 503.1283 533.3537 502.2888 533.6071 499.1906 535.8821 498.158 536.7666 495.8351 539.0406 495.5126 539.4195 489.575 544.4106 485.0609 551.1032 484.803 551.482 478.2894 561.0788 469.2415 559.2604 455.7904 549.5617 444.9988 548.1234 425.0274 542.0269 420.1141 539.3828 414.4965 542.4169 413.4731 551.8174 405.6556 552.1412 403.52 548.9893 403.3258 548.6741 397.7087 552.3388 397.3858 552.5284 394.1543 551.5855 393.9598 551.0179 387.1759 551.2141 387.0471 551.5927 382.8498 553.931 381.1126 561.1243 376.5299 565.797 376.4652 565.7339 374.1351 561.6989 362.8951 564.2962 352.4821 553.3926 346.0109 542.5482 339.9972 537.1284 329.9164 534.9925 328.6905 536.7599 328.3679 537.2649 324.4911 537.0159 323.9741 536.8271 322.3582 536.0084 311.1115 530.2772 304.2649 532.4276 301.1027 536.7829 300.7154 537.2248 299.1681 541.2003 300.2096 550.725 302.7983 555.9589 300.0825 553.3746 299.6299 552.9965 293.4257 551.0458 288.1956 555.2764 287.9372 555.2766 283.9961 555.532 274.2364 551.0603 274.1072 551.1235 264.8109 561.5389 257.4467 563.8782 258.1626 571.1323 256.4276 584.7594 246.2836 585.7756 236.9779 584.3939 229.0956 585.7236 220.8932 592.0369 220.5703 592.2895 220.5057 592.3526 219.2135 592.6057 217.9856 592.2279 216.9515 591.9762 216.6931 592.0394 216.4348 592.2288 214.8843 592.7975 212.6879 593.8712 212.3648 593.8083 211.7182 593.1778 211.3303 592.7996 210.7485 592.2952 209.8435 591.7911 208.357 591.1611 207.0643 590.6572 206.6763 590.0266 205.1896 589.1442 204.0259 588.1986 202.4743 586.7486 201.5693 586.1813 200.9231 585.9925 200.1476 585.9298 198.6618 586.4353 197.5632 586.3097 196.2703 585.3011 195.753 584.6074 195.3652 584.4184 194.8482 584.2925 194.2666 584.2297 193.1034 584.0411 192.8449 583.852 192.3924 583.5368 192.1984 583.3477 191.5518 582.5279 191.2285 582.0234 191.0342 581.2666 190.9695 581.0773 190.9044 580.1311 191.0333 579.6264 191.1622 578.8693 191.0972 578.2385 190.9679 578.1124 190.1923 577.6713 189.0936 577.2302 188.5119 576.9782 188.0595 576.7261 186.5726 575.3391 186.2494 574.9607 185.9906 574.4562 185.5378 573.384 186.118 570.8604 185.7302 570.7975 184.8902 570.6718 184.3086 570.609 182.6287 570.6729 181.595 570.8627 181.0135 570.9261 180.3673 570.8002 179.6564 570.4852 179.3979 570.3591 178.7516 570.044 177.3944 569.54 175.9081 569.0361 174.6157 568.9106 173.9697 569.1632 173.1946 569.7313 172.355 570.3626 171.1277 571.1833 169.5772 571.6887 168.9953 570.9319 167.1852 568.9772 166.9913 568.8511 166.4096 568.4098 165.5693 567.7794 164.8582 566.9596 164.5347 566.2028 164.5347 566.0766 164.1461 564.1843 164.1457 563.2381 163.9516 562.7966 163.7576 562.4812 163.3052 562.166 162.3359 561.8511 161.7544 561.9775 160.2686 562.4828 159.2349 562.7356 158.9119 562.8619 158.3305 563.1145 156.5219 564.3139 155.1654 565.1346 154.6486 565.3871 154.0672 565.7028 153.3566 566.0816 152.7106 566.3342 152.0646 566.6499 149.9972 567.0293 148.5758 567.2823 146.8314 567.7246 145.5392 567.9144 142.8259 568.9248 141.7277 569.6192 141.2109 569.7455 140.1769 569.2413 139.5948 567.8537 139.2714 567.223 138.4956 566.0878 137.5263 565.7097 137.0739 565.5837 135.6526 565.9628 135.0716 567.2877 134.7488 567.9818 134.3614 568.6758 134.2323 568.8651 133.0052 570.5058 131.9074 571.9571 131.1323 572.6513 130.8739 572.9038 129.9697 573.8503 129.7113 574.1028 128.9363 575.0493 128.6782 575.8695 128.2266 577.8883 127.7104 579.6548 127.5168 580.2857 126.0307 580.4125 125.5137 580.2234 124.6735 579.8452 123.1225 579.1519 122.864 579.0889 121.8947 578.8369 121.2485 578.7109 120.6669 578.585 119.9561 578.3329 119.5684 578.27 118.6637 578.2072 118.1468 578.0812 116.4667 577.7664 113.236 577.9567 112.7191 578.0831 112.4607 578.2093 111.2978 578.7774 110.781 579.093 109.8766 579.8503 109.8121 580.0396 108.3262 580.734 108.003 580.6079 107.68 580.5449 107.0337 580.1667 106.7751 579.8513 106.5811 579.4729 105.8053 578.1484 105.1589 577.3285 104.965 577.2024 104.448 576.761 104.0602 576.5088 103.0909 576.3198 102.1218 576.5725 100.3773 576.8884 99.7312 577.0148 98.762 577.0781 98.245 576.9521 97.5988 576.7631 96.5648 576.3849 96.1124 575.9434 95.466 575.1866 95.2075 574.9974 94.8198 574.7452 94.1735 574.4931 92.9457 573.9888 92.2349 573.7366 88.6803 571.0251 88.6156 570.5835 88.4215 569.7004 88.2921 569.1327 88.1627 568.5649 87.9041 567.7449 87.4516 567.1773 87.2577 567.0512 86.6762 566.8621 86.1593 566.8622 85.5778 566.9255 84.4148 567.1781 83.8979 567.3044 83.4457 567.5569 82.9289 568.0617 82.6705 568.3141 81.5723 568.8821 81.1846 568.8822 80.3445 568.6301 79.8275 568.3148 79.5044 568.0626 79.1166 567.6842 78.018 566.7382 76.984 565.9184 76.5316 565.54 76.2085 565.3508 75.4328 564.3417 74.8512 563.6479 74.1403 563.0172 73.9464 562.828 73.1709 562.4497 72.5249 562.8284 72.0727 563.1439 71.6205 563.7117 70.6516 564.8474 70.3932 565.1629 70.1995 565.6046 69.8119 565.9831 69.2306 566.7403 68.3263 568.0652 67.8095 568.57 67.6157 568.8855 67.2281 569.264 66.453 570.2105 66.0654 570.589 65.807 570.9676 65.6132 571.22 65.2257 571.914 64.9674 572.4818 64.6444 573.0496 63.9986 574.5007 63.6757 575.2577 63.6112 575.5731 63.2883 576.3933 63.0946 577.0242 62.5781 578.9799 62.3198 579.8 61.5448 581.6296 60.6403 582.1975 58.7664 582.1348 56.3755 581.5675 55.6647 581.3784 55.0185 581.2524 54.437 581.1894 51.6583 580.1806 51.3352 579.8021 49.332 579.3609 47.8459 579.6135 47.0706 579.8029 46.166 580.2446 45.7137 580.434 45.3261 580.6864 44.5509 581.5066 42.6773 583.2101 41.6435 583.5888 40.0927 583.7783 39.4466 583.7784 38.7358 583.8416 37.7666 584.031 37.3143 584.2203 36.0221 584.8513 34.8591 585.7346 33.7608 587.0595 33.3086 587.7535 32.9211 588.826 32.5335 589.5199 32.2105 590.1508 31.7583 591.4756 31.6292 592.2326 31.694 593.3681 31.694 593.6836 32.0173 594.9452 32.082 595.3867 32.2113 596.1437 32.0176 597.4685 30.4668 597.8472 29.1099 597.8474 28.2052 597.5952 27.1712 597.2168 25.8142 596.5861 24.3278 595.3246 23.1645 593.8739 22.8414 593.4954 22.2597 592.6123 21.8073 591.7292 21.161 590.5938 20.2562 589.2691 20.0624 588.9537 19.2869 588.0706 17.2835 585.9891 16.8958 585.6106 13.4711 584.7909 6.3632 583.4667 4.3601 582.9622 4.1662 582.8991 1 582.2054 8.8822 570.6606 13.7269 555.9618 34.3347 533.1864 41.1178 529.1481 48.2236 523.4063 60.171 501.1357 62.7538 494.8268 74.8953 480.6303 81.2882 471.2924 84.3861 460.8829 84.9625 442.7147 81.0825 425.7463 80.2423 423.9802 80.3712 422.9078 82.8253 421.4562 87.4756 421.2027 87.7339 421.0133 93.9976 415.8387 99.4203 407.1316 100.4527 403.9772 102.13 397.7314 104.4497 380.8874 109.2248 368.9631 127.4364 368.5152 131.1165 365.9274 142.7343 349.8366 153.9007 337.5937 164.8784 337.0841 174.4385 343.0094 174.5676 342.9462 179.7309 337.3923 187.8045 340.4793 190.7783 346.4707 196.7838 346.152 200.7857 342.8064 212.3496 350.8115 225.2684 355.8504 225.3329 355.8504 238.7722 366.3138 243.4288 376.341 243.4935 376.5302 248.2778 384.097 250.927 386.0508 261.1279 381.4387 262.4798 375.3818 266.223 371.9095 279.4607 370.0073 287.3463 378.5807 287.6693 378.6435 296.3258 381.7279 299.1699 384.6906 299.2992 384.8166 303.5009 389.4184 312.9883 381.8406 316.8664 385.4331 321.7099 385.1767 328.0427 389.2086 339.5522 403.8969 346.3342 404.3954 355.441 404.4501 357.841 415.1089 364.1182 427.5935 373.6199 434.3973 377.6824 427.7695 385.7479 419.6868 389.4868 412.7438 397.0401 409.3926 399.0441 411.0938 408.0843 409.1918 421.4413 397.9485 422.7335 398.3887 422.8627 398.4516 427.8416 403.5558 429.5293 410.9347 430.1761 411.691 428.1142 416.046 422.4319 417.3771 423.2289 436.8059 429.1178 446.4511 427.3134 450.1751 432.4908 458.7486 435.0763 460.1966 440.7744 471.8605 446.7286 481.3162 451.0589 483.0775 460.1749 489.1858 467.7344 490.186 468.2516 490.5008 468.4455 490.6267 468.7686 490.6894 477.6994 503.2321 486.552 504.7981 489.0689 502.7763 Z">
      <title>
        新屋區 Xinwu District
      </title>
    </path>
    <path d="M 519.8759 308.4391 515.6857 313.4914 519.1884 325.031 518.0378 333.6119 518.1027 333.8011 517.4035 341.9398 517.404 342.3183 516.8288 346.6718 519.5582 359.2218 519.623 359.3479 520.3349 360.4824 520.3997 360.6085 527.7798 373.5937 527.7941 383.8132 532.3324 396.2344 532.7941 403.1099 535.9076 412.5051 536.1018 412.8202 537.9843 419.5045 534.5659 422.9157 537.6765 430.166 537.5475 430.2923 532.0665 436.9236 531.8092 437.681 524.3338 450.1186 524.1402 450.3081 520.4044 458.0724 516.4214 474.1009 510.1587 476.5695 503.0632 484.338 492.6143 496.8419 492.2274 497.4102 489.0689 502.7763 486.552 504.7981 477.6994 503.2321 468.7686 490.6894 468.4455 490.6267 468.2516 490.5008 467.7344 490.186 460.1749 489.1858 451.0589 483.0775 446.7286 481.3162 440.7744 471.8605 435.0763 460.1966 432.4908 458.7486 427.3134 450.1751 429.1178 446.4511 423.2289 436.8059 422.4319 417.3771 428.1142 416.046 430.1761 411.691 429.5293 410.9347 427.8416 403.5558 422.8627 398.4516 422.7335 398.3887 421.4413 397.9485 408.0843 409.1918 399.0441 411.0938 397.0401 409.3926 389.4868 412.7438 385.7479 419.6868 377.6824 427.7695 373.6199 434.3973 364.1182 427.5935 357.841 415.1089 355.441 404.4501 346.3342 404.3954 339.5522 403.8969 328.0427 389.2086 321.7099 385.1767 316.8664 385.4331 312.9883 381.8406 303.5009 389.4184 299.2992 384.8166 299.1699 384.6906 296.3258 381.7279 287.6693 378.6435 287.3463 378.5807 279.4607 370.0073 266.223 371.9095 262.4798 375.3818 261.1279 381.4387 250.927 386.0508 248.2778 384.097 243.4935 376.5302 243.4288 376.341 238.7722 366.3138 225.3329 355.8504 225.2684 355.8504 212.3496 350.8115 200.7857 342.8064 196.7838 346.152 190.7783 346.4707 187.8045 340.4793 179.7309 337.3923 174.5676 342.9462 174.4385 343.0094 164.8784 337.0841 153.9007 337.5937 142.7343 349.8366 131.1165 365.9274 127.4364 368.5152 109.2248 368.9631 120.9085 353.8822 125.749 346.3105 135.1052 327.445 152.1442 308.1345 157.1134 302.0763 163.6315 294.8188 170.5374 288.6964 178.7345 282.9518 186.799 270.9619 202.35 254.8672 218.4841 244.3861 225.3256 241.3539 242.6246 236.7379 245.4006 236.736 253.2111 235.0906 262.9584 233.5698 272.7676 228.5161 289.4159 218.9149 296.5787 215.3135 302.1295 214.0474 305.6716 203.9512 311.8597 193.285 319.0253 193.6575 319.8645 193.6568 323.0922 193.7802 329.221 189.6745 332.0592 187.3379 341.2174 178.6243 355.6716 173.5012 375.2848 163.9568 383.8663 160.7309 393.9319 157.2511 402.1259 154.0884 412.5773 149.5352 426.5804 146.8073 434.3241 145.3477 448.2605 141.042 459.1009 138.6951 467.3608 137.3604 476.6502 133.6271 487.6194 131.2793 498.9738 127.5429 500.5392 139.8422 499.4529 148.1075 494.7424 149.0598 490.3605 154.6168 497.9902 164.6373 504.3238 170.6221 505.8817 177.1176 499.7572 182.9293 499.5136 193.9062 499.5786 194.2846 501.9733 199.0127 502.2321 199.454 503.7853 202.3538 501.5993 208.9804 504.1241 214.3393 504.3828 214.7174 506.5818 217.7426 506.7111 217.9317 508.0701 220.3901 508.2642 220.7053 510.6584 224.8657 518.3464 228.9559 515.7772 238.6111 520.2403 244.7873 534.9067 252.6528 534.9713 252.7158 528.9864 266.5393 516.3594 286.68 516.295 286.8063 508.8188 296.9095 508.6256 297.2883 519.6747 302.9511 519.8759 308.4391 Z">
      <title>
        觀音區 Guanyin District
      </title>
    </path>
    <path d="M 796.868 611.5937 791.2074 624.2218 787.6667 630.8527 787.4732 631.0423 778.5071 639.261 785.8916 647.6995 788.676 650.3434 789.7263 658.2898 786.5696 663.2166 781.7519 677.7354 782.2728 679.6269 782.995 685.1768 783.0601 685.429 780.6268 696.6626 780.6922 697.041 780.2737 713.7589 775.4382 719.8876 772.0997 731.186 771.3655 751.9419 770.86 757.7465 764.1945 786.7778 757.8094 794.4863 753.5404 793.4221 753.5403 793.359 757.4723 787.4217 757.4719 787.2324 761.1175 767.2911 760.393 760.4795 764.0063 757.066 762.7559 745.8396 757.521 746.4174 757.3917 746.4177 751.1148 743.0863 749.2967 738.8632 742.5894 746.8875 733.0308 751.3213 731.2218 751.8924 731.0928 752.0188 730.0585 752.0207 729.929 751.8948 720.5418 744.4683 715.9996 735.2034 715.4089 730.4101 715.2792 730.2211 714.3716 728.7718 712.365 727.2615 703.5214 733.8381 694.3416 733.3498 690.6697 740.3585 691.2584 744.2055 688.9932 742.6955 685.6696 727.6875 678.3729 731.9268 665.2577 735.8604 663.1889 735.6747 663.0595 735.6118 652.8379 730.7085 652.7729 730.5194 650.2519 730.4605 650.1229 730.6499 640.7026 740.8849 640.5087 740.8853 630.2333 742.479 629.3933 742.6696 615.6951 746.3503 614.1423 745.4695 614.013 745.4697 613.0979 739.1629 615.8724 736.0043 612.6978 731.5304 612.5682 731.3414 608.1013 727.1218 608.1012 727.0587 603.6449 729.4628 599.4567 737.9855 593.5824 743.1673 585.1092 739.8366 582.3128 728.8013 586.8914 721.7922 589.2676 711.7584 589.1293 705.8918 591.7073 701.1567 591.822 691.694 595.0443 685.6962 597.0987 676.8614 596.9615 671.7519 596.961 671.4365 597.7156 658.0617 595.5674 648.1609 596.3351 643.113 592.5111 635.9905 592.5703 632.5208 595.47 627.1543 596.7475 617.5637 591.3568 600.0978 588.5067 595.6232 584.8067 584.7154 583.2414 575.1921 577.0289 568.9561 576.2415 561.0088 571.0672 557.4207 570.9378 557.2947 567.4411 552.19 567.3113 551.7487 563.6704 536.4878 562.6786 521.1599 565.639 513.3964 564.795 510.622 568.0569 488.6011 573.2898 488.7827 573.419 488.7825 577.4897 489.3442 583.3754 493.9405 589.5741 491.9756 599.5094 483.5704 599.8964 483.1913 603.3916 487.4756 603.2174 499.9033 600.0774 516.0575 604.4761 519.5833 604.4769 520.088 613.9208 527.2648 628.0702 527.5577 628.3932 527.5572 638.0172 526.0907 638.5341 526.0898 639.4391 526.4037 639.6335 526.7819 639.7631 526.971 639.8279 527.097 649.0654 526.3879 659.0205 529.6516 667.2276 530.7732 668.2038 534.8719 675.386 540.9156 681.4554 538.7603 686.9526 541.8418 690.6966 539.9427 691.085 540.3836 691.1591 545.6194 691.2886 545.8084 693.6863 549.7153 693.8808 550.0935 694.14 550.5346 694.6585 551.4169 694.7877 551.4166 695.3041 551.1634 695.4336 551.2893 696.6078 557.4694 693.3245 564.0359 693.3246 564.099 695.5928 567.8169 695.6574 567.8168 698.2469 570.5248 698.3766 570.7769 698.5061 570.9659 700.9072 576.6391 700.9073 576.7022 700.9721 576.7651 703.195 590.9549 710.573 597.25 710.6379 597.376 714.3422 608.7243 714.5362 608.787 720.0919 607.8937 724.8831 612.8685 724.9477 612.8684 732.1201 612.6027 734.589 619.5373 743.3123 619.2055 744.6806 625.0066 755.6079 628.0768 757.4176 628.1995 757.4822 628.1994 762.9694 625.2869 775.821 621.1613 782.7289 617.8673 792.3466 612.5491 796.6079 610.7741 796.9316 611.0889 796.868 611.5937 Z">
      <title>
        平鎮區 Pingzhen District
      </title>
    </path>
  </g>
</svg>
