<?xml version="1.0" encoding="UTF-8"?>
<svg xmlns="http://www.w3.org/2000/svg" baseProfile="tiny" width="1440" height="1659">
<g id="town" stroke="#000" stroke-width="1">
<path d="M 1175.1541 840.4084 1188.6658 875.3641 1188.7688 875.8502 1193.5744 885.0668 1198.3399 895.7922 1201.0162 900.1554 1205.0993 905.6777 1205.9163 908.3979 1214.0605 915.9386 1222.3639 924.8407 1227.627 927.2406 1238.6246 927.6086 1242.5208 934.981 1249.0767 936.3016 1255.3172 935.2395 1258.5492 940.3287 1266.856 949.4729 1266.6068 949.5719 1251.7711 950.9328 1238.9164 957.1958 1251.348 970.3534 1251.6489 970.4974 1243.4836 983.1543 1239.6571 986.634 1243.2061 994.3006 1246.962 995.3472 1247.7305 998.2136 1251.4977 1000.9634 1239.323 1004.4966 1236.1583 1002.1322 1231.1425 1007.274 1229.9452 1015.4089 1229.9181 1018.9617 1232.2516 1024.2028 1234.4434 1038.448 1233.5259 1051.2043 1234.6129 1064.6778 1236.5845 1068.0232 1238.4975 1077.7442 1241.1756 1082.0584 1237.285 1091.2811 1237.7803 1098.2858 1237.7812 1098.4318 1240.4454 1108.294 1237.7737 1112.7397 1238.0005 1116.8748 1232.5671 1119.586 1231.6473 1124.3125 1227.4545 1125.5557 1212.1083 1126.6259 1201.7066 1134.575 1190.3216 1137.3714 1187.0329 1139.2898 1176.6363 1140.2301 1169.7567 1143.7765 1165.4125 1152.9037 1161.9835 1172.537 1162.6507 1191.3665 1166.3933 1197.962 1169.5531 1199.3053 1177.1094 1199.794 1189.3542 1206.0447 1187.6844 1210.9703 1190.0046 1229.8868 1194.0253 1232.8304 1203.3344 1233.4536 1211.1843 1232.7717 1216.1747 1238.6776 1213.9478 1242.4875 1210.0627 1245.1885 1200.6261 1240.2837 1185.3425 1244.2721 1179.8209 1249.3188 1174.9193 1249.5438 1172.0772 1251.0699 1168.9854 1252.6949 1157.7019 1264.5411 1153.4661 1267.2922 1151.4901 1271.3922 1132.1275 1279.6366 1129.7449 1282.7656 1122.6686 1287.48 1122.0113 1294.5891 1126.0032 1300.9889 1115.679 1314.8231 1115.6569 1319.4464 1112.1606 1320.5379 1101.5966 1336.3197 1094.9658 1340.4954 1085.1595 1349.313 1081.7327 1353.7616 1078.6727 1360.982 1066.6884 1357.1101 1063.5521 1351.4345 1058.5746 1347.5215 1056.4826 1340.6718 1050.3572 1337.252 1046.1554 1329.0031 1044.7737 1323.7552 1038.9244 1316.0997 1036.6399 1310.4676 1033.3694 1307.3717 1032.4623 1306.2576 1031.0365 1301.9832 1034.7605 1296.9981 1038.4487 1294.4951 1044.2452 1293.1478 1048.6036 1294.0474 1051.0425 1291.8434 1051.7368 1290.7687 1056.5181 1286.9939 1075.548 1281.2866 1085.3322 1277.482 1092.8033 1271.7928 1094.0293 1267.649 1097.6222 1266.0705 1101.0392 1268.5322 1103.5709 1265.2079 1108.4068 1262.3566 1109.9796 1257.6753 1114.8024 1252.6827 1117.7178 1246.6794 1117.7663 1246.4358 1121.889 1241.5445 1121.6161 1229.5744 1119.7171 1213.4289 1128.0583 1211.3348 1129.0004 1209.9665 1129.2476 1209.4784 1134.5462 1200.6866 1133.2115 1195.0982 1137.3567 1185.8753 1140.2045 1177.1956 1141.9922 1175.0921 1141.147 1167.7974 1141.2849 1157.6741 1143.9002 1151.9157 1155.4171 1137.9759 1159.7672 1129.7734 1160.7911 1125.5332 1166.8535 1119.3155 1179.2912 1117.0002 1183.452 1110.6478 1184.7611 1104.1185 1187.0389 1100.5518 1186.938 1100.4064 1184.1402 1100.8131 1177.1661 1097.109 1174.0693 1089.6822 1164.1552 1087.5533 1158.5349 1076.2973 1153.2908 1069.2242 1146.0157 1065.1806 1134.8182 1065.5891 1130.8865 1068.5815 1127.0824 1067.9231 1116.8513 1062.826 1108.7232 1049.9295 1106.845 1028.7224 1108.2148 1023.7504 1107.6662 1015.7238 1104.0325 1010.0515 1104.0316 1009.9055 1104.9123 1006.737 1108.9804 1001.6029 1108.7063 997.6139 1105.7356 994.079 1105.585 993.9826 1103.3706 991.5138 1099.7593 981.2181 1091.8272 975.5226 1090.0252 966.7734 1083.7684 965.3016 1075.2421 960.4365 1071.5385 951.2117 1065.9145 946.8159 1067.3033 945.0072 1074.6464 944.3316 1074.8749 940.729 1078.9002 928.4902 1079.0989 928.2944 1082.3032 929.2489 1093.7463 928.938 1094.4082 922.6562 1097.198 921.1797 1101.3924 912.2976 1099.4943 904.1816 1101.4417 895.6535 1101.6395 895.3117 1109.5849 895.2643 1115.5054 890.9463 1115.4518 890.3626 1115.0706 885.2063 1126.0085 884.2646 1125.3225 870.1556 1131.7143 869.4843 1131.1698 862.1877 1131.1178 861.8474 1129.1566 851.688 1124.2226 845.5859 1118.9304 846.2503 1115.2029 841.3088 1113.9668 835.2329 1111.129 828.68 1105.5554 824.09 1108.8095 816.9653 1114.7876 814.1556 1116.4635 818.6228 1124.9538 818.1338 1125.0543 818.2305 1130.3953 833.7228 1132.3456 834.003 1140.718 830.5456 1142.1699 831.0234 1144.8208 839.5725 1148.5099 838.2361 1151.3032 837.489 1152.789 843.4172 1155.1941 844.5218 1175.1541 840.4084 Z" fill="#1b7837"><title>蘇澳鎮 Su&apos;ao Township</title></path>
<path d="M 986.1991 666.1283 992.0595 669.2588 995.679 673.4724 1002.1251 674.2148 1011.1072 673.0934 1011.606 672.9932 1011.656 672.9929 1020.2312 670.6082 1029.7605 669.1424 1042.816 672.912 1043.3661 673.0548 1057.5078 674.6762 1058.2571 674.7205 1065.7546 675.8934 1081.3371 676.2399 1089.2745 675.8037 1093.0749 676.6572 1093.5246 676.7032 1100.9665 676.9023 1106.4945 674.436 1110.5452 675.3851 1115.2769 673.3614 1124.3313 667.8077 1132.8598 666.1015 1134.9077 666.1864 1140.1537 666.6412 1148.1873 665.6676 1159.2001 661.9988 1161.4283 666.9491 1160.8964 669.7263 1156.0977 676.9584 1155.0651 679.5441 1154.4533 685.5338 1155.7028 709.7133 1157.0518 709.8023 1156.8254 721.5323 1158.1874 731.6952 1158.2244 745.6135 1159.6021 750.277 1159.1413 772.4717 1159.1964 773.2987 1161.382 787.3011 1168.2707 818.3564 1172.102 831.7646 1175.1541 840.4084 1155.1941 844.5218 1152.789 843.4172 1151.3032 837.489 1148.5099 838.2361 1144.8208 839.5725 1142.1699 831.0234 1140.718 830.5456 1132.3456 834.003 1130.3953 833.7228 1125.0543 818.2305 1124.9538 818.1338 1116.4635 818.6228 1114.7876 814.1556 1108.8095 816.9653 1105.5554 824.09 1100.6623 824.6058 1100.2626 824.6082 1102.32 817.8314 1102.274 810.2397 1105.1541 807.3513 1103.5145 800.5965 1100.3399 796.0894 1100.7509 789.7117 1100.7494 789.4684 1101.0241 785.3302 1101.0726 785.0865 1103.1984 781.4239 1099.3035 773.4172 1094.7027 772.5685 1089.0165 773.9649 1087.6874 777.2334 1079.6022 778.449 1074.0294 773.7611 1072.4007 768.7094 1074.2745 764.6105 1042.9176 758.2717 1036.9323 759.7661 1034.3222 757.5911 1034.1721 757.5433 1030.2886 751.1417 1025.293 751.0242 1020.7579 752.8021 1020.2643 745.213 1019.466 745.3636 1017.8393 740.4575 1017.7893 740.4578 1017.69 740.5557 1009.1529 741.2368 1009 740.7024 1007.3923 730.3943 997.4467 729.2824 992.6795 725.3672 992.5285 725.1734 992.7765 716.1201 995.094 710.8999 992.8339 708.6739 990.6917 700.8507 990.2919 700.8043 988.3628 704.0757 978.7948 690.1133 987.6294 680.5255 982.7801 679.5793 977.0043 682.58 963.2684 682.0721 956.6504 677.388 950.5159 678.7843 941.604 683.6509 941.42 677.4713 944.8776 670.6392 955.8642 661.8192 978.8067 665.7803 986.1991 666.1283 Z" fill="#1b7837"><title>五結鄉 Wujie Township</title></path>
<path d="M 1010.3429 532.1606 1007.5204 536.0699 1011.7096 544.076 1013.8458 542.3119 1014.2925 541.8714 1021.0655 539.2048 1021.8309 542.0718 1029.7525 548.0611 1032.728 553.2513 1040.8984 550.5276 1044.0726 555.5219 1047.0116 562.9508 1047.396 568.8859 1041.3181 570.965 1047.0472 577.4532 1047.648 577.7417 1045.9166 580.4283 1043.1753 581.1742 1043.0763 581.3207 1040.145 583.7223 1040.147 584.063 1040.0689 587.762 1035.7246 587.5924 1034.191 589.9859 1036.0504 592.0678 1036.913 602.9641 1039.7076 602.7533 1040.3527 610.5849 1040.4072 611.3632 1029.3304 612.5462 1026.5272 611.2969 1019.2357 619.5145 1018.5805 627.0614 1018.9278 635.284 1017.488 645.3175 1014.3244 659.4973 1016.2729 668.2948 1020.2312 670.6082 1011.656 672.9929 1011.606 672.9932 1011.1072 673.0934 1002.1251 674.2148 995.679 673.4724 992.0595 669.2588 986.1991 666.1283 988.8276 662.9504 984.3043 657.817 982.0724 651.6976 981.7207 651.3102 976.415 649.0525 968.5426 652.0648 963.6531 652.7731 963.0534 652.6791 954.8591 651.7509 954.896 649.4147 946.6999 648.1456 940.3943 645.6007 940.1946 645.6018 934.9833 642.2722 928.0719 647.5655 925.583 639.8898 924.9467 633.1286 931.8086 627.9816 925.5852 622.1267 932.5832 614.5456 933.5535 609.4304 933.652 609.1866 937.2944 608.7774 941.1178 605.0094 939.2609 603.2675 943.9258 598.2295 932.7315 596.1977 927.1781 594.0378 921.7621 589.6384 921.6116 589.4933 913.3346 582.2378 912.7829 581.7541 915.9567 577.8925 910.5378 572.8603 915.1566 568.5043 915.4051 568.3083 914.9876 565.0012 919.5061 560.597 922.5071 543.4991 925.133 539.9323 927.3308 531.1605 924.688 522.5609 921.2233 518.7836 917.5919 511.8926 917.384 501.2845 921.5759 501.2133 926.3351 504.4482 926.5849 504.4955 930.3406 506.7625 935.7358 507.6579 941.2105 513.8573 946.7756 518.3529 946.8746 518.2064 951.7397 513.5077 960.6496 509.2248 963.3565 511.3025 967.6864 509.1372 974.9844 511.092 978.3233 510.1975 982.2875 505.1627 982.3867 505.0649 984.7296 504.5651 984.9797 504.661 986.8291 505.1373 987.1801 505.4274 988.9178 512.5716 991.0338 516.015 999.0733 525.3624 999.3458 529.3515 1003.4537 531.9562 1010.3429 532.1606 Z" fill="#1b7837"><title>宜蘭市 Yilan City</title></path>
<path d="M 1109.0791 443.3526 1117.3686 444.3734 1114.5738 468.7235 1113.6935 487.9521 1113.7458 488.3411 1113.041 495.4993 1112.6161 515.7958 1112.7183 516.1845 1112.8525 529.9563 1114.0714 549.7075 1114.1736 550.0962 1115.398 562.5475 1119.0734 583.9386 1119.0764 584.4252 1119.707 589.5801 1123.844 604.7391 1128.4761 619.165 1131.9242 627.7581 1132.0764 628.1465 1135.8258 636.981 1146.4367 657.1617 1151.4012 660.538 1159.2001 661.9988 1148.1873 665.6676 1140.1537 666.6412 1134.9077 666.1864 1132.8598 666.1015 1124.3313 667.8077 1115.2769 673.3614 1110.5452 675.3851 1106.4945 674.436 1100.9665 676.9023 1093.5246 676.7032 1093.0749 676.6572 1089.2745 675.8037 1081.3371 676.2399 1065.7546 675.8934 1058.2571 674.7205 1057.5078 674.6762 1043.3661 673.0548 1042.816 672.912 1029.7605 669.1424 1020.2312 670.6082 1016.2729 668.2948 1014.3244 659.4973 1017.488 645.3175 1018.9278 635.284 1018.5805 627.0614 1019.2357 619.5145 1026.5272 611.2969 1029.3304 612.5462 1040.4072 611.3632 1040.3527 610.5849 1039.7076 602.7533 1036.913 602.9641 1036.0504 592.0678 1034.191 589.9859 1035.7246 587.5924 1040.0689 587.762 1040.147 584.063 1040.145 583.7223 1043.0763 581.3207 1043.1753 581.1742 1045.9166 580.4283 1047.648 577.7417 1047.0472 577.4532 1041.3181 570.965 1047.396 568.8859 1047.0116 562.9508 1044.0726 555.5219 1040.8984 550.5276 1032.728 553.2513 1029.7525 548.0611 1021.8309 542.0718 1021.0655 539.2048 1014.2925 541.8714 1013.8458 542.3119 1011.7096 544.076 1007.5204 536.0699 1010.3429 532.1606 1012.8044 534.8719 1017.2776 531.5858 1013.5994 525.6208 1013.0456 524.7966 1010.5258 520.6256 1014.1072 518.5126 1015.3504 517.7269 1020.3242 514.7299 1025.8678 515.3309 1026.622 507.7347 1029.323 508.7412 1030.2243 500.7061 1030.2705 500.0731 1035.8627 500.479 1037.0709 493.7561 1041.0135 493.7334 1044.9323 498.1394 1044.7352 498.5785 1047.2868 499.6344 1047.4345 499.2929 1056.2918 478.0229 1059.555 472.8939 1078.6969 477.6483 1079.4463 477.7899 1087.1613 474.435 1087.2608 474.3857 1088.5368 470.8255 1088.6358 470.6789 1093.4562 467.341 1094.037 464.3689 1090.6471 456.6997 1093.3205 453.1799 1095.2648 444.6517 1097.3989 442.741 1103.1947 443.9718 1109.0791 443.3526 Z" fill="#7fbf7b"><title>壯圍鄉 Zhuangwei Township</title></path>
<path d="M 1079.6022 778.449 1076.6603 779.3423 1075.4066 786.8929 1076.367 788.7852 1073.8998 793.9096 1066.6544 793.6114 1061.0704 795.4933 1057.1096 793.083 1056.958 792.7919 1053.4919 789.5514 1050.2989 790.2512 1050.0991 790.2524 1044.7514 789.8453 1040.7263 793.4698 1038.2151 791.1969 1031.0186 790.7029 1026.5061 787.8574 1021.0801 782.5351 1020.8794 782.3903 1017.7764 781.386 1012.7475 784.2371 1012.7478 784.2858 1008.7998 784.0162 1004.3766 779.2719 1004.3263 779.2235 1000.0477 782.2649 999.7993 782.5097 997.8634 784.6619 997.6636 784.663 991.7306 786.6916 985.6343 786.385 983.0991 788.5891 973.6018 787.5713 973.452 787.5721 968.9951 785.6502 968.993 785.2608 973.267 781.3439 973.3658 781.1487 971.2404 776.2939 971.1896 776.1482 962.5337 773.6654 962.3833 773.5689 961.5863 765.0567 966.467 762.4505 959.4058 759.2288 959.4826 755.0918 963.6733 745.2869 961.7131 743.1077 961.6623 742.962 964.4756 736.9606 964.5245 736.7657 966.1319 729.5056 964.9894 721.7254 970.7825 721.6447 972.6268 712.1446 972.9212 702.3611 974.0952 698.0233 978.7948 690.1133 988.3628 704.0757 990.2919 700.8043 990.6917 700.8507 992.8339 708.6739 995.094 710.8999 992.7765 716.1201 992.5285 725.1734 992.6795 725.3672 997.4467 729.2824 1007.3923 730.3943 1009 740.7024 1009.1529 741.2368 1017.69 740.5557 1017.7893 740.4578 1017.8393 740.4575 1019.466 745.3636 1020.2643 745.213 1020.7579 752.8021 1025.293 751.0242 1030.2886 751.1417 1034.1721 757.5433 1034.3222 757.5911 1036.9323 759.7661 1042.9176 758.2717 1074.2745 764.6105 1072.4007 768.7094 1074.0294 773.7611 1079.6022 778.449 Z" fill="#1b7837"><title>羅東鎮 Luodong Township</title></path>
<path d="M 925.133 539.9323 922.5071 543.4991 919.5061 560.597 914.9876 565.0012 915.4051 568.3083 915.1566 568.5043 910.5378 572.8603 915.9567 577.8925 912.7829 581.7541 913.3346 582.2378 921.6116 589.4933 921.7621 589.6384 927.1781 594.0378 932.7315 596.1977 943.9258 598.2295 939.2609 603.2675 941.1178 605.0094 937.2944 608.7774 933.652 609.1866 933.5535 609.4304 932.5832 614.5456 925.5852 622.1267 931.8086 627.9816 924.9467 633.1286 925.583 639.8898 928.0719 647.5655 934.9833 642.2722 940.1946 645.6018 940.3943 645.6007 946.6999 648.1456 954.896 649.4147 954.8591 651.7509 963.0534 652.6791 963.6531 652.7731 968.5426 652.0648 976.415 649.0525 981.7207 651.3102 982.0724 651.6976 984.3043 657.817 988.8276 662.9504 986.1991 666.1283 978.8067 665.7803 955.8642 661.8192 944.8776 670.6392 941.42 677.4713 941.604 683.6509 937.7181 685.3267 937.2695 685.4751 931.4338 686.7721 920.0312 692.8682 919.7321 692.9671 914.8475 694.6966 908.9296 699.3029 900.1035 701.7832 899.7542 701.8337 897.7098 702.4286 896.8619 702.6277 895.1674 703.2694 890.929 704.5085 886.3428 706.09 885.1992 707.0206 882.2103 708.4477 876.3089 706.9213 873.157 705.8672 870.8602 705.9765 864.413 705.0855 861.8635 704.6121 860.8132 704.3255 860.4631 704.23 852.8625 702.42 852.5628 702.4216 841.3874 704.6204 827.356 705.0327 826.9567 705.0834 809.5789 705.4632 803.2896 706.1274 803.0233 702.8681 803.0191 702.0408 803.0653 701.3106 803.0146 701.1648 802.8149 701.1658 802.3657 701.2168 799.4254 702.4481 797.9289 702.7962 788.109 696.5672 768.3406 698.1732 755.1939 705.7804 743.2908 712.5051 738.1505 723.5282 733.0177 725.8887 726.7474 730.5905 723.2882 738.2475 719.7554 741.0382 716.5237 744.1194 711.054 749.255 702.3226 751.2913 698.1494 756.0314 689.503 754.9523 684.1099 755.2693 679.3041 753.0042 685.5206 747.233 688.5607 745.8076 694.8704 738.6731 692.1109 736.058 688.0312 739.4349 684.4763 737.6021 677.1963 729.5572 672.5885 726.8045 669.0216 722.3436 662.3215 720.7196 659.4106 717.6669 652.9066 704.3621 644.361 703.1353 634.7468 697.5333 631.9846 694.139 625.4834 692.124 623.175 689.6523 616.9189 686.6141 606.8735 673.6646 602.4139 670.2288 599.2205 659.5364 606.7239 651.3278 614.4873 645.5026 622.506 640.9899 621.0416 637.3465 620.592 637.2998 614.7493 637.131 613.9875 634.2631 616.7612 629.287 615.0399 623.99 617.4872 613.0782 616.2192 608.6552 609.9034 603.0378 609.1864 599.0017 616.4064 594.7847 619.1346 590.8794 615.6686 586.1255 610.4755 585.8564 605.3663 582.0343 603.0846 574.1118 604.0105 569.0465 607.1883 565.2367 606.418 560.4222 612.9126 550.4659 618.1855 546.4034 617.609 540.3228 622.0619 531.5919 615.1053 516.3417 614.7813 510.8926 612.2191 507.1566 612.7456 502.1418 609.6674 494.6121 610.0168 494.6106 615.461 495.5599 625.0386 494.5442 630.1686 492.2341 630.816 491.9392 633.8033 490.3686 639.7956 491.1204 643.2248 487.9904 648.6765 479.7413 656.9172 481.1152 665.4435 479.519 672.7441 482.6002 675.5365 482.1007 679.6597 478.0911 686.402 479.1792 695.4142 474.8546 708.0484 476.596 714.924 474.2763 717.6847 477.5725 721.9222 476.6764 728.6126 477.3258 735.0922 475.6888 736.207 479.1388 746.7895 479.6718 756.7428 484.1494 762.5616 490.107 766.5039 490.039 770.2112 492.8921 776.3086 494.6141 785.0741 500.8974 791.6273 503.8821 800.5047 502.6212 808.4435 503.2627 817.4111 500.1515 824.205 501.3824 832.1567 504.5052 852.9274 506.1017 867.9358 512.7883 872.8776 512.9085 880.0564 511.3622 888.652 513.4095 890.3652 516.4178 902.4201 521.269 903.5882 524.9614 904.0382 525.105 908.6297 525.0318 925.133 539.9323 Z" fill="#1b7837"><title>員山鄉 Yuanshan Township</title></path>
<path d="M 964.9894 721.7254 966.1319 729.5056 964.5245 736.7657 964.4756 736.9606 961.6623 742.962 961.7131 743.1077 963.6733 745.2869 959.4826 755.0918 959.4058 759.2288 966.467 762.4505 961.5863 765.0567 962.3833 773.5689 962.5337 773.6654 971.1896 776.1482 971.2404 776.2939 973.3658 781.1487 973.267 781.3439 968.993 785.2608 968.9951 785.6502 973.452 787.5721 973.6018 787.5713 983.0991 788.5891 985.6343 786.385 991.7306 786.6916 997.6636 784.663 997.8634 784.6619 999.7993 782.5097 1000.0477 782.2649 1004.3263 779.2235 1004.3766 779.2719 1008.7998 784.0162 1012.7478 784.2858 1012.7475 784.2371 1017.7764 781.386 1020.8794 782.3903 1021.0801 782.5351 1026.5061 787.8574 1031.0186 790.7029 1038.2151 791.1969 1040.7263 793.4698 1044.7514 789.8453 1050.0991 790.2524 1050.2989 790.2512 1053.4919 789.5514 1056.958 792.7919 1057.1096 793.083 1061.0704 795.4933 1066.6544 793.6114 1073.8998 793.9096 1076.367 788.7852 1075.4066 786.8929 1076.6603 779.3423 1079.6022 778.449 1087.6874 777.2334 1089.0165 773.9649 1094.7027 772.5685 1099.3035 773.4172 1103.1984 781.4239 1101.0726 785.0865 1101.0241 785.3302 1100.7494 789.4684 1100.7509 789.7117 1100.3399 796.0894 1103.5145 800.5965 1105.1541 807.3513 1102.274 810.2397 1102.32 817.8314 1100.2626 824.6082 1100.6623 824.6058 1105.5554 824.09 1111.129 828.68 1113.9668 835.2329 1115.2029 841.3088 1118.9304 846.2503 1124.2226 845.5859 1129.1566 851.688 1131.1178 861.8474 1131.1698 862.1877 1131.7143 869.4843 1125.3225 870.1556 1126.0085 884.2646 1115.0706 885.2063 1115.4518 890.3626 1115.5054 890.9463 1109.5849 895.2643 1101.6395 895.3117 1101.4417 895.6535 1099.4943 904.1816 1101.3924 912.2976 1097.198 921.1797 1094.4082 922.6562 1093.7463 928.938 1082.3032 929.2489 1079.0989 928.2944 1078.9002 928.4902 1074.8749 940.729 1074.6464 944.3316 1067.3033 945.0072 1065.9145 946.8159 1063.1887 950.7251 1059.8458 951.7179 1051.6721 947.1907 1045.3228 946.8867 1044.6968 942.4131 1036.9098 935.5473 1031.6466 932.9009 1028.7761 929.17 1019.9423 922.6505 1014.6415 922.0967 1009.9796 919.6411 1009.7294 919.5939 1005.2118 916.1641 1001.4632 916.0879 998.8365 911.1874 986.919 907.0689 984.1045 904.262 983.8544 904.2148 978.6575 904.2923 974.2448 910.4974 966.344 909.6651 965.5709 914.3899 970.1615 922.0051 964.1552 920.3836 964.5238 923.7395 960.6545 928.9193 956.3177 930.9384 954.6857 925.0589 958.7497 918.9534 956.6742 914.1955 959.008 911.5061 953.8917 908.1276 953.4627 902.874 950.8549 901.2337 947.6243 904.4146 936.3672 911.143 933.3941 906.6819 932.5192 902.0634 928.8536 898.8713 923.0532 898.2212 921.7124 899.7857 915.0672 900.016 906.5568 906.4853 905.5547 906.004 905.4061 906.2481 903.423 909.1786 894.1198 907.7193 892.4506 903.9809 887.7813 909.2614 879.7734 907.0162 875.0001 902.1746 872.2248 897.1279 867.7042 892.7716 863.87 895.3708 859.1694 894.7625 851.6969 889.6912 844.0319 885.9834 837.4337 885.5792 834.3436 887.1522 829.7662 881.3357 823.207 878.7897 814.8333 873.1868 809.7988 865.8149 806.92 859.7949 818.7518 857.7887 824.77 852.4051 831.1041 850.183 831.3529 849.9871 835.5926 848.5541 850.6347 849.061 854.7873 850.1102 864.9705 829.3746 857.5372 831.4571 855.3986 833.3175 850.5014 833.1481 850.234 829.7915 857.5705 828.2937 858.4557 825.6125 847.5788 818.8554 842.4327 818.8332 839.0508 812.1833 841.5799 808.5691 849.7856 810.9603 853.7728 809.1391 866.5703 810.6787 866.3939 815.1082 868.4209 820.4995 875.3005 827.0821 882.7791 824.1717 883.3287 824.1688 887.9512 819.7159 888.2015 819.8119 901.7683 824.8986 902.8608 823.6762 903.2605 823.6741 904.3612 823.9602 910.8738 808.8391 915.7009 796.2089 926.3101 781.3574 926.16 781.3096 901.7762 780.1748 902.5528 775.9855 901.4762 770.8813 904.6575 767.9931 907.3221 761.9443 904.3192 751.6432 908.0465 748.1681 905.8274 744.238 910.6896 738.2261 914.3795 737.0871 925.0764 729.4864 927.482 730.982 930.7636 728.2877 936.5582 728.4509 936.7078 728.4014 942.0836 725.1116 951.0447 728.8586 957.4215 725.9523 958.857 723.6571 964.9894 721.7254 Z" fill="#1b7837"><title>冬山鄉 Dongshan Township</title></path>
<path d="M 978.7948 690.1133 974.0952 698.0233 972.9212 702.3611 972.6268 712.1446 970.7825 721.6447 964.9894 721.7254 958.857 723.6571 957.4215 725.9523 951.0447 728.8586 942.0836 725.1116 936.7078 728.4014 936.5582 728.4509 930.7636 728.2877 927.482 730.982 925.0764 729.4864 914.3795 737.0871 910.6896 738.2261 905.8274 744.238 908.0465 748.1681 904.3192 751.6432 907.3221 761.9443 904.6575 767.9931 901.4762 770.8813 902.5528 775.9855 901.7762 780.1748 926.16 781.3096 926.3101 781.3574 915.7009 796.2089 910.8738 808.8391 904.3612 823.9602 903.2605 823.6741 902.8608 823.6762 901.7683 824.8986 888.2015 819.8119 887.9512 819.7159 883.3287 824.1688 882.7791 824.1717 875.3005 827.0821 868.4209 820.4995 866.3939 815.1082 866.5703 810.6787 853.7728 809.1391 849.7856 810.9603 841.5799 808.5691 839.0508 812.1833 842.4327 818.8332 847.5788 818.8554 858.4557 825.6125 857.5705 828.2937 850.234 829.7915 850.5014 833.1481 855.3986 833.3175 857.5372 831.4571 864.9705 829.3746 854.7873 850.1102 850.6347 849.061 835.5926 848.5541 831.3529 849.9871 831.1041 850.183 824.77 852.4051 818.7518 857.7887 806.92 859.7949 802.1324 861.6195 798.7227 859.2519 790.5536 864.305 782.3552 863.5669 777.1995 861.743 773.2109 863.5146 769.0606 862.9022 761.3941 858.5598 757.2614 861.4998 756.8624 861.6477 754.0715 863.1212 753.6725 863.2691 747.1729 862.4732 744.5825 864.0916 737.5884 864.3685 733.7351 863.1704 729.8061 856.668 714.914 856.2033 710.1366 860.265 697.0412 859.4017 694.1278 856.1546 686.7753 865.1918 684.053 870.7036 685.0757 875.6627 684.6046 881.748 686.4946 890.499 682.8482 890.8079 679.7395 888.5836 672.3569 880.6851 657.2575 868.0037 652.1969 865.0093 645.992 863.042 637.2185 867.6072 636.8824 870.626 632.0931 872.3019 631.6075 875.4187 620.2601 874.447 612.2222 864.8467 610.0076 861.2552 604.3373 855.8296 599.1547 858.9667 587.0137 859.1653 580.4303 861.9675 575.4174 858.2417 570.4131 856.4625 562.0748 857.8605 560.2961 850.9089 554.413 853.9023 550.9557 851.6296 550.2025 850.7568 550.2362 846.9608 554.0961 838.2335 560.1284 835.1422 570.6212 835.2923 575.0107 833.619 577.8874 828.7888 583.3159 824.8237 588.4795 817.453 592.2798 818.2152 598.8005 812.7851 602.1569 803.5727 608.2749 797.5602 615.4977 792.9053 625.9711 789.0631 632.6007 785.8703 636.6814 782.4456 636.93 782.2011 637.3275 781.7127 637.7244 781.1269 642.9472 776.237 652.226 773.5186 658.7958 768.3303 663.1818 766.2177 664.7178 763.5341 672.1874 758.5848 677.1075 753.2577 679.3041 753.0042 684.1099 755.2693 689.503 754.9523 698.1494 756.0314 702.3226 751.2913 711.054 749.255 716.5237 744.1194 719.7554 741.0382 723.2882 738.2475 726.7474 730.5905 733.0177 725.8887 738.1505 723.5282 743.2908 712.5051 755.1939 705.7804 768.3406 698.1732 788.109 696.5672 797.9289 702.7962 799.4254 702.4481 802.3657 701.2168 802.8149 701.1658 803.0146 701.1648 803.0653 701.3106 803.0191 702.0408 803.0233 702.8681 803.2896 706.1274 809.5789 705.4632 826.9567 705.0834 827.356 705.0327 841.3874 704.6204 852.5628 702.4216 852.8625 702.42 860.4631 704.23 860.8132 704.3255 861.8635 704.6121 864.413 705.0855 870.8602 705.9765 873.157 705.8672 876.3089 706.9213 882.2103 708.4477 885.1992 707.0206 886.3428 706.09 890.929 704.5085 895.1674 703.2694 896.8619 702.6277 897.7098 702.4286 899.7542 701.8337 900.1035 701.7832 908.9296 699.3029 914.8475 694.6966 919.7321 692.9671 920.0312 692.8682 931.4338 686.7721 937.2695 685.4751 937.7181 685.3267 941.604 683.6509 950.5159 678.7843 956.6504 677.388 963.2684 682.0721 977.0043 682.58 982.7801 679.5793 987.6294 680.5255 978.7948 690.1133 Z" fill="#7fbf7b"><title>三星鄉 Sanxing Township</title></path>
<path d="M 599.2205 659.5364 602.4139 670.2288 606.8735 673.6646 616.9189 686.6141 623.175 689.6523 625.4834 692.124 631.9846 694.139 634.7468 697.5333 644.361 703.1353 652.9066 704.3621 659.4106 717.6669 662.3215 720.7196 669.0216 722.3436 672.5885 726.8045 677.1963 729.5572 684.4763 737.6021 688.0312 739.4349 692.1109 736.058 694.8704 738.6731 688.5607 745.8076 685.5206 747.233 679.3041 753.0042 677.1075 753.2577 672.1874 758.5848 664.7178 763.5341 663.1818 766.2177 658.7958 768.3303 652.226 773.5186 642.9472 776.237 637.7244 781.1269 637.3275 781.7127 636.93 782.2011 636.6814 782.4456 632.6007 785.8703 625.9711 789.0631 615.4977 792.9053 608.2749 797.5602 602.1569 803.5727 598.8005 812.7851 592.2798 818.2152 588.4795 817.453 583.3159 824.8237 577.8874 828.7888 575.0107 833.619 570.6212 835.2923 560.1284 835.1422 554.0961 838.2335 550.2362 846.9608 550.2025 850.7568 550.9557 851.6296 554.413 853.9023 560.2961 850.9089 562.0748 857.8605 570.4131 856.4625 575.4174 858.2417 580.4303 861.9675 587.0137 859.1653 599.1547 858.9667 604.3373 855.8296 610.0076 861.2552 612.2222 864.8467 620.2601 874.447 631.6075 875.4187 632.0931 872.3019 636.8824 870.626 637.2185 867.6072 645.992 863.042 652.1969 865.0093 657.2575 868.0037 672.3569 880.6851 679.7395 888.5836 682.8482 890.8079 686.4946 890.499 684.6046 881.748 685.0757 875.6627 684.053 870.7036 686.7753 865.1918 694.1278 856.1546 697.0412 859.4017 710.1366 860.265 714.914 856.2033 729.8061 856.668 733.7351 863.1704 737.5884 864.3685 744.5825 864.0916 747.1729 862.4732 753.6725 863.2691 754.0715 863.1212 756.8624 861.6477 757.2614 861.4998 761.3941 858.5598 769.0606 862.9022 773.2109 863.5146 777.1995 861.743 782.3552 863.5669 790.5536 864.305 798.7227 859.2519 802.1324 861.6195 806.92 859.7949 809.7988 865.8149 814.8333 873.1868 823.207 878.7897 829.7662 881.3357 834.3436 887.1522 837.4337 885.5792 844.0319 885.9834 851.6969 889.6912 859.1694 894.7625 863.87 895.3708 867.7042 892.7716 872.2248 897.1279 875.0001 902.1746 879.7734 907.0162 887.7813 909.2614 892.4506 903.9809 894.1198 907.7193 903.423 909.1786 905.4061 906.2481 905.5547 906.004 906.5568 906.4853 909.0019 915.0374 909.0907 922.1908 905.2381 930.6305 906.1538 933.5942 911.2298 938.7743 913.0543 943.4365 923.1972 951.9959 922.7122 954.7237 925.5934 960.5968 926.3248 966.384 928.3433 969.877 934.4482 971.1094 941.8753 976.4223 949.8874 979.0065 958.9321 987.4735 968.6646 993.6977 977.8262 996.129 982.7691 995.0795 989.9955 1000.0031 993.3768 1005.6294 995.7726 1004.9833 999.2935 1008.7595 999.246 1009.1977 996.1558 1010.821 994.3854 1007.181 991.2317 1006.42 987.5938 1008.4357 986.5265 1014.1841 979.3744 1013.5913 974.1517 1018.2921 968.7507 1017.9814 962.6912 1025.0712 959.6449 1034.6264 950.1659 1029.2278 941.6244 1030.5883 933.891 1033.4528 930.1781 1031.0396 929.5753 1030.5075 921.5877 1023.4454 912.2567 1017.5095 909.9639 1009.5406 904.946 1006.0634 902.5578 1008.1687 902.3299 1012.2578 895.4147 1018.5237 892.1174 1018.9304 886.4052 1016.4786 885.9922 1014.0475 879.7189 1009.4572 875.0167 1008.8978 872.8968 1005.0643 868.8395 1003.5281 864.0595 997.6645 855.1831 1001.7983 849.4842 1001.779 844.8078 1006.1342 840.3124 1006.8385 830.6596 1015.6475 826.4747 1018.4426 825.9996 1023.2629 819.0575 1034.3936 817.9811 1038.9736 807.5188 1046.2286 798.6132 1045.0078 792.0212 1046.5005 784.6703 1046.2448 780.1642 1044.9531 778.1267 1047.445 778.1617 1054.4526 782.4194 1056.0376 780.0228 1066.707 777.0323 1068.6197 775.5148 1075.1482 776.997 1081.6134 774.2934 1090.9704 775.4104 1094.3714 771.3645 1105.3409 771.8058 1113.6604 770.0586 1124.3753 767.7934 1131.4914 768.0081 1134.4589 763.0728 1137.6462 761.9513 1143.4914 758.8731 1148.0809 759.4003 1153.5774 757.6704 1157.771 758.7424 1162.1943 757.3176 1167.4084 752.4354 1171.3738 748.8108 1176.8418 745.9168 1178.267 736.4085 1187.6075 729.3047 1187.398 728.9046 1187.3999 718.6524 1187.7891 711.9124 1190.4488 711.6246 1193.0293 706.199 1198.6512 699.8047 1200.433 697.2683 1203.5594 697.8888 1207.839 695.8144 1213.4937 695.6658 1213.7864 691.738 1218.9144 689.0136 1224.6694 686.559 1223.9508 684.1832 1229.4122 686.1827 1239.7686 678.5275 1250.3154 678.6221 1259.9018 674.6785 1261.8178 676.4952 1265.1674 678.543 1275.1829 677.1471 1276.2599 676.8992 1276.7477 672.8459 1276.6203 670.1627 1280.6717 670.8873 1285.8755 663.9962 1288.8754 660.2769 1285.2424 651.9607 1282.9927 644.5601 1283.9993 633.4468 1282.7836 623.8303 1280.5876 613.7571 1276.9334 605.1615 1267.9194 600.9662 1269.5922 598.0887 1275.1525 597.62 1282.3568 602.8099 1290.6073 600.197 1299.4755 593.9545 1302.2764 589.6329 1309.5461 585.568 1306.8383 579.8098 1305.987 573.0067 1294.8719 569.4039 1294.8385 561.4077 1297.1109 558.8993 1295.5642 553.7509 1296.8511 537.7336 1295.5553 533.3658 1292.0695 525.8489 1289.3265 514.6869 1288.3502 509.1717 1285.5987 498.3777 1288.9514 486.4309 1291.8704 475.5212 1291.4269 456.6288 1296.8539 451.84 1300.6196 441.3757 1298.9567 435.6786 1300.8277 424.7704 1300.8205 419.2542 1297.6781 412.5004 1297.9955 410.4049 1299.6092 404.5013 1299.8259 399.6421 1298.3353 393.9474 1300.8869 392.3059 1303.5208 387.2626 1306.3618 383.8102 1306.4231 378.7181 1309.6535 372.0707 1311.7702 367.3383 1317.6269 360.0806 1330.9382 354.0977 1337.0912 347.749 1339.0117 343.6413 1337.8582 338.9675 1346.3909 337.4862 1352.0411 325.0587 1361.7198 321.861 1363.2395 316.6761 1368.9997 315.9507 1376.3018 316.4257 1383.3564 314.6051 1392.3655 314.8002 1405.3094 313.7063 1407.4057 305.4598 1411.0349 295.0223 1418.1265 290.422 1419.5532 287.8377 1425.0609 281.6512 1431.2131 278.3251 1439.497 278.3257 1439.6917 281.7463 1444.5954 281.1664 1450.7776 276.5801 1456.5838 271.687 1460.493 270.9892 1476.457 267.6558 1482.7942 261.0446 1482.0859 250.7824 1482.5571 242.6841 1486.4276 237.3276 1486.6393 229.0337 1492.0673 222.1197 1490.6291 213.7587 1490.7525 202.8606 1496.1392 194.447 1495.4836 189.427 1491.2165 186.5231 1491.2253 179.728 1495.9174 174.2708 1496.0311 170.1321 1501.6884 163.723 1501.6587 161.128 1504.5375 159.5937 1510.5762 158.8499 1513.0116 157.6554 1515.4483 150.9544 1518.3876 149.7051 1519.2672 142.3533 1522.3056 134.7819 1518.7262 126.271 1519.2371 119.74 1511.664 118.6855 1510.5963 111.8745 1492.3666 117.6079 1483.7371 114.0324 1476.3989 111.9277 1475.7235 106.7503 1468.341 100.4394 1467.3365 94.4252 1465.0171 85.3457 1458.4722 79.1937 1460.5813 73.9835 1459.2327 60.4654 1458.8304 56.5629 1459.7652 47.7684 1466.1143 44.4493 1460.3806 37.7773 1455.142 34.0015 1446.9275 30.5938 1445.5249 24.3377 1446.1246 19.8153 1439.4203 19.7991 1432.9968 17.5766 1425.0702 20.6159 1419.4663 22.945 1410.1658 22.3787 1403.9869 23.712 1396.83 22.8423 1389.3867 24.4327 1384.9543 25.7598 1375.4129 23.3879 1367.73 24.9322 1364.9036 24.2171 1359.2118 18.7497 1354.3591 12.4727 1345.8585 7.5082 1341.8317 1 1340.8257 1.6978 1339.7047 5.2322 1332.1532 8.1087 1321.7321 8.2081 1321.4399 8.8052 1320.0758 9.0537 1319.3939 10.3481 1316.7143 10.5471 1316.2758 11.0934 1314.6199 11.2916 1313.8408 11.7387 1312.5257 11.8876 1312.0387 12.1356 1311.1622 12.2343 1310.6266 13.2269 1307.3637 13.4258 1306.8279 13.5738 1306.0003 15.7641 1301.4691 16.113 1300.9329 16.5617 1300.2992 16.9603 1299.6169 21.798 1293.3272 22.3475 1292.9852 27.4414 1289.128 30.3276 1282.9404 30.7274 1282.7447 32.8277 1282.3014 33.3279 1282.2515 34.6777 1281.8101 34.9775 1281.6633 35.0768 1281.3711 41.7718 1277.6555 42.3176 1275.9022 42.2167 1275.5619 41.9655 1275.1732 41.8141 1274.6869 41.7127 1274.1519 41.6549 1271.1836 41.6531 1270.5023 41.5015 1269.9187 41.3497 1269.2378 41.0977 1268.5571 40.8449 1267.5359 40.7937 1267.098 40.7923 1266.5627 46.882 1261.0967 50.5801 1259.5299 50.8298 1259.3346 51.1283 1258.7012 54.2615 1251.5881 54.3596 1250.8579 54.4064 1249.6412 54.3539 1248.7167 54.5488 1246.721 54.6475 1246.2341 54.8951 1245.2602 58.2343 1240.4824 59.1347 1240.4313 60.0346 1240.1857 60.4332 1239.6007 61.779 1237.7479 62.5773 1236.9185 63.2258 1236.2355 66.4743 1235.0103 75.3813 1235.8139 75.8307 1235.5207 76.4796 1234.9837 81.9263 1232.6819 82.3263 1232.6321 82.8762 1232.4846 89.1763 1231.2997 90.9727 1229.6402 91.2216 1229.2015 91.5206 1228.7628 92.0685 1227.934 92.3176 1227.544 92.9654 1226.6176 93.814 1225.9827 94.7614 1224.8608 95.5593 1223.934 96.5073 1223.0554 97.3555 1222.2745 98.3537 1221.4445 98.9026 1220.9563 99.3512 1220.3711 100.1482 1219.1523 100.8449 1217.8365 101.1932 1217.1542 101.3918 1216.6184 102.2795 1212.0902 102.9771 1211.115 103.725 1210.237 104.5232 1209.4561 105.4217 1208.7724 105.8709 1208.4305 106.3699 1207.9911 107.1193 1207.6484 113.2161 1205.5388 113.5655 1205.2946 114.5642 1204.6591 115.5131 1204.1212 116.2627 1203.8757 118.0121 1203.3842 118.4617 1203.1883 118.9116 1203.0897 119.4608 1202.6988 119.9594 1202.1621 121.0045 1200.2613 121.2529 1199.6766 121.4017 1199.2382 121.5505 1198.7998 121.6992 1198.3128 121.7981 1197.9232 122.6377 1194.1737 122.7365 1193.7354 122.7857 1193.4433 122.8848 1193.1024 122.9835 1192.6641 122.983 1192.4695 123.0301 1191.4474 123.1755 1189.8411 123.3721 1188.6239 123.421 1188.2345 123.4694 1187.6503 123.5186 1187.3582 123.6171 1186.8226 123.6644 1185.8979 123.7135 1185.5571 123.6616 1184.9246 123.7104 1184.4865 123.6595 1184.1947 123.6579 1183.6107 123.6052 1182.6862 123.6034 1182.0536 123.6502 1180.9342 123.7484 1180.3013 123.7467 1179.7173 123.8953 1179.1816 123.9439 1178.6948 123.9919 1178.0134 124.0406 1177.5266 124.1894 1177.0882 124.2373 1176.3581 124.3848 1175.4818 124.533 1174.8487 124.5818 1174.4106 130.7308 1173.3225 138.037 1174.6155 146.0372 1173.7165 148.2828 1171.9581 148.3821 1171.7144 148.4811 1171.3735 150.7678 1166.5978 151.4139 1165.2333 151.6607 1164.1133 151.8579 1163.1394 152.0053 1162.2631 151.954 1161.8252 151.3997 1160.4156 151.2985 1160.0266 151.1456 1159.0537 151.194 1158.5183 151.1423 1157.9345 151.0911 1157.5453 151.0901 1157.2047 153.0876 1156.1769 153.3377 1156.1762 159.0313 1153.4829 159.1803 1153.1419 159.3295 1152.8494 160.7203 1149.6335 160.869 1149.1951 160.9679 1148.8055 161.0168 1148.4647 161.1157 1148.0751 161.2141 1147.5395 161.2625 1147.004 161.3112 1146.5659 162.0533 1143.8385 162.2021 1143.4488 162.3513 1143.1564 165.9896 1138.9605 170.9866 1137.5831 179.0371 1137.1696 179.2364 1136.9257 179.5353 1136.5355 179.8839 1136.0478 180.0831 1135.7552 180.1825 1135.5603 180.2316 1135.2682 180.5306 1134.9266 180.7798 1134.6339 181.6786 1134.1932 182.0783 1134.046 182.5773 1133.7038 182.8266 1133.4598 183.2255 1133.0692 183.4244 1132.6793 187.803 1125.4151 187.8021 1125.1231 187.7013 1124.8801 187.6504 1124.5883 181.6309 1118.5721 181.5301 1118.3291 181.4291 1117.9888 181.3779 1117.5996 180.7723 1115.8009 180.6215 1115.558 180.5201 1115.1203 180.3168 1114.0503 180.414 1113.1254 180.4635 1112.9306 180.5123 1112.5412 180.6112 1112.2002 180.6602 1111.8594 180.6595 1111.6161 180.7083 1111.2266 180.7571 1110.8372 180.7556 1110.3505 178.7924 1106.1227 178.4411 1105.6857 178.2399 1105.297 176.7209 1099.1212 176.7196 1098.6833 176.9171 1097.8554 179.986 1087.578 181.2134 1080.1774 180.2042 1077.1632 173.7776 1068.4716 173.4218 1066.5748 173.3207 1066.1857 173.2687 1065.5533 172.664 1063.9978 172.463 1063.6578 172.3114 1063.1229 172.0086 1062.1992 172.2061 1061.3713 172.4546 1060.8839 175.2955 1057.9069 175.7441 1057.4676 175.9931 1057.1262 176.3411 1056.4925 178.0325 1053.6649 178.1819 1053.4698 178.4793 1052.6416 178.9766 1051.7642 179.2256 1051.4228 179.973 1050.5932 180.2221 1050.3005 180.9698 1049.5683 181.3686 1049.1778 183.5157 1048.2953 184.0156 1048.2451 184.5648 1048.0002 185.8621 1047.1689 186.3611 1046.8268 186.66 1046.4852 186.9086 1046.0465 187.1065 1045.3646 187.2051 1044.9263 187.1043 1044.6346 187.0026 1044.0996 186.8502 1043.3215 186.7487 1042.8351 186.5973 1042.349 186.5434 1041.0838 186.5914 1040.4511 187.5835 1037.9175 187.7828 1037.6736 189.1781 1036.2094 189.5766 1035.7216 191.1682 1033.0889 191.2672 1032.7479 191.316 1032.3584 191.363 1031.385 191.4611 1030.8007 192.5571 1029.5321 193.106 1029.1898 193.4056 1029.0916 195.4522 1028.0633 195.9512 1027.7698 196.4504 1027.525 196.9497 1027.3288 198.8494 1027.323 199.6995 1027.369 200.1492 1027.319 200.3988 1027.1722 200.8478 1026.8788 201.147 1026.6346 201.3957 1026.2445 203.9853 1023.0247 208.6778 1020.8689 209.3768 1020.5748 209.726 1020.3304 211.0718 1019.0609 211.2208 1018.7685 211.2697 1018.4277 211.1673 1017.6494 211.0653 1017.017 210.9127 1016.1902 210.8617 1015.8497 210.7106 1015.5096 210.6594 1015.1204 210.1044 1013.5162 210.0032 1013.1272 209.4993 1011.8635 209.4481 1011.4743 208.8942 1010.2108 208.6426 1009.6763 207.7381 1008.2191 207.6374 1007.9761 207.5359 1007.4898 207.4844 1007.0033 207.3829 1006.517 206.727 1004.6211 206.6263 1004.3781 206.5254 1004.0864 206.2741 1003.6492 206.0727 1003.2119 205.8715 1002.8232 205.6705 1002.4831 204.9161 1001.0255 204.7651 1000.6854 202.404 996.9942 202.1529 996.6056 199.5418 992.8665 199.24 992.2834 198.939 991.9437 198.0349 990.5352 197.6831 989.9523 197.5324 989.7095 197.1312 989.2727 195.5237 986.7471 195.423 986.5041 195.2721 986.2126 194.8201 985.5326 194.5685 984.9981 194.3171 984.5122 193.9154 983.9295 192.0537 979.9934 191.7515 979.2643 191.5004 978.8758 190.3388 975.0348 190.3869 974.402 190.4359 974.1099 191.9255 970.8935 201.4352 958.9416 203.4233 955.3829 207.6159 953.5207 208.3652 953.3724 211.6039 950.1992 212.0371 944.9421 217.5979 949.0125 219.3947 948.2282 219.7447 948.2758 224.3024 951.23 228.3982 950.3898 238.2808 946.1732 245.6031 938.6067 251.7337 918.2938 255.3258 916.4328 258.3449 907.5661 260.4415 906.8779 262.1168 899.7187 262.0159 899.4271 260.9986 894.0773 263.0293 888.6202 273.6539 868.0487 283.6291 862.6624 284.8066 856.2834 283.4822 848.8422 285.6697 845.623 291.2035 842.0519 297.6539 829.0366 293.0936 825.0128 289.976 819.1836 289.4993 811.2528 293.5636 801.8468 303.1866 796.4611 305.6551 788.0336 310.7744 780.5704 315.5508 775.1035 319.2013 776.2102 332.2914 776.8946 338.2897 777.9928 344.2735 775.0518 355.057 773.3102 360.4022 773.3884 361.051 773.24 361.2009 773.2395 365.2429 772.1057 372.3899 773.1504 376.4744 770.021 389.5796 774.7422 398.7494 769.0631 403.9212 762.9608 412.2999 759.5228 417.5917 758.7729 422.3612 752.0878 428.2975 750.1187 432.881 747.0839 438.6867 750.0789 458.7153 749.8554 460.0104 748.9743 460.2588 748.6327 465.7874 744.7178 466.1065 737.0762 470.5108 739.2974 476.7033 739.0783 479.8428 737.3139 487.7835 737.0876 489.3657 733.1394 489.1292 724.1373 492.1181 722.2274 491.5327 713.4213 489.8696 709.7294 496.4859 703.3764 501.3482 695.619 501.6962 695.2283 511.3781 693.6804 519.5711 694.3769 526.6879 688.5078 531.0029 681.4822 535.1508 682.1949 543.1233 678.0739 546.3174 677.6225 551.2723 680.2297 555.7188 680.6976 562.2846 674.684 566.6665 683.3278 572.0629 684.0348 573.8507 681.7399 577.5054 672.4292 578.6303 655.5862 580.2209 653.9247 591.2262 658.4518 599.2205 659.5364 Z" fill="#d1e5f0"><title>大同鄉 Datong Township</title></path>
<path d="M 1426.9239 350.5221 1428.3046 355.2331 1433.8748 359.8174 1438.6242 361.244 1439 364.94 1434.215 372.4685 1430.9833 373.9999 1421.129 370.3216 1415.203 371.823 1411.4575 371.2651 1401.0507 374.0627 1395.9592 373.66 1391.1561 371.6978 1383.635 366.2988 1379.3308 357.1789 1374.2199 353.9532 1370.2469 349.357 1374.213 345.8259 1386.9294 352.3573 1390.4656 351.5543 1396.6174 339.6857 1399.6793 335.3331 1404.0598 334.0374 1411.9965 334.8095 1418.943 336.6104 1423.204 339.5493 1427.1877 345.5562 1426.9239 350.5221 Z M 1438.5597 13.6121 1430.1126 16.9324 1421.3774 14.8524 1412.9523 21.2868 1400.1163 24.1503 1390.2852 29.1825 1385.881 33.5443 1384.5087 36.8145 1377.6409 38.1271 1372.4472 36.5567 1362.018 41.6894 1354.5333 47.4832 1348.5215 50.1033 1345.8743 56.448 1341.8312 62.7535 1339.7461 71.1383 1336.6285 74.3714 1337.9696 80.9325 1328.4658 90.4865 1325.0255 90.3149 1320.4124 93.5578 1317.5203 93.3825 1310.9748 98.3415 1310.0454 100.9271 1304.2809 103.496 1302.4116 107.1585 1301.6379 110.6677 1301.9739 116.1162 1299.9936 118.1246 1292.8265 119.7293 1292.2779 119.6843 1288.5753 117.616 1283.4912 117.6494 1268.9957 126.6017 1266.1305 130.5137 1265.9839 130.9527 1263.5436 146.2987 1265.0122 149.7445 1263.6597 156.2747 1260.399 160.7246 1260.3198 171.3346 1253.7044 181.2082 1246.9025 185.5348 1243.3574 192.3223 1243.01 192.5679 1240.6214 193.2646 1236.5215 199.131 1231.9563 202.4695 1230.8283 205.3481 1217.4141 212.7823 1212.9843 221.7164 1208.9237 226.0735 1205.3167 231.2063 1191.0988 238.0117 1185.14 241.9423 1184.0502 250.9039 1178.4949 255.6105 1166.0574 276.1277 1162.6694 284.568 1158.5904 294.1805 1158.393 294.5224 1150.037 314.1377 1150.8405 315.0088 1150.6428 315.302 1148.3172 318.285 1139.6669 338.9238 1136.5797 347.8486 1133.8067 359.2048 1132.0079 358.7291 1132.2742 361.4528 1132.6971 365.2949 1130.0073 374.0225 1125.8754 391.6162 1121.1477 417.8761 1117.3686 444.3734 1109.0791 443.3526 1110.2139 441.2531 1107.1886 436.1126 1108.7624 432.3558 1107.7359 427.69 1104.2002 420.6545 1103.8222 415.9361 1109.9844 403.7326 1115.6284 396.5933 1117.3497 392.5437 1113.0584 384.2961 1111.4252 386.4473 1111.3261 386.5452 1103.4484 387.3711 1101.21 388.4551 1098.6088 395.5273 1090.1511 399.4709 1085.003 397.9441 1073.1813 398.4031 1072.8312 398.2592 1068.2279 396.0475 1067.9274 395.8546 1064.9238 394.1689 1061.7889 387.1793 1061.2897 387.1335 1051.5349 382.713 1048.183 372.7072 1037.1863 360.6042 1024.3222 353.1834 1019.1738 342.8469 1015.1586 338.6358 1016.0631 331.1847 1019.3726 325.6179 1010.6895 324.9373 1003.3684 326.8768 993.5968 336.4219 993.1983 336.5215 989.1973 334.6947 979.2476 339.3737 971.0495 336.3047 966.7686 337.8858 954.415 332.0653 957.5388 328.7388 961.6371 330.1762 966.7195 329.2234 969.7407 325.4107 984.7993 324.4994 986.7732 320.7897 985.8529 316.8529 990.2917 316.7793 994.3662 314.0797 995.7426 310.568 999.8646 307.4787 998.8007 304.6134 1002.676 302.0122 1007.1298 304.5663 1016.8019 303.8786 1016.1323 300.2325 1020.0839 293.6399 1020.1831 293.542 1020.9108 290.0339 1024.7923 288.5517 1037.6485 278.1604 1036.0234 273.2058 1031.6134 269.5812 1030.819 261.7018 1031.6113 252.2559 1030.2685 244.3797 1032.7996 242.3211 1039.3746 241.0665 1039.3239 240.9208 1039.0046 237.516 1048.1147 234.9326 1049.8916 231.8563 1055.3026 227.7854 1053.0684 221.0338 1056.0995 219.2641 1060.436 218.9955 1062.86 215.7693 1080.8597 215.6634 1084.3299 212.3335 1094.0853 209.4529 1093.963 205.755 1096.6854 202.4781 1104.8899 206.9551 1111.351 211.6857 1119.5566 208.1809 1119.8548 208.0331 1128.4648 205.4503 1141.5822 206.1005 1141.7808 205.9533 1155.2148 193.5096 1158.5154 187.1626 1164.5594 181.0419 1167.791 179.6106 1171.7244 170.9235 1186.3119 159.9799 1190.4156 154.6495 1189.9355 149.7371 1189.5862 149.6907 1179.5794 143.9618 1180.1153 142.0118 1176.5811 134.9771 1176.7606 131.8613 1173.7296 125.5534 1164.5355 122.0577 1158.7595 115.134 1156.928 109.2566 1157.3004 105.0689 1160.5168 101.3504 1162.8554 92.8192 1162.0146 85.9624 1164.7942 84.1445 1166.6074 79.2666 1170.7257 76.3697 1174.7771 70.7965 1178.2713 71.6507 1181.8412 68.7571 1186.7495 72.5225 1190.262 68.4611 1200.5948 63.2375 1205.9726 62.5222 1211.2791 66.1873 1214.7165 65.9708 1228.944 69.5789 1235.8054 67.1016 1238.5008 67.717 1243.1645 64.5236 1245.8556 64.5063 1252.8104 61.1034 1257.8393 60.3894 1266.0297 62.9642 1266.5805 63.35 1268.6486 59.5891 1274.0233 58.4347 1283.3611 53.7501 1285.8528 53.7337 1290.7489 48.1534 1291.8134 43.4257 1298.0914 35.8895 1300.9261 35.0433 1303.9866 38.0891 1308.832 32.4602 1309.2297 32.3115 1314.2795 34.7599 1316.2863 29.4418 1320.7457 25.7133 1321.2931 25.6123 1326.5102 23.3873 1326.7091 23.3373 1332.8966 24.5611 1333.2976 24.899 1337.8163 22.5812 1341.4224 25.2336 1351.3117 21.3219 1355.3563 22.5111 1359.5195 19.2707 1366.2477 19.4195 1368.3521 13.9543 1375.2297 14.1019 1376.5016 10.7351 1381.8811 10.4548 1382.7616 8.1126 1388.6118 3.9355 1388.6599 3.6919 1391.3357 1.5807 1398.1378 5.1836 1403.6397 1.106 1409.4748 1.844 1415.05 1.0751 1420.6974 3.4203 1425.7624 1 1426.1123 1.1435 1427.5568 1.0847 1428.3579 1.6144 1431.5025 2.371 1438.5597 13.6121 Z" fill="#7fbf7b"><title>頭城鎮 Toucheng Township</title></path>
<path d="M 1065.9145 946.8159 1071.5385 951.2117 1075.2421 960.4365 1083.7684 965.3016 1090.0252 966.7734 1091.8272 975.5226 1099.7593 981.2181 1103.3706 991.5138 1105.585 993.9826 1105.7356 994.079 1108.7063 997.6139 1108.9804 1001.6029 1104.9123 1006.737 1104.0316 1009.9055 1104.0325 1010.0515 1107.6662 1015.7238 1108.2148 1023.7504 1106.845 1028.7224 1108.7232 1049.9295 1116.8513 1062.826 1127.0824 1067.9231 1130.8865 1068.5815 1134.8182 1065.5891 1146.0157 1065.1806 1153.2908 1069.2242 1158.5349 1076.2973 1164.1552 1087.5533 1174.0693 1089.6822 1177.1661 1097.109 1184.1402 1100.8131 1186.938 1100.4064 1187.0389 1100.5518 1184.7611 1104.1185 1183.452 1110.6478 1179.2912 1117.0002 1166.8535 1119.3155 1160.7911 1125.5332 1159.7672 1129.7734 1155.4171 1137.9759 1143.9002 1151.9157 1141.2849 1157.6741 1141.147 1167.7974 1141.9922 1175.0921 1140.2045 1177.1956 1137.3567 1185.8753 1133.2115 1195.0982 1134.5462 1200.6866 1129.2476 1209.4784 1129.0004 1209.9665 1128.0583 1211.3348 1119.7171 1213.4289 1121.6161 1229.5744 1121.889 1241.5445 1117.7663 1246.4358 1117.7178 1246.6794 1114.8024 1252.6827 1109.9796 1257.6753 1108.4068 1262.3566 1103.5709 1265.2079 1101.0392 1268.5322 1097.6222 1266.0705 1094.0293 1267.649 1092.8033 1271.7928 1085.3322 1277.482 1075.548 1281.2866 1056.5181 1286.9939 1051.7368 1290.7687 1051.0425 1291.8434 1048.6036 1294.0474 1044.2452 1293.1478 1038.4487 1294.4951 1034.7605 1296.9981 1031.0365 1301.9832 1032.4623 1306.2576 1033.3694 1307.3717 1036.6399 1310.4676 1038.9244 1316.0997 1044.7737 1323.7552 1046.1554 1329.0031 1050.3572 1337.252 1056.4826 1340.6718 1058.5746 1347.5215 1063.5521 1351.4345 1066.6884 1357.1101 1078.6727 1360.982 1074.6682 1369.3272 1064.2759 1397.9055 1058.1843 1417.5528 1056.4098 1430.8 1053.5821 1443.7612 1052.591 1454.0839 1052.6649 1466.7363 1049.4814 1504.6646 1042.1561 1519.3548 1039.9044 1528.2734 1039.0205 1531.2957 1032.4222 1541.991 1029.9084 1548.9643 1029.5868 1553.9786 1019.8419 1575.0571 1018.1873 1583.4855 1015.6205 1590.0697 1014.0371 1602.2448 1015.2396 1611.095 1018.5021 1621.0528 1021.0294 1633.7886 1021.3405 1644.3957 1018.3578 1648.4031 1012.6041 1649.6521 1002.1315 1649.127 987.9439 1647.1622 979.2496 1642.1493 963.1563 1630.6558 955.7186 1626.268 945.2908 1624.6214 934.3779 1625.8483 917.8103 1618.8322 908.1499 1620.1002 885.9429 1616.8107 870.1373 1611.5399 861.5998 1607.2043 850.4399 1599.378 841.365 1597.5752 832.1655 1600.7364 827.3942 1598.1813 826.7981 1589.3274 823.6635 1583.5522 819.5057 1583.3785 807.2183 1589.961 801.8668 1591.4475 798.4521 1589.6639 796.377 1585.3431 797.4371 1577.0162 794.9282 1576.0554 788.7801 1578.4703 785.5667 1576.8315 780.61 1567.0257 774.8312 1563.0635 773.3352 1554.2139 766.5943 1558.2372 763.0874 1557.9622 760.3635 1553.9363 751.3464 1553.3471 752.2723 1548.087 745.56 1537.3644 742.4566 1537.6226 739.6176 1540.7993 739.1866 1544.8892 744.0189 1550.0245 745.3638 1558.8749 741.3256 1562.6414 736.1882 1556.5829 730.0098 1552.6704 726.7769 1546.846 722.758 1544.1885 721.5239 1537.43 718.356 1534.6711 715.1754 1529.2356 710.5636 1528.1866 709.5781 1520.989 702.0239 1522.4355 700.154 1518.7944 703.0318 1513.1846 700.97 1511.2963 689.1212 1515.1956 688.6221 1515.5386 680.4354 1520.978 678.0583 1526.6826 678.3281 1530.8665 684.1976 1533.1754 679.8619 1537.6724 680.6421 1543.9465 692.1443 1551.3391 693.3495 1562.7696 697.606 1562.7013 699.3718 1565.4669 704.119 1563.2549 710.539 1565.3175 712.418 1570.8078 709.5821 1574.7628 702.5232 1575.3311 703.0506 1580.9737 705.8287 1585.9731 705.8854 1597.9929 697.889 1601.6799 691.8545 1596.5008 694.9255 1589.187 693.5947 1583.0614 690.35 1585.3636 683.3471 1587.2451 677.4708 1572.8675 672.4704 1574.5449 669.2096 1584.2439 669.0516 1593.4421 673.0652 1594.9324 673.785 1598.9683 671.0425 1601.6086 664.9298 1601.1498 661.6543 1596.7848 657.5423 1595.6841 649.1868 1597.6196 646.9106 1603.7615 646.7396 1610.2346 644.444 1612.0941 639.1348 1612.1177 633.4048 1607.6661 631.0263 1602.2263 625.0675 1602.5446 622.7811 1606.4965 624.6722 1615.0043 629.2979 1618.9257 629.8623 1621.9403 635.4973 1627.5117 634.9227 1633.4026 642.8123 1639.0125 643.9457 1645.9664 648.1841 1652.7117 647.0063 1658.1187 644.4023 1658.325 639.512 1651.4365 635.4388 1647.9508 626.2033 1643.8552 618.5379 1643.597 608.748 1650.0147 604.6162 1644.5337 597.2962 1643.0568 593.0265 1640.3501 584.5074 1639.5593 577.879 1635.7918 573.5743 1636.5401 569.5798 1639.5255 564.5731 1640.1306 557.3472 1637.1439 550.5034 1629.7269 543.2363 1628.7839 537.9926 1620.5814 536.7631 1614.0169 534.2338 1608.0417 528.9142 1605.533 522.2327 1600.694 517.5043 1595.7496 508.7737 1591.8918 499.427 1596.6012 494.817 1596.0843 488.0934 1593.0453 483.1885 1593.8921 477.8644 1590.1173 470.8976 1588.8308 464.9558 1580.7272 458.2897 1579.4392 454.4875 1580.4759 450.0939 1583.9966 443.477 1582.4648 439.1791 1584.8658 431.4137 1584.2141 426.8875 1579.3162 418.5756 1579.7855 411.831 1584.1905 408.0403 1588.341 404.6367 1588.8889 395.5059 1584.7376 391.1874 1581.6877 388.1656 1577.1244 380.7358 1572.3338 376.3581 1566.7047 369.795 1565.9984 361.6037 1558.1929 353.4964 1559.7304 348.8275 1556.4865 330.5236 1549.3484 327.0054 1545.7108 322.2412 1543.7321 306.5692 1529.7707 301.5029 1527.2087 300.7467 1525.7027 298.421 1519.1896 294.0351 1510.4936 293.0251 1507.9665 292.4056 1502.4696 288.0558 1504.3333 280.4481 1505.2346 279.2898 1503.2433 276.309 1495.2723 269.5588 1482.934 267.6558 1482.7942 270.9892 1476.457 271.687 1460.493 276.5801 1456.5838 281.1664 1450.7776 281.7463 1444.5954 278.3257 1439.6917 278.3251 1439.497 281.6512 1431.2131 287.8377 1425.0609 290.422 1419.5532 295.0223 1418.1265 305.4598 1411.0349 313.7063 1407.4057 314.8002 1405.3094 314.6051 1392.3655 316.4257 1383.3564 315.9507 1376.3018 316.6761 1368.9997 321.861 1363.2395 325.0587 1361.7198 337.4862 1352.0411 338.9675 1346.3909 343.6413 1337.8582 347.749 1339.0117 354.0977 1337.0912 360.0806 1330.9382 367.3383 1317.6269 372.0707 1311.7702 378.7181 1309.6535 383.8102 1306.4231 387.2626 1306.3618 392.3059 1303.5208 393.9474 1300.8869 399.6421 1298.3353 404.5013 1299.8259 410.4049 1299.6092 412.5004 1297.9955 419.2542 1297.6781 424.7704 1300.8205 435.6786 1300.8277 441.3757 1298.9567 451.84 1300.6196 456.6288 1296.8539 475.5212 1291.4269 486.4309 1291.8704 498.3777 1288.9514 509.1717 1285.5987 514.6869 1288.3502 525.8489 1289.3265 533.3658 1292.0695 537.7336 1295.5553 553.7509 1296.8511 558.8993 1295.5642 561.4077 1297.1109 569.4039 1294.8385 573.0067 1294.8719 579.8098 1305.987 585.568 1306.8383 589.6329 1309.5461 593.9545 1302.2764 600.197 1299.4755 602.8099 1290.6073 597.62 1282.3568 598.0887 1275.1525 600.9662 1269.5922 605.1615 1267.9194 613.7571 1276.9334 623.8303 1280.5876 633.4468 1282.7836 644.5601 1283.9993 651.9607 1282.9927 660.2769 1285.2424 663.9962 1288.8754 670.8873 1285.8755 670.1627 1280.6717 672.8459 1276.6203 676.8992 1276.7477 677.1471 1276.2599 678.543 1275.1829 676.4952 1265.1674 674.6785 1261.8178 678.6221 1259.9018 678.5275 1250.3154 686.1827 1239.7686 684.1832 1229.4122 686.559 1223.9508 689.0136 1224.6694 691.738 1218.9144 695.6658 1213.7864 695.8144 1213.4937 697.8888 1207.839 697.2683 1203.5594 699.8047 1200.433 706.199 1198.6512 711.6246 1193.0293 711.9124 1190.4488 718.6524 1187.7891 728.9046 1187.3999 729.3047 1187.398 736.4085 1187.6075 745.9168 1178.267 748.8108 1176.8418 752.4354 1171.3738 757.3176 1167.4084 758.7424 1162.1943 757.6704 1157.771 759.4003 1153.5774 758.8731 1148.0809 761.9513 1143.4914 763.0728 1137.6462 768.0081 1134.4589 767.7934 1131.4914 770.0586 1124.3753 771.8058 1113.6604 771.3645 1105.3409 775.4104 1094.3714 774.2934 1090.9704 776.997 1081.6134 775.5148 1075.1482 777.0323 1068.6197 780.0228 1066.707 782.4194 1056.0376 778.1617 1054.4526 778.1267 1047.445 780.1642 1044.9531 784.6703 1046.2448 792.0212 1046.5005 798.6132 1045.0078 807.5188 1046.2286 817.9811 1038.9736 819.0575 1034.3936 825.9996 1023.2629 826.4747 1018.4426 830.6596 1015.6475 840.3124 1006.8385 844.8078 1006.1342 849.4842 1001.779 855.1831 1001.7983 864.0595 997.6645 868.8395 1003.5281 872.8968 1005.0643 875.0167 1008.8978 879.7189 1009.4572 885.9922 1014.0475 886.4052 1016.4786 892.1174 1018.9304 895.4147 1018.5237 902.3299 1012.2578 902.5578 1008.1687 904.946 1006.0634 909.9639 1009.5406 912.2567 1017.5095 921.5877 1023.4454 929.5753 1030.5075 930.1781 1031.0396 933.891 1033.4528 941.6244 1030.5883 950.1659 1029.2278 959.6449 1034.6264 962.6912 1025.0712 968.7507 1017.9814 974.1517 1018.2921 979.3744 1013.5913 986.5265 1014.1841 987.5938 1008.4357 991.2317 1006.42 994.3854 1007.181 996.1558 1010.821 999.246 1009.1977 999.2935 1008.7595 995.7726 1004.9833 993.3768 1005.6294 989.9955 1000.0031 982.7691 995.0795 977.8262 996.129 968.6646 993.6977 958.9321 987.4735 949.8874 979.0065 941.8753 976.4223 934.4482 971.1094 928.3433 969.877 926.3248 966.384 925.5934 960.5968 922.7122 954.7237 923.1972 951.9959 913.0543 943.4365 911.2298 938.7743 906.1538 933.5942 905.2381 930.6305 909.0907 922.1908 909.0019 915.0374 906.5568 906.4853 915.0672 900.016 921.7124 899.7857 923.0532 898.2212 928.8536 898.8713 932.5192 902.0634 933.3941 906.6819 936.3672 911.143 947.6243 904.4146 950.8549 901.2337 953.4627 902.874 953.8917 908.1276 959.008 911.5061 956.6742 914.1955 958.7497 918.9534 954.6857 925.0589 956.3177 930.9384 960.6545 928.9193 964.5238 923.7395 964.1552 920.3836 970.1615 922.0051 965.5709 914.3899 966.344 909.6651 974.2448 910.4974 978.6575 904.2923 983.8544 904.2148 984.1045 904.262 986.919 907.0689 998.8365 911.1874 1001.4632 916.0879 1005.2118 916.1641 1009.7294 919.5939 1009.9796 919.6411 1014.6415 922.0967 1019.9423 922.6505 1028.7761 929.17 1031.6466 932.9009 1036.9098 935.5473 1044.6968 942.4131 1045.3228 946.8867 1051.6721 947.1907 1059.8458 951.7179 1063.1887 950.7251 1065.9145 946.8159 Z" fill="#d1e5f0"><title>南澳鄉 Nan&apos;ao Township</title></path>
<path d="M 1109.0791 443.3526 1103.1947 443.9718 1097.3989 442.741 1095.2648 444.6517 1093.3205 453.1799 1090.6471 456.6997 1094.037 464.3689 1093.4562 467.341 1088.6358 470.6789 1088.5368 470.8255 1087.2608 474.3857 1087.1613 474.435 1079.4463 477.7899 1078.6969 477.6483 1059.555 472.8939 1056.2918 478.0229 1047.4345 499.2929 1047.2868 499.6344 1044.7352 498.5785 1044.9323 498.1394 1041.0135 493.7334 1037.0709 493.7561 1035.8627 500.479 1030.2705 500.0731 1030.2243 500.7061 1029.323 508.7412 1026.622 507.7347 1025.8678 515.3309 1020.3242 514.7299 1015.3504 517.7269 1014.1072 518.5126 1010.5258 520.6256 1013.0456 524.7966 1013.5994 525.6208 1017.2776 531.5858 1012.8044 534.8719 1010.3429 532.1606 1003.4537 531.9562 999.3458 529.3515 999.0733 525.3624 991.0338 516.015 988.9178 512.5716 987.1801 505.4274 986.8291 505.1373 984.9797 504.661 984.7296 504.5651 982.3867 505.0649 982.2875 505.1627 978.3233 510.1975 974.9844 511.092 967.6864 509.1372 963.3565 511.3025 960.6496 509.2248 951.7397 513.5077 946.8746 518.2064 946.7756 518.3529 941.2105 513.8573 935.7358 507.6579 930.3406 506.7625 926.5849 504.4955 926.3351 504.4482 921.5759 501.2133 917.384 501.2845 917.5919 511.8926 921.2233 518.7836 924.688 522.5609 927.3308 531.1605 925.133 539.9323 908.6297 525.0318 904.0382 525.105 903.5882 524.9614 902.4201 521.269 890.3652 516.4178 888.652 513.4095 880.0564 511.3622 872.8776 512.9085 867.9358 512.7883 852.9274 506.1017 832.1567 504.5052 824.205 501.3824 817.4111 500.1515 808.4435 503.2627 800.5047 502.6212 791.6273 503.8821 785.0741 500.8974 776.3086 494.6141 770.2112 492.8921 766.5039 490.039 762.5616 490.107 756.7428 484.1494 746.7895 479.6718 736.207 479.1388 735.0922 475.6888 728.6126 477.3258 721.9222 476.6764 717.6847 477.5725 714.924 474.2763 708.0484 476.596 695.4142 474.8546 686.402 479.1792 679.6597 478.0911 683.5456 476.6618 685.0748 472.9074 682.3714 460.5102 685.2454 456.2143 685.8663 450.3229 684.341 444.3441 689.4833 444.9042 698.7499 441.8437 709.8746 441.2561 713.4021 438.0761 720.5908 438.7721 725.7449 441.7648 728.8326 440.5334 732.625 430.3441 735.3339 433.2998 739.1724 432.5513 745.2302 436.6587 758.1072 437.3263 767.2679 433.1936 771.188 428.8431 779.8396 422.8145 779.9883 422.6191 784.9788 422.7891 791.848 429.3735 798.6844 429.4854 802.8086 426.1068 806.2271 421.3691 811.8213 422.5089 818.8993 421.1105 821.2106 424.2134 825.7368 421.4651 824.8631 416.5543 827.4316 411.5286 826.417 408.3218 822.0058 404.3536 824.2786 400.0595 834.1339 395.5806 841.2371 389.6069 840.6177 385.6682 844.1808 380.1506 844.3305 380.1498 847.2071 376.923 853.1092 379.8125 856.4904 377.7023 865.9219 368.796 869.1917 364.545 873.6736 363.0615 873.9214 362.7682 880.8988 361.5149 883.8084 355.2703 890.6253 352.071 897.8527 341.8127 904.2768 339.8318 909.1335 334.0145 916.8344 328.4252 921.566 327.1344 921.7652 327.0847 934.4425 328.476 942.4111 335.1971 952.1287 333.5379 952.3767 333.2932 954.415 332.0653 966.7686 337.8858 971.0495 336.3047 979.2476 339.3737 989.1973 334.6947 993.1983 336.5215 993.5968 336.4219 1003.3684 326.8768 1010.6895 324.9373 1019.3726 325.6179 1016.0631 331.1847 1015.1586 338.6358 1019.1738 342.8469 1024.3222 353.1834 1037.1863 360.6042 1048.183 372.7072 1051.5349 382.713 1061.2897 387.1335 1061.7889 387.1793 1064.9238 394.1689 1067.9274 395.8546 1068.2279 396.0475 1072.8312 398.2592 1073.1813 398.4031 1085.003 397.9441 1090.1511 399.4709 1098.6088 395.5273 1101.21 388.4551 1103.4484 387.3711 1111.3261 386.5452 1111.4252 386.4473 1113.0584 384.2961 1117.3497 392.5437 1115.6284 396.5933 1109.9844 403.7326 1103.8222 415.9361 1104.2002 420.6545 1107.7359 427.69 1108.7624 432.3558 1107.1886 436.1126 1110.2139 441.2531 1109.0791 443.3526 Z" fill="#7fbf7b"><title>礁溪鄉 Jiaoxi Township</title></path>
</g>
</svg>
