<?xml version="1.0" encoding="UTF-8"?>
<svg xmlns="http://www.w3.org/2000/svg" baseProfile="tiny" width="1440" height="906">
  <g id="town" stroke="#000" stroke-width="1">
    <path d="M 591.161 265.9331 587.8945 266.5068 580.3306 264.8293 573.8921 264.4197 573.5873 264.4603 572.7599 264.5826 561.6174 265.0337 557.1138 269.4308 557.0695 269.5989 556.8049 270.3131 556.7162 270.6493 556.6719 270.8174 556.628 270.9014 552.3816 276.0572 544.8017 277.6193 541.0911 279.9578 529.1622 280.9088 529.1187 280.9085 528.6398 280.9482 523.2439 280.8372 514.8633 277.1338 504.2967 275.4812 504.0358 275.4378 499.3329 276.0031 498.8538 276.0849 490.6975 271.1614 486.9825 265.7975 484.8341 260.4416 481.9745 258.028 478.9904 254.4354 477.1976 247.6924 477.1551 247.4818 475.0443 243.3465 468.8533 237.2961 468.8102 237.2117 465.2623 233.3635 465.0023 233.1517 459.5323 230.7664 456.8342 230.8364 450.2393 227.2666 445.6608 220.8875 440.579 219.2193 431.359 218.4549 422.9512 220.43 416.0752 220.6877 407.9159 224.9364 401.527 231.6354 395.7837 231.6041 363.7588 231.68 360.7117 231.9155 343.2239 231.228 342.0059 231.1791 341.1794 231.1323 336.7431 230.8126 339.5075 226.7038 335.7714 218.0129 334.9558 216.0723 327.4889 197.8908 327.4541 196.3755 327.5314 182.8242 325.6192 182.4766 316.1044 172.7422 322.3087 168.0221 331.928 151.7897 338.5295 145.9351 339.4917 145.0147 343.9514 140.9576 345.2197 139.7442 346.7068 138.2796 348.1053 137.1091 348.4987 136.7746 349.7227 135.6873 352.6196 131.032 342.1078 128.5317 342.4218 126.8501 342.38 126.5552 344.8156 126.569 346.119 126.8289 351.3761 127.8686 355.0023 124.985 357.2424 121.0835 361.2043 120.3902 363.8695 118.2166 364.3362 112.5376 366.0685 106.066 372.2004 106.1422 383.8797 101.8719 386.2827 99.865 391.5027 91.7289 393.6898 89.4261 396.4875 86.79 400.1982 84.2009 411.8962 68.1875 415.0605 62.0179 416.5053 52.1354 412.617 47.4849 409.017 45.8241 408.6045 41.6974 410.4046 38.5086 421.5881 36.8434 428.0839 33.6376 430.1518 29.1033 437.7797 17.3598 439.9971 1 442.2414 4.0842 443.2337 5.5204 445.1323 8.224 447.031 10.9275 450.8293 16.1663 452.7724 18.7017 453.7222 19.9693 457.5228 24.8291 459.4237 27.1538 461.2813 29.4362 462.2319 30.5775 463.2259 31.719 464.2631 32.945 467.0297 36.0317 469.8831 39.1609 473.689 43.0947 474.5973 44.0253 477.4961 46.818 479.4002 48.5954 481.3042 50.3729 482.2565 51.2195 483.2087 52.0661 495.5514 61.8513 506.8658 68.7688 513.986 71.0354 515.0715 71.3775 528.1416 75.2307 536.2619 77.5858 538.1726 78.1424 539.345 78.4849 543.9483 79.7702 549.941 81.5252 569.744 87.177 571.9588 87.8189 579.0813 89.8313 581.427 90.3896 589.4607 92.869 593.717 94.0676 597.9296 95.3081 597.5018 121.3571 597.4751 126.9965 597.5166 127.4176 595.7152 131.2388 587.9726 131.3283 583.9121 143.64 583.9113 143.8084 583.8666 144.0607 581.8448 148.4279 580.7169 156.8817 581.5729 159.7898 585.0408 162.3315 584.5428 166.4114 586.1445 168.0604 583.1571 183.2811 588.3059 189.1977 593.5716 188.8439 593.8354 188.256 594.1875 187.416 599.5419 186.6838 605.0022 191.2126 604.7283 203.2057 604.7267 203.5424 606.5669 219.3331 602.4809 218.5143 582.3823 217.9559 580.3928 224.5539 588.8271 225.9409 587.8515 229.8081 590.7058 233.4831 590.6082 235.7132 594.598 238.5097 592.7165 240.7313 590.1895 250.5673 591.3023 254.4866 591.161 265.9331 Z" fill="#2166ac">
      <title>
        麥寮鄉 Mailiao Township
      </title>
    </path>
    <path d="M 1118.7328 228.2901 1120.0359 229.0513 1123.5398 236.3419 1126.2318 238.3695 1126.3613 238.7487 1124.9604 241.7748 1124.872 242.2375 1120.2022 247.1903 1124.0599 252.5039 1124.4811 257.4711 1126.73 262.4013 1133.6415 265.1141 1133.8582 265.4513 1137.1098 269.8372 1137.8049 270.2599 1140.8844 273.9719 1143.844 273.8117 1146.0135 276.1744 1148.677 272.8991 1150.1698 268.0634 1153.2682 264.8313 1156.6443 271.574 1158.193 278.2275 1163.4348 287.2056 1163.5649 287.3743 1163.6951 287.5009 1171.9526 291.7734 1177.9607 290.9054 1177.6716 301.5941 1178.3246 301.5538 1180.0659 301.39 1180.7188 301.3496 1189.7352 298.5112 1193.0325 302.5598 1193.3743 305.0437 1196.804 308.4192 1204.6273 312.7317 1211.0664 313.6737 1215.1081 316.1247 1217.7976 319.7507 1225.9814 319.3079 1233.3274 323.3238 1235.8445 326.402 1238.5025 325.188 1243.8975 326.1267 1251.4723 325.5555 1252.346 324.2108 1252.3898 324.0847 1253.863 326.9499 1251.3708 331.6995 1253.3678 333.9347 1255.5236 342.7354 1258.3953 343.2471 1263.7823 347.8468 1263.036 350.5806 1259.4999 354.9491 1262.6191 361.4794 1262.7054 361.7742 1265.555 372.0073 1263.4137 375.5374 1263.7917 381.5563 1266.184 382.4877 1265.8227 388.1262 1268.7775 390.6159 1268.2893 394.6549 1264.6145 402.3899 1264.3855 407.2712 1266.2108 408.7483 1265.8102 412.535 1263.4123 413.9603 1261.1314 421.2356 1261.1313 421.2777 1256.0341 422.5283 1249.9902 418.9791 1245.5219 412.0667 1237.2964 410.6162 1238.8322 405.654 1233.8438 397.9405 1232.6782 393.8556 1230.4638 391.4093 1229.6899 387.3673 1221.9959 382.5509 1222.3509 379.8163 1219.0902 378.0407 1216.9279 372.2277 1216.58 372.0585 1213.8417 370.3263 1212.5403 368.5134 1210.7686 363.2484 1210.6383 363.1219 1206.6842 360.2081 1198.2794 361.4915 1193.5374 360.3431 1191.7061 361.5167 1186.7444 361.1673 1179.8611 363.2115 1176.0309 362.949 1174.8474 366.0601 1167.6188 366.9248 1163.0136 363.4616 1150.128 363.511 1148.0433 361.7378 1141.9819 365.5509 1141.6766 365.7604 1141.633 365.8024 1141.241 365.8855 1134.5395 364.9832 1134.1482 364.8138 1132.9748 364.0951 1132.7141 363.926 1132.5408 363.6309 1131.3612 365.1427 1133.0433 370.7867 1133.9801 378.3224 1120.9032 384.2197 1114.279 371.323 1105.308 372.4336 1103.9122 373.3975 1103.7813 373.4813 1098.3725 377.1691 1097.3657 379.0599 1092.0971 379.3812 1091.8354 379.5488 1095.3964 382.5893 1095.2099 386.8393 1097.904 388.5726 1101.8239 387.9948 1105.2534 391.4135 1105.4257 392.0453 1103.9689 399.0271 1096.7058 411.3788 1096.8698 414.8723 1096.7392 414.8719 1090.7295 415.2752 1090.4257 414.9376 1090.4258 414.8955 1085.7671 414.8818 1081.8531 413.3131 1081.7229 413.1865 1081.5059 412.9333 1081.4194 412.7647 1081.0723 412.3429 1080.8988 412.1319 1080.2035 411.6669 1079.9861 411.5821 1069.3224 410.4139 1067.0982 411.6277 1056.0063 408.143 1054.2694 406.6227 1054.0952 406.6221 1051.8567 412.5071 1052.0122 418.6098 1052.0538 419.2412 1052.3561 420.0417 1052.3991 420.2102 1055.6862 427.4167 1058.3852 427.6354 1059.5936 431.1741 1059.5495 431.3423 1059.5055 431.5105 1058.4062 435.0423 1058.4497 435.0424 1058.7397 439.9251 1056.4559 446.3149 1052.1734 451.2256 1051.5005 457.6624 1051.4119 458.1672 1038.6656 454.0034 1038.8054 451.058 1033.8468 449.2749 1026.6171 449.6309 1025.0138 447.1428 1018.752 444.4295 1015.9744 441.5168 1013.6659 441.7198 1008.3274 436.3158 1007.6489 430.6743 1007.5185 430.5897 1007.4751 430.5475 1003.5969 431.4608 999.7275 429.6386 998.2719 422.0165 998.5935 416.8833 995.9038 413.8865 992.7284 412.9502 992.7288 412.824 992.6083 409.7514 992.6093 409.4568 995.2775 405.678 991.0295 399.9826 984.9877 396.9746 979.6805 382.6062 983.1771 378.4514 983.1338 378.3671 987.193 375.1822 985.172 367.6002 984.9572 366.7578 984.1815 364.3564 976.7056 360.8806 972.0189 343.5681 974.2433 342.2288 975.1739 337.308 975.3048 337.2243 978.0523 335.6343 975.9412 329.1462 980.865 327.5634 980.3992 323.648 976.9724 320.1435 975.6334 317.0669 976.8177 314.3353 972.6067 311.1227 977.6442 301.4602 978.9388 304.7892 981.463 304.7976 984.742 300.3475 987.6854 292.0666 993.3871 291.9171 996.7071 288.0983 1000.9674 289.5431 1008.3756 286.537 1008.7245 286.2857 1018.4413 282.5714 1026.4871 284.2383 1026.5305 284.2805 1028.5025 279.952 1033.9017 279.0432 1039.7896 274.8952 1039.4134 269.9702 1042.5173 265.3926 1047.2284 261.7458 1047.0182 259.3464 1051.6789 257.8878 1052.7733 255.7448 1060.3481 254.7159 1061.1757 254.4238 1072.4183 249.1551 1077.6401 249.1287 1077.8142 249.1292 1086.394 246.5454 1089.0649 240.914 1089.2401 240.5357 1096.4838 233.4446 1117.0808 227.7804 1118.7328 228.2901 Z" fill="#2166ac">
      <title>
        斗六市 Douliu City
      </title>
    </path>
    <path d="M 977.6442 301.4602 972.6067 311.1227 976.8177 314.3353 975.6334 317.0669 976.9724 320.1435 980.3992 323.648 980.865 327.5634 975.9412 329.1462 978.0523 335.6343 975.3048 337.2243 975.1739 337.308 974.2433 342.2288 972.0189 343.5681 976.7056 360.8806 984.1815 364.3564 984.9572 366.7578 985.172 367.6002 987.193 375.1822 983.1338 378.3671 983.1771 378.4514 979.6805 382.6062 984.9877 396.9746 991.0295 399.9826 995.2775 405.678 992.6093 409.4568 992.6083 409.7514 992.7288 412.824 992.7284 412.9502 995.9038 413.8865 998.5935 416.8833 998.2719 422.0165 999.7275 429.6386 1003.5969 431.4608 1007.4751 430.5475 1007.5185 430.5897 1007.6489 430.6743 1008.3274 436.3158 1013.6659 441.7198 1015.9744 441.5168 1018.752 444.4295 1025.0138 447.1428 1026.6171 449.6309 1033.8468 449.2749 1038.8054 451.058 1038.6656 454.0034 1051.4119 458.1672 1049.9124 464.3069 1052.202 470.332 1055.5881 473.8353 1057.4922 477.7971 1057.1875 477.754 1053.9222 477.4495 1048.6173 474.7818 1038.386 473.8663 1037.2469 476.0511 1037.333 476.3881 1037.3326 476.5143 1034.2361 477.9355 1031.1688 483.9439 1021.9381 483.2834 1021.8073 483.3251 1021.6766 483.3247 1021.4151 483.408 1017.4079 483.5636 1014.651 487.679 1010.6054 486.2351 1005.0734 486.5539 1012.0643 493.0575 1006.5767 493.0398 1001.4745 495.0853 1001.3001 495.1268 998.4651 496.3801 994.9923 492.8758 995.0373 492.4551 992.0727 493.3712 987.4228 490.2837 983.2819 491.3221 979.5384 490.7205 974.1777 491.8809 966.8952 494.6339 959.293 488.8847 955.6222 492.5335 957.519 498.2634 953.0272 499.9735 950.2884 498.4911 949.5932 498.0258 949.3324 497.8566 947.68 497.0934 946.767 496.6273 939.1932 495.3806 936.8204 501.3904 934.5527 502.2241 930.0345 498.9678 919.4018 500.5715 918.8932 496.6138 918.8504 496.4032 918.8084 495.9822 922.8026 474.8701 922.9351 474.3655 926.1267 458.4268 926.2151 458.0484 926.2594 457.8381 927.1462 453.3382 927.1909 453.0017 930.6926 435.4227 930.8253 434.834 931.1368 432.9413 931.0498 432.8989 925.7455 430.6498 923.6745 425.2556 915.6724 422.5759 915.0008 427.7499 912.0014 426.3504 911.8277 426.2235 911.7408 426.1811 911.6105 426.0965 908.171 425.9999 903.0706 427.6649 901.1653 424.7542 901.0946 420.2088 897.4899 417.6707 890.5067 410.3225 890.4199 410.238 886.7261 408.3307 881.7621 408.4807 883.3568 412.9055 882.2062 417.9514 878.1952 419.3675 877.0106 410.0203 873.3963 410.1752 873.1578 415.7716 869.8876 417.0219 864.5917 412.7515 861.7587 413.5405 856.0167 412.13 851.3917 414.7218 846.7754 414.9988 846.5577 414.9979 846.3835 414.9973 846.2094 414.9966 843.5114 414.6075 842.0131 407.9103 837.879 407.3473 834.7401 408.4294 834.6093 408.471 831.0793 409.3411 827.6577 404.6986 819.2439 396.333 820.8659 393.4775 821.0853 393.0576 827.793 381.0475 827.8804 380.9636 831.2121 375.0005 831.5626 374.4127 838.865 377.3448 863.1537 378.2367 870.5521 378.8957 871.891 381.7625 879.0288 382.294 881.3899 379.5252 881.7381 379.5264 885.4268 382.7385 888.2559 382.9172 890.1914 377.4533 890.2365 377.0326 890.1637 373.1185 896.7462 370.6595 898.8455 367.9737 906.1891 371.7037 910.3979 375.5906 910.5287 375.549 911.0179 372.6469 909.5528 368.4753 911.1302 365.6192 907.4829 362.9968 907.3963 362.8703 911.0261 358.2119 911.6468 355.0578 912.0825 354.9331 912.6058 354.6825 912.6493 354.6826 914.8318 353.007 923.7659 350.0929 928.5763 343.7972 932.9755 343.013 937.2827 343.6173 941.682 342.7909 941.9436 342.6656 947.6262 335.7413 946.2987 329.424 940.4591 318.9246 940.5467 318.7566 940.6342 318.6307 945.1434 311.0711 948.023 309.0189 960.6082 306.9999 963.6087 307.7676 972.541 304.7677 977.6442 301.4602 Z" fill="#67a9cf">
      <title>
        斗南鎮 Dounan Township
      </title>
    </path>
    <path d="M 762.7886 255.921 777.2426 254.2127 785.191 257.8643 788.4526 258.3825 794.6789 257.4816 798.8521 258.5505 803.4684 257.643 803.5986 257.7277 808.0326 258.8816 808.3372 258.8828 808.6855 258.8421 813.5603 258.5668 820.6029 260.3199 828.9971 261.4469 829.2145 261.4898 830.518 261.9999 836.3676 268.5037 836.498 268.5462 844.284 269.46 845.8901 270.5182 846.1071 270.6874 846.194 270.7298 846.2373 270.7721 850.5922 269.947 862.5925 272.728 862.8101 272.7288 863.0277 272.7296 863.3323 272.7307 863.9852 272.6911 871.9938 272.3423 872.1675 272.4272 872.3414 272.4699 872.5155 272.4705 891.4008 272.8349 891.9665 272.837 897.9717 272.901 898.2764 272.9021 898.2338 272.6494 896.9645 262.6707 913.02 263.2337 913.107 263.234 920.5906 263.5553 920.8266 258.3797 922.3103 257.2065 929.7941 257.4434 934.0014 261.33 938.1815 260.5871 938.4428 260.5459 943.6677 259.6803 954.3346 258.0338 955.1618 257.9104 971.5206 258.8077 971.9556 258.8512 970.1516 264.737 969.888 265.4937 967.7336 272.0095 974.0234 278.0489 976.4136 279.0248 984.5284 286.038 987.6854 292.0666 984.742 300.3475 981.463 304.7976 978.9388 304.7892 977.6442 301.4602 972.541 304.7677 963.6087 307.7676 960.6082 306.9999 948.023 309.0189 945.1434 311.0711 940.6342 318.6307 940.5467 318.7566 940.4591 318.9246 946.2987 329.424 947.6262 335.7413 941.9436 342.6656 941.682 342.7909 937.2827 343.6173 932.9755 343.013 928.5763 343.7972 923.7659 350.0929 914.8318 353.007 912.6493 354.6826 912.6058 354.6825 912.0825 354.9331 911.6468 355.0578 911.0261 358.2119 907.3963 362.8703 907.4829 362.9968 911.1302 365.6192 909.5528 368.4753 911.0179 372.6469 910.5287 375.549 910.3979 375.5906 906.1891 371.7037 898.8455 367.9737 896.7462 370.6595 890.1637 373.1185 890.2365 377.0326 890.1914 377.4533 888.2559 382.9172 885.4268 382.7385 881.7381 379.5264 881.3899 379.5252 879.0288 382.294 871.891 381.7625 870.5521 378.8957 863.1537 378.2367 838.865 377.3448 831.5626 374.4127 831.2121 375.0005 827.8804 380.9636 827.793 381.0475 821.0853 393.0576 820.8659 393.4775 819.2439 396.333 812.5338 408.7637 809.7743 412.9612 801.1724 419.1556 800.9103 419.365 798.1433 414.4301 799.3254 412.7935 797.8626 408.4108 797.7763 408.2001 795.4526 401.331 792.81 398.0378 794.3508 393.7934 794.3078 393.667 794.1335 393.7083 794.0462 393.7501 781.498 396.1404 781.0187 396.2226 780.5839 396.0946 779.5101 392.471 778.3881 390.0255 776.0886 388.0802 771.8526 391.2614 771.8094 391.177 776.3485 377.6863 785.8616 361.2698 786.0375 360.8496 786.0813 360.7656 786.1254 360.6396 762.6244 359.1548 762.5374 359.1545 762.4503 359.1541 761.9715 359.1522 758.0546 358.9255 757.5324 358.8813 756.7208 365.6536 744.2738 364.8863 741.9958 368.2856 741.8647 368.4113 741.7771 368.5372 741.6899 368.5789 740.6964 366.723 740.567 366.4279 740.4375 366.1748 738.2013 359.6422 739.5574 347.6958 744.8134 339.9322 744.6192 334.3341 745.5307 324.5321 730.1705 323.4994 729.8223 323.4979 728.7568 318.1486 728.7575 317.9802 729.478 302.0331 729.3293 296.0564 730.2325 288.3165 731.9426 285.2936 732.1176 285.084 734.6609 280.5495 744.6849 287.4516 750.3908 286.2971 752.722 280.3728 751.9937 277.5922 746.8922 269.5326 742.4258 265.7683 739.1202 255.0227 744.5204 253.9932 749.5213 254.7717 749.7821 254.8569 755.8335 254.1667 756.1379 254.21 761.5704 255.8739 761.8315 255.8749 762.7886 255.921 Z" fill="#2166ac">
      <title>
        虎尾鎮 Huwei Township
      </title>
    </path>
    <path d="M 895.1808 107.5383 896.3543 107.753 897.4411 107.8832 899.265 108.6474 899.9169 108.776 900.3956 108.6935 900.5696 108.6942 903.5221 110.0516 906.735 111.5783 909.3835 112.8504 909.6874 112.9778 913.8557 114.9287 915.2886 115.6072 917.1559 116.4134 921.8025 118.408 933.7879 123.7531 949.0796 129.0249 950.4272 129.24 963.7262 132.3157 974.3752 134.5402 976.5052 134.9261 980.8937 136.2875 981.2846 136.4571 984.021 137.6026 996.2744 141.4307 1003.1423 142.842 1005.3168 142.9753 1006.0561 143.0198 1007.6217 143.1091 1006.0446 146.5549 1005.6512 147.1429 996.0794 161.0839 985.1925 177.7557 982.3994 180.4398 978.2373 176.1753 968.1439 176.4359 967.4914 176.4337 952.8296 176.8466 952.3476 177.855 952.26 178.023 953.3834 180.2574 945.8049 182.8405 937.3614 183.9474 937.0411 188.4494 943.3058 200.9705 943.4788 201.2657 950.3309 207.6022 950.7647 207.9825 951.0685 208.1939 944.0973 211.0737 943.6973 213.5132 942.3501 225.587 942.3042 226.2602 942.2597 226.5546 941.8032 245.2387 943.6677 259.6803 938.4428 260.5459 938.1815 260.5871 934.0014 261.33 929.7941 257.4434 922.3103 257.2065 920.8266 258.3797 920.5906 263.5553 913.107 263.234 913.02 263.2337 896.9645 262.6707 898.2338 272.6494 898.2764 272.9021 897.9717 272.901 891.9665 272.837 891.4008 272.8349 872.5155 272.4705 872.3414 272.4699 872.1675 272.4272 871.9938 272.3423 863.9852 272.6911 863.3323 272.7307 863.0277 272.7296 862.8101 272.7288 862.5925 272.728 850.5922 269.947 846.2373 270.7721 846.194 270.7298 846.1071 270.6874 845.8901 270.5182 844.284 269.46 836.498 268.5462 836.3676 268.5037 830.518 261.9999 829.2145 261.4898 828.9971 261.4469 820.6029 260.3199 819.6044 248.6164 827.0224 254.4952 827.1533 254.4115 827.5471 253.866 827.5911 253.7399 830.3869 250.931 840.5298 249.876 840.5306 249.6656 840.4884 249.3288 840.446 249.034 839.0953 238.1708 850.457 236.8676 852.7684 235.4876 853.075 234.9417 853.9072 233.514 853.951 233.43 844.6049 231.1217 845.3118 228.3047 836.7923 226.0835 843.3761 222.4895 843.7687 222.2385 847.7802 219.9813 851.642 211.3265 847.7127 203.4837 848.5889 201.8878 848.546 201.7193 848.505 201.0878 848.2879 200.9607 832.1744 193.9126 830.6733 188.3515 835.3475 183.3615 835.7845 182.8582 836.6581 181.9357 837.0516 181.4322 837.7649 176.9739 844.224 171.5697 843.0869 161.8016 843.0445 161.5068 843.0014 161.4225 843.0017 161.3383 843.2911 153.9324 843.2921 153.6799 843.2986 151.9965 843.6561 149.5148 843.5712 148.9674 843.5723 148.6728 843.3163 147.3672 843.2303 147.1143 845.2004 143.7972 846.1875 124.5679 843.8914 122.2023 843.892 122.034 843.9362 121.8658 843.9375 121.5292 843.9384 121.2766 843.9837 120.8139 844.0288 120.3932 844.203 120.3518 846.3336 120.4862 846.799 112.5338 853.6213 114.117 859.8293 105.6393 863.0535 104.0943 871.7563 102.8644 879.1633 99.2306 879.4683 99.0633 879.6861 98.98 882.2877 101.0939 883.4161 101.7293 888.7053 106.252 888.8788 106.3789 889.444 106.423 890.3567 106.5947 891.6172 106.8098 894.0073 107.3235 894.3551 107.3669 895.1808 107.5383 Z" fill="#d9f0d3">
      <title>
        西螺鎮 Xiluo Township
      </title>
    </path>
    <path d="M 739.1202 255.0227 742.4258 265.7683 746.8922 269.5326 751.9937 277.5922 752.722 280.3728 750.3908 286.2971 744.6849 287.4516 734.6609 280.5495 732.1176 285.084 731.9426 285.2936 730.2325 288.3165 729.3293 296.0564 729.478 302.0331 728.7575 317.9802 728.7568 318.1486 729.8223 323.4979 730.1705 323.4994 745.5307 324.5321 744.6192 334.3341 744.8134 339.9322 739.5574 347.6958 738.2013 359.6422 740.4375 366.1748 740.567 366.4279 740.6964 366.723 741.6899 368.5789 741.7771 368.5372 741.8647 368.4113 741.9958 368.2856 744.2738 364.8863 756.7208 365.6536 757.5324 358.8813 758.0546 358.9255 761.9715 359.1522 762.4503 359.1541 762.5374 359.1545 762.6244 359.1548 786.1254 360.6396 786.0813 360.7656 786.0375 360.8496 785.8616 361.2698 776.3485 377.6863 771.8094 391.177 771.8526 391.2614 776.0886 388.0802 778.3881 390.0255 779.5101 392.471 780.5839 396.0946 781.0187 396.2226 781.498 396.1404 794.0462 393.7501 794.1335 393.7083 794.3078 393.667 794.3508 393.7934 792.81 398.0378 795.4526 401.331 797.7763 408.2001 797.8626 408.4108 799.3254 412.7935 798.1433 414.4301 800.9103 419.365 783.7513 431.1219 779.376 436.3227 771.374 444.5387 765.1611 451.7517 764.7235 452.255 762.4028 455.3597 757.3625 452.6875 750.0114 450.7211 746.7007 451.0019 746.5706 450.8751 746.4401 450.8324 746.3966 450.8323 746.3095 450.8319 736.6402 451.3384 731.5776 454.0104 712.042 460.2818 711.9547 460.3235 711.0395 460.4879 710.5167 460.5278 704.9368 461.8925 700.0053 464.3541 699.7004 464.3527 699.6569 464.3526 692.2111 464.1517 681.61 468.4399 676.5246 466.229 671.8432 471.1321 671.8 471.0477 673.8755 464.5759 673.6995 455.1482 672.4569 450.5975 672.2831 450.5125 672.3275 450.3023 672.3287 450.0498 672.9198 444.4131 677.3746 431.5549 677.3755 431.3445 674.0919 425.5643 674.0493 425.3537 676.4536 413.3702 671.8816 413.434 671.6744 401.2706 666.5364 401.3739 666.5374 401.1635 666.4334 395.187 668.8541 389.3059 673.5083 390.2525 674.7529 384.4924 676.3277 382.7739 676.3279 382.7318 671.1735 376.817 665.1007 371.908 660.4277 365.5322 658.0092 361.2287 659.4398 352.8602 659.4862 352.2291 659.5761 351.5983 660.5684 343.8591 661.0904 343.9456 667.9577 346.2489 671.6147 346.139 669.7628 341.6697 669.2457 340.489 664.8518 330.2006 667.6362 330.5077 668.2452 330.5946 676.1641 331.2611 679.309 309.0962 686.6258 307.9922 685.444 299.6121 686.1261 292.9656 689.616 291.0871 690.3566 290.922 695.666 290.9453 695.7536 290.8194 694.1288 274.2307 694.0858 274.1043 690.7037 271.3119 685.0809 273.3493 684.4576 276.545 679.1589 274.1648 671.198 273.4982 664.2504 270.1003 660.3931 266.5899 659.8726 266.2088 654.9287 262.4409 650.7335 256.7404 654.6317 251.1186 657.5019 251.5103 657.8937 251.47 669.6461 250.681 682.3763 255.1145 688.5834 258.6349 691.4377 262.6876 699.7174 260.0303 702.7188 260.2959 706.8411 263.0072 716.984 262.1672 717.2887 262.1264 717.7244 262.002 724.393 259.5054 730.7517 258.2278 734.8537 255.5097 739.1202 255.0227 Z" fill="#2166ac">
      <title>
        土庫鎮 Tuku Township
      </title>
    </path>
    <path d="M 556.6878 491.512 570.2213 493.8501 570.3518 493.8928 576.1837 494.7625 576.4883 494.806 576.214 497.5402 588.3992 499.5764 589.203 504.5883 589.2899 504.6308 584.9935 519.7188 595.3168 519.6415 595.7122 528.1865 601.5784 531.2022 594.887 536.9362 594.9739 536.9787 606.6379 539.0957 606.4554 540.8624 616.8227 540.8687 616.4881 547.264 627.7669 548.0316 628.3766 548.0765 630.4875 553.2205 630.6618 553.2213 647.6899 554.2249 649.9002 556.76 654.2201 555.1382 654.5458 560.2319 661.7339 560.18 661.8642 560.2648 661.6441 560.7688 661.4246 561.1466 662.2106 570.4929 660.1726 578.101 657.0678 580.6963 656.8298 585.1982 656.7823 586.0818 656.4996 600.5576 655.9034 607.2042 652.9242 610.8521 647.415 615.1198 646.278 616.0405 639.7254 619.7562 631.1337 621.4844 614.558 615.979 610.2001 616.127 609.6769 616.2087 609.1537 616.2905 606.1899 616.487 603.8227 619.5481 604.5465 623.1707 605.1528 623.9732 605.3693 624.2688 606.0619 625.24 607.2301 627.013 609.917 630.1819 610.3066 630.7308 611.936 636.4198 611.9348 636.6723 606.9931 640.4789 602.5018 641.1312 600.7604 640.7863 598.7144 640.3559 598.3661 640.27 597.7567 640.1409 596.1024 639.7965 594.361 639.4516 586.8302 637.8167 578.2425 638.5333 573.5236 641.2041 570.4996 644.8088 570.2005 652.6771 571.9109 659.503 572.2557 660.3043 573.5321 666.7914 573.3122 667.2112 565.3532 672.9384 557.4034 676.6875 552.6953 676.9592 546.4878 680.8428 541.2575 680.9434 541.4499 677.2409 538.3926 669.6928 540.1751 661.6634 535.6071 660.0838 535.9307 656.2978 535.9336 655.7086 535.1197 652.8429 538.9327 639.5209 539.0207 639.353 539.108 639.3114 544.109 641.3981 545.1215 630.3769 547.6712 625.7601 547.1926 625.6315 547.1056 625.589 537.751 622.8076 539.4637 620.0805 534.8762 613.7452 529.5282 611.4462 525.5632 611.4686 523.004 609.1412 523.5023 605.314 518.7543 605.0799 518.9864 593.4657 519.031 593.2555 523.8663 593.4059 523.9287 589.6186 528.4525 591.0719 528.615 584.6338 528.6173 584.1709 528.8856 582.7834 534.563 579.9918 529.606 569.2357 531.059 566.1287 530.8748 559.31 533.8663 553.3909 533.8667 553.3067 533.8673 553.1805 535.6325 548.5599 536.01 542.6699 535.7928 542.5426 529.0422 542.2987 529.6505 533.8006 524.7812 531.9247 524.8262 531.6303 524.7554 528.3474 522.3298 525.5998 524.1634 515.9715 524.1649 515.6769 523.9917 515.4656 525.3284 509.412 528.7329 499.1603 531.6443 500.5214 536.3092 499.5765 536.6576 499.5783 539.2268 499.6751 539.7086 490.2505 556.6878 491.512 Z" fill="#d1e5f0">
      <title>
        北港鎮 Beigang Township
      </title>
    </path>
    <path d="M 1261.1313 421.2777 1261.1711 422.877 1253.7097 429.6772 1252.1687 436.9542 1251.9943 437.0379 1251.2095 437.4569 1251.1221 437.625 1248.9337 442.3754 1248.9336 442.4175 1242.7601 456.6273 1243.012 460.5838 1244.8332 463.8706 1242.6442 468.7472 1243.3274 474.4722 1236.4706 482.6201 1236.4261 482.9988 1231.2674 491.1927 1233.0898 493.9747 1232.9931 497.9724 1230.5458 501.4174 1232.7959 507.525 1234.9883 519.5242 1238.2039 522.6882 1238.2908 522.7726 1240.1584 525.0496 1243.4725 523.4583 1249.9429 513.2472 1253.8677 511.1943 1258.3224 505.9863 1259.9777 505.8639 1262.3865 500.104 1265.4353 500.0689 1270.0899 502.5205 1274.7504 502.4048 1278.8826 504.8129 1276.8165 513.2671 1277.4997 519.3708 1274.5548 531.1477 1274.5111 531.2317 1275.947 531.9083 1278.7339 532.2513 1288.6551 536.8606 1293.5629 543.4365 1299.9692 542.0617 1308.978 545.8266 1320.7868 544 1325.7563 542.2428 1335.382 542.7256 1335.7741 542.7264 1340.5734 538.9066 1341.8602 527.2099 1352.4974 522.602 1362.7315 523.4638 1372.3912 528.7008 1378.706 529.2599 1382.3269 526.2788 1388.9495 525.2811 1396.3178 521.3808 1396.3692 517.0463 1394.3403 507.0687 1394.3404 507.0267 1394.4278 506.8585 1394.6025 506.6063 1397.2625 504.8436 1397.742 504.6341 1398.0908 504.4243 1398.4831 504.2567 1404.1479 502.6677 1404.3658 502.6261 1408.317 509.4507 1408.4039 509.6192 1413.7895 518.2138 1417.6196 519.8618 1417.9682 519.7783 1421.2718 523.6557 1424.9287 524.7562 1425.7989 525.3048 1428.7132 527.6665 1429.7439 536.2954 1428.9049 542.9853 1425.1514 547.2714 1420.834 550.0835 1416.5952 557.7775 1422.9466 562.8385 1424.289 567.5121 1432.0804 571.3972 1427.4518 577.7018 1427.4039 580.2267 1427.5777 580.5216 1432.4 588.5257 1431.6545 591.3861 1434.6495 597.9983 1434.1186 602.837 1431.318 610.0286 1431.3982 614.1529 1436.7946 617.9495 1438.9209 623.2135 1439 628.0532 1434.2088 626.9089 1433.7295 626.9081 1423.5309 628.3636 1415.9985 625.068 1406.9708 629.5971 1406.7963 629.723 1401.2615 630.2601 1400.3954 627.2707 1393.2515 626.0793 1390.1559 627.1678 1387.1977 624.5531 1386.6446 617.3558 1377.144 618.3901 1366.6487 615.5083 1354.5797 615.3585 1354.2746 615.4421 1354.231 615.442 1347.1236 618.0791 1340.8469 619.2448 1335.4781 623.8631 1331.64 625.7069 1322.617 627.2873 1319.9615 626.1455 1317.3557 622.0579 1315.9297 616.4157 1311.9763 610.9364 1307.7468 612.4003 1301.2978 612.5968 1292.3595 615.4811 1287.2457 622.6661 1282.6675 624.0867 1273.2133 623.6025 1270.6467 621.745 1270.2617 618.5879 1267.3934 615.3409 1264.3008 614.9129 1264.1261 615.0809 1264.0824 615.1228 1260.2426 617.5127 1259.072 614.985 1259.1159 614.8589 1259.1161 614.7747 1258.9497 611.3655 1261.3521 608.7619 1264.141 608.5579 1269.7333 601.8374 1270.2268 595.568 1266.3507 594.9279 1266.1418 591.0137 1269.0287 586.0123 1269.8675 581.1325 1267.0821 579.9057 1266.7774 579.7788 1262.2915 579.1793 1259.6744 580.562 1251.8747 581.133 1234.0433 586.5193 1226.1598 585.6585 1226.1162 585.6584 1219.6228 586.4421 1219.0896 590.6912 1214.9428 593.8793 1213.5417 596.6534 1213.3234 596.8633 1211.0095 598.7933 1204.5676 596.2522 1199.5524 598.1754 1193.574 601.9056 1187.1779 598.5645 1179.3735 600.6905 1174.0153 600.3819 1169.5787 597.5506 1164.3547 595.9797 1159.0815 596.5127 1159.038 596.4705 1154.2921 595.3214 1154.2486 595.3213 1145.9549 601.1063 1138.3691 602.811 1132.8429 600.2286 1129.3149 599.84 1124.5788 595.2396 1124.4922 595.0289 1118.0134 590.4656 1111.1282 590.9931 1107.8712 587.3225 1104.5171 587.1025 1104.3428 587.102 1102.2949 587.2223 1097.9328 589.0614 1097.8458 589.019 1092.578 587.6991 1090.1606 580.0327 1081.7154 577.8195 1074.8745 578.1779 1064.9457 576.8014 1053.1407 576.3867 1050.4012 574.737 1050.3577 574.6948 1045.1396 571.5645 1043.0174 567.5178 1037.6664 565.1445 1034.8538 559.0335 1025.1682 549.9128 1018.4733 545.6411 1014.1788 540.0301 1014.1353 539.9879 1014.092 539.9036 1009.6717 532.8193 1004.5946 526.869 1000.379 523.9515 998.784 518.8541 995.3953 516.1917 992.8904 509.6605 993.6055 504.1077 993.7808 503.7716 995.1893 499.2311 992.0727 493.3712 995.0373 492.4551 994.9923 492.8758 998.4651 496.3801 1001.3001 495.1268 1001.4745 495.0853 1006.5767 493.0398 1012.0643 493.0575 1005.0734 486.5539 1010.6054 486.2351 1014.651 487.679 1017.4079 483.5636 1021.4151 483.408 1021.6766 483.3247 1021.8073 483.3251 1021.9381 483.2834 1031.1688 483.9439 1034.2361 477.9355 1037.3326 476.5143 1037.333 476.3881 1037.2469 476.0511 1038.386 473.8663 1048.6173 474.7818 1053.9222 477.4495 1057.1875 477.754 1057.4922 477.7971 1055.5881 473.8353 1052.202 470.332 1049.9124 464.3069 1051.4119 458.1672 1051.5005 457.6624 1052.1734 451.2256 1056.4559 446.3149 1058.7397 439.9251 1058.4497 435.0424 1058.4062 435.0423 1059.5055 431.5105 1059.5495 431.3423 1059.5936 431.1741 1058.3852 427.6354 1055.6862 427.4167 1052.3991 420.2102 1052.3561 420.0417 1052.0538 419.2412 1052.0122 418.6098 1051.8567 412.5071 1054.0952 406.6221 1054.2694 406.6227 1056.0063 408.143 1067.0982 411.6277 1069.3224 410.4139 1079.9861 411.5821 1080.2035 411.6669 1080.8988 412.1319 1081.0723 412.3429 1081.4194 412.7647 1081.5059 412.9333 1081.7229 413.1865 1081.8531 413.3131 1085.7671 414.8818 1090.4258 414.8955 1090.4257 414.9376 1090.7295 415.2752 1096.7392 414.8719 1096.8698 414.8723 1096.7058 411.3788 1103.9689 399.0271 1105.4257 392.0453 1105.2534 391.4135 1101.8239 387.9948 1097.904 388.5726 1095.2099 386.8393 1095.3964 382.5893 1091.8354 379.5488 1092.0971 379.3812 1097.3657 379.0599 1098.3725 377.1691 1103.7813 373.4813 1103.9122 373.3975 1105.308 372.4336 1114.279 371.323 1120.9032 384.2197 1133.9801 378.3224 1133.0433 370.7867 1131.3612 365.1427 1132.5408 363.6309 1132.7141 363.926 1132.9748 364.0951 1134.1482 364.8138 1134.5395 364.9832 1141.241 365.8855 1141.633 365.8024 1141.6766 365.7604 1141.9819 365.5509 1148.0433 361.7378 1150.128 363.511 1163.0136 363.4616 1167.6188 366.9248 1174.8474 366.0601 1176.0309 362.949 1179.8611 363.2115 1186.7444 361.1673 1191.7061 361.5167 1193.5374 360.3431 1198.2794 361.4915 1206.6842 360.2081 1210.6383 363.1219 1210.7686 363.2484 1212.5403 368.5134 1213.8417 370.3263 1216.58 372.0585 1216.9279 372.2277 1219.0902 378.0407 1222.3509 379.8163 1221.9959 382.5509 1229.6899 387.3673 1230.4638 391.4093 1232.6782 393.8556 1233.8438 397.9405 1238.8322 405.654 1237.2964 410.6162 1245.5219 412.0667 1249.9902 418.9791 1256.0341 422.5283 1261.1313 421.2777 Z" fill="#67a9cf">
      <title>
        古坑鄉 Gukeng Township
      </title>
    </path>
    <path d="M 919.4018 500.5715 919.097 500.5704 917.4854 500.6068 910.4235 502.3491 904.1516 502.3687 899.8267 506.0144 894.0253 508.3921 885.4494 507.1823 889.9462 504.2529 891.4816 501.2285 887.6988 499.4892 884.6852 501.7927 881.8984 501.6141 881.0278 501.4847 876.9769 501.5959 872.1477 500.1892 868.8243 503.754 866.1462 509.4675 860.1401 508.2665 856.1731 509.2195 854.8965 512.7919 858.0714 514.0243 856.0954 518.2673 852.1404 515.9798 847.9044 518.9096 846.7981 523.4926 846.0975 524.4578 837.9987 523.7114 834.2008 525.8851 833.1134 525.5022 828.9833 523.4661 827.4727 519.8831 827.1467 514.0742 825.1988 510.9524 818.9519 515.6835 816.8483 519 813.024 516.7965 811.077 513.4642 804.8592 510.7883 799.0668 510.6811 798.8114 498.2231 798.8173 496.7502 795.7006 491.9401 789.1137 494.565 788.0187 496.1177 791.3718 507.1152 775.7117 513.0279 775.5371 513.1114 772.7942 512.8477 771.4719 516.6719 765.1934 518.2454 763.8855 518.5346 760.2229 519.4875 755.4015 526.7902 752.7626 532.9236 753.8364 536.5894 748.7301 538.967 747.5404 542.2446 747.409 542.4124 747.2337 542.6642 741.0908 542.891 730.0231 543.686 723.5163 547.5301 721.0348 547.1829 725.887 532.8948 731.1725 529.3822 739.5116 514.309 739.5994 514.141 746.1437 501.0802 746.451 500.4923 750.1862 492.5118 750.4935 491.9239 753.6588 484.7827 760.4608 461.6643 760.5929 461.3282 761.3874 458.7222 761.5198 458.3019 762.4028 455.3597 764.7235 452.255 765.1611 451.7517 771.374 444.5387 779.376 436.3227 783.7513 431.1219 800.9103 419.365 801.1724 419.1556 809.7743 412.9612 812.5338 408.7637 819.2439 396.333 827.6577 404.6986 831.0793 409.3411 834.6093 408.471 834.7401 408.4294 837.879 407.3473 842.0131 407.9103 843.5114 414.6075 846.2094 414.9966 846.3835 414.9973 846.5577 414.9979 846.7754 414.9988 851.3917 414.7218 856.0167 412.13 861.7587 413.5405 864.5917 412.7515 869.8876 417.0219 873.1578 415.7716 873.3963 410.1752 877.0106 410.0203 878.1952 419.3675 882.2062 417.9514 883.3568 412.9055 881.7621 408.4807 886.7261 408.3307 890.4199 410.238 890.5067 410.3225 897.4899 417.6707 901.0946 420.2088 901.1653 424.7542 903.0706 427.6649 908.171 425.9999 911.6105 426.0965 911.7408 426.1811 911.8277 426.2235 912.0014 426.3504 915.0008 427.7499 915.6724 422.5759 923.6745 425.2556 925.7455 430.6498 931.0498 432.8989 931.1368 432.9413 930.8253 434.834 930.6926 435.4227 927.1909 453.0017 927.1462 453.3382 926.2594 457.8381 926.2151 458.0484 926.1267 458.4268 922.9351 474.3655 922.8026 474.8701 918.8084 495.9822 918.8504 496.4032 918.8932 496.6138 919.4018 500.5715 Z" fill="#67a9cf">
      <title>
        大埤鄉 Dabi Township
      </title>
    </path>
    <path d="M 1143.9018 157.6578 1145.0745 158.3344 1146.8557 159.1389 1148.8109 159.9859 1149.8103 160.4095 1150.3319 160.5372 1154.0714 161.0944 1162.681 162.3381 1163.4642 162.2981 1161.6297 165.0708 1160.8429 166.4996 1160.4909 167.9716 1156.1216 175.0722 1155.6407 175.9546 1152.5378 181.2068 1149.4426 183.5552 1148.3009 187.466 1142.8522 191.3228 1134.0528 195.4649 1134.0005 198.6211 1129.8143 202.0604 1129.6833 202.2284 1129.6832 202.2705 1129.4134 205.384 1119.1317 210.3631 1119.5211 226.4827 1118.7328 228.2901 1117.0808 227.7804 1096.4838 233.4446 1089.2401 240.5357 1089.0649 240.914 1086.394 246.5454 1077.8142 249.1292 1077.6401 249.1287 1072.4183 249.1551 1061.1757 254.4238 1060.3481 254.7159 1052.7733 255.7448 1051.6789 257.8878 1047.0182 259.3464 1047.2284 261.7458 1042.5173 265.3926 1039.4134 269.9702 1039.7896 274.8952 1033.9017 279.0432 1028.5025 279.952 1026.5305 284.2805 1026.4871 284.2383 1018.4413 282.5714 1008.7245 286.2857 1008.3756 286.537 1000.9674 289.5431 996.7071 288.0983 993.3871 291.9171 987.6854 292.0666 984.5284 286.038 976.4136 279.0248 974.0234 278.0489 967.7336 272.0095 969.888 265.4937 970.1516 264.737 971.9556 258.8512 971.5206 258.8077 955.1618 257.9104 954.3346 258.0338 943.6677 259.6803 941.8032 245.2387 942.2597 226.5546 942.3042 226.2602 942.3501 225.587 943.6973 213.5132 944.0973 211.0737 951.0685 208.1939 950.7647 207.9825 950.3309 207.6022 943.4788 201.2657 943.3058 200.9705 937.0411 188.4494 937.3614 183.9474 945.8049 182.8405 953.3834 180.2574 952.26 178.023 952.3476 177.855 952.8296 176.8466 967.4914 176.4337 968.1439 176.4359 978.2373 176.1753 982.3994 180.4398 985.1925 177.7557 996.0794 161.0839 1005.6512 147.1429 1006.0446 146.5549 1007.6217 143.1091 1015.1019 143.512 1016.0153 143.5149 1023.1052 143.5797 1030.7141 144.5718 1032.6273 144.7883 1034.5404 145.0468 1035.671 145.1345 1035.8015 145.1349 1035.845 145.1351 1036.4105 145.1368 1037.5416 145.0562 1039.4144 144.3045 1048.5162 140.7977 1052.0841 140.43 1052.7364 140.474 1053.6932 140.5191 1060.4334 141.0868 1066.0024 140.6408 1070.7885 140.1503 1080.1818 140.8097 1080.5732 140.8529 1081.0515 140.8964 1084.3112 141.7478 1094.5249 144.5134 1098.6492 147.261 1123.8236 151.0787 1133.0388 153.4192 1143.9018 157.6578 Z" fill="#d9f0d3">
      <title>
        莿桐鄉 Citong Township
      </title>
    </path>
    <path d="M 1253.9624 173.1729 1256.5137 179.7441 1257.8997 182.3566 1268.219 197.3627 1268.4357 197.7419 1279.16 226.6364 1279.3762 227.2261 1284.0439 241.2928 1281.6266 252.019 1281.495 252.4816 1281.4073 252.776 1281.0624 270.7454 1283.651 280.7673 1283.6507 280.8935 1280.9069 281.8553 1274.1258 278.3891 1272.2524 279.3107 1264.2024 278.9134 1261.7253 277.3927 1259.6636 284.4581 1256.9524 290.0069 1253.3844 289.7461 1253.3406 289.8301 1252.3189 298.6655 1256.1284 307.428 1253.808 313.2723 1254.3203 317.524 1252.3464 324.0425 1252.3898 324.0847 1252.346 324.2108 1251.4723 325.5555 1243.8975 326.1267 1238.5025 325.188 1235.8445 326.402 1233.3274 323.3238 1225.9814 319.3079 1217.7976 319.7507 1215.1081 316.1247 1211.0664 313.6737 1204.6273 312.7317 1196.804 308.4192 1193.3743 305.0437 1193.0325 302.5598 1189.7352 298.5112 1180.7188 301.3496 1180.0659 301.39 1178.3246 301.5538 1177.6716 301.5941 1177.9607 290.9054 1171.9526 291.7734 1163.6951 287.5009 1163.5649 287.3743 1163.4348 287.2056 1158.193 278.2275 1156.6443 271.574 1153.2682 264.8313 1150.1698 268.0634 1148.677 272.8991 1146.0135 276.1744 1143.844 273.8117 1140.8844 273.9719 1137.8049 270.2599 1137.1098 269.8372 1133.8582 265.4513 1133.6415 265.1141 1126.73 262.4013 1124.4811 257.4711 1124.0599 252.5039 1120.2022 247.1903 1124.872 242.2375 1124.9604 241.7748 1126.3613 238.7487 1126.2318 238.3695 1123.5398 236.3419 1120.0359 229.0513 1118.7328 228.2901 1119.5211 226.4827 1119.1317 210.3631 1129.4134 205.384 1129.6832 202.2705 1129.6833 202.2284 1129.8143 202.0604 1134.0005 198.6211 1134.0528 195.4649 1142.8522 191.3228 1148.3009 187.466 1149.4426 183.5552 1152.5378 181.2068 1155.6407 175.9546 1156.1216 175.0722 1160.4909 167.9716 1160.8429 166.4996 1161.6297 165.0708 1163.4642 162.2981 1171.4246 162.3193 1185.954 162.189 1188.825 162.1965 1191.4786 162.1612 1193.8714 162.0411 1194.3933 162.0845 1194.8718 162.0858 1195.7851 162.1723 1198.7428 162.3061 1204.747 161.8163 1204.9209 161.8588 1205.5732 161.9446 1208.1383 162.4982 1208.2253 162.4984 1219.923 164.0847 1228.0121 164.8621 1229.1868 164.7808 1234.5361 165.3409 1235.7532 165.7226 1238.6219 166.6975 1242.7879 170.9159 1243.3089 171.338 1245.9611 171.9335 1250.8312 172.7868 1253.9624 173.1729 Z" fill="#d1e5f0">
      <title>
        林內鄉 Linnei Township
      </title>
    </path>
    <path d="M 879.6861 98.98 879.4683 99.0633 879.1633 99.2306 871.7563 102.8644 863.0535 104.0943 859.8293 105.6393 853.6213 114.117 846.799 112.5338 846.3336 120.4862 844.203 120.3518 844.0288 120.3932 843.9837 120.8139 843.9384 121.2766 843.9375 121.5292 843.9362 121.8658 843.892 122.034 843.8914 122.2023 846.1875 124.5679 845.2004 143.7972 843.2303 147.1143 843.3163 147.3672 843.5723 148.6728 843.5712 148.9674 843.6561 149.5148 843.2986 151.9965 843.2921 153.6799 843.2911 153.9324 843.0017 161.3383 843.0014 161.4225 843.0445 161.5068 843.0869 161.8016 844.224 171.5697 837.7649 176.9739 837.0516 181.4322 836.6581 181.9357 835.7845 182.8582 835.3475 183.3615 830.6733 188.3515 832.1744 193.9126 848.2879 200.9607 848.505 201.0878 848.546 201.7193 848.5889 201.8878 847.7127 203.4837 851.642 211.3265 847.7802 219.9813 843.7687 222.2385 843.3761 222.4895 836.7923 226.0835 845.3118 228.3047 844.6049 231.1217 853.951 233.43 853.9072 233.514 853.075 234.9417 852.7684 235.4876 850.457 236.8676 839.0953 238.1708 840.446 249.034 840.4884 249.3288 840.5306 249.6656 840.5298 249.876 830.3869 250.931 827.5911 253.7399 827.5471 253.866 827.1533 254.4115 827.0224 254.4952 819.6044 248.6164 820.6029 260.3199 813.5603 258.5668 808.6855 258.8421 808.3372 258.8828 808.0326 258.8816 803.5986 257.7277 803.4684 257.643 798.8521 258.5505 794.6789 257.4816 788.4526 258.3825 785.191 257.8643 777.2426 254.2127 762.7886 255.921 765.0522 245.1565 765.0388 237.8336 766.5835 232.5373 766.6081 226.5613 766.6525 226.351 767.5476 220.2944 755.984 217.8899 754.6108 213.2969 754.437 213.2541 754.0458 213.1683 753.9588 213.1679 744.7887 210.7307 744.702 210.6462 739.0141 207.8867 719.4583 202.6271 718.9806 202.4146 705.1618 198.6515 705.1187 198.5672 705.0752 198.567 705.032 198.4826 707.4844 184.7313 709.0274 180.0244 713.7211 181.0968 719.6174 185.7936 724.356 176.3868 724.2695 176.2602 721.896 171.789 713.7499 164.3049 709.4471 163.4446 709.3601 163.4442 706.7506 163.3067 706.4025 163.3472 704.4006 163.549 704.2702 163.5063 703.9661 163.4208 696.4504 161.1575 692.6754 158.9947 695.2136 145.5805 696.7451 133.5507 688.9034 126.488 693.4916 111.7361 692.9347 109.7978 692.0435 94.8534 693.9137 94.8196 695.61 94.7849 703.4853 93.9355 710.535 92.9139 710.7528 92.8306 710.84 92.7889 717.5972 88.9883 730.3699 81.8041 736.763 81.705 739.8069 81.7599 755.2442 81.9508 760.0694 82.4338 768.5027 83.2261 772.0673 83.5775 775.632 83.8866 779.8489 84.2405 782.8482 84.5894 783.9787 84.6361 785.1525 84.725 789.6736 85.1221 793.6733 85.4328 794.9774 85.5643 806.845 86.748 816.9808 85.9884 817.6767 85.9491 819.3294 85.9135 820.2427 85.9171 822.6786 85.7583 832.1349 80.787 839.4931 78.5007 852.1895 78.9702 860.3909 83.6307 864.6441 85.9194 864.8174 86.0884 865.0773 86.384 866.5481 88.4517 869.3612 92.0816 870.1409 92.9262 873.3046 95.884 879.6861 98.98 Z" fill="#d9f0d3">
      <title>
        二崙鄉 Erlun Township
      </title>
    </path>
    <path d="M 692.0435 94.8534 692.9347 109.7978 693.4916 111.7361 688.9034 126.488 696.7451 133.5507 695.2136 145.5805 692.6754 158.9947 696.4504 161.1575 703.9661 163.4208 704.2702 163.5063 704.4006 163.549 706.4025 163.3472 706.7506 163.3067 709.3601 163.4442 709.4471 163.4446 713.7499 164.3049 721.896 171.789 724.2695 176.2602 724.356 176.3868 719.6174 185.7936 713.7211 181.0968 709.0274 180.0244 707.4844 184.7313 705.032 198.4826 705.0752 198.567 705.1187 198.5672 705.1618 198.6515 718.9806 202.4146 719.4583 202.6271 739.0141 207.8867 744.702 210.6462 744.7887 210.7307 753.9588 213.1679 754.0458 213.1683 754.437 213.2541 754.6108 213.2969 755.984 217.8899 767.5476 220.2944 766.6525 226.351 766.6081 226.5613 766.5835 232.5373 765.0388 237.8336 765.0522 245.1565 762.7886 255.921 761.8315 255.8749 761.5704 255.8739 756.1379 254.21 755.8335 254.1667 749.7821 254.8569 749.5213 254.7717 744.5204 253.9932 739.1202 255.0227 734.8537 255.5097 730.7517 258.2278 724.393 259.5054 717.7244 262.002 717.2887 262.1264 716.984 262.1672 706.8411 263.0072 702.7188 260.2959 699.7174 260.0303 691.4377 262.6876 688.5834 258.6349 682.3763 255.1145 669.6461 250.681 657.8937 251.47 657.5019 251.5103 654.6317 251.1186 650.7335 256.7404 649.6031 256.5249 648.9502 256.564 641.3746 257.4133 636.2975 254.3178 636.0366 254.2745 635.7324 254.189 623.3251 255.3943 614.9535 258.9748 613.3256 262.7969 604.9695 263.0103 604.8387 263.0518 604.6208 263.1349 604.5337 263.1345 598.1261 265.419 591.161 265.9331 591.3023 254.4866 590.1895 250.5673 592.7165 240.7313 594.598 238.5097 590.6082 235.7132 590.7058 233.4831 587.8515 229.8081 588.8271 225.9409 580.3928 224.5539 582.3823 217.9559 602.4809 218.5143 606.5669 219.3331 604.7267 203.5424 604.7283 203.2057 605.0022 191.2126 599.5419 186.6838 594.1875 187.416 593.8354 188.256 593.5716 188.8439 588.3059 189.1977 583.1571 183.2811 586.1445 168.0604 584.5428 166.4114 585.0408 162.3315 581.5729 159.7898 580.7169 156.8817 581.8448 148.4279 583.8666 144.0607 583.9113 143.8084 583.9121 143.64 587.9726 131.3283 595.7152 131.2388 597.5166 127.4176 597.4751 126.9965 597.5018 121.3571 597.9296 95.3081 609.6995 98.6883 610.8304 98.6515 612.4393 98.7011 615.6569 98.8424 618.4831 98.9818 625.7445 99.3101 641.8029 97.0272 659.0788 94.7489 661.7745 94.8873 669.2979 94.9631 677.2567 94.9144 682.7802 94.8547 682.9107 94.8553 687.6944 94.8764 692.0435 94.8534 Z" fill="#67a9cf">
      <title>
        崙背鄉 Lunbei Township
      </title>
    </path>
    <path d="M 572.7599 264.5826 572.4487 284.0245 571.7016 294.5843 567.8476 299.5739 567.923 311.0215 559.3281 315.2725 559.1951 315.7769 559.1056 316.2815 558.6446 321.582 554.2417 322.9914 552.5095 330.0954 552.9795 340.8294 552.891 341.1236 552.8019 341.544 552.669 342.0063 552.4918 342.6367 551.2597 345.3662 544.1718 343.8585 542.979 347.4299 536.8473 346.2213 533.913 358.6219 533.9126 358.7061 532.3649 363.5803 533.2601 367.4145 538.7735 370.514 548.3034 371.3183 548.4779 371.235 549.203 365.3887 556.113 367.7793 566.8534 370.3144 569.0595 382.2772 578.7043 377.3576 580.4537 375.6825 590.5663 372.9952 590.5212 373.3316 587.6308 376.9372 587.5859 377.2316 587.7057 379.5048 591.5724 381.1645 601.8569 378.9825 602.9232 383.7011 605.0006 386.3201 604.9127 386.488 595.7192 397.3027 587.3905 400.0408 587.2164 400.04 577.0604 402.4745 576.7557 402.473 573.1917 401.1933 565.5145 395.1802 560.2014 395.4912 560.0706 395.5326 556.5252 399.4293 551.3322 410.809 551.2885 410.8509 548.9327 411.8073 545.8402 412.0447 541.1463 410.3382 541.0158 410.2955 538.3615 409.9878 534.2078 413.5024 525.7863 425.9599 518.146 430.0461 518.1458 430.0881 514.21 433.4773 511.2202 439.2279 507.63 443.1237 503.9303 442.8105 494.4941 440.2375 491.9676 440.435 479.2117 448.4079 472.1961 449.3397 471.9784 449.3385 470.151 449.0345 453.252 441.329 453.2087 441.2867 450.0811 439.8394 449.9074 439.7543 448.7768 439.4538 448.6897 439.4533 438.0608 440.2389 437.8428 440.2799 433.8822 439.9222 437.8429 423.7825 437.8876 423.5723 438.5063 421.8501 438.6838 421.2197 441.7804 411.9773 437.9777 406.5282 438.0656 406.3603 440.563 395.1368 453.0955 396.3391 453.4959 394.6999 453.5405 394.4897 455.9121 382.2132 456.0005 381.9612 457.3199 379.4008 460.3453 366.9173 461.7398 366.63 463.4297 359.7789 457.4394 356.507 453.5466 351.731 453.1992 351.5608 448.9913 348.8032 448.7748 348.5916 446.869 346.7719 448.0195 343.2007 451.8909 343.7261 451.9355 343.5159 455.14 330.0654 459.7596 328.9532 459.8484 328.617 463.5764 314.8324 471.1882 315.7978 472.4764 310.7543 476.3892 311.6162 477.2822 307.2439 477.3701 307.076 477.5903 306.5721 477.6782 306.4043 478.8265 303.1696 479.3929 303.0463 481.2665 302.635 482.2103 296.8321 480.674 290.8901 478.5022 290.0793 481.7191 282.3101 478.814 280.2329 478.3821 279.5994 474.1056 273.4328 473.8893 273.1792 472.3031 268.5416 476.9923 262.1688 481.9745 258.028 484.8341 260.4416 486.9825 265.7975 490.6975 271.1614 498.8538 276.0849 499.3329 276.0031 504.0358 275.4378 504.2967 275.4812 514.8633 277.1338 523.2439 280.8372 528.6398 280.9482 529.1187 280.9085 529.1622 280.9088 541.0911 279.9578 544.8017 277.6193 552.3816 276.0572 556.628 270.9014 556.6719 270.8174 556.7162 270.6493 556.8049 270.3131 557.0695 269.5989 557.1138 269.4308 561.6174 265.0337 572.7599 264.5826 Z" fill="#67a9cf">
      <title>
        東勢鄉 Dongshi Township
      </title>
    </path>
    <path d="M 650.7335 256.7404 654.9287 262.4409 659.8726 266.2088 660.3931 266.5899 664.2504 270.1003 671.198 273.4982 679.1589 274.1648 684.4576 276.545 685.0809 273.3493 690.7037 271.3119 694.0858 274.1043 694.1288 274.2307 695.7536 290.8194 695.666 290.9453 690.3566 290.922 689.616 291.0871 686.1261 292.9656 685.444 299.6121 686.6258 307.9922 679.309 309.0962 676.1641 331.2611 668.2452 330.5946 667.6362 330.5077 664.8518 330.2006 669.2457 340.489 669.7628 341.6697 671.6147 346.139 667.9577 346.2489 661.0904 343.9456 660.5684 343.8591 659.5761 351.5983 659.4862 352.2291 659.4398 352.8602 658.0092 361.2287 660.4277 365.5322 658.3908 363.503 648.3461 361.0167 636.1496 362.6865 629.0778 366.9467 620.7922 370.0648 617.3824 373.1212 617.2512 373.2468 615.0666 374.9621 614.9791 375.0459 612.7513 376.6768 605.0006 386.3201 602.9232 383.7011 601.8569 378.9825 591.5724 381.1645 587.7057 379.5048 587.5859 377.2316 587.6308 376.9372 590.5212 373.3316 590.5663 372.9952 580.4537 375.6825 578.7043 377.3576 569.0595 382.2772 566.8534 370.3144 556.113 367.7793 549.203 365.3887 548.4779 371.235 548.3034 371.3183 538.7735 370.514 533.2601 367.4145 532.3649 363.5803 533.9126 358.7061 533.913 358.6219 536.8473 346.2213 542.979 347.4299 544.1718 343.8585 551.2597 345.3662 552.4918 342.6367 552.669 342.0063 552.8019 341.544 552.891 341.1236 552.9795 340.8294 552.5095 330.0954 554.2417 322.9914 558.6446 321.582 559.1056 316.2815 559.1951 315.7769 559.3281 315.2725 567.923 311.0215 567.8476 299.5739 571.7016 294.5843 572.4487 284.0245 572.7599 264.5826 573.5873 264.4603 573.8921 264.4197 580.3306 264.8293 587.8945 266.5068 591.161 265.9331 598.1261 265.419 604.5337 263.1345 604.6208 263.1349 604.8387 263.0518 604.9695 263.0103 613.3256 262.7969 614.9535 258.9748 623.3251 255.3943 635.7324 254.189 636.0366 254.2745 636.2975 254.3178 641.3746 257.4133 648.9502 256.564 649.6031 256.5249 650.7335 256.7404 Z" fill="#67a9cf">
      <title>
        褒忠鄉 Baozhong Township
      </title>
    </path>
    <path d="M 660.4277 365.5322 665.1007 371.908 671.1735 376.817 676.3279 382.7318 676.3277 382.7739 674.7529 384.4924 673.5083 390.2525 668.8541 389.3059 666.4334 395.187 666.5374 401.1635 666.5364 401.3739 671.6744 401.2706 671.8816 413.434 676.4536 413.3702 674.0493 425.3537 674.0919 425.5643 677.3755 431.3445 677.3746 431.5549 672.9198 444.4131 672.3287 450.0498 672.3275 450.3023 672.2831 450.5125 672.4569 450.5975 673.6995 455.1482 673.8755 464.5759 671.8 471.0477 671.8432 471.1321 676.5246 466.229 681.61 468.4399 692.2111 464.1517 699.6569 464.3526 699.7004 464.3527 700.0053 464.3541 704.9368 461.8925 710.5167 460.5278 711.0395 460.4879 711.9547 460.3235 712.042 460.2818 731.5776 454.0104 736.6402 451.3384 746.3095 450.8319 746.3966 450.8323 746.4401 450.8324 746.5706 450.8751 746.7007 451.0019 750.0114 450.7211 757.3625 452.6875 762.4028 455.3597 761.5198 458.3019 761.3874 458.7222 760.5929 461.3282 760.4608 461.6643 753.6588 484.7827 750.4935 491.9239 750.1862 492.5118 746.451 500.4923 746.1437 501.0802 739.5994 514.141 739.5116 514.309 731.1725 529.3822 725.887 532.8948 721.0348 547.1829 720.8147 547.729 720.5944 548.3173 720.4607 549.0321 720.3276 549.5787 720.3225 550.7991 720.3199 551.3883 720.3167 552.1458 718.3661 560.0914 711.3218 567.2576 708.8195 571.7078 705.5836 574.5134 699.1691 576.9265 698.5149 577.092 689.4027 578.6935 675.8022 580.4853 666.2203 579.8956 660.1726 578.101 662.2106 570.4929 661.4246 561.1466 661.6441 560.7688 661.8642 560.2648 661.7339 560.18 654.5458 560.2319 654.2201 555.1382 649.9002 556.76 647.6899 554.2249 630.6618 553.2213 630.4875 553.2205 628.3766 548.0765 627.7669 548.0316 616.4881 547.264 616.8227 540.8687 606.4554 540.8624 606.6379 539.0957 594.9739 536.9787 594.887 536.9362 601.5784 531.2022 595.7122 528.1865 595.3168 519.6415 584.9935 519.7188 589.2899 504.6308 589.203 504.5883 588.3992 499.5764 576.214 497.5402 576.4883 494.806 576.1837 494.7625 570.3518 493.8928 570.2213 493.8501 556.6878 491.512 557.4228 483.6457 552.5069 482.5275 553.8384 477.3997 554.5184 462.9258 554.5661 462.0843 550.3365 463.2 548.3823 462.0962 550.1777 451.1208 544.995 451.2638 545.2754 447.3512 544.1042 437.5397 542.9862 434.6724 548.1688 425.5654 549.664 413.6206 548.9327 411.8073 551.2885 410.8509 551.3322 410.809 556.5252 399.4293 560.0706 395.5326 560.2014 395.4912 565.5145 395.1802 573.1917 401.1933 576.7557 402.473 577.0604 402.4745 587.2164 400.04 587.3905 400.0408 595.7192 397.3027 604.9127 386.488 605.0006 386.3201 612.7513 376.6768 614.9791 375.0459 615.0666 374.9621 617.2512 373.2468 617.3824 373.1212 620.7922 370.0648 629.0778 366.9467 636.1496 362.6865 648.3461 361.0167 658.3908 363.503 660.4277 365.5322 Z" fill="#67a9cf">
      <title>
        元長鄉 Yuanchang Township
      </title>
    </path>
    <path d="M 528.7329 499.1603 525.3284 509.412 523.9917 515.4656 524.1649 515.6769 524.1634 515.9715 522.3298 525.5998 524.7554 528.3474 524.8262 531.6303 524.7812 531.9247 529.6505 533.8006 529.0422 542.2987 535.7928 542.5426 536.01 542.6699 535.6325 548.5599 533.8673 553.1805 533.8667 553.3067 533.8663 553.3909 530.8748 559.31 531.059 566.1287 529.606 569.2357 534.563 579.9918 528.8856 582.7834 528.6173 584.1709 528.615 584.6338 528.4525 591.0719 523.9287 589.6186 523.8663 593.4059 519.031 593.2555 518.9864 593.4657 518.7543 605.0799 523.5023 605.314 523.004 609.1412 525.5632 611.4686 529.5282 611.4462 534.8762 613.7452 539.4637 620.0805 537.751 622.8076 547.1056 625.589 547.1926 625.6315 547.6712 625.7601 545.1215 630.3769 544.109 641.3981 539.108 639.3114 539.0207 639.353 538.9327 639.5209 535.1197 652.8429 535.9336 655.7086 535.9307 656.2978 535.6071 660.0838 540.1751 661.6634 538.3926 669.6928 541.4499 677.2409 541.2575 680.9434 546.4878 680.8428 544.603 683.064 542.7448 688.7363 542.6099 689.5773 539.7618 701.5994 537.9493 706.8089 537.7727 707.271 536.4577 708.7795 530.6114 709.929 526.1311 708.0972 520.0115 702.8483 517.5879 699.3853 517.3285 698.9631 512.1598 686.6486 508.2301 679.3904 507.6236 678.6719 505.8488 676.2641 501.4506 675.5686 491.8559 676.9087 483.0804 679.9781 479.9275 682.9078 479.7517 683.2015 478.2008 688.2016 479.5148 695.4469 480.029 697.1749 482.3447 704.5937 483.779 713.9437 483.8205 714.3648 487.3736 735.6776 487.6272 737.236 487.7129 737.531 488.0095 739.2159 487.1558 744.2196 483.5142 748.8302 476.2904 754.8954 471.3946 757.4794 464.8442 759.6759 453.4964 762.2261 451.533 762.5525 441.1931 764.0553 427.0541 758.5095 423.7077 756.5557 420.8384 755.0675 419.7506 754.6829 405.1395 747.913 401.9925 749.4531 400.0761 749.1481 398.3776 748.8443 398.9559 746.7011 393.6446 745.4097 386.927 746.2148 377.3087 751.3384 376.8276 751.6303 371.4718 750.5066 362.3963 751.9714 364.2328 743.0597 366.558 732.4673 367.8833 729.2762 370.6094 724.9987 374.5489 721.9903 377.8984 715.2753 378.2088 714.309 378.2535 714.0989 378.877 711.6614 385.3286 711.5284 390.2431 713.5333 390.3734 713.6182 394.8579 714.5264 394.6694 709.0964 397.5901 709.0281 397.7658 700.6964 397.7692 700.0651 397.8055 685.2936 402.6546 683.1736 403.1852 673.6654 392.5367 676.3851 393.4297 672.4341 393.5217 671.5508 394.9495 665.4142 394.8245 664.3614 394.7391 664.0243 394.3282 659.4348 398.7439 656.8075 404.2011 646.863 406.557 638.2484 406.7345 637.6601 408.7222 632.6628 407.2588 629.2881 402.9522 627.9602 401.9942 627.8288 401.3854 627.615 401.342 627.5727 401.1244 627.5295 394.3526 622.7792 397.4884 615.0105 397.1063 613.1567 395.5001 612.0538 395.3301 611.2533 395.3767 610.7064 395.4207 610.6225 395.5528 610.3707 395.7722 610.0773 395.9479 609.8257 398.5766 607.1466 400.0185 606.3969 403.5517 605.6585 406.4679 606.2214 413.8699 607.1451 417.6725 604.8929 420.2723 599.4358 424.5855 599.4589 426.2462 598.4998 426.3343 598.3319 426.425 597.6591 425.4506 592.4354 425.595 589.869 427.7452 586.9766 426.7183 583.436 433.7178 561.5049 436.7761 559.8377 446.6809 556.7757 449.5245 554.476 452.1834 545.8205 453.8895 544.4406 461.6438 544.3549 464.5794 541.0454 468.8573 539.3 469.2507 539.0496 480.9371 528.1257 481.0246 528.042 489.4051 524.634 494.4886 518.5576 494.5763 518.4318 494.6203 518.3478 498.3649 509.992 498.1432 502.163 500.9935 498.3478 501.5868 492.9639 505.335 492.4358 505.6834 492.4375 510.7825 491.7478 517.3068 493.4639 528.7329 499.1603 Z" fill="#7fbf7b">
      <title>
        水林鄉 Shuilin Township
      </title>
    </path>
    <path d="M 481.9745 258.028 476.9923 262.1688 472.3031 268.5416 473.8893 273.1792 474.1056 273.4328 478.3821 279.5994 478.814 280.2329 481.7191 282.3101 478.5022 290.0793 480.674 290.8901 482.2103 296.8321 481.2665 302.635 479.3929 303.0463 478.8265 303.1696 477.6782 306.4043 477.5903 306.5721 477.3701 307.076 477.2822 307.2439 476.3892 311.6162 472.4764 310.7543 471.1882 315.7978 463.5764 314.8324 459.8484 328.617 459.7596 328.9532 455.14 330.0654 451.9355 343.5159 451.8909 343.7261 448.0195 343.2007 446.869 346.7719 448.7748 348.5916 448.9913 348.8032 453.1992 351.5608 453.5466 351.731 457.4394 356.507 463.4297 359.7789 461.7398 366.63 460.3453 366.9173 457.3199 379.4008 456.0005 381.9612 455.9121 382.2132 453.5405 394.4897 453.4959 394.6999 453.0955 396.3391 440.563 395.1368 438.0656 406.3603 437.9777 406.5282 441.7804 411.9773 438.6838 421.2197 438.5063 421.8501 437.8876 423.5723 437.8429 423.7825 433.8822 439.9222 426.2238 438.9134 426.0063 438.8702 420.0562 435.9766 412.0508 434.7551 405.8771 432.9963 388.8399 419.2258 388.7532 419.1412 387.322 418.1233 387.192 417.9963 381.5858 416.0717 375.099 408.0397 374.9691 407.9127 374.8827 407.786 365.4831 399.0643 361.4611 394.202 361.3312 394.0751 357.3951 389.4658 355.5115 383.7316 358.7556 379.7095 359.6129 374.2853 363.9229 366.4393 369.9335 358.0135 372.0153 351.5439 371.8425 351.2904 365.857 347.3853 364.2065 346.7449 361.5971 346.3095 360.4216 346.345 358.7214 346.7985 357.1954 347.2529 355.9756 347.4144 355.7145 347.4129 341.3501 347.3321 329.4977 349.4954 319.4657 353.0154 318.9856 353.2231 306.673 359.6334 306.236 359.9255 298.0194 365.5595 283.9357 376.8826 292.4787 367.6315 294.286 363.7702 294.4469 358.5525 292.8691 352.9038 296.1694 346.7785 294.5352 343.3601 295.6635 336.4646 299.6417 333.4996 306.971 323.0627 313.7456 318.1777 313.0975 309.7568 332.7339 262.5226 334.8557 233.7058 336.7431 230.8126 341.1794 231.1323 342.0059 231.1791 343.2239 231.228 360.7117 231.9155 363.7588 231.68 395.7837 231.6041 401.527 231.6354 407.9159 224.9364 416.0752 220.6877 422.9512 220.43 431.359 218.4549 440.579 219.2193 445.6608 220.8875 450.2393 227.2666 456.8342 230.8364 459.5323 230.7664 465.0023 233.1517 465.2623 233.3635 468.8102 237.2117 468.8533 237.2961 475.0443 243.3465 477.1551 247.4818 477.1976 247.6924 478.9904 254.4354 481.9745 258.028 Z" fill="#2166ac">
      <title>
        臺西鄉 Taixi Township
      </title>
    </path>
    <path d="M 283.9357 376.8826 298.0194 365.5595 306.236 359.9255 306.673 359.6334 318.9856 353.2231 319.4657 353.0154 329.4977 349.4954 341.3501 347.3321 355.7145 347.4129 355.9756 347.4144 357.1954 347.2529 358.7214 346.7985 360.4216 346.345 361.5971 346.3095 364.2065 346.7449 365.857 347.3853 371.8425 351.2904 372.0153 351.5439 369.9335 358.0135 363.9229 366.4393 359.6129 374.2853 358.7556 379.7095 355.5115 383.7316 357.3951 389.4658 361.3312 394.0751 361.4611 394.202 365.4831 399.0643 374.8827 407.786 374.9691 407.9127 375.099 408.0397 381.5858 416.0717 387.192 417.9963 387.322 418.1233 388.7532 419.1412 388.8399 419.2258 405.8771 432.9963 412.0508 434.7551 420.0562 435.9766 426.0063 438.8702 426.2238 438.9134 433.8822 439.9222 437.8428 440.2799 438.0608 440.2389 448.6897 439.4533 448.7768 439.4538 449.9074 439.7543 450.0811 439.8394 453.2087 441.2867 453.252 441.329 470.151 449.0345 471.9784 449.3385 472.1961 449.3397 479.2117 448.4079 491.9676 440.435 494.4941 440.2375 503.9303 442.8105 507.63 443.1237 511.2202 439.2279 514.21 433.4773 518.1458 430.0881 518.146 430.0461 525.7863 425.9599 534.2078 413.5024 538.3615 409.9878 541.0158 410.2955 541.1463 410.3382 545.8402 412.0447 548.9327 411.8073 549.664 413.6206 548.1688 425.5654 542.9862 434.6724 544.1042 437.5397 545.2754 447.3512 544.995 451.2638 550.1777 451.1208 548.3823 462.0962 550.3365 463.2 554.5661 462.0843 554.5184 462.9258 553.8384 477.3997 552.5069 482.5275 557.4228 483.6457 556.6878 491.512 539.7086 490.2505 539.2268 499.6751 536.6576 499.5783 536.3092 499.5765 531.6443 500.5214 528.7329 499.1603 517.3068 493.4639 510.7825 491.7478 505.6834 492.4375 505.335 492.4358 501.5868 492.9639 500.9935 498.3478 498.1432 502.163 498.3649 509.992 494.6203 518.3478 494.5763 518.4318 494.4886 518.5576 489.4051 524.634 481.0246 528.042 480.9371 528.1257 469.2507 539.0496 468.8573 539.3 464.5794 541.0454 461.6438 544.3549 453.8895 544.4406 452.1834 545.8205 449.5245 554.476 446.6809 556.7757 436.7761 559.8377 433.7178 561.5049 426.7183 583.436 427.7452 586.9766 425.595 589.869 415.839 589.2696 416.5175 584.6019 416.6579 582.793 408.6482 581.5715 408.3892 581.1072 405.8647 580.6727 404.5151 580.497 403.8621 580.4093 403.7319 580.3245 403.6465 579.9873 403.6041 579.7767 403.6493 579.4823 403.3452 579.3123 402.3008 579.0962 396.3589 574.1821 397.5193 561.0159 397.0634 556.7207 397.1077 556.5947 397.4995 556.6389 398.1084 556.8106 402.8394 551.9544 403.3613 544.0453 399.6261 542.0049 396.5889 539.8 396.6331 539.674 396.8536 539.1702 397.9987 536.8617 401.1503 525.9788 397.2758 525.579 397.1018 525.536 396.8414 525.3662 395.6685 524.7706 394.887 524.3034 394.3222 524.0479 393.7576 523.7502 389.8497 521.4983 369.1045 515.7868 361.5728 515.1558 361.3988 515.1127 354.4274 515.5367 356.1259 507.7605 357.8018 504.0243 357.584 504.0231 351.6158 504.2422 344.636 506.223 343.4175 506.0478 339.5912 504.8899 338.3741 504.4622 335.9387 503.8172 335.4167 503.6879 332.8945 503.0003 331.9813 502.7426 330.4155 502.3549 329.9388 501.9314 331.9725 496.5981 332.3057 491.5918 334.1579 487.5201 325.0227 485.6585 324.8922 485.6156 322.0704 484.0424 319.3638 485.1632 318.2654 486.8403 317.9141 487.3433 315.0128 492.0402 311.5208 493.409 311.1694 501.5294 311.1195 502.6234 310.4602 503.6717 300.0579 509.9665 300.0141 510.0083 299.1401 510.5083 298.9216 510.6333 295.8621 512.4673 291.772 519.2613 287.2063 517.93 284.203 517.5758 284.1159 517.5753 281.1556 517.3055 275.6642 517.8624 275.6946 512.6861 275.8432 509.6147 277.6492 498.7253 278.023 494.3927 277.2743 488.3701 275.682 485.1201 273.1123 485.1471 270.5186 489.2562 266.7302 503.9216 264.1248 509.9664 258.9117 515.0278 252.4584 516.2099 249.1542 515.1801 239.1101 505.0194 232.9863 494.882 231.7416 491.8444 232.699 484.7377 238.8794 478.1254 246.7471 473.3328 250.2935 470.1556 253.243 464.8283 257.4603 451.3019 259.4488 446.4318 262.7551 439.5915 266.757 432.9236 272.4511 419.8265 275.7153 405.2421 280.4122 383.8481 283.9357 376.8826 Z" fill="#67a9cf">
      <title>
        四湖鄉 Sihu Township
      </title>
    </path>
    <path d="M 178.292 725.3839 178.5854 727.2795 178.7136 727.7012 179.2325 728.3778 181.4513 729.0649 184.2853 728.9562 189.5725 733.955 190.1644 736.9467 192.8538 739.1096 191.9242 741.4185 191.9175 742.5127 192.4811 743.0212 192.6074 743.7374 192.2876 746.1343 189.522 749.2735 185.5743 746.1348 184.0404 747.472 176.5085 745.9102 170.0085 746.6692 168.6664 745.1879 167.3064 746.5682 168.996 748.2621 167.8099 749.7277 168.2668 753.3498 166.3893 753.8431 164.7425 752.2756 161.7759 752.6358 156.5232 756.0537 157.332 759.1731 155.5817 760.2142 153.5019 765.125 158.3364 765.8709 154.047 768.5794 151.5698 767.3433 148.1697 767.2797 146.914 765.925 146.1917 762.9324 144.7994 762.5028 143.4419 763.4621 145.7003 764.8231 145.9089 766.2974 144.7258 767.2579 143.9517 765.5696 143.1242 765.4381 141.9446 765.8514 141.507 766.1012 140.8473 767.0228 140.8818 768.4539 138.2584 769.6577 137.7704 771.0013 142.1684 771.8289 145.43 773.1121 148.9602 773.3028 151.2242 773.7801 151.4342 775.0439 149.2864 776.8821 147.8908 776.9574 145.4043 777.1942 143.5488 774.1523 136.7472 774.2353 135.276 779.3603 141.9959 778.4351 142.2819 781.467 143.932 782.5296 144.1388 784.2985 141.7753 785.7565 141.7615 787.9448 142.0547 789.8405 141.5701 790.637 140.3047 790.7973 140.1667 791.9327 139.9474 792.1417 139.2498 792.1373 138.2128 790.6577 137.352 788.8847 135.2575 789.1659 134.2598 788.36 132.0096 785.6943 130.2186 786.2299 128.609 785.6725 127.7772 786.2143 125.1033 788.4698 122.9638 788.9611 118.6902 789.1019 116.5367 791.7815 123.7212 793.2586 129.4309 793.5476 130.7242 795.8706 132.803 798.0723 133.935 798.332 133.9291 799.2578 132.9218 799.9668 131.1361 799.6608 130.3371 801.8862 131.46 803.5768 130.3171 805.0425 131.2597 807.6577 128.5554 807.8088 126.8874 809.5657 128.1841 811.3415 128.9235 811.6408 129.0957 811.9786 128.7876 812.4396 128.0445 812.7294 126.7349 812.9736 125.0694 814.3096 121.0482 815.8409 113.9842 815.8796 112.1093 815.8675 110.6791 814.5116 112.5758 811.115 119.299 809.8116 117.2732 806.1372 116.065 804.1514 117.7724 803.0682 118.0865 801.6814 117.7843 801.2165 116.0443 800.574 114.3117 798.7953 112.9319 796.3876 109.7476 796.6195 111.0407 798.9425 110.016 802.3448 111.4093 802.6484 111.2688 804.1625 111.3861 806.2675 108.5277 810.0367 103.4421 814.3385 100.5617 814.7406 102.4506 819.3401 101.4006 819.8804 99.5052 816.2909 98.0993 817.923 94.9526 819.0388 93.516 818.6928 92.3826 818.6433 90.9339 820.1489 89.4212 818.0769 88.9286 813.3601 90.7793 810.3842 93.2359 808.0856 95.9201 804.3155 95.8776 797.4133 96.2356 795.9847 97.1604 794.5599 98.3883 793.4736 98.479 792.9271 98.1782 792.2518 99.4915 791.4187 100.9826 790.0816 101.1654 788.7782 101.9548 788.0679 102.6962 788.0306 103.8533 784.3767 94.9141 784.6132 96.0533 790.4704 96.2645 791.5239 95.7326 792.8672 94.2001 793.8672 94.3873 798.624 92.3435 804.5026 87.6828 810.4902 85.0116 812.2403 85.5222 814.1795 86.734 815.5763 86.2909 816.6676 82.5905 815.7595 82.0413 813.0625 80.3455 812.3359 77.6991 810.2984 73.9585 815.5344 73.3956 814.9415 72.4838 814.3463 71.3965 813.9183 68.7821 813.6485 65.0741 813.9185 63.9821 814.2059 63.3689 814.6227 63.1012 815.5468 62.9196 816.6398 59.8178 817.545 60.2277 821.5037 56.8675 821.9023 55.1944 824.332 57.4395 827.7138 56.0283 830.1032 51.654 832.1783 51.8058 835.5882 56.031 836.2897 57.0695 837.5171 53.8735 839.4317 53.1443 844.1824 54.7391 847.0127 54.6017 854.5871 53.3271 856.0936 52.7165 856.0895 51.895 855.0319 50.9384 854.6047 49.9351 854.6401 49.2788 854.9724 46.0328 857.8125 41.2356 857.8224 38.4931 857.0885 36.6174 857.1601 34.4899 855.757 33.9711 855.0801 34.3678 854.4515 35.1111 854.1619 35.6392 853.45 36.5594 852.7829 35.4867 850.1664 39.5355 838.1153 43.678 838.1431 42.129 835.0184 37.984 835.3693 34.8813 836.3585 30.8989 838.478 31.7145 840.4194 25.7114 844.7136 21.6458 852.6822 26.194 857.2581 27.7059 859.4147 27.8684 861.1833 28.8641 862.2843 29.1595 863.7592 30.8804 867.2639 34.3101 869.6017 35.5382 875.0809 37.9031 880.147 43.2641 887.2111 45.4369 888.4041 45.3852 889.6242 43.5523 889.7802 42.6283 890.9945 47.3115 895.1081 47.1146 898.4735 48.7614 900.0837 49.7198 900.2585 49.7145 901.058 48.1735 903.2362 47.1233 903.7342 46.5958 904.3619 43.843 905.101 43.2075 902.2771 40.3274 895.9451 39.0718 894.5478 38.2679 897.3621 36.4857 896.4663 34.2819 893.3793 35.1179 892.2908 35.7366 891.0745 36.7898 890.1136 36.7526 889.1454 33.6747 886.3471 31.5805 886.4592 32.1595 884.6535 32.0785 883.7271 31.908 883.1368 31.39 882.3337 30.0004 881.4405 29.9174 880.8087 22.5632 871.8791 15.6174 854.1984 13.4966 851.8272 7.5447 848.5039 1 842.6094 4.0885 837.3278 7.7306 827.5469 10.4933 825.2511 15.2919 824.9471 23.2336 817.6362 25.2062 816.0924 28.3495 815.5245 31.4703 811.8 31.8819 808.941 33.3691 808.2356 35.373 808.5016 37.6121 806.202 39.0686 803.5604 49.1312 798.4094 53.8722 793.5592 56.8066 791.5586 58.7691 791.4875 61.1861 788.5997 66.0337 787.3693 77.6834 779.3659 79.7777 779.1272 80.8259 778.8395 81.0516 777.6626 82.7154 776.5793 85.7881 773.359 92.1784 769.4869 104.4454 760.1818 108.8534 759.4107 109.2663 756.2149 113.7736 753.5506 114.7819 752.6733 117.353 752.8162 118.8023 751.1421 121.2054 750.2738 122.3084 748.2187 124.3604 747.7268 125.3323 745.713 127.3382 745.5996 128.3419 745.4377 128.8227 745.2303 129.4368 744.6451 129.7916 743.6794 129.9363 741.4919 131.7353 739.6517 137.2294 739.3921 140.1704 736.1703 141.6676 733.781 145.7703 732.9653 150.2053 727.817 153.1732 727.2044 154.3617 725.3602 155.7177 724.6112 158.7247 724.7143 159.8651 723.5852 161.4833 722.7116 160.7143 720.2238 165.4713 719.2857 166.4591 721.6486 170.6343 723.1477 174.7724 723.5944 178.292 725.3839 Z M 207.8398 690.5095 210.2332 691.1133 210.6116 693.3882 212.645 695.8836 214.3378 697.0302 215.6382 698.2165 216.3263 699.7358 217.9361 700.2085 217.8454 700.7971 216.7486 701.9688 216.2228 702.4286 215.396 702.2131 213.6649 700.1825 210.2872 703.7391 209.665 705.7133 216.2557 704.1963 219.3471 704.7201 219.7667 707.4161 222.732 707.1816 223.1215 707.6469 222.9008 708.1085 222.8987 708.4452 223.2028 708.6153 224.4665 708.6651 224.1092 710.0938 221.2341 709.8239 220.6662 710.0308 220.315 710.4496 220.4402 711.3762 222.2632 712.6498 221.6859 714.4138 221.1188 714.4946 220.5539 714.1966 219.5573 713.2225 217.507 713.5047 216.4145 713.961 212.0677 711.9986 210.4535 712.2412 209.8456 711.8588 209.2885 710.2982 205.8945 709.3516 204.8038 709.5132 202.0569 709.6647 200.5678 710.834 200.0755 712.9352 201.1126 714.4145 198.701 716.7565 198.8093 720.4185 197.2454 726.6795 194.503 726.0735 192.8361 720.6763 189.6291 717.6685 188.2086 714.7558 188.6099 713.2854 187.1734 712.9819 185.037 713.0949 184.6195 710.1043 186.5432 709.1482 185.1249 705.8989 186.6553 705.1088 187.6227 703.726 187.9947 699.9406 191.3687 697.0156 198.8477 685.6566 199.5607 683.0938 202.5618 684.0802 206.9461 686.9689 207.8398 690.5095 Z M 257.543 702.2561 256.8902 702.0839 255.7466 703.8447 258.7464 705.125 260.4781 707.1133 262.9625 707.128 264.218 708.5663 255.3264 708.5557 254.2841 707.9182 254.0291 706.8225 253.7345 705.0532 254.8811 702.7874 255.243 700.5591 254.8146 699.294 253.1637 698.4004 256.0596 695.135 255.556 691.8494 258.7422 691.0687 258.0108 689.4651 256.9685 688.8276 254.5275 688.8973 255.1047 687.0911 255.154 686.1234 254.4186 685.1932 254.5093 684.6045 257.7559 680.9625 253.8317 681.2758 253.7181 678.3713 257.806 679.8686 259.8151 679.1229 260.9166 677.1094 261.1952 674.2072 259.7172 673.5672 260.9894 672.1438 264.3116 670.438 266.9167 672.0947 268.3972 672.3139 268.2991 674.165 269.5994 675.3932 269.9637 680.1509 273.6217 680.6354 272.2362 686.5191 270.179 688.022 269.741 688.3982 269.0375 689.4462 268.856 690.6656 269.0616 692.771 268.704 694.284 268.132 695.2065 265.5532 696.4538 265.1003 699.3549 263.1747 700.6903 262.4271 701.8221 258.5818 703.4827 257.543 702.2561 Z M 242.5703 662.2283 240.4184 664.993 241.0182 666.7221 240.229 667.5169 239.9605 668.6937 239.3051 668.9844 237.9622 667.6296 236.1684 668.7972 235.6498 668.0786 235.1298 667.5705 234.6505 667.5676 234.3434 667.9024 231.9299 670.6655 231.783 673.358 232.6511 673.9524 232.384 674.8767 230.0794 674.0211 228.5467 675.2323 227.9004 674.0079 226.2436 674.1242 223.1439 675.0312 220.8673 676.7429 220.6714 680.3189 221.1837 682.0896 218.2261 688.3002 213.4443 686.251 213.424 682.4212 209.6499 679.5364 209.6537 678.9051 210.7929 677.902 211.2359 676.7264 211.0751 674.4949 212.2146 673.4497 212.3619 670.7151 216.8873 664.6824 224.0714 658.5396 224.6564 655.4709 226.4494 654.4296 229.8033 654.7024 231.2425 654.5007 231.9866 653.9581 232.43 652.6982 233.2584 652.619 235.6539 652.8439 241.4497 652.8366 244.3205 653.7376 247.1202 651.9447 247.2556 651.1459 246.866 650.7227 245.2629 649.156 248.5035 646.4819 250.0131 641.7774 250.2885 639.4223 254.0031 637.6348 255.1357 637.6836 256.5677 638.7022 258.8408 637.4952 262.5438 637.6434 263.3194 639.121 263.8862 639.0822 266.3855 636.4457 266.9415 638.2165 265.5425 639.0079 264.5313 640.5169 262.3482 641.2616 262.4585 644.7132 263.1946 645.5171 262.2708 646.9846 262.5632 649.1327 264.2052 651.4992 260.5613 656.0649 260.6796 658.1698 262.1132 658.9358 261.1414 661.1606 261.7859 662.7215 260.6001 664.2716 259.474 663.0866 258.0399 662.4047 258.6634 660.1358 257.2408 657.5181 256.4056 651.3688 252.242 648.0193 251.3199 649.1922 250.0493 650.363 248.7763 651.9125 246.8084 653.0791 246.4094 661.5358 243.533 661.5607 242.5703 662.2283 Z M 261.8243 626.655 260.8243 626.2703 260.5756 624.1225 259.8416 622.9818 259.547 621.2125 258.8558 620.1984 257.8559 619.8136 257.5584 618.5493 256.9937 618.2514 255.8664 617.3188 256.1759 616.5631 258.0078 616.2373 257.9334 614.0905 259.1556 613.719 260.6905 612.0447 261.7889 610.4941 262.3284 607.6776 264.385 606.1747 265.4772 605.6762 265.9127 605.7208 266.3882 606.3549 265.3146 611.1042 266.0656 616.748 264.6409 621.916 261.8243 626.655 Z M 397.9987 536.8617 396.8536 539.1702 396.6331 539.674 396.5889 539.8 403.3613 544.0453 402.8394 551.9544 398.4998 556.939 397.5193 561.0159 396.3589 574.1821 402.3008 579.0962 403.3452 579.3123 403.6495 579.4402 403.6465 579.9873 403.7319 580.3245 403.8621 580.4093 408.6482 581.5715 416.6579 582.793 416.5175 584.6019 415.839 589.2696 423.7625 590.3642 425.4506 592.4354 426.425 597.6591 424.5855 599.4589 420.2723 599.4358 417.6725 604.8929 413.8699 607.1451 406.4679 606.2214 403.5517 605.6585 400.0185 606.3969 398.5766 607.1466 395.9919 609.7418 395.9479 609.8257 395.5528 610.3707 395.3767 610.7064 395.5001 612.0538 397.4884 615.0105 394.3526 622.7792 400.341 627.3569 400.602 627.4424 401.1244 627.5295 401.5161 627.6157 401.9942 627.8288 402.9522 627.9602 407.2588 629.2881 408.7222 632.6628 406.7345 637.6601 404.2011 646.863 398.7439 656.8075 394.3282 659.4348 394.4403 662.8863 394.5251 663.3077 394.7391 664.0243 394.8245 664.3614 394.9495 665.4142 393.5676 671.1302 392.5367 676.3851 403.1852 673.6654 402.6546 683.1736 397.8055 685.2936 397.5901 709.0281 394.6694 709.0964 394.8579 714.5264 385.3286 711.5284 378.877 711.6614 378.6524 712.8806 378.3863 713.7208 377.8984 715.2753 374.5489 721.9903 370.6094 724.9987 367.8833 729.2762 366.558 732.4673 364.2328 743.0597 362.3963 751.9714 359.4757 751.9551 351.9134 747.8307 350.6542 746.9399 349.5684 746.2184 346.8325 744.3513 342.8372 741.6355 331.5777 736.1851 327.6378 739.1507 315.0849 738.9108 303.7798 733.9219 296.9472 731.9886 291.3014 728.3786 291.2176 727.789 292.1585 723.3755 292.1176 722.9124 292.4281 721.9883 289.965 718.2705 290.63 716.3385 296.2917 709.5958 296.6491 708.0828 300.0664 705.0304 297.8207 701.4402 296.9016 694.533 291.1316 689.9122 283.5258 678.7575 281.9339 675.2131 281.467 673.064 281.2732 668.9386 279.4524 667.2866 281.1207 657.701 280.5223 648.2284 276.1952 642.9845 276.1645 640.7959 281.1305 641.0776 283.3626 639.4072 286.5566 629.6622 286.3613 625.7892 286.6444 622.0453 287.0035 620.2378 281.9175 618.188 281.885 608.8028 282.5544 598.6222 282.2294 594.5801 283.5355 579.7738 284.5535 577.0442 289.2772 573.8312 290.1871 567.1871 289.7622 565.3329 286.2305 565.8594 279.8036 562.3287 280.2178 558.5435 281.6145 543.1485 281.4653 538.8549 281.3248 533.0884 279.5111 530.3843 274.4149 530.3544 272.9461 528.2836 267.5451 528.2517 268.5494 520.4298 271.2612 518.5098 281.1556 517.3055 287.2063 517.93 291.772 519.2613 295.8621 512.4673 298.9216 510.6333 307.1383 505.7147 310.4602 503.6717 311.1195 502.6234 311.1694 501.5294 311.5208 493.409 315.0128 492.0402 319.3638 485.1632 322.0704 484.0424 324.8922 485.6156 329.3724 486.6091 334.1579 487.5201 332.3057 491.5918 331.9725 496.5981 329.9388 501.9314 330.4155 502.3549 331.1981 502.6119 332.8945 503.0003 334.6773 503.5154 337.1562 504.1607 338.3741 504.4622 343.4175 506.0478 344.636 506.223 351.6158 504.2422 357.8018 504.0243 356.1259 507.7605 354.4274 515.5367 359.2669 514.68 369.1045 515.7868 389.8497 521.4983 393.3665 523.5797 394.887 524.3034 397.1018 525.536 397.2758 525.579 399.2782 525.8003 401.1503 525.9788 397.9987 536.8617 Z" fill="#67a9cf">
      <title>
        口湖鄉 Kouhu Township
      </title>
    </path>
  </g>
</svg>
